<?xml version="1.0" encoding="utf-8" standalone="no"?>
<!DOCTYPE svg PUBLIC "-//W3C//DTD SVG 1.1//EN"
  "http://www.w3.org/Graphics/SVG/1.1/DTD/svg11.dtd">
<!-- Created with matplotlib (http://matplotlib.org/) -->
<svg height="219pt" version="1.1" viewBox="0 0 345 219" width="345pt" xmlns="http://www.w3.org/2000/svg" xmlns:xlink="http://www.w3.org/1999/xlink">
 <defs>
  <style type="text/css">
*{stroke-linecap:butt;stroke-linejoin:round;}
  </style>
 </defs>
 <g id="figure_1">
  <g id="patch_1">
   <path d="
M0 219.791
L345 219.791
L345 0
L0 0
z
" style="fill:#ffffff;"/>
  </g>
  <g id="axes_1">
   <g id="patch_2">
    <path d="
M34.5 186.823
L310.5 186.823
L310.5 27.4739
L34.5 27.4739
z
" style="fill:#ffffff;"/>
   </g>
   <g id="line2d_1">
    <path clip-path="url(#p7616f64ab4)" d="
M-2336.59 173.544
M-1 173.544
L346 173.544" style="fill:none;stroke:#000000;stroke-dasharray:1.000000,3.000000;stroke-dashoffset:0.0;stroke-width:0.5;"/>
   </g>
   <g id="line2d_2">
    <path clip-path="url(#p7616f64ab4)" d="
M172.5 1501.45
M172.5 220.791
L172.5 -1" style="fill:none;stroke:#000000;stroke-dasharray:1.000000,3.000000;stroke-dashoffset:0.0;stroke-width:0.5;"/>
   </g>
   <g id="line2d_3">
    <path clip-path="url(#p7616f64ab4)" d="
M34.4247 107.148
L310.575 107.148
L310.575 107.148" style="fill:none;stroke:#dfdfdf;stroke-linecap:square;"/>
   </g>
   <g id="line2d_4">
    <path clip-path="url(#p7616f64ab4)" d="
M34.4247 145.306
L38.5688 145.882
L42.7129 146.224
L46.8571 146.343
L51.0012 146.244
L55.1454 145.922
L59.2895 145.368
L63.0569 144.649
L66.8243 143.706
L70.215 142.644
L73.6057 141.359
L76.9963 139.823
L80.0102 138.223
L83.0242 136.375
L86.0381 134.257
L89.052 131.842
L92.0659 129.111
L95.0799 126.05
L98.0938 122.661
L101.484 118.482
L105.252 113.467
L112.033 103.966
L116.931 97.2832
L120.698 92.5325
L123.712 89.0635
L126.726 85.9197
L129.74 83.1067
L132.754 80.6146
L135.768 78.4242
L138.782 76.5116
L141.796 74.8517
L145.186 73.256
L148.577 71.9174
L151.968 70.8084
L155.735 69.8172
L159.502 69.0548
L163.647 68.4573
L167.791 68.0944
L171.935 67.9549
L176.079 68.0345
L180.223 68.3356
L184.367 68.8677
L188.135 69.5654
L191.902 70.4856
L195.67 71.652
L199.06 72.9374
L202.451 74.4733
L205.465 76.074
L208.479 77.921
L211.493 80.0396
L214.507 82.4542
L217.52 85.1856
L220.534 88.2465
L223.548 91.6358
L226.939 95.8145
L230.706 100.829
L237.488 110.331
L242.385 117.013
L246.153 121.764
L249.167 125.233
L252.181 128.377
L255.195 131.19
L258.208 133.682
L261.222 135.872
L264.236 137.785
L267.25 139.445
L270.641 141.04
L274.032 142.379
L277.422 143.488
L281.19 144.479
L284.957 145.242
L289.101 145.839
L293.245 146.202
L297.389 146.342
L301.534 146.262
L305.678 145.961
L309.822 145.429
L310.575 145.306
L310.575 145.306" style="fill:none;stroke:#bfbfbf;stroke-linecap:square;"/>
   </g>
   <g id="line2d_5">
    <path clip-path="url(#p7616f64ab4)" d="
M34.4247 160.958
L39.699 161.353
L45.3501 161.538
L51.0012 161.492
L56.2756 161.238
L61.55 160.759
L66.0708 160.139
L70.215 159.36
L73.9824 158.436
L77.3731 157.381
L80.387 156.217
L83.0242 154.98
L85.6613 153.485
L87.9218 151.947
L90.1822 150.113
L92.0659 148.306
L93.9496 146.19
L95.8333 143.698
L97.717 140.752
L99.224 138.011
L100.731 134.876
L102.238 131.305
L104.122 126.187
L106.005 120.353
L108.266 112.586
L113.917 92.7233
L115.801 87.0273
L117.684 82.0563
L119.568 77.8014
L121.452 74.1953
L123.335 71.149
L125.219 68.573
L127.103 66.3869
L128.986 64.5227
L131.247 62.6329
L133.507 61.05
L136.145 59.5131
L138.782 58.2424
L141.796 57.0486
L145.186 55.9663
L148.954 55.0185
L153.098 54.2198
L157.619 53.5809
L162.516 53.1122
L167.791 52.828
L173.442 52.7517
L179.093 52.905
L184.367 53.2675
L189.265 53.8208
L193.786 54.5547
L197.93 55.4627
L201.321 56.4172
L204.335 57.4677
L207.348 58.7581
L209.986 60.1355
L212.246 61.5475
L214.507 63.2253
L216.39 64.8726
L218.274 66.7963
L220.158 69.0546
L222.041 71.7179
L223.548 74.1953
L225.055 77.0309
L226.562 80.2713
L228.069 83.9565
L229.953 89.2212
L231.837 95.1879
L234.474 104.418
L238.618 119.109
L240.502 125.075
L242.385 130.34
L244.269 134.876
L246.153 138.731
L248.036 141.99
L249.92 144.744
L251.804 147.077
L253.688 149.063
L255.571 150.761
L257.832 152.489
L260.092 153.942
L262.729 155.357
L265.367 156.531
L268.38 157.636
L271.771 158.64
L275.538 159.519
L279.683 160.257
L284.204 160.843
L289.101 161.263
L294.376 161.502
L300.027 161.533
L305.678 161.332
L310.575 160.958
L310.575 160.958" style="fill:none;stroke:#808080;stroke-linecap:square;"/>
   </g>
   <g id="line2d_6">
    <path clip-path="url(#p7616f64ab4)" d="
M34.4247 167.627
L41.9595 167.871
L49.871 167.902
L57.7826 167.709
L64.9406 167.308
L70.9685 166.748
L75.8661 166.081
L80.0102 165.302
L83.4009 164.458
L86.4148 163.485
L89.052 162.394
L91.3124 161.213
L93.1962 159.991
L95.0799 158.477
L96.5868 156.986
L98.0938 155.162
L99.6007 152.894
L100.731 150.807
L101.861 148.289
L102.991 145.218
L104.122 141.439
L105.252 136.766
L106.382 131.008
L107.512 124.043
L109.019 113.064
L112.033 90.254
L113.163 83.2882
L114.294 77.5303
L115.424 72.8575
L116.554 69.0786
L117.684 66.0076
L118.814 63.4895
L119.945 61.4027
L121.452 59.1344
L122.959 57.3104
L124.466 55.8192
L126.349 54.3057
L128.233 53.0839
L130.493 51.9023
L133.131 50.8116
L136.145 49.8388
L139.535 48.994
L143.679 48.2156
L148.577 47.5484
L154.228 47.0168
L161.009 46.6187
L168.544 46.4078
L176.456 46.4078
L183.991 46.6187
L190.772 47.0168
L196.8 47.592
L201.697 48.2771
L205.842 49.0774
L209.232 49.9474
L212.246 50.9519
L214.883 52.0813
L217.144 53.3088
L219.027 54.5822
L220.911 56.1656
L222.418 57.7315
L223.925 59.6545
L225.055 61.4027
L226.186 63.4895
L227.316 66.0076
L228.446 69.0786
L229.576 72.8575
L230.706 77.5303
L231.837 83.2882
L232.967 90.254
L234.474 101.233
L237.488 124.043
L238.618 131.008
L239.748 136.766
L240.878 141.439
L242.009 145.218
L243.139 148.289
L244.269 150.807
L245.399 152.894
L246.906 155.162
L248.413 156.986
L249.92 158.477
L251.804 159.991
L253.688 161.213
L255.948 162.394
L258.585 163.485
L261.599 164.458
L264.99 165.302
L269.134 166.081
L274.032 166.748
L279.683 167.28
L286.464 167.678
L293.999 167.889
L301.91 167.889
L309.445 167.678
L310.575 167.627
L310.575 167.627" style="fill:none;stroke:#404040;stroke-linecap:square;"/>
   </g>
   <g id="line2d_7">
    <path clip-path="url(#p7616f64ab4)" d="
M34.4247 170.676
L44.9734 170.814
L56.2756 170.743
L66.4476 170.462
L74.3591 170.03
L80.387 169.489
L84.9079 168.882
L88.6753 168.157
L91.6892 167.349
L93.9496 166.535
L95.8333 165.655
L97.717 164.503
L99.224 163.294
L100.354 162.146
L101.484 160.706
L102.615 158.854
L103.745 156.397
L104.498 154.272
L105.252 151.592
L106.005 148.141
L106.759 143.606
L107.512 137.556
L108.266 129.496
L109.019 119.162
L111.28 84.8008
L112.033 76.7404
L112.787 70.6904
L113.54 66.1557
L114.294 62.7049
L115.047 60.0248
L116.177 56.9971
L117.308 54.7695
L118.438 53.0719
L119.568 51.7401
L121.075 50.3593
L122.582 49.293
L124.466 48.2624
L126.726 47.3269
L129.363 46.5112
L132.377 45.8187
L136.145 45.1868
L141.042 44.6119
L147.07 44.141
L154.982 43.7632
L164.777 43.5307
L176.079 43.49
L187.005 43.6687
L196.046 44.0308
L202.828 44.5073
L208.102 45.0831
L212.246 45.7455
L215.637 46.5112
L218.274 47.3269
L220.534 48.2624
L222.418 49.293
L223.925 50.3593
L225.432 51.7401
L226.562 53.0719
L227.692 54.7695
L228.823 56.9971
L229.576 58.9034
L230.33 61.2839
L231.083 64.317
L231.837 68.2633
L232.59 73.4948
L233.344 80.4913
L234.097 89.6923
L235.227 107.148
L236.357 124.604
L237.111 133.805
L237.864 140.802
L238.618 146.033
L239.371 149.979
L240.125 153.013
L240.878 155.393
L242.009 158.115
L243.139 160.142
L244.269 161.703
L245.399 162.938
L246.906 164.229
L248.413 165.233
L250.297 166.21
L252.557 167.102
L255.195 167.884
L258.585 168.622
L262.729 169.263
L267.627 169.789
L274.032 170.245
L282.32 170.595
L292.492 170.792
L303.794 170.788
L310.575 170.676
L310.575 170.676" style="fill:none;stroke:#000000;stroke-linecap:square;"/>
   </g>
   <g id="matplotlib.axis_1">
    <g id="xtick_1">
     <g id="line2d_8">
      <path clip-path="url(#p7616f64ab4)" d="
M47.0455 186.823
L47.0455 27.4739" style="fill:none;stroke:#000000;stroke-dasharray:1.000000,3.000000;stroke-dashoffset:0.0;stroke-width:0.5;"/>
     </g>
     <g id="line2d_9">
      <defs>
       <path d="
M0 0
L0 -4" id="m93b0483c22" style="stroke:#000000;stroke-width:0.5;"/>
      </defs>
      <g>
       <use style="stroke:#000000;stroke-width:0.5;" x="47.0454545455" xlink:href="#m93b0483c22" y="186.822583658"/>
      </g>
     </g>
     <g id="line2d_10">
      <defs>
       <path d="
M0 0
L0 4" id="m741efc42ff" style="stroke:#000000;stroke-width:0.5;"/>
      </defs>
      <g>
       <use style="stroke:#000000;stroke-width:0.5;" x="47.0454545455" xlink:href="#m741efc42ff" y="27.4739093614"/>
      </g>
     </g>
     <g id="text_1">
      <!-- $-0.5$ -->
      <defs>
       <path d="
M65.9062 23
C67.5938 23 69.4062 23 69.4062 25
C69.4062 27 67.5938 27 65.9062 27
L11.7969 27
C10.0938 27 8.29688 27 8.29688 25
C8.29688 23 10.0938 23 11.7969 23
z
" id="CMSY10-0"/>
       <path d="
M42 31.6406
C42 37.75 41.9062 48.125 37.7031 56.1094
C34 63.1094 28.0938 65.5938 22.9062 65.5938
C18.0938 65.5938 12 63.4062 8.20312 56.2031
C4.20312 48.7188 3.79688 39.4375 3.79688 31.6406
C3.79688 25.9531 3.90625 17.2812 7 9.67188
C11.2969 -0.609375 19 -2 22.9062 -2
C27.5 -2 34.5 -0.109375 38.5938 9.375
C41.5938 16.2812 42 24.3594 42 31.6406
M22.9062 -0.40625
C16.5 -0.40625 12.7031 5.07812 11.2969 12.6875
C10.2031 18.5625 10.2031 27.1562 10.2031 32.75
C10.2031 40.4375 10.2031 46.8281 11.5 52.9219
C13.4062 61.3906 19 64 22.9062 64
C27 64 32.2969 61.2969 34.2031 53.125
C35.5 47.4375 35.5938 40.7344 35.5938 32.75
C35.5938 26.25 35.5938 18.2656 34.4062 12.375
C32.2969 1.48438 26.4062 -0.40625 22.9062 -0.40625" id="CMR17-48"/>
       <path d="
M11.4062 57.6875
C12.4062 57.2812 16.5 56 20.7031 56
C30 56 35.0938 61.0156 38 63.9219
C38 64.7344 38 65.25 37.4062 65.25
C37.2969 65.25 37.0938 65.25 36.2969 64.8281
C32.7969 63.3125 28.7031 62.0781 23.7031 62.0781
C20.7031 62.0781 16.2031 62.5 11.2969 64.7344
C10.2031 65.25 10 65.25 9.90625 65.25
C9.40625 65.25 9.29688 65.1406 9.29688 63.1562
L9.29688 34.2812
C9.29688 32.5 9.29688 32 10.2969 32
C10.7969 32 11 32.2031 11.5 32.9062
C14.7031 37.4844 19.0938 39.4062 24.0938 39.4062
C27.5938 39.4062 35.0938 37.2188 35.0938 20.1406
C35.0938 16.9531 35.0938 11.1719 32.0938 6.57812
C29.5938 2.48438 25.7031 0.390625 21.4062 0.390625
C14.7969 0.390625 8.09375 5 6.29688 12.7188
C6.70312 12.6094 7.5 12.4219 7.90625 12.4219
C9.20312 12.4219 11.7031 13.125 11.7031 16.2188
C11.7031 18.9062 9.79688 20 7.90625 20
C5.59375 20 4.09375 18.5938 4.09375 15.7969
C4.09375 7.09375 11 -2 21.5938 -2
C31.9062 -2 41.7031 6.875 41.7031 19.75
C41.7031 31.7188 33.9062 41 24.2031 41
C19.0938 41 14.7969 39.0938 11.4062 35.4531
z
" id="CMR17-53"/>
       <path d="
M18.4062 4.79688
C18.4062 7.6875 16 9.67188 13.5938 9.67188
C10.7031 9.67188 8.70312 7.28125 8.70312 4.89062
C8.70312 2 11.0938 0 13.5 0
C16.4062 0 18.4062 2.39062 18.4062 4.79688" id="CMMI12-58"/>
      </defs>
      <g transform="translate(36.806043195 197.741082038)scale(0.1 -0.1)">
       <use transform="scale(0.996264009963)" xlink:href="#CMSY10-0"/>
       <use transform="translate(77.4874676506 0.0)scale(0.996264009963)" xlink:href="#CMR17-48"/>
       <use transform="translate(123.177944768 0.0)scale(0.996264009963)" xlink:href="#CMMI12-58"/>
       <use transform="translate(150.275121857 0.0)scale(0.996264009963)" xlink:href="#CMR17-53"/>
      </g>
     </g>
    </g>
    <g id="xtick_2">
     <g id="line2d_11">
      <path clip-path="url(#p7616f64ab4)" d="
M172.5 186.823
L172.5 27.4739" style="fill:none;stroke:#000000;stroke-dasharray:1.000000,3.000000;stroke-dashoffset:0.0;stroke-width:0.5;"/>
     </g>
     <g id="line2d_12">
      <g>
       <use style="stroke:#000000;stroke-width:0.5;" x="172.5" xlink:href="#m93b0483c22" y="186.822583658"/>
      </g>
     </g>
     <g id="line2d_13">
      <g>
       <use style="stroke:#000000;stroke-width:0.5;" x="172.5" xlink:href="#m741efc42ff" y="27.4739093614"/>
      </g>
     </g>
     <g id="text_2">
      <!-- $0.0$ -->
      <g transform="translate(166.134960512 197.741082038)scale(0.1 -0.1)">
       <use transform="scale(0.996264009963)" xlink:href="#CMR17-48"/>
       <use transform="translate(45.6904771171 0.0)scale(0.996264009963)" xlink:href="#CMMI12-58"/>
       <use transform="translate(72.7876542069 0.0)scale(0.996264009963)" xlink:href="#CMR17-48"/>
      </g>
     </g>
    </g>
    <g id="xtick_3">
     <g id="line2d_14">
      <path clip-path="url(#p7616f64ab4)" d="
M297.955 186.823
L297.955 27.4739" style="fill:none;stroke:#000000;stroke-dasharray:1.000000,3.000000;stroke-dashoffset:0.0;stroke-width:0.5;"/>
     </g>
     <g id="line2d_15">
      <g>
       <use style="stroke:#000000;stroke-width:0.5;" x="297.954545455" xlink:href="#m93b0483c22" y="186.822583658"/>
      </g>
     </g>
     <g id="line2d_16">
      <g>
       <use style="stroke:#000000;stroke-width:0.5;" x="297.954545455" xlink:href="#m741efc42ff" y="27.4739093614"/>
      </g>
     </g>
     <g id="text_3">
      <!-- $0.5$ -->
      <g transform="translate(291.589505966 197.741082038)scale(0.1 -0.1)">
       <use transform="scale(0.996264009963)" xlink:href="#CMR17-48"/>
       <use transform="translate(45.6904771171 0.0)scale(0.996264009963)" xlink:href="#CMMI12-58"/>
       <use transform="translate(72.7876542069 0.0)scale(0.996264009963)" xlink:href="#CMR17-53"/>
      </g>
     </g>
    </g>
    <g id="text_4">
     <!-- normalized frequency $f_n = f / \Delta f$ -->
     <defs>
      <path d="
M44.5938 40.0938
C46.5938 40.0938 47.4062 40.0938 47.4062 42
C47.4062 43 46.5938 43 44.7969 43
L36.7031 43
C38.5938 53.5781 40 60.8906 40.7969 64.1719
C41.4062 66.6406 43.5 69 46.0938 69
C48.2031 69 50.2969 68.0938 51.2969 67.1562
C47.4062 66.75 46.2031 63.7812 46.2031 62.0156
C46.2031 59.9531 47.7031 58.7344 49.5938 58.7344
C51.5938 58.7344 54.5938 60.4688 54.5938 64.3594
C54.5938 68.6406 50.4062 71 46 71
C41.7031 71 37.5 67.7188 35.5 63.7188
C33.7031 60.125 32.7031 56.4375 30.4062 43
L23.7031 43
C21.7969 43 20.7969 43 20.7969 41.2031
C20.7969 40.0938 21.4062 40.0938 23.4062 40.0938
L29.7969 40.0938
C28 30.875 23.9062 8.46875 21.5938 -2.14062
C19.9062 -10.7656 18.4062 -18 13.4062 -18
C13.0938 -18 10.2031 -18 8.40625 -16.1094
C13.5 -15.7031 13.5 -11.3438 13.5 -11.25
C13.5 -9.26562 12 -8.07812 10.0938 -8.07812
C8.09375 -8.07812 5.09375 -9.76562 5.09375 -13.5469
C5.09375 -17.8125 9.5 -20 13.4062 -20
C23.5938 -20 27.7969 -1.84375 28.9062 3.10938
C30.7031 10.75 35.5938 37.125 36.0938 40.0938
z
" id="CMMI12-102"/>
      <path d="
M36 25.8281
C36 32.375 36 35.8438 31.7969 39.7344
C28.0938 43 23.7969 44 20.4062 44
C12.5 44 6.79688 37.6094 6.79688 30.7969
C6.79688 27 9.79688 27 10.4062 27
C11.7031 27 14 27.7812 14 30.5312
C14 33 12.0938 34.0781 10.4062 34.0781
C10 34.0781 9.5 33.9688 9.20312 33.875
C11.2969 40.5 16.7031 42.4062 20.2031 42.4062
C25.2031 42.4062 30.7031 37.9531 30.7031 29.4531
L30.7031 25
C24.7969 25 17.7031 24.2031 12.0938 21.2031
C5.79688 17.7031 4 12.7031 4 8.90625
C4 1.20312 13 -1 18.2969 -1
C23.7969 -1 28.9062 2.17188 31.0938 7.98438
C31.2969 3.64062 34.0938 -0.28125 38.5 -0.28125
C40.5938 -0.28125 45.9062 1.09375 45.9062 8.85938
L45.9062 14.375
L44.0938 14.375
L44.0938 8.78125
C44.0938 2.78125 41.4062 2 40.0938 2
C36 2 36 7.15625 36 11.5312
z

M30.7031 13.5938
C30.7031 4.95312 24.5 0.59375 19 0.59375
C14 0.59375 10.0938 4.29688 10.0938 8.90625
C10.0938 11.8906 11.4062 17.1875 17.2031 20.3906
C22 23.0938 27.5 23.5 30.7031 23.5
z
" id="CMR17-97"/>
      <path d="
M64.2969 31.5156
C65.7969 31.5156 67.2969 31.5156 67.2969 33.2031
C67.2969 35 65.5938 35 63.9062 35
L8 35
C6.29688 35 4.59375 35 4.59375 33.2031
C4.59375 31.5156 6.09375 31.5156 7.59375 31.5156
z

M63.9062 14
C65.5938 14 67.2969 14 67.2969 15.7969
C67.2969 17.4844 65.7969 17.4844 64.2969 17.4844
L7.59375 17.4844
C6.09375 17.4844 4.59375 17.4844 4.59375 15.7969
C4.59375 14 6.29688 14 8 14
z
" id="CMR17-61"/>
      <path d="
M36.0938 40.7031
C36.9062 41.7188 36.9062 41.9062 36.9062 42.1094
C36.9062 43 36.5 43 34.7031 43
L4.29688 43
L3.29688 27.5
L5.09375 27.5
C5.79688 37.2031 6.90625 41.4062 18.4062 41.4062
L30.5938 41.4062
L2 1.5
C2 0.09375 2.09375 0 4.20312 0
L35.7969 0
L37.2031 18
L35.4062 18
C34.5938 6.90625 33.2969 1.79688 21.0938 1.79688
L8.29688 1.79688
z
" id="CMR17-122"/>
      <path d="
M39 34.3281
C41.5 40.4062 46 40.4062 47.4062 40.4062
L47.4062 43
C45.5 43 43 43 41.0938 43
C39 43 35.7031 43 33.7031 43.0938
L33.7031 40.5
C37.5 40.2031 37.5938 37.4062 37.5938 36.6094
C37.5938 35.625 37.4062 35.125 36.9062 33.9219
L26 7.01562
L14.0938 36.0312
C13.5938 37.2188 13.5938 37.9062 13.5938 38.0156
C13.5938 40.2031 15.9062 40.4062 18.2969 40.4062
L18.2969 43.0938
C15.9062 43 11.5938 43 9.09375 43
C6.40625 43 3.20312 43 1 43.0938
L1 40.4062
C6.40625 40.4062 7 39.9062 8.29688 36.7188
L23.2031 0.234375
C18.7031 -11.5312 16.0938 -18.4062 9.79688 -18.4062
C8.70312 -18.4062 6.20312 -18.1094 4.40625 -16.3125
C6.70312 -16.1094 7.70312 -14.7188 7.70312 -13.0156
C7.70312 -11.3281 6.5 -9.82812 4.5 -9.82812
C2.29688 -9.82812 1.20312 -11.3281 1.20312 -13.125
C1.20312 -17.1094 5.29688 -20 9.79688 -20
C15.5938 -20 19.2031 -14.4062 21.2031 -9.4375
z
" id="CMR17-121"/>
      <path d="
M15.2969 40
L26.7031 40
L26.7031 42.5781
L15.0938 42.5781
L15.0938 54.5938
C15.0938 62.8438 19.2969 68 23.5938 68
C24.9062 68 26.4062 67.6094 27.4062 66.9062
C26.5938 66.7031 24.5 66.0156 24.5 63.5312
C24.5 60.9531 26.5 60.1562 27.9062 60.1562
C29.2969 60.1562 31.2969 60.9531 31.2969 63.5469
C31.2969 67.3125 27.7031 69.5938 23.7031 69.5938
C18 69.5938 10.2031 64.9375 10.2031 54.3906
L10.2031 42.5781
L2.20312 42.5781
L2.20312 40
L10.2031 40
L10.2031 6.67188
C10.2031 2.875 9.79688 2.39062 3.40625 2.39062
L3.40625 -0.203125
C5.79688 0 10.4062 0 13 0
C15.9062 0 21 0 23.7031 -0.203125
L23.7031 2.39062
C16.5 2.39062 15.2969 2.39062 15.2969 6.85938
z
" id="CMR17-102"/>
      <path d="
M20.5938 29.2344
C20.7969 29.8438 23.2969 34.8281 27 38.0156
C29.5938 40.4062 33 42.0156 36.9062 42.0156
C40.9062 42.0156 42.2969 39.0156 42.2969 35.0312
C42.2969 29.3438 38.2031 17.9688 36.2031 12.5781
C35.2969 10.1719 34.7969 8.875 34.7969 7.07812
C34.7969 2.59375 37.9062 -1 42.7031 -1
C52 -1 55.5 13.6719 55.5 14.2656
C55.5 14.7656 55.0938 15.1719 54.5 15.1719
C53.5938 15.1719 53.5 14.875 53 13.1719
C50.7031 4.98438 46.9062 1 43 1
C42 1 40.4062 1 40.4062 4.20312
C40.4062 6.70312 41.5 9.70312 42.0938 11.0938
C44.0938 16.6094 48.2969 27.8125 48.2969 33.5156
C48.2969 39.5 44.7969 44 37.2031 44
C28.2969 44 23.5938 37.7344 21.7969 35.2344
C21.5 40.9062 17.4062 44 13 44
C9.79688 44 7.59375 42.1094 5.90625 38.7188
C4.09375 35.125 2.70312 29.1406 2.70312 28.7344
C2.70312 28.3438 3.09375 27.8438 3.79688 27.8438
C4.59375 27.8438 4.70312 27.9375 5.29688 30.2344
C6.90625 36.3281 8.70312 42.0156 12.7031 42.0156
C15 42.0156 15.7969 40.4062 15.7969 37.4219
C15.7969 35.2188 14.7969 31.3281 14.0938 28.2344
L11.2969 17.4688
C10.9062 15.5625 9.79688 11.0781 9.29688 9.28125
C8.59375 6.6875 7.5 2 7.5 1.5
C7.5 0.09375 8.59375 -1 10.0938 -1
C11.2969 -1 12.7031 -0.40625 13.5 1.09375
C13.7031 1.59375 14.5938 5.09375 15.0938 7.07812
L17.2969 16.0625
z
" id="CMMI12-110"/>
      <path d="
M34.9062 35
C33 35 30.2031 35 30.2031 31.5156
C30.2031 28.7188 32.5 27.9219 33.7969 27.9219
C34.5 27.9219 37.4062 28.2344 37.4062 31.625
C37.4062 38.5469 30.5938 43.7969 22.9062 43.7969
C12.2969 43.7969 3.29688 34.0312 3.29688 21.2969
C3.29688 8.0625 12.7031 -1 22.9062 -1
C35.2969 -1 38.4062 10.5938 38.4062 11.6875
C38.4062 12.0938 38.2969 12.3906 37.5938 12.3906
C36.9062 12.3906 36.7969 12.2969 36.4062 10.9844
C33.7969 2.8125 28.0938 0.796875 23.7969 0.796875
C17.4062 0.796875 9.70312 6.67188 9.70312 21.3906
C9.70312 36.5312 17.0938 42 23 42
C26.9062 42 32.7031 40.2031 34.9062 35" id="CMR17-99"/>
      <path d="
M42.9062 71.2969
C42.9062 71.4062 43.5 72.9062 43.5 73.0938
C43.5 74.2969 42.5 75 41.7031 75
C41.2031 75 40.2969 75 39.5 72.7969
L6 -21.2969
C6 -21.4062 5.40625 -22.8906 5.40625 -23.0938
C5.40625 -24.2969 6.40625 -25 7.20312 -25
C7.79688 -25 8.70312 -24.8906 9.40625 -22.7969
z
" id="CMMI12-61"/>
      <path d="
M15.5 61.0781
C15.5 63.2656 13.7031 65.1562 11.4062 65.1562
C9.20312 65.1562 7.29688 63.375 7.29688 61.0781
C7.29688 58.8906 9.09375 57 11.4062 57
C13.5938 57 15.5 58.7969 15.5 61.0781
M3.79688 42.2812
L3.79688 39.7031
C9.40625 39.7031 10.2031 39.0938 10.2031 34.3281
L10.2031 6.67188
C10.2031 2.875 9.79688 2.39062 3.40625 2.39062
L3.40625 -0.203125
C5.79688 0 10.0938 0 12.5938 0
C15 0 19.0938 0 21.4062 -0.203125
L21.4062 2.39062
C15.5 2.39062 15.2969 2.98438 15.2969 6.5625
L15.2969 43.375
z
" id="CMR17-105"/>
      <path d="
M29.4062 42.0781
L29.4062 39.5
C35.2969 39.5 36.2031 38.8906 36.2031 34.1562
L36.2031 16.125
C36.2031 7.8125 31.7031 0.59375 24.2969 0.59375
C16.0938 0.59375 15.4062 5.4375 15.4062 10.5938
L15.4062 43.1719
L3.29688 42.0781
L3.29688 39.5
C7.29688 39.5 10 39.5 10.0938 35.5312
L10.0938 16.5312
C10.0938 9.89062 10.0938 5.64062 12.7031 2.85938
C14 1.57812 16.5 -1 23.7031 -1
C32.2031 -1 35.5 6.35938 36.2969 8.5
L36.4062 8.5
L36.4062 -0.984375
L48.2969 -0.984375
L48.2969 2
C42.4062 2 41.5 2.59375 41.5 7.39062
L41.5 43.1719
z
" id="CMR17-117"/>
      <path d="
M15 23.3906
C15 33 19.0938 42 26.5938 42
C27.2969 42 28 41.9062 28.7031 41.5938
C28.7031 41.5938 26.5 40.8906 26.5 38.3125
C26.5 35.9062 28.4062 34.9062 29.9062 34.9062
C31.0938 34.9062 33.2969 35.6094 33.2969 38.4062
C33.2969 41.6094 30.0938 43.5938 26.7031 43.5938
C19.0938 43.5938 15.7969 36.2031 14.7969 32.7031
L14.7031 32.7031
L14.7031 43.5938
L3.09375 42.5
L3.09375 39.9062
C9 39.9062 9.90625 39.2969 9.90625 34.5
L9.90625 6.6875
C9.90625 2.875 9.5 2.39062 3.09375 2.39062
L3.09375 -0.203125
C5.5 0 10.0938 0 12.7031 0
C15.5938 0 20.7031 0 23.4062 -0.203125
L23.4062 2.39062
C16.2031 2.39062 15 2.39062 15 6.875
z
" id="CMR17-114"/>
      <path d="
M38.0938 23
C38.5 23.4062 38.5 23.6094 38.5 24.625
C38.5 34.9688 33.0938 44 21.7031 44
C11.0938 44 2.70312 33.8906 2.70312 21.6094
C2.70312 8.60938 12.2031 -1 22.7969 -1
C34 -1 38.4062 9.46875 38.4062 11.5469
C38.4062 12.25 37.7969 12.25 37.5938 12.25
C36.9062 12.25 36.7969 12.0469 36.4062 10.875
C34.2031 4.14062 28.7031 0.796875 23.5 0.796875
C19.2031 0.796875 14.9062 3.17188 12.2031 7.5
C9.09375 12.5469 9.09375 18.375 9.09375 23
z

M9.20312 24.5
C9.90625 39.1406 17.5938 42.4062 21.5938 42.4062
C28.4062 42.4062 33 35.8906 33.0938 24.5
z
" id="CMR17-101"/>
      <path d="
M29.2031 67.5938
L29.2031 65
C35.0938 65 36 64.4062 36 59.6875
L36 36.6406
C35.5938 37.1406 31.5 43.5938 23.4062 43.5938
C13.2031 43.5938 3.29688 34.5 3.29688 21.3125
C3.29688 8.20312 12.5938 -1 22.4062 -1
C30.9062 -1 35.2969 5.26562 35.7969 5.9375
L35.7969 -0.984375
L47.9062 -0.984375
L47.9062 2
C42 2 41.0938 2.59375 41.0938 7.39062
L41.0938 68.6875
z

M35.7969 11.7969
C35.7969 8.79688 34 6.09375 31.7031 4.09375
C28.2969 1.09375 24.9062 0.59375 23 0.59375
C20.0938 0.59375 9.70312 2.09375 9.70312 21.1875
C9.70312 40.8125 21.2969 42 23.9062 42
C28.5 42 32.2031 39.4062 34.5 35.7969
C35.7969 33.7031 35.7969 33.4062 35.7969 31.6094
z
" id="CMR17-100"/>
      <path d="
M41.5 30.2031
C41.5 35.2969 40.5 43.5938 28.7031 43.5938
C20.7969 43.5938 16.7031 37.5 15.2031 33.5
L15.0938 33.5
L15.0938 43.5938
L3.29688 42.5
L3.29688 39.9062
C9.20312 39.9062 10.0938 39.2969 10.0938 34.5
L10.0938 6.6875
C10.0938 2.875 9.70312 2.39062 3.29688 2.39062
L3.29688 -0.203125
C5.70312 0 10.0938 0 12.7031 0
C15.2969 0 19.7969 0 22.2031 -0.203125
L22.2031 2.39062
C15.7969 2.39062 15.4062 2.78125 15.4062 6.6875
L15.4062 25.9062
C15.4062 35.1094 21 42 28 42
C35.4062 42 36.2031 35.4062 36.2031 30.5938
L36.2031 6.6875
C36.2031 2.875 35.7969 2.39062 29.4062 2.39062
L29.4062 -0.203125
C31.7969 0 36.2031 0 38.7969 0
C41.4062 0 45.9062 0 48.2969 -0.203125
L48.2969 2.39062
C41.9062 2.39062 41.5 2.78125 41.5 6.6875
z
" id="CMR17-110"/>
      <path d="
M43.0938 21.1875
C43.0938 34 33.7969 44 22.9062 44
C12 44 2.70312 34 2.70312 21.1875
C2.70312 8.60938 12 -1 22.9062 -1
C33.7969 -1 43.0938 8.60938 43.0938 21.1875
M22.9062 0.796875
C18.2031 0.796875 14.2031 3.59375 11.9062 7.5
C9.40625 11.9844 9.09375 17.5938 9.09375 22
C9.09375 26.2031 9.29688 31.4062 11.9062 35.9062
C13.9062 39.2031 17.7969 42.4062 22.9062 42.4062
C27.4062 42.4062 31.2031 39.9062 33.5938 36.4062
C36.7031 31.7031 36.7031 25.1094 36.7031 22
C36.7031 18.0938 36.5 12.1094 33.7969 7.29688
C31 2.70312 26.7031 0.796875 22.9062 0.796875" id="CMR17-111"/>
      <path d="
M40.5938 68.7969
C39.7969 70.5 39.4062 70.5 38.5938 70.5
C37.4062 70.5 37.2969 70.2969 36.5938 68.8906
L4.20312 1.70312
C4.09375 1.5 3.70312 0.59375 3.70312 0.5
C3.70312 0.09375 3.79688 0 5.59375 0
L71.5 0
C73.2969 0 73.4062 0.09375 73.4062 0.5
C73.4062 0.59375 73 1.5 72.9062 1.70312
z

M36.0938 62.9219
L63.7969 5.59375
L8.29688 5.59375
z
" id="CMR17-1"/>
      <path d="
M67.5938 30.2031
C67.5938 35.1875 66.7031 43.5938 54.7969 43.5938
C48 43.5938 43.2969 39 41.5 33.5938
L41.4062 33.5938
C40.2031 41.7969 34.2969 43.5938 28.7031 43.5938
C20.7969 43.5938 16.7031 37.5625 15.2031 33.5938
L15.0938 33.5938
L15.0938 43.5938
L3.29688 42.5
L3.29688 39.9062
C9.20312 39.9062 10.0938 39.2969 10.0938 34.5
L10.0938 6.6875
C10.0938 2.875 9.70312 2.39062 3.29688 2.39062
L3.29688 -0.203125
C5.70312 0 10.0938 0 12.7031 0
C15.2969 0 19.7969 0 22.2031 -0.203125
L22.2031 2.39062
C15.7969 2.39062 15.4062 2.78125 15.4062 6.6875
L15.4062 25.9062
C15.4062 35.1094 21 42 28 42
C35.4062 42 36.2031 35.4062 36.2031 30.5938
L36.2031 6.6875
C36.2031 2.875 35.7969 2.39062 29.4062 2.39062
L29.4062 -0.203125
C31.7969 0 36.2031 0 38.7969 0
C41.4062 0 45.9062 0 48.2969 -0.203125
L48.2969 2.39062
C41.9062 2.39062 41.5 2.78125 41.5 6.6875
L41.5 25.9062
C41.5 35.1094 47.0938 42 54.0938 42
C61.5 42 62.2969 35.4062 62.2969 30.5938
L62.2969 6.6875
C62.2969 2.875 61.9062 2.39062 55.5 2.39062
L55.5 -0.203125
C57.9062 0 62.2969 0 64.9062 0
C67.5 0 72 0 74.4062 -0.203125
L74.4062 2.39062
C68 2.39062 67.5938 2.78125 67.5938 6.6875
z
" id="CMR17-109"/>
      <path d="
M15.2969 68.6875
L3.40625 67.5938
L3.40625 65
C9.29688 65 10.2031 64.4062 10.2031 59.6406
L10.2031 6.65625
C10.2031 2.875 9.79688 2.39062 3.40625 2.39062
L3.40625 -0.203125
C5.79688 0 10.2031 0 12.7031 0
C15.2969 0 19.7031 0 22.0938 -0.203125
L22.0938 2.39062
C15.7031 2.39062 15.2969 2.78125 15.2969 6.65625
z
" id="CMR17-108"/>
      <path d="
M41.0938 43.7812
L39.5 43.7812
L36.5 33.9375
C34.2031 39.2031 30 43.7812 23.2969 43.7812
C13.0938 43.7812 3.29688 34.7344 3.29688 21.5938
C3.29688 8.5625 12.5 -0.59375 22.5 -0.59375
C30.2031 -0.59375 34.5 5.28125 35.7969 7.46875
L35.7969 -12.3281
C35.7969 -16.1094 35.4062 -16.6094 29 -16.6094
L29 -19.1875
C31.4062 -19 35.7969 -19 38.4062 -19
C41 -19 45.5 -19 47.9062 -19.1875
L47.9062 -16.6094
C41.5 -16.6094 41.0938 -16.2031 41.0938 -12.3281
z

M36 13.8438
C36 9.5625 32.4062 5.57812 32.0938 5.28125
C29 1.79688 25.4062 1 23 1
C15.5 1 9.70312 10.4531 9.70312 21.5
C9.70312 33.1406 16.2969 42 24 42
C32 42 36 32.9375 36 27.7656
z
" id="CMR17-113"/>
     </defs>
     <g transform="translate(100.610322679 212.703722137)scale(0.1 -0.1)">
      <use transform="translate(0.0 14.9439145441)scale(0.996264009963)" xlink:href="#CMR17-110"/>
      <use transform="translate(50.8953697803 14.9439145441)scale(0.996264009963)" xlink:href="#CMR17-111"/>
      <use transform="translate(96.5858468974 14.9439145441)scale(0.996264009963)" xlink:href="#CMR17-114"/>
      <use transform="translate(131.866614697 14.9439145441)scale(0.996264009963)" xlink:href="#CMR17-109"/>
      <use transform="translate(208.786204565 14.9439145441)scale(0.996264009963)" xlink:href="#CMR17-97"/>
      <use transform="translate(254.476681682 14.9439145441)scale(0.996264009963)" xlink:href="#CMR17-108"/>
      <use transform="translate(279.347740164 14.9439145441)scale(0.996264009963)" xlink:href="#CMR17-105"/>
      <use transform="translate(304.218798646 14.9439145441)scale(0.996264009963)" xlink:href="#CMR17-122"/>
      <use transform="translate(344.704459108 14.9439145441)scale(0.996264009963)" xlink:href="#CMR17-101"/>
      <use transform="translate(385.190119571 14.9439145441)scale(0.996264009963)" xlink:href="#CMR17-100"/>
      <use transform="translate(466.161455698 14.9439145441)scale(0.996264009963)" xlink:href="#CMR17-102"/>
      <use transform="translate(493.634968113 14.9439145441)scale(0.996264009963)" xlink:href="#CMR17-114"/>
      <use transform="translate(528.915735912 14.9439145441)scale(0.996264009963)" xlink:href="#CMR17-101"/>
      <use transform="translate(569.401396375 14.9439145441)scale(0.996264009963)" xlink:href="#CMR17-113"/>
      <use transform="translate(617.694312223 14.9439145441)scale(0.996264009963)" xlink:href="#CMR17-117"/>
      <use transform="translate(668.589682003 14.9439145441)scale(0.996264009963)" xlink:href="#CMR17-101"/>
      <use transform="translate(709.075342466 14.9439145441)scale(0.996264009963)" xlink:href="#CMR17-110"/>
      <use transform="translate(759.970712246 14.9439145441)scale(0.996264009963)" xlink:href="#CMR17-99"/>
      <use transform="translate(800.456372709 14.9439145441)scale(0.996264009963)" xlink:href="#CMR17-121"/>
      <use transform="translate(878.825254903 14.9439145441)scale(0.996264009963)" xlink:href="#CMMI12-102"/>
      <use transform="translate(926.908492567 0.0)scale(0.697381766617)" xlink:href="#CMMI12-110"/>
      <use transform="translate(995.841476421 14.9439145441)scale(0.996264009963)" xlink:href="#CMR17-61"/>
      <use transform="translate(1095.23027356 14.9439145441)scale(0.996264009963)" xlink:href="#CMMI12-102"/>
      <use transform="translate(1153.9505784 14.9439145441)scale(0.996264009963)" xlink:href="#CMMI12-61"/>
      <use transform="translate(1202.72549716 14.9439145441)scale(0.996264009963)" xlink:href="#CMR17-1"/>
      <use transform="translate(1279.64508703 14.9439145441)scale(0.996264009963)" xlink:href="#CMMI12-102"/>
     </g>
    </g>
   </g>
   <g id="matplotlib.axis_2">
    <g id="ytick_1">
     <g id="line2d_17">
      <path clip-path="url(#p7616f64ab4)" d="
M34.5 173.544
L310.5 173.544" style="fill:none;stroke:#000000;stroke-dasharray:1.000000,3.000000;stroke-dashoffset:0.0;stroke-width:0.5;"/>
     </g>
     <g id="line2d_18">
      <defs>
       <path d="
M0 0
L4 0" id="m728421d6d4" style="stroke:#000000;stroke-width:0.5;"/>
      </defs>
      <g>
       <use style="stroke:#000000;stroke-width:0.5;" x="34.5" xlink:href="#m728421d6d4" y="173.543527466"/>
      </g>
     </g>
     <g id="line2d_19">
      <defs>
       <path d="
M0 0
L-4 0" id="mcb0005524f" style="stroke:#000000;stroke-width:0.5;"/>
      </defs>
      <g>
       <use style="stroke:#000000;stroke-width:0.5;" x="310.5" xlink:href="#mcb0005524f" y="173.543527466"/>
      </g>
     </g>
     <g id="text_5">
      <!-- $0.0$ -->
      <g transform="translate(17.7699210237 176.034187491)scale(0.1 -0.1)">
       <use transform="scale(0.996264009963)" xlink:href="#CMR17-48"/>
       <use transform="translate(45.6904771171 0.0)scale(0.996264009963)" xlink:href="#CMMI12-58"/>
       <use transform="translate(72.7876542069 0.0)scale(0.996264009963)" xlink:href="#CMR17-48"/>
      </g>
     </g>
    </g>
    <g id="ytick_2">
     <g id="line2d_20">
      <path clip-path="url(#p7616f64ab4)" d="
M34.5 146.985
L310.5 146.985" style="fill:none;stroke:#000000;stroke-dasharray:1.000000,3.000000;stroke-dashoffset:0.0;stroke-width:0.5;"/>
     </g>
     <g id="line2d_21">
      <g>
       <use style="stroke:#000000;stroke-width:0.5;" x="34.5" xlink:href="#m728421d6d4" y="146.985415084"/>
      </g>
     </g>
     <g id="line2d_22">
      <g>
       <use style="stroke:#000000;stroke-width:0.5;" x="310.5" xlink:href="#mcb0005524f" y="146.985415084"/>
      </g>
     </g>
     <g id="text_6">
      <!-- $0.2$ -->
      <defs>
       <path d="
M41.7031 15.4531
L39.9062 15.4531
C38.9062 8.375 38.0938 7.17188 37.7031 6.5625
C37.2031 5.76562 30 5.76562 28.5938 5.76562
L9.40625 5.76562
C13 9.67188 20 16.75 28.5 24.9531
C34.5938 30.7344 41.7031 37.5312 41.7031 47.4219
C41.7031 59.2188 32.2969 66 21.7969 66
C10.7969 66 4.09375 56.3125 4.09375 47.3438
C4.09375 43.4375 7 42.9375 8.20312 42.9375
C9.20312 42.9375 12.2031 43.5469 12.2031 47.0312
C12.2031 50.1094 9.59375 51 8.20312 51
C7.59375 51 7 50.9062 6.59375 50.7031
C8.5 59.2188 14.2969 63.4062 20.4062 63.4062
C29.0938 63.4062 34.7969 56.5156 34.7969 47.4219
C34.7969 38.7344 29.7031 31.25 24 24.75
L4.09375 2.28125
L4.09375 0
L39.2969 0
z
" id="CMR17-50"/>
      </defs>
      <g transform="translate(17.7699210237 149.476075109)scale(0.1 -0.1)">
       <use transform="scale(0.996264009963)" xlink:href="#CMR17-48"/>
       <use transform="translate(45.6904771171 0.0)scale(0.996264009963)" xlink:href="#CMMI12-58"/>
       <use transform="translate(72.7876542069 0.0)scale(0.996264009963)" xlink:href="#CMR17-50"/>
      </g>
     </g>
    </g>
    <g id="ytick_3">
     <g id="line2d_23">
      <path clip-path="url(#p7616f64ab4)" d="
M34.5 120.427
L310.5 120.427" style="fill:none;stroke:#000000;stroke-dasharray:1.000000,3.000000;stroke-dashoffset:0.0;stroke-width:0.5;"/>
     </g>
     <g id="line2d_24">
      <g>
       <use style="stroke:#000000;stroke-width:0.5;" x="34.5" xlink:href="#m728421d6d4" y="120.427302701"/>
      </g>
     </g>
     <g id="line2d_25">
      <g>
       <use style="stroke:#000000;stroke-width:0.5;" x="310.5" xlink:href="#mcb0005524f" y="120.427302701"/>
      </g>
     </g>
     <g id="text_7">
      <!-- $0.4$ -->
      <defs>
       <path d="
M33.5938 64.3281
C33.5938 66.4062 33.5 66.5 31.7031 66.5
L2 19.5938
L2 17
L27.7969 17
L27.7969 7.14062
C27.7969 3.5 27.5938 2.5 20.5938 2.5
L18.7031 2.5
L18.7031 0
C21.9062 0 27.2969 0 30.7031 0
C34.0938 0 39.5 0 42.7031 0
L42.7031 2.5
L40.7969 2.5
C33.7969 2.5 33.5938 3.5 33.5938 7.14062
L33.5938 17
L43.7969 17
L43.7969 19.5938
L33.5938 19.5938
z

M28.0938 57.7656
L28.0938 19.5938
L4 19.5938
z
" id="CMR17-52"/>
      </defs>
      <g transform="translate(17.7699210237 122.917962726)scale(0.1 -0.1)">
       <use transform="scale(0.996264009963)" xlink:href="#CMR17-48"/>
       <use transform="translate(45.6904771171 0.0)scale(0.996264009963)" xlink:href="#CMMI12-58"/>
       <use transform="translate(72.7876542069 0.0)scale(0.996264009963)" xlink:href="#CMR17-52"/>
      </g>
     </g>
    </g>
    <g id="ytick_4">
     <g id="line2d_26">
      <path clip-path="url(#p7616f64ab4)" d="
M34.5 93.8692
L310.5 93.8692" style="fill:none;stroke:#000000;stroke-dasharray:1.000000,3.000000;stroke-dashoffset:0.0;stroke-width:0.5;"/>
     </g>
     <g id="line2d_27">
      <g>
       <use style="stroke:#000000;stroke-width:0.5;" x="34.5" xlink:href="#m728421d6d4" y="93.8691903182"/>
      </g>
     </g>
     <g id="line2d_28">
      <g>
       <use style="stroke:#000000;stroke-width:0.5;" x="310.5" xlink:href="#mcb0005524f" y="93.8691903182"/>
      </g>
     </g>
     <g id="text_8">
      <!-- $0.6$ -->
      <defs>
       <path d="
M10.5938 34
C10.5938 57.6562 21.7969 63 28.2969 63
C30.4062 63 35.5 62.6406 37.5 59
C35.9062 59 32.9062 59 32.9062 55.5156
C32.9062 52.8281 35.0938 51.9219 36.5 51.9219
C37.4062 51.9219 40.0938 52.3125 40.0938 55.625
C40.0938 61.7812 35.0938 65.2969 28.2031 65.2969
C16.2969 65.2969 3.79688 52.9688 3.79688 31
C3.79688 3.95312 15.0938 -2 23.0938 -2
C32.7969 -2 42 6.67188 42 20.0469
C42 32.5156 33.9062 41.5938 23.7031 41.5938
C17.5938 41.5938 13.0938 37.6094 10.5938 30.625
z

M23.0938 0.390625
C10.7969 0.390625 10.7969 18.75 10.7969 22.4375
C10.7969 29.625 14.2031 40 23.5 40
C25.2031 40 30.0938 40 33.4062 33.125
C35.2031 29.2188 35.2031 25.1406 35.2031 20.1406
C35.2031 14.75 35.2031 10.7812 33.0938 6.78125
C30.9062 2.67188 27.7031 0.390625 23.0938 0.390625" id="CMR17-54"/>
      </defs>
      <g transform="translate(17.7699210237 96.3598503432)scale(0.1 -0.1)">
       <use transform="scale(0.996264009963)" xlink:href="#CMR17-48"/>
       <use transform="translate(45.6904771171 0.0)scale(0.996264009963)" xlink:href="#CMMI12-58"/>
       <use transform="translate(72.7876542069 0.0)scale(0.996264009963)" xlink:href="#CMR17-54"/>
      </g>
     </g>
    </g>
    <g id="ytick_5">
     <g id="line2d_29">
      <path clip-path="url(#p7616f64ab4)" d="
M34.5 67.3111
L310.5 67.3111" style="fill:none;stroke:#000000;stroke-dasharray:1.000000,3.000000;stroke-dashoffset:0.0;stroke-width:0.5;"/>
     </g>
     <g id="line2d_30">
      <g>
       <use style="stroke:#000000;stroke-width:0.5;" x="34.5" xlink:href="#m728421d6d4" y="67.3110779355"/>
      </g>
     </g>
     <g id="line2d_31">
      <g>
       <use style="stroke:#000000;stroke-width:0.5;" x="310.5" xlink:href="#mcb0005524f" y="67.3110779355"/>
      </g>
     </g>
     <g id="text_9">
      <!-- $0.8$ -->
      <defs>
       <path d="
M27.2031 35.375
C33.5 38.5625 39.9062 43.3281 39.9062 50.9844
C39.9062 60.0312 31.0938 65.2969 23 65.2969
C13.9062 65.2969 5.90625 58.7344 5.90625 49.6875
C5.90625 47.2031 6.5 42.9219 10.4062 39.1406
C11.4062 38.1562 15.5938 35.1719 18.2969 33.2812
C13.7969 30.9844 3.29688 25.5312 3.29688 14.5938
C3.29688 4.35938 13.0938 -2 22.7969 -2
C33.5 -2 42.5 5.65625 42.5 15.7969
C42.5 24.8438 36.4062 29.0312 32.4062 31.7031
z

M14.0938 44.125
C13.2969 44.625 9.29688 47.7031 9.29688 52.375
C9.29688 58.4375 15.5938 63 22.7969 63
C30.7031 63 36.5 57.4531 36.5 50.9844
C36.5 41.7344 26.0938 36.4688 25.5938 36.4688
C25.5 36.4688 25.4062 36.4688 24.5938 37.0781
z

M32.5 23.7344
C34 22.6406 38.7969 19.375 38.7969 13.2969
C38.7969 5.95312 31.4062 0.390625 23 0.390625
C13.9062 0.390625 7 6.84375 7 14.6875
C7 22.5469 13.0938 29.0938 20 32.1875
z
" id="CMR17-56"/>
      </defs>
      <g transform="translate(17.7699210237 69.8017379604)scale(0.1 -0.1)">
       <use transform="scale(0.996264009963)" xlink:href="#CMR17-48"/>
       <use transform="translate(45.6904771171 0.0)scale(0.996264009963)" xlink:href="#CMMI12-58"/>
       <use transform="translate(72.7876542069 0.0)scale(0.996264009963)" xlink:href="#CMR17-56"/>
      </g>
     </g>
    </g>
    <g id="ytick_6">
     <g id="line2d_32">
      <path clip-path="url(#p7616f64ab4)" d="
M34.5 40.753
L310.5 40.753" style="fill:none;stroke:#000000;stroke-dasharray:1.000000,3.000000;stroke-dashoffset:0.0;stroke-width:0.5;"/>
     </g>
     <g id="line2d_33">
      <g>
       <use style="stroke:#000000;stroke-width:0.5;" x="34.5" xlink:href="#m728421d6d4" y="40.7529655528"/>
      </g>
     </g>
     <g id="line2d_34">
      <g>
       <use style="stroke:#000000;stroke-width:0.5;" x="310.5" xlink:href="#mcb0005524f" y="40.7529655528"/>
      </g>
     </g>
     <g id="text_10">
      <!-- $1.0$ -->
      <defs>
       <path d="
M26.5938 63.3125
C26.5938 65.4062 26.5 65.5 25.0938 65.5
C21.2031 61.1875 15.2969 59.7969 9.70312 59.7969
C9.40625 59.7969 8.90625 59.7969 8.79688 59.6094
C8.70312 59.3906 8.70312 59.1719 8.70312 57
C11.7969 57 17 57.5938 21 59.9844
L21 7.20312
C21 3.6875 20.7969 2.5 12.2031 2.5
L9.20312 2.5
L9.20312 0
C14 0 19 0 23.7969 0
C28.5938 0 33.5938 0 38.4062 0
L38.4062 2.5
L35.4062 2.5
C26.7969 2.5 26.5938 3.59375 26.5938 7.15625
z
" id="CMR17-49"/>
      </defs>
      <g transform="translate(17.7699210237 43.2436255777)scale(0.1 -0.1)">
       <use transform="scale(0.996264009963)" xlink:href="#CMR17-49"/>
       <use transform="translate(45.6904771171 0.0)scale(0.996264009963)" xlink:href="#CMMI12-58"/>
       <use transform="translate(72.7876542069 0.0)scale(0.996264009963)" xlink:href="#CMR17-48"/>
      </g>
     </g>
    </g>
    <g id="text_11">
     <!-- $x_r(f)$ -->
     <defs>
      <path d="
M38.9062 40.8125
C35.7969 40.2188 34.2031 38.0156 34.2031 35.8281
C34.2031 33.4219 36.0938 32.625 37.5 32.625
C40.2969 32.625 42.5938 35.0312 42.5938 38.0156
C42.5938 41.2188 39.5 44 34.5 44
C30.5 44 25.9062 42.2031 21.7031 36.125
C21 41.4062 17 44 13 44
C9.09375 44 7.09375 41.0156 5.90625 38.8125
C4.20312 35.2188 2.70312 29.2344 2.70312 28.7344
C2.70312 28.3438 3.09375 27.8438 3.79688 27.8438
C4.59375 27.8438 4.70312 27.9375 5.29688 30.2344
C6.79688 36.2188 8.70312 42.0156 12.7031 42.0156
C15.0938 42.0156 15.7969 40.3125 15.7969 37.4219
C15.7969 35.2188 14.7969 31.3281 14.0938 28.2344
L11.2969 17.4688
C10.9062 15.5625 9.79688 11.0781 9.29688 9.28125
C8.59375 6.6875 7.5 2 7.5 1.5
C7.5 0.09375 8.59375 -1 10.0938 -1
C11.2031 -1 13.0938 -0.296875 13.7031 1.70312
C14 2.5 17.7031 17.5625 18.2969 19.8594
C18.7969 22.0469 19.4062 24.1562 19.9062 26.3438
C20.2969 27.7344 20.7031 29.3438 21 30.6406
C21.2969 31.5312 24 36.4219 26.5 38.625
C27.7031 39.7188 30.2969 42.0156 34.4062 42.0156
C36 42.0156 37.5938 41.7188 38.9062 40.8125" id="CMMI12-114"/>
      <path d="
M47.4062 40.7188
C44.2031 40.1094 43 37.7188 43 35.8281
C43 33.4219 44.9062 32.625 46.2969 32.625
C49.2969 32.625 51.4062 35.2188 51.4062 37.9219
C51.4062 42.1094 46.5938 44 42.4062 44
C36.2969 44 32.9062 38.0156 32 36.125
C29.7031 44 23.5 44 21.7031 44
C11.5 44 6.09375 30.9375 6.09375 28.7344
C6.09375 28.3438 6.5 27.8438 7.20312 27.8438
C8 27.8438 8.20312 28.4375 8.40625 28.8438
C11.7969 39.9219 18.5 42.0156 21.4062 42.0156
C25.9062 42.0156 26.7969 37.8125 26.7969 35.4219
C26.7969 33.2344 26.2031 30.9375 25 26.1406
L21.5938 12.4688
C20.0938 6.48438 17.2031 1 11.9062 1
C11.4062 1 8.90625 1 6.79688 2.29688
C10.4062 3 11.2031 5.98438 11.2031 7.1875
C11.2031 9.1875 9.70312 10.375 7.79688 10.375
C5.40625 10.375 2.79688 8.28125 2.79688 5.09375
C2.79688 0.890625 7.5 -1 11.7969 -1
C16.5938 -1 20 2.79688 22.0938 6.89062
C23.7031 1 28.7031 -1 32.4062 -1
C42.5938 -1 48 12.0781 48 14.2656
C48 14.7656 47.5938 15.1719 47 15.1719
C46.0938 15.1719 46 14.6719 45.7031 13.875
C43 5.09375 37.2031 1 32.7031 1
C29.2031 1 27.2969 3.59375 27.2969 7.6875
C27.2969 9.875 27.7031 11.4688 29.2969 18.0625
L32.7969 31.625
C34.2969 37.625 37.7031 42.0156 42.2969 42.0156
C42.5 42.0156 45.2969 42.0156 47.4062 40.7188" id="CMMI12-120"/>
      <path d="
M26.2969 24.6719
C26.2969 31.8438 25.5938 43.9844 19.5938 56.8281
C14.7969 67.1875 6.59375 74.4531 5.40625 74.4531
C5.09375 74.4531 4.70312 74.3438 4.70312 73.8594
C4.70312 73.6719 4.79688 73.5625 4.90625 73.3594
C9.70312 68.3906 21.9062 55.75 21.9062 24.7969
C21.9062 -6.28125 9.79688 -18.9219 4.90625 -23.9062
C4.79688 -24.0938 4.70312 -24.2031 4.70312 -24.3906
C4.70312 -24.8906 5.09375 -25 5.40625 -25
C6.5 -25 15 -17.625 19.9062 -6.67188
C24.9062 4.375 26.2969 15.125 26.2969 24.6719" id="CMR17-41"/>
      <path d="
M30.5938 -24.4062
C30.5938 -24.3125 30.5938 -24.1094 30.2969 -23.8125
C25.7031 -19.1406 13.4062 -6.39062 13.4062 24.6719
C13.4062 55.75 25.5 68.3906 30.4062 73.3594
C30.4062 73.4688 30.5938 73.6719 30.5938 73.9531
C30.5938 74.25 30.2969 74.4531 29.9062 74.4531
C28.7969 74.4531 20.2969 67.0781 15.4062 56.125
C10.4062 45.0781 9 34.3281 9 24.7812
C9 17.6094 9.70312 5.46875 15.7031 -7.375
C20.5 -17.7344 28.7031 -25 29.9062 -25
C30.4062 -25 30.5938 -24.7969 30.5938 -24.4062" id="CMR17-40"/>
     </defs>
     <g transform="translate(10.8327426934 119.050406014)rotate(-90.0)scale(0.1 -0.1)">
      <use transform="translate(0.0 14.9439145441)scale(0.996264009963)" xlink:href="#CMMI12-120"/>
      <use transform="translate(55.4340595326 0.0)scale(0.697381766617)" xlink:href="#CMMI12-114"/>
      <use transform="translate(88.601460344 14.9439145441)scale(0.996264009963)" xlink:href="#CMR17-40"/>
      <use transform="translate(123.882228143 14.9439145441)scale(0.996264009963)" xlink:href="#CMMI12-102"/>
      <use transform="translate(182.602532982 14.9439145441)scale(0.996264009963)" xlink:href="#CMR17-41"/>
     </g>
    </g>
   </g>
   <g id="patch_3">
    <path d="
M34.5 27.4739
L310.5 27.4739" style="fill:none;stroke:#000000;"/>
   </g>
   <g id="patch_4">
    <path d="
M310.5 186.823
L310.5 27.4739" style="fill:none;stroke:#000000;"/>
   </g>
   <g id="patch_5">
    <path d="
M34.5 186.823
L310.5 186.823" style="fill:none;stroke:#000000;"/>
   </g>
   <g id="patch_6">
    <path d="
M34.5 186.823
L34.5 27.4739" style="fill:none;stroke:#000000;"/>
   </g>
   <g id="text_12">
    <!-- Low-Pass Filter Frequency Response -->
    <defs>
     <path d="
M15.0938 40
L29.0938 40
L29.0938 42.5781
L15.0938 42.5781
L15.0938 61
L13.2969 61
C13.0938 50.7031 9.59375 41.6875 1.09375 41.6875
L1.09375 40
L9.79688 40
L9.79688 12.0469
C9.79688 10.1562 9.79688 -1 21.4062 -1
C27.2969 -1 30.7031 4.78125 30.7031 12.1406
L30.7031 17.8125
L28.9062 17.8125
L28.9062 12.2344
C28.9062 5.375 26.2031 0.796875 22 0.796875
C19.0938 0.796875 15.0938 2.78125 15.0938 11.8438
z
" id="CMR17-116"/>
     <path d="
M25.5 19
L25.5 23.375
L0.40625 23.375
L0.40625 19
z
" id="CMR17-45"/>
     <path d="
M19.7969 31.9062
L35.7969 31.9062
C48.7031 31.9062 58.0938 40.2812 58.0938 49.75
C58.0938 59.2344 48.9062 68 35.7969 68
L5.20312 68
L5.20312 65.4062
C12.0938 65.4062 13.2031 65.4062 13.2031 60.9375
L13.2031 6.96875
C13.2031 2.5 12.0938 2.5 5.20312 2.5
L5.20312 0
C8.09375 0 13.4062 0 16.5 0
C19.5938 0 24.9062 0 27.7969 0
L27.7969 2.5
C20.9062 2.5 19.7969 2.5 19.7969 6.96875
z

M19.5938 34
L19.5938 61.5312
C19.5938 64.9219 19.7969 65.4062 23.7969 65.4062
L33.9062 65.4062
C46.7969 65.4062 50.5 58.0312 50.5 49.75
C50.5 40.6875 46.0938 34 33.9062 34
z
" id="CMR17-80"/>
     <path d="
M39.2031 33.7031
C48.7031 35.5781 56.7031 41.9375 56.7031 49.8594
C56.7031 59.1719 46.0938 67.5938 32.0938 67.5938
L5.20312 67.5938
L5.20312 65
C12.0938 65 13.2031 65 13.2031 60.5156
L13.2031 6.48438
C13.2031 2 12.0938 2 5.20312 2
L5.20312 -0.40625
C8.09375 -0.40625 13.2969 -0.40625 16.4062 -0.40625
C19.5 -0.40625 24.7031 -0.40625 27.5938 -0.40625
L27.5938 2
C20.7031 2 19.5938 2 19.5938 6.51562
L19.5938 33
L31.2969 33
C37 33 40.2031 30.6875 41.5938 29.3906
C45.5938 25.5 45.5938 22.7969 45.5938 16
C45.5938 9.29688 45.5938 5.89062 48.5938 2.5
C52.4062 -1.59375 57.5 -2 59.7031 -2
C67.0938 -2 68.2031 6.1875 68.2031 7.85938
C68.2031 8.4375 68.2031 9.14062 67.2969 9.14062
C66.5 9.14062 66.4062 8.54688 66.4062 8.14062
C65.9062 1.75 63 -0.40625 59.9062 -0.40625
C54.4062 -0.40625 53.7969 5.89062 53.2031 12
C52.9062 14.1094 52.7031 15.5938 52.5 17.7969
C51.9062 22.7969 51.0938 30.1094 39.2031 33.7031
M31 34.5938
L19.5938 34.5938
L19.5938 61.1406
C19.5938 64.5156 19.7969 65 23.7969 65
L31.0938 65
C39.4062 65 49.0938 62.1406 49.0938 49.8438
C49.0938 37.0625 38.5 34.5938 31 34.5938" id="CMR17-82"/>
     <path d="
M54.2031 25.2344
L52.4062 25.2344
C51.5938 15.3594 50.2969 2.59375 33.2031 2.59375
L23.9062 2.59375
C19.9062 2.59375 19.7031 3.07812 19.7031 6.46875
L19.7031 60.9062
C19.7031 64.5156 19.9062 65.5 27.5 65.5
L29.7031 65.5
L29.7031 68
C25.5938 68 20.7969 68 16.7031 68
C13.5938 68 8 68 5.09375 68
L5.09375 65.5
C12 65.5 13.0938 65.5 13.0938 61.0312
L13.0938 7.0625
C13.0938 2.59375 12 2.59375 5.09375 2.59375
L5.09375 0
L51.7969 0
z
" id="CMR17-76"/>
     <path d="
M30.9062 42.1094
C30.9062 43.9062 30.7969 44 30.2031 44
C29.7969 44 29.7031 43.9062 28.5 42.4219
C28.2031 42.0156 27.2969 41.0156 27 40.625
C23.7969 44 19.2969 44 17.5938 44
C6.5 44 2.5 38.1719 2.5 32.375
C2.5 23.3438 12.7031 21.25 15.5938 20.6406
C21.9062 19.3438 24.0938 18.9375 26.2031 17.125
C27.5 15.9375 29.7031 13.7344 29.7031 10.125
C29.7031 5.90625 27.2969 0.5 18.0938 0.5
C9.40625 0.5 6.29688 7.0625 4.5 15.8281
C4.20312 17.2188 4.20312 17.3281 3.40625 17.3281
C2.59375 17.3281 2.5 17.2188 2.5 15.2344
L2.5 0.890625
C2.5 -0.890625 2.59375 -1 3.20312 -1
C3.70312 -1 3.79688 -0.890625 4.29688 -0.09375
C4.90625 0.796875 6.40625 3.1875 7 4.1875
C9 1.54688 12.5 -1 18.0938 -1
C28 -1 33.2969 4.40625 33.2969 12.2344
C33.2969 17.3438 30.5938 20.0625 29.2969 21.25
C26.2969 24.375 22.7969 25.0625 18.5938 25.8594
C13.0938 27.0781 6.09375 28.4688 6.09375 34.5938
C6.09375 37.1875 7.5 42.7188 17.5938 42.7188
C28.2969 42.7188 28.9062 32.75 29.0938 29.5625
C29.2031 29.0781 29.7031 28.9688 30 28.9688
C30.9062 28.9688 30.9062 29.2812 30.9062 30.9688
z
" id="CMR17-115"/>
     <path d="
M22 -16.6094
C15.5938 -16.6094 15.2031 -16.2031 15.2031 -12.3281
L15.2031 6.28125
C18.0938 2.09375 22.2969 -0.59375 27.5938 -0.59375
C37.5938 -0.59375 47.7031 8.17188 47.7031 21.6875
C47.7031 34.2344 39 43.7812 28.7031 43.7812
C22.7031 43.7812 17.7969 40.5 15 36.5312
L15 43.7812
L3.09375 42.6875
L3.09375 40.1094
C9 40.1094 9.90625 39.5 9.90625 34.7344
L9.90625 -12.3281
C9.90625 -16.1094 9.5 -16.6094 3.09375 -16.6094
L3.09375 -19.1875
C5.5 -19 9.90625 -19 12.5 -19
C15.0938 -19 19.5938 -19 22 -19.1875
z

M15.2031 31.4375
C15.2031 32.8438 15.2031 34.9219 19.0938 38.6094
C19.5938 39.0156 23 42 28 42
C35.2969 42 41.2969 32.9375 41.2969 21.5938
C41.2969 10.25 34.9062 1 27 1
C23.4062 1 19.5 2.6875 16.5 7.375
C15.2031 9.5625 15.2031 10.1562 15.2031 11.75
z
" id="CMR17-112"/>
     <path d="
M54.4062 67.5781
L5.09375 67.5781
L5.09375 65
C12 65 13.0938 65 13.0938 60.5312
L13.0938 6.96875
C13.0938 2.5 12 2.5 5.09375 2.5
L5.09375 0
C8 0 13.5938 0 16.7031 0
C20.7969 0 25.5938 0 29.7031 0
L29.7031 2.5
L27.5 2.5
C19.9062 2.5 19.7031 3.48438 19.7031 7.0625
L19.7031 32.4219
L28.7031 32.4219
C38 32.4219 38.9062 29.1875 38.9062 21
L40.7031 21
L40.7031 46.8906
L38.9062 46.8906
C38.9062 38.3438 38 35 28.7031 35
L19.7031 35
L19.7031 61.1094
C19.7031 64.5 19.9062 65 23.9062 65
L36.7969 65
C51.9062 65 53.5938 58.8906 55 45.7656
L56.7969 45.7656
z
" id="CMR17-70"/>
     <path d="
M58.2031 34.0781
C60.2031 40 64.2031 40 65.7031 40
L65.7031 42.6875
C63.7031 42.6875 61.7031 42.6875 59.7031 42.6875
C57.7969 42.6875 53.5 42.6875 51.7969 42.7812
L51.7969 40
C54.9062 40 56.5938 38.1875 56.5938 35.7031
C56.5938 35 56.4062 34.0938 56.2031 33.4062
L46.7969 6.20312
L36.5938 35.5156
C36.4062 36.2188 36.0938 37.0156 36.0938 37.4062
C36.0938 40 39.5 40 41.0938 40
L41.0938 42.7812
C38.7969 42.6875 34.5938 42.6875 32.2031 42.6875
C29.7031 42.6875 27.0938 42.6875 24.7969 42.7812
L24.7969 40
C30.2969 40 30.2969 39.7969 32.4062 33.7031
L23.2031 6.90625
L13.2969 35.625
C12.7969 36.9062 12.7969 37.1094 12.7969 37.4062
C12.7969 40 16.2031 40 17.7969 40
L17.7969 42.7812
C15.4062 42.6875 11.2031 42.6875 8.70312 42.6875
C6.5 42.6875 3.09375 42.6875 1 42.7812
L1 40
C5.40625 40 6.5 39.7031 7.59375 36.4062
L19.9062 0.59375
C20.2969 -0.703125 20.5938 -1 21.4062 -1
C22.0938 -1 22.5 -0.796875 23 0.703125
L33.2969 30.9062
L43.7031 0.703125
C44.2031 -0.796875 44.5938 -1 45.2969 -1
C46.0938 -1 46.4062 -0.703125 46.7969 0.609375
z
" id="CMR17-119"/>
    </defs>
    <g transform="translate(92.5912152548 22.4739093614)scale(0.1 -0.1)">
     <use transform="scale(0.996264009963)" xlink:href="#CMR17-76"/>
     <use transform="translate(57.3814078553 0.0)scale(0.996264009963)" xlink:href="#CMR17-111"/>
     <use transform="translate(100.46943104 0.0)scale(0.996264009963)" xlink:href="#CMR17-119"/>
     <use transform="translate(166.97931159 0.0)scale(0.996264009963)" xlink:href="#CMR17-45"/>
     <use transform="translate(197.055277937 0.0)scale(0.996264009963)" xlink:href="#CMR17-80"/>
     <use transform="translate(257.039124523 0.0)scale(0.996264009963)" xlink:href="#CMR17-97"/>
     <use transform="translate(302.72960164 0.0)scale(0.996264009963)" xlink:href="#CMR17-115"/>
     <use transform="translate(338.530939276 0.0)scale(0.996264009963)" xlink:href="#CMR17-115"/>
     <use transform="translate(404.408243258 0.0)scale(0.996264009963)" xlink:href="#CMR17-70"/>
     <use transform="translate(464.392089844 0.0)scale(0.996264009963)" xlink:href="#CMR17-105"/>
     <use transform="translate(489.263148326 0.0)scale(0.996264009963)" xlink:href="#CMR17-108"/>
     <use transform="translate(514.134206807 0.0)scale(0.996264009963)" xlink:href="#CMR17-116"/>
     <use transform="translate(549.414974607 0.0)scale(0.996264009963)" xlink:href="#CMR17-101"/>
     <use transform="translate(589.90063507 0.0)scale(0.996264009963)" xlink:href="#CMR17-114"/>
     <use transform="translate(655.257369216 0.0)scale(0.996264009963)" xlink:href="#CMR17-70"/>
     <use transform="translate(707.433960417 0.0)scale(0.996264009963)" xlink:href="#CMR17-114"/>
     <use transform="translate(742.714728216 0.0)scale(0.996264009963)" xlink:href="#CMR17-101"/>
     <use transform="translate(783.200388679 0.0)scale(0.996264009963)" xlink:href="#CMR17-113"/>
     <use transform="translate(831.493304527 0.0)scale(0.996264009963)" xlink:href="#CMR17-117"/>
     <use transform="translate(882.388674307 0.0)scale(0.996264009963)" xlink:href="#CMR17-101"/>
     <use transform="translate(922.87433477 0.0)scale(0.996264009963)" xlink:href="#CMR17-110"/>
     <use transform="translate(973.76970455 0.0)scale(0.996264009963)" xlink:href="#CMR17-99"/>
     <use transform="translate(1014.25536501 0.0)scale(0.996264009963)" xlink:href="#CMR17-121"/>
     <use transform="translate(1092.62424721 0.0)scale(0.996264009963)" xlink:href="#CMR17-82"/>
     <use transform="translate(1160.41534918 0.0)scale(0.996264009963)" xlink:href="#CMR17-101"/>
     <use transform="translate(1200.90100964 0.0)scale(0.996264009963)" xlink:href="#CMR17-115"/>
     <use transform="translate(1236.70234728 0.0)scale(0.996264009963)" xlink:href="#CMR17-112"/>
     <use transform="translate(1290.20015579 0.0)scale(0.996264009963)" xlink:href="#CMR17-111"/>
     <use transform="translate(1335.8906329 0.0)scale(0.996264009963)" xlink:href="#CMR17-110"/>
     <use transform="translate(1386.78600269 0.0)scale(0.996264009963)" xlink:href="#CMR17-115"/>
     <use transform="translate(1422.58734032 0.0)scale(0.996264009963)" xlink:href="#CMR17-101"/>
    </g>
   </g>
   <g id="legend_1">
    <g id="patch_7">
     <path d="
M129.304 181.823
L215.696 181.823
L215.696 109.126
L129.304 109.126
L129.304 181.823
z
" style="fill:#ffffff;stroke:#000000;"/>
    </g>
    <g id="line2d_35">
     <path d="
M136.304 116.626
L150.304 116.626" style="fill:none;stroke:#dfdfdf;stroke-linecap:square;"/>
    </g>
    <g id="line2d_36"/>
    <g id="text_13">
     <!-- $r=0$ -->
     <g transform="translate(161.304033823 120.126070217)scale(0.1 -0.1)">
      <use transform="scale(0.996264009963)" xlink:href="#CMMI12-114"/>
      <use transform="translate(74.3446207581 0.0)scale(0.996264009963)" xlink:href="#CMR17-61"/>
      <use transform="translate(173.733417896 0.0)scale(0.996264009963)" xlink:href="#CMR17-48"/>
     </g>
    </g>
    <g id="line2d_37">
     <path d="
M136.304 130.566
L150.304 130.566" style="fill:none;stroke:#bfbfbf;stroke-linecap:square;"/>
    </g>
    <g id="line2d_38"/>
    <g id="text_14">
     <!-- $r=1 - 2^{-1}$ -->
     <g transform="translate(161.304033823 134.065903995)scale(0.1 -0.1)">
      <use transform="scale(0.996264009963)" xlink:href="#CMMI12-114"/>
      <use transform="translate(74.3446207581 0.0)scale(0.996264009963)" xlink:href="#CMR17-61"/>
      <use transform="translate(173.733417896 0.0)scale(0.996264009963)" xlink:href="#CMR17-49"/>
      <use transform="translate(241.563101991 0.0)scale(0.996264009963)" xlink:href="#CMSY10-0"/>
      <use transform="translate(341.189776619 0.0)scale(0.996264009963)" xlink:href="#CMR17-50"/>
      <use transform="translate(386.880253736 36.1536389419)scale(0.697381766617)" xlink:href="#CMSY10-0"/>
      <use transform="translate(441.121246984 36.1536389419)scale(0.697381766617)" xlink:href="#CMR17-49"/>
     </g>
    </g>
    <g id="line2d_39">
     <path d="
M136.304 144.506
L150.304 144.506" style="fill:none;stroke:#808080;stroke-linecap:square;"/>
    </g>
    <g id="line2d_40"/>
    <g id="text_15">
     <!-- $r=1 - 2^{-2}$ -->
     <g transform="translate(161.304033823 148.005737772)scale(0.1 -0.1)">
      <use transform="scale(0.996264009963)" xlink:href="#CMMI12-114"/>
      <use transform="translate(74.3446207581 0.0)scale(0.996264009963)" xlink:href="#CMR17-61"/>
      <use transform="translate(173.733417896 0.0)scale(0.996264009963)" xlink:href="#CMR17-49"/>
      <use transform="translate(241.563101991 0.0)scale(0.996264009963)" xlink:href="#CMSY10-0"/>
      <use transform="translate(341.189776619 0.0)scale(0.996264009963)" xlink:href="#CMR17-50"/>
      <use transform="translate(386.880253736 36.1536389419)scale(0.697381766617)" xlink:href="#CMSY10-0"/>
      <use transform="translate(441.121246984 36.1536389419)scale(0.697381766617)" xlink:href="#CMR17-50"/>
     </g>
    </g>
    <g id="line2d_41">
     <path d="
M136.304 158.446
L150.304 158.446" style="fill:none;stroke:#404040;stroke-linecap:square;"/>
    </g>
    <g id="line2d_42"/>
    <g id="text_16">
     <!-- $r=1 - 2^{-3}$ -->
     <defs>
      <path d="
M22.0938 33.7031
C31 33.7031 34.9062 25.9688 34.9062 17.0312
C34.9062 5 28.5 0.390625 22.7031 0.390625
C17.4062 0.390625 8.79688 3.03125 6.09375 10.8281
C6.59375 10.625 7.09375 10.625 7.59375 10.625
C10 10.625 11.7969 12.2188 11.7969 14.8125
C11.7969 17.7031 9.59375 19 7.59375 19
C5.90625 19 3.29688 18.2031 3.29688 14.4688
C3.29688 5.23438 12.2969 -2 22.9062 -2
C34 -2 42.5 6.71875 42.5 16.9531
C42.5 26.6719 34.5 33.6875 25 34.7969
C32.5938 36.375 39.9062 43.0625 39.9062 52.0156
C39.9062 59.6875 32 65.2969 23 65.2969
C13.9062 65.2969 5.90625 59.8281 5.90625 52.0156
C5.90625 48.5938 8.5 48 9.79688 48
C11.9062 48 13.7031 49.2969 13.7031 51.8906
C13.7031 54.4688 11.9062 55.7656 9.79688 55.7656
C9.40625 55.7656 8.90625 55.7656 8.5 55.5625
C11.4062 61.8594 19.2969 63 22.7969 63
C26.2969 63 32.9062 61.3281 32.9062 51.875
C32.9062 49.1094 32.5 44.1875 29.0938 39.8438
C26.0938 36 22.7031 36 19.4062 35.5938
C18.9062 35.5938 16.5938 35.5938 16.2031 35.5938
C15.5 35.4844 15.0938 35.3906 15.0938 34.5938
C15.0938 33.8125 15.2031 33.7031 17.2031 33.7031
z
" id="CMR17-51"/>
     </defs>
     <g transform="translate(161.304033823 161.94557155)scale(0.1 -0.1)">
      <use transform="scale(0.996264009963)" xlink:href="#CMMI12-114"/>
      <use transform="translate(74.3446207581 0.0)scale(0.996264009963)" xlink:href="#CMR17-61"/>
      <use transform="translate(173.733417896 0.0)scale(0.996264009963)" xlink:href="#CMR17-49"/>
      <use transform="translate(241.563101991 0.0)scale(0.996264009963)" xlink:href="#CMSY10-0"/>
      <use transform="translate(341.189776619 0.0)scale(0.996264009963)" xlink:href="#CMR17-50"/>
      <use transform="translate(386.880253736 36.1536389419)scale(0.697381766617)" xlink:href="#CMSY10-0"/>
      <use transform="translate(441.121246984 36.1536389419)scale(0.697381766617)" xlink:href="#CMR17-51"/>
     </g>
    </g>
    <g id="line2d_43">
     <path d="
M136.304 172.385
L150.304 172.385" style="fill:none;stroke:#000000;stroke-linecap:square;"/>
    </g>
    <g id="line2d_44"/>
    <g id="text_17">
     <!-- $r=1 - 2^{-4}$ -->
     <g transform="translate(161.304033823 175.885405327)scale(0.1 -0.1)">
      <use transform="scale(0.996264009963)" xlink:href="#CMMI12-114"/>
      <use transform="translate(74.3446207581 0.0)scale(0.996264009963)" xlink:href="#CMR17-61"/>
      <use transform="translate(173.733417896 0.0)scale(0.996264009963)" xlink:href="#CMR17-49"/>
      <use transform="translate(241.563101991 0.0)scale(0.996264009963)" xlink:href="#CMSY10-0"/>
      <use transform="translate(341.189776619 0.0)scale(0.996264009963)" xlink:href="#CMR17-50"/>
      <use transform="translate(386.880253736 36.1536389419)scale(0.697381766617)" xlink:href="#CMSY10-0"/>
      <use transform="translate(441.121246984 36.1536389419)scale(0.697381766617)" xlink:href="#CMR17-52"/>
     </g>
    </g>
   </g>
  </g>
 </g>
 <defs>
  <clipPath id="p7616f64ab4">
   <rect height="159.348674296" width="276.0" x="34.5" y="27.4739093614"/>
  </clipPath>
 </defs>
</svg>
