<?xml version="1.0" encoding="utf-8" standalone="no"?>
<!DOCTYPE svg PUBLIC "-//W3C//DTD SVG 1.1//EN"
  "http://www.w3.org/Graphics/SVG/1.1/DTD/svg11.dtd">
<!-- Created with matplotlib (http://matplotlib.org/) -->
<svg height="303pt" version="1.1" viewBox="0 0 307 303" width="307pt" xmlns="http://www.w3.org/2000/svg" xmlns:xlink="http://www.w3.org/1999/xlink">
 <defs>
  <style type="text/css">
*{stroke-linecap:butt;stroke-linejoin:round;stroke-miterlimit:100000;}
  </style>
 </defs>
 <g id="figure_1">
  <g id="patch_1">
   <path d="M 0 303.255677 
L 307.130079 303.255677 
L 307.130079 0 
L 0 0 
z
" style="fill:#ffffff;"/>
  </g>
  <g id="axes_1">
   <g id="patch_2">
    <path d="M 23.930079 283.2 
L 299.930079 283.2 
L 299.930079 7.2 
L 23.930079 7.2 
z
" style="fill:#ffffff;"/>
   </g>
   <g id="patch_3">
    <path clip-path="url(#p7047276b15)" d="M 287.384624 145.2 
L 287.263302 139.684 
L 286.899568 134.178668 
L 286.294127 128.694653 
L 285.44815 123.242562 
L 284.363273 117.832939 
L 283.041594 112.476247 
L 281.485669 107.182848 
L 279.698508 101.962979 
L 277.683568 96.826736 
L 275.444746 91.784053 
L 272.986371 86.844683 
L 270.313199 82.01818 
L 267.430399 77.313879 
L 264.343549 72.740879 
L 261.058617 68.308024 
L 257.581958 64.023888 
L 253.920295 59.896758 
L 250.080712 55.934615 
L 246.070633 52.145123 
L 241.897816 48.535611 
L 237.570331 45.113061 
L 233.096547 41.884092 
L 228.485118 38.85495 
L 223.744964 36.031493 
L 218.885251 33.419182 
L 213.915379 31.023069 
L 208.844961 28.84779 
L 203.683804 26.897551 
L 198.441889 25.176124 
L 193.129356 23.68684 
L 187.756479 22.432577 
L 182.333651 21.415763 
L 176.871359 20.638364 
L 171.380169 20.101883 
L 165.870701 19.807359 
L 160.353612 19.75536 
L 154.839572 19.945987 
L 149.339246 20.378872 
L 143.863272 21.053178 
L 138.422241 21.967599 
L 133.026678 23.120369 
L 127.687018 24.509256 
L 122.413588 26.131575 
L 117.216589 27.984187 
L 112.106071 30.063511 
L 107.091919 32.365523 
L 102.183832 34.885772 
L 97.391301 37.619383 
L 92.723597 40.561069 
L 88.189747 43.705141 
L 83.798521 47.045516 
L 79.558411 50.575736 
L 75.477619 54.288971 
L 71.564038 58.17804 
L 67.825236 62.235421 
L 64.268445 66.453266 
L 60.900544 70.823417 
L 57.728048 75.337423 
L 54.757092 79.986552 
L 51.993423 84.761812 
L 49.442385 89.653967 
L 47.108914 94.653556 
L 44.997521 99.750909 
L 43.112292 104.936165 
L 41.456871 110.199298 
L 40.034462 115.530126 
L 38.847814 120.918339 
L 37.899224 126.353517 
L 37.190525 131.825146 
L 36.723089 137.322644 
L 36.49782 142.835378 
L 36.515153 148.352685 
L 36.775055 153.863894 
L 37.277024 159.358346 
L 38.020087 164.825415 
L 39.002809 170.254525 
L 40.223288 175.635176 
L 41.679164 180.956962 
L 43.36762 186.209589 
L 45.285393 191.382898 
L 47.428771 196.466884 
L 49.793609 201.451713 
L 52.375335 206.327743 
L 55.168953 211.085544 
L 58.169061 215.715915 
L 61.369857 220.209898 
L 64.76515 224.558802 
L 68.348372 228.754216 
L 72.112593 232.788025 
L 76.050533 236.652428 
L 80.154575 240.339949 
L 84.416782 243.843458 
L 88.82891 247.156177 
L 93.382425 250.2717 
L 98.06852 253.184 
L 102.878131 255.887445 
L 107.801957 258.376806 
L 112.830474 260.647268 
L 117.953955 262.69444 
L 123.162492 264.514363 
L 128.446011 266.103516 
L 133.794293 267.458826 
L 139.196992 268.577671 
L 144.643661 269.457888 
L 150.123763 270.097774 
L 155.626701 270.496091 
L 161.14183 270.652069 
L 166.658484 270.565407 
L 172.165992 270.236271 
L 177.653703 269.665299 
L 183.111002 268.853595 
L 188.527335 267.802728 
L 193.892225 266.514732 
L 199.195296 264.992097 
L 204.426291 263.237769 
L 209.575093 261.25514 
L 214.631743 259.048046 
L 219.586461 256.620754 
L 224.429665 253.977961 
L 229.151986 251.124776 
L 233.744291 248.066719 
L 238.197698 244.809705 
L 242.503594 241.360032 
L 246.653649 237.724373 
L 250.639839 233.90976 
L 254.454452 229.92357 
L 258.090111 225.773515 
L 261.539784 221.467619 
L 264.796798 217.014212 
L 267.854855 212.421907 
L 270.70804 207.699586 
L 273.350833 202.856383 
L 275.778125 197.901664 
L 277.985219 192.845014 
L 279.967848 187.696212 
L 281.722176 182.465217 
L 283.244811 177.162146 
L 284.532807 171.797256 
L 285.583674 166.380923 
L 286.395378 160.923624 
L 286.96635 155.435913 
L 287.295486 149.928405 
L 287.384624 145.2 
L 287.384624 145.2 
" style="fill:none;stroke:#000000;stroke-linejoin:miter;"/>
   </g>
   <g id="patch_4">
    <path clip-path="url(#p7047276b15)" d="M 289.580079 145.2 
L 287.384624 145.2 
L 285.18917 145.200001 
z
" style="stroke:#000000;stroke-linejoin:miter;"/>
   </g>
   <g id="patch_5">
    <path clip-path="url(#p7047276b15)" d="M 34.280078 142.063637 
L 36.475535 148.336364 
L 38.670987 142.063636 
z
" style="stroke:#000000;stroke-linejoin:miter;"/>
   </g>
   <g id="patch_6">
    <path clip-path="url(#p7047276b15)" d="M 289.580079 145.200001 
L 287.384624 145.2 
L 285.18917 145.2 
z
" style="stroke:#000000;stroke-linejoin:miter;"/>
   </g>
   <g id="patch_7">
    <path d="M 23.930079 7.2 
L 299.930079 7.2 
" style="fill:none;stroke:#000000;stroke-linecap:square;stroke-linejoin:miter;"/>
   </g>
   <g id="patch_8">
    <path d="M 299.930079 283.2 
L 299.930079 7.2 
" style="fill:none;stroke:#000000;stroke-linecap:square;stroke-linejoin:miter;"/>
   </g>
   <g id="patch_9">
    <path d="M 23.930079 283.2 
L 299.930079 283.2 
" style="fill:none;stroke:#000000;stroke-linecap:square;stroke-linejoin:miter;"/>
   </g>
   <g id="patch_10">
    <path d="M 23.930079 283.2 
L 23.930079 7.2 
" style="fill:none;stroke:#000000;stroke-linecap:square;stroke-linejoin:miter;"/>
   </g>
   <g id="matplotlib.axis_1">
    <g id="xtick_1">
     <g id="line2d_1">
      <path clip-path="url(#p7047276b15)" d="M 36.475534 283.2 
L 36.475534 7.2 
" style="fill:none;stroke:#000000;stroke-dasharray:1.000000,3.000000;stroke-dashoffset:0.0;stroke-width:0.5;"/>
     </g>
     <g id="line2d_2">
      <defs>
       <path d="M 0 0 
L 0 -4 
" id="ma7426d34ea" style="stroke:#000000;stroke-width:0.5;"/>
      </defs>
      <g>
       <use style="stroke:#000000;stroke-width:0.5;" x="36.4755335218" xlink:href="#ma7426d34ea" y="283.2"/>
      </g>
     </g>
     <g id="line2d_3">
      <defs>
       <path d="M 0 0 
L 0 4 
" id="m2c2c27ad4e" style="stroke:#000000;stroke-width:0.5;"/>
      </defs>
      <g>
       <use style="stroke:#000000;stroke-width:0.5;" x="36.4755335218" xlink:href="#m2c2c27ad4e" y="7.2"/>
      </g>
     </g>
     <g id="text_1">
      <!-- $-1$ -->
      <defs>
       <path d="M 65.90625 23 
C 67.59375 23 69.40625 23 69.40625 25 
C 69.40625 27 67.59375 27 65.90625 27 
L 11.796875 27 
C 10.09375 27 8.296875 27 8.296875 25 
C 8.296875 23 10.09375 23 11.796875 23 
z
" id="CMSY10-0"/>
       <path d="M 26.59375 63.40625 
C 26.59375 65.5 26.5 65.5 25.09375 65.5 
C 21.203125 61.1875 15.296875 59.796875 9.703125 59.796875 
C 9.40625 59.796875 8.90625 59.796875 8.796875 59.5 
C 8.703125 59.296875 8.703125 59.09375 8.703125 57 
C 11.796875 57 17 57.59375 21 59.984375 
L 21 7.203125 
C 21 3.6875 20.796875 2.5 12.203125 2.5 
L 9.203125 2.5 
L 9.203125 0 
C 14 0 19 0 23.796875 0 
C 28.59375 0 33.59375 0 38.40625 0 
L 38.40625 2.5 
L 35.40625 2.5 
C 26.796875 2.5 26.59375 3.59375 26.59375 7.15625 
z
" id="CMR17-49"/>
      </defs>
      <g transform="translate(30.1104940336 294.11849838)scale(0.1 -0.1)">
       <use transform="scale(0.996264009963)" xlink:href="#CMSY10-0"/>
       <use transform="translate(77.4874676506 0.0)scale(0.996264009963)" xlink:href="#CMR17-49"/>
      </g>
     </g>
    </g>
    <g id="xtick_2">
     <g id="line2d_4">
      <path clip-path="url(#p7047276b15)" d="M 161.930079 283.2 
L 161.930079 7.2 
" style="fill:none;stroke:#000000;stroke-dasharray:1.000000,3.000000;stroke-dashoffset:0.0;stroke-width:0.5;"/>
     </g>
     <g id="line2d_5">
      <g>
       <use style="stroke:#000000;stroke-width:0.5;" x="161.930078976" xlink:href="#ma7426d34ea" y="283.2"/>
      </g>
     </g>
     <g id="line2d_6">
      <g>
       <use style="stroke:#000000;stroke-width:0.5;" x="161.930078976" xlink:href="#m2c2c27ad4e" y="7.2"/>
      </g>
     </g>
     <g id="text_2">
      <!-- $0$ -->
      <defs>
       <path d="M 42 31.640625 
C 42 37.75 41.90625 48.125 37.703125 56.109375 
C 34 63.109375 28.09375 65.59375 22.90625 65.59375 
C 18.09375 65.59375 12 63.40625 8.203125 56.203125 
C 4.203125 48.71875 3.796875 39.4375 3.796875 31.640625 
C 3.796875 25.953125 3.90625 17.28125 7 9.671875 
C 11.296875 -0.609375 19 -2 22.90625 -2 
C 27.5 -2 34.5 -0.109375 38.59375 9.375 
C 41.59375 16.28125 42 24.359375 42 31.640625 
M 22.90625 -0.40625 
C 16.5 -0.40625 12.703125 5.078125 11.296875 12.6875 
C 10.203125 18.5625 10.203125 27.15625 10.203125 32.75 
C 10.203125 40.4375 10.203125 46.828125 11.5 52.921875 
C 13.40625 61.390625 19 64 22.90625 64 
C 27 64 32.296875 61.296875 34.203125 53.125 
C 35.5 47.4375 35.59375 40.734375 35.59375 32.75 
C 35.59375 26.25 35.59375 18.265625 34.40625 12.375 
C 32.296875 1.484375 26.40625 -0.40625 22.90625 -0.40625 
" id="CMR17-48"/>
      </defs>
      <g transform="translate(159.439411351 294.11849838)scale(0.1 -0.1)">
       <use transform="scale(0.996264009963)" xlink:href="#CMR17-48"/>
      </g>
     </g>
    </g>
    <g id="xtick_3">
     <g id="line2d_7">
      <path clip-path="url(#p7047276b15)" d="M 287.384624 283.2 
L 287.384624 7.2 
" style="fill:none;stroke:#000000;stroke-dasharray:1.000000,3.000000;stroke-dashoffset:0.0;stroke-width:0.5;"/>
     </g>
     <g id="line2d_8">
      <g>
       <use style="stroke:#000000;stroke-width:0.5;" x="287.384624431" xlink:href="#ma7426d34ea" y="283.2"/>
      </g>
     </g>
     <g id="line2d_9">
      <g>
       <use style="stroke:#000000;stroke-width:0.5;" x="287.384624431" xlink:href="#m2c2c27ad4e" y="7.2"/>
      </g>
     </g>
     <g id="text_3">
      <!-- $1$ -->
      <g transform="translate(284.893956805 294.11849838)scale(0.1 -0.1)">
       <use transform="scale(0.996264009963)" xlink:href="#CMR17-49"/>
      </g>
     </g>
    </g>
   </g>
   <g id="matplotlib.axis_2">
    <g id="ytick_1">
     <g id="line2d_10">
      <path clip-path="url(#p7047276b15)" d="M 23.930079 270.654545 
L 299.930079 270.654545 
" style="fill:none;stroke:#000000;stroke-dasharray:1.000000,3.000000;stroke-dashoffset:0.0;stroke-width:0.5;"/>
     </g>
     <g id="line2d_11">
      <defs>
       <path d="M 0 0 
L 4 0 
" id="mdf0edb89dc" style="stroke:#000000;stroke-width:0.5;"/>
      </defs>
      <g>
       <use style="stroke:#000000;stroke-width:0.5;" x="23.9300789763" xlink:href="#mdf0edb89dc" y="270.654545455"/>
      </g>
     </g>
     <g id="line2d_12">
      <defs>
       <path d="M 0 0 
L -4 0 
" id="m54d393fda6" style="stroke:#000000;stroke-width:0.5;"/>
      </defs>
      <g>
       <use style="stroke:#000000;stroke-width:0.5;" x="299.930078976" xlink:href="#m54d393fda6" y="270.654545455"/>
      </g>
     </g>
     <g id="text_4">
      <!-- $-1$ -->
      <g transform="translate(7.2 273.145205479)scale(0.1 -0.1)">
       <use transform="scale(0.996264009963)" xlink:href="#CMSY10-0"/>
       <use transform="translate(77.4874676506 0.0)scale(0.996264009963)" xlink:href="#CMR17-49"/>
      </g>
     </g>
    </g>
    <g id="ytick_2">
     <g id="line2d_13">
      <path clip-path="url(#p7047276b15)" d="M 23.930079 145.2 
L 299.930079 145.2 
" style="fill:none;stroke:#000000;stroke-dasharray:1.000000,3.000000;stroke-dashoffset:0.0;stroke-width:0.5;"/>
     </g>
     <g id="line2d_14">
      <g>
       <use style="stroke:#000000;stroke-width:0.5;" x="23.9300789763" xlink:href="#mdf0edb89dc" y="145.2"/>
      </g>
     </g>
     <g id="line2d_15">
      <g>
       <use style="stroke:#000000;stroke-width:0.5;" x="299.930078976" xlink:href="#m54d393fda6" y="145.2"/>
      </g>
     </g>
     <g id="text_5">
      <!-- $0$ -->
      <g transform="translate(14.9487437247 147.690660025)scale(0.1 -0.1)">
       <use transform="scale(0.996264009963)" xlink:href="#CMR17-48"/>
      </g>
     </g>
    </g>
    <g id="ytick_3">
     <g id="line2d_16">
      <path clip-path="url(#p7047276b15)" d="M 23.930079 19.745455 
L 299.930079 19.745455 
" style="fill:none;stroke:#000000;stroke-dasharray:1.000000,3.000000;stroke-dashoffset:0.0;stroke-width:0.5;"/>
     </g>
     <g id="line2d_17">
      <g>
       <use style="stroke:#000000;stroke-width:0.5;" x="23.9300789763" xlink:href="#mdf0edb89dc" y="19.7454545455"/>
      </g>
     </g>
     <g id="line2d_18">
      <g>
       <use style="stroke:#000000;stroke-width:0.5;" x="299.930078976" xlink:href="#m54d393fda6" y="19.7454545455"/>
      </g>
     </g>
     <g id="text_6">
      <!-- $1$ -->
      <g transform="translate(14.9487437247 22.2361145704)scale(0.1 -0.1)">
       <use transform="scale(0.996264009963)" xlink:href="#CMR17-49"/>
      </g>
     </g>
    </g>
   </g>
  </g>
 </g>
 <defs>
  <clipPath id="p7047276b15">
   <rect height="276.0" width="276.0" x="23.9300789763" y="7.2"/>
  </clipPath>
 </defs>
</svg>
