<?xml version="1.0" encoding="utf-8" standalone="no"?>
<!DOCTYPE svg PUBLIC "-//W3C//DTD SVG 1.1//EN"
  "http://www.w3.org/Graphics/SVG/1.1/DTD/svg11.dtd">
<!-- Created with matplotlib (http://matplotlib.org/) -->
<svg height="127.935723pt" version="1.1" viewBox="0 0 345 127.935723" width="345pt" xmlns="http://www.w3.org/2000/svg" xmlns:xlink="http://www.w3.org/1999/xlink">
 <defs>
  <style type="text/css">
*{stroke-linecap:butt;stroke-linejoin:round;}
  </style>
 </defs>
 <g id="figure_1">
  <g id="patch_1">
   <path d="M 0 127.935723 
L 345 127.935723 
L 345 0 
L 0 0 
z
" style="fill:#ffffff;"/>
  </g>
  <g id="axes_1">
   <g id="patch_2">
    <path d="M 17.25 108.745365 
L 327.75 108.745365 
L 327.75 12.793572 
L 17.25 12.793572 
z
" style="fill:#ffffff;"/>
   </g>
   <g id="matplotlib.axis_1">
    <g id="xtick_1">
     <g id="line2d_1">
      <defs>
       <path d="M 0 0 
L 0 3.5 
" id="m2d27c9cb5d" style="stroke:#000000;stroke-width:0.8;"/>
      </defs>
      <g>
       <use style="stroke:#000000;stroke-width:0.8;" x="43.125" xlink:href="#m2d27c9cb5d" y="108.745365"/>
      </g>
     </g>
     <g id="text_1">
      <!-- $0.00$ -->
      <defs>
       <path d="M 42 31.640625 
C 42 37.75 41.90625 48.125 37.703125 56.109375 
C 34 63.109375 28.09375 65.59375 22.90625 65.59375 
C 18.09375 65.59375 12 63.40625 8.203125 56.203125 
C 4.203125 48.71875 3.796875 39.4375 3.796875 31.640625 
C 3.796875 25.953125 3.90625 17.28125 7 9.671875 
C 11.296875 -0.609375 19 -2 22.90625 -2 
C 27.5 -2 34.5 -0.109375 38.59375 9.375 
C 41.59375 16.28125 42 24.359375 42 31.640625 
z
M 22.90625 -0.40625 
C 16.5 -0.40625 12.703125 5.078125 11.296875 12.6875 
C 10.203125 18.5625 10.203125 27.15625 10.203125 32.75 
C 10.203125 40.4375 10.203125 46.828125 11.5 52.921875 
C 13.40625 61.390625 19 64 22.90625 64 
C 27 64 32.296875 61.296875 34.203125 53.125 
C 35.5 47.4375 35.59375 40.734375 35.59375 32.75 
C 35.59375 26.25 35.59375 18.265625 34.40625 12.375 
C 32.296875 1.484375 26.40625 -0.40625 22.90625 -0.40625 
z
" id="CMR17-48"/>
       <path d="M 18.40625 4.796875 
C 18.40625 7.6875 16 9.671875 13.59375 9.671875 
C 10.703125 9.671875 8.703125 7.28125 8.703125 4.890625 
C 8.703125 2 11.09375 0 13.5 0 
C 16.40625 0 18.40625 2.390625 18.40625 4.796875 
z
" id="CMMI12-58"/>
      </defs>
      <g transform="translate(34.269293 122.663863)scale(0.1 -0.1)">
       <use transform="scale(0.996264)" xlink:href="#CMR17-48"/>
       <use transform="translate(45.690477 0)scale(0.996264)" xlink:href="#CMMI12-58"/>
       <use transform="translate(72.787654 0)scale(0.996264)" xlink:href="#CMR17-48"/>
       <use transform="translate(118.478131 0)scale(0.996264)" xlink:href="#CMR17-48"/>
      </g>
     </g>
    </g>
    <g id="xtick_2">
     <g id="line2d_2">
      <g>
       <use style="stroke:#000000;stroke-width:0.8;" x="94.875" xlink:href="#m2d27c9cb5d" y="108.745365"/>
      </g>
     </g>
     <g id="text_2">
      <!-- $0.01$ -->
      <defs>
       <path d="M 26.59375 63.40625 
C 26.59375 65.5 26.5 65.5 25.09375 65.5 
C 21.203125 61.1875 15.296875 59.796875 9.703125 59.796875 
C 9.40625 59.796875 8.90625 59.796875 8.796875 59.5 
C 8.703125 59.296875 8.703125 59.09375 8.703125 57 
C 11.796875 57 17 57.59375 21 59.984375 
L 21 7.203125 
C 21 3.6875 20.796875 2.5 12.203125 2.5 
L 9.203125 2.5 
L 9.203125 0 
C 14 0 19 0 23.796875 0 
C 28.59375 0 33.59375 0 38.40625 0 
L 38.40625 2.5 
L 35.40625 2.5 
C 26.796875 2.5 26.59375 3.59375 26.59375 7.15625 
z
" id="CMR17-49"/>
      </defs>
      <g transform="translate(86.019293 122.663863)scale(0.1 -0.1)">
       <use transform="scale(0.996264)" xlink:href="#CMR17-48"/>
       <use transform="translate(45.690477 0)scale(0.996264)" xlink:href="#CMMI12-58"/>
       <use transform="translate(72.787654 0)scale(0.996264)" xlink:href="#CMR17-48"/>
       <use transform="translate(118.478131 0)scale(0.996264)" xlink:href="#CMR17-49"/>
      </g>
     </g>
    </g>
    <g id="xtick_3">
     <g id="line2d_3">
      <g>
       <use style="stroke:#000000;stroke-width:0.8;" x="146.625" xlink:href="#m2d27c9cb5d" y="108.745365"/>
      </g>
     </g>
     <g id="text_3">
      <!-- $0.02$ -->
      <defs>
       <path d="M 41.703125 15.453125 
L 39.90625 15.453125 
C 38.90625 8.375 38.09375 7.171875 37.703125 6.5625 
C 37.203125 5.765625 30 5.765625 28.59375 5.765625 
L 9.40625 5.765625 
C 13 9.671875 20 16.75 28.5 24.953125 
C 34.59375 30.734375 41.703125 37.53125 41.703125 47.421875 
C 41.703125 59.21875 32.296875 66 21.796875 66 
C 10.796875 66 4.09375 56.3125 4.09375 47.34375 
C 4.09375 43.4375 7 42.9375 8.203125 42.9375 
C 9.203125 42.9375 12.203125 43.546875 12.203125 47.03125 
C 12.203125 50.109375 9.59375 51 8.203125 51 
C 7.59375 51 7 50.90625 6.59375 50.703125 
C 8.5 59.21875 14.296875 63.40625 20.40625 63.40625 
C 29.09375 63.40625 34.796875 56.515625 34.796875 47.421875 
C 34.796875 38.734375 29.703125 31.25 24 24.75 
L 4.09375 2.28125 
L 4.09375 0 
L 39.296875 0 
z
" id="CMR17-50"/>
      </defs>
      <g transform="translate(137.769293 122.663863)scale(0.1 -0.1)">
       <use transform="scale(0.996264)" xlink:href="#CMR17-48"/>
       <use transform="translate(45.690477 0)scale(0.996264)" xlink:href="#CMMI12-58"/>
       <use transform="translate(72.787654 0)scale(0.996264)" xlink:href="#CMR17-48"/>
       <use transform="translate(118.478131 0)scale(0.996264)" xlink:href="#CMR17-50"/>
      </g>
     </g>
    </g>
    <g id="xtick_4">
     <g id="line2d_4">
      <g>
       <use style="stroke:#000000;stroke-width:0.8;" x="198.375" xlink:href="#m2d27c9cb5d" y="108.745365"/>
      </g>
     </g>
     <g id="text_4">
      <!-- $0.03$ -->
      <defs>
       <path d="M 22.09375 33.703125 
C 31 33.703125 34.90625 25.96875 34.90625 17.03125 
C 34.90625 5 28.5 0.390625 22.703125 0.390625 
C 17.40625 0.390625 8.796875 3.03125 6.09375 10.828125 
C 6.59375 10.625 7.09375 10.625 7.59375 10.625 
C 10 10.625 11.796875 12.21875 11.796875 14.8125 
C 11.796875 17.703125 9.59375 19 7.59375 19 
C 5.90625 19 3.296875 18.203125 3.296875 14.46875 
C 3.296875 5.234375 12.296875 -2 22.90625 -2 
C 34 -2 42.5 6.71875 42.5 16.953125 
C 42.5 26.671875 34.5 33.703125 25 34.796875 
C 32.59375 36.375 39.90625 43.0625 39.90625 52.015625 
C 39.90625 59.6875 32 65.296875 23 65.296875 
C 13.90625 65.296875 5.90625 59.828125 5.90625 52.015625 
C 5.90625 48.59375 8.5 48 9.796875 48 
C 11.90625 48 13.703125 49.296875 13.703125 51.890625 
C 13.703125 54.46875 11.90625 55.765625 9.796875 55.765625 
C 9.40625 55.765625 8.90625 55.765625 8.5 55.578125 
C 11.40625 61.859375 19.296875 63 22.796875 63 
C 26.296875 63 32.90625 61.328125 32.90625 51.875 
C 32.90625 49.109375 32.5 44.1875 29.09375 39.84375 
C 26.09375 36 22.703125 36 19.40625 35.6875 
C 18.90625 35.6875 16.59375 35.453125 16.203125 35.453125 
C 15.5 35.359375 15.09375 35.265625 15.09375 34.5 
C 15.09375 33.796875 15.203125 33.703125 17.203125 33.703125 
z
" id="CMR17-51"/>
      </defs>
      <g transform="translate(189.519293 122.663863)scale(0.1 -0.1)">
       <use transform="scale(0.996264)" xlink:href="#CMR17-48"/>
       <use transform="translate(45.690477 0)scale(0.996264)" xlink:href="#CMMI12-58"/>
       <use transform="translate(72.787654 0)scale(0.996264)" xlink:href="#CMR17-48"/>
       <use transform="translate(118.478131 0)scale(0.996264)" xlink:href="#CMR17-51"/>
      </g>
     </g>
    </g>
    <g id="xtick_5">
     <g id="line2d_5">
      <g>
       <use style="stroke:#000000;stroke-width:0.8;" x="250.125" xlink:href="#m2d27c9cb5d" y="108.745365"/>
      </g>
     </g>
     <g id="text_5">
      <!-- $0.04$ -->
      <defs>
       <path d="M 33.59375 64.40625 
C 33.59375 66.5 33.5 66.5 31.703125 66.5 
L 2 19.59375 
L 2 17 
L 27.796875 17 
L 27.796875 7.140625 
C 27.796875 3.5 27.59375 2.5 20.59375 2.5 
L 18.703125 2.5 
L 18.703125 0 
C 21.90625 0 27.296875 0 30.703125 0 
C 34.09375 0 39.5 0 42.703125 0 
L 42.703125 2.5 
L 40.796875 2.5 
C 33.796875 2.5 33.59375 3.5 33.59375 7.140625 
L 33.59375 17 
L 43.796875 17 
L 43.796875 19.59375 
L 33.59375 19.59375 
z
M 28.09375 57.859375 
L 28.09375 19.59375 
L 4 19.59375 
z
" id="CMR17-52"/>
      </defs>
      <g transform="translate(241.269293 122.663863)scale(0.1 -0.1)">
       <use transform="scale(0.996264)" xlink:href="#CMR17-48"/>
       <use transform="translate(45.690477 0)scale(0.996264)" xlink:href="#CMMI12-58"/>
       <use transform="translate(72.787654 0)scale(0.996264)" xlink:href="#CMR17-48"/>
       <use transform="translate(118.478131 0)scale(0.996264)" xlink:href="#CMR17-52"/>
      </g>
     </g>
    </g>
    <g id="xtick_6">
     <g id="line2d_6">
      <g>
       <use style="stroke:#000000;stroke-width:0.8;" x="301.875" xlink:href="#m2d27c9cb5d" y="108.745365"/>
      </g>
     </g>
     <g id="text_6">
      <!-- $0.05$ -->
      <defs>
       <path d="M 11.40625 57.6875 
C 12.40625 57.28125 16.5 56 20.703125 56 
C 30 56 35.09375 61.109375 38 64.0625 
C 38 64.953125 38 65.5 37.40625 65.5 
C 37.296875 65.5 37.09375 65.5 36.296875 65.046875 
C 32.796875 63.40625 28.703125 62.078125 23.703125 62.078125 
C 20.703125 62.078125 16.203125 62.484375 11.296875 64.671875 
C 10.203125 65.171875 10 65.171875 9.90625 65.171875 
C 9.40625 65.171875 9.296875 65.0625 9.296875 63.078125 
L 9.296875 34.421875 
C 9.296875 32.640625 9.296875 32.140625 10.296875 32.140625 
C 10.796875 32.140625 11 32.34375 11.5 33.03125 
C 14.703125 37.515625 19.09375 39.40625 24.09375 39.40625 
C 27.59375 39.40625 35.09375 37.21875 35.09375 20.140625 
C 35.09375 16.953125 35.09375 11.171875 32.09375 6.578125 
C 29.59375 2.484375 25.703125 0.390625 21.40625 0.390625 
C 14.796875 0.390625 8.09375 5 6.296875 12.71875 
C 6.703125 12.609375 7.5 12.421875 7.90625 12.421875 
C 9.203125 12.421875 11.703125 13.125 11.703125 16.21875 
C 11.703125 18.90625 9.796875 20 7.90625 20 
C 5.59375 20 4.09375 18.59375 4.09375 15.796875 
C 4.09375 7.09375 11 -2 21.59375 -2 
C 31.90625 -2 41.703125 6.875 41.703125 19.75 
C 41.703125 31.71875 33.90625 41 24.203125 41 
C 19.09375 41 14.796875 39.109375 11.40625 35.53125 
z
" id="CMR17-53"/>
      </defs>
      <g transform="translate(293.019293 122.663863)scale(0.1 -0.1)">
       <use transform="scale(0.996264)" xlink:href="#CMR17-48"/>
       <use transform="translate(45.690477 0)scale(0.996264)" xlink:href="#CMMI12-58"/>
       <use transform="translate(72.787654 0)scale(0.996264)" xlink:href="#CMR17-48"/>
       <use transform="translate(118.478131 0)scale(0.996264)" xlink:href="#CMR17-53"/>
      </g>
     </g>
    </g>
   </g>
   <g id="matplotlib.axis_2">
    <g id="ytick_1">
     <g id="line2d_7">
      <defs>
       <path d="M 0 0 
L -3.5 0 
" id="m2ecf9d1da1" style="stroke:#000000;stroke-width:0.8;"/>
      </defs>
      <g>
       <use style="stroke:#000000;stroke-width:0.8;" x="17.25" xlink:href="#m2ecf9d1da1" y="100.749382"/>
      </g>
     </g>
     <g id="text_7">
      <!-- $-1$ -->
      <defs>
       <path d="M 65.90625 23 
C 67.59375 23 69.40625 23 69.40625 25 
C 69.40625 27 67.59375 27 65.90625 27 
L 11.796875 27 
C 10.09375 27 8.296875 27 8.296875 25 
C 8.296875 23 10.09375 23 11.796875 23 
z
" id="CMSY10-0"/>
      </defs>
      <g transform="translate(-2.480079 104.208631)scale(0.1 -0.1)">
       <use transform="scale(0.996264)" xlink:href="#CMSY10-0"/>
       <use transform="translate(77.487468 0)scale(0.996264)" xlink:href="#CMR17-49"/>
      </g>
     </g>
    </g>
    <g id="ytick_2">
     <g id="line2d_8">
      <g>
       <use style="stroke:#000000;stroke-width:0.8;" x="17.25" xlink:href="#m2ecf9d1da1" y="60.769468"/>
      </g>
     </g>
     <g id="text_8">
      <!-- $0$ -->
      <g transform="translate(5.268665 64.228718)scale(0.1 -0.1)">
       <use transform="scale(0.996264)" xlink:href="#CMR17-48"/>
      </g>
     </g>
    </g>
    <g id="ytick_3">
     <g id="line2d_9">
      <g>
       <use style="stroke:#000000;stroke-width:0.8;" x="17.25" xlink:href="#m2ecf9d1da1" y="20.789555"/>
      </g>
     </g>
     <g id="text_9">
      <!-- $1$ -->
      <g transform="translate(5.268665 24.248804)scale(0.1 -0.1)">
       <use transform="scale(0.996264)" xlink:href="#CMR17-49"/>
      </g>
     </g>
    </g>
   </g>
   <g id="line2d_10">
    <defs>
     <path d="M 0 1.5 
C 0.397805 1.5 0.77937 1.341951 1.06066 1.06066 
C 1.341951 0.77937 1.5 0.397805 1.5 0 
C 1.5 -0.397805 1.341951 -0.77937 1.06066 -1.06066 
C 0.77937 -1.341951 0.397805 -1.5 0 -1.5 
C -0.397805 -1.5 -0.77937 -1.341951 -1.06066 -1.06066 
C -1.341951 -0.77937 -1.5 -0.397805 -1.5 0 
C -1.5 0.397805 -1.341951 0.77937 -1.06066 1.06066 
C -0.77937 1.341951 -0.397805 1.5 0 1.5 
z
" id="m6979f506b3" style="stroke:#000000;"/>
    </defs>
    <g clip-path="url(#p072f4157e2)">
     <use style="stroke:#000000;" x="43.125" xlink:href="#m6979f506b3" y="60.769468"/>
    </g>
   </g>
   <g id="line2d_11">
    <g clip-path="url(#p072f4157e2)">
     <use style="stroke:#000000;" x="3337.632322" xlink:href="#m6979f506b3" y="20.789555"/>
     <use style="stroke:#000000;" x="1141.294107" xlink:href="#m6979f506b3" y="100.749382"/>
     <use style="stroke:#000000;" x="702.026464" xlink:href="#m6979f506b3" y="20.789555"/>
     <use style="stroke:#000000;" x="513.768903" xlink:href="#m6979f506b3" y="100.749382"/>
     <use style="stroke:#000000;" x="409.181369" xlink:href="#m6979f506b3" y="20.789555"/>
     <use style="stroke:#000000;" x="342.625666" xlink:href="#m6979f506b3" y="100.749382"/>
     <use style="stroke:#000000;" x="296.54864" xlink:href="#m6979f506b3" y="20.789555"/>
     <use style="stroke:#000000;" x="262.758821" xlink:href="#m6979f506b3" y="100.749382"/>
     <use style="stroke:#000000;" x="236.919548" xlink:href="#m6979f506b3" y="20.789555"/>
     <use style="stroke:#000000;" x="216.520122" xlink:href="#m6979f506b3" y="100.749382"/>
    </g>
   </g>
   <g id="line2d_12">
    <path clip-path="url(#p072f4157e2)" style="fill:none;stroke:#808080;stroke-dasharray:7.5,1.5;stroke-dashoffset:0;stroke-width:1.5;"/>
   </g>
   <g id="line2d_13">
    <path clip-path="url(#p072f4157e2)" style="fill:none;stroke:#808080;stroke-dasharray:7.5,1.5;stroke-dashoffset:0;stroke-width:1.5;"/>
   </g>
   <g id="line2d_14">
    <path clip-path="url(#p072f4157e2)" style="fill:none;stroke:#808080;stroke-dasharray:7.5,1.5;stroke-dashoffset:0;stroke-width:1.5;"/>
   </g>
   <g id="line2d_15">
    <path clip-path="url(#p072f4157e2)" style="fill:none;stroke:#808080;stroke-dasharray:7.5,1.5;stroke-dashoffset:0;stroke-width:1.5;"/>
   </g>
   <g id="line2d_16">
    <path clip-path="url(#p072f4157e2)" d="M 346 96.695467 
L 342.625666 100.749382 
" style="fill:none;stroke:#808080;stroke-dasharray:7.5,1.5;stroke-dashoffset:0;stroke-width:1.5;"/>
   </g>
   <g id="line2d_17">
    <path clip-path="url(#p072f4157e2)" d="M 342.625666 100.749382 
L 296.54864 20.789555 
" style="fill:none;stroke:#808080;stroke-dasharray:7.5,1.5;stroke-dashoffset:0;stroke-width:1.5;"/>
   </g>
   <g id="line2d_18">
    <path clip-path="url(#p072f4157e2)" d="M 296.54864 20.789555 
L 262.758821 100.749382 
" style="fill:none;stroke:#808080;stroke-dasharray:7.5,1.5;stroke-dashoffset:0;stroke-width:1.5;"/>
   </g>
   <g id="line2d_19">
    <path clip-path="url(#p072f4157e2)" d="M 262.758821 100.749382 
L 236.919548 20.789555 
" style="fill:none;stroke:#808080;stroke-dasharray:7.5,1.5;stroke-dashoffset:0;stroke-width:1.5;"/>
   </g>
   <g id="line2d_20">
    <path clip-path="url(#p072f4157e2)" d="M 236.919548 20.789555 
L 216.520122 100.749382 
" style="fill:none;stroke:#808080;stroke-dasharray:7.5,1.5;stroke-dashoffset:0;stroke-width:1.5;"/>
   </g>
   <g id="line2d_21">
    <path clip-path="url(#p072f4157e2)" d="M 346 100.010443 
L 344.698427 100.467778 
L 343.299014 100.719355 
L 342.085139 100.729874 
L 340.881041 100.544667 
L 339.516753 100.094546 
L 338.164909 99.392878 
L 336.825341 98.444151 
L 335.332792 97.089139 
L 333.855337 95.440137 
L 332.231145 93.279419 
L 330.465366 90.528383 
L 328.5635 87.11826 
L 326.531353 82.997979 
L 324.22223 77.782427 
L 321.500471 71.030368 
L 317.952403 61.551263 
L 310.428719 41.236691 
L 307.966351 35.307077 
L 305.948768 30.986854 
L 304.224899 27.780576 
L 302.653586 25.313994 
L 301.229738 23.500197 
L 299.948821 22.24175 
L 298.806818 21.438006 
L 297.800197 20.990696 
L 296.801471 20.797835 
L 295.933989 20.838818 
L 294.949818 21.125087 
L 293.973279 21.664944 
L 293.004285 22.454937 
L 291.923077 23.636315 
L 290.732656 25.300987 
L 289.43628 27.540699 
L 288.037447 30.441048 
L 286.539864 34.073877 
L 284.834482 38.821123 
L 282.930375 44.790998 
L 280.510321 53.173818 
L 276.548545 67.881873 
L 273.125 80.246663 
L 271.098568 86.794885 
L 269.403968 91.554264 
L 268.027216 94.812618 
L 266.763721 97.24291 
L 265.705645 98.81989 
L 264.752409 99.854777 
L 263.901451 100.452488 
L 263.15051 100.714217 
L 262.404661 100.720436 
L 261.663851 100.471105 
L 260.92803 99.967819 
L 260.106132 99.102138 
L 259.200157 97.776745 
L 258.212282 95.892356 
L 257.144851 93.353377 
L 255.912829 89.801863 
L 254.522059 85.051924 
L 252.89395 78.616611 
L 250.956325 69.990664 
L 247.751335 54.508158 
L 244.80076 40.652924 
L 243.08636 33.597901 
L 241.7052 28.786412 
L 240.568724 25.560659 
L 239.594248 23.402451 
L 238.777174 22.067667 
L 238.040254 21.259869 
L 237.381757 20.870228 
L 236.80015 20.794972 
L 236.294093 20.938902 
L 235.718971 21.342194 
L 235.076039 22.097163 
L 234.366685 23.302806 
L 233.592427 25.060816 
L 232.68544 27.692971 
L 231.64959 31.420389 
L 230.421417 36.754893 
L 229.008621 43.945672 
L 227.157717 54.623679 
L 221.943245 85.46039 
L 220.594136 91.727381 
L 219.505368 95.756349 
L 218.608215 98.254684 
L 217.897036 99.649295 
L 217.308777 100.384917 
L 216.782718 100.708675 
L 216.317771 100.725079 
L 215.855307 100.485903 
L 215.337978 99.913301 
L 214.766791 98.90575 
L 214.086348 97.194864 
L 213.299285 94.538835 
L 212.408611 90.697862 
L 211.362971 85.152969 
L 210.060484 76.922859 
L 208.302147 64.200578 
L 204.692281 37.732982 
L 203.440985 30.364986 
L 202.453818 25.813445 
L 201.672794 23.168704 
L 201.043828 21.72479 
L 200.515511 21.01702 
L 200.085874 20.795145 
L 199.753329 20.846282 
L 199.375 21.144107 
L 198.951558 21.781975 
L 198.437125 22.989436 
L 197.83352 25.003725 
L 197.097032 28.30698 
L 196.231509 33.298425 
L 195.196701 40.643927 
L 193.823893 52.141486 
L 189.684048 88.093814 
L 188.69462 94.248032 
L 187.920747 97.772804 
L 187.315582 99.61943 
L 186.835081 100.469878 
L 186.476801 100.733356 
L 186.159826 100.695995 
L 185.84425 100.403241 
L 185.451733 99.681158 
L 184.983553 98.302362 
L 184.402641 95.822806 
L 183.711797 91.814368 
L 182.876553 85.568592 
L 181.827761 75.93652 
L 180.211093 58.735842 
L 178.171973 37.510843 
L 177.157634 29.183397 
L 176.398242 24.596012 
L 175.783293 22.132337 
L 175.34268 21.126434 
L 175.005734 20.807435 
L 174.737411 20.839703 
L 174.470178 21.127386 
L 174.137658 21.843207 
L 173.707892 23.353688 
L 173.182803 26.075957 
L 172.532352 30.714761 
L 171.72838 38.171871 
L 170.650875 50.464194 
L 167.315065 90.252885 
L 166.544986 96.203701 
L 165.959085 99.175756 
L 165.523297 100.404204 
L 165.205679 100.740141 
L 164.975718 100.680993 
L 164.718045 100.309373 
L 164.376172 99.316907 
L 163.951523 97.299111 
L 163.417887 93.573262 
L 162.75052 87.200587 
L 161.872132 76.422929 
L 160.418744 55.281503 
L 158.974563 35.391665 
L 158.176134 27.177241 
L 157.590826 23.119643 
L 157.136897 21.3201 
L 156.836272 20.826672 
L 156.636735 20.81678 
L 156.437897 21.062449 
L 156.165629 21.814361 
L 155.796457 23.59584 
L 155.332285 27.043761 
L 154.727329 33.404028 
L 153.938704 44.325366 
L 152.60247 66.59018 
L 151.298077 87.014495 
L 150.579319 95.16933 
L 150.046488 99.025982 
L 149.672251 100.439008 
L 149.409658 100.748943 
L 149.257075 100.664137 
L 149.039859 100.204326 
L 148.737245 98.900417 
L 148.350702 96.132844 
L 147.83969 90.686088 
L 147.166013 80.82461 
L 146.15108 62.187756 
L 144.595588 33.973764 
L 143.923598 25.612711 
L 143.454585 22.095301 
L 143.125 20.938269 
L 142.932136 20.793318 
L 142.77838 20.965012 
L 142.567736 21.61632 
L 142.262931 23.405063 
L 141.846862 27.409527 
L 141.303714 35.103249 
L 140.545934 49.449226 
L 138.376242 92.648259 
L 137.853171 98.354604 
L 137.490427 100.370004 
L 137.267259 100.748143 
L 137.147529 100.672246 
L 136.977013 100.225083 
L 136.722396 98.817636 
L 136.368243 95.422441 
L 135.900188 88.562633 
L 135.239632 75.177151 
L 132.984351 26.26369 
L 132.549572 22.027138 
L 132.256932 20.860218 
L 132.118981 20.808193 
L 132.10368 20.822397 
L 131.966202 21.129693 
L 131.75319 22.243712 
L 131.43558 25.317387 
L 131.0007 32.082381 
L 130.393128 45.559939 
L 128.28215 96.025157 
L 127.877702 99.94403 
L 127.628592 100.740519 
L 127.518346 100.679951 
L 127.367227 100.180188 
L 127.13474 98.474787 
L 126.79517 94.013892 
L 126.337735 84.704673 
L 125.621413 64.834508 
L 124.377944 30.519377 
L 123.90864 23.113675 
L 123.5946 20.961024 
L 123.469667 20.790635 
L 123.432263 20.817439 
L 123.307832 21.166077 
L 123.109544 22.54403 
L 122.813944 26.424011 
L 122.398897 35.214672 
L 121.760466 54.263978 
L 120.502392 92.249023 
L 120.076673 99.031135 
L 119.803026 100.690582 
L 119.723579 100.744418 
L 119.678254 100.68725 
L 119.553888 100.2014 
L 119.340022 98.24595 
L 119.027024 92.938181 
L 118.573316 80.809249 
L 117.692723 49.53029 
L 116.990258 28.36677 
L 116.59178 21.99157 
L 116.352678 20.794567 
L 116.269876 20.871829 
L 116.135722 21.540815 
L 115.920049 24.010698 
L 115.603992 30.559038 
L 115.130009 45.694232 
L 113.638694 96.985051 
L 113.33257 100.474053 
L 113.218458 100.74925 
L 113.180503 100.713157 
L 113.076338 100.28495 
L 112.887739 98.290116 
L 112.60674 92.534479 
L 112.180244 78.454813 
L 110.648486 22.9341 
L 110.393946 20.819987 
L 110.350253 20.791965 
L 110.306618 20.863866 
L 110.193429 21.516442 
L 109.994105 24.280245 
L 109.693047 32.09475 
L 109.216954 51.27327 
L 108.153902 95.252031 
L 107.836767 100.354793 
L 107.723677 100.749374 
L 107.683383 100.700634 
L 107.578855 100.107832 
L 107.394747 97.445636 
L 107.10868 89.488521 
L 106.653112 69.549235 
L 105.677883 26.118026 
L 105.376895 21.087716 
L 105.279696 20.79077 
L 105.234938 20.881396 
L 105.123323 21.734027 
L 104.930804 25.26686 
L 104.629635 35.537178 
L 104.093426 63.047024 
L 103.41158 94.773713 
L 103.11109 100.443408 
L 103.020833 100.748613 
L 102.972346 100.633361 
L 102.861812 99.63929 
L 102.662506 95.340933 
L 102.349079 82.832828 
L 101.59297 40.02929 
L 101.160214 23.428859 
L 100.933311 20.79429 
L 100.907492 20.801661 
L 100.881696 20.872971 
L 100.778743 21.793803 
L 100.593073 25.967551 
L 100.294686 38.653037 
L 99.016565 100.598231 
L 98.96229 100.7492 
L 98.90812 100.576551 
L 98.794105 99.158876 
L 98.591238 93.238033 
L 98.260308 75.887226 
L 97.307808 22.677925 
L 97.132514 20.789596 
L 97.109978 20.823852 
L 97.03125 21.445716 
L 96.874481 24.970679 
L 96.613372 36.913781 
L 96.028292 77.458736 
L 95.609787 98.184168 
L 95.418856 100.749381 
L 95.403008 100.731594 
L 95.334443 100.239803 
L 95.192612 97.11265 
L 94.952742 85.938544 
L 94.449011 48.991456 
L 94.004953 23.818512 
L 93.810602 20.789617 
L 93.795714 20.805494 
L 93.731298 21.28905 
L 93.598032 24.399799 
L 93.362841 36.176412 
L 92.822494 78.426795 
L 92.438894 98.923898 
L 92.298318 100.749157 
L 92.260967 100.632006 
L 92.167835 99.229222 
L 91.991856 92.435324 
L 91.680076 70.045467 
L 91.019493 23.011324 
L 90.869257 20.790065 
L 90.838443 20.902106 
L 90.750621 22.292373 
L 90.580296 29.309922 
L 90.269028 53.386111 
L 89.666955 98.506635 
L 89.525072 100.749143 
L 89.491813 100.610219 
L 89.400597 98.922621 
L 89.223343 90.469029 
L 88.885014 61.06274 
L 88.39267 23.187884 
L 88.254502 20.789625 
L 88.219109 20.958147 
L 88.125 22.971046 
L 87.945717 32.682898 
L 87.572307 68.362106 
L 87.163805 98.966992 
L 87.051662 100.74938 
L 87.006964 100.460552 
L 86.903022 97.589117 
L 86.707617 84.661989 
L 85.911275 20.78959 
L 85.872398 21.025443 
L 85.777271 23.622036 
L 85.591765 36.190412 
L 84.828602 100.749213 
L 84.778252 100.317668 
L 84.671243 96.466827 
L 84.46547 79.36266 
L 83.812161 20.829138 
L 83.796173 20.790159 
L 83.757852 21.103976 
L 83.65919 24.521269 
L 83.466441 40.72068 
L 82.816671 100.749077 
L 82.813626 100.745517 
L 82.777134 100.391487 
L 82.680148 96.701086 
L 82.484598 78.764932 
L 81.889045 20.795809 
L 81.883238 20.789662 
L 81.857131 20.959779 
L 81.776132 23.52863 
L 81.60942 37.589085 
L 80.992701 100.749372 
L 80.951182 100.296141 
L 80.851908 95.647665 
L 80.649472 73.348725 
L 80.163362 20.920227 
L 80.142167 20.78957 
L 80.097208 21.359984 
L 79.994478 26.877754 
L 79.777737 53.546227 
L 79.359421 100.44995 
L 79.329002 100.74926 
L 79.278416 99.971911 
L 79.170135 93.132318 
L 78.933193 60.500088 
L 78.579919 21.096816 
L 78.550794 20.789884 
L 78.49994 21.634376 
L 78.391458 29.086427 
L 78.14327 65.759716 
L 77.823941 100.602823 
L 77.803014 100.749004 
L 77.758918 99.996705 
L 77.654926 92.73305 
L 77.416962 56.239394 
L 77.103989 20.87991 
L 77.088379 20.789707 
L 77.048304 21.455361 
L 76.948529 28.529643 
L 76.717989 65.236273 
L 76.413306 100.701716 
L 76.402603 100.749355 
L 76.368399 100.231291 
L 76.276826 93.964499 
L 76.065802 59.955241 
L 75.750142 20.808063 
L 75.743973 20.789559 
L 75.715213 21.178329 
L 75.633323 26.469534 
L 75.44451 56.729396 
L 75.110908 100.7493 
L 75.095099 100.627892 
L 75.03399 97.777906 
L 74.889056 77.900356 
L 74.501948 20.789816 
L 74.473437 21.217151 
L 74.391993 27.248793 
L 74.194885 62.990782 
L 73.91391 100.748923 
L 73.908416 100.725185 
L 73.868183 99.45865 
L 73.760804 87.311576 
L 73.349273 20.78976 
L 73.271802 24.65226 
L 73.119784 50.584323 
L 72.804972 100.74933 
L 72.78626 100.50064 
L 72.718412 95.630295 
L 72.550144 63.134442 
L 72.27993 20.789555 
L 72.263514 20.989348 
L 72.201301 25.307766 
L 72.043692 55.952376 
L 71.77314 100.749332 
L 71.752538 100.420154 
L 71.683027 94.46259 
L 71.499822 54.099132 
L 71.283668 20.789756 
L 71.259174 21.280213 
L 71.182905 29.108096 
L 70.943094 85.785052 
L 70.810641 100.748928 
L 70.767754 99.133992 
L 70.663314 82.530695 
L 70.351811 20.789821 
L 70.297486 23.695828 
L 70.17251 48.68174 
L 69.909328 100.749298 
L 69.874716 99.486127 
L 69.781021 84.605011 
L 69.480997 20.789559 
L 69.41806 25.132963 
L 69.27457 59.956446 
L 69.06615 100.749356 
L 69.033681 99.51769 
L 68.9432 84.061955 
L 68.66416 20.789704 
L 68.60255 25.442714 
L 68.457876 63.824053 
L 68.274439 100.749009 
L 68.237826 99.014408 
L 68.139501 78.701488 
L 67.895247 20.789889 
L 67.84555 24.331209 
L 67.721008 57.307241 
L 67.528471 100.749257 
L 67.489407 98.427324 
L 67.384329 72.90096 
L 67.172398 20.789571 
L 67.127783 23.959607 
L 67.011453 55.987628 
L 66.826566 100.749372 
L 66.785388 97.907615 
L 66.674488 67.197631 
L 66.490541 20.789659 
L 66.447367 24.066785 
L 66.331278 58.648395 
L 66.16391 100.749082 
L 66.11989 97.174146 
L 66.000961 59.756928 
L 65.845288 20.789966 
L 65.801482 24.675133 
L 65.678933 65.306838 
L 65.536329 100.749209 
L 65.491772 96.541234 
L 65.36489 52.351459 
L 65.23566 20.789591 
L 65.189467 25.51926 
L 65.052966 75.619291 
L 64.942952 100.749381 
L 64.893393 95.065629 
L 64.729809 32.967955 
L 64.657892 20.789623 
L 64.603376 27.957971 
L 64.380185 100.749147 
L 64.288913 80.781172 
L 64.1087 20.79005 
L 64.051001 29.807672 
L 63.844891 100.749153 
L 63.763909 82.926693 
L 63.587633 20.789619 
L 63.527129 31.565476 
L 63.336686 100.749381 
L 63.262754 84.342726 
L 63.091818 20.789594 
L 63.028846 33.453604 
L 62.852813 100.749204 
L 62.783866 85.084995 
L 62.619462 20.789974 
L 62.555781 34.849699 
L 62.39085 100.749089 
L 62.325801 85.185959 
L 62.168238 20.789655 
L 62.105378 35.987627 
L 61.950712 100.749374 
L 61.887236 84.650213 
L 61.738099 20.789573 
L 61.676047 36.837687 
L 61.530235 100.749253 
L 61.468258 84.107716 
L 61.326963 20.789897 
L 61.265709 37.704954 
L 61.127505 100.749017 
L 61.066962 83.228997 
L 60.932983 20.789699 
L 60.873131 38.588805 
L 60.742621 100.749358 
L 60.682848 82.33413 
L 60.556285 20.78956 
L 60.497184 39.488602 
L 60.37385 100.749294 
L 60.314836 81.423759 
L 60.195194 20.789827 
L 60.136275 40.748752 
L 60.019649 100.748937 
L 59.961934 80.498537 
L 59.848219 20.78975 
L 59.790593 41.683783 
L 59.680232 100.749335 
L 59.622705 79.205303 
L 59.515587 20.789555 
L 59.458165 42.989731 
L 59.354184 100.749327 
L 59.29738 78.247524 
L 59.195929 20.789766 
L 59.138739 44.319772 
L 59.040731 100.748914 
L 58.984152 76.912232 
L 58.888022 20.789809 
L 58.832045 45.302669 
L 58.738686 100.749304 
L 58.682827 75.555063 
L 58.592153 20.789558 
L 58.535959 47.044899 
L 58.448345 100.749353 
L 58.392288 73.800549 
L 58.307186 20.789712 
L 58.251271 48.436292 
L 58.168605 100.748996 
L 58.112836 72.400563 
L 58.032101 20.789877 
L 57.976911 49.844397 
L 57.898473 100.749265 
L 57.843011 70.597782 
L 57.767221 20.789569 
L 57.711915 51.65612 
L 57.638279 100.74937 
L 57.583134 69.164764 
L 57.511589 20.789666 
L 57.45621 53.487812 
L 57.387092 100.74907 
L 57.331885 67.326317 
L 57.264344 20.789952 
L 57.209315 55.33546 
L 57.144071 100.749218 
L 57.088842 65.076252 
L 57.025827 20.789587 
L 56.970783 57.195015 
L 56.909561 100.74938 
L 56.85434 63.211457 
L 56.795224 20.789628 
L 56.739838 59.461915 
L 56.682768 100.749136 
L 56.627583 61.341311 
L 56.571797 20.790035 
L 56.516817 61.333311 
L 56.462973 100.749163 
L 56.407854 59.070396 
L 56.355895 20.789614 
L 56.30065 63.6024 
L 56.250523 100.749382 
L 56.195492 57.202984 
L 56.146816 20.789598 
L 56.091675 65.465557 
L 56.044735 100.749194 
L 55.989494 54.947565 
L 55.944242 20.789988 
L 55.888911 67.712489 
L 55.844988 100.749101 
L 55.789888 52.710934 
L 55.747567 20.789648 
L 55.692696 69.547417 
L 55.651627 100.749376 
L 55.596683 50.8872 
L 55.557134 20.789576 
L 55.502126 71.748083 
L 55.464056 100.749245 
L 55.408992 48.703367 
L 55.372361 20.78991 
L 55.317249 73.913321 
L 55.281734 100.74903 
L 55.227149 46.932866 
L 55.192719 20.78969 
L 55.138093 75.665883 
L 55.104999 100.749362 
L 55.050337 44.825263 
L 55.018544 20.789562 
L 54.964125 77.385803 
L 54.933329 100.749287 
L 54.878884 43.126991 
L 54.849325 20.789839 
L 54.794861 79.423852 
L 54.766247 100.748952 
L 54.712291 41.467378 
L 54.684596 20.789741 
L 54.630625 81.058229 
L 54.604083 100.74934 
L 54.550354 39.85006 
L 54.524683 20.789555 
L 54.471196 82.312438 
L 54.446374 100.749322 
L 54.392882 38.27858 
L 54.369133 20.789776 
L 54.315883 83.864945 
L 54.29294 100.748899 
L 54.239929 37.077229 
L 54.217534 20.789799 
L 54.164764 85.366844 
L 54.143375 100.74931 
L 54.091074 35.907985 
L 54.0702 20.789557 
L 54.017902 86.510228 
L 53.997991 100.749349 
L 53.946153 34.772433 
L 53.926728 20.789721 
L 53.874896 87.618729 
L 53.856394 100.748982 
L 53.805012 33.672111 
L 53.78675 20.789865 
L 53.735596 88.690845 
L 53.71822 100.749272 
L 53.667506 32.60851 
L 53.650566 20.789566 
L 53.59986 89.725122 
L 53.583771 100.749368 
L 53.533705 31.857757 
L 53.517818 20.789674 
L 53.467553 90.72016 
L 53.452692 100.749058 
L 53.403258 31.127791 
L 53.388174 20.789938 
L 53.338547 91.674609 
L 53.324657 100.749227 
L 53.276239 30.680891 
L 53.261922 20.789583 
L 53.212523 92.827662 
L 53.199954 100.749379 
L 53.152904 31.030616 
L 53.138739 20.789634 
L 53.088611 94.986694 
L 53.078263 100.749125 
L 53.034427 34.238837 
L 53.018324 20.79002 
L 52.964713 99.116708 
L 52.95929 100.749173 
L 52.927622 55.490224 
L 52.900956 20.789609 
L 52.84331 100.749382 
L 52.836562 98.043181 
L 52.78634 20.789603 
L 52.730034 100.749185 
L 52.728786 100.660055 
L 52.710996 80.074823 
L 52.67438 20.790003 
L 52.619193 100.749112 
L 52.571361 23.610743 
L 52.564813 20.789642 
L 52.528791 81.024978 
L 52.511052 100.749377 
L 52.457901 20.789579 
L 52.408177 100.154683 
L 52.405347 100.749237 
L 52.381609 66.486613 
L 52.353382 20.789923 
L 52.301834 100.749043 
L 52.251501 20.804643 
L 52.251018 20.789683 
L 52.242497 26.32568 
L 52.200763 100.749365 
L 52.151058 20.789564 
L 52.086815 83.444304 
L 51.957415 20.789731 
L 52.005004 100.748966 
L 51.949131 26.747828 
L 51.817658 100.749317 
L 51.863749 20.789556 
L 51.80148 78.611708 
L 51.682114 20.789788 
L 51.726918 100.748884 
L 51.671515 31.609824 
L 51.550869 100.749345 
L 51.594167 20.789556 
L 51.535942 79.307918 
L 51.50801 20.78973 
L 51.465586 100.748968 
L 51.409905 39.976939 
L 51.299968 100.749365 
L 51.34072 20.789564 
L 51.284886 76.401548 
L 51.259618 20.789681 
L 51.219665 100.749045 
L 51.16421 48.706814 
L 51.063578 100.749377 
L 51.102002 20.78958 
L 51.046808 68.369962 
L 51.025522 20.789641 
L 50.98783 100.749114 
L 50.932667 58.130719 
L 50.840474 100.749382 
L 50.876764 20.789604 
L 50.821655 58.006177 
L 50.804523 20.789608 
L 50.768905 100.749175 
L 50.713755 68.884351 
L 50.629568 100.749379 
L 50.663896 20.789635 
L 50.608839 47.45115 
L 50.595551 20.789583 
L 50.561841 100.749228 
L 50.50689 78.691593 
L 50.429885 100.749367 
L 50.462407 20.789675 
L 50.407681 38.5242 
L 50.397651 20.789566 
L 50.365699 100.749274 
L 50.311402 86.072421 
L 50.240554 100.749348 
L 50.271408 20.789722 
L 50.217636 32.638086 
L 50.209965 20.789557 
L 50.179638 100.749311 
L 50.126569 90.692557 
L 50.060789 100.749321 
L 50.0901 20.789778 
L 50.037719 28.938427 
L 50.031723 20.789555 
L 50.002899 100.74934 
L 49.951456 93.432629 
L 49.889883 100.749286 
L 49.917765 20.789841 
L 49.86688 26.262473 
L 49.862229 20.789562 
L 49.8348 100.749362 
L 49.785575 94.119258 
L 49.727197 100.749243 
L 49.753751 20.789912 
L 49.70286 21.925595 
L 49.700854 20.789577 
L 49.674721 100.749376 
L 49.63427 68.596966 
L 49.522102 100.749382 
L 49.54703 20.789599 
L 49.517756 94.855588 
L 49.400237 20.789629 
L 49.472824 100.749165 
L 49.390209 50.92214 
L 49.376435 100.74938 
L 49.352812 20.789587 
L 49.274294 75.852116 
L 49.214668 20.789568 
L 49.237253 100.74937 
L 49.159563 56.985269 
L 49.104134 100.749352 
L 49.08252 20.789558 
L 49.049103 53.327203 
L 48.955986 20.789555 
L 48.976689 100.749326 
L 48.942548 79.205788 
L 48.935428 100.749336 
L 48.915015 20.789748 
L 48.839948 33.772673 
L 48.834715 20.78956 
L 48.815002 100.749359 
L 48.741453 92.415844 
L 48.699466 100.749374 
L 48.718385 20.789574 
L 48.646767 27.011606 
L 48.606701 20.789595 
L 48.588529 100.749381 
L 48.555049 96.883762 
L 48.481921 100.749381 
L 48.49939 20.789624 
L 48.467597 26.713511 
L 48.362695 20.789571 
L 48.379394 100.749372 
L 48.358352 33.468332 
L 48.280718 100.749356 
L 48.264639 20.789559 
L 48.241366 66.064574 
L 48.170187 20.789555 
L 48.185679 100.749331 
L 48.130755 69.72887 
L 48.064297 100.749356 
L 48.079144 20.789559 
L 48.02413 33.963355 
L 47.991329 20.789571 
L 47.977002 100.749372 
L 47.922753 95.718628 
L 47.89274 100.749381 
L 47.906572 20.78959 
L 47.827323 27.959412 
L 47.719854 20.789574 
L 47.811354 100.749381 
L 47.716837 31.219523 
L 47.656643 100.749359 
L 47.644216 20.78956 
L 47.601256 61.013205 
L 47.500174 20.789558 
L 47.583056 100.749336 
L 47.492273 82.329422 
L 47.420319 100.74937 
L 47.431543 20.789568 
L 47.387803 21.893654 
L 47.365031 20.789586 
L 47.35415 100.74938 
L 47.294621 68.355434 
L 47.28999 100.749382 
L 47.217559 20.789577 
L 47.183219 72.455076 
L 47.099074 20.789555 
L 47.167337 100.749362 
L 47.073242 85.466595 
L 46.978227 100.749367 
L 47.042368 20.789557 
L 46.968012 24.388339 
L 46.873017 100.749382 
L 46.933676 20.789583 
L 46.851507 56.140321 
L 46.765341 20.789564 
L 46.822538 100.749377 
L 46.74292 93.413531 
L 46.663679 100.749344 
L 46.717702 20.789556 
L 46.631953 92.298078 
L 46.626069 20.789564 
L 46.531936 100.749382 
L 46.520046 83.592733 
L 46.490175 100.749379 
L 46.442733 20.789566 
L 46.408317 92.806499 
L 46.364437 20.789555 
L 46.32045 100.749361 
L 46.297161 91.922427 
L 46.212635 100.74938 
L 46.28975 20.789576 
L 46.187438 74.360035 
L 46.106454 20.789555 
L 46.178295 100.74937 
L 46.073869 22.953298 
L 45.977387 100.749381 
L 46.043074 20.789573 
L 45.962949 21.543673 
L 45.886532 20.789555 
L 45.948056 100.749373 
L 45.864922 84.735473 
L 45.775448 100.749381 
L 45.85903 20.789559 
L 45.75575 42.201315 
L 45.696825 20.789555 
L 45.750105 100.749375 
L 45.646512 91.583471 
L 45.600212 100.749382 
L 45.552788 20.789563 
L 45.538803 21.727054 
L 45.510595 20.789556 
L 45.446711 100.749382 
L 45.434928 75.392103 
L 45.328684 100.749377 
L 45.386158 20.789556 
L 45.325021 32.009046 
L 45.311136 100.749382 
L 45.240933 20.789555 
L 45.214263 21.553535 
L 45.12774 20.789555 
L 45.190522 100.749382 
L 45.111275 94.404711 
L 45.068662 100.749381 
L 45.026043 20.789555 
L 45.001217 65.092815 
L 44.934175 20.789555 
L 44.972733 100.749382 
L 44.890302 76.487543 
L 44.806729 100.749382 
L 44.850777 20.789556 
L 44.779137 80.156923 
L 44.696057 20.789555 
L 44.734432 100.749382 
L 44.668288 97.272114 
L 44.599052 100.749381 
L 44.632784 20.789555 
L 44.55934 21.502715 
L 44.463686 20.789556 
L 44.543212 100.749382 
L 44.452056 91.925036 
L 44.356592 100.749381 
L 44.41747 20.789556 
L 44.341511 50.74094 
L 44.296172 20.789555 
L 44.275719 100.749382 
L 44.230179 20.827986 
L 44.134037 20.789555 
L 44.209076 100.749382 
L 44.131009 99.322511 
L 44.02342 100.749382 
L 44.107555 20.789555 
L 44.021112 34.931151 
L 43.915239 20.789555 
L 43.942293 100.749382 
L 43.910337 100.71834 
L 43.799413 20.789555 
L 43.908101 100.749382 
L 43.799157 99.681484 
L 43.707995 100.749382 
L 43.787479 20.789555 
L 43.688695 33.334841 
L 43.645542 20.789555 
L 43.664818 100.749382 
L 43.642501 72.60663 
" style="fill:none;stroke:#000000;stroke-linecap:square;stroke-width:1.5;"/>
   </g>
   <g id="patch_3">
    <path d="M 17.25 108.745365 
L 17.25 12.793572 
" style="fill:none;stroke:#000000;stroke-linecap:square;stroke-linejoin:miter;stroke-width:0.8;"/>
   </g>
   <g id="patch_4">
    <path d="M 327.75 108.745365 
L 327.75 12.793572 
" style="fill:none;stroke:#000000;stroke-linecap:square;stroke-linejoin:miter;stroke-width:0.8;"/>
   </g>
   <g id="patch_5">
    <path d="M 17.25 108.745365 
L 327.75 108.745365 
" style="fill:none;stroke:#000000;stroke-linecap:square;stroke-linejoin:miter;stroke-width:0.8;"/>
   </g>
   <g id="patch_6">
    <path d="M 17.25 12.793572 
L 327.75 12.793572 
" style="fill:none;stroke:#000000;stroke-linecap:square;stroke-linejoin:miter;stroke-width:0.8;"/>
   </g>
   <g id="text_10">
    <!-- $a_{6}$ -->
    <defs>
     <path d="M 30.09375 11.875 
C 29.59375 10.171875 29.59375 9.984375 28.203125 8.078125 
C 26 5.28125 21.59375 1 16.90625 1 
C 12.796875 1 10.5 4.6875 10.5 10.578125 
C 10.5 16.0625 13.59375 27.234375 15.5 31.4375 
C 18.90625 38.421875 23.59375 42.015625 27.5 42.015625 
C 34.09375 42.015625 35.40625 33.828125 35.40625 33.03125 
C 35.40625 32.9375 35.09375 31.625 35 31.4375 
z
M 36.5 37.421875 
C 35.40625 40.015625 32.703125 44 27.5 44 
C 16.203125 44 4 29.4375 4 14.671875 
C 4 4.796875 9.796875 -1 16.59375 -1 
C 22.09375 -1 26.796875 3.296875 29.59375 6.59375 
C 30.59375 0.703125 35.296875 -1 38.296875 -1 
C 41.296875 -1 43.703125 0.796875 45.5 4.390625 
C 47.09375 7.78125 48.5 13.875 48.5 14.265625 
C 48.5 14.765625 48.09375 15.171875 47.5 15.171875 
C 46.59375 15.171875 46.5 14.671875 46.09375 13.171875 
C 44.59375 7.28125 42.703125 1 38.59375 1 
C 35.703125 1 35.5 3.59375 35.5 5.59375 
C 35.5 7.890625 35.796875 8.984375 36.703125 12.875 
C 37.40625 15.375 37.90625 17.5625 38.703125 20.453125 
C 42.40625 35.421875 43.296875 39.015625 43.296875 39.609375 
C 43.296875 41.015625 42.203125 42.109375 40.703125 42.109375 
C 37.5 42.109375 36.703125 38.625 36.5 37.421875 
z
" id="CMMI12-97"/>
     <path d="M 10.59375 34 
C 10.59375 57.65625 21.796875 63 28.296875 63 
C 30.40625 63 35.5 62.640625 37.5 59 
C 35.90625 59 32.90625 59 32.90625 55.515625 
C 32.90625 52.828125 35.09375 51.921875 36.5 51.921875 
C 37.40625 51.921875 40.09375 52.3125 40.09375 55.625 
C 40.09375 61.78125 35.09375 65.296875 28.203125 65.296875 
C 16.296875 65.296875 3.796875 52.96875 3.796875 31 
C 3.796875 3.953125 15.09375 -2 23.09375 -2 
C 32.796875 -2 42 6.671875 42 20.046875 
C 42 32.515625 33.90625 41.59375 23.703125 41.59375 
C 17.59375 41.59375 13.09375 37.609375 10.59375 30.625 
z
M 23.09375 0.390625 
C 10.796875 0.390625 10.796875 18.75 10.796875 22.4375 
C 10.796875 29.625 14.203125 40 23.5 40 
C 25.203125 40 30.09375 40 33.40625 33.125 
C 35.203125 29.21875 35.203125 25.140625 35.203125 20.140625 
C 35.203125 14.75 35.203125 10.78125 33.09375 6.78125 
C 30.90625 2.671875 27.703125 0.390625 23.09375 0.390625 
z
" id="CMR17-54"/>
    </defs>
    <g transform="translate(304.867451 25.279211)scale(0.1 -0.1)">
     <use transform="translate(0 14.943915)scale(0.996264)" xlink:href="#CMMI12-97"/>
     <use transform="translate(51.207858 0)scale(0.697382)" xlink:href="#CMR17-54"/>
    </g>
   </g>
   <g id="text_11">
    <!-- $a_{7}$ -->
    <defs>
     <path d="M 45.09375 61.578125 
L 45.09375 63.765625 
L 21.59375 63.765625 
C 9.90625 63.765625 9.703125 65.078125 9.296875 67 
L 7.5 67 
L 4.59375 48.34375 
L 6.40625 48.34375 
C 6.703125 50.234375 7.40625 55.3125 8.59375 57.203125 
C 9.203125 58 16.59375 58 18.296875 58 
L 40.296875 58 
L 29.203125 41.578125 
C 21.796875 30.53125 16.703125 15.609375 16.703125 2.578125 
C 16.703125 1.390625 16.703125 -2 20.296875 -2 
C 23.90625 -2 23.90625 1.390625 23.90625 2.671875 
L 23.90625 7.265625 
C 23.90625 23.5625 26.703125 34.3125 31.296875 41.1875 
z
" id="CMR17-55"/>
    </defs>
    <g transform="translate(271.077632 101.241046)scale(0.1 -0.1)">
     <use transform="translate(0 14.943915)scale(0.996264)" xlink:href="#CMMI12-97"/>
     <use transform="translate(51.207858 0)scale(0.697382)" xlink:href="#CMR17-55"/>
    </g>
   </g>
   <g id="text_12">
    <!-- $a_{8}$ -->
    <defs>
     <path d="M 27.203125 35.375 
C 33.5 38.546875 39.90625 43.328125 39.90625 50.984375 
C 39.90625 60.015625 31.09375 65.296875 23 65.296875 
C 13.90625 65.296875 5.90625 58.734375 5.90625 49.6875 
C 5.90625 47.203125 6.5 42.921875 10.40625 39.140625 
C 11.40625 38.15625 15.59375 35.171875 18.296875 33.28125 
C 13.796875 30.984375 3.296875 25.53125 3.296875 14.59375 
C 3.296875 4.359375 13.09375 -2 22.796875 -2 
C 33.5 -2 42.5 5.65625 42.5 15.78125 
C 42.5 24.84375 36.40625 29.015625 32.40625 31.703125 
z
M 14.09375 44.09375 
C 13.296875 44.59375 9.296875 47.671875 9.296875 52.359375 
C 9.296875 58.421875 15.59375 63 22.796875 63 
C 30.703125 63 36.5 57.4375 36.5 50.96875 
C 36.5 41.703125 26.09375 36.421875 25.59375 36.421875 
C 25.5 36.421875 25.40625 36.421875 24.59375 37.03125 
z
M 32.5 23.734375 
C 34 22.640625 38.796875 19.375 38.796875 13.296875 
C 38.796875 5.953125 31.40625 0.390625 23 0.390625 
C 13.90625 0.390625 7 6.84375 7 14.6875 
C 7 22.546875 13.09375 29.09375 20 32.1875 
z
" id="CMR17-56"/>
    </defs>
    <g transform="translate(245.238359 25.279211)scale(0.1 -0.1)">
     <use transform="translate(0 14.943915)scale(0.996264)" xlink:href="#CMMI12-97"/>
     <use transform="translate(51.207858 0)scale(0.697382)" xlink:href="#CMR17-56"/>
    </g>
   </g>
   <g id="text_13">
    <!-- $a_{9}$ -->
    <defs>
     <path d="M 35.203125 29.125 
C 35.203125 7.25 26.09375 0.484375 18.59375 0.484375 
C 16.296875 0.484375 10.703125 0.484375 8.40625 4.59375 
C 11 4.1875 12.90625 5.578125 12.90625 8.09375 
C 12.90625 10.8125 10.703125 11.703125 9.296875 11.703125 
C 8.40625 11.703125 5.703125 11.296875 5.703125 7.90625 
C 5.703125 1.109375 11.59375 -2 18.796875 -2 
C 30.296875 -2 42 10.53125 42 32.390625 
C 42 59.640625 30.796875 65.296875 23.203125 65.296875 
C 13.296875 65.296875 3.796875 56.6875 3.796875 43.40625 
C 3.796875 31.109375 11.90625 22 22.09375 22 
C 30.5 22 34.203125 29.734375 35.203125 33 
z
M 22.296875 23.59375 
C 19.59375 23.59375 15.796875 24.09375 12.703125 30.03125 
C 10.59375 33.890625 10.59375 38.453125 10.59375 43.296875 
C 10.59375 49.15625 10.59375 53.203125 13.40625 57.5625 
C 14.796875 59.640625 17.40625 63 23.203125 63 
C 35 63 35 45.078125 35 41.125 
C 35 34.09375 31.796875 23.59375 22.296875 23.59375 
z
" id="CMR17-57"/>
    </defs>
    <g transform="translate(224.838933 101.241046)scale(0.1 -0.1)">
     <use transform="translate(0 14.943915)scale(0.996264)" xlink:href="#CMMI12-97"/>
     <use transform="translate(51.207858 0)scale(0.697382)" xlink:href="#CMR17-57"/>
    </g>
   </g>
   <g id="text_14">
    <!-- $a_{\infty}$ -->
    <defs>
     <path d="M 50.796875 27.03125 
C 45.40625 33.84375 44.203125 35.34375 41.09375 37.84375 
C 35.5 42.34375 29.90625 44.140625 24.796875 44.140625 
C 13.09375 44.140625 5.5 33.15625 5.5 21.46875 
C 5.5 9.984375 12.90625 -1.09375 24.40625 -1.09375 
C 35.90625 -1.09375 44.203125 7.984375 49.09375 15.96875 
C 54.5 9.1875 55.703125 7.6875 58.796875 5.1875 
C 64.40625 0.703125 70 -1.09375 75.09375 -1.09375 
C 86.796875 -1.09375 94.40625 9.890625 94.40625 21.5625 
C 94.40625 33.046875 87 44.140625 75.5 44.140625 
C 64 44.140625 55.703125 35.03125 50.796875 27.03125 
z
M 53.40625 23.65625 
C 57.5 30.859375 64.90625 40.9375 76.203125 40.9375 
C 86.796875 40.9375 92.203125 30.546875 92.203125 21.5625 
C 92.203125 11.765625 85.5 3.6875 76.703125 3.6875 
C 70.90625 3.6875 66.40625 7.890625 64.296875 9.96875 
C 61.796875 12.671875 59.5 15.765625 53.40625 23.65625 
z
M 46.5 19.375 
C 42.40625 12.1875 35 2.09375 23.703125 2.09375 
C 13.09375 2.09375 7.703125 12.484375 7.703125 21.46875 
C 7.703125 31.25 14.40625 39.34375 23.203125 39.34375 
C 29 39.34375 33.5 35.140625 35.59375 33.046875 
C 38.09375 30.359375 40.40625 27.25 46.5 19.375 
z
" id="CMSY10-49"/>
    </defs>
    <g transform="translate(26.1707 63.260129)scale(0.1 -0.1)">
     <use transform="translate(0 14.943915)scale(0.996264)" xlink:href="#CMMI12-97"/>
     <use transform="translate(51.207858 0)scale(0.697382)" xlink:href="#CMSY10-49"/>
    </g>
   </g>
  </g>
 </g>
 <defs>
  <clipPath id="p072f4157e2">
   <rect height="95.951792" width="310.5" x="17.25" y="12.793572"/>
  </clipPath>
 </defs>
</svg>
