<?xml version="1.0" encoding="utf-8" standalone="no"?>
<!DOCTYPE svg PUBLIC "-//W3C//DTD SVG 1.1//EN"
  "http://www.w3.org/Graphics/SVG/1.1/DTD/svg11.dtd">
<!-- Created with matplotlib (http://matplotlib.org/) -->
<svg height="230pt" version="1.1" viewBox="0 0 345 230" width="345pt" xmlns="http://www.w3.org/2000/svg" xmlns:xlink="http://www.w3.org/1999/xlink">
 <defs>
  <style type="text/css">
*{stroke-linecap:butt;stroke-linejoin:round;}
  </style>
 </defs>
 <g id="figure_1">
  <g id="patch_1">
   <path d="
M0 230
L345 230
L345 0
L0 0
z
" style="fill:#ffffff;"/>
  </g>
  <g id="axes_1">
   <g id="patch_2">
    <path d="
M34.5 212.75
L310.5 212.75
L310.5 28.75
L34.5 28.75
z
" style="fill:#ffffff;"/>
   </g>
   <g id="line2d_1">
    <path clip-path="url(#pa9984b4e2f)" d="
M34.5 51.75
L54.3919 51.75
L54.6682 46.4074
L56.3258 48.7896
L57.7072 51.1387
L58.8123 53.4791
L59.6411 55.7795
L60.1937 57.8503
L60.7462 60.9277
L61.0225 63.4116
L61.5751 71.7983
L61.8514 64.9675
L62.4039 60.6527
L62.6802 54.522
L63.509 57.2365
L64.0616 59.9477
L64.3378 61.96
L64.6141 65.1258
L64.8904 74.1938
L65.1667 67.4375
L65.4429 63.5205
L65.7192 58.0222
L66.2718 61.2161
L66.548 63.8678
L66.8243 69.2974
L67.1006 70.0506
L67.3769 59.1064
L67.6532 60.8068
L67.9294 63.2247
L68.482 72.808
L68.7583 60.7404
L69.0345 63.1231
L69.5871 73.4765
L69.8634 62.3075
L70.1396 65.7635
L70.4159 80.1575
L70.6922 62.8832
L70.9685 66.9143
L71.2447 75.6297
L71.521 64.8708
L71.7973 72.8663
L72.0736 64.3658
L72.3498 70.844
L72.6261 64.7337
L72.9024 72.2535
L73.1787 65.974
L73.455 86.1199
L73.7312 68.7477
L74.0075 65.8744
L74.2838 82.4733
L74.5601 71.0116
L74.8363 68.4649
L75.1126 67.2615
L75.3889 74.0797
L75.6652 77.157
L75.9414 78.9138
L76.2177 77.6562
L76.494 74.9633
L76.7703 69.1267
L77.0465 71.3661
L77.3228 76.7025
L77.5991 76.0398
L77.8754 73.0743
L78.1517 78.1649
L78.7042 71.8153
L79.2568 80.4708
L79.533 80.8825
L80.0856 73.3367
L80.3619 78.855
L80.6381 72.6785
L80.9144 84.6301
L81.1907 77.7328
L81.467 77.0735
L81.7432 79.2507
L82.0195 87.1605
L82.2958 76.2609
L82.8483 86.2849
L83.4009 77.1587
L83.6772 86.4539
L83.9535 86.8829
L84.2297 91.2227
L84.506 77.6707
L84.7823 84.4253
L85.0586 83.6051
L85.3348 79.833
L85.6111 77.769
L85.8874 79.0739
L86.1637 94.97
L86.4399 90.4995
L86.7162 79.1404
L86.9925 84.3141
L87.2688 82.6632
L87.545 82.0821
L87.8213 91.1822
L88.0976 87.2841
L88.3739 89.8296
L88.6502 80.6021
L88.9264 81.6144
L89.2027 86.8746
L89.479 89.4593
L89.7553 81.9411
L90.0315 85.6959
L90.3078 93.9785
L90.8604 84.3586
L91.1366 91.4106
L91.4129 84.3439
L91.6892 90.3178
L91.9655 83.7124
L92.2417 88.4344
L92.518 87.1135
L92.7943 108.468
L93.0706 101.967
L93.3468 90.7852
L93.6231 85.7094
L93.8994 91.2214
L94.1757 91.9147
L94.452 93.3485
L94.7282 90.5766
L95.0045 96.9686
L95.2808 90.7967
L95.5571 100.236
L95.8333 87.6788
L96.1096 89.4184
L96.3859 94.2153
L96.6622 89.6582
L96.9384 91.3968
L97.2147 90.2036
L97.7673 99.759
L98.0435 90.6711
L98.3198 90.2329
L98.5961 102.076
L98.8724 107.612
L99.1486 92.275
L99.4249 94.4599
L99.7012 101
L99.9775 94.9189
L100.254 100.536
L100.53 100.533
L100.806 99.4634
L101.083 95.3728
L101.635 93.3807
L101.911 96.5878
L102.188 106.988
L102.464 104.43
L102.74 106.695
L103.017 106.978
L103.293 97.8567
L103.569 95.7179
L103.845 112.034
L104.122 97.9773
L104.398 99.3571
L104.674 102.845
L104.95 102.355
L105.503 100.943
L105.779 104.815
L106.056 99.3709
L106.332 103.235
L106.608 98.7665
L106.884 101.478
L107.161 119.81
L107.713 101.489
L107.989 115.457
L108.266 100.305
L108.542 101.559
L109.095 101.236
L109.371 103.136
L109.647 102.086
L109.923 102.743
L110.2 102.472
L110.476 120.621
L110.752 103.173
L111.029 105.961
L111.305 113.029
L111.581 104.164
L111.857 111.296
L112.134 105.114
L112.41 104.673
L112.686 104.783
L112.962 123.096
L113.239 106.041
L113.515 109.156
L113.791 105.922
L114.068 112.917
L114.344 107.305
L114.62 108.654
L115.173 107.014
L115.449 114.985
L115.725 113.382
L116.002 156.085
L116.278 113.974
L116.554 110.149
L116.83 118.992
L117.383 112.855
L117.659 115.258
L117.935 112.458
L118.212 126.118
L118.488 114.921
L118.764 112.773
L119.041 116.299
L119.317 113.308
L119.593 127.587
L119.869 118.398
L120.146 119.947
L120.422 117.373
L120.698 119.423
L120.974 113.045
L121.251 118.163
L121.527 127.159
L121.803 117.194
L122.08 115.691
L122.356 120.669
L122.632 123.069
L122.908 116.4
L123.185 115.8
L123.461 132.283
L123.737 121.812
L124.014 116.338
L124.29 121.6
L124.566 120.844
L124.842 118.93
L125.119 118.751
L125.395 124.328
L125.671 139.86
L125.947 125.151
L126.224 123.618
L126.5 133.196
L126.776 121.914
L127.053 127.069
L127.329 119.981
L127.605 129.877
L127.881 119.824
L128.158 120.382
L128.434 121.324
L128.71 126.995
L128.986 137.074
L129.263 137.004
L129.539 127.32
L129.815 126.389
L130.092 130.243
L130.368 123.905
L130.644 124.395
L130.92 144.539
L131.197 128.532
L131.749 128.005
L132.026 132.94
L132.302 126.53
L132.578 129.327
L132.854 136.425
L133.131 135.814
L133.407 127.172
L133.683 126.7
L133.959 131.596
L134.236 131.465
L134.788 126.517
L135.065 134.108
L135.341 128.999
L135.617 133.778
L135.893 128.96
L136.17 140.025
L136.446 130.349
L136.722 131.992
L136.998 132.432
L137.275 131.923
L137.551 151.799
L137.827 144.525
L138.104 142.563
L138.38 134.084
L138.656 136.428
L138.932 135.315
L139.209 137.502
L139.485 134.899
L139.761 136.33
L140.038 142.042
L140.314 136.963
L140.59 141.121
L140.866 140.949
L141.143 136.528
L141.419 134.358
L141.695 134.524
L141.971 140.145
L142.248 141.947
L142.524 140.901
L142.8 134.864
L143.077 149.75
L143.353 139.912
L143.629 145.998
L143.905 142.944
L144.458 150.987
L144.734 148.999
L145.011 151.926
L145.287 143.659
L145.563 140.191
L145.839 142.491
L146.116 152.56
L146.392 138.982
L146.668 138.596
L146.944 140.32
L147.221 165.028
L147.773 142.332
L148.326 150.297
L148.602 141.859
L148.878 141.946
L149.155 152.342
L149.431 157.423
L149.707 142.772
L149.983 139.695
L150.26 144.577
L150.536 144.02
L150.812 140.633
L151.089 143.108
L151.365 140.703
L151.641 139.8
L151.917 139.541
L152.194 142.484
L152.47 142.305
L152.746 139.267
L153.023 141.196
L153.299 138.864
L153.851 139.973
L154.128 139.474
L154.404 138.427
L154.68 137.998
L154.956 137.987
L155.233 138.781
L155.509 138.449
L155.785 137.352
L156.062 136.844
L156.338 137.023
L156.614 136.476
L156.89 136.547
L157.167 136.144
L157.443 135.975
L157.719 135.38
L157.995 135.355
L158.548 134.633
L158.824 134.529
L159.101 133.998
L159.377 133.727
L159.653 133.655
L160.758 132.45
L161.587 131.725
L162.692 130.536
L164.074 129.163
L170.428 122.822
L205.791 87.4548
L224.578 68.5003
L229.827 62.9153
L233.143 59.0696
L235.353 56.1721
L237.011 53.6295
L238.116 51.5939
L238.944 49.7357
L239.773 47.3337
L240.326 45.118
L240.878 41.657
L241.155 38.581
L241.431 30.4038
L241.983 39.8481
L242.536 43.3852
L243.089 45.2558
L243.641 46.4875
L244.47 47.7425
L245.299 48.6038
L246.404 49.4058
L247.785 50.0809
L249.443 50.6114
L251.653 51.049
L254.692 51.3808
L259.113 51.6009
L266.848 51.7187
L290.056 51.7497
L310.5 51.75
L310.5 51.75" style="fill:none;stroke:#bfbfbf;stroke-linecap:square;"/>
   </g>
   <g id="line2d_2">
    <path clip-path="url(#pa9984b4e2f)" d="
M34.5 51.75
L54.3919 51.75
L54.6682 51.968
L55.497 53.8404
L56.3258 56.2708
L56.8784 58.5285
L57.4309 62.1083
L57.7072 65.3935
L57.9835 76.0001
L58.2598 52.2369
L59.0886 54.174
L59.9174 56.7366
L60.47 59.197
L60.7462 60.9277
L61.0225 63.4116
L61.5751 71.7983
L61.8514 64.9675
L62.4039 60.6527
L62.6802 60.2994
L62.9565 62.4654
L63.2327 66.0664
L63.509 105.632
L63.7853 58.4471
L64.3378 61.96
L64.6141 65.1258
L64.8904 74.1938
L65.1667 67.4375
L65.4429 63.5205
L65.7192 64.9821
L65.9955 73.411
L66.2718 61.2161
L66.548 63.8678
L66.8243 69.2974
L67.1006 70.0506
L67.3769 64.6472
L67.6532 71.8946
L67.9294 63.2247
L68.482 72.808
L69.0345 63.1231
L69.5871 73.4765
L70.1396 65.7635
L70.4159 80.1575
L70.6922 69.5184
L70.9685 66.9143
L71.2447 75.6297
L71.521 77.9502
L71.7973 72.8663
L72.0736 71.293
L72.3498 70.844
L72.6261 71.1445
L72.9024 72.2535
L73.1787 74.8145
L73.455 86.1199
L73.7312 68.7477
L74.0075 71.7069
L74.2838 82.4733
L74.5601 71.0116
L74.8363 88.0839
L75.1126 73.7817
L75.3889 74.0797
L75.6652 77.157
L75.9414 78.9138
L76.2177 77.6562
L76.494 74.9633
L76.7703 76.2522
L77.0465 71.3661
L77.3228 76.7025
L77.5991 76.0398
L77.8754 73.0743
L78.1517 78.1649
L78.4279 75.4727
L78.7042 82.5672
L78.9805 76.7601
L79.2568 80.4708
L79.533 80.8825
L79.8093 77.6536
L80.0856 85.3058
L80.3619 78.855
L80.6381 78.9178
L80.9144 84.6301
L81.1907 77.7328
L81.467 77.0735
L81.7432 79.2507
L82.0195 87.1605
L82.2958 76.2609
L82.8483 86.2849
L83.4009 77.1587
L83.6772 86.4539
L83.9535 86.8829
L84.2297 91.2227
L84.506 88.8506
L84.7823 84.4253
L85.0586 83.6051
L85.3348 79.833
L86.1637 94.97
L86.7162 86.4863
L87.2688 82.6632
L87.545 82.0821
L87.8213 91.1822
L88.0976 87.2841
L88.3739 89.8296
L88.6502 86.6281
L88.9264 89.9628
L89.2027 86.8746
L89.479 89.4593
L89.7553 88.5621
L90.0315 85.6959
L90.3078 93.9785
L90.5841 89.2773
L90.8604 99.8563
L91.1366 91.4106
L91.4129 93.9038
L91.6892 90.3178
L92.518 87.1135
L92.7943 108.468
L93.0706 101.967
L93.3468 90.7852
L93.6231 92.0649
L93.8994 91.2214
L94.1757 91.9147
L94.452 93.3485
L94.7282 90.5766
L95.0045 96.9686
L95.2808 90.7967
L95.5571 100.236
L95.8333 93.4639
L96.1096 102.003
L96.3859 94.2153
L96.6622 99.6119
L96.9384 91.3968
L97.2147 100.112
L97.491 96.0897
L97.7673 99.759
L98.0435 98.7666
L98.3198 96.1689
L98.8724 107.612
L99.1486 103.145
L99.4249 94.4599
L99.7012 101
L99.9775 94.9189
L100.254 100.536
L100.53 100.533
L100.806 99.4634
L101.083 95.3728
L101.359 103.968
L101.635 98.9542
L101.911 96.5878
L102.188 106.988
L102.464 104.43
L102.74 106.695
L103.017 106.978
L103.293 97.8567
L103.569 102.238
L103.845 112.034
L104.122 97.9773
L104.398 99.3571
L104.674 102.845
L104.95 102.355
L105.503 100.943
L105.779 104.815
L106.056 112.032
L106.332 103.235
L106.608 105.312
L106.884 101.478
L107.161 119.81
L107.713 101.489
L107.989 115.457
L108.266 106.542
L108.542 111.644
L109.095 107.737
L109.371 103.136
L109.647 109.481
L109.923 111.705
L110.2 109.338
L110.476 120.621
L110.752 110.508
L111.029 105.961
L111.305 113.029
L111.857 111.296
L112.134 114.966
L112.41 111.514
L112.686 111.165
L112.962 123.096
L113.515 109.156
L113.791 112.394
L114.068 112.917
L114.344 117.043
L114.62 108.654
L114.896 116.291
L115.173 112.791
L115.449 114.985
L115.725 113.382
L116.002 156.085
L116.278 113.974
L116.554 128.317
L116.83 118.992
L117.383 112.855
L117.659 115.258
L117.935 112.458
L118.212 126.118
L118.488 114.921
L118.764 112.773
L119.041 116.299
L119.317 113.308
L119.593 127.587
L119.869 118.398
L120.146 119.947
L120.422 117.373
L120.698 119.423
L120.974 119.359
L121.251 118.163
L121.527 127.159
L121.803 117.194
L122.08 134.531
L122.356 120.669
L122.632 123.069
L122.908 131.756
L123.185 123.848
L123.461 132.283
L123.737 121.812
L124.014 123.363
L124.29 121.6
L124.566 120.844
L124.842 118.93
L125.119 138.547
L125.395 124.328
L125.671 139.86
L125.947 125.151
L126.224 123.618
L126.5 133.196
L126.776 121.914
L127.053 127.069
L127.329 128.177
L127.605 129.877
L127.881 125.829
L128.158 127.112
L128.434 130.652
L128.71 126.995
L128.986 137.074
L129.263 137.004
L129.539 127.32
L129.815 126.389
L130.092 130.243
L130.368 140.299
L130.644 124.395
L130.92 144.539
L131.197 128.532
L131.749 128.005
L132.026 132.94
L132.302 126.53
L132.578 129.327
L132.854 136.425
L133.131 135.814
L133.407 127.172
L133.683 136.791
L133.959 131.596
L134.236 131.465
L134.512 129.338
L135.065 134.108
L135.341 150.339
L135.617 133.778
L135.893 139.387
L136.17 140.025
L136.446 130.349
L136.722 131.992
L136.998 132.432
L137.275 131.923
L137.551 151.799
L137.827 144.525
L138.104 142.563
L138.38 134.084
L138.656 136.428
L138.932 135.315
L139.209 137.502
L139.485 134.899
L139.761 136.33
L140.038 142.042
L140.314 136.963
L140.59 141.121
L140.866 140.949
L141.143 136.528
L141.419 143.962
L141.695 143.531
L141.971 140.145
L142.248 141.947
L142.524 140.901
L142.8 141.164
L143.077 149.75
L143.353 139.912
L143.629 145.998
L143.905 142.944
L144.458 150.987
L144.734 148.999
L145.011 151.926
L145.287 143.659
L145.563 140.191
L145.839 142.491
L146.116 152.56
L146.392 146.927
L146.668 144.566
L147.221 165.028
L147.773 142.332
L148.05 152.024
L148.326 143.893
L148.602 146.891
L148.878 147.727
L149.155 145.03
L149.707 148.564
L149.983 145.251
L150.26 148.708
L150.536 148.251
L150.812 152.93
L151.089 147.433
L151.365 149.568
L151.641 160.384
L151.917 150.286
L152.194 149.286
L152.47 151.89
L152.746 148.02
L153.023 146.958
L153.299 157.379
L153.575 154.928
L153.851 159.872
L154.128 150.048
L154.404 148.233
L154.68 151.496
L154.956 151.996
L155.233 149.933
L155.509 154.784
L155.785 161.861
L156.062 154.931
L156.338 154.877
L156.614 164.384
L156.89 157.907
L157.167 156.442
L157.443 167.196
L157.719 151.687
L157.995 176.52
L158.548 160.122
L158.824 164.988
L159.101 157.512
L159.377 153.503
L159.653 156.101
L160.206 162.3
L160.482 157.859
L160.758 158.451
L161.035 159.34
L161.311 155.053
L161.587 159.037
L161.863 160.249
L162.14 159.882
L162.416 156.328
L162.692 158.703
L162.968 165.171
L163.245 164.192
L163.521 159.679
L163.797 161.437
L164.074 164.508
L164.35 158.324
L164.626 158.826
L164.902 166.457
L165.179 169.018
L165.455 167.9
L165.731 163.687
L166.008 175.828
L166.284 165.693
L166.56 164.022
L166.836 171.879
L167.113 172.044
L167.389 174.391
L167.665 161.528
L167.941 166.534
L168.218 166.469
L168.494 171.32
L168.77 167.129
L169.047 172.593
L169.323 167.641
L169.599 168.412
L169.875 168.547
L170.152 183.06
L170.428 177.682
L170.704 175.204
L170.98 170.955
L171.257 175.258
L171.533 166.32
L171.809 177.226
L172.086 178.583
L172.362 170.369
L172.638 173.265
L172.914 167.849
L173.191 188.289
L173.467 170.838
L173.743 177.816
L174.02 171.672
L174.572 180.799
L174.848 175.736
L175.125 174.687
L175.401 176.155
L175.677 172.123
L175.953 174.425
L176.23 175.272
L176.506 179.539
L176.782 171.172
L177.059 177.501
L177.611 173.358
L177.887 180.74
L178.44 173.514
L178.716 182.656
L178.992 178.98
L179.269 184.682
L179.545 175.779
L179.821 171.588
L180.098 172.106
L180.374 175.227
L180.65 171.463
L180.926 172.768
L181.203 170.704
L181.479 172.317
L181.755 171.777
L182.032 169.715
L182.308 169.503
L182.584 170.208
L182.86 168.708
L183.137 169.236
L183.689 167.046
L183.965 166.487
L184.242 166.299
L184.518 165.536
L185.071 164.764
L185.623 163.485
L188.938 156.867
L191.701 151.344
L219.329 96.0916
L233.971 66.5558
L236.734 60.4798
L238.392 56.2694
L239.497 52.7848
L240.326 49.2013
L240.878 45.4394
L241.155 42.2185
L241.431 33.9003
L241.983 43.074
L242.536 46.3558
L243.089 47.9863
L243.641 48.9926
L244.47 49.9369
L245.299 50.519
L246.404 50.9948
L247.785 51.3297
L249.719 51.5607
L253.035 51.7005
L261.323 51.7482
L310.5 51.75
L310.5 51.75" style="fill:none;stroke:#000000;stroke-linecap:square;"/>
   </g>
   <g id="matplotlib.axis_1">
    <g id="xtick_1">
     <g id="line2d_3">
      <path clip-path="url(#pa9984b4e2f)" d="
M57.5 212.75
L57.5 28.75" style="fill:none;stroke:#000000;stroke-dasharray:1.000000,3.000000;stroke-dashoffset:0.0;stroke-width:0.5;"/>
     </g>
     <g id="line2d_4">
      <defs>
       <path d="
M0 0
L0 -4" id="m93b0483c22" style="stroke:#000000;stroke-width:0.5;"/>
      </defs>
      <g>
       <use style="stroke:#000000;stroke-width:0.5;" x="57.5" xlink:href="#m93b0483c22" y="212.75"/>
      </g>
     </g>
     <g id="line2d_5">
      <defs>
       <path d="
M0 0
L0 4" id="m741efc42ff" style="stroke:#000000;stroke-width:0.5;"/>
      </defs>
      <g>
       <use style="stroke:#000000;stroke-width:0.5;" x="57.5" xlink:href="#m741efc42ff" y="28.75"/>
      </g>
     </g>
     <g id="text_1">
      <!-- $10^{-16}$ -->
      <defs>
       <path d="
M65.9062 23
C67.5938 23 69.4062 23 69.4062 25
C69.4062 27 67.5938 27 65.9062 27
L11.7969 27
C10.0938 27 8.29688 27 8.29688 25
C8.29688 23 10.0938 23 11.7969 23
z
" id="CMSY10-0"/>
       <path d="
M26.5938 63.3125
C26.5938 65.4062 26.5 65.5 25.0938 65.5
C21.2031 61.1875 15.2969 59.7969 9.70312 59.7969
C9.40625 59.7969 8.90625 59.7969 8.79688 59.6094
C8.70312 59.3906 8.70312 59.1719 8.70312 57
C11.7969 57 17 57.5938 21 59.9844
L21 7.20312
C21 3.6875 20.7969 2.5 12.2031 2.5
L9.20312 2.5
L9.20312 0
C14 0 19 0 23.7969 0
C28.5938 0 33.5938 0 38.4062 0
L38.4062 2.5
L35.4062 2.5
C26.7969 2.5 26.5938 3.59375 26.5938 7.15625
z
" id="CMR17-49"/>
       <path d="
M42 31.6406
C42 37.75 41.9062 48.125 37.7031 56.1094
C34 63.1094 28.0938 65.5938 22.9062 65.5938
C18.0938 65.5938 12 63.4062 8.20312 56.2031
C4.20312 48.7188 3.79688 39.4375 3.79688 31.6406
C3.79688 25.9531 3.90625 17.2812 7 9.67188
C11.2969 -0.609375 19 -2 22.9062 -2
C27.5 -2 34.5 -0.109375 38.5938 9.375
C41.5938 16.2812 42 24.3594 42 31.6406
M22.9062 -0.40625
C16.5 -0.40625 12.7031 5.07812 11.2969 12.6875
C10.2031 18.5625 10.2031 27.1562 10.2031 32.75
C10.2031 40.4375 10.2031 46.8281 11.5 52.9219
C13.4062 61.3906 19 64 22.9062 64
C27 64 32.2969 61.2969 34.2031 53.125
C35.5 47.4375 35.5938 40.7344 35.5938 32.75
C35.5938 26.25 35.5938 18.2656 34.4062 12.375
C32.2969 1.48438 26.4062 -0.40625 22.9062 -0.40625" id="CMR17-48"/>
       <path d="
M10.5938 34
C10.5938 57.6562 21.7969 63 28.2969 63
C30.4062 63 35.5 62.6406 37.5 59
C35.9062 59 32.9062 59 32.9062 55.5156
C32.9062 52.8281 35.0938 51.9219 36.5 51.9219
C37.4062 51.9219 40.0938 52.3125 40.0938 55.625
C40.0938 61.7812 35.0938 65.2969 28.2031 65.2969
C16.2969 65.2969 3.79688 52.9688 3.79688 31
C3.79688 3.95312 15.0938 -2 23.0938 -2
C32.7969 -2 42 6.67188 42 20.0469
C42 32.5156 33.9062 41.5938 23.7031 41.5938
C17.5938 41.5938 13.0938 37.6094 10.5938 30.625
z

M23.0938 0.390625
C10.7969 0.390625 10.7969 18.75 10.7969 22.4375
C10.7969 29.625 14.2031 40 23.5 40
C25.2031 40 30.0938 40 33.4062 33.125
C35.2031 29.2188 35.2031 25.1406 35.2031 20.1406
C35.2031 14.75 35.2031 10.7812 33.0938 6.78125
C30.9062 2.67188 27.7031 0.390625 23.0938 0.390625" id="CMR17-54"/>
      </defs>
      <g transform="translate(45.4340944967 223.66849838)scale(0.1 -0.1)">
       <use transform="scale(0.996264009963)" xlink:href="#CMR17-49"/>
       <use transform="translate(45.6904771171 0.0)scale(0.996264009963)" xlink:href="#CMR17-48"/>
       <use transform="translate(91.3809542341 36.1536389419)scale(0.697381766617)" xlink:href="#CMSY10-0"/>
       <use transform="translate(145.621947482 36.1536389419)scale(0.697381766617)" xlink:href="#CMR17-49"/>
       <use transform="translate(177.605129446 36.1536389419)scale(0.697381766617)" xlink:href="#CMR17-54"/>
      </g>
     </g>
    </g>
    <g id="xtick_2">
     <g id="line2d_6">
      <path clip-path="url(#pa9984b4e2f)" d="
M103.5 212.75
L103.5 28.75" style="fill:none;stroke:#000000;stroke-dasharray:1.000000,3.000000;stroke-dashoffset:0.0;stroke-width:0.5;"/>
     </g>
     <g id="line2d_7">
      <g>
       <use style="stroke:#000000;stroke-width:0.5;" x="103.5" xlink:href="#m93b0483c22" y="212.75"/>
      </g>
     </g>
     <g id="line2d_8">
      <g>
       <use style="stroke:#000000;stroke-width:0.5;" x="103.5" xlink:href="#m741efc42ff" y="28.75"/>
      </g>
     </g>
     <g id="text_2">
      <!-- $10^{-12}$ -->
      <defs>
       <path d="
M41.7031 15.4531
L39.9062 15.4531
C38.9062 8.375 38.0938 7.17188 37.7031 6.5625
C37.2031 5.76562 30 5.76562 28.5938 5.76562
L9.40625 5.76562
C13 9.67188 20 16.75 28.5 24.9531
C34.5938 30.7344 41.7031 37.5312 41.7031 47.4219
C41.7031 59.2188 32.2969 66 21.7969 66
C10.7969 66 4.09375 56.3125 4.09375 47.3438
C4.09375 43.4375 7 42.9375 8.20312 42.9375
C9.20312 42.9375 12.2031 43.5469 12.2031 47.0312
C12.2031 50.1094 9.59375 51 8.20312 51
C7.59375 51 7 50.9062 6.59375 50.7031
C8.5 59.2188 14.2969 63.4062 20.4062 63.4062
C29.0938 63.4062 34.7969 56.5156 34.7969 47.4219
C34.7969 38.7344 29.7031 31.25 24 24.75
L4.09375 2.28125
L4.09375 0
L39.2969 0
z
" id="CMR17-50"/>
      </defs>
      <g transform="translate(91.4340944967 223.66849838)scale(0.1 -0.1)">
       <use transform="scale(0.996264009963)" xlink:href="#CMR17-49"/>
       <use transform="translate(45.6904771171 0.0)scale(0.996264009963)" xlink:href="#CMR17-48"/>
       <use transform="translate(91.3809542341 36.1536389419)scale(0.697381766617)" xlink:href="#CMSY10-0"/>
       <use transform="translate(145.621947482 36.1536389419)scale(0.697381766617)" xlink:href="#CMR17-49"/>
       <use transform="translate(177.605129446 36.1536389419)scale(0.697381766617)" xlink:href="#CMR17-50"/>
      </g>
     </g>
    </g>
    <g id="xtick_3">
     <g id="line2d_9">
      <path clip-path="url(#pa9984b4e2f)" d="
M149.5 212.75
L149.5 28.75" style="fill:none;stroke:#000000;stroke-dasharray:1.000000,3.000000;stroke-dashoffset:0.0;stroke-width:0.5;"/>
     </g>
     <g id="line2d_10">
      <g>
       <use style="stroke:#000000;stroke-width:0.5;" x="149.5" xlink:href="#m93b0483c22" y="212.75"/>
      </g>
     </g>
     <g id="line2d_11">
      <g>
       <use style="stroke:#000000;stroke-width:0.5;" x="149.5" xlink:href="#m741efc42ff" y="28.75"/>
      </g>
     </g>
     <g id="text_3">
      <!-- $10^{-8}$ -->
      <defs>
       <path d="
M27.2031 35.375
C33.5 38.5625 39.9062 43.3281 39.9062 50.9844
C39.9062 60.0312 31.0938 65.2969 23 65.2969
C13.9062 65.2969 5.90625 58.7344 5.90625 49.6875
C5.90625 47.2031 6.5 42.9219 10.4062 39.1406
C11.4062 38.1562 15.5938 35.1719 18.2969 33.2812
C13.7969 30.9844 3.29688 25.5312 3.29688 14.5938
C3.29688 4.35938 13.0938 -2 22.7969 -2
C33.5 -2 42.5 5.65625 42.5 15.7969
C42.5 24.8438 36.4062 29.0312 32.4062 31.7031
z

M14.0938 44.125
C13.2969 44.625 9.29688 47.7031 9.29688 52.375
C9.29688 58.4375 15.5938 63 22.7969 63
C30.7031 63 36.5 57.4531 36.5 50.9844
C36.5 41.7344 26.0938 36.4688 25.5938 36.4688
C25.5 36.4688 25.4062 36.4688 24.5938 37.0781
z

M32.5 23.7344
C34 22.6406 38.7969 19.375 38.7969 13.2969
C38.7969 5.95312 31.4062 0.390625 23 0.390625
C13.9062 0.390625 7 6.84375 7 14.6875
C7 22.5469 13.0938 29.0938 20 32.1875
z
" id="CMR17-56"/>
      </defs>
      <g transform="translate(139.419713307 223.66849838)scale(0.1 -0.1)">
       <use transform="scale(0.996264009963)" xlink:href="#CMR17-49"/>
       <use transform="translate(45.6904771171 0.0)scale(0.996264009963)" xlink:href="#CMR17-48"/>
       <use transform="translate(91.3809542341 36.1536389419)scale(0.697381766617)" xlink:href="#CMSY10-0"/>
       <use transform="translate(145.621947482 36.1536389419)scale(0.697381766617)" xlink:href="#CMR17-56"/>
      </g>
     </g>
    </g>
    <g id="xtick_4">
     <g id="line2d_12">
      <path clip-path="url(#pa9984b4e2f)" d="
M195.5 212.75
L195.5 28.75" style="fill:none;stroke:#000000;stroke-dasharray:1.000000,3.000000;stroke-dashoffset:0.0;stroke-width:0.5;"/>
     </g>
     <g id="line2d_13">
      <g>
       <use style="stroke:#000000;stroke-width:0.5;" x="195.5" xlink:href="#m93b0483c22" y="212.75"/>
      </g>
     </g>
     <g id="line2d_14">
      <g>
       <use style="stroke:#000000;stroke-width:0.5;" x="195.5" xlink:href="#m741efc42ff" y="28.75"/>
      </g>
     </g>
     <g id="text_4">
      <!-- $10^{-4}$ -->
      <defs>
       <path d="
M33.5938 64.3281
C33.5938 66.4062 33.5 66.5 31.7031 66.5
L2 19.5938
L2 17
L27.7969 17
L27.7969 7.14062
C27.7969 3.5 27.5938 2.5 20.5938 2.5
L18.7031 2.5
L18.7031 0
C21.9062 0 27.2969 0 30.7031 0
C34.0938 0 39.5 0 42.7031 0
L42.7031 2.5
L40.7969 2.5
C33.7969 2.5 33.5938 3.5 33.5938 7.14062
L33.5938 17
L43.7969 17
L43.7969 19.5938
L33.5938 19.5938
z

M28.0938 57.7656
L28.0938 19.5938
L4 19.5938
z
" id="CMR17-52"/>
      </defs>
      <g transform="translate(185.419713307 223.66849838)scale(0.1 -0.1)">
       <use transform="scale(0.996264009963)" xlink:href="#CMR17-49"/>
       <use transform="translate(45.6904771171 0.0)scale(0.996264009963)" xlink:href="#CMR17-48"/>
       <use transform="translate(91.3809542341 36.1536389419)scale(0.697381766617)" xlink:href="#CMSY10-0"/>
       <use transform="translate(145.621947482 36.1536389419)scale(0.697381766617)" xlink:href="#CMR17-52"/>
      </g>
     </g>
    </g>
    <g id="xtick_5">
     <g id="line2d_15">
      <path clip-path="url(#pa9984b4e2f)" d="
M241.5 212.75
L241.5 28.75" style="fill:none;stroke:#000000;stroke-dasharray:1.000000,3.000000;stroke-dashoffset:0.0;stroke-width:0.5;"/>
     </g>
     <g id="line2d_16">
      <g>
       <use style="stroke:#000000;stroke-width:0.5;" x="241.5" xlink:href="#m93b0483c22" y="212.75"/>
      </g>
     </g>
     <g id="line2d_17">
      <g>
       <use style="stroke:#000000;stroke-width:0.5;" x="241.5" xlink:href="#m741efc42ff" y="28.75"/>
      </g>
     </g>
     <g id="text_5">
      <!-- $10^{0}$ -->
      <g transform="translate(234.533045939 223.66849838)scale(0.1 -0.1)">
       <use transform="scale(0.996264009963)" xlink:href="#CMR17-49"/>
       <use transform="translate(45.6904771171 0.0)scale(0.996264009963)" xlink:href="#CMR17-48"/>
       <use transform="translate(91.3809542341 36.1536389419)scale(0.697381766617)" xlink:href="#CMR17-48"/>
      </g>
     </g>
    </g>
    <g id="xtick_6">
     <g id="line2d_18">
      <defs>
       <path d="
M0 0
L0 -2" id="m177f7580d0" style="stroke:#000000;stroke-width:0.5;"/>
      </defs>
      <g>
       <use style="stroke:#000000;stroke-width:0.5;" x="34.5" xlink:href="#m177f7580d0" y="212.75"/>
      </g>
     </g>
     <g id="line2d_19">
      <defs>
       <path d="
M0 0
L0 2" id="m5284c7e2a0" style="stroke:#000000;stroke-width:0.5;"/>
      </defs>
      <g>
       <use style="stroke:#000000;stroke-width:0.5;" x="34.5" xlink:href="#m5284c7e2a0" y="28.75"/>
      </g>
     </g>
    </g>
    <g id="xtick_7">
     <g id="line2d_20">
      <g>
       <use style="stroke:#000000;stroke-width:0.5;" x="57.5" xlink:href="#m177f7580d0" y="212.75"/>
      </g>
     </g>
     <g id="line2d_21">
      <g>
       <use style="stroke:#000000;stroke-width:0.5;" x="57.5" xlink:href="#m5284c7e2a0" y="28.75"/>
      </g>
     </g>
    </g>
    <g id="xtick_8">
     <g id="line2d_22">
      <g>
       <use style="stroke:#000000;stroke-width:0.5;" x="80.5" xlink:href="#m177f7580d0" y="212.75"/>
      </g>
     </g>
     <g id="line2d_23">
      <g>
       <use style="stroke:#000000;stroke-width:0.5;" x="80.5" xlink:href="#m5284c7e2a0" y="28.75"/>
      </g>
     </g>
    </g>
    <g id="xtick_9">
     <g id="line2d_24">
      <g>
       <use style="stroke:#000000;stroke-width:0.5;" x="103.5" xlink:href="#m177f7580d0" y="212.75"/>
      </g>
     </g>
     <g id="line2d_25">
      <g>
       <use style="stroke:#000000;stroke-width:0.5;" x="103.5" xlink:href="#m5284c7e2a0" y="28.75"/>
      </g>
     </g>
    </g>
    <g id="xtick_10">
     <g id="line2d_26">
      <g>
       <use style="stroke:#000000;stroke-width:0.5;" x="126.5" xlink:href="#m177f7580d0" y="212.75"/>
      </g>
     </g>
     <g id="line2d_27">
      <g>
       <use style="stroke:#000000;stroke-width:0.5;" x="126.5" xlink:href="#m5284c7e2a0" y="28.75"/>
      </g>
     </g>
    </g>
    <g id="xtick_11">
     <g id="line2d_28">
      <g>
       <use style="stroke:#000000;stroke-width:0.5;" x="149.5" xlink:href="#m177f7580d0" y="212.75"/>
      </g>
     </g>
     <g id="line2d_29">
      <g>
       <use style="stroke:#000000;stroke-width:0.5;" x="149.5" xlink:href="#m5284c7e2a0" y="28.75"/>
      </g>
     </g>
    </g>
    <g id="xtick_12">
     <g id="line2d_30">
      <g>
       <use style="stroke:#000000;stroke-width:0.5;" x="172.5" xlink:href="#m177f7580d0" y="212.75"/>
      </g>
     </g>
     <g id="line2d_31">
      <g>
       <use style="stroke:#000000;stroke-width:0.5;" x="172.5" xlink:href="#m5284c7e2a0" y="28.75"/>
      </g>
     </g>
    </g>
    <g id="xtick_13">
     <g id="line2d_32">
      <g>
       <use style="stroke:#000000;stroke-width:0.5;" x="195.5" xlink:href="#m177f7580d0" y="212.75"/>
      </g>
     </g>
     <g id="line2d_33">
      <g>
       <use style="stroke:#000000;stroke-width:0.5;" x="195.5" xlink:href="#m5284c7e2a0" y="28.75"/>
      </g>
     </g>
    </g>
    <g id="xtick_14">
     <g id="line2d_34">
      <g>
       <use style="stroke:#000000;stroke-width:0.5;" x="218.5" xlink:href="#m177f7580d0" y="212.75"/>
      </g>
     </g>
     <g id="line2d_35">
      <g>
       <use style="stroke:#000000;stroke-width:0.5;" x="218.5" xlink:href="#m5284c7e2a0" y="28.75"/>
      </g>
     </g>
    </g>
    <g id="xtick_15">
     <g id="line2d_36">
      <g>
       <use style="stroke:#000000;stroke-width:0.5;" x="241.5" xlink:href="#m177f7580d0" y="212.75"/>
      </g>
     </g>
     <g id="line2d_37">
      <g>
       <use style="stroke:#000000;stroke-width:0.5;" x="241.5" xlink:href="#m5284c7e2a0" y="28.75"/>
      </g>
     </g>
    </g>
    <g id="xtick_16">
     <g id="line2d_38">
      <g>
       <use style="stroke:#000000;stroke-width:0.5;" x="264.5" xlink:href="#m177f7580d0" y="212.75"/>
      </g>
     </g>
     <g id="line2d_39">
      <g>
       <use style="stroke:#000000;stroke-width:0.5;" x="264.5" xlink:href="#m5284c7e2a0" y="28.75"/>
      </g>
     </g>
    </g>
    <g id="xtick_17">
     <g id="line2d_40">
      <g>
       <use style="stroke:#000000;stroke-width:0.5;" x="287.5" xlink:href="#m177f7580d0" y="212.75"/>
      </g>
     </g>
     <g id="line2d_41">
      <g>
       <use style="stroke:#000000;stroke-width:0.5;" x="287.5" xlink:href="#m5284c7e2a0" y="28.75"/>
      </g>
     </g>
    </g>
    <g id="xtick_18">
     <g id="line2d_42">
      <g>
       <use style="stroke:#000000;stroke-width:0.5;" x="310.5" xlink:href="#m177f7580d0" y="212.75"/>
      </g>
     </g>
     <g id="line2d_43">
      <g>
       <use style="stroke:#000000;stroke-width:0.5;" x="310.5" xlink:href="#m5284c7e2a0" y="28.75"/>
      </g>
     </g>
    </g>
   </g>
   <g id="matplotlib.axis_2">
    <g id="ytick_1">
     <g id="line2d_44">
      <path clip-path="url(#pa9984b4e2f)" d="
M34.5 189.75
L310.5 189.75" style="fill:none;stroke:#000000;stroke-dasharray:1.000000,3.000000;stroke-dashoffset:0.0;stroke-width:0.5;"/>
     </g>
     <g id="line2d_45">
      <defs>
       <path d="
M0 0
L-4 0" id="mcb0005524f" style="stroke:#000000;stroke-width:0.5;"/>
      </defs>
      <g>
       <use style="stroke:#000000;stroke-width:0.5;" x="34.5" xlink:href="#mcb0005524f" y="189.75"/>
      </g>
     </g>
     <g id="line2d_46">
      <defs>
       <path d="
M0 0
L4 0" id="m728421d6d4" style="stroke:#000000;stroke-width:0.5;"/>
      </defs>
      <g>
       <use style="stroke:#000000;stroke-width:0.5;" x="310.5" xlink:href="#m728421d6d4" y="189.75"/>
      </g>
     </g>
     <g id="text_6">
      <!-- $10^{-12}$ -->
      <g transform="translate(5.5 192.240660025)scale(0.1 -0.1)">
       <use transform="scale(0.996264009963)" xlink:href="#CMR17-49"/>
       <use transform="translate(45.6904771171 0.0)scale(0.996264009963)" xlink:href="#CMR17-48"/>
       <use transform="translate(91.3809542341 36.1536389419)scale(0.697381766617)" xlink:href="#CMSY10-0"/>
       <use transform="translate(145.621947482 36.1536389419)scale(0.697381766617)" xlink:href="#CMR17-49"/>
       <use transform="translate(177.605129446 36.1536389419)scale(0.697381766617)" xlink:href="#CMR17-50"/>
      </g>
     </g>
    </g>
    <g id="ytick_2">
     <g id="line2d_47">
      <path clip-path="url(#pa9984b4e2f)" d="
M34.5 143.75
L310.5 143.75" style="fill:none;stroke:#000000;stroke-dasharray:1.000000,3.000000;stroke-dashoffset:0.0;stroke-width:0.5;"/>
     </g>
     <g id="line2d_48">
      <g>
       <use style="stroke:#000000;stroke-width:0.5;" x="34.5" xlink:href="#mcb0005524f" y="143.75"/>
      </g>
     </g>
     <g id="line2d_49">
      <g>
       <use style="stroke:#000000;stroke-width:0.5;" x="310.5" xlink:href="#m728421d6d4" y="143.75"/>
      </g>
     </g>
     <g id="text_7">
      <!-- $10^{-8}$ -->
      <g transform="translate(5.5 146.240660025)scale(0.1 -0.1)">
       <use transform="scale(0.996264009963)" xlink:href="#CMR17-49"/>
       <use transform="translate(45.6904771171 0.0)scale(0.996264009963)" xlink:href="#CMR17-48"/>
       <use transform="translate(91.3809542341 36.1536389419)scale(0.697381766617)" xlink:href="#CMSY10-0"/>
       <use transform="translate(145.621947482 36.1536389419)scale(0.697381766617)" xlink:href="#CMR17-56"/>
      </g>
     </g>
    </g>
    <g id="ytick_3">
     <g id="line2d_50">
      <path clip-path="url(#pa9984b4e2f)" d="
M34.5 97.75
L310.5 97.75" style="fill:none;stroke:#000000;stroke-dasharray:1.000000,3.000000;stroke-dashoffset:0.0;stroke-width:0.5;"/>
     </g>
     <g id="line2d_51">
      <g>
       <use style="stroke:#000000;stroke-width:0.5;" x="34.5" xlink:href="#mcb0005524f" y="97.75"/>
      </g>
     </g>
     <g id="line2d_52">
      <g>
       <use style="stroke:#000000;stroke-width:0.5;" x="310.5" xlink:href="#m728421d6d4" y="97.75"/>
      </g>
     </g>
     <g id="text_8">
      <!-- $10^{-4}$ -->
      <g transform="translate(5.5 100.240660025)scale(0.1 -0.1)">
       <use transform="scale(0.996264009963)" xlink:href="#CMR17-49"/>
       <use transform="translate(45.6904771171 0.0)scale(0.996264009963)" xlink:href="#CMR17-48"/>
       <use transform="translate(91.3809542341 36.1536389419)scale(0.697381766617)" xlink:href="#CMSY10-0"/>
       <use transform="translate(145.621947482 36.1536389419)scale(0.697381766617)" xlink:href="#CMR17-52"/>
      </g>
     </g>
    </g>
    <g id="ytick_4">
     <g id="line2d_53">
      <path clip-path="url(#pa9984b4e2f)" d="
M34.5 51.75
L310.5 51.75" style="fill:none;stroke:#000000;stroke-dasharray:1.000000,3.000000;stroke-dashoffset:0.0;stroke-width:0.5;"/>
     </g>
     <g id="line2d_54">
      <g>
       <use style="stroke:#000000;stroke-width:0.5;" x="34.5" xlink:href="#mcb0005524f" y="51.75"/>
      </g>
     </g>
     <g id="line2d_55">
      <g>
       <use style="stroke:#000000;stroke-width:0.5;" x="310.5" xlink:href="#m728421d6d4" y="51.75"/>
      </g>
     </g>
     <g id="text_9">
      <!-- $10^{0}$ -->
      <g transform="translate(5.5 54.2406600249)scale(0.1 -0.1)">
       <use transform="scale(0.996264009963)" xlink:href="#CMR17-49"/>
       <use transform="translate(45.6904771171 0.0)scale(0.996264009963)" xlink:href="#CMR17-48"/>
       <use transform="translate(91.3809542341 36.1536389419)scale(0.697381766617)" xlink:href="#CMR17-48"/>
      </g>
     </g>
    </g>
    <g id="ytick_5">
     <g id="line2d_56">
      <defs>
       <path d="
M0 0
L2 0" id="mf0c55a9a47" style="stroke:#000000;stroke-width:0.5;"/>
      </defs>
      <g>
       <use style="stroke:#000000;stroke-width:0.5;" x="34.5" xlink:href="#mf0c55a9a47" y="212.75"/>
      </g>
     </g>
     <g id="line2d_57">
      <defs>
       <path d="
M0 0
L-2 0" id="ma4f294b3af" style="stroke:#000000;stroke-width:0.5;"/>
      </defs>
      <g>
       <use style="stroke:#000000;stroke-width:0.5;" x="310.5" xlink:href="#ma4f294b3af" y="212.75"/>
      </g>
     </g>
    </g>
    <g id="ytick_6">
     <g id="line2d_58">
      <g>
       <use style="stroke:#000000;stroke-width:0.5;" x="34.5" xlink:href="#mf0c55a9a47" y="189.75"/>
      </g>
     </g>
     <g id="line2d_59">
      <g>
       <use style="stroke:#000000;stroke-width:0.5;" x="310.5" xlink:href="#ma4f294b3af" y="189.75"/>
      </g>
     </g>
    </g>
    <g id="ytick_7">
     <g id="line2d_60">
      <g>
       <use style="stroke:#000000;stroke-width:0.5;" x="34.5" xlink:href="#mf0c55a9a47" y="166.75"/>
      </g>
     </g>
     <g id="line2d_61">
      <g>
       <use style="stroke:#000000;stroke-width:0.5;" x="310.5" xlink:href="#ma4f294b3af" y="166.75"/>
      </g>
     </g>
    </g>
    <g id="ytick_8">
     <g id="line2d_62">
      <g>
       <use style="stroke:#000000;stroke-width:0.5;" x="34.5" xlink:href="#mf0c55a9a47" y="143.75"/>
      </g>
     </g>
     <g id="line2d_63">
      <g>
       <use style="stroke:#000000;stroke-width:0.5;" x="310.5" xlink:href="#ma4f294b3af" y="143.75"/>
      </g>
     </g>
    </g>
    <g id="ytick_9">
     <g id="line2d_64">
      <g>
       <use style="stroke:#000000;stroke-width:0.5;" x="34.5" xlink:href="#mf0c55a9a47" y="120.75"/>
      </g>
     </g>
     <g id="line2d_65">
      <g>
       <use style="stroke:#000000;stroke-width:0.5;" x="310.5" xlink:href="#ma4f294b3af" y="120.75"/>
      </g>
     </g>
    </g>
    <g id="ytick_10">
     <g id="line2d_66">
      <g>
       <use style="stroke:#000000;stroke-width:0.5;" x="34.5" xlink:href="#mf0c55a9a47" y="97.75"/>
      </g>
     </g>
     <g id="line2d_67">
      <g>
       <use style="stroke:#000000;stroke-width:0.5;" x="310.5" xlink:href="#ma4f294b3af" y="97.75"/>
      </g>
     </g>
    </g>
    <g id="ytick_11">
     <g id="line2d_68">
      <g>
       <use style="stroke:#000000;stroke-width:0.5;" x="34.5" xlink:href="#mf0c55a9a47" y="74.75"/>
      </g>
     </g>
     <g id="line2d_69">
      <g>
       <use style="stroke:#000000;stroke-width:0.5;" x="310.5" xlink:href="#ma4f294b3af" y="74.75"/>
      </g>
     </g>
    </g>
    <g id="ytick_12">
     <g id="line2d_70">
      <g>
       <use style="stroke:#000000;stroke-width:0.5;" x="34.5" xlink:href="#mf0c55a9a47" y="51.75"/>
      </g>
     </g>
     <g id="line2d_71">
      <g>
       <use style="stroke:#000000;stroke-width:0.5;" x="310.5" xlink:href="#ma4f294b3af" y="51.75"/>
      </g>
     </g>
    </g>
    <g id="ytick_13">
     <g id="line2d_72">
      <g>
       <use style="stroke:#000000;stroke-width:0.5;" x="34.5" xlink:href="#mf0c55a9a47" y="28.75"/>
      </g>
     </g>
     <g id="line2d_73">
      <g>
       <use style="stroke:#000000;stroke-width:0.5;" x="310.5" xlink:href="#ma4f294b3af" y="28.75"/>
      </g>
     </g>
    </g>
   </g>
   <g id="patch_3">
    <path d="
M34.5 28.75
L310.5 28.75" style="fill:none;stroke:#000000;"/>
   </g>
   <g id="patch_4">
    <path d="
M310.5 212.75
L310.5 28.75" style="fill:none;stroke:#000000;"/>
   </g>
   <g id="patch_5">
    <path d="
M34.5 212.75
L310.5 212.75" style="fill:none;stroke:#000000;"/>
   </g>
   <g id="patch_6">
    <path d="
M34.5 212.75
L34.5 28.75" style="fill:none;stroke:#000000;"/>
   </g>
   <g id="text_10">
    <!-- Graph of $h \mapsto [|\mathrm{CD}(\exp, 0, h) -\exp'(0)|]$ -->
    <defs>
     <path d="
M26.2969 24.6719
C26.2969 31.8438 25.5938 43.9844 19.5938 56.8281
C14.7969 67.1875 6.59375 74.4531 5.40625 74.4531
C5.09375 74.4531 4.70312 74.3438 4.70312 73.8594
C4.70312 73.6719 4.79688 73.5625 4.90625 73.3594
C9.70312 68.3906 21.9062 55.75 21.9062 24.7969
C21.9062 -6.28125 9.79688 -18.9219 4.90625 -23.9062
C4.79688 -24.0938 4.70312 -24.2031 4.70312 -24.3906
C4.70312 -24.8906 5.09375 -25 5.40625 -25
C6.5 -25 15 -17.625 19.9062 -6.67188
C24.9062 4.375 26.2969 15.125 26.2969 24.6719" id="CMR17-41"/>
     <path d="
M5.20312 68
L5.20312 65.4062
C12.0938 65.4062 13.2031 65.4062 13.2031 60.9375
L13.2031 7.0625
C13.2031 2.59375 12.0938 2.59375 5.20312 2.59375
L5.20312 0
L37 0
C53.0938 0 66 14.7344 66 33.4531
C66 52.2812 53.2969 68 37 68
z

M23.7969 2.59375
C19.7969 2.59375 19.5938 3.07812 19.5938 6.46875
L19.5938 61.5312
C19.5938 64.9219 19.7969 65.4062 23.7969 65.4062
L35 65.4062
C43.2969 65.4062 58.5938 60.5312 58.5938 33.4531
C58.5938 19.4062 54.5 13.7344 52.5938 11.0469
C50.2031 7.96875 44.5 2.59375 35 2.59375
z
" id="CMR17-68"/>
     <path d="
M26 23.0938
C29 26.9844 32.4062 31.3594 35.2031 34.625
C38.5 38.4062 42.2969 40 46.7031 40
L46.7031 42.5938
C45 42.5938 41.5 42.5938 39.7031 42.5938
C37 42.5938 33.9062 42.5938 31.5938 42.6875
L31.5938 40.0938
C33 39.8906 33.7969 38.8906 33.7969 37.5
C33.7969 35.7031 32.7969 34.6094 32.2969 33.9219
L24.9062 24.5781
L16.0938 36.0312
C15.2031 37.125 15.2031 37.3125 15.2031 37.8125
C15.2031 39.0156 16.2031 40 17.9062 40
L17.9062 42.6875
C15.5 42.5938 11.2031 42.5938 8.70312 42.5938
C6 42.5938 2.79688 42.5938 0.59375 42.6875
L0.59375 40
C6 40 7.20312 39.5938 9.59375 36.6094
L21.0938 21.7969
C21.2969 21.5938 21.7969 21 21.7969 20.7031
C21.7969 20.2969 13.0938 9.67188 12 8.28125
C7.5 2.89062 2.79688 2.5 0.09375 2.5
L0.09375 0
C1.79688 0 5.29688 0 7.09375 0
C9.09375 0 13.5 0 15.2969 -0.09375
L15.2969 2.5
C14.7031 2.59375 13.0938 2.79688 13.0938 5.07812
C13.0938 6.875 13.9062 7.96875 14.7969 9.15625
L23.0938 19.3125
L31.7969 8
C32.5938 6.90625 33.7969 5.40625 33.7969 4.70312
C33.7969 3.29688 32.5938 2.5 31 2.5
L31 -0.09375
C33.4062 0 37.7031 0 40.2031 0
C42.9062 0 46.0938 0 48.2969 -0.09375
L48.2969 2.5
C43.2969 2.5 41.7969 2.6875 39.4062 5.78125
z
" id="CMR17-120"/>
     <path d="
M36 25.8281
C36 32.375 36 35.8438 31.7969 39.7344
C28.0938 43 23.7969 44 20.4062 44
C12.5 44 6.79688 37.6094 6.79688 30.7969
C6.79688 27 9.79688 27 10.4062 27
C11.7031 27 14 27.7812 14 30.5312
C14 33 12.0938 34.0781 10.4062 34.0781
C10 34.0781 9.5 33.9688 9.20312 33.875
C11.2969 40.5 16.7031 42.4062 20.2031 42.4062
C25.2031 42.4062 30.7031 37.9531 30.7031 29.4531
L30.7031 25
C24.7969 25 17.7031 24.2031 12.0938 21.2031
C5.79688 17.7031 4 12.7031 4 8.90625
C4 1.20312 13 -1 18.2969 -1
C23.7969 -1 28.9062 2.17188 31.0938 7.98438
C31.2969 3.64062 34.0938 -0.28125 38.5 -0.28125
C40.5938 -0.28125 45.9062 1.09375 45.9062 8.85938
L45.9062 14.375
L44.0938 14.375
L44.0938 8.78125
C44.0938 2.78125 41.4062 2 40.0938 2
C36 2 36 7.15625 36 11.5312
z

M30.7031 13.5938
C30.7031 4.95312 24.5 0.59375 19 0.59375
C14 0.59375 10.0938 4.29688 10.0938 8.90625
C10.0938 11.8906 11.4062 17.1875 17.2031 20.3906
C22 23.0938 27.5 23.5 30.7031 23.5
z
" id="CMR17-97"/>
     <path d="
M9.5 22.7812
C10.0938 22.7812 12.2969 22.7812 12.2969 24.7812
C12.2969 26.7812 10.0938 26.7812 9.5 26.7812
L9.5 39.875
C9.5 41.4844 9.5 43.375 7.5 43.375
C5.5 43.375 5.5 41.4844 5.5 39.875
L5.5 9.6875
C5.5 8.07812 5.5 6.1875 7.5 6.1875
C9.5 6.1875 9.5 8.07812 9.5 9.6875
z
" id="CMSY10-55"/>
     <path d="
M15.2969 40
L26.7031 40
L26.7031 42.5781
L15.0938 42.5781
L15.0938 54.5938
C15.0938 62.8438 19.2969 68 23.5938 68
C24.9062 68 26.4062 67.6094 27.4062 66.9062
C26.5938 66.7031 24.5 66.0156 24.5 63.5312
C24.5 60.9531 26.5 60.1562 27.9062 60.1562
C29.2969 60.1562 31.2969 60.9531 31.2969 63.5469
C31.2969 67.3125 27.7031 69.5938 23.7031 69.5938
C18 69.5938 10.2031 64.9375 10.2031 54.3906
L10.2031 42.5781
L2.20312 42.5781
L2.20312 40
L10.2031 40
L10.2031 6.67188
C10.2031 2.875 9.79688 2.39062 3.40625 2.39062
L3.40625 -0.203125
C5.79688 0 10.4062 0 13 0
C15.9062 0 21 0 23.7031 -0.203125
L23.7031 2.39062
C16.5 2.39062 15.2969 2.39062 15.2969 6.85938
z
" id="CMR17-102"/>
     <path d="
M28.0938 66.5156
C28.2031 66.9219 28.4062 67.5156 28.4062 68
C28.4062 69 27.4062 69 27.2031 69
C27.0938 69 22.2031 68.5312 21.7031 68.3906
C20 68.3906 18.5 68.0938 16.7031 68.0938
C14.2031 67.8906 13.5 67.7969 13.5 66
C13.5 65 14.2969 65 15.7031 65
C20.5938 65 20.7031 64.0938 20.7031 63.0938
C20.7031 62.5156 20.5 61.7188 20.4062 61.4219
L5.90625 3.875
C5.5 2.375 5.5 2.1875 5.5 1.57812
C5.5 -0.59375 7.20312 -1 8.20312 -1
C9.90625 -1 11.2031 0.296875 11.7031 1.39062
L16.2031 19.4531
C16.7031 21.6562 17.2969 23.75 17.7969 25.9375
C18.9062 30.1406 18.9062 30.2344 20.7969 33.125
C22.7031 36.0156 27.2031 42.0156 34.9062 42.0156
C38.9062 42.0156 40.2969 39.0156 40.2969 35.0312
C40.2969 29.4375 36.4062 18.5625 34.2031 12.5781
C33.2969 10.1719 32.7969 8.875 32.7969 7.07812
C32.7969 2.59375 35.9062 -1 40.7031 -1
C50 -1 53.5 13.6719 53.5 14.2656
C53.5 14.7656 53.0938 15.1719 52.5 15.1719
C51.5938 15.1719 51.5 14.875 51 13.1719
C48.7031 5.1875 45 1 41 1
C40 1 38.4062 1 38.4062 4.20312
C38.4062 6.8125 39.5938 10 40 11.0938
C41.7969 15.9062 46.2969 27.7031 46.2969 33.5156
C46.2969 39.5 42.7969 44 35.2031 44
C29.5 44 24.5 41.3125 20.4062 36.125
z
" id="CMMI12-104"/>
     <path d="
M14.2969 74.4844
L1.40625 74.4844
L1.40625 71
L10.7969 71
L10.7969 -21.5156
L1.40625 -21.5156
L1.40625 -25
L14.2969 -25
z
" id="CMR17-93"/>
     <path d="
M62.0938 19.2656
C62.0938 23.0156 62.4062 23.5156 68.5938 23.5156
L68.5938 26.0938
C66.2031 26 60.7969 26 58.0938 26
C55.2969 26 47.5 26 43.7031 26
L43.7031 23.5156
L46.7031 23.5156
C55.2969 23.5156 55.5 22.4062 55.5 18.7656
L55.5 12.0938
C55.5 0.984375 42.5 0.984375 39.4062 0.984375
C29.0938 0.984375 12.2031 8 12.2031 33.7969
C12.2031 59.5781 28.7969 66.5 38.5 66.5
C49.7969 66.5 58 56.75 59.9062 42.9219
C60.0938 41.7188 60.0938 41.5156 61 41.5156
C62.0938 41.5156 62.0938 41.7188 62.0938 43.5156
L62.0938 67.1094
C62.0938 68.8906 62 69 61.4062 69
C61 69 60.9062 68.8906 60.2031 67.7031
L55.7969 59.3281
C50.9062 65.4531 44.9062 69 37.2031 69
C20.0938 69 4.59375 54 4.59375 33.5469
C4.59375 13.2031 19.7969 -2 37.4062 -2
C45.5 -2 53.4062 0.875 56.5 6.51562
C58.2031 2.46875 61 -0.3125 61.5 -0.3125
C62 -0.3125 62.0938 -0.203125 62.0938 1.5625
z
" id="CMR17-71"/>
     <path d="
M15.9062 71.4062
C15.9062 73.2031 15.9062 75 13.9062 75
C11.9062 75 11.9062 73.2031 11.9062 71.4062
L11.9062 -21.4062
C11.9062 -23.2031 11.9062 -25 13.9062 -25
C15.9062 -25 15.9062 -23.2031 15.9062 -21.4062
z
" id="CMSY10-106"/>
     <path d="
M62.0938 67.1094
C62.0938 68.8906 62 69 61.4062 69
C61 69 60.9062 68.8906 60.2031 67.7031
L55.7969 59.3281
C50.9062 65.4531 44.9062 69 37.2031 69
C20.0938 69 4.59375 54 4.59375 33.5469
C4.59375 12.9062 20.0938 -2 37.2969 -2
C52.5938 -2 62.0938 11.4062 62.0938 22.8438
C62.0938 23.8281 62.0938 24.2344 61.2031 24.2344
C60.4062 24.2344 60.4062 23.9375 60.2969 23.0469
C59.5 9.14062 49.5 0.59375 38.7031 0.59375
C28.5 0.59375 12.2031 7.73438 12.2031 33.5938
C12.2031 59.5469 28.7969 66.5 38.5 66.5
C49.7969 66.5 58 56.75 59.9062 42.9219
C60.0938 41.7188 60.0938 41.5156 61 41.5156
C62.0938 41.5156 62.0938 41.7188 62.0938 43.5156
z
" id="CMR17-67"/>
     <path d="
M41.5 30.2031
C41.5 35.2969 40.5 43.5938 28.7031 43.5938
C20.5 43.5938 16.5 37 15.2969 33.7031
L15.2031 33.7031
L15.2031 68.6875
L3.29688 67.5938
L3.29688 65
C9.20312 65 10.0938 64.4062 10.0938 59.6406
L10.0938 6.65625
C10.0938 2.875 9.70312 2.39062 3.29688 2.39062
L3.29688 -0.203125
C5.70312 0 10.0938 0 12.7031 0
C15.2969 0 19.7969 0 22.2031 -0.203125
L22.2031 2.39062
C15.7969 2.39062 15.4062 2.78125 15.4062 6.6875
L15.4062 25.9062
C15.4062 35.1094 21 42 28 42
C35.4062 42 36.2031 35.4062 36.2031 30.5938
L36.2031 6.6875
C36.2031 2.875 35.7969 2.39062 29.4062 2.39062
L29.4062 -0.203125
C31.7969 0 36.2031 0 38.7969 0
C41.4062 0 45.9062 0 48.2969 -0.203125
L48.2969 2.39062
C41.9062 2.39062 41.5 2.78125 41.5 6.6875
z
" id="CMR17-104"/>
     <path d="
M15 23.3906
C15 33 19.0938 42 26.5938 42
C27.2969 42 28 41.9062 28.7031 41.5938
C28.7031 41.5938 26.5 40.8906 26.5 38.3125
C26.5 35.9062 28.4062 34.9062 29.9062 34.9062
C31.0938 34.9062 33.2969 35.6094 33.2969 38.4062
C33.2969 41.6094 30.0938 43.5938 26.7031 43.5938
C19.0938 43.5938 15.7969 36.2031 14.7969 32.7031
L14.7031 32.7031
L14.7031 43.5938
L3.09375 42.5
L3.09375 39.9062
C9 39.9062 9.90625 39.2969 9.90625 34.5
L9.90625 6.6875
C9.90625 2.875 9.5 2.39062 3.09375 2.39062
L3.09375 -0.203125
C5.5 0 10.0938 0 12.7031 0
C15.5938 0 20.7031 0 23.4062 -0.203125
L23.4062 2.39062
C16.2031 2.39062 15 2.39062 15 6.875
z
" id="CMR17-114"/>
     <path d="
M30.5938 -24.4062
C30.5938 -24.3125 30.5938 -24.1094 30.2969 -23.8125
C25.7031 -19.1406 13.4062 -6.39062 13.4062 24.6719
C13.4062 55.75 25.5 68.3906 30.4062 73.3594
C30.4062 73.4688 30.5938 73.6719 30.5938 73.9531
C30.5938 74.25 30.2969 74.4531 29.9062 74.4531
C28.7969 74.4531 20.2969 67.0781 15.4062 56.125
C10.4062 45.0781 9 34.3281 9 24.7812
C9 17.6094 9.70312 5.46875 15.7031 -7.375
C20.5 -17.7344 28.7031 -25 29.9062 -25
C30.4062 -25 30.5938 -24.7969 30.5938 -24.4062" id="CMR17-40"/>
     <path d="
M22 -16.6094
C15.5938 -16.6094 15.2031 -16.2031 15.2031 -12.3281
L15.2031 6.28125
C18.0938 2.09375 22.2969 -0.59375 27.5938 -0.59375
C37.5938 -0.59375 47.7031 8.17188 47.7031 21.6875
C47.7031 34.2344 39 43.7812 28.7031 43.7812
C22.7031 43.7812 17.7969 40.5 15 36.5312
L15 43.7812
L3.09375 42.6875
L3.09375 40.1094
C9 40.1094 9.90625 39.5 9.90625 34.7344
L9.90625 -12.3281
C9.90625 -16.1094 9.5 -16.6094 3.09375 -16.6094
L3.09375 -19.1875
C5.5 -19 9.90625 -19 12.5 -19
C15.0938 -19 19.5938 -19 22 -19.1875
z

M15.2031 31.4375
C15.2031 32.8438 15.2031 34.9219 19.0938 38.6094
C19.5938 39.0156 23 42 28 42
C35.2969 42 41.2969 32.9375 41.2969 21.5938
C41.2969 10.25 34.9062 1 27 1
C23.4062 1 19.5 2.6875 16.5 7.375
C15.2031 9.5625 15.2031 10.1562 15.2031 11.75
z
" id="CMR17-112"/>
     <path d="
M23.5 -25
L23.5 -21.5156
L14.0938 -21.5156
L14.0938 71
L23.5 71
L23.5 74.4844
L10.5938 74.4844
L10.5938 -25
z
" id="CMR17-91"/>
     <path d="
M43.0938 21.1875
C43.0938 34 33.7969 44 22.9062 44
C12 44 2.70312 34 2.70312 21.1875
C2.70312 8.60938 12 -1 22.9062 -1
C33.7969 -1 43.0938 8.60938 43.0938 21.1875
M22.9062 0.796875
C18.2031 0.796875 14.2031 3.59375 11.9062 7.5
C9.40625 11.9844 9.09375 17.5938 9.09375 22
C9.09375 26.2031 9.29688 31.4062 11.9062 35.9062
C13.9062 39.2031 17.7969 42.4062 22.9062 42.4062
C27.4062 42.4062 31.2031 39.9062 33.5938 36.4062
C36.7031 31.7031 36.7031 25.1094 36.7031 22
C36.7031 18.0938 36.5 12.1094 33.7969 7.29688
C31 2.70312 26.7031 0.796875 22.9062 0.796875" id="CMR17-111"/>
     <path d="
M38.0938 23
C38.5 23.4062 38.5 23.6094 38.5 24.625
C38.5 34.9688 33.0938 44 21.7031 44
C11.0938 44 2.70312 33.8906 2.70312 21.6094
C2.70312 8.60938 12.2031 -1 22.7969 -1
C34 -1 38.4062 9.46875 38.4062 11.5469
C38.4062 12.25 37.7969 12.25 37.5938 12.25
C36.9062 12.25 36.7969 12.0469 36.4062 10.875
C34.2031 4.14062 28.7031 0.796875 23.5 0.796875
C19.2031 0.796875 14.9062 3.17188 12.2031 7.5
C9.09375 12.5469 9.09375 18.375 9.09375 23
z

M9.20312 24.5
C9.90625 39.1406 17.5938 42.4062 21.5938 42.4062
C28.4062 42.4062 33 35.8906 33.0938 24.5
z
" id="CMR17-101"/>
     <path d="
M19.5 -0.484375
C19.5 5.35938 17.5938 9.67188 13.5 9.67188
C10.2969 9.67188 8.70312 7.07812 8.70312 4.89062
C8.70312 2.6875 10.2031 0 13.5938 0
C14.9062 0 16 0.40625 16.9062 1.29688
C17.0938 1.5 17.2031 1.5 17.2969 1.5
C17.5 1.5 17.5 0.078125 17.5 -0.421875
C17.5 -3.75 16.9062 -10.2969 11.0938 -16.875
C10 -18.0781 10 -18.2812 10 -18.4844
C10 -19 10.5 -19.5 11 -19.5
C11.7969 -19.5 19.5 -12.0469 19.5 -0.484375" id="CMMI12-59"/>
     <path d="
M25.2969 47.5
C25.7969 48.7031 26.2031 49.5938 26.2031 50.5938
C26.2031 53.5 23.5938 55.9062 20.5 55.9062
C17.7031 55.9062 15.9062 54 15.2031 51.4062
L3.29688 7.70312
C3.29688 7.5 2.90625 6.40625 2.90625 6.29688
C2.90625 5.20312 5.5 4.5 6.29688 4.5
C6.90625 4.5 7 4.79688 7.59375 6.09375
z
" id="CMSY10-48"/>
     <path d="
M83.4062 23
C77.9062 18.7969 75.2031 14.7031 74.4062 13.4062
C69.9062 6.5 69.0938 0.203125 69.0938 0.09375
C69.0938 -1.09375 70.2969 -1.09375 71.0938 -1.09375
C72.7969 -1.09375 72.9062 -0.90625 73.2969 0.90625
C75.5938 10.7031 81.5 19.0938 92.7969 23.7031
C94 24.0938 94.2969 24.2969 94.2969 25
C94.2969 25.7031 93.7031 26 93.5 26.0938
C89.0938 27.7969 77 32.7969 73.2031 49.5938
C72.9062 50.7969 72.7969 51.0938 71.0938 51.0938
C70.2969 51.0938 69.0938 51.0938 69.0938 49.9062
C69.0938 49.7031 70 43.4062 74.2031 36.7031
C76.2031 33.7031 79.0938 30.2031 83.4062 27
L9.09375 27
C7.29688 27 5.5 27 5.5 25
C5.5 23 7.29688 23 9.09375 23
z
" id="CMSY10-33"/>
    </defs>
    <g transform="translate(84.9901796486 23.75)scale(0.1 -0.1)">
     <use transform="scale(0.996264009963)" xlink:href="#CMR17-71"/>
     <use transform="translate(72.3553459196 0.0)scale(0.996264009963)" xlink:href="#CMR17-114"/>
     <use transform="translate(107.636113719 0.0)scale(0.996264009963)" xlink:href="#CMR17-97"/>
     <use transform="translate(153.326590836 0.0)scale(0.996264009963)" xlink:href="#CMR17-112"/>
     <use transform="translate(204.221960616 0.0)scale(0.996264009963)" xlink:href="#CMR17-104"/>
     <use transform="translate(285.193296744 0.0)scale(0.996264009963)" xlink:href="#CMR17-111"/>
     <use transform="translate(330.883773861 0.0)scale(0.996264009963)" xlink:href="#CMR17-102"/>
     <use transform="translate(388.433252622 0.0)scale(0.996264009963)" xlink:href="#CMMI12-104"/>
     <use transform="translate(472.261885362 0.0)scale(0.996264009963)" xlink:href="#CMSY10-55"/>
     <use transform="translate(472.261885362 0.0)scale(0.996264009963)" xlink:href="#CMSY10-33"/>
     <use transform="translate(599.562568712 0.0)scale(0.996264009963)" xlink:href="#CMR17-91"/>
     <use transform="translate(624.433627194 0.0)scale(0.996264009963)" xlink:href="#CMSY10-106"/>
     <use transform="translate(652.107711925 0.0)scale(0.996264009963)" xlink:href="#CMR17-67"/>
     <use transform="translate(718.617592475 0.0)scale(0.996264009963)" xlink:href="#CMR17-68"/>
     <use transform="translate(789.011148379 0.0)scale(0.996264009963)" xlink:href="#CMR17-40"/>
     <use transform="translate(824.291916179 0.0)scale(0.996264009963)" xlink:href="#CMR17-101"/>
     <use transform="translate(864.777576641 0.0)scale(0.996264009963)" xlink:href="#CMR17-120"/>
     <use transform="translate(913.070492489 0.0)scale(0.996264009963)" xlink:href="#CMR17-112"/>
     <use transform="translate(963.965862269 0.0)scale(0.996264009963)" xlink:href="#CMMI12-59"/>
     <use transform="translate(1007.66744459 0.0)scale(0.996264009963)" xlink:href="#CMR17-48"/>
     <use transform="translate(1053.35792171 0.0)scale(0.996264009963)" xlink:href="#CMMI12-59"/>
     <use transform="translate(1097.05950403 0.0)scale(0.996264009963)" xlink:href="#CMMI12-104"/>
     <use transform="translate(1153.21412805 0.0)scale(0.996264009963)" xlink:href="#CMR17-41"/>
     <use transform="translate(1210.63410283 0.0)scale(0.996264009963)" xlink:href="#CMSY10-0"/>
     <use transform="translate(1310.26077746 0.0)scale(0.996264009963)" xlink:href="#CMR17-101"/>
     <use transform="translate(1350.74643792 0.0)scale(0.996264009963)" xlink:href="#CMR17-120"/>
     <use transform="translate(1399.03935377 0.0)scale(0.996264009963)" xlink:href="#CMR17-112"/>
     <use transform="translate(1449.93472355 36.1536389419)scale(0.697381766617)" xlink:href="#CMSY10-48"/>
     <use transform="translate(1469.61081613 0.0)scale(0.996264009963)" xlink:href="#CMR17-40"/>
     <use transform="translate(1504.89158393 0.0)scale(0.996264009963)" xlink:href="#CMR17-48"/>
     <use transform="translate(1550.58206105 0.0)scale(0.996264009963)" xlink:href="#CMR17-41"/>
     <use transform="translate(1585.86282884 0.0)scale(0.996264009963)" xlink:href="#CMSY10-106"/>
     <use transform="translate(1613.53691358 0.0)scale(0.996264009963)" xlink:href="#CMR17-93"/>
    </g>
   </g>
   <g id="legend_1">
    <g id="patch_7">
     <path d="
M230.258 136.187
L305.5 136.187
L305.5 105.313
L230.258 105.313
L230.258 136.187
z
" style="fill:#ffffff;stroke:#000000;"/>
    </g>
    <g id="line2d_74">
     <path d="
M237.258 112.813
L251.258 112.813" style="fill:none;stroke:#bfbfbf;stroke-linecap:square;"/>
    </g>
    <g id="line2d_75"/>
    <g id="text_11">
     <!-- FD error -->
     <defs>
      <path d="
M54.4062 67.5781
L5.09375 67.5781
L5.09375 65
C12 65 13.0938 65 13.0938 60.5312
L13.0938 6.96875
C13.0938 2.5 12 2.5 5.09375 2.5
L5.09375 0
C8 0 13.5938 0 16.7031 0
C20.7969 0 25.5938 0 29.7031 0
L29.7031 2.5
L27.5 2.5
C19.9062 2.5 19.7031 3.48438 19.7031 7.0625
L19.7031 32.4219
L28.7031 32.4219
C38 32.4219 38.9062 29.1875 38.9062 21
L40.7031 21
L40.7031 46.8906
L38.9062 46.8906
C38.9062 38.3438 38 35 28.7031 35
L19.7031 35
L19.7031 61.1094
C19.7031 64.5 19.9062 65 23.9062 65
L36.7969 65
C51.9062 65 53.5938 58.8906 55 45.7656
L56.7969 45.7656
z
" id="CMR17-70"/>
     </defs>
     <g transform="translate(262.25822538 116.31282167)scale(0.1 -0.1)">
      <use transform="scale(0.996264009963)" xlink:href="#CMR17-70"/>
      <use transform="translate(59.983846586 0.0)scale(0.996264009963)" xlink:href="#CMR17-68"/>
      <use transform="translate(160.453368837 0.0)scale(0.996264009963)" xlink:href="#CMR17-101"/>
      <use transform="translate(200.939029299 0.0)scale(0.996264009963)" xlink:href="#CMR17-114"/>
      <use transform="translate(236.219797099 0.0)scale(0.996264009963)" xlink:href="#CMR17-114"/>
      <use transform="translate(271.500564898 0.0)scale(0.996264009963)" xlink:href="#CMR17-111"/>
      <use transform="translate(317.191042015 0.0)scale(0.996264009963)" xlink:href="#CMR17-114"/>
     </g>
    </g>
    <g id="line2d_76">
     <path d="
M237.258 126.75
L251.258 126.75" style="fill:none;stroke:#000000;stroke-linecap:square;"/>
    </g>
    <g id="line2d_77"/>
    <g id="text_12">
     <!-- CD error -->
     <g transform="translate(262.25822538 130.25)scale(0.1 -0.1)">
      <use transform="scale(0.996264009963)" xlink:href="#CMR17-67"/>
      <use transform="translate(66.5098805505 0.0)scale(0.996264009963)" xlink:href="#CMR17-68"/>
      <use transform="translate(166.979402801 0.0)scale(0.996264009963)" xlink:href="#CMR17-101"/>
      <use transform="translate(207.465063264 0.0)scale(0.996264009963)" xlink:href="#CMR17-114"/>
      <use transform="translate(242.745831063 0.0)scale(0.996264009963)" xlink:href="#CMR17-114"/>
      <use transform="translate(278.026598863 0.0)scale(0.996264009963)" xlink:href="#CMR17-111"/>
      <use transform="translate(323.71707598 0.0)scale(0.996264009963)" xlink:href="#CMR17-114"/>
     </g>
    </g>
   </g>
  </g>
 </g>
 <defs>
  <clipPath id="pa9984b4e2f">
   <rect height="184.0" width="276.0" x="34.5" y="28.75"/>
  </clipPath>
 </defs>
</svg>
