<?xml version="1.0" encoding="utf-8" standalone="no"?>
<!DOCTYPE svg PUBLIC "-//W3C//DTD SVG 1.1//EN"
  "http://www.w3.org/Graphics/SVG/1.1/DTD/svg11.dtd">
<!-- Created with matplotlib (http://matplotlib.org/) -->
<svg height="373pt" version="1.1" viewBox="0 0 345 373" width="345pt" xmlns="http://www.w3.org/2000/svg" xmlns:xlink="http://www.w3.org/1999/xlink">
 <defs>
  <style type="text/css">
*{stroke-linecap:butt;stroke-linejoin:round;}
  </style>
 </defs>
 <g id="figure_1">
  <g id="patch_1">
   <path d="
M0 373.75
L345 373.75
L345 0
L0 0
z
" style="fill:#ffffff;"/>
  </g>
  <g id="axes_1">
   <g id="patch_2">
    <path d="
M34.5 345.719
L310.5 345.719
L310.5 46.7188
L34.5 46.7188
z
" style="fill:#ffffff;"/>
   </g>
   <g id="line2d_1">
    <path clip-path="url(#pc879fe523b)" d="
M34.5 69.7188
L54.3919 69.7188
L54.6682 69.9367
L55.497 71.8092
L56.3258 74.2396
L56.8784 76.4973
L57.4309 80.0771
L57.7072 83.3622
L57.9835 93.9688
L58.2598 70.2057
L59.0886 72.1428
L59.9174 74.7054
L60.47 77.1658
L60.7462 78.8964
L61.0225 81.3803
L61.5751 89.7671
L61.8514 82.9362
L62.4039 78.6215
L62.6802 78.2681
L62.9565 80.4342
L63.2327 84.0352
L63.509 123.601
L63.7853 76.4158
L64.3378 79.9287
L64.6141 83.0945
L64.8904 92.1626
L65.1667 85.4062
L65.4429 81.4893
L65.7192 82.9508
L65.9955 91.3798
L66.2718 79.1848
L66.548 81.8365
L66.8243 87.2661
L67.1006 88.0193
L67.3769 82.616
L67.6532 89.8633
L67.9294 81.1934
L68.482 90.7767
L69.0345 81.0919
L69.5871 91.4452
L70.1396 83.7323
L70.4159 98.1263
L70.6922 87.4871
L70.9685 84.883
L71.2447 93.5984
L71.521 95.9189
L71.7973 90.835
L72.0736 89.2618
L72.3498 88.8127
L72.6261 89.1133
L72.9024 90.2223
L73.1787 92.7833
L73.455 104.089
L73.7312 86.7165
L74.0075 89.6756
L74.2838 100.442
L74.5601 88.9803
L74.8363 106.053
L75.1126 91.7504
L75.3889 92.0485
L75.6652 95.1258
L75.9414 96.8825
L76.2177 95.625
L76.494 92.9321
L76.7703 94.2209
L77.0465 89.3348
L77.3228 94.6713
L77.5991 94.0086
L77.8754 91.0431
L78.1517 96.1336
L78.4279 93.4415
L78.7042 100.536
L78.9805 94.7289
L79.2568 98.4395
L79.533 98.8513
L79.8093 95.6223
L80.0856 103.275
L80.3619 96.8237
L80.6381 96.8865
L80.9144 102.599
L81.1907 95.7016
L81.467 95.0422
L81.7432 97.2194
L82.0195 105.129
L82.2958 94.2297
L82.8483 104.254
L83.4009 95.1274
L83.6772 104.423
L83.9535 104.852
L84.2297 109.191
L84.506 106.819
L84.7823 102.394
L85.0586 101.574
L85.3348 97.8017
L86.1637 112.939
L86.7162 104.455
L87.2688 100.632
L87.545 100.051
L87.8213 109.151
L88.0976 105.253
L88.3739 107.798
L88.6502 104.597
L88.9264 107.932
L89.2027 104.843
L89.479 107.428
L89.7553 106.531
L90.0315 103.665
L90.3078 111.947
L90.5841 107.246
L90.8604 117.825
L91.1366 109.379
L91.4129 111.873
L91.6892 108.287
L92.518 105.082
L92.7943 126.437
L93.0706 119.936
L93.3468 108.754
L93.6231 110.034
L93.8994 109.19
L94.1757 109.883
L94.452 111.317
L94.7282 108.545
L95.0045 114.937
L95.2808 108.765
L95.5571 118.204
L95.8333 111.433
L96.1096 119.972
L96.3859 112.184
L96.6622 117.581
L96.9384 109.366
L97.2147 118.081
L97.491 114.058
L97.7673 117.728
L98.0435 116.735
L98.3198 114.138
L98.8724 125.581
L99.1486 121.114
L99.4249 112.429
L99.7012 118.969
L99.9775 112.888
L100.254 118.505
L100.53 118.501
L100.806 117.432
L101.083 113.342
L101.359 121.937
L101.635 116.923
L101.911 114.557
L102.188 124.957
L102.464 122.398
L102.74 124.664
L103.017 124.946
L103.293 115.825
L103.569 120.207
L103.845 130.003
L104.122 115.946
L104.398 117.326
L104.674 120.814
L104.95 120.324
L105.503 118.912
L105.779 122.784
L106.056 130
L106.332 121.204
L106.608 123.281
L106.884 119.447
L107.161 137.779
L107.713 119.458
L107.989 133.425
L108.266 124.511
L108.542 129.613
L109.095 125.706
L109.371 121.104
L109.647 127.45
L109.923 129.673
L110.2 127.307
L110.476 138.589
L110.752 128.476
L111.029 123.93
L111.305 130.998
L111.857 129.265
L112.134 132.935
L112.41 129.482
L112.686 129.134
L112.962 141.065
L113.515 127.125
L113.791 130.363
L114.068 130.886
L114.344 135.012
L114.62 126.623
L114.896 134.26
L115.173 130.759
L115.449 132.954
L115.725 131.351
L116.002 174.054
L116.278 131.942
L116.554 146.286
L116.83 136.96
L117.383 130.824
L117.659 133.227
L117.935 130.426
L118.212 144.087
L118.488 132.89
L118.764 130.742
L119.041 134.268
L119.317 131.277
L119.593 145.556
L119.869 136.367
L120.146 137.915
L120.422 135.342
L120.698 137.391
L120.974 137.328
L121.251 136.132
L121.527 145.128
L121.803 135.162
L122.08 152.5
L122.356 138.638
L122.632 141.038
L122.908 149.725
L123.185 141.817
L123.461 150.252
L123.737 139.781
L124.014 141.331
L124.29 139.568
L124.566 138.812
L124.842 136.899
L125.119 156.516
L125.395 142.296
L125.671 157.829
L125.947 143.12
L126.224 141.587
L126.5 151.165
L126.776 139.883
L127.053 145.038
L127.329 146.145
L127.605 147.846
L127.881 143.798
L128.158 145.081
L128.434 148.621
L128.71 144.964
L128.986 155.043
L129.263 154.972
L129.539 145.289
L129.815 144.358
L130.092 148.211
L130.368 158.268
L130.644 142.364
L130.92 162.508
L131.197 146.501
L131.749 145.974
L132.026 150.909
L132.302 144.498
L132.578 147.296
L132.854 154.394
L133.131 153.783
L133.407 145.141
L133.683 154.76
L133.959 149.565
L134.236 149.434
L134.512 147.306
L135.065 152.076
L135.341 168.308
L135.617 151.747
L135.893 157.356
L136.17 157.994
L136.446 148.318
L136.722 149.961
L136.998 150.401
L137.275 149.892
L137.551 169.768
L137.827 162.494
L138.104 160.531
L138.38 152.053
L138.656 154.397
L138.932 153.284
L139.209 155.471
L139.485 152.868
L139.761 154.299
L140.038 160.011
L140.314 154.931
L140.59 159.09
L140.866 158.918
L141.143 154.497
L141.419 161.931
L141.695 161.5
L141.971 158.114
L142.248 159.915
L142.524 158.869
L142.8 159.133
L143.077 167.719
L143.353 157.881
L143.629 163.967
L143.905 160.912
L144.458 168.956
L144.734 166.967
L145.011 169.895
L145.287 161.628
L145.563 158.16
L145.839 160.46
L146.116 170.529
L146.392 164.895
L146.668 162.535
L147.221 182.997
L147.773 160.3
L148.05 169.993
L148.326 161.862
L148.602 164.86
L148.878 165.695
L149.155 162.999
L149.707 166.532
L149.983 163.22
L150.26 166.677
L150.536 166.22
L150.812 170.898
L151.089 165.402
L151.365 167.537
L151.641 178.353
L151.917 168.255
L152.194 167.254
L152.47 169.859
L152.746 165.988
L153.023 164.927
L153.299 175.348
L153.575 172.896
L153.851 177.84
L154.128 168.017
L154.404 166.202
L154.68 169.465
L154.956 169.965
L155.233 167.902
L155.509 172.752
L155.785 179.829
L156.062 172.9
L156.338 172.846
L156.614 182.353
L156.89 175.876
L157.167 174.411
L157.443 185.165
L157.719 169.656
L157.995 194.489
L158.548 178.091
L158.824 182.956
L159.101 175.481
L159.377 171.472
L159.653 174.07
L160.206 180.269
L160.482 175.828
L160.758 176.42
L161.035 177.308
L161.311 173.021
L161.587 177.005
L161.863 178.217
L162.14 177.851
L162.416 174.297
L162.692 176.672
L162.968 183.14
L163.245 182.16
L163.521 177.648
L163.797 179.405
L164.074 182.477
L164.35 176.293
L164.626 176.795
L164.902 184.426
L165.179 186.987
L165.455 185.869
L165.731 181.656
L166.008 193.797
L166.284 183.662
L166.56 181.991
L166.836 189.848
L167.113 190.013
L167.389 192.36
L167.665 179.497
L167.941 184.503
L168.218 184.438
L168.494 189.288
L168.77 185.098
L169.047 190.561
L169.323 185.61
L169.599 186.38
L169.875 186.516
L170.152 201.029
L170.428 195.651
L170.704 193.173
L170.98 188.923
L171.257 193.227
L171.533 184.289
L171.809 195.195
L172.086 196.552
L172.362 188.338
L172.638 191.234
L172.914 185.818
L173.191 206.258
L173.467 188.807
L173.743 195.785
L174.02 189.64
L174.572 198.767
L174.848 193.705
L175.125 192.656
L175.401 194.124
L175.677 190.092
L175.953 192.393
L176.23 193.241
L176.506 197.508
L176.782 189.14
L177.059 195.47
L177.611 191.327
L177.887 198.709
L178.44 191.482
L178.716 200.624
L178.992 196.949
L179.269 202.651
L179.545 193.748
L179.821 189.556
L180.098 190.074
L180.374 193.196
L180.65 189.432
L180.926 190.737
L181.203 188.673
L181.479 190.285
L181.755 189.746
L182.032 187.684
L182.308 187.471
L182.584 188.177
L182.86 186.677
L183.137 187.205
L183.689 185.015
L183.965 184.456
L184.242 184.268
L184.518 183.505
L185.071 182.733
L185.623 181.454
L188.938 174.836
L191.701 169.313
L219.329 114.06
L233.971 84.5246
L236.734 78.4485
L238.392 74.2382
L239.497 70.7536
L240.326 67.1701
L240.878 63.4081
L241.155 60.1873
L241.431 51.869
L241.983 61.0428
L242.536 64.3246
L243.089 65.955
L243.641 66.9614
L244.47 67.9057
L245.299 68.4878
L246.404 68.9636
L247.785 69.2985
L249.719 69.5294
L253.035 69.6692
L261.323 69.717
L310.5 69.7187
L310.5 69.7187" style="fill:none;stroke:#bfbfbf;stroke-linecap:square;"/>
   </g>
   <g id="line2d_2">
    <path clip-path="url(#pc879fe523b)" d="
M34.5 345.719
L149.707 345.719
L149.983 253.197
L150.26 247.71
L150.536 249.735
L152.47 249.735
L152.746 245.158
L153.023 246.273
L153.575 246.273
L153.851 244.248
L154.404 244.248
L154.68 242.811
L155.233 242.811
L155.509 241.221
L155.785 240.786
L156.062 241.221
L156.338 240.016
L157.167 237.991
L157.443 237.759
L157.719 237.324
L157.995 236.554
L158.548 235.734
L158.824 234.899
L159.101 234.529
L159.653 233.462
L166.836 219.048
L181.755 189.208
L233.971 85.015
L237.011 79.4633
L238.944 76.3633
L240.326 74.4915
L241.707 72.9777
L243.089 71.8405
L244.47 71.0461
L245.851 70.5245
L247.509 70.1498
L249.719 69.9012
L253.311 69.7627
L262.428 69.7199
L310.5 69.7188
L310.5 69.7188" style="fill:none;stroke:#000000;stroke-linecap:square;"/>
   </g>
   <g id="line2d_3">
    <path clip-path="url(#pc879fe523b)" d="
M34.5 249.735
L310.5 249.735
L310.5 249.735" style="fill:none;stroke:#000000;stroke-dasharray:6.000000,6.000000;stroke-dashoffset:0.0;"/>
   </g>
   <g id="matplotlib.axis_1">
    <g id="xtick_1">
     <g id="line2d_4">
      <path clip-path="url(#pc879fe523b)" d="
M57.5 345.719
L57.5 46.7188" style="fill:none;stroke:#000000;stroke-dasharray:1.000000,3.000000;stroke-dashoffset:0.0;stroke-width:0.5;"/>
     </g>
     <g id="line2d_5">
      <defs>
       <path d="
M0 0
L0 -4" id="m93b0483c22" style="stroke:#000000;stroke-width:0.5;"/>
      </defs>
      <g>
       <use style="stroke:#000000;stroke-width:0.5;" x="57.5" xlink:href="#m93b0483c22" y="345.71875"/>
      </g>
     </g>
     <g id="line2d_6">
      <defs>
       <path d="
M0 0
L0 4" id="m741efc42ff" style="stroke:#000000;stroke-width:0.5;"/>
      </defs>
      <g>
       <use style="stroke:#000000;stroke-width:0.5;" x="57.5" xlink:href="#m741efc42ff" y="46.71875"/>
      </g>
     </g>
     <g id="text_1">
      <!-- $10^{-16}$ -->
      <defs>
       <path d="
M65.9062 23
C67.5938 23 69.4062 23 69.4062 25
C69.4062 27 67.5938 27 65.9062 27
L11.7969 27
C10.0938 27 8.29688 27 8.29688 25
C8.29688 23 10.0938 23 11.7969 23
z
" id="CMSY10-0"/>
       <path d="
M26.5938 63.3125
C26.5938 65.4062 26.5 65.5 25.0938 65.5
C21.2031 61.1875 15.2969 59.7969 9.70312 59.7969
C9.40625 59.7969 8.90625 59.7969 8.79688 59.6094
C8.70312 59.3906 8.70312 59.1719 8.70312 57
C11.7969 57 17 57.5938 21 59.9844
L21 7.20312
C21 3.6875 20.7969 2.5 12.2031 2.5
L9.20312 2.5
L9.20312 0
C14 0 19 0 23.7969 0
C28.5938 0 33.5938 0 38.4062 0
L38.4062 2.5
L35.4062 2.5
C26.7969 2.5 26.5938 3.59375 26.5938 7.15625
z
" id="CMR17-49"/>
       <path d="
M42 31.6406
C42 37.75 41.9062 48.125 37.7031 56.1094
C34 63.1094 28.0938 65.5938 22.9062 65.5938
C18.0938 65.5938 12 63.4062 8.20312 56.2031
C4.20312 48.7188 3.79688 39.4375 3.79688 31.6406
C3.79688 25.9531 3.90625 17.2812 7 9.67188
C11.2969 -0.609375 19 -2 22.9062 -2
C27.5 -2 34.5 -0.109375 38.5938 9.375
C41.5938 16.2812 42 24.3594 42 31.6406
M22.9062 -0.40625
C16.5 -0.40625 12.7031 5.07812 11.2969 12.6875
C10.2031 18.5625 10.2031 27.1562 10.2031 32.75
C10.2031 40.4375 10.2031 46.8281 11.5 52.9219
C13.4062 61.3906 19 64 22.9062 64
C27 64 32.2969 61.2969 34.2031 53.125
C35.5 47.4375 35.5938 40.7344 35.5938 32.75
C35.5938 26.25 35.5938 18.2656 34.4062 12.375
C32.2969 1.48438 26.4062 -0.40625 22.9062 -0.40625" id="CMR17-48"/>
       <path d="
M10.5938 34
C10.5938 57.6562 21.7969 63 28.2969 63
C30.4062 63 35.5 62.6406 37.5 59
C35.9062 59 32.9062 59 32.9062 55.5156
C32.9062 52.8281 35.0938 51.9219 36.5 51.9219
C37.4062 51.9219 40.0938 52.3125 40.0938 55.625
C40.0938 61.7812 35.0938 65.2969 28.2031 65.2969
C16.2969 65.2969 3.79688 52.9688 3.79688 31
C3.79688 3.95312 15.0938 -2 23.0938 -2
C32.7969 -2 42 6.67188 42 20.0469
C42 32.5156 33.9062 41.5938 23.7031 41.5938
C17.5938 41.5938 13.0938 37.6094 10.5938 30.625
z

M23.0938 0.390625
C10.7969 0.390625 10.7969 18.75 10.7969 22.4375
C10.7969 29.625 14.2031 40 23.5 40
C25.2031 40 30.0938 40 33.4062 33.125
C35.2031 29.2188 35.2031 25.1406 35.2031 20.1406
C35.2031 14.75 35.2031 10.7812 33.0938 6.78125
C30.9062 2.67188 27.7031 0.390625 23.0938 0.390625" id="CMR17-54"/>
      </defs>
      <g transform="translate(45.4340944967 356.63724838)scale(0.1 -0.1)">
       <use transform="scale(0.996264009963)" xlink:href="#CMR17-49"/>
       <use transform="translate(45.6904771171 0.0)scale(0.996264009963)" xlink:href="#CMR17-48"/>
       <use transform="translate(91.3809542341 36.1536389419)scale(0.697381766617)" xlink:href="#CMSY10-0"/>
       <use transform="translate(145.621947482 36.1536389419)scale(0.697381766617)" xlink:href="#CMR17-49"/>
       <use transform="translate(177.605129446 36.1536389419)scale(0.697381766617)" xlink:href="#CMR17-54"/>
      </g>
     </g>
    </g>
    <g id="xtick_2">
     <g id="line2d_7">
      <path clip-path="url(#pc879fe523b)" d="
M103.5 345.719
L103.5 46.7188" style="fill:none;stroke:#000000;stroke-dasharray:1.000000,3.000000;stroke-dashoffset:0.0;stroke-width:0.5;"/>
     </g>
     <g id="line2d_8">
      <g>
       <use style="stroke:#000000;stroke-width:0.5;" x="103.5" xlink:href="#m93b0483c22" y="345.71875"/>
      </g>
     </g>
     <g id="line2d_9">
      <g>
       <use style="stroke:#000000;stroke-width:0.5;" x="103.5" xlink:href="#m741efc42ff" y="46.71875"/>
      </g>
     </g>
     <g id="text_2">
      <!-- $10^{-12}$ -->
      <defs>
       <path d="
M41.7031 15.4531
L39.9062 15.4531
C38.9062 8.375 38.0938 7.17188 37.7031 6.5625
C37.2031 5.76562 30 5.76562 28.5938 5.76562
L9.40625 5.76562
C13 9.67188 20 16.75 28.5 24.9531
C34.5938 30.7344 41.7031 37.5312 41.7031 47.4219
C41.7031 59.2188 32.2969 66 21.7969 66
C10.7969 66 4.09375 56.3125 4.09375 47.3438
C4.09375 43.4375 7 42.9375 8.20312 42.9375
C9.20312 42.9375 12.2031 43.5469 12.2031 47.0312
C12.2031 50.1094 9.59375 51 8.20312 51
C7.59375 51 7 50.9062 6.59375 50.7031
C8.5 59.2188 14.2969 63.4062 20.4062 63.4062
C29.0938 63.4062 34.7969 56.5156 34.7969 47.4219
C34.7969 38.7344 29.7031 31.25 24 24.75
L4.09375 2.28125
L4.09375 0
L39.2969 0
z
" id="CMR17-50"/>
      </defs>
      <g transform="translate(91.4340944967 356.63724838)scale(0.1 -0.1)">
       <use transform="scale(0.996264009963)" xlink:href="#CMR17-49"/>
       <use transform="translate(45.6904771171 0.0)scale(0.996264009963)" xlink:href="#CMR17-48"/>
       <use transform="translate(91.3809542341 36.1536389419)scale(0.697381766617)" xlink:href="#CMSY10-0"/>
       <use transform="translate(145.621947482 36.1536389419)scale(0.697381766617)" xlink:href="#CMR17-49"/>
       <use transform="translate(177.605129446 36.1536389419)scale(0.697381766617)" xlink:href="#CMR17-50"/>
      </g>
     </g>
    </g>
    <g id="xtick_3">
     <g id="line2d_10">
      <path clip-path="url(#pc879fe523b)" d="
M149.5 345.719
L149.5 46.7188" style="fill:none;stroke:#000000;stroke-dasharray:1.000000,3.000000;stroke-dashoffset:0.0;stroke-width:0.5;"/>
     </g>
     <g id="line2d_11">
      <g>
       <use style="stroke:#000000;stroke-width:0.5;" x="149.5" xlink:href="#m93b0483c22" y="345.71875"/>
      </g>
     </g>
     <g id="line2d_12">
      <g>
       <use style="stroke:#000000;stroke-width:0.5;" x="149.5" xlink:href="#m741efc42ff" y="46.71875"/>
      </g>
     </g>
     <g id="text_3">
      <!-- $10^{-8}$ -->
      <defs>
       <path d="
M27.2031 35.375
C33.5 38.5625 39.9062 43.3281 39.9062 50.9844
C39.9062 60.0312 31.0938 65.2969 23 65.2969
C13.9062 65.2969 5.90625 58.7344 5.90625 49.6875
C5.90625 47.2031 6.5 42.9219 10.4062 39.1406
C11.4062 38.1562 15.5938 35.1719 18.2969 33.2812
C13.7969 30.9844 3.29688 25.5312 3.29688 14.5938
C3.29688 4.35938 13.0938 -2 22.7969 -2
C33.5 -2 42.5 5.65625 42.5 15.7969
C42.5 24.8438 36.4062 29.0312 32.4062 31.7031
z

M14.0938 44.125
C13.2969 44.625 9.29688 47.7031 9.29688 52.375
C9.29688 58.4375 15.5938 63 22.7969 63
C30.7031 63 36.5 57.4531 36.5 50.9844
C36.5 41.7344 26.0938 36.4688 25.5938 36.4688
C25.5 36.4688 25.4062 36.4688 24.5938 37.0781
z

M32.5 23.7344
C34 22.6406 38.7969 19.375 38.7969 13.2969
C38.7969 5.95312 31.4062 0.390625 23 0.390625
C13.9062 0.390625 7 6.84375 7 14.6875
C7 22.5469 13.0938 29.0938 20 32.1875
z
" id="CMR17-56"/>
      </defs>
      <g transform="translate(139.419713307 356.63724838)scale(0.1 -0.1)">
       <use transform="scale(0.996264009963)" xlink:href="#CMR17-49"/>
       <use transform="translate(45.6904771171 0.0)scale(0.996264009963)" xlink:href="#CMR17-48"/>
       <use transform="translate(91.3809542341 36.1536389419)scale(0.697381766617)" xlink:href="#CMSY10-0"/>
       <use transform="translate(145.621947482 36.1536389419)scale(0.697381766617)" xlink:href="#CMR17-56"/>
      </g>
     </g>
    </g>
    <g id="xtick_4">
     <g id="line2d_13">
      <path clip-path="url(#pc879fe523b)" d="
M195.5 345.719
L195.5 46.7188" style="fill:none;stroke:#000000;stroke-dasharray:1.000000,3.000000;stroke-dashoffset:0.0;stroke-width:0.5;"/>
     </g>
     <g id="line2d_14">
      <g>
       <use style="stroke:#000000;stroke-width:0.5;" x="195.5" xlink:href="#m93b0483c22" y="345.71875"/>
      </g>
     </g>
     <g id="line2d_15">
      <g>
       <use style="stroke:#000000;stroke-width:0.5;" x="195.5" xlink:href="#m741efc42ff" y="46.71875"/>
      </g>
     </g>
     <g id="text_4">
      <!-- $10^{-4}$ -->
      <defs>
       <path d="
M33.5938 64.3281
C33.5938 66.4062 33.5 66.5 31.7031 66.5
L2 19.5938
L2 17
L27.7969 17
L27.7969 7.14062
C27.7969 3.5 27.5938 2.5 20.5938 2.5
L18.7031 2.5
L18.7031 0
C21.9062 0 27.2969 0 30.7031 0
C34.0938 0 39.5 0 42.7031 0
L42.7031 2.5
L40.7969 2.5
C33.7969 2.5 33.5938 3.5 33.5938 7.14062
L33.5938 17
L43.7969 17
L43.7969 19.5938
L33.5938 19.5938
z

M28.0938 57.7656
L28.0938 19.5938
L4 19.5938
z
" id="CMR17-52"/>
      </defs>
      <g transform="translate(185.419713307 356.63724838)scale(0.1 -0.1)">
       <use transform="scale(0.996264009963)" xlink:href="#CMR17-49"/>
       <use transform="translate(45.6904771171 0.0)scale(0.996264009963)" xlink:href="#CMR17-48"/>
       <use transform="translate(91.3809542341 36.1536389419)scale(0.697381766617)" xlink:href="#CMSY10-0"/>
       <use transform="translate(145.621947482 36.1536389419)scale(0.697381766617)" xlink:href="#CMR17-52"/>
      </g>
     </g>
    </g>
    <g id="xtick_5">
     <g id="line2d_16">
      <path clip-path="url(#pc879fe523b)" d="
M241.5 345.719
L241.5 46.7188" style="fill:none;stroke:#000000;stroke-dasharray:1.000000,3.000000;stroke-dashoffset:0.0;stroke-width:0.5;"/>
     </g>
     <g id="line2d_17">
      <g>
       <use style="stroke:#000000;stroke-width:0.5;" x="241.5" xlink:href="#m93b0483c22" y="345.71875"/>
      </g>
     </g>
     <g id="line2d_18">
      <g>
       <use style="stroke:#000000;stroke-width:0.5;" x="241.5" xlink:href="#m741efc42ff" y="46.71875"/>
      </g>
     </g>
     <g id="text_5">
      <!-- $10^{0}$ -->
      <g transform="translate(234.533045939 356.63724838)scale(0.1 -0.1)">
       <use transform="scale(0.996264009963)" xlink:href="#CMR17-49"/>
       <use transform="translate(45.6904771171 0.0)scale(0.996264009963)" xlink:href="#CMR17-48"/>
       <use transform="translate(91.3809542341 36.1536389419)scale(0.697381766617)" xlink:href="#CMR17-48"/>
      </g>
     </g>
    </g>
    <g id="xtick_6">
     <g id="line2d_19">
      <defs>
       <path d="
M0 0
L0 -2" id="m177f7580d0" style="stroke:#000000;stroke-width:0.5;"/>
      </defs>
      <g>
       <use style="stroke:#000000;stroke-width:0.5;" x="34.5" xlink:href="#m177f7580d0" y="345.71875"/>
      </g>
     </g>
     <g id="line2d_20">
      <defs>
       <path d="
M0 0
L0 2" id="m5284c7e2a0" style="stroke:#000000;stroke-width:0.5;"/>
      </defs>
      <g>
       <use style="stroke:#000000;stroke-width:0.5;" x="34.5" xlink:href="#m5284c7e2a0" y="46.71875"/>
      </g>
     </g>
    </g>
    <g id="xtick_7">
     <g id="line2d_21">
      <g>
       <use style="stroke:#000000;stroke-width:0.5;" x="57.5" xlink:href="#m177f7580d0" y="345.71875"/>
      </g>
     </g>
     <g id="line2d_22">
      <g>
       <use style="stroke:#000000;stroke-width:0.5;" x="57.5" xlink:href="#m5284c7e2a0" y="46.71875"/>
      </g>
     </g>
    </g>
    <g id="xtick_8">
     <g id="line2d_23">
      <g>
       <use style="stroke:#000000;stroke-width:0.5;" x="80.5" xlink:href="#m177f7580d0" y="345.71875"/>
      </g>
     </g>
     <g id="line2d_24">
      <g>
       <use style="stroke:#000000;stroke-width:0.5;" x="80.5" xlink:href="#m5284c7e2a0" y="46.71875"/>
      </g>
     </g>
    </g>
    <g id="xtick_9">
     <g id="line2d_25">
      <g>
       <use style="stroke:#000000;stroke-width:0.5;" x="103.5" xlink:href="#m177f7580d0" y="345.71875"/>
      </g>
     </g>
     <g id="line2d_26">
      <g>
       <use style="stroke:#000000;stroke-width:0.5;" x="103.5" xlink:href="#m5284c7e2a0" y="46.71875"/>
      </g>
     </g>
    </g>
    <g id="xtick_10">
     <g id="line2d_27">
      <g>
       <use style="stroke:#000000;stroke-width:0.5;" x="126.5" xlink:href="#m177f7580d0" y="345.71875"/>
      </g>
     </g>
     <g id="line2d_28">
      <g>
       <use style="stroke:#000000;stroke-width:0.5;" x="126.5" xlink:href="#m5284c7e2a0" y="46.71875"/>
      </g>
     </g>
    </g>
    <g id="xtick_11">
     <g id="line2d_29">
      <g>
       <use style="stroke:#000000;stroke-width:0.5;" x="149.5" xlink:href="#m177f7580d0" y="345.71875"/>
      </g>
     </g>
     <g id="line2d_30">
      <g>
       <use style="stroke:#000000;stroke-width:0.5;" x="149.5" xlink:href="#m5284c7e2a0" y="46.71875"/>
      </g>
     </g>
    </g>
    <g id="xtick_12">
     <g id="line2d_31">
      <g>
       <use style="stroke:#000000;stroke-width:0.5;" x="172.5" xlink:href="#m177f7580d0" y="345.71875"/>
      </g>
     </g>
     <g id="line2d_32">
      <g>
       <use style="stroke:#000000;stroke-width:0.5;" x="172.5" xlink:href="#m5284c7e2a0" y="46.71875"/>
      </g>
     </g>
    </g>
    <g id="xtick_13">
     <g id="line2d_33">
      <g>
       <use style="stroke:#000000;stroke-width:0.5;" x="195.5" xlink:href="#m177f7580d0" y="345.71875"/>
      </g>
     </g>
     <g id="line2d_34">
      <g>
       <use style="stroke:#000000;stroke-width:0.5;" x="195.5" xlink:href="#m5284c7e2a0" y="46.71875"/>
      </g>
     </g>
    </g>
    <g id="xtick_14">
     <g id="line2d_35">
      <g>
       <use style="stroke:#000000;stroke-width:0.5;" x="218.5" xlink:href="#m177f7580d0" y="345.71875"/>
      </g>
     </g>
     <g id="line2d_36">
      <g>
       <use style="stroke:#000000;stroke-width:0.5;" x="218.5" xlink:href="#m5284c7e2a0" y="46.71875"/>
      </g>
     </g>
    </g>
    <g id="xtick_15">
     <g id="line2d_37">
      <g>
       <use style="stroke:#000000;stroke-width:0.5;" x="241.5" xlink:href="#m177f7580d0" y="345.71875"/>
      </g>
     </g>
     <g id="line2d_38">
      <g>
       <use style="stroke:#000000;stroke-width:0.5;" x="241.5" xlink:href="#m5284c7e2a0" y="46.71875"/>
      </g>
     </g>
    </g>
    <g id="xtick_16">
     <g id="line2d_39">
      <g>
       <use style="stroke:#000000;stroke-width:0.5;" x="264.5" xlink:href="#m177f7580d0" y="345.71875"/>
      </g>
     </g>
     <g id="line2d_40">
      <g>
       <use style="stroke:#000000;stroke-width:0.5;" x="264.5" xlink:href="#m5284c7e2a0" y="46.71875"/>
      </g>
     </g>
    </g>
    <g id="xtick_17">
     <g id="line2d_41">
      <g>
       <use style="stroke:#000000;stroke-width:0.5;" x="287.5" xlink:href="#m177f7580d0" y="345.71875"/>
      </g>
     </g>
     <g id="line2d_42">
      <g>
       <use style="stroke:#000000;stroke-width:0.5;" x="287.5" xlink:href="#m5284c7e2a0" y="46.71875"/>
      </g>
     </g>
    </g>
    <g id="xtick_18">
     <g id="line2d_43">
      <g>
       <use style="stroke:#000000;stroke-width:0.5;" x="310.5" xlink:href="#m177f7580d0" y="345.71875"/>
      </g>
     </g>
     <g id="line2d_44">
      <g>
       <use style="stroke:#000000;stroke-width:0.5;" x="310.5" xlink:href="#m5284c7e2a0" y="46.71875"/>
      </g>
     </g>
    </g>
   </g>
   <g id="matplotlib.axis_2">
    <g id="ytick_1">
     <g id="line2d_45">
      <path clip-path="url(#pc879fe523b)" d="
M34.5 345.719
L310.5 345.719" style="fill:none;stroke:#000000;stroke-dasharray:1.000000,3.000000;stroke-dashoffset:0.0;stroke-width:0.5;"/>
     </g>
     <g id="line2d_46">
      <defs>
       <path d="
M0 0
L-4 0" id="mcb0005524f" style="stroke:#000000;stroke-width:0.5;"/>
      </defs>
      <g>
       <use style="stroke:#000000;stroke-width:0.5;" x="34.5" xlink:href="#mcb0005524f" y="345.71875"/>
      </g>
     </g>
     <g id="line2d_47">
      <defs>
       <path d="
M0 0
L4 0" id="m728421d6d4" style="stroke:#000000;stroke-width:0.5;"/>
      </defs>
      <g>
       <use style="stroke:#000000;stroke-width:0.5;" x="310.5" xlink:href="#m728421d6d4" y="345.71875"/>
      </g>
     </g>
     <g id="text_6">
      <!-- $10^{-\infty}$ -->
      <defs>
       <path d="
M50.7969 27.0625
C45.4062 33.8594 44.2031 35.3594 41.0938 37.8594
C35.5 42.3438 29.9062 44.1406 24.7969 44.1406
C13.0938 44.1406 5.5 33.1562 5.5 21.4688
C5.5 9.98438 12.9062 -1.09375 24.4062 -1.09375
C35.9062 -1.09375 44.2031 7.98438 49.0938 15.9688
C54.5 9.1875 55.7031 7.6875 58.7969 5.1875
C64.4062 0.703125 70 -1.09375 75.0938 -1.09375
C86.7969 -1.09375 94.4062 9.89062 94.4062 21.5625
C94.4062 33.0469 87 44.1406 75.5 44.1406
C64 44.1406 55.7031 35.0469 50.7969 27.0625
M53.4062 23.6562
C57.5 30.8594 64.9062 40.9375 76.2031 40.9375
C86.7969 40.9375 92.2031 30.5469 92.2031 21.5625
C92.2031 11.7656 85.5 3.6875 76.7031 3.6875
C70.9062 3.6875 66.4062 7.89062 64.2969 9.96875
C61.7969 12.6719 59.5 15.7656 53.4062 23.6562
M46.5 19.375
C42.4062 12.1875 35 2.09375 23.7031 2.09375
C13.0938 2.09375 7.70312 12.4844 7.70312 21.4688
C7.70312 31.25 14.4062 39.3438 23.2031 39.3438
C29 39.3438 33.5 35.1406 35.5938 33.0469
C38.0938 30.3594 40.4062 27.25 46.5 19.375" id="CMSY10-49"/>
      </defs>
      <g transform="translate(5.5 348.209410025)scale(0.1 -0.1)">
       <use transform="scale(0.996264009963)" xlink:href="#CMR17-49"/>
       <use transform="translate(45.6904771171 0.0)scale(0.996264009963)" xlink:href="#CMR17-48"/>
       <use transform="translate(91.3809542341 36.1536389419)scale(0.697381766617)" xlink:href="#CMSY10-0"/>
       <use transform="translate(145.621947482 36.1536389419)scale(0.697381766617)" xlink:href="#CMSY10-49"/>
      </g>
     </g>
    </g>
    <g id="ytick_2">
     <g id="line2d_48">
      <path clip-path="url(#pc879fe523b)" d="
M34.5 299.719
L310.5 299.719" style="fill:none;stroke:#000000;stroke-dasharray:1.000000,3.000000;stroke-dashoffset:0.0;stroke-width:0.5;"/>
     </g>
     <g id="line2d_49">
      <g>
       <use style="stroke:#000000;stroke-width:0.5;" x="34.5" xlink:href="#mcb0005524f" y="299.71875"/>
      </g>
     </g>
     <g id="line2d_50">
      <g>
       <use style="stroke:#000000;stroke-width:0.5;" x="310.5" xlink:href="#m728421d6d4" y="299.71875"/>
      </g>
     </g>
     <g id="text_7">
      <!-- $\;\;\vdots$ -->
      <defs>
       <path d="
M16.5938 4.07812
C16.5938 6.5625 14.5938 8.15625 12.5 8.15625
C10.5 8.15625 8.40625 6.5625 8.40625 4.07812
C8.40625 1.59375 10.4062 0 12.5 0
C14.5 0 16.5938 1.59375 16.5938 4.07812" id="CMR17-46"/>
      </defs>
      <g transform="translate(5.5 302.292426958)scale(0.1 -0.1)">
       <use transform="translate(0.0 18.3279681176)scale(0.996264009963)" xlink:href="#CMR17-46"/>
       <use transform="translate(0.0 9.1639840588)scale(0.996264009963)" xlink:href="#CMR17-46"/>
       <use transform="scale(0.996264009963)" xlink:href="#CMR17-46"/>
      </g>
     </g>
    </g>
    <g id="ytick_3">
     <g id="line2d_51">
      <path clip-path="url(#pc879fe523b)" d="
M34.5 253.719
L310.5 253.719" style="fill:none;stroke:#000000;stroke-dasharray:1.000000,3.000000;stroke-dashoffset:0.0;stroke-width:0.5;"/>
     </g>
     <g id="line2d_52">
      <g>
       <use style="stroke:#000000;stroke-width:0.5;" x="34.5" xlink:href="#mcb0005524f" y="253.71875"/>
      </g>
     </g>
     <g id="line2d_53">
      <g>
       <use style="stroke:#000000;stroke-width:0.5;" x="310.5" xlink:href="#m728421d6d4" y="253.71875"/>
      </g>
     </g>
     <g id="text_8">
      <!-- $10^{-16}$ -->
      <g transform="translate(5.5 256.209410025)scale(0.1 -0.1)">
       <use transform="scale(0.996264009963)" xlink:href="#CMR17-49"/>
       <use transform="translate(45.6904771171 0.0)scale(0.996264009963)" xlink:href="#CMR17-48"/>
       <use transform="translate(91.3809542341 36.1536389419)scale(0.697381766617)" xlink:href="#CMSY10-0"/>
       <use transform="translate(145.621947482 36.1536389419)scale(0.697381766617)" xlink:href="#CMR17-49"/>
       <use transform="translate(177.605129446 36.1536389419)scale(0.697381766617)" xlink:href="#CMR17-54"/>
      </g>
     </g>
    </g>
    <g id="ytick_4">
     <g id="line2d_54">
      <path clip-path="url(#pc879fe523b)" d="
M34.5 207.719
L310.5 207.719" style="fill:none;stroke:#000000;stroke-dasharray:1.000000,3.000000;stroke-dashoffset:0.0;stroke-width:0.5;"/>
     </g>
     <g id="line2d_55">
      <g>
       <use style="stroke:#000000;stroke-width:0.5;" x="34.5" xlink:href="#mcb0005524f" y="207.71875"/>
      </g>
     </g>
     <g id="line2d_56">
      <g>
       <use style="stroke:#000000;stroke-width:0.5;" x="310.5" xlink:href="#m728421d6d4" y="207.71875"/>
      </g>
     </g>
     <g id="text_9">
      <!-- $10^{-12}$ -->
      <g transform="translate(5.5 210.209410025)scale(0.1 -0.1)">
       <use transform="scale(0.996264009963)" xlink:href="#CMR17-49"/>
       <use transform="translate(45.6904771171 0.0)scale(0.996264009963)" xlink:href="#CMR17-48"/>
       <use transform="translate(91.3809542341 36.1536389419)scale(0.697381766617)" xlink:href="#CMSY10-0"/>
       <use transform="translate(145.621947482 36.1536389419)scale(0.697381766617)" xlink:href="#CMR17-49"/>
       <use transform="translate(177.605129446 36.1536389419)scale(0.697381766617)" xlink:href="#CMR17-50"/>
      </g>
     </g>
    </g>
    <g id="ytick_5">
     <g id="line2d_57">
      <path clip-path="url(#pc879fe523b)" d="
M34.5 161.719
L310.5 161.719" style="fill:none;stroke:#000000;stroke-dasharray:1.000000,3.000000;stroke-dashoffset:0.0;stroke-width:0.5;"/>
     </g>
     <g id="line2d_58">
      <g>
       <use style="stroke:#000000;stroke-width:0.5;" x="34.5" xlink:href="#mcb0005524f" y="161.71875"/>
      </g>
     </g>
     <g id="line2d_59">
      <g>
       <use style="stroke:#000000;stroke-width:0.5;" x="310.5" xlink:href="#m728421d6d4" y="161.71875"/>
      </g>
     </g>
     <g id="text_10">
      <!-- $10^{-8}$ -->
      <g transform="translate(5.5 164.209410025)scale(0.1 -0.1)">
       <use transform="scale(0.996264009963)" xlink:href="#CMR17-49"/>
       <use transform="translate(45.6904771171 0.0)scale(0.996264009963)" xlink:href="#CMR17-48"/>
       <use transform="translate(91.3809542341 36.1536389419)scale(0.697381766617)" xlink:href="#CMSY10-0"/>
       <use transform="translate(145.621947482 36.1536389419)scale(0.697381766617)" xlink:href="#CMR17-56"/>
      </g>
     </g>
    </g>
    <g id="ytick_6">
     <g id="line2d_60">
      <path clip-path="url(#pc879fe523b)" d="
M34.5 115.719
L310.5 115.719" style="fill:none;stroke:#000000;stroke-dasharray:1.000000,3.000000;stroke-dashoffset:0.0;stroke-width:0.5;"/>
     </g>
     <g id="line2d_61">
      <g>
       <use style="stroke:#000000;stroke-width:0.5;" x="34.5" xlink:href="#mcb0005524f" y="115.71875"/>
      </g>
     </g>
     <g id="line2d_62">
      <g>
       <use style="stroke:#000000;stroke-width:0.5;" x="310.5" xlink:href="#m728421d6d4" y="115.71875"/>
      </g>
     </g>
     <g id="text_11">
      <!-- $10^{-4}$ -->
      <g transform="translate(5.5 118.209410025)scale(0.1 -0.1)">
       <use transform="scale(0.996264009963)" xlink:href="#CMR17-49"/>
       <use transform="translate(45.6904771171 0.0)scale(0.996264009963)" xlink:href="#CMR17-48"/>
       <use transform="translate(91.3809542341 36.1536389419)scale(0.697381766617)" xlink:href="#CMSY10-0"/>
       <use transform="translate(145.621947482 36.1536389419)scale(0.697381766617)" xlink:href="#CMR17-52"/>
      </g>
     </g>
    </g>
    <g id="ytick_7">
     <g id="line2d_63">
      <path clip-path="url(#pc879fe523b)" d="
M34.5 69.7188
L310.5 69.7188" style="fill:none;stroke:#000000;stroke-dasharray:1.000000,3.000000;stroke-dashoffset:0.0;stroke-width:0.5;"/>
     </g>
     <g id="line2d_64">
      <g>
       <use style="stroke:#000000;stroke-width:0.5;" x="34.5" xlink:href="#mcb0005524f" y="69.71875"/>
      </g>
     </g>
     <g id="line2d_65">
      <g>
       <use style="stroke:#000000;stroke-width:0.5;" x="310.5" xlink:href="#m728421d6d4" y="69.71875"/>
      </g>
     </g>
     <g id="text_12">
      <!-- $10^{0}$ -->
      <g transform="translate(5.5 72.2094100249)scale(0.1 -0.1)">
       <use transform="scale(0.996264009963)" xlink:href="#CMR17-49"/>
       <use transform="translate(45.6904771171 0.0)scale(0.996264009963)" xlink:href="#CMR17-48"/>
       <use transform="translate(91.3809542341 36.1536389419)scale(0.697381766617)" xlink:href="#CMR17-48"/>
      </g>
     </g>
    </g>
    <g id="ytick_8">
     <g id="line2d_66">
      <defs>
       <path d="
M0 0
L2 0" id="mf0c55a9a47" style="stroke:#000000;stroke-width:0.5;"/>
      </defs>
      <g>
       <use style="stroke:#000000;stroke-width:0.5;" x="34.5" xlink:href="#mf0c55a9a47" y="345.71875"/>
      </g>
     </g>
     <g id="line2d_67">
      <defs>
       <path d="
M0 0
L-2 0" id="ma4f294b3af" style="stroke:#000000;stroke-width:0.5;"/>
      </defs>
      <g>
       <use style="stroke:#000000;stroke-width:0.5;" x="310.5" xlink:href="#ma4f294b3af" y="345.71875"/>
      </g>
     </g>
    </g>
    <g id="ytick_9">
     <g id="line2d_68">
      <g>
       <use style="stroke:#000000;stroke-width:0.5;" x="34.5" xlink:href="#mf0c55a9a47" y="322.71875"/>
      </g>
     </g>
     <g id="line2d_69">
      <g>
       <use style="stroke:#000000;stroke-width:0.5;" x="310.5" xlink:href="#ma4f294b3af" y="322.71875"/>
      </g>
     </g>
    </g>
    <g id="ytick_10">
     <g id="line2d_70">
      <g>
       <use style="stroke:#000000;stroke-width:0.5;" x="34.5" xlink:href="#mf0c55a9a47" y="299.71875"/>
      </g>
     </g>
     <g id="line2d_71">
      <g>
       <use style="stroke:#000000;stroke-width:0.5;" x="310.5" xlink:href="#ma4f294b3af" y="299.71875"/>
      </g>
     </g>
    </g>
    <g id="ytick_11">
     <g id="line2d_72">
      <g>
       <use style="stroke:#000000;stroke-width:0.5;" x="34.5" xlink:href="#mf0c55a9a47" y="276.71875"/>
      </g>
     </g>
     <g id="line2d_73">
      <g>
       <use style="stroke:#000000;stroke-width:0.5;" x="310.5" xlink:href="#ma4f294b3af" y="276.71875"/>
      </g>
     </g>
    </g>
    <g id="ytick_12">
     <g id="line2d_74">
      <g>
       <use style="stroke:#000000;stroke-width:0.5;" x="34.5" xlink:href="#mf0c55a9a47" y="253.71875"/>
      </g>
     </g>
     <g id="line2d_75">
      <g>
       <use style="stroke:#000000;stroke-width:0.5;" x="310.5" xlink:href="#ma4f294b3af" y="253.71875"/>
      </g>
     </g>
    </g>
    <g id="ytick_13">
     <g id="line2d_76">
      <g>
       <use style="stroke:#000000;stroke-width:0.5;" x="34.5" xlink:href="#mf0c55a9a47" y="230.71875"/>
      </g>
     </g>
     <g id="line2d_77">
      <g>
       <use style="stroke:#000000;stroke-width:0.5;" x="310.5" xlink:href="#ma4f294b3af" y="230.71875"/>
      </g>
     </g>
    </g>
    <g id="ytick_14">
     <g id="line2d_78">
      <g>
       <use style="stroke:#000000;stroke-width:0.5;" x="34.5" xlink:href="#mf0c55a9a47" y="207.71875"/>
      </g>
     </g>
     <g id="line2d_79">
      <g>
       <use style="stroke:#000000;stroke-width:0.5;" x="310.5" xlink:href="#ma4f294b3af" y="207.71875"/>
      </g>
     </g>
    </g>
    <g id="ytick_15">
     <g id="line2d_80">
      <g>
       <use style="stroke:#000000;stroke-width:0.5;" x="34.5" xlink:href="#mf0c55a9a47" y="184.71875"/>
      </g>
     </g>
     <g id="line2d_81">
      <g>
       <use style="stroke:#000000;stroke-width:0.5;" x="310.5" xlink:href="#ma4f294b3af" y="184.71875"/>
      </g>
     </g>
    </g>
    <g id="ytick_16">
     <g id="line2d_82">
      <g>
       <use style="stroke:#000000;stroke-width:0.5;" x="34.5" xlink:href="#mf0c55a9a47" y="161.71875"/>
      </g>
     </g>
     <g id="line2d_83">
      <g>
       <use style="stroke:#000000;stroke-width:0.5;" x="310.5" xlink:href="#ma4f294b3af" y="161.71875"/>
      </g>
     </g>
    </g>
    <g id="ytick_17">
     <g id="line2d_84">
      <g>
       <use style="stroke:#000000;stroke-width:0.5;" x="34.5" xlink:href="#mf0c55a9a47" y="138.71875"/>
      </g>
     </g>
     <g id="line2d_85">
      <g>
       <use style="stroke:#000000;stroke-width:0.5;" x="310.5" xlink:href="#ma4f294b3af" y="138.71875"/>
      </g>
     </g>
    </g>
    <g id="ytick_18">
     <g id="line2d_86">
      <g>
       <use style="stroke:#000000;stroke-width:0.5;" x="34.5" xlink:href="#mf0c55a9a47" y="115.71875"/>
      </g>
     </g>
     <g id="line2d_87">
      <g>
       <use style="stroke:#000000;stroke-width:0.5;" x="310.5" xlink:href="#ma4f294b3af" y="115.71875"/>
      </g>
     </g>
    </g>
    <g id="ytick_19">
     <g id="line2d_88">
      <g>
       <use style="stroke:#000000;stroke-width:0.5;" x="34.5" xlink:href="#mf0c55a9a47" y="92.71875"/>
      </g>
     </g>
     <g id="line2d_89">
      <g>
       <use style="stroke:#000000;stroke-width:0.5;" x="310.5" xlink:href="#ma4f294b3af" y="92.71875"/>
      </g>
     </g>
    </g>
    <g id="ytick_20">
     <g id="line2d_90">
      <g>
       <use style="stroke:#000000;stroke-width:0.5;" x="34.5" xlink:href="#mf0c55a9a47" y="69.71875"/>
      </g>
     </g>
     <g id="line2d_91">
      <g>
       <use style="stroke:#000000;stroke-width:0.5;" x="310.5" xlink:href="#ma4f294b3af" y="69.71875"/>
      </g>
     </g>
    </g>
    <g id="ytick_21">
     <g id="line2d_92">
      <g>
       <use style="stroke:#000000;stroke-width:0.5;" x="34.5" xlink:href="#mf0c55a9a47" y="46.71875"/>
      </g>
     </g>
     <g id="line2d_93">
      <g>
       <use style="stroke:#000000;stroke-width:0.5;" x="310.5" xlink:href="#ma4f294b3af" y="46.71875"/>
      </g>
     </g>
    </g>
   </g>
   <g id="patch_3">
    <path d="
M34.5 46.7188
L310.5 46.7188" style="fill:none;stroke:#000000;"/>
   </g>
   <g id="patch_4">
    <path d="
M310.5 345.719
L310.5 46.7188" style="fill:none;stroke:#000000;"/>
   </g>
   <g id="patch_5">
    <path d="
M34.5 345.719
L310.5 345.719" style="fill:none;stroke:#000000;"/>
   </g>
   <g id="patch_6">
    <path d="
M34.5 345.719
L34.5 46.7188" style="fill:none;stroke:#000000;"/>
   </g>
   <g id="text_13">
    <!-- Graph of $h \mapsto [|\mathrm{CSD}(\exp, 0, h) -\exp'(0)|]$ -->
    <defs>
     <path d="
M83.4062 23
C77.9062 18.7969 75.2031 14.7031 74.4062 13.4062
C69.9062 6.5 69.0938 0.203125 69.0938 0.09375
C69.0938 -1.09375 70.2969 -1.09375 71.0938 -1.09375
C72.7969 -1.09375 72.9062 -0.90625 73.2969 0.90625
C75.5938 10.7031 81.5 19.0938 92.7969 23.7031
C94 24.0938 94.2969 24.2969 94.2969 25
C94.2969 25.7031 93.7031 26 93.5 26.0938
C89.0938 27.7969 77 32.7969 73.2031 49.5938
C72.9062 50.7969 72.7969 51.0938 71.0938 51.0938
C70.2969 51.0938 69.0938 51.0938 69.0938 49.9062
C69.0938 49.7031 70 43.4062 74.2031 36.7031
C76.2031 33.7031 79.0938 30.2031 83.4062 27
L9.09375 27
C7.29688 27 5.5 27 5.5 25
C5.5 23 7.29688 23 9.09375 23
z
" id="CMSY10-33"/>
     <path d="
M43.7969 68.1094
C43.7969 69.8906 43.7031 70 43.0938 70
C42.5 70 42.2969 69.5938 41.9062 68.7031
L38.9062 62.125
C35.0938 67.5469 29.2969 70 23 70
C12.7969 70 4.59375 61.9531 4.59375 51.7969
C4.59375 48.7344 5.29688 44.3438 8.70312 40.1719
C12.4062 35.6094 15.9062 34.8125 23.9062 32.7188
C26.9062 31.9219 31.9062 30.625 32.9062 30.2344
C38.5938 27.8438 41.5938 21.8906 41.5938 16.3125
C41.5938 9.14062 36.5 1.5 27.7969 1.5
C17.0938 1.5 7.09375 7.46875 6.40625 21.4062
C6.29688 23 6.20312 23.0938 5.5 23.0938
C4.70312 23.0938 4.59375 23 4.59375 21
L4.59375 0.890625
C4.59375 -0.890625 4.70312 -1 5.29688 -1
C6 -1 6.20312 -0.5 7.59375 2.59375
C7.70312 2.89062 7.70312 3.09375 9.59375 6.875
C14.5938 0.375 23 -1 27.7969 -1
C38.7031 -1 46.4062 8.04688 46.4062 18.5781
C46.4062 23.7344 44.5 27.7031 43.4062 29.5
C39.2031 35.8594 34.7031 37.0469 29.9062 38.2344
C29.2031 38.5469 29 38.5469 23.4062 39.9375
C18 41.3281 15.7031 42.0312 13.2031 44.7188
C10.4062 47.7969 9.40625 50.9844 9.40625 54.1719
C9.40625 60.6406 14.5938 67.7031 23.0938 67.7031
C33.7031 67.7031 40.2969 60.2344 41.7969 47.7969
C42.0938 46 42.2031 45.9062 42.9062 45.9062
C43.7969 45.9062 43.7969 46.2031 43.7969 47.8906
z
" id="CMR17-83"/>
     <path d="
M15.9062 71.4062
C15.9062 73.2031 15.9062 75 13.9062 75
C11.9062 75 11.9062 73.2031 11.9062 71.4062
L11.9062 -21.4062
C11.9062 -23.2031 11.9062 -25 13.9062 -25
C15.9062 -25 15.9062 -23.2031 15.9062 -21.4062
z
" id="CMSY10-106"/>
     <path d="
M15 23.3906
C15 33 19.0938 42 26.5938 42
C27.2969 42 28 41.9062 28.7031 41.5938
C28.7031 41.5938 26.5 40.8906 26.5 38.3125
C26.5 35.9062 28.4062 34.9062 29.9062 34.9062
C31.0938 34.9062 33.2969 35.6094 33.2969 38.4062
C33.2969 41.6094 30.0938 43.5938 26.7031 43.5938
C19.0938 43.5938 15.7969 36.2031 14.7969 32.7031
L14.7031 32.7031
L14.7031 43.5938
L3.09375 42.5
L3.09375 39.9062
C9 39.9062 9.90625 39.2969 9.90625 34.5
L9.90625 6.6875
C9.90625 2.875 9.5 2.39062 3.09375 2.39062
L3.09375 -0.203125
C5.5 0 10.0938 0 12.7031 0
C15.5938 0 20.7031 0 23.4062 -0.203125
L23.4062 2.39062
C16.2031 2.39062 15 2.39062 15 6.875
z
" id="CMR17-114"/>
     <path d="
M22 -16.6094
C15.5938 -16.6094 15.2031 -16.2031 15.2031 -12.3281
L15.2031 6.28125
C18.0938 2.09375 22.2969 -0.59375 27.5938 -0.59375
C37.5938 -0.59375 47.7031 8.17188 47.7031 21.6875
C47.7031 34.2344 39 43.7812 28.7031 43.7812
C22.7031 43.7812 17.7969 40.5 15 36.5312
L15 43.7812
L3.09375 42.6875
L3.09375 40.1094
C9 40.1094 9.90625 39.5 9.90625 34.7344
L9.90625 -12.3281
C9.90625 -16.1094 9.5 -16.6094 3.09375 -16.6094
L3.09375 -19.1875
C5.5 -19 9.90625 -19 12.5 -19
C15.0938 -19 19.5938 -19 22 -19.1875
z

M15.2031 31.4375
C15.2031 32.8438 15.2031 34.9219 19.0938 38.6094
C19.5938 39.0156 23 42 28 42
C35.2969 42 41.2969 32.9375 41.2969 21.5938
C41.2969 10.25 34.9062 1 27 1
C23.4062 1 19.5 2.6875 16.5 7.375
C15.2031 9.5625 15.2031 10.1562 15.2031 11.75
z
" id="CMR17-112"/>
     <path d="
M43.0938 21.1875
C43.0938 34 33.7969 44 22.9062 44
C12 44 2.70312 34 2.70312 21.1875
C2.70312 8.60938 12 -1 22.9062 -1
C33.7969 -1 43.0938 8.60938 43.0938 21.1875
M22.9062 0.796875
C18.2031 0.796875 14.2031 3.59375 11.9062 7.5
C9.40625 11.9844 9.09375 17.5938 9.09375 22
C9.09375 26.2031 9.29688 31.4062 11.9062 35.9062
C13.9062 39.2031 17.7969 42.4062 22.9062 42.4062
C27.4062 42.4062 31.2031 39.9062 33.5938 36.4062
C36.7031 31.7031 36.7031 25.1094 36.7031 22
C36.7031 18.0938 36.5 12.1094 33.7969 7.29688
C31 2.70312 26.7031 0.796875 22.9062 0.796875" id="CMR17-111"/>
     <path d="
M25.2969 47.5
C25.7969 48.7031 26.2031 49.5938 26.2031 50.5938
C26.2031 53.5 23.5938 55.9062 20.5 55.9062
C17.7031 55.9062 15.9062 54 15.2031 51.4062
L3.29688 7.70312
C3.29688 7.5 2.90625 6.40625 2.90625 6.29688
C2.90625 5.20312 5.5 4.5 6.29688 4.5
C6.90625 4.5 7 4.79688 7.59375 6.09375
z
" id="CMSY10-48"/>
     <path d="
M28.0938 66.5156
C28.2031 66.9219 28.4062 67.5156 28.4062 68
C28.4062 69 27.4062 69 27.2031 69
C27.0938 69 22.2031 68.5312 21.7031 68.3906
C20 68.3906 18.5 68.0938 16.7031 68.0938
C14.2031 67.8906 13.5 67.7969 13.5 66
C13.5 65 14.2969 65 15.7031 65
C20.5938 65 20.7031 64.0938 20.7031 63.0938
C20.7031 62.5156 20.5 61.7188 20.4062 61.4219
L5.90625 3.875
C5.5 2.375 5.5 2.1875 5.5 1.57812
C5.5 -0.59375 7.20312 -1 8.20312 -1
C9.90625 -1 11.2031 0.296875 11.7031 1.39062
L16.2031 19.4531
C16.7031 21.6562 17.2969 23.75 17.7969 25.9375
C18.9062 30.1406 18.9062 30.2344 20.7969 33.125
C22.7031 36.0156 27.2031 42.0156 34.9062 42.0156
C38.9062 42.0156 40.2969 39.0156 40.2969 35.0312
C40.2969 29.4375 36.4062 18.5625 34.2031 12.5781
C33.2969 10.1719 32.7969 8.875 32.7969 7.07812
C32.7969 2.59375 35.9062 -1 40.7031 -1
C50 -1 53.5 13.6719 53.5 14.2656
C53.5 14.7656 53.0938 15.1719 52.5 15.1719
C51.5938 15.1719 51.5 14.875 51 13.1719
C48.7031 5.1875 45 1 41 1
C40 1 38.4062 1 38.4062 4.20312
C38.4062 6.8125 39.5938 10 40 11.0938
C41.7969 15.9062 46.2969 27.7031 46.2969 33.5156
C46.2969 39.5 42.7969 44 35.2031 44
C29.5 44 24.5 41.3125 20.4062 36.125
z
" id="CMMI12-104"/>
     <path d="
M62.0938 19.2656
C62.0938 23.0156 62.4062 23.5156 68.5938 23.5156
L68.5938 26.0938
C66.2031 26 60.7969 26 58.0938 26
C55.2969 26 47.5 26 43.7031 26
L43.7031 23.5156
L46.7031 23.5156
C55.2969 23.5156 55.5 22.4062 55.5 18.7656
L55.5 12.0938
C55.5 0.984375 42.5 0.984375 39.4062 0.984375
C29.0938 0.984375 12.2031 8 12.2031 33.7969
C12.2031 59.5781 28.7969 66.5 38.5 66.5
C49.7969 66.5 58 56.75 59.9062 42.9219
C60.0938 41.7188 60.0938 41.5156 61 41.5156
C62.0938 41.5156 62.0938 41.7188 62.0938 43.5156
L62.0938 67.1094
C62.0938 68.8906 62 69 61.4062 69
C61 69 60.9062 68.8906 60.2031 67.7031
L55.7969 59.3281
C50.9062 65.4531 44.9062 69 37.2031 69
C20.0938 69 4.59375 54 4.59375 33.5469
C4.59375 13.2031 19.7969 -2 37.4062 -2
C45.5 -2 53.4062 0.875 56.5 6.51562
C58.2031 2.46875 61 -0.3125 61.5 -0.3125
C62 -0.3125 62.0938 -0.203125 62.0938 1.5625
z
" id="CMR17-71"/>
     <path d="
M36 25.8281
C36 32.375 36 35.8438 31.7969 39.7344
C28.0938 43 23.7969 44 20.4062 44
C12.5 44 6.79688 37.6094 6.79688 30.7969
C6.79688 27 9.79688 27 10.4062 27
C11.7031 27 14 27.7812 14 30.5312
C14 33 12.0938 34.0781 10.4062 34.0781
C10 34.0781 9.5 33.9688 9.20312 33.875
C11.2969 40.5 16.7031 42.4062 20.2031 42.4062
C25.2031 42.4062 30.7031 37.9531 30.7031 29.4531
L30.7031 25
C24.7969 25 17.7031 24.2031 12.0938 21.2031
C5.79688 17.7031 4 12.7031 4 8.90625
C4 1.20312 13 -1 18.2969 -1
C23.7969 -1 28.9062 2.17188 31.0938 7.98438
C31.2969 3.64062 34.0938 -0.28125 38.5 -0.28125
C40.5938 -0.28125 45.9062 1.09375 45.9062 8.85938
L45.9062 14.375
L44.0938 14.375
L44.0938 8.78125
C44.0938 2.78125 41.4062 2 40.0938 2
C36 2 36 7.15625 36 11.5312
z

M30.7031 13.5938
C30.7031 4.95312 24.5 0.59375 19 0.59375
C14 0.59375 10.0938 4.29688 10.0938 8.90625
C10.0938 11.8906 11.4062 17.1875 17.2031 20.3906
C22 23.0938 27.5 23.5 30.7031 23.5
z
" id="CMR17-97"/>
     <path d="
M23.5 -25
L23.5 -21.5156
L14.0938 -21.5156
L14.0938 71
L23.5 71
L23.5 74.4844
L10.5938 74.4844
L10.5938 -25
z
" id="CMR17-91"/>
     <path d="
M14.2969 74.4844
L1.40625 74.4844
L1.40625 71
L10.7969 71
L10.7969 -21.5156
L1.40625 -21.5156
L1.40625 -25
L14.2969 -25
z
" id="CMR17-93"/>
     <path d="
M26 23.0938
C29 26.9844 32.4062 31.3594 35.2031 34.625
C38.5 38.4062 42.2969 40 46.7031 40
L46.7031 42.5938
C45 42.5938 41.5 42.5938 39.7031 42.5938
C37 42.5938 33.9062 42.5938 31.5938 42.6875
L31.5938 40.0938
C33 39.8906 33.7969 38.8906 33.7969 37.5
C33.7969 35.7031 32.7969 34.6094 32.2969 33.9219
L24.9062 24.5781
L16.0938 36.0312
C15.2031 37.125 15.2031 37.3125 15.2031 37.8125
C15.2031 39.0156 16.2031 40 17.9062 40
L17.9062 42.6875
C15.5 42.5938 11.2031 42.5938 8.70312 42.5938
C6 42.5938 2.79688 42.5938 0.59375 42.6875
L0.59375 40
C6 40 7.20312 39.5938 9.59375 36.6094
L21.0938 21.7969
C21.2969 21.5938 21.7969 21 21.7969 20.7031
C21.7969 20.2969 13.0938 9.67188 12 8.28125
C7.5 2.89062 2.79688 2.5 0.09375 2.5
L0.09375 0
C1.79688 0 5.29688 0 7.09375 0
C9.09375 0 13.5 0 15.2969 -0.09375
L15.2969 2.5
C14.7031 2.59375 13.0938 2.79688 13.0938 5.07812
C13.0938 6.875 13.9062 7.96875 14.7969 9.15625
L23.0938 19.3125
L31.7969 8
C32.5938 6.90625 33.7969 5.40625 33.7969 4.70312
C33.7969 3.29688 32.5938 2.5 31 2.5
L31 -0.09375
C33.4062 0 37.7031 0 40.2031 0
C42.9062 0 46.0938 0 48.2969 -0.09375
L48.2969 2.5
C43.2969 2.5 41.7969 2.6875 39.4062 5.78125
z
" id="CMR17-120"/>
     <path d="
M41.5 30.2031
C41.5 35.2969 40.5 43.5938 28.7031 43.5938
C20.5 43.5938 16.5 37 15.2969 33.7031
L15.2031 33.7031
L15.2031 68.6875
L3.29688 67.5938
L3.29688 65
C9.20312 65 10.0938 64.4062 10.0938 59.6406
L10.0938 6.65625
C10.0938 2.875 9.70312 2.39062 3.29688 2.39062
L3.29688 -0.203125
C5.70312 0 10.0938 0 12.7031 0
C15.2969 0 19.7969 0 22.2031 -0.203125
L22.2031 2.39062
C15.7969 2.39062 15.4062 2.78125 15.4062 6.6875
L15.4062 25.9062
C15.4062 35.1094 21 42 28 42
C35.4062 42 36.2031 35.4062 36.2031 30.5938
L36.2031 6.6875
C36.2031 2.875 35.7969 2.39062 29.4062 2.39062
L29.4062 -0.203125
C31.7969 0 36.2031 0 38.7969 0
C41.4062 0 45.9062 0 48.2969 -0.203125
L48.2969 2.39062
C41.9062 2.39062 41.5 2.78125 41.5 6.6875
z
" id="CMR17-104"/>
     <path d="
M38.0938 23
C38.5 23.4062 38.5 23.6094 38.5 24.625
C38.5 34.9688 33.0938 44 21.7031 44
C11.0938 44 2.70312 33.8906 2.70312 21.6094
C2.70312 8.60938 12.2031 -1 22.7969 -1
C34 -1 38.4062 9.46875 38.4062 11.5469
C38.4062 12.25 37.7969 12.25 37.5938 12.25
C36.9062 12.25 36.7969 12.0469 36.4062 10.875
C34.2031 4.14062 28.7031 0.796875 23.5 0.796875
C19.2031 0.796875 14.9062 3.17188 12.2031 7.5
C9.09375 12.5469 9.09375 18.375 9.09375 23
z

M9.20312 24.5
C9.90625 39.1406 17.5938 42.4062 21.5938 42.4062
C28.4062 42.4062 33 35.8906 33.0938 24.5
z
" id="CMR17-101"/>
     <path d="
M15.2969 40
L26.7031 40
L26.7031 42.5781
L15.0938 42.5781
L15.0938 54.5938
C15.0938 62.8438 19.2969 68 23.5938 68
C24.9062 68 26.4062 67.6094 27.4062 66.9062
C26.5938 66.7031 24.5 66.0156 24.5 63.5312
C24.5 60.9531 26.5 60.1562 27.9062 60.1562
C29.2969 60.1562 31.2969 60.9531 31.2969 63.5469
C31.2969 67.3125 27.7031 69.5938 23.7031 69.5938
C18 69.5938 10.2031 64.9375 10.2031 54.3906
L10.2031 42.5781
L2.20312 42.5781
L2.20312 40
L10.2031 40
L10.2031 6.67188
C10.2031 2.875 9.79688 2.39062 3.40625 2.39062
L3.40625 -0.203125
C5.79688 0 10.4062 0 13 0
C15.9062 0 21 0 23.7031 -0.203125
L23.7031 2.39062
C16.5 2.39062 15.2969 2.39062 15.2969 6.85938
z
" id="CMR17-102"/>
     <path d="
M5.20312 68
L5.20312 65.4062
C12.0938 65.4062 13.2031 65.4062 13.2031 60.9375
L13.2031 7.0625
C13.2031 2.59375 12.0938 2.59375 5.20312 2.59375
L5.20312 0
L37 0
C53.0938 0 66 14.7344 66 33.4531
C66 52.2812 53.2969 68 37 68
z

M23.7969 2.59375
C19.7969 2.59375 19.5938 3.07812 19.5938 6.46875
L19.5938 61.5312
C19.5938 64.9219 19.7969 65.4062 23.7969 65.4062
L35 65.4062
C43.2969 65.4062 58.5938 60.5312 58.5938 33.4531
C58.5938 19.4062 54.5 13.7344 52.5938 11.0469
C50.2031 7.96875 44.5 2.59375 35 2.59375
z
" id="CMR17-68"/>
     <path d="
M9.5 22.7812
C10.0938 22.7812 12.2969 22.7812 12.2969 24.7812
C12.2969 26.7812 10.0938 26.7812 9.5 26.7812
L9.5 39.875
C9.5 41.4844 9.5 43.375 7.5 43.375
C5.5 43.375 5.5 41.4844 5.5 39.875
L5.5 9.6875
C5.5 8.07812 5.5 6.1875 7.5 6.1875
C9.5 6.1875 9.5 8.07812 9.5 9.6875
z
" id="CMSY10-55"/>
     <path d="
M62.0938 67.1094
C62.0938 68.8906 62 69 61.4062 69
C61 69 60.9062 68.8906 60.2031 67.7031
L55.7969 59.3281
C50.9062 65.4531 44.9062 69 37.2031 69
C20.0938 69 4.59375 54 4.59375 33.5469
C4.59375 12.9062 20.0938 -2 37.2969 -2
C52.5938 -2 62.0938 11.4062 62.0938 22.8438
C62.0938 23.8281 62.0938 24.2344 61.2031 24.2344
C60.4062 24.2344 60.4062 23.9375 60.2969 23.0469
C59.5 9.14062 49.5 0.59375 38.7031 0.59375
C28.5 0.59375 12.2031 7.73438 12.2031 33.5938
C12.2031 59.5469 28.7969 66.5 38.5 66.5
C49.7969 66.5 58 56.75 59.9062 42.9219
C60.0938 41.7188 60.0938 41.5156 61 41.5156
C62.0938 41.5156 62.0938 41.7188 62.0938 43.5156
z
" id="CMR17-67"/>
     <path d="
M26.2969 24.6719
C26.2969 31.8438 25.5938 43.9844 19.5938 56.8281
C14.7969 67.1875 6.59375 74.4531 5.40625 74.4531
C5.09375 74.4531 4.70312 74.3438 4.70312 73.8594
C4.70312 73.6719 4.79688 73.5625 4.90625 73.3594
C9.70312 68.3906 21.9062 55.75 21.9062 24.7969
C21.9062 -6.28125 9.79688 -18.9219 4.90625 -23.9062
C4.79688 -24.0938 4.70312 -24.2031 4.70312 -24.3906
C4.70312 -24.8906 5.09375 -25 5.40625 -25
C6.5 -25 15 -17.625 19.9062 -6.67188
C24.9062 4.375 26.2969 15.125 26.2969 24.6719" id="CMR17-41"/>
     <path d="
M30.5938 -24.4062
C30.5938 -24.3125 30.5938 -24.1094 30.2969 -23.8125
C25.7031 -19.1406 13.4062 -6.39062 13.4062 24.6719
C13.4062 55.75 25.5 68.3906 30.4062 73.3594
C30.4062 73.4688 30.5938 73.6719 30.5938 73.9531
C30.5938 74.25 30.2969 74.4531 29.9062 74.4531
C28.7969 74.4531 20.2969 67.0781 15.4062 56.125
C10.4062 45.0781 9 34.3281 9 24.7812
C9 17.6094 9.70312 5.46875 15.7031 -7.375
C20.5 -17.7344 28.7031 -25 29.9062 -25
C30.4062 -25 30.5938 -24.7969 30.5938 -24.4062" id="CMR17-40"/>
     <path d="
M19.5 -0.484375
C19.5 5.35938 17.5938 9.67188 13.5 9.67188
C10.2969 9.67188 8.70312 7.07812 8.70312 4.89062
C8.70312 2.6875 10.2031 0 13.5938 0
C14.9062 0 16 0.40625 16.9062 1.29688
C17.0938 1.5 17.2031 1.5 17.2969 1.5
C17.5 1.5 17.5 0.078125 17.5 -0.421875
C17.5 -3.75 16.9062 -10.2969 11.0938 -16.875
C10 -18.0781 10 -18.2812 10 -18.4844
C10 -19 10.5 -19.5 11 -19.5
C11.7969 -19.5 19.5 -12.0469 19.5 -0.484375" id="CMMI12-59"/>
    </defs>
    <g transform="translate(82.2227711755 41.71875)scale(0.1 -0.1)">
     <use transform="scale(0.996264009963)" xlink:href="#CMR17-71"/>
     <use transform="translate(72.3553459196 0.0)scale(0.996264009963)" xlink:href="#CMR17-114"/>
     <use transform="translate(107.636113719 0.0)scale(0.996264009963)" xlink:href="#CMR17-97"/>
     <use transform="translate(153.326590836 0.0)scale(0.996264009963)" xlink:href="#CMR17-112"/>
     <use transform="translate(204.221960616 0.0)scale(0.996264009963)" xlink:href="#CMR17-104"/>
     <use transform="translate(285.193296744 0.0)scale(0.996264009963)" xlink:href="#CMR17-111"/>
     <use transform="translate(330.883773861 0.0)scale(0.996264009963)" xlink:href="#CMR17-102"/>
     <use transform="translate(388.433252622 0.0)scale(0.996264009963)" xlink:href="#CMMI12-104"/>
     <use transform="translate(472.261885362 0.0)scale(0.996264009963)" xlink:href="#CMSY10-55"/>
     <use transform="translate(472.261885362 0.0)scale(0.996264009963)" xlink:href="#CMSY10-33"/>
     <use transform="translate(599.562568712 0.0)scale(0.996264009963)" xlink:href="#CMR17-91"/>
     <use transform="translate(624.433627194 0.0)scale(0.996264009963)" xlink:href="#CMSY10-106"/>
     <use transform="translate(652.107711925 0.0)scale(0.996264009963)" xlink:href="#CMR17-67"/>
     <use transform="translate(718.617592475 0.0)scale(0.996264009963)" xlink:href="#CMR17-83"/>
     <use transform="translate(769.512962256 0.0)scale(0.996264009963)" xlink:href="#CMR17-68"/>
     <use transform="translate(839.906518159 0.0)scale(0.996264009963)" xlink:href="#CMR17-40"/>
     <use transform="translate(875.187285959 0.0)scale(0.996264009963)" xlink:href="#CMR17-101"/>
     <use transform="translate(915.672946422 0.0)scale(0.996264009963)" xlink:href="#CMR17-120"/>
     <use transform="translate(963.965862269 0.0)scale(0.996264009963)" xlink:href="#CMR17-112"/>
     <use transform="translate(1014.86123205 0.0)scale(0.996264009963)" xlink:href="#CMMI12-59"/>
     <use transform="translate(1058.56281437 0.0)scale(0.996264009963)" xlink:href="#CMR17-48"/>
     <use transform="translate(1104.25329149 0.0)scale(0.996264009963)" xlink:href="#CMMI12-59"/>
     <use transform="translate(1147.95487381 0.0)scale(0.996264009963)" xlink:href="#CMMI12-104"/>
     <use transform="translate(1204.10949783 0.0)scale(0.996264009963)" xlink:href="#CMR17-41"/>
     <use transform="translate(1261.52947261 0.0)scale(0.996264009963)" xlink:href="#CMSY10-0"/>
     <use transform="translate(1361.15614724 0.0)scale(0.996264009963)" xlink:href="#CMR17-101"/>
     <use transform="translate(1401.6418077 0.0)scale(0.996264009963)" xlink:href="#CMR17-120"/>
     <use transform="translate(1449.93472355 0.0)scale(0.996264009963)" xlink:href="#CMR17-112"/>
     <use transform="translate(1500.83009333 36.1536389419)scale(0.697381766617)" xlink:href="#CMSY10-48"/>
     <use transform="translate(1520.50618591 0.0)scale(0.996264009963)" xlink:href="#CMR17-40"/>
     <use transform="translate(1555.78695371 0.0)scale(0.996264009963)" xlink:href="#CMR17-48"/>
     <use transform="translate(1601.47743083 0.0)scale(0.996264009963)" xlink:href="#CMR17-41"/>
     <use transform="translate(1636.75819863 0.0)scale(0.996264009963)" xlink:href="#CMSY10-106"/>
     <use transform="translate(1664.43228336 0.0)scale(0.996264009963)" xlink:href="#CMR17-93"/>
    </g>
   </g>
   <g id="legend_1">
    <g id="patch_7">
     <path d="
M224.723 218.625
L305.5 218.625
L305.5 173.813
L224.723 173.813
L224.723 218.625
z
" style="fill:#ffffff;stroke:#000000;"/>
    </g>
    <g id="line2d_94">
     <path d="
M231.723 181.313
L245.723 181.313" style="fill:none;stroke:#bfbfbf;stroke-linecap:square;"/>
    </g>
    <g id="line2d_95"/>
    <g id="text_14">
     <!-- CD error -->
     <g transform="translate(256.723408434 184.812982505)scale(0.1 -0.1)">
      <use transform="scale(0.996264009963)" xlink:href="#CMR17-67"/>
      <use transform="translate(66.5098805505 0.0)scale(0.996264009963)" xlink:href="#CMR17-68"/>
      <use transform="translate(166.979402801 0.0)scale(0.996264009963)" xlink:href="#CMR17-101"/>
      <use transform="translate(207.465063264 0.0)scale(0.996264009963)" xlink:href="#CMR17-114"/>
      <use transform="translate(242.745831063 0.0)scale(0.996264009963)" xlink:href="#CMR17-114"/>
      <use transform="translate(278.026598863 0.0)scale(0.996264009963)" xlink:href="#CMR17-111"/>
      <use transform="translate(323.71707598 0.0)scale(0.996264009963)" xlink:href="#CMR17-114"/>
     </g>
    </g>
    <g id="line2d_96">
     <path d="
M231.723 195.25
L245.723 195.25" style="fill:none;stroke:#000000;stroke-linecap:square;"/>
    </g>
    <g id="line2d_97"/>
    <g id="text_15">
     <!-- CSD error -->
     <g transform="translate(256.723408434 198.750160835)scale(0.1 -0.1)">
      <use transform="scale(0.996264009963)" xlink:href="#CMR17-67"/>
      <use transform="translate(66.5098805505 0.0)scale(0.996264009963)" xlink:href="#CMR17-83"/>
      <use transform="translate(117.405250331 0.0)scale(0.996264009963)" xlink:href="#CMR17-68"/>
      <use transform="translate(217.874772581 0.0)scale(0.996264009963)" xlink:href="#CMR17-101"/>
      <use transform="translate(258.360433044 0.0)scale(0.996264009963)" xlink:href="#CMR17-114"/>
      <use transform="translate(293.641200844 0.0)scale(0.996264009963)" xlink:href="#CMR17-114"/>
      <use transform="translate(328.921968643 0.0)scale(0.996264009963)" xlink:href="#CMR17-111"/>
      <use transform="translate(374.61244576 0.0)scale(0.996264009963)" xlink:href="#CMR17-114"/>
     </g>
    </g>
    <g id="line2d_98">
     <path d="
M231.723 209.187
L245.723 209.187" style="fill:none;stroke:#000000;stroke-dasharray:6.000000,6.000000;stroke-dashoffset:0.0;"/>
    </g>
    <g id="line2d_99"/>
    <g id="text_16">
     <!-- $\epsilon = 2^{-52}$ -->
     <defs>
      <path d="
M64.2969 31.5156
C65.7969 31.5156 67.2969 31.5156 67.2969 33.2031
C67.2969 35 65.5938 35 63.9062 35
L8 35
C6.29688 35 4.59375 35 4.59375 33.2031
C4.59375 31.5156 6.09375 31.5156 7.59375 31.5156
z

M63.9062 14
C65.5938 14 67.2969 14 67.2969 15.7969
C67.2969 17.4844 65.7969 17.4844 64.2969 17.4844
L7.59375 17.4844
C6.09375 17.4844 4.59375 17.4844 4.59375 15.7969
C4.59375 14 6.29688 14 8 14
z
" id="CMR17-61"/>
      <path d="
M11.4062 57.6875
C12.4062 57.2812 16.5 56 20.7031 56
C30 56 35.0938 61.0156 38 63.9219
C38 64.7344 38 65.25 37.4062 65.25
C37.2969 65.25 37.0938 65.25 36.2969 64.8281
C32.7969 63.3125 28.7031 62.0781 23.7031 62.0781
C20.7031 62.0781 16.2031 62.5 11.2969 64.7344
C10.2031 65.25 10 65.25 9.90625 65.25
C9.40625 65.25 9.29688 65.1406 9.29688 63.1562
L9.29688 34.2812
C9.29688 32.5 9.29688 32 10.2969 32
C10.7969 32 11 32.2031 11.5 32.9062
C14.7031 37.4844 19.0938 39.4062 24.0938 39.4062
C27.5938 39.4062 35.0938 37.2188 35.0938 20.1406
C35.0938 16.9531 35.0938 11.1719 32.0938 6.57812
C29.5938 2.48438 25.7031 0.390625 21.4062 0.390625
C14.7969 0.390625 8.09375 5 6.29688 12.7188
C6.70312 12.6094 7.5 12.4219 7.90625 12.4219
C9.20312 12.4219 11.7031 13.125 11.7031 16.2188
C11.7031 18.9062 9.79688 20 7.90625 20
C5.59375 20 4.09375 18.5938 4.09375 15.7969
C4.09375 7.09375 11 -2 21.5938 -2
C31.9062 -2 41.7031 6.875 41.7031 19.75
C41.7031 31.7188 33.9062 41 24.2031 41
C19.0938 41 14.7969 39.0938 11.4062 35.4531
z
" id="CMR17-53"/>
      <path d="
M29.0938 22.8594
C30.5938 22.8594 32.2969 22.8594 32.2969 24.4531
C32.2969 25.75 31.2969 25.75 29.5 25.75
L13.2969 25.75
C15.7969 34.7656 21.7031 40.2031 30.5938 40.2031
L33.5 40.2031
C35.2031 40.2031 36.7031 40.2031 36.7031 41.7969
C36.7031 43.0938 35.5938 43.0938 33.7969 43.0938
L30.4062 43.0938
C18.0938 43.0938 4.59375 33.2969 4.59375 17.5938
C4.59375 6.5 12.0938 -1 22 -1
C28.4062 -1 34.7031 3.01562 34.7031 4.03125
C34.7031 4.625 34.4062 5.23438 33.7969 5.23438
C33.5 5.23438 33.2969 5.125 32.7969 4.73438
C29 2.21875 25.2969 1 22.2969 1
C17 1 11.4062 4.53125 11.4062 14.2969
C11.4062 16.2031 11.5938 18.8281 12.5 22.8594
z
" id="CMMI12-15"/>
     </defs>
     <g transform="translate(256.723408434 212.687339165)scale(0.1 -0.1)">
      <use transform="scale(0.996264009963)" xlink:href="#CMMI12-15"/>
      <use transform="translate(67.0629669988 0.0)scale(0.996264009963)" xlink:href="#CMR17-61"/>
      <use transform="translate(166.451764136 0.0)scale(0.996264009963)" xlink:href="#CMR17-50"/>
      <use transform="translate(212.142241254 36.1536389419)scale(0.697381766617)" xlink:href="#CMSY10-0"/>
      <use transform="translate(266.383234501 36.1536389419)scale(0.697381766617)" xlink:href="#CMR17-53"/>
      <use transform="translate(298.366416466 36.1536389419)scale(0.697381766617)" xlink:href="#CMR17-50"/>
     </g>
    </g>
   </g>
  </g>
 </g>
 <defs>
  <clipPath id="pc879fe523b">
   <rect height="299.0" width="276.0" x="34.5" y="46.71875"/>
  </clipPath>
 </defs>
</svg>
