<?xml version="1.0" encoding="utf-8" standalone="no"?>
<!DOCTYPE svg PUBLIC "-//W3C//DTD SVG 1.1//EN"
  "http://www.w3.org/Graphics/SVG/1.1/DTD/svg11.dtd">
<!-- Created with matplotlib (http://matplotlib.org/) -->
<svg height="199pt" version="1.1" viewBox="0 0 345 199" width="345pt" xmlns="http://www.w3.org/2000/svg" xmlns:xlink="http://www.w3.org/1999/xlink">
 <defs>
  <style type="text/css">
*{stroke-linecap:butt;stroke-linejoin:round;}
  </style>
 </defs>
 <g id="figure_1">
  <g id="patch_1">
   <path d="
M0 199.186
L345 199.186
L345 0
L0 0
z
" style="fill:#ffffff;"/>
  </g>
  <g id="axes_1">
   <g id="patch_2">
    <path d="
M34.5 179.267
L310.5 179.267
L310.5 19.9186
L34.5 19.9186
z
" style="fill:#ffffff;"/>
   </g>
   <g id="line2d_1">
    <path clip-path="url(#pe94f5d640f)" d="
M34.5 160.881
L58.3703 160.881
L58.594 -1
M61.0607 -1
L62.3486 30.3247
L63.6748 56.24
L65.0009 77.0112
L66.327 93.6592
L67.6532 107.003
L67.9847 109.902
L68.3162 64.4103
L69.6423 83.5596
L70.9685 98.9078
L71.6315 105.399
L71.9631 82.1361
L73.2892 97.7669
L73.6207 101.163
L73.9523 85.5425
L75.2784 100.497
L75.6099 89.4631
L76.6045 100.384
L76.936 92.1912
L77.5991 99.3854
L77.9306 92.9971
L78.5937 100.107
L78.9252 95.1626
L79.2568 98.6992
L79.5883 94.6911
L79.9198 98.2532
L80.2514 95.0393
L80.5829 98.5826
L80.9144 96.0406
L81.2459 99.53
L81.909 95.9691
L82.2405 99.4624
L82.9036 97.4356
L83.2351 96.8479
L83.5667 100.294
L83.8982 99.9714
L84.2297 99.8592
L84.5613 99.9354
L84.8928 100.18
L85.2243 97.7034
L85.8874 99.1784
L86.2189 100.066
L86.5505 98.7357
L86.882 99.9023
L87.545 98.4899
L87.8766 100.003
L88.2081 99.7879
L88.5396 99.7724
L88.8712 99.9356
L89.2027 98.7796
L89.5342 99.3235
L89.8658 98.665
L90.1973 99.5082
L90.5288 99.2556
L90.8604 99.208
L91.1919 99.344
L91.5234 99.644
L91.855 99.14
L92.1865 99.7664
L92.518 99.6538
L92.8495 99.7303
L93.1811 99.2145
L93.5126 99.6518
L93.8441 99.5389
L94.1757 99.6156
L94.5072 99.2514
L94.8387 99.6812
L95.1703 99.697
L95.5018 99.3714
L95.8333 99.2581
L96.1649 99.3351
L96.4964 99.5822
L96.8279 99.5667
L97.1595 99.3385
L97.491 99.6832
L97.8225 99.4672
L98.1541 99.4517
L98.4856 99.6158
L99.1486 99.563
L99.4802 99.403
L99.8117 99.4379
L100.143 99.647
L100.806 99.4477
L101.801 99.6264
L102.132 99.5034
L102.464 99.5711
L102.795 99.5032
L103.127 99.6201
L103.459 99.4911
L104.453 99.5922
L114.399 99.5831
L128.655 99.593
L159.156 99.5929
L244.691 99.4884
L251.653 99.2576
L255.963 98.9006
L258.947 98.4456
L261.268 97.8879
L263.257 97.1905
L264.914 96.385
L266.241 95.5379
L267.567 94.4494
L268.893 93.0393
L269.887 91.704
L270.882 90.0584
L271.877 88.012
L272.871 85.4386
L273.866 82.1566
L274.86 77.8948
L275.855 72.2291
L276.518 67.3434
L277.181 61.2077
L277.844 53.3273
L278.507 42.9089
L279.17 28.5959
L279.833 7.8583
L280.04 -1
M283.058 -1
L283.07 200.186
M288.536 200.186
L289.448 191.807
L290.442 185.201
L291.437 180.304
L292.432 176.573
L293.426 173.673
L294.421 171.382
L295.415 169.549
L296.741 167.639
L298.068 166.181
L299.394 165.057
L301.051 163.997
L302.709 163.215
L304.698 162.538
L307.019 161.996
L310.003 161.554
L313.981 161.226
L319.617 161.015
L329.563 160.906
L346 160.883
L346 160.883" style="fill:none;stroke:#000000;stroke-linecap:square;"/>
   </g>
   <g id="line2d_2">
    <path clip-path="url(#pe94f5d640f)" d="
M34.5 99.5929
L346 99.5929" style="fill:none;stroke:#000000;stroke-dasharray:6.000000,6.000000;stroke-dashoffset:0.0;"/>
   </g>
   <g id="line2d_3">
    <path clip-path="url(#pe94f5d640f)" d="
M61.0607 -1
L62.3486 30.3247
L63.6748 56.24
L65.0009 77.0112
L66.327 93.6592
L67.6532 107.003
L68.9793 117.697
L70.3054 126.269
L71.6315 133.14
L72.9577 138.646
L74.2838 143.06
L75.6099 146.597
L76.936 149.433
L78.2622 151.705
L79.5883 153.526
L80.9144 154.986
L82.2405 156.156
L83.8982 157.298
L85.5559 158.164
L87.545 158.931
L89.8658 159.557
L92.518 160.03
L95.8333 160.392
L100.475 160.655
L107.768 160.814
L123.682 160.876
L275.523 160.881
L346 160.881
L346 160.881" style="fill:none;stroke:#000000;stroke-dasharray:1.000000,3.000000;stroke-dashoffset:0.0;"/>
   </g>
   <g id="matplotlib.axis_1">
    <g id="xtick_1">
     <g id="line2d_4">
      <defs>
       <path d="
M0 0
L0 -4" id="m93b0483c22" style="stroke:#000000;stroke-width:0.5;"/>
      </defs>
      <g>
       <use style="stroke:#000000;stroke-width:0.5;" x="62.1" xlink:href="#m93b0483c22" y="179.267258583"/>
      </g>
     </g>
     <g id="line2d_5">
      <defs>
       <path d="
M0 0
L0 4" id="m741efc42ff" style="stroke:#000000;stroke-width:0.5;"/>
      </defs>
      <g>
       <use style="stroke:#000000;stroke-width:0.5;" x="62.1" xlink:href="#m741efc42ff" y="19.918584287"/>
      </g>
     </g>
     <g id="text_1">
      <!-- $10^{-16}$ -->
      <defs>
       <path d="
M65.9062 23
C67.5938 23 69.4062 23 69.4062 25
C69.4062 27 67.5938 27 65.9062 27
L11.7969 27
C10.0938 27 8.29688 27 8.29688 25
C8.29688 23 10.0938 23 11.7969 23
z
" id="CMSY10-0"/>
       <path d="
M26.5938 63.3125
C26.5938 65.4062 26.5 65.5 25.0938 65.5
C21.2031 61.1875 15.2969 59.7969 9.70312 59.7969
C9.40625 59.7969 8.90625 59.7969 8.79688 59.6094
C8.70312 59.3906 8.70312 59.1719 8.70312 57
C11.7969 57 17 57.5938 21 59.9844
L21 7.20312
C21 3.6875 20.7969 2.5 12.2031 2.5
L9.20312 2.5
L9.20312 0
C14 0 19 0 23.7969 0
C28.5938 0 33.5938 0 38.4062 0
L38.4062 2.5
L35.4062 2.5
C26.7969 2.5 26.5938 3.59375 26.5938 7.15625
z
" id="CMR17-49"/>
       <path d="
M42 31.6406
C42 37.75 41.9062 48.125 37.7031 56.1094
C34 63.1094 28.0938 65.5938 22.9062 65.5938
C18.0938 65.5938 12 63.4062 8.20312 56.2031
C4.20312 48.7188 3.79688 39.4375 3.79688 31.6406
C3.79688 25.9531 3.90625 17.2812 7 9.67188
C11.2969 -0.609375 19 -2 22.9062 -2
C27.5 -2 34.5 -0.109375 38.5938 9.375
C41.5938 16.2812 42 24.3594 42 31.6406
M22.9062 -0.40625
C16.5 -0.40625 12.7031 5.07812 11.2969 12.6875
C10.2031 18.5625 10.2031 27.1562 10.2031 32.75
C10.2031 40.4375 10.2031 46.8281 11.5 52.9219
C13.4062 61.3906 19 64 22.9062 64
C27 64 32.2969 61.2969 34.2031 53.125
C35.5 47.4375 35.5938 40.7344 35.5938 32.75
C35.5938 26.25 35.5938 18.2656 34.4062 12.375
C32.2969 1.48438 26.4062 -0.40625 22.9062 -0.40625" id="CMR17-48"/>
       <path d="
M10.5938 34
C10.5938 57.6562 21.7969 63 28.2969 63
C30.4062 63 35.5 62.6406 37.5 59
C35.9062 59 32.9062 59 32.9062 55.5156
C32.9062 52.8281 35.0938 51.9219 36.5 51.9219
C37.4062 51.9219 40.0938 52.3125 40.0938 55.625
C40.0938 61.7812 35.0938 65.2969 28.2031 65.2969
C16.2969 65.2969 3.79688 52.9688 3.79688 31
C3.79688 3.95312 15.0938 -2 23.0938 -2
C32.7969 -2 42 6.67188 42 20.0469
C42 32.5156 33.9062 41.5938 23.7031 41.5938
C17.5938 41.5938 13.0938 37.6094 10.5938 30.625
z

M23.0938 0.390625
C10.7969 0.390625 10.7969 18.75 10.7969 22.4375
C10.7969 29.625 14.2031 40 23.5 40
C25.2031 40 30.0938 40 33.4062 33.125
C35.2031 29.2188 35.2031 25.1406 35.2031 20.1406
C35.2031 14.75 35.2031 10.7812 33.0938 6.78125
C30.9062 2.67188 27.7031 0.390625 23.0938 0.390625" id="CMR17-54"/>
      </defs>
      <g transform="translate(50.0340944967 190.185756963)scale(0.1 -0.1)">
       <use transform="scale(0.996264009963)" xlink:href="#CMR17-49"/>
       <use transform="translate(45.6904771171 0.0)scale(0.996264009963)" xlink:href="#CMR17-48"/>
       <use transform="translate(91.3809542341 36.1536389419)scale(0.697381766617)" xlink:href="#CMSY10-0"/>
       <use transform="translate(145.621947482 36.1536389419)scale(0.697381766617)" xlink:href="#CMR17-49"/>
       <use transform="translate(177.605129446 36.1536389419)scale(0.697381766617)" xlink:href="#CMR17-54"/>
      </g>
     </g>
    </g>
    <g id="xtick_2">
     <g id="line2d_6">
      <g>
       <use style="stroke:#000000;stroke-width:0.5;" x="117.3" xlink:href="#m93b0483c22" y="179.267258583"/>
      </g>
     </g>
     <g id="line2d_7">
      <g>
       <use style="stroke:#000000;stroke-width:0.5;" x="117.3" xlink:href="#m741efc42ff" y="19.918584287"/>
      </g>
     </g>
     <g id="text_2">
      <!-- $10^{-12}$ -->
      <defs>
       <path d="
M41.7031 15.4531
L39.9062 15.4531
C38.9062 8.375 38.0938 7.17188 37.7031 6.5625
C37.2031 5.76562 30 5.76562 28.5938 5.76562
L9.40625 5.76562
C13 9.67188 20 16.75 28.5 24.9531
C34.5938 30.7344 41.7031 37.5312 41.7031 47.4219
C41.7031 59.2188 32.2969 66 21.7969 66
C10.7969 66 4.09375 56.3125 4.09375 47.3438
C4.09375 43.4375 7 42.9375 8.20312 42.9375
C9.20312 42.9375 12.2031 43.5469 12.2031 47.0312
C12.2031 50.1094 9.59375 51 8.20312 51
C7.59375 51 7 50.9062 6.59375 50.7031
C8.5 59.2188 14.2969 63.4062 20.4062 63.4062
C29.0938 63.4062 34.7969 56.5156 34.7969 47.4219
C34.7969 38.7344 29.7031 31.25 24 24.75
L4.09375 2.28125
L4.09375 0
L39.2969 0
z
" id="CMR17-50"/>
      </defs>
      <g transform="translate(105.234094497 190.185756963)scale(0.1 -0.1)">
       <use transform="scale(0.996264009963)" xlink:href="#CMR17-49"/>
       <use transform="translate(45.6904771171 0.0)scale(0.996264009963)" xlink:href="#CMR17-48"/>
       <use transform="translate(91.3809542341 36.1536389419)scale(0.697381766617)" xlink:href="#CMSY10-0"/>
       <use transform="translate(145.621947482 36.1536389419)scale(0.697381766617)" xlink:href="#CMR17-49"/>
       <use transform="translate(177.605129446 36.1536389419)scale(0.697381766617)" xlink:href="#CMR17-50"/>
      </g>
     </g>
    </g>
    <g id="xtick_3">
     <g id="line2d_8">
      <g>
       <use style="stroke:#000000;stroke-width:0.5;" x="172.5" xlink:href="#m93b0483c22" y="179.267258583"/>
      </g>
     </g>
     <g id="line2d_9">
      <g>
       <use style="stroke:#000000;stroke-width:0.5;" x="172.5" xlink:href="#m741efc42ff" y="19.918584287"/>
      </g>
     </g>
     <g id="text_3">
      <!-- $10^{-8}$ -->
      <defs>
       <path d="
M27.2031 35.375
C33.5 38.5625 39.9062 43.3281 39.9062 50.9844
C39.9062 60.0312 31.0938 65.2969 23 65.2969
C13.9062 65.2969 5.90625 58.7344 5.90625 49.6875
C5.90625 47.2031 6.5 42.9219 10.4062 39.1406
C11.4062 38.1562 15.5938 35.1719 18.2969 33.2812
C13.7969 30.9844 3.29688 25.5312 3.29688 14.5938
C3.29688 4.35938 13.0938 -2 22.7969 -2
C33.5 -2 42.5 5.65625 42.5 15.7969
C42.5 24.8438 36.4062 29.0312 32.4062 31.7031
z

M14.0938 44.125
C13.2969 44.625 9.29688 47.7031 9.29688 52.375
C9.29688 58.4375 15.5938 63 22.7969 63
C30.7031 63 36.5 57.4531 36.5 50.9844
C36.5 41.7344 26.0938 36.4688 25.5938 36.4688
C25.5 36.4688 25.4062 36.4688 24.5938 37.0781
z

M32.5 23.7344
C34 22.6406 38.7969 19.375 38.7969 13.2969
C38.7969 5.95312 31.4062 0.390625 23 0.390625
C13.9062 0.390625 7 6.84375 7 14.6875
C7 22.5469 13.0938 29.0938 20 32.1875
z
" id="CMR17-56"/>
      </defs>
      <g transform="translate(162.419713307 190.185756963)scale(0.1 -0.1)">
       <use transform="scale(0.996264009963)" xlink:href="#CMR17-49"/>
       <use transform="translate(45.6904771171 0.0)scale(0.996264009963)" xlink:href="#CMR17-48"/>
       <use transform="translate(91.3809542341 36.1536389419)scale(0.697381766617)" xlink:href="#CMSY10-0"/>
       <use transform="translate(145.621947482 36.1536389419)scale(0.697381766617)" xlink:href="#CMR17-56"/>
      </g>
     </g>
    </g>
    <g id="xtick_4">
     <g id="line2d_10">
      <g>
       <use style="stroke:#000000;stroke-width:0.5;" x="227.7" xlink:href="#m93b0483c22" y="179.267258583"/>
      </g>
     </g>
     <g id="line2d_11">
      <g>
       <use style="stroke:#000000;stroke-width:0.5;" x="227.7" xlink:href="#m741efc42ff" y="19.918584287"/>
      </g>
     </g>
     <g id="text_4">
      <!-- $10^{-4}$ -->
      <defs>
       <path d="
M33.5938 64.3281
C33.5938 66.4062 33.5 66.5 31.7031 66.5
L2 19.5938
L2 17
L27.7969 17
L27.7969 7.14062
C27.7969 3.5 27.5938 2.5 20.5938 2.5
L18.7031 2.5
L18.7031 0
C21.9062 0 27.2969 0 30.7031 0
C34.0938 0 39.5 0 42.7031 0
L42.7031 2.5
L40.7969 2.5
C33.7969 2.5 33.5938 3.5 33.5938 7.14062
L33.5938 17
L43.7969 17
L43.7969 19.5938
L33.5938 19.5938
z

M28.0938 57.7656
L28.0938 19.5938
L4 19.5938
z
" id="CMR17-52"/>
      </defs>
      <g transform="translate(217.619713307 190.185756963)scale(0.1 -0.1)">
       <use transform="scale(0.996264009963)" xlink:href="#CMR17-49"/>
       <use transform="translate(45.6904771171 0.0)scale(0.996264009963)" xlink:href="#CMR17-48"/>
       <use transform="translate(91.3809542341 36.1536389419)scale(0.697381766617)" xlink:href="#CMSY10-0"/>
       <use transform="translate(145.621947482 36.1536389419)scale(0.697381766617)" xlink:href="#CMR17-52"/>
      </g>
     </g>
    </g>
    <g id="xtick_5">
     <g id="line2d_12">
      <g>
       <use style="stroke:#000000;stroke-width:0.5;" x="282.9" xlink:href="#m93b0483c22" y="179.267258583"/>
      </g>
     </g>
     <g id="line2d_13">
      <g>
       <use style="stroke:#000000;stroke-width:0.5;" x="282.9" xlink:href="#m741efc42ff" y="19.918584287"/>
      </g>
     </g>
     <g id="text_5">
      <!-- $10^{0}$ -->
      <g transform="translate(275.933045939 190.185756963)scale(0.1 -0.1)">
       <use transform="scale(0.996264009963)" xlink:href="#CMR17-49"/>
       <use transform="translate(45.6904771171 0.0)scale(0.996264009963)" xlink:href="#CMR17-48"/>
       <use transform="translate(91.3809542341 36.1536389419)scale(0.697381766617)" xlink:href="#CMR17-48"/>
      </g>
     </g>
    </g>
    <g id="xtick_6">
     <g id="line2d_14">
      <defs>
       <path d="
M0 0
L0 -2" id="m177f7580d0" style="stroke:#000000;stroke-width:0.5;"/>
      </defs>
      <g>
       <use style="stroke:#000000;stroke-width:0.5;" x="34.5" xlink:href="#m177f7580d0" y="179.267258583"/>
      </g>
     </g>
     <g id="line2d_15">
      <defs>
       <path d="
M0 0
L0 2" id="m5284c7e2a0" style="stroke:#000000;stroke-width:0.5;"/>
      </defs>
      <g>
       <use style="stroke:#000000;stroke-width:0.5;" x="34.5" xlink:href="#m5284c7e2a0" y="19.918584287"/>
      </g>
     </g>
    </g>
    <g id="xtick_7">
     <g id="line2d_16">
      <g>
       <use style="stroke:#000000;stroke-width:0.5;" x="62.1" xlink:href="#m177f7580d0" y="179.267258583"/>
      </g>
     </g>
     <g id="line2d_17">
      <g>
       <use style="stroke:#000000;stroke-width:0.5;" x="62.1" xlink:href="#m5284c7e2a0" y="19.918584287"/>
      </g>
     </g>
    </g>
    <g id="xtick_8">
     <g id="line2d_18">
      <g>
       <use style="stroke:#000000;stroke-width:0.5;" x="89.7" xlink:href="#m177f7580d0" y="179.267258583"/>
      </g>
     </g>
     <g id="line2d_19">
      <g>
       <use style="stroke:#000000;stroke-width:0.5;" x="89.7" xlink:href="#m5284c7e2a0" y="19.918584287"/>
      </g>
     </g>
    </g>
    <g id="xtick_9">
     <g id="line2d_20">
      <g>
       <use style="stroke:#000000;stroke-width:0.5;" x="117.3" xlink:href="#m177f7580d0" y="179.267258583"/>
      </g>
     </g>
     <g id="line2d_21">
      <g>
       <use style="stroke:#000000;stroke-width:0.5;" x="117.3" xlink:href="#m5284c7e2a0" y="19.918584287"/>
      </g>
     </g>
    </g>
    <g id="xtick_10">
     <g id="line2d_22">
      <g>
       <use style="stroke:#000000;stroke-width:0.5;" x="144.9" xlink:href="#m177f7580d0" y="179.267258583"/>
      </g>
     </g>
     <g id="line2d_23">
      <g>
       <use style="stroke:#000000;stroke-width:0.5;" x="144.9" xlink:href="#m5284c7e2a0" y="19.918584287"/>
      </g>
     </g>
    </g>
    <g id="xtick_11">
     <g id="line2d_24">
      <g>
       <use style="stroke:#000000;stroke-width:0.5;" x="172.5" xlink:href="#m177f7580d0" y="179.267258583"/>
      </g>
     </g>
     <g id="line2d_25">
      <g>
       <use style="stroke:#000000;stroke-width:0.5;" x="172.5" xlink:href="#m5284c7e2a0" y="19.918584287"/>
      </g>
     </g>
    </g>
    <g id="xtick_12">
     <g id="line2d_26">
      <g>
       <use style="stroke:#000000;stroke-width:0.5;" x="200.1" xlink:href="#m177f7580d0" y="179.267258583"/>
      </g>
     </g>
     <g id="line2d_27">
      <g>
       <use style="stroke:#000000;stroke-width:0.5;" x="200.1" xlink:href="#m5284c7e2a0" y="19.918584287"/>
      </g>
     </g>
    </g>
    <g id="xtick_13">
     <g id="line2d_28">
      <g>
       <use style="stroke:#000000;stroke-width:0.5;" x="227.7" xlink:href="#m177f7580d0" y="179.267258583"/>
      </g>
     </g>
     <g id="line2d_29">
      <g>
       <use style="stroke:#000000;stroke-width:0.5;" x="227.7" xlink:href="#m5284c7e2a0" y="19.918584287"/>
      </g>
     </g>
    </g>
    <g id="xtick_14">
     <g id="line2d_30">
      <g>
       <use style="stroke:#000000;stroke-width:0.5;" x="255.3" xlink:href="#m177f7580d0" y="179.267258583"/>
      </g>
     </g>
     <g id="line2d_31">
      <g>
       <use style="stroke:#000000;stroke-width:0.5;" x="255.3" xlink:href="#m5284c7e2a0" y="19.918584287"/>
      </g>
     </g>
    </g>
    <g id="xtick_15">
     <g id="line2d_32">
      <g>
       <use style="stroke:#000000;stroke-width:0.5;" x="282.9" xlink:href="#m177f7580d0" y="179.267258583"/>
      </g>
     </g>
     <g id="line2d_33">
      <g>
       <use style="stroke:#000000;stroke-width:0.5;" x="282.9" xlink:href="#m5284c7e2a0" y="19.918584287"/>
      </g>
     </g>
    </g>
    <g id="xtick_16">
     <g id="line2d_34">
      <g>
       <use style="stroke:#000000;stroke-width:0.5;" x="310.5" xlink:href="#m177f7580d0" y="179.267258583"/>
      </g>
     </g>
     <g id="line2d_35">
      <g>
       <use style="stroke:#000000;stroke-width:0.5;" x="310.5" xlink:href="#m5284c7e2a0" y="19.918584287"/>
      </g>
     </g>
    </g>
   </g>
   <g id="matplotlib.axis_2">
    <g id="ytick_1">
     <g id="line2d_36">
      <defs>
       <path d="
M0 0
L4 0" id="m728421d6d4" style="stroke:#000000;stroke-width:0.5;"/>
      </defs>
      <g>
       <use style="stroke:#000000;stroke-width:0.5;" x="34.5" xlink:href="#m728421d6d4" y="160.880873088"/>
      </g>
     </g>
     <g id="line2d_37">
      <defs>
       <path d="
M0 0
L-4 0" id="mcb0005524f" style="stroke:#000000;stroke-width:0.5;"/>
      </defs>
      <g>
       <use style="stroke:#000000;stroke-width:0.5;" x="310.5" xlink:href="#mcb0005524f" y="160.880873088"/>
      </g>
     </g>
     <g id="text_6">
      <!-- $0$ -->
      <g transform="translate(25.5186647484 163.371533113)scale(0.1 -0.1)">
       <use transform="scale(0.996264009963)" xlink:href="#CMR17-48"/>
      </g>
     </g>
    </g>
    <g id="ytick_2">
     <g id="line2d_38">
      <g>
       <use style="stroke:#000000;stroke-width:0.5;" x="34.5" xlink:href="#m728421d6d4" y="99.5929214352"/>
      </g>
     </g>
     <g id="line2d_39">
      <g>
       <use style="stroke:#000000;stroke-width:0.5;" x="310.5" xlink:href="#mcb0005524f" y="99.5929214352"/>
      </g>
     </g>
     <g id="text_7">
      <!-- $1$ -->
      <g transform="translate(25.5186647484 102.08358146)scale(0.1 -0.1)">
       <use transform="scale(0.996264009963)" xlink:href="#CMR17-49"/>
      </g>
     </g>
    </g>
    <g id="ytick_3">
     <g id="line2d_40">
      <g>
       <use style="stroke:#000000;stroke-width:0.5;" x="34.5" xlink:href="#m728421d6d4" y="38.3049697828"/>
      </g>
     </g>
     <g id="line2d_41">
      <g>
       <use style="stroke:#000000;stroke-width:0.5;" x="310.5" xlink:href="#mcb0005524f" y="38.3049697828"/>
      </g>
     </g>
     <g id="text_8">
      <!-- $2$ -->
      <g transform="translate(25.5186647484 40.7956298077)scale(0.1 -0.1)">
       <use transform="scale(0.996264009963)" xlink:href="#CMR17-50"/>
      </g>
     </g>
    </g>
   </g>
   <g id="patch_3">
    <path d="
M34.5 19.9186
L310.5 19.9186" style="fill:none;stroke:#000000;"/>
   </g>
   <g id="patch_4">
    <path d="
M310.5 179.267
L310.5 19.9186" style="fill:none;stroke:#000000;"/>
   </g>
   <g id="patch_5">
    <path d="
M34.5 179.267
L310.5 179.267" style="fill:none;stroke:#000000;"/>
   </g>
   <g id="patch_6">
    <path d="
M34.5 179.267
L34.5 19.9186" style="fill:none;stroke:#000000;"/>
   </g>
   <g id="text_9">
    <!-- Graph of $h \mapsto \mathrm{FD}(\exp, 0, h)$ -->
    <defs>
     <path d="
M5.20312 68
L5.20312 65.4062
C12.0938 65.4062 13.2031 65.4062 13.2031 60.9375
L13.2031 7.0625
C13.2031 2.59375 12.0938 2.59375 5.20312 2.59375
L5.20312 0
L37 0
C53.0938 0 66 14.7344 66 33.4531
C66 52.2812 53.2969 68 37 68
z

M23.7969 2.59375
C19.7969 2.59375 19.5938 3.07812 19.5938 6.46875
L19.5938 61.5312
C19.5938 64.9219 19.7969 65.4062 23.7969 65.4062
L35 65.4062
C43.2969 65.4062 58.5938 60.5312 58.5938 33.4531
C58.5938 19.4062 54.5 13.7344 52.5938 11.0469
C50.2031 7.96875 44.5 2.59375 35 2.59375
z
" id="CMR17-68"/>
     <path d="
M26 23.0938
C29 26.9844 32.4062 31.3594 35.2031 34.625
C38.5 38.4062 42.2969 40 46.7031 40
L46.7031 42.5938
C45 42.5938 41.5 42.5938 39.7031 42.5938
C37 42.5938 33.9062 42.5938 31.5938 42.6875
L31.5938 40.0938
C33 39.8906 33.7969 38.8906 33.7969 37.5
C33.7969 35.7031 32.7969 34.6094 32.2969 33.9219
L24.9062 24.5781
L16.0938 36.0312
C15.2031 37.125 15.2031 37.3125 15.2031 37.8125
C15.2031 39.0156 16.2031 40 17.9062 40
L17.9062 42.6875
C15.5 42.5938 11.2031 42.5938 8.70312 42.5938
C6 42.5938 2.79688 42.5938 0.59375 42.6875
L0.59375 40
C6 40 7.20312 39.5938 9.59375 36.6094
L21.0938 21.7969
C21.2969 21.5938 21.7969 21 21.7969 20.7031
C21.7969 20.2969 13.0938 9.67188 12 8.28125
C7.5 2.89062 2.79688 2.5 0.09375 2.5
L0.09375 0
C1.79688 0 5.29688 0 7.09375 0
C9.09375 0 13.5 0 15.2969 -0.09375
L15.2969 2.5
C14.7031 2.59375 13.0938 2.79688 13.0938 5.07812
C13.0938 6.875 13.9062 7.96875 14.7969 9.15625
L23.0938 19.3125
L31.7969 8
C32.5938 6.90625 33.7969 5.40625 33.7969 4.70312
C33.7969 3.29688 32.5938 2.5 31 2.5
L31 -0.09375
C33.4062 0 37.7031 0 40.2031 0
C42.9062 0 46.0938 0 48.2969 -0.09375
L48.2969 2.5
C43.2969 2.5 41.7969 2.6875 39.4062 5.78125
z
" id="CMR17-120"/>
     <path d="
M36 25.8281
C36 32.375 36 35.8438 31.7969 39.7344
C28.0938 43 23.7969 44 20.4062 44
C12.5 44 6.79688 37.6094 6.79688 30.7969
C6.79688 27 9.79688 27 10.4062 27
C11.7031 27 14 27.7812 14 30.5312
C14 33 12.0938 34.0781 10.4062 34.0781
C10 34.0781 9.5 33.9688 9.20312 33.875
C11.2969 40.5 16.7031 42.4062 20.2031 42.4062
C25.2031 42.4062 30.7031 37.9531 30.7031 29.4531
L30.7031 25
C24.7969 25 17.7031 24.2031 12.0938 21.2031
C5.79688 17.7031 4 12.7031 4 8.90625
C4 1.20312 13 -1 18.2969 -1
C23.7969 -1 28.9062 2.17188 31.0938 7.98438
C31.2969 3.64062 34.0938 -0.28125 38.5 -0.28125
C40.5938 -0.28125 45.9062 1.09375 45.9062 8.85938
L45.9062 14.375
L44.0938 14.375
L44.0938 8.78125
C44.0938 2.78125 41.4062 2 40.0938 2
C36 2 36 7.15625 36 11.5312
z

M30.7031 13.5938
C30.7031 4.95312 24.5 0.59375 19 0.59375
C14 0.59375 10.0938 4.29688 10.0938 8.90625
C10.0938 11.8906 11.4062 17.1875 17.2031 20.3906
C22 23.0938 27.5 23.5 30.7031 23.5
z
" id="CMR17-97"/>
     <path d="
M9.5 22.7812
C10.0938 22.7812 12.2969 22.7812 12.2969 24.7812
C12.2969 26.7812 10.0938 26.7812 9.5 26.7812
L9.5 39.875
C9.5 41.4844 9.5 43.375 7.5 43.375
C5.5 43.375 5.5 41.4844 5.5 39.875
L5.5 9.6875
C5.5 8.07812 5.5 6.1875 7.5 6.1875
C9.5 6.1875 9.5 8.07812 9.5 9.6875
z
" id="CMSY10-55"/>
     <path d="
M15.2969 40
L26.7031 40
L26.7031 42.5781
L15.0938 42.5781
L15.0938 54.5938
C15.0938 62.8438 19.2969 68 23.5938 68
C24.9062 68 26.4062 67.6094 27.4062 66.9062
C26.5938 66.7031 24.5 66.0156 24.5 63.5312
C24.5 60.9531 26.5 60.1562 27.9062 60.1562
C29.2969 60.1562 31.2969 60.9531 31.2969 63.5469
C31.2969 67.3125 27.7031 69.5938 23.7031 69.5938
C18 69.5938 10.2031 64.9375 10.2031 54.3906
L10.2031 42.5781
L2.20312 42.5781
L2.20312 40
L10.2031 40
L10.2031 6.67188
C10.2031 2.875 9.79688 2.39062 3.40625 2.39062
L3.40625 -0.203125
C5.79688 0 10.4062 0 13 0
C15.9062 0 21 0 23.7031 -0.203125
L23.7031 2.39062
C16.5 2.39062 15.2969 2.39062 15.2969 6.85938
z
" id="CMR17-102"/>
     <path d="
M28.0938 66.5156
C28.2031 66.9219 28.4062 67.5156 28.4062 68
C28.4062 69 27.4062 69 27.2031 69
C27.0938 69 22.2031 68.5312 21.7031 68.3906
C20 68.3906 18.5 68.0938 16.7031 68.0938
C14.2031 67.8906 13.5 67.7969 13.5 66
C13.5 65 14.2969 65 15.7031 65
C20.5938 65 20.7031 64.0938 20.7031 63.0938
C20.7031 62.5156 20.5 61.7188 20.4062 61.4219
L5.90625 3.875
C5.5 2.375 5.5 2.1875 5.5 1.57812
C5.5 -0.59375 7.20312 -1 8.20312 -1
C9.90625 -1 11.2031 0.296875 11.7031 1.39062
L16.2031 19.4531
C16.7031 21.6562 17.2969 23.75 17.7969 25.9375
C18.9062 30.1406 18.9062 30.2344 20.7969 33.125
C22.7031 36.0156 27.2031 42.0156 34.9062 42.0156
C38.9062 42.0156 40.2969 39.0156 40.2969 35.0312
C40.2969 29.4375 36.4062 18.5625 34.2031 12.5781
C33.2969 10.1719 32.7969 8.875 32.7969 7.07812
C32.7969 2.59375 35.9062 -1 40.7031 -1
C50 -1 53.5 13.6719 53.5 14.2656
C53.5 14.7656 53.0938 15.1719 52.5 15.1719
C51.5938 15.1719 51.5 14.875 51 13.1719
C48.7031 5.1875 45 1 41 1
C40 1 38.4062 1 38.4062 4.20312
C38.4062 6.8125 39.5938 10 40 11.0938
C41.7969 15.9062 46.2969 27.7031 46.2969 33.5156
C46.2969 39.5 42.7969 44 35.2031 44
C29.5 44 24.5 41.3125 20.4062 36.125
z
" id="CMMI12-104"/>
     <path d="
M62.0938 19.2656
C62.0938 23.0156 62.4062 23.5156 68.5938 23.5156
L68.5938 26.0938
C66.2031 26 60.7969 26 58.0938 26
C55.2969 26 47.5 26 43.7031 26
L43.7031 23.5156
L46.7031 23.5156
C55.2969 23.5156 55.5 22.4062 55.5 18.7656
L55.5 12.0938
C55.5 0.984375 42.5 0.984375 39.4062 0.984375
C29.0938 0.984375 12.2031 8 12.2031 33.7969
C12.2031 59.5781 28.7969 66.5 38.5 66.5
C49.7969 66.5 58 56.75 59.9062 42.9219
C60.0938 41.7188 60.0938 41.5156 61 41.5156
C62.0938 41.5156 62.0938 41.7188 62.0938 43.5156
L62.0938 67.1094
C62.0938 68.8906 62 69 61.4062 69
C61 69 60.9062 68.8906 60.2031 67.7031
L55.7969 59.3281
C50.9062 65.4531 44.9062 69 37.2031 69
C20.0938 69 4.59375 54 4.59375 33.5469
C4.59375 13.2031 19.7969 -2 37.4062 -2
C45.5 -2 53.4062 0.875 56.5 6.51562
C58.2031 2.46875 61 -0.3125 61.5 -0.3125
C62 -0.3125 62.0938 -0.203125 62.0938 1.5625
z
" id="CMR17-71"/>
     <path d="
M26.2969 24.6719
C26.2969 31.8438 25.5938 43.9844 19.5938 56.8281
C14.7969 67.1875 6.59375 74.4531 5.40625 74.4531
C5.09375 74.4531 4.70312 74.3438 4.70312 73.8594
C4.70312 73.6719 4.79688 73.5625 4.90625 73.3594
C9.70312 68.3906 21.9062 55.75 21.9062 24.7969
C21.9062 -6.28125 9.79688 -18.9219 4.90625 -23.9062
C4.79688 -24.0938 4.70312 -24.2031 4.70312 -24.3906
C4.70312 -24.8906 5.09375 -25 5.40625 -25
C6.5 -25 15 -17.625 19.9062 -6.67188
C24.9062 4.375 26.2969 15.125 26.2969 24.6719" id="CMR17-41"/>
     <path d="
M41.5 30.2031
C41.5 35.2969 40.5 43.5938 28.7031 43.5938
C20.5 43.5938 16.5 37 15.2969 33.7031
L15.2031 33.7031
L15.2031 68.6875
L3.29688 67.5938
L3.29688 65
C9.20312 65 10.0938 64.4062 10.0938 59.6406
L10.0938 6.65625
C10.0938 2.875 9.70312 2.39062 3.29688 2.39062
L3.29688 -0.203125
C5.70312 0 10.0938 0 12.7031 0
C15.2969 0 19.7969 0 22.2031 -0.203125
L22.2031 2.39062
C15.7969 2.39062 15.4062 2.78125 15.4062 6.6875
L15.4062 25.9062
C15.4062 35.1094 21 42 28 42
C35.4062 42 36.2031 35.4062 36.2031 30.5938
L36.2031 6.6875
C36.2031 2.875 35.7969 2.39062 29.4062 2.39062
L29.4062 -0.203125
C31.7969 0 36.2031 0 38.7969 0
C41.4062 0 45.9062 0 48.2969 -0.203125
L48.2969 2.39062
C41.9062 2.39062 41.5 2.78125 41.5 6.6875
z
" id="CMR17-104"/>
     <path d="
M15 23.3906
C15 33 19.0938 42 26.5938 42
C27.2969 42 28 41.9062 28.7031 41.5938
C28.7031 41.5938 26.5 40.8906 26.5 38.3125
C26.5 35.9062 28.4062 34.9062 29.9062 34.9062
C31.0938 34.9062 33.2969 35.6094 33.2969 38.4062
C33.2969 41.6094 30.0938 43.5938 26.7031 43.5938
C19.0938 43.5938 15.7969 36.2031 14.7969 32.7031
L14.7031 32.7031
L14.7031 43.5938
L3.09375 42.5
L3.09375 39.9062
C9 39.9062 9.90625 39.2969 9.90625 34.5
L9.90625 6.6875
C9.90625 2.875 9.5 2.39062 3.09375 2.39062
L3.09375 -0.203125
C5.5 0 10.0938 0 12.7031 0
C15.5938 0 20.7031 0 23.4062 -0.203125
L23.4062 2.39062
C16.2031 2.39062 15 2.39062 15 6.875
z
" id="CMR17-114"/>
     <path d="
M30.5938 -24.4062
C30.5938 -24.3125 30.5938 -24.1094 30.2969 -23.8125
C25.7031 -19.1406 13.4062 -6.39062 13.4062 24.6719
C13.4062 55.75 25.5 68.3906 30.4062 73.3594
C30.4062 73.4688 30.5938 73.6719 30.5938 73.9531
C30.5938 74.25 30.2969 74.4531 29.9062 74.4531
C28.7969 74.4531 20.2969 67.0781 15.4062 56.125
C10.4062 45.0781 9 34.3281 9 24.7812
C9 17.6094 9.70312 5.46875 15.7031 -7.375
C20.5 -17.7344 28.7031 -25 29.9062 -25
C30.4062 -25 30.5938 -24.7969 30.5938 -24.4062" id="CMR17-40"/>
     <path d="
M22 -16.6094
C15.5938 -16.6094 15.2031 -16.2031 15.2031 -12.3281
L15.2031 6.28125
C18.0938 2.09375 22.2969 -0.59375 27.5938 -0.59375
C37.5938 -0.59375 47.7031 8.17188 47.7031 21.6875
C47.7031 34.2344 39 43.7812 28.7031 43.7812
C22.7031 43.7812 17.7969 40.5 15 36.5312
L15 43.7812
L3.09375 42.6875
L3.09375 40.1094
C9 40.1094 9.90625 39.5 9.90625 34.7344
L9.90625 -12.3281
C9.90625 -16.1094 9.5 -16.6094 3.09375 -16.6094
L3.09375 -19.1875
C5.5 -19 9.90625 -19 12.5 -19
C15.0938 -19 19.5938 -19 22 -19.1875
z

M15.2031 31.4375
C15.2031 32.8438 15.2031 34.9219 19.0938 38.6094
C19.5938 39.0156 23 42 28 42
C35.2969 42 41.2969 32.9375 41.2969 21.5938
C41.2969 10.25 34.9062 1 27 1
C23.4062 1 19.5 2.6875 16.5 7.375
C15.2031 9.5625 15.2031 10.1562 15.2031 11.75
z
" id="CMR17-112"/>
     <path d="
M54.4062 67.5781
L5.09375 67.5781
L5.09375 65
C12 65 13.0938 65 13.0938 60.5312
L13.0938 6.96875
C13.0938 2.5 12 2.5 5.09375 2.5
L5.09375 0
C8 0 13.5938 0 16.7031 0
C20.7969 0 25.5938 0 29.7031 0
L29.7031 2.5
L27.5 2.5
C19.9062 2.5 19.7031 3.48438 19.7031 7.0625
L19.7031 32.4219
L28.7031 32.4219
C38 32.4219 38.9062 29.1875 38.9062 21
L40.7031 21
L40.7031 46.8906
L38.9062 46.8906
C38.9062 38.3438 38 35 28.7031 35
L19.7031 35
L19.7031 61.1094
C19.7031 64.5 19.9062 65 23.9062 65
L36.7969 65
C51.9062 65 53.5938 58.8906 55 45.7656
L56.7969 45.7656
z
" id="CMR17-70"/>
     <path d="
M43.0938 21.1875
C43.0938 34 33.7969 44 22.9062 44
C12 44 2.70312 34 2.70312 21.1875
C2.70312 8.60938 12 -1 22.9062 -1
C33.7969 -1 43.0938 8.60938 43.0938 21.1875
M22.9062 0.796875
C18.2031 0.796875 14.2031 3.59375 11.9062 7.5
C9.40625 11.9844 9.09375 17.5938 9.09375 22
C9.09375 26.2031 9.29688 31.4062 11.9062 35.9062
C13.9062 39.2031 17.7969 42.4062 22.9062 42.4062
C27.4062 42.4062 31.2031 39.9062 33.5938 36.4062
C36.7031 31.7031 36.7031 25.1094 36.7031 22
C36.7031 18.0938 36.5 12.1094 33.7969 7.29688
C31 2.70312 26.7031 0.796875 22.9062 0.796875" id="CMR17-111"/>
     <path d="
M38.0938 23
C38.5 23.4062 38.5 23.6094 38.5 24.625
C38.5 34.9688 33.0938 44 21.7031 44
C11.0938 44 2.70312 33.8906 2.70312 21.6094
C2.70312 8.60938 12.2031 -1 22.7969 -1
C34 -1 38.4062 9.46875 38.4062 11.5469
C38.4062 12.25 37.7969 12.25 37.5938 12.25
C36.9062 12.25 36.7969 12.0469 36.4062 10.875
C34.2031 4.14062 28.7031 0.796875 23.5 0.796875
C19.2031 0.796875 14.9062 3.17188 12.2031 7.5
C9.09375 12.5469 9.09375 18.375 9.09375 23
z

M9.20312 24.5
C9.90625 39.1406 17.5938 42.4062 21.5938 42.4062
C28.4062 42.4062 33 35.8906 33.0938 24.5
z
" id="CMR17-101"/>
     <path d="
M19.5 -0.484375
C19.5 5.35938 17.5938 9.67188 13.5 9.67188
C10.2969 9.67188 8.70312 7.07812 8.70312 4.89062
C8.70312 2.6875 10.2031 0 13.5938 0
C14.9062 0 16 0.40625 16.9062 1.29688
C17.0938 1.5 17.2031 1.5 17.2969 1.5
C17.5 1.5 17.5 0.078125 17.5 -0.421875
C17.5 -3.75 16.9062 -10.2969 11.0938 -16.875
C10 -18.0781 10 -18.2812 10 -18.4844
C10 -19 10.5 -19.5 11 -19.5
C11.7969 -19.5 19.5 -12.0469 19.5 -0.484375" id="CMMI12-59"/>
     <path d="
M83.4062 23
C77.9062 18.7969 75.2031 14.7031 74.4062 13.4062
C69.9062 6.5 69.0938 0.203125 69.0938 0.09375
C69.0938 -1.09375 70.2969 -1.09375 71.0938 -1.09375
C72.7969 -1.09375 72.9062 -0.90625 73.2969 0.90625
C75.5938 10.7031 81.5 19.0938 92.7969 23.7031
C94 24.0938 94.2969 24.2969 94.2969 25
C94.2969 25.7031 93.7031 26 93.5 26.0938
C89.0938 27.7969 77 32.7969 73.2031 49.5938
C72.9062 50.7969 72.7969 51.0938 71.0938 51.0938
C70.2969 51.0938 69.0938 51.0938 69.0938 49.9062
C69.0938 49.7031 70 43.4062 74.2031 36.7031
C76.2031 33.7031 79.0938 30.2031 83.4062 27
L9.09375 27
C7.29688 27 5.5 27 5.5 25
C5.5 23 7.29688 23 9.09375 23
z
" id="CMSY10-33"/>
    </defs>
    <g transform="translate(112.332097834 14.918584287)scale(0.1 -0.1)">
     <use transform="scale(0.996264009963)" xlink:href="#CMR17-71"/>
     <use transform="translate(72.3553459196 0.0)scale(0.996264009963)" xlink:href="#CMR17-114"/>
     <use transform="translate(107.636113719 0.0)scale(0.996264009963)" xlink:href="#CMR17-97"/>
     <use transform="translate(153.326590836 0.0)scale(0.996264009963)" xlink:href="#CMR17-112"/>
     <use transform="translate(204.221960616 0.0)scale(0.996264009963)" xlink:href="#CMR17-104"/>
     <use transform="translate(285.193296744 0.0)scale(0.996264009963)" xlink:href="#CMR17-111"/>
     <use transform="translate(330.883773861 0.0)scale(0.996264009963)" xlink:href="#CMR17-102"/>
     <use transform="translate(388.433252622 0.0)scale(0.996264009963)" xlink:href="#CMMI12-104"/>
     <use transform="translate(472.261885362 0.0)scale(0.996264009963)" xlink:href="#CMSY10-55"/>
     <use transform="translate(472.261885362 0.0)scale(0.996264009963)" xlink:href="#CMSY10-33"/>
     <use transform="translate(599.562568712 0.0)scale(0.996264009963)" xlink:href="#CMR17-70"/>
     <use transform="translate(659.546415298 0.0)scale(0.996264009963)" xlink:href="#CMR17-68"/>
     <use transform="translate(729.939971202 0.0)scale(0.996264009963)" xlink:href="#CMR17-40"/>
     <use transform="translate(765.220739001 0.0)scale(0.996264009963)" xlink:href="#CMR17-101"/>
     <use transform="translate(805.706399464 0.0)scale(0.996264009963)" xlink:href="#CMR17-120"/>
     <use transform="translate(853.999315312 0.0)scale(0.996264009963)" xlink:href="#CMR17-112"/>
     <use transform="translate(904.894685092 0.0)scale(0.996264009963)" xlink:href="#CMMI12-59"/>
     <use transform="translate(948.596267415 0.0)scale(0.996264009963)" xlink:href="#CMR17-48"/>
     <use transform="translate(994.286744532 0.0)scale(0.996264009963)" xlink:href="#CMMI12-59"/>
     <use transform="translate(1037.98832686 0.0)scale(0.996264009963)" xlink:href="#CMMI12-104"/>
     <use transform="translate(1094.14295087 0.0)scale(0.996264009963)" xlink:href="#CMR17-41"/>
    </g>
   </g>
   <g id="legend_1">
    <g id="patch_7">
     <path d="
M212.84 72.8243
L305.5 72.8243
L305.5 24.9186
L212.84 24.9186
L212.84 72.8243
z
" style="fill:#ffffff;stroke:#000000;"/>
    </g>
    <g id="line2d_42">
     <path d="
M219.84 32.8906
L233.84 32.8906" style="fill:none;stroke:#000000;stroke-linecap:square;"/>
    </g>
    <g id="line2d_43"/>
    <g id="text_10">
     <!-- $\mathrm{FD}(\exp, 0, h)$ -->
     <g transform="translate(244.839734297 36.3905643618)scale(0.1 -0.1)">
      <use transform="scale(0.996264009963)" xlink:href="#CMR17-70"/>
      <use transform="translate(59.983846586 0.0)scale(0.996264009963)" xlink:href="#CMR17-68"/>
      <use transform="translate(130.37740249 0.0)scale(0.996264009963)" xlink:href="#CMR17-40"/>
      <use transform="translate(165.658170289 0.0)scale(0.996264009963)" xlink:href="#CMR17-101"/>
      <use transform="translate(206.143830752 0.0)scale(0.996264009963)" xlink:href="#CMR17-120"/>
      <use transform="translate(254.4367466 0.0)scale(0.996264009963)" xlink:href="#CMR17-112"/>
      <use transform="translate(305.33211638 0.0)scale(0.996264009963)" xlink:href="#CMMI12-59"/>
      <use transform="translate(349.033698703 0.0)scale(0.996264009963)" xlink:href="#CMR17-48"/>
      <use transform="translate(394.72417582 0.0)scale(0.996264009963)" xlink:href="#CMMI12-59"/>
      <use transform="translate(438.425758143 0.0)scale(0.996264009963)" xlink:href="#CMMI12-104"/>
      <use transform="translate(494.580382161 0.0)scale(0.996264009963)" xlink:href="#CMR17-41"/>
     </g>
    </g>
    <g id="line2d_44">
     <path d="
M219.84 47.871
L233.84 47.871" style="fill:none;stroke:#000000;stroke-dasharray:6.000000,6.000000;stroke-dashoffset:0.0;"/>
    </g>
    <g id="line2d_45"/>
    <g id="text_11">
     <!-- $[\exp'(0)]$ -->
     <defs>
      <path d="
M14.2969 74.4844
L1.40625 74.4844
L1.40625 71
L10.7969 71
L10.7969 -21.5156
L1.40625 -21.5156
L1.40625 -25
L14.2969 -25
z
" id="CMR17-93"/>
      <path d="
M23.5 -25
L23.5 -21.5156
L14.0938 -21.5156
L14.0938 71
L23.5 71
L23.5 74.4844
L10.5938 74.4844
L10.5938 -25
z
" id="CMR17-91"/>
      <path d="
M25.2969 47.5
C25.7969 48.7031 26.2031 49.5938 26.2031 50.5938
C26.2031 53.5 23.5938 55.9062 20.5 55.9062
C17.7031 55.9062 15.9062 54 15.2031 51.4062
L3.29688 7.70312
C3.29688 7.5 2.90625 6.40625 2.90625 6.29688
C2.90625 5.20312 5.5 4.5 6.29688 4.5
C6.90625 4.5 7 4.79688 7.59375 6.09375
z
" id="CMSY10-48"/>
     </defs>
     <g transform="translate(244.839734297 51.3709601432)scale(0.1 -0.1)">
      <use transform="scale(0.996264009963)" xlink:href="#CMR17-91"/>
      <use transform="translate(24.8710584819 0.0)scale(0.996264009963)" xlink:href="#CMR17-101"/>
      <use transform="translate(65.3567189446 0.0)scale(0.996264009963)" xlink:href="#CMR17-120"/>
      <use transform="translate(113.649634792 0.0)scale(0.996264009963)" xlink:href="#CMR17-112"/>
      <use transform="translate(164.545004573 36.1536389419)scale(0.697381766617)" xlink:href="#CMSY10-48"/>
      <use transform="translate(184.221097155 0.0)scale(0.996264009963)" xlink:href="#CMR17-40"/>
      <use transform="translate(219.501864955 0.0)scale(0.996264009963)" xlink:href="#CMR17-48"/>
      <use transform="translate(265.192342072 0.0)scale(0.996264009963)" xlink:href="#CMR17-41"/>
      <use transform="translate(300.473109871 0.0)scale(0.996264009963)" xlink:href="#CMR17-93"/>
     </g>
    </g>
    <g id="line2d_46">
     <path d="
M219.84 62.8336
L233.84 62.8336" style="fill:none;stroke:#000000;stroke-dasharray:1.000000,3.000000;stroke-dashoffset:0.0;"/>
    </g>
    <g id="line2d_47"/>
    <g id="text_12">
     <!-- $[\epsilon/h]$ -->
     <defs>
      <path d="
M42.9062 71.2969
C42.9062 71.4062 43.5 72.9062 43.5 73.0938
C43.5 74.2969 42.5 75 41.7031 75
C41.2031 75 40.2969 75 39.5 72.7969
L6 -21.2969
C6 -21.4062 5.40625 -22.8906 5.40625 -23.0938
C5.40625 -24.2969 6.40625 -25 7.20312 -25
C7.79688 -25 8.70312 -24.8906 9.40625 -22.7969
z
" id="CMMI12-61"/>
      <path d="
M29.0938 22.8594
C30.5938 22.8594 32.2969 22.8594 32.2969 24.4531
C32.2969 25.75 31.2969 25.75 29.5 25.75
L13.2969 25.75
C15.7969 34.7656 21.7031 40.2031 30.5938 40.2031
L33.5 40.2031
C35.2031 40.2031 36.7031 40.2031 36.7031 41.7969
C36.7031 43.0938 35.5938 43.0938 33.7969 43.0938
L30.4062 43.0938
C18.0938 43.0938 4.59375 33.2969 4.59375 17.5938
C4.59375 6.5 12.0938 -1 22 -1
C28.4062 -1 34.7031 3.01562 34.7031 4.03125
C34.7031 4.625 34.4062 5.23438 33.7969 5.23438
C33.5 5.23438 33.2969 5.125 32.7969 4.73438
C29 2.21875 25.2969 1 22.2969 1
C17 1 11.4062 4.53125 11.4062 14.2969
C11.4062 16.2031 11.5938 18.8281 12.5 22.8594
z
" id="CMMI12-15"/>
     </defs>
     <g transform="translate(244.839734297 66.3336002428)scale(0.1 -0.1)">
      <use transform="scale(0.996264009963)" xlink:href="#CMR17-91"/>
      <use transform="translate(24.8710584819 0.0)scale(0.996264009963)" xlink:href="#CMMI12-15"/>
      <use transform="translate(64.2600167584 0.0)scale(0.996264009963)" xlink:href="#CMMI12-61"/>
      <use transform="translate(113.03493552 0.0)scale(0.996264009963)" xlink:href="#CMMI12-104"/>
      <use transform="translate(169.189559537 0.0)scale(0.996264009963)" xlink:href="#CMR17-93"/>
     </g>
    </g>
   </g>
  </g>
 </g>
 <defs>
  <clipPath id="pe94f5d640f">
   <rect height="159.348674296" width="276.0" x="34.5" y="19.918584287"/>
  </clipPath>
 </defs>
</svg>
