<?xml version="1.0" encoding="utf-8" standalone="no"?>
<!DOCTYPE svg PUBLIC "-//W3C//DTD SVG 1.1//EN"
  "http://www.w3.org/Graphics/SVG/1.1/DTD/svg11.dtd">
<!-- Created with matplotlib (http://matplotlib.org/) -->
<svg height="142pt" version="1.1" viewBox="0 0 345 142" width="345pt" xmlns="http://www.w3.org/2000/svg" xmlns:xlink="http://www.w3.org/1999/xlink">
 <defs>
  <style type="text/css">
*{stroke-linecap:butt;stroke-linejoin:round;}
  </style>
 </defs>
 <g id="figure_1">
  <g id="patch_1">
   <path d="
M0 142.151
L345 142.151
L345 0
L0 0
z
" style="fill:#ffffff;"/>
  </g>
  <g id="axes_1">
   <g id="patch_2">
    <path d="
M34.5 113.721
L310.5 113.721
L310.5 28.4302
L34.5 28.4302
z
" style="fill:#ffffff;"/>
   </g>
   <g id="line2d_1">
    <path clip-path="url(#p4549ed8a9f)" d="
M34.5 42.9987
L35.6051 42.8902
L38.9204 42.2925
L40.0255 42.4209
L43.0646 43
L44.1697 42.9023
L47.7613 42.2979
L48.8664 42.465
L51.3529 42.9906
L52.458 42.9586
L53.8393 42.6616
L55.497 42.3114
L56.6021 42.3087
L57.9835 42.5843
L59.9174 42.9942
L61.0225 42.9741
L62.4039 42.6778
L64.0616 42.3082
L65.1667 42.2926
L66.548 42.5666
L68.482 43.0009
L69.5871 42.9932
L70.9685 42.6953
L72.6261 42.3021
L73.7312 42.2724
L74.8363 42.4727
L77.3228 43.0363
L78.4279 42.9791
L79.8093 42.6333
L81.467 42.2572
L82.5721 42.2767
L83.9535 42.6067
L85.6111 43.0251
L86.7162 43.0459
L87.8213 42.8188
L90.0315 42.2378
L91.1366 42.2434
L92.2417 42.4983
L94.452 43.0808
L95.5571 43.0468
L96.6622 42.7628
L98.5961 42.2119
L99.4249 42.1756
L100.53 42.381
L103.293 43.1391
L104.122 43.0942
L105.227 42.7943
L107.161 42.1772
L107.989 42.1237
L108.818 42.2555
L110.2 42.7458
L111.581 43.159
L112.41 43.1899
L113.239 43.0266
L116.554 42.0546
L117.383 42.1891
L118.764 42.735
L120.146 43.2204
L120.974 43.2722
L121.803 43.1002
L123.185 42.4956
L124.29 42.0638
L125.119 41.9593
L125.947 42.0983
L127.053 42.5784
L128.434 43.2265
L129.263 43.3912
L130.092 43.2928
L130.92 42.9572
L133.131 41.8869
L133.959 41.8367
L134.788 42.0768
L135.893 42.7073
L136.998 43.3352
L137.827 43.5589
L138.38 43.5308
L139.209 43.2231
L140.59 42.2986
L141.419 41.8107
L142.248 41.6013
L142.8 41.6663
L143.629 42.0596
L146.116 43.7746
L146.668 43.8559
L147.221 43.7419
L148.05 43.2357
L150.26 41.3718
L150.812 41.2076
L151.365 41.2724
L151.917 41.5676
L152.746 42.3538
L154.404 44.1128
L154.956 44.3951
L155.509 44.4034
L156.062 44.1185
L156.614 43.5677
L157.719 41.995
L158.548 40.8824
L159.101 40.4164
L159.653 40.2897
L160.206 40.5529
L160.758 41.1978
L161.587 42.708
L162.968 45.395
L163.521 45.9884
L163.797 46.0987
L164.074 46.0662
L164.35 45.8827
L164.902 45.0576
L165.455 43.6736
L166.56 39.9134
L167.389 37.3392
L167.941 36.393
L168.218 36.2836
L168.494 36.4696
L168.77 36.9853
L169.047 37.8589
L169.599 40.7585
L170.152 45.2451
L170.98 54.7824
L172.086 71.3874
L174.02 101.583
L174.848 111.121
L175.125 113.562
L175.953 108.934
L176.506 107.545
L176.782 107.359
L177.059 107.468
L177.335 107.834
L177.887 109.164
L179.269 113.551
L180.098 111.308
L180.65 110.483
L180.926 110.3
L181.203 110.267
L181.479 110.378
L182.032 110.971
L182.86 112.494
L183.413 113.658
L184.794 111.628
L185.347 111.365
L185.899 111.492
L186.452 111.958
L187.281 113.07
L187.557 113.487
L187.833 113.542
L188.662 112.493
L189.215 112.069
L189.767 111.93
L190.32 112.081
L190.872 112.48
L191.977 113.695
L193.359 112.468
L193.911 112.286
L194.464 112.338
L195.017 112.605
L195.845 113.288
L196.122 113.553
L196.398 113.622
L197.227 112.923
L197.779 112.624
L198.332 112.51
L198.884 112.591
L199.713 113.027
L200.542 113.677
L201.095 113.328
L201.923 112.836
L202.476 112.688
L203.029 112.707
L203.857 113.025
L204.962 113.675
L206.068 113.008
L206.896 112.802
L207.725 112.924
L208.554 113.317
L209.107 113.659
L209.383 113.608
L210.488 113.042
L211.317 112.896
L212.146 113.042
L213.251 113.572
L213.527 113.712
L214.632 113.163
L215.461 112.978
L216.29 113.058
L217.119 113.366
L217.947 113.654
L219.053 113.174
L219.881 113.035
L220.71 113.139
L221.815 113.571
L222.092 113.703
L224.026 113.094
L224.854 113.145
L225.959 113.51
L226.512 113.687
L227.893 113.197
L228.722 113.132
L229.551 113.274
L230.932 113.643
L232.038 113.265
L232.866 113.164
L233.695 113.26
L235.353 113.605
L236.458 113.268
L237.287 113.196
L238.116 113.31
L239.497 113.672
L240.878 113.272
L241.707 113.227
L242.812 113.431
L243.641 113.708
L245.851 113.244
L246.956 113.399
L248.062 113.695
L249.443 113.319
L250.548 113.285
L251.653 113.517
L252.482 113.661
L253.863 113.319
L254.968 113.313
L256.074 113.556
L256.626 113.715
L258.008 113.357
L259.113 113.31
L260.218 113.515
L261.047 113.682
L262.428 113.352
L263.533 113.333
L264.638 113.55
L265.191 113.709
L267.401 113.32
L268.506 113.448
L269.611 113.701
L270.992 113.379
L272.098 113.347
L273.203 113.544
L274.032 113.671
L275.413 113.373
L276.518 113.365
L277.899 113.648
L278.176 113.718
L279.833 113.368
L280.938 113.384
L282.872 113.615
L284.254 113.365
L285.359 113.403
L287.017 113.66
L288.398 113.384
L289.503 113.387
L291.713 113.564
L293.095 113.363
L294.2 113.443
L295.581 113.676
L296.962 113.397
L298.068 113.387
L299.449 113.65
L299.725 113.72
L301.383 113.388
L302.488 113.4
L304.422 113.622
L305.803 113.381
L306.908 113.414
L308.842 113.595
L310.224 113.374
L310.5 113.367
L310.5 113.367" style="fill:none;stroke:#000000;stroke-linecap:square;"/>
   </g>
   <g id="matplotlib.axis_1">
    <g id="xtick_1">
     <g id="line2d_2">
      <path clip-path="url(#p4549ed8a9f)" d="
M34.5 113.721
L34.5 28.4302" style="fill:none;stroke:#000000;stroke-dasharray:1.000000,3.000000;stroke-dashoffset:0.0;stroke-width:0.5;"/>
     </g>
     <g id="line2d_3">
      <defs>
       <path d="
M0 0
L0 -4" id="m93b0483c22" style="stroke:#000000;stroke-width:0.5;"/>
      </defs>
      <g>
       <use style="stroke:#000000;stroke-width:0.5;" x="34.5" xlink:href="#m93b0483c22" y="113.720642769"/>
      </g>
     </g>
     <g id="line2d_4">
      <defs>
       <path d="
M0 0
L0 4" id="m741efc42ff" style="stroke:#000000;stroke-width:0.5;"/>
      </defs>
      <g>
       <use style="stroke:#000000;stroke-width:0.5;" x="34.5" xlink:href="#m741efc42ff" y="28.4301606922"/>
      </g>
     </g>
     <g id="text_1">
      <!-- $0$ -->
      <defs>
       <path d="
M42 31.6406
C42 37.75 41.9062 48.125 37.7031 56.1094
C34 63.1094 28.0938 65.5938 22.9062 65.5938
C18.0938 65.5938 12 63.4062 8.20312 56.2031
C4.20312 48.7188 3.79688 39.4375 3.79688 31.6406
C3.79688 25.9531 3.90625 17.2812 7 9.67188
C11.2969 -0.609375 19 -2 22.9062 -2
C27.5 -2 34.5 -0.109375 38.5938 9.375
C41.5938 16.2812 42 24.3594 42 31.6406
M22.9062 -0.40625
C16.5 -0.40625 12.7031 5.07812 11.2969 12.6875
C10.2031 18.5625 10.2031 27.1562 10.2031 32.75
C10.2031 40.4375 10.2031 46.8281 11.5 52.9219
C13.4062 61.3906 19 64 22.9062 64
C27 64 32.2969 61.2969 34.2031 53.125
C35.5 47.4375 35.5938 40.7344 35.5938 32.75
C35.5938 26.25 35.5938 18.2656 34.4062 12.375
C32.2969 1.48438 26.4062 -0.40625 22.9062 -0.40625" id="CMR17-48"/>
      </defs>
      <g transform="translate(32.0093323742 124.639141149)scale(0.1 -0.1)">
       <use transform="scale(0.996264009963)" xlink:href="#CMR17-48"/>
      </g>
     </g>
    </g>
    <g id="xtick_2">
     <g id="line2d_5">
      <path clip-path="url(#p4549ed8a9f)" d="
M69 113.721
L69 28.4302" style="fill:none;stroke:#000000;stroke-dasharray:1.000000,3.000000;stroke-dashoffset:0.0;stroke-width:0.5;"/>
     </g>
     <g id="line2d_6">
      <g>
       <use style="stroke:#000000;stroke-width:0.5;" x="69.0" xlink:href="#m93b0483c22" y="113.720642769"/>
      </g>
     </g>
     <g id="line2d_7">
      <g>
       <use style="stroke:#000000;stroke-width:0.5;" x="69.0" xlink:href="#m741efc42ff" y="28.4301606922"/>
      </g>
     </g>
     <g id="text_2">
      <!-- $1000$ -->
      <defs>
       <path d="
M26.5938 63.3125
C26.5938 65.4062 26.5 65.5 25.0938 65.5
C21.2031 61.1875 15.2969 59.7969 9.70312 59.7969
C9.40625 59.7969 8.90625 59.7969 8.79688 59.6094
C8.70312 59.3906 8.70312 59.1719 8.70312 57
C11.7969 57 17 57.5938 21 59.9844
L21 7.20312
C21 3.6875 20.7969 2.5 12.2031 2.5
L9.20312 2.5
L9.20312 0
C14 0 19 0 23.7969 0
C28.5938 0 33.5938 0 38.4062 0
L38.4062 2.5
L35.4062 2.5
C26.7969 2.5 26.5938 3.59375 26.5938 7.15625
z
" id="CMR17-49"/>
      </defs>
      <g transform="translate(59.0373294968 124.639141149)scale(0.1 -0.1)">
       <use transform="scale(0.996264009963)" xlink:href="#CMR17-49"/>
       <use transform="translate(45.6904771171 0.0)scale(0.996264009963)" xlink:href="#CMR17-48"/>
       <use transform="translate(91.3809542341 0.0)scale(0.996264009963)" xlink:href="#CMR17-48"/>
       <use transform="translate(137.071431351 0.0)scale(0.996264009963)" xlink:href="#CMR17-48"/>
      </g>
     </g>
    </g>
    <g id="xtick_3">
     <g id="line2d_8">
      <path clip-path="url(#p4549ed8a9f)" d="
M103.5 113.721
L103.5 28.4302" style="fill:none;stroke:#000000;stroke-dasharray:1.000000,3.000000;stroke-dashoffset:0.0;stroke-width:0.5;"/>
     </g>
     <g id="line2d_9">
      <g>
       <use style="stroke:#000000;stroke-width:0.5;" x="103.5" xlink:href="#m93b0483c22" y="113.720642769"/>
      </g>
     </g>
     <g id="line2d_10">
      <g>
       <use style="stroke:#000000;stroke-width:0.5;" x="103.5" xlink:href="#m741efc42ff" y="28.4301606922"/>
      </g>
     </g>
     <g id="text_3">
      <!-- $2000$ -->
      <defs>
       <path d="
M41.7031 15.4531
L39.9062 15.4531
C38.9062 8.375 38.0938 7.17188 37.7031 6.5625
C37.2031 5.76562 30 5.76562 28.5938 5.76562
L9.40625 5.76562
C13 9.67188 20 16.75 28.5 24.9531
C34.5938 30.7344 41.7031 37.5312 41.7031 47.4219
C41.7031 59.2188 32.2969 66 21.7969 66
C10.7969 66 4.09375 56.3125 4.09375 47.3438
C4.09375 43.4375 7 42.9375 8.20312 42.9375
C9.20312 42.9375 12.2031 43.5469 12.2031 47.0312
C12.2031 50.1094 9.59375 51 8.20312 51
C7.59375 51 7 50.9062 6.59375 50.7031
C8.5 59.2188 14.2969 63.4062 20.4062 63.4062
C29.0938 63.4062 34.7969 56.5156 34.7969 47.4219
C34.7969 38.7344 29.7031 31.25 24 24.75
L4.09375 2.28125
L4.09375 0
L39.2969 0
z
" id="CMR17-50"/>
      </defs>
      <g transform="translate(93.5373294968 124.639141149)scale(0.1 -0.1)">
       <use transform="scale(0.996264009963)" xlink:href="#CMR17-50"/>
       <use transform="translate(45.6904771171 0.0)scale(0.996264009963)" xlink:href="#CMR17-48"/>
       <use transform="translate(91.3809542341 0.0)scale(0.996264009963)" xlink:href="#CMR17-48"/>
       <use transform="translate(137.071431351 0.0)scale(0.996264009963)" xlink:href="#CMR17-48"/>
      </g>
     </g>
    </g>
    <g id="xtick_4">
     <g id="line2d_11">
      <path clip-path="url(#p4549ed8a9f)" d="
M138 113.721
L138 28.4302" style="fill:none;stroke:#000000;stroke-dasharray:1.000000,3.000000;stroke-dashoffset:0.0;stroke-width:0.5;"/>
     </g>
     <g id="line2d_12">
      <g>
       <use style="stroke:#000000;stroke-width:0.5;" x="138.0" xlink:href="#m93b0483c22" y="113.720642769"/>
      </g>
     </g>
     <g id="line2d_13">
      <g>
       <use style="stroke:#000000;stroke-width:0.5;" x="138.0" xlink:href="#m741efc42ff" y="28.4301606922"/>
      </g>
     </g>
     <g id="text_4">
      <!-- $3000$ -->
      <defs>
       <path d="
M22.0938 33.7031
C31 33.7031 34.9062 25.9688 34.9062 17.0312
C34.9062 5 28.5 0.390625 22.7031 0.390625
C17.4062 0.390625 8.79688 3.03125 6.09375 10.8281
C6.59375 10.625 7.09375 10.625 7.59375 10.625
C10 10.625 11.7969 12.2188 11.7969 14.8125
C11.7969 17.7031 9.59375 19 7.59375 19
C5.90625 19 3.29688 18.2031 3.29688 14.4688
C3.29688 5.23438 12.2969 -2 22.9062 -2
C34 -2 42.5 6.71875 42.5 16.9531
C42.5 26.6719 34.5 33.6875 25 34.7969
C32.5938 36.375 39.9062 43.0625 39.9062 52.0156
C39.9062 59.6875 32 65.2969 23 65.2969
C13.9062 65.2969 5.90625 59.8281 5.90625 52.0156
C5.90625 48.5938 8.5 48 9.79688 48
C11.9062 48 13.7031 49.2969 13.7031 51.8906
C13.7031 54.4688 11.9062 55.7656 9.79688 55.7656
C9.40625 55.7656 8.90625 55.7656 8.5 55.5625
C11.4062 61.8594 19.2969 63 22.7969 63
C26.2969 63 32.9062 61.3281 32.9062 51.875
C32.9062 49.1094 32.5 44.1875 29.0938 39.8438
C26.0938 36 22.7031 36 19.4062 35.5938
C18.9062 35.5938 16.5938 35.5938 16.2031 35.5938
C15.5 35.4844 15.0938 35.3906 15.0938 34.5938
C15.0938 33.8125 15.2031 33.7031 17.2031 33.7031
z
" id="CMR17-51"/>
      </defs>
      <g transform="translate(128.037329497 124.639141149)scale(0.1 -0.1)">
       <use transform="scale(0.996264009963)" xlink:href="#CMR17-51"/>
       <use transform="translate(45.6904771171 0.0)scale(0.996264009963)" xlink:href="#CMR17-48"/>
       <use transform="translate(91.3809542341 0.0)scale(0.996264009963)" xlink:href="#CMR17-48"/>
       <use transform="translate(137.071431351 0.0)scale(0.996264009963)" xlink:href="#CMR17-48"/>
      </g>
     </g>
    </g>
    <g id="xtick_5">
     <g id="line2d_14">
      <path clip-path="url(#p4549ed8a9f)" d="
M172.5 113.721
L172.5 28.4302" style="fill:none;stroke:#000000;stroke-dasharray:1.000000,3.000000;stroke-dashoffset:0.0;stroke-width:0.5;"/>
     </g>
     <g id="line2d_15">
      <g>
       <use style="stroke:#000000;stroke-width:0.5;" x="172.5" xlink:href="#m93b0483c22" y="113.720642769"/>
      </g>
     </g>
     <g id="line2d_16">
      <g>
       <use style="stroke:#000000;stroke-width:0.5;" x="172.5" xlink:href="#m741efc42ff" y="28.4301606922"/>
      </g>
     </g>
     <g id="text_5">
      <!-- $4000$ -->
      <defs>
       <path d="
M33.5938 64.3281
C33.5938 66.4062 33.5 66.5 31.7031 66.5
L2 19.5938
L2 17
L27.7969 17
L27.7969 7.14062
C27.7969 3.5 27.5938 2.5 20.5938 2.5
L18.7031 2.5
L18.7031 0
C21.9062 0 27.2969 0 30.7031 0
C34.0938 0 39.5 0 42.7031 0
L42.7031 2.5
L40.7969 2.5
C33.7969 2.5 33.5938 3.5 33.5938 7.14062
L33.5938 17
L43.7969 17
L43.7969 19.5938
L33.5938 19.5938
z

M28.0938 57.7656
L28.0938 19.5938
L4 19.5938
z
" id="CMR17-52"/>
      </defs>
      <g transform="translate(162.537329497 124.639141149)scale(0.1 -0.1)">
       <use transform="scale(0.996264009963)" xlink:href="#CMR17-52"/>
       <use transform="translate(45.6904771171 0.0)scale(0.996264009963)" xlink:href="#CMR17-48"/>
       <use transform="translate(91.3809542341 0.0)scale(0.996264009963)" xlink:href="#CMR17-48"/>
       <use transform="translate(137.071431351 0.0)scale(0.996264009963)" xlink:href="#CMR17-48"/>
      </g>
     </g>
    </g>
    <g id="xtick_6">
     <g id="line2d_17">
      <path clip-path="url(#p4549ed8a9f)" d="
M207 113.721
L207 28.4302" style="fill:none;stroke:#000000;stroke-dasharray:1.000000,3.000000;stroke-dashoffset:0.0;stroke-width:0.5;"/>
     </g>
     <g id="line2d_18">
      <g>
       <use style="stroke:#000000;stroke-width:0.5;" x="207.0" xlink:href="#m93b0483c22" y="113.720642769"/>
      </g>
     </g>
     <g id="line2d_19">
      <g>
       <use style="stroke:#000000;stroke-width:0.5;" x="207.0" xlink:href="#m741efc42ff" y="28.4301606922"/>
      </g>
     </g>
     <g id="text_6">
      <!-- $5000$ -->
      <defs>
       <path d="
M11.4062 57.6875
C12.4062 57.2812 16.5 56 20.7031 56
C30 56 35.0938 61.0156 38 63.9219
C38 64.7344 38 65.25 37.4062 65.25
C37.2969 65.25 37.0938 65.25 36.2969 64.8281
C32.7969 63.3125 28.7031 62.0781 23.7031 62.0781
C20.7031 62.0781 16.2031 62.5 11.2969 64.7344
C10.2031 65.25 10 65.25 9.90625 65.25
C9.40625 65.25 9.29688 65.1406 9.29688 63.1562
L9.29688 34.2812
C9.29688 32.5 9.29688 32 10.2969 32
C10.7969 32 11 32.2031 11.5 32.9062
C14.7031 37.4844 19.0938 39.4062 24.0938 39.4062
C27.5938 39.4062 35.0938 37.2188 35.0938 20.1406
C35.0938 16.9531 35.0938 11.1719 32.0938 6.57812
C29.5938 2.48438 25.7031 0.390625 21.4062 0.390625
C14.7969 0.390625 8.09375 5 6.29688 12.7188
C6.70312 12.6094 7.5 12.4219 7.90625 12.4219
C9.20312 12.4219 11.7031 13.125 11.7031 16.2188
C11.7031 18.9062 9.79688 20 7.90625 20
C5.59375 20 4.09375 18.5938 4.09375 15.7969
C4.09375 7.09375 11 -2 21.5938 -2
C31.9062 -2 41.7031 6.875 41.7031 19.75
C41.7031 31.7188 33.9062 41 24.2031 41
C19.0938 41 14.7969 39.0938 11.4062 35.4531
z
" id="CMR17-53"/>
      </defs>
      <g transform="translate(197.037329497 124.639141149)scale(0.1 -0.1)">
       <use transform="scale(0.996264009963)" xlink:href="#CMR17-53"/>
       <use transform="translate(45.6904771171 0.0)scale(0.996264009963)" xlink:href="#CMR17-48"/>
       <use transform="translate(91.3809542341 0.0)scale(0.996264009963)" xlink:href="#CMR17-48"/>
       <use transform="translate(137.071431351 0.0)scale(0.996264009963)" xlink:href="#CMR17-48"/>
      </g>
     </g>
    </g>
    <g id="xtick_7">
     <g id="line2d_20">
      <path clip-path="url(#p4549ed8a9f)" d="
M241.5 113.721
L241.5 28.4302" style="fill:none;stroke:#000000;stroke-dasharray:1.000000,3.000000;stroke-dashoffset:0.0;stroke-width:0.5;"/>
     </g>
     <g id="line2d_21">
      <g>
       <use style="stroke:#000000;stroke-width:0.5;" x="241.5" xlink:href="#m93b0483c22" y="113.720642769"/>
      </g>
     </g>
     <g id="line2d_22">
      <g>
       <use style="stroke:#000000;stroke-width:0.5;" x="241.5" xlink:href="#m741efc42ff" y="28.4301606922"/>
      </g>
     </g>
     <g id="text_7">
      <!-- $6000$ -->
      <defs>
       <path d="
M10.5938 34
C10.5938 57.6562 21.7969 63 28.2969 63
C30.4062 63 35.5 62.6406 37.5 59
C35.9062 59 32.9062 59 32.9062 55.5156
C32.9062 52.8281 35.0938 51.9219 36.5 51.9219
C37.4062 51.9219 40.0938 52.3125 40.0938 55.625
C40.0938 61.7812 35.0938 65.2969 28.2031 65.2969
C16.2969 65.2969 3.79688 52.9688 3.79688 31
C3.79688 3.95312 15.0938 -2 23.0938 -2
C32.7969 -2 42 6.67188 42 20.0469
C42 32.5156 33.9062 41.5938 23.7031 41.5938
C17.5938 41.5938 13.0938 37.6094 10.5938 30.625
z

M23.0938 0.390625
C10.7969 0.390625 10.7969 18.75 10.7969 22.4375
C10.7969 29.625 14.2031 40 23.5 40
C25.2031 40 30.0938 40 33.4062 33.125
C35.2031 29.2188 35.2031 25.1406 35.2031 20.1406
C35.2031 14.75 35.2031 10.7812 33.0938 6.78125
C30.9062 2.67188 27.7031 0.390625 23.0938 0.390625" id="CMR17-54"/>
      </defs>
      <g transform="translate(231.537329497 124.639141149)scale(0.1 -0.1)">
       <use transform="scale(0.996264009963)" xlink:href="#CMR17-54"/>
       <use transform="translate(45.6904771171 0.0)scale(0.996264009963)" xlink:href="#CMR17-48"/>
       <use transform="translate(91.3809542341 0.0)scale(0.996264009963)" xlink:href="#CMR17-48"/>
       <use transform="translate(137.071431351 0.0)scale(0.996264009963)" xlink:href="#CMR17-48"/>
      </g>
     </g>
    </g>
    <g id="xtick_8">
     <g id="line2d_23">
      <path clip-path="url(#p4549ed8a9f)" d="
M276 113.721
L276 28.4302" style="fill:none;stroke:#000000;stroke-dasharray:1.000000,3.000000;stroke-dashoffset:0.0;stroke-width:0.5;"/>
     </g>
     <g id="line2d_24">
      <g>
       <use style="stroke:#000000;stroke-width:0.5;" x="276.0" xlink:href="#m93b0483c22" y="113.720642769"/>
      </g>
     </g>
     <g id="line2d_25">
      <g>
       <use style="stroke:#000000;stroke-width:0.5;" x="276.0" xlink:href="#m741efc42ff" y="28.4301606922"/>
      </g>
     </g>
     <g id="text_8">
      <!-- $7000$ -->
      <defs>
       <path d="
M45.0938 61.5781
L45.0938 63.7656
L21.5938 63.7656
C9.90625 63.7656 9.70312 65.0781 9.29688 67
L7.5 67
L4.59375 48.3438
L6.40625 48.3438
C6.70312 50.2344 7.40625 55.3125 8.59375 57.2031
C9.20312 58 16.5938 58 18.2969 58
L40.2969 58
L29.2031 41.5781
C21.7969 30.5312 16.7031 15.6094 16.7031 2.57812
C16.7031 1.39062 16.7031 -2 20.2969 -2
C23.9062 -2 23.9062 1.39062 23.9062 2.67188
L23.9062 7.26562
C23.9062 23.5625 26.7031 34.3125 31.2969 41.1875
z
" id="CMR17-55"/>
      </defs>
      <g transform="translate(266.037329497 124.639141149)scale(0.1 -0.1)">
       <use transform="scale(0.996264009963)" xlink:href="#CMR17-55"/>
       <use transform="translate(45.6904771171 0.0)scale(0.996264009963)" xlink:href="#CMR17-48"/>
       <use transform="translate(91.3809542341 0.0)scale(0.996264009963)" xlink:href="#CMR17-48"/>
       <use transform="translate(137.071431351 0.0)scale(0.996264009963)" xlink:href="#CMR17-48"/>
      </g>
     </g>
    </g>
    <g id="xtick_9">
     <g id="line2d_26">
      <path clip-path="url(#p4549ed8a9f)" d="
M310.5 113.721
L310.5 28.4302" style="fill:none;stroke:#000000;stroke-dasharray:1.000000,3.000000;stroke-dashoffset:0.0;stroke-width:0.5;"/>
     </g>
     <g id="line2d_27">
      <g>
       <use style="stroke:#000000;stroke-width:0.5;" x="310.5" xlink:href="#m93b0483c22" y="113.720642769"/>
      </g>
     </g>
     <g id="line2d_28">
      <g>
       <use style="stroke:#000000;stroke-width:0.5;" x="310.5" xlink:href="#m741efc42ff" y="28.4301606922"/>
      </g>
     </g>
     <g id="text_9">
      <!-- $8000$ -->
      <defs>
       <path d="
M27.2031 35.375
C33.5 38.5625 39.9062 43.3281 39.9062 50.9844
C39.9062 60.0312 31.0938 65.2969 23 65.2969
C13.9062 65.2969 5.90625 58.7344 5.90625 49.6875
C5.90625 47.2031 6.5 42.9219 10.4062 39.1406
C11.4062 38.1562 15.5938 35.1719 18.2969 33.2812
C13.7969 30.9844 3.29688 25.5312 3.29688 14.5938
C3.29688 4.35938 13.0938 -2 22.7969 -2
C33.5 -2 42.5 5.65625 42.5 15.7969
C42.5 24.8438 36.4062 29.0312 32.4062 31.7031
z

M14.0938 44.125
C13.2969 44.625 9.29688 47.7031 9.29688 52.375
C9.29688 58.4375 15.5938 63 22.7969 63
C30.7031 63 36.5 57.4531 36.5 50.9844
C36.5 41.7344 26.0938 36.4688 25.5938 36.4688
C25.5 36.4688 25.4062 36.4688 24.5938 37.0781
z

M32.5 23.7344
C34 22.6406 38.7969 19.375 38.7969 13.2969
C38.7969 5.95312 31.4062 0.390625 23 0.390625
C13.9062 0.390625 7 6.84375 7 14.6875
C7 22.5469 13.0938 29.0938 20 32.1875
z
" id="CMR17-56"/>
      </defs>
      <g transform="translate(300.537329497 124.639141149)scale(0.1 -0.1)">
       <use transform="scale(0.996264009963)" xlink:href="#CMR17-56"/>
       <use transform="translate(45.6904771171 0.0)scale(0.996264009963)" xlink:href="#CMR17-48"/>
       <use transform="translate(91.3809542341 0.0)scale(0.996264009963)" xlink:href="#CMR17-48"/>
       <use transform="translate(137.071431351 0.0)scale(0.996264009963)" xlink:href="#CMR17-48"/>
      </g>
     </g>
    </g>
    <g id="text_10">
     <!-- frequency $f$ in Hz -->
     <defs>
      <path d="
M44.5938 40.0938
C46.5938 40.0938 47.4062 40.0938 47.4062 42
C47.4062 43 46.5938 43 44.7969 43
L36.7031 43
C38.5938 53.5781 40 60.8906 40.7969 64.1719
C41.4062 66.6406 43.5 69 46.0938 69
C48.2031 69 50.2969 68.0938 51.2969 67.1562
C47.4062 66.75 46.2031 63.7812 46.2031 62.0156
C46.2031 59.9531 47.7031 58.7344 49.5938 58.7344
C51.5938 58.7344 54.5938 60.4688 54.5938 64.3594
C54.5938 68.6406 50.4062 71 46 71
C41.7031 71 37.5 67.7188 35.5 63.7188
C33.7031 60.125 32.7031 56.4375 30.4062 43
L23.7031 43
C21.7969 43 20.7969 43 20.7969 41.2031
C20.7969 40.0938 21.4062 40.0938 23.4062 40.0938
L29.7969 40.0938
C28 30.875 23.9062 8.46875 21.5938 -2.14062
C19.9062 -10.7656 18.4062 -18 13.4062 -18
C13.0938 -18 10.2031 -18 8.40625 -16.1094
C13.5 -15.7031 13.5 -11.3438 13.5 -11.25
C13.5 -9.26562 12 -8.07812 10.0938 -8.07812
C8.09375 -8.07812 5.09375 -9.76562 5.09375 -13.5469
C5.09375 -17.8125 9.5 -20 13.4062 -20
C23.5938 -20 27.7969 -1.84375 28.9062 3.10938
C30.7031 10.75 35.5938 37.125 36.0938 40.0938
z
" id="CMMI12-102"/>
      <path d="
M36.0938 40.7031
C36.9062 41.7188 36.9062 41.9062 36.9062 42.1094
C36.9062 43 36.5 43 34.7031 43
L4.29688 43
L3.29688 27.5
L5.09375 27.5
C5.79688 37.2031 6.90625 41.4062 18.4062 41.4062
L30.5938 41.4062
L2 1.5
C2 0.09375 2.09375 0 4.20312 0
L35.7969 0
L37.2031 18
L35.4062 18
C34.5938 6.90625 33.2969 1.79688 21.0938 1.79688
L8.29688 1.79688
z
" id="CMR17-122"/>
      <path d="
M39 34.3281
C41.5 40.4062 46 40.4062 47.4062 40.4062
L47.4062 43
C45.5 43 43 43 41.0938 43
C39 43 35.7031 43 33.7031 43.0938
L33.7031 40.5
C37.5 40.2031 37.5938 37.4062 37.5938 36.6094
C37.5938 35.625 37.4062 35.125 36.9062 33.9219
L26 7.01562
L14.0938 36.0312
C13.5938 37.2188 13.5938 37.9062 13.5938 38.0156
C13.5938 40.2031 15.9062 40.4062 18.2969 40.4062
L18.2969 43.0938
C15.9062 43 11.5938 43 9.09375 43
C6.40625 43 3.20312 43 1 43.0938
L1 40.4062
C6.40625 40.4062 7 39.9062 8.29688 36.7188
L23.2031 0.234375
C18.7031 -11.5312 16.0938 -18.4062 9.79688 -18.4062
C8.70312 -18.4062 6.20312 -18.1094 4.40625 -16.3125
C6.70312 -16.1094 7.70312 -14.7188 7.70312 -13.0156
C7.70312 -11.3281 6.5 -9.82812 4.5 -9.82812
C2.29688 -9.82812 1.20312 -11.3281 1.20312 -13.125
C1.20312 -17.1094 5.29688 -20 9.79688 -20
C15.5938 -20 19.2031 -14.4062 21.2031 -9.4375
z
" id="CMR17-121"/>
      <path d="
M34.9062 35
C33 35 30.2031 35 30.2031 31.5156
C30.2031 28.7188 32.5 27.9219 33.7969 27.9219
C34.5 27.9219 37.4062 28.2344 37.4062 31.625
C37.4062 38.5469 30.5938 43.7969 22.9062 43.7969
C12.2969 43.7969 3.29688 34.0312 3.29688 21.2969
C3.29688 8.0625 12.7031 -1 22.9062 -1
C35.2969 -1 38.4062 10.5938 38.4062 11.6875
C38.4062 12.0938 38.2969 12.3906 37.5938 12.3906
C36.9062 12.3906 36.7969 12.2969 36.4062 10.9844
C33.7969 2.8125 28.0938 0.796875 23.7969 0.796875
C17.4062 0.796875 9.70312 6.67188 9.70312 21.3906
C9.70312 36.5312 17.0938 42 23 42
C26.9062 42 32.7031 40.2031 34.9062 35" id="CMR17-99"/>
      <path d="
M15.5 61.0781
C15.5 63.2656 13.7031 65.1562 11.4062 65.1562
C9.20312 65.1562 7.29688 63.375 7.29688 61.0781
C7.29688 58.8906 9.09375 57 11.4062 57
C13.5938 57 15.5 58.7969 15.5 61.0781
M3.79688 42.2812
L3.79688 39.7031
C9.40625 39.7031 10.2031 39.0938 10.2031 34.3281
L10.2031 6.67188
C10.2031 2.875 9.79688 2.39062 3.40625 2.39062
L3.40625 -0.203125
C5.79688 0 10.0938 0 12.5938 0
C15 0 19.0938 0 21.4062 -0.203125
L21.4062 2.39062
C15.5 2.39062 15.2969 2.98438 15.2969 6.5625
L15.2969 43.375
z
" id="CMR17-105"/>
      <path d="
M29.4062 42.0781
L29.4062 39.5
C35.2969 39.5 36.2031 38.8906 36.2031 34.1562
L36.2031 16.125
C36.2031 7.8125 31.7031 0.59375 24.2969 0.59375
C16.0938 0.59375 15.4062 5.4375 15.4062 10.5938
L15.4062 43.1719
L3.29688 42.0781
L3.29688 39.5
C7.29688 39.5 10 39.5 10.0938 35.5312
L10.0938 16.5312
C10.0938 9.89062 10.0938 5.64062 12.7031 2.85938
C14 1.57812 16.5 -1 23.7031 -1
C32.2031 -1 35.5 6.35938 36.2969 8.5
L36.4062 8.5
L36.4062 -0.984375
L48.2969 -0.984375
L48.2969 2
C42.4062 2 41.5 2.59375 41.5 7.39062
L41.5 43.1719
z
" id="CMR17-117"/>
      <path d="
M15 23.3906
C15 33 19.0938 42 26.5938 42
C27.2969 42 28 41.9062 28.7031 41.5938
C28.7031 41.5938 26.5 40.8906 26.5 38.3125
C26.5 35.9062 28.4062 34.9062 29.9062 34.9062
C31.0938 34.9062 33.2969 35.6094 33.2969 38.4062
C33.2969 41.6094 30.0938 43.5938 26.7031 43.5938
C19.0938 43.5938 15.7969 36.2031 14.7969 32.7031
L14.7031 32.7031
L14.7031 43.5938
L3.09375 42.5
L3.09375 39.9062
C9 39.9062 9.90625 39.2969 9.90625 34.5
L9.90625 6.6875
C9.90625 2.875 9.5 2.39062 3.09375 2.39062
L3.09375 -0.203125
C5.5 0 10.0938 0 12.7031 0
C15.5938 0 20.7031 0 23.4062 -0.203125
L23.4062 2.39062
C16.2031 2.39062 15 2.39062 15 6.875
z
" id="CMR17-114"/>
      <path d="
M38.0938 23
C38.5 23.4062 38.5 23.6094 38.5 24.625
C38.5 34.9688 33.0938 44 21.7031 44
C11.0938 44 2.70312 33.8906 2.70312 21.6094
C2.70312 8.60938 12.2031 -1 22.7969 -1
C34 -1 38.4062 9.46875 38.4062 11.5469
C38.4062 12.25 37.7969 12.25 37.5938 12.25
C36.9062 12.25 36.7969 12.0469 36.4062 10.875
C34.2031 4.14062 28.7031 0.796875 23.5 0.796875
C19.2031 0.796875 14.9062 3.17188 12.2031 7.5
C9.09375 12.5469 9.09375 18.375 9.09375 23
z

M9.20312 24.5
C9.90625 39.1406 17.5938 42.4062 21.5938 42.4062
C28.4062 42.4062 33 35.8906 33.0938 24.5
z
" id="CMR17-101"/>
      <path d="
M41.0938 43.7812
L39.5 43.7812
L36.5 33.9375
C34.2031 39.2031 30 43.7812 23.2969 43.7812
C13.0938 43.7812 3.29688 34.7344 3.29688 21.5938
C3.29688 8.5625 12.5 -0.59375 22.5 -0.59375
C30.2031 -0.59375 34.5 5.28125 35.7969 7.46875
L35.7969 -12.3281
C35.7969 -16.1094 35.4062 -16.6094 29 -16.6094
L29 -19.1875
C31.4062 -19 35.7969 -19 38.4062 -19
C41 -19 45.5 -19 47.9062 -19.1875
L47.9062 -16.6094
C41.5 -16.6094 41.0938 -16.2031 41.0938 -12.3281
z

M36 13.8438
C36 9.5625 32.4062 5.57812 32.0938 5.28125
C29 1.79688 25.4062 1 23 1
C15.5 1 9.70312 10.4531 9.70312 21.5
C9.70312 33.1406 16.2969 42 24 42
C32 42 36 32.9375 36 27.7656
z
" id="CMR17-113"/>
      <path d="
M41.5 30.2031
C41.5 35.2969 40.5 43.5938 28.7031 43.5938
C20.7969 43.5938 16.7031 37.5 15.2031 33.5
L15.0938 33.5
L15.0938 43.5938
L3.29688 42.5
L3.29688 39.9062
C9.20312 39.9062 10.0938 39.2969 10.0938 34.5
L10.0938 6.6875
C10.0938 2.875 9.70312 2.39062 3.29688 2.39062
L3.29688 -0.203125
C5.70312 0 10.0938 0 12.7031 0
C15.2969 0 19.7969 0 22.2031 -0.203125
L22.2031 2.39062
C15.7969 2.39062 15.4062 2.78125 15.4062 6.6875
L15.4062 25.9062
C15.4062 35.1094 21 42 28 42
C35.4062 42 36.2031 35.4062 36.2031 30.5938
L36.2031 6.6875
C36.2031 2.875 35.7969 2.39062 29.4062 2.39062
L29.4062 -0.203125
C31.7969 0 36.2031 0 38.7969 0
C41.4062 0 45.9062 0 48.2969 -0.203125
L48.2969 2.39062
C41.9062 2.39062 41.5 2.78125 41.5 6.6875
z
" id="CMR17-110"/>
      <path d="
M15.2969 40
L26.7031 40
L26.7031 42.5781
L15.0938 42.5781
L15.0938 54.5938
C15.0938 62.8438 19.2969 68 23.5938 68
C24.9062 68 26.4062 67.6094 27.4062 66.9062
C26.5938 66.7031 24.5 66.0156 24.5 63.5312
C24.5 60.9531 26.5 60.1562 27.9062 60.1562
C29.2969 60.1562 31.2969 60.9531 31.2969 63.5469
C31.2969 67.3125 27.7031 69.5938 23.7031 69.5938
C18 69.5938 10.2031 64.9375 10.2031 54.3906
L10.2031 42.5781
L2.20312 42.5781
L2.20312 40
L10.2031 40
L10.2031 6.67188
C10.2031 2.875 9.79688 2.39062 3.40625 2.39062
L3.40625 -0.203125
C5.79688 0 10.4062 0 13 0
C15.9062 0 21 0 23.7031 -0.203125
L23.7031 2.39062
C16.5 2.39062 15.2969 2.39062 15.2969 6.85938
z
" id="CMR17-102"/>
      <path d="
M56.0938 61.0156
C56.0938 65.5 57.2031 65.5 64.0938 65.5
L64.0938 68
C61.2031 68 55.9062 68 52.7969 68
C49.7031 68 44.4062 68 41.5 68
L41.5 65.5
C48.4062 65.5 49.5 65.5 49.5 61
L49.5 36.5781
L19.7031 36.5781
L19.7031 61
C19.7031 65.5 20.7969 65.5 27.7031 65.5
L27.7031 68
C24.7969 68 19.5 68 16.4062 68
C13.2969 68 8 68 5.09375 68
L5.09375 65.5
C12 65.5 13.0938 65.5 13.0938 61.0156
L13.0938 6.98438
C13.0938 2.5 12 2.5 5.09375 2.5
L5.09375 0
C8 0 13.2969 0 16.4062 0
C19.5 0 24.7969 0 27.7031 0
L27.7031 2.5
C20.7969 2.5 19.7031 2.5 19.7031 6.96875
L19.7031 34
L49.5 34
L49.5 6.96875
C49.5 2.5 48.4062 2.5 41.5 2.5
L41.5 0
C44.4062 0 49.7031 0 52.7969 0
C55.9062 0 61.2031 0 64.0938 0
L64.0938 2.5
C57.2031 2.5 56.0938 2.5 56.0938 6.98438
z
" id="CMR17-72"/>
     </defs>
     <g transform="translate(133.534935824 138.494817859)scale(0.1 -0.1)">
      <use transform="scale(0.996264009963)" xlink:href="#CMR17-102"/>
      <use transform="translate(27.4735124144 0.0)scale(0.996264009963)" xlink:href="#CMR17-114"/>
      <use transform="translate(62.7542802138 0.0)scale(0.996264009963)" xlink:href="#CMR17-101"/>
      <use transform="translate(103.239940677 0.0)scale(0.996264009963)" xlink:href="#CMR17-113"/>
      <use transform="translate(151.532856524 0.0)scale(0.996264009963)" xlink:href="#CMR17-117"/>
      <use transform="translate(202.428226305 0.0)scale(0.996264009963)" xlink:href="#CMR17-101"/>
      <use transform="translate(242.913886767 0.0)scale(0.996264009963)" xlink:href="#CMR17-110"/>
      <use transform="translate(293.809256548 0.0)scale(0.996264009963)" xlink:href="#CMR17-99"/>
      <use transform="translate(334.29491701 0.0)scale(0.996264009963)" xlink:href="#CMR17-121"/>
      <use transform="translate(412.663799205 0.0)scale(0.996264009963)" xlink:href="#CMMI12-102"/>
      <use transform="translate(501.46007039 0.0)scale(0.996264009963)" xlink:href="#CMR17-105"/>
      <use transform="translate(526.331128872 0.0)scale(0.996264009963)" xlink:href="#CMR17-110"/>
      <use transform="translate(607.302464999 0.0)scale(0.996264009963)" xlink:href="#CMR17-72"/>
      <use transform="translate(676.374894804 0.0)scale(0.996264009963)" xlink:href="#CMR17-122"/>
     </g>
    </g>
   </g>
   <g id="matplotlib.axis_2">
    <g id="ytick_1">
     <g id="line2d_29">
      <path clip-path="url(#p4549ed8a9f)" d="
M34.5 113.721
L310.5 113.721" style="fill:none;stroke:#000000;stroke-dasharray:1.000000,3.000000;stroke-dashoffset:0.0;stroke-width:0.5;"/>
     </g>
     <g id="line2d_30">
      <defs>
       <path d="
M0 0
L4 0" id="m728421d6d4" style="stroke:#000000;stroke-width:0.5;"/>
      </defs>
      <g>
       <use style="stroke:#000000;stroke-width:0.5;" x="34.5" xlink:href="#m728421d6d4" y="113.720642769"/>
      </g>
     </g>
     <g id="line2d_31">
      <defs>
       <path d="
M0 0
L-4 0" id="mcb0005524f" style="stroke:#000000;stroke-width:0.5;"/>
      </defs>
      <g>
       <use style="stroke:#000000;stroke-width:0.5;" x="310.5" xlink:href="#mcb0005524f" y="113.720642769"/>
      </g>
     </g>
     <g id="text_11">
      <!-- $0.0$ -->
      <defs>
       <path d="
M18.4062 4.79688
C18.4062 7.6875 16 9.67188 13.5938 9.67188
C10.7031 9.67188 8.70312 7.28125 8.70312 4.89062
C8.70312 2 11.0938 0 13.5 0
C16.4062 0 18.4062 2.39062 18.4062 4.79688" id="CMMI12-58"/>
      </defs>
      <g transform="translate(17.7699210237 116.211302794)scale(0.1 -0.1)">
       <use transform="scale(0.996264009963)" xlink:href="#CMR17-48"/>
       <use transform="translate(45.6904771171 0.0)scale(0.996264009963)" xlink:href="#CMMI12-58"/>
       <use transform="translate(72.7876542069 0.0)scale(0.996264009963)" xlink:href="#CMR17-48"/>
      </g>
     </g>
    </g>
    <g id="ytick_2">
     <g id="line2d_32">
      <path clip-path="url(#p4549ed8a9f)" d="
M34.5 78.1829
L310.5 78.1829" style="fill:none;stroke:#000000;stroke-dasharray:1.000000,3.000000;stroke-dashoffset:0.0;stroke-width:0.5;"/>
     </g>
     <g id="line2d_33">
      <g>
       <use style="stroke:#000000;stroke-width:0.5;" x="34.5" xlink:href="#m728421d6d4" y="78.1829419036"/>
      </g>
     </g>
     <g id="line2d_34">
      <g>
       <use style="stroke:#000000;stroke-width:0.5;" x="310.5" xlink:href="#mcb0005524f" y="78.1829419036"/>
      </g>
     </g>
     <g id="text_12">
      <!-- $0.5$ -->
      <g transform="translate(17.7699210237 80.6736019285)scale(0.1 -0.1)">
       <use transform="scale(0.996264009963)" xlink:href="#CMR17-48"/>
       <use transform="translate(45.6904771171 0.0)scale(0.996264009963)" xlink:href="#CMMI12-58"/>
       <use transform="translate(72.7876542069 0.0)scale(0.996264009963)" xlink:href="#CMR17-53"/>
      </g>
     </g>
    </g>
    <g id="ytick_3">
     <g id="line2d_35">
      <path clip-path="url(#p4549ed8a9f)" d="
M34.5 42.6452
L310.5 42.6452" style="fill:none;stroke:#000000;stroke-dasharray:1.000000,3.000000;stroke-dashoffset:0.0;stroke-width:0.5;"/>
     </g>
     <g id="line2d_36">
      <g>
       <use style="stroke:#000000;stroke-width:0.5;" x="34.5" xlink:href="#m728421d6d4" y="42.6452410383"/>
      </g>
     </g>
     <g id="line2d_37">
      <g>
       <use style="stroke:#000000;stroke-width:0.5;" x="310.5" xlink:href="#mcb0005524f" y="42.6452410383"/>
      </g>
     </g>
     <g id="text_13">
      <!-- $1.0$ -->
      <g transform="translate(17.7699210237 45.1359010632)scale(0.1 -0.1)">
       <use transform="scale(0.996264009963)" xlink:href="#CMR17-49"/>
       <use transform="translate(45.6904771171 0.0)scale(0.996264009963)" xlink:href="#CMMI12-58"/>
       <use transform="translate(72.7876542069 0.0)scale(0.996264009963)" xlink:href="#CMR17-48"/>
      </g>
     </g>
    </g>
    <g id="text_14">
     <!-- amplitude -->
     <defs>
      <path d="
M36 25.8281
C36 32.375 36 35.8438 31.7969 39.7344
C28.0938 43 23.7969 44 20.4062 44
C12.5 44 6.79688 37.6094 6.79688 30.7969
C6.79688 27 9.79688 27 10.4062 27
C11.7031 27 14 27.7812 14 30.5312
C14 33 12.0938 34.0781 10.4062 34.0781
C10 34.0781 9.5 33.9688 9.20312 33.875
C11.2969 40.5 16.7031 42.4062 20.2031 42.4062
C25.2031 42.4062 30.7031 37.9531 30.7031 29.4531
L30.7031 25
C24.7969 25 17.7031 24.2031 12.0938 21.2031
C5.79688 17.7031 4 12.7031 4 8.90625
C4 1.20312 13 -1 18.2969 -1
C23.7969 -1 28.9062 2.17188 31.0938 7.98438
C31.2969 3.64062 34.0938 -0.28125 38.5 -0.28125
C40.5938 -0.28125 45.9062 1.09375 45.9062 8.85938
L45.9062 14.375
L44.0938 14.375
L44.0938 8.78125
C44.0938 2.78125 41.4062 2 40.0938 2
C36 2 36 7.15625 36 11.5312
z

M30.7031 13.5938
C30.7031 4.95312 24.5 0.59375 19 0.59375
C14 0.59375 10.0938 4.29688 10.0938 8.90625
C10.0938 11.8906 11.4062 17.1875 17.2031 20.3906
C22 23.0938 27.5 23.5 30.7031 23.5
z
" id="CMR17-97"/>
      <path d="
M15.0938 40
L29.0938 40
L29.0938 42.5781
L15.0938 42.5781
L15.0938 61
L13.2969 61
C13.0938 50.7031 9.59375 41.6875 1.09375 41.6875
L1.09375 40
L9.79688 40
L9.79688 12.0469
C9.79688 10.1562 9.79688 -1 21.4062 -1
C27.2969 -1 30.7031 4.78125 30.7031 12.1406
L30.7031 17.8125
L28.9062 17.8125
L28.9062 12.2344
C28.9062 5.375 26.2031 0.796875 22 0.796875
C19.0938 0.796875 15.0938 2.78125 15.0938 11.8438
z
" id="CMR17-116"/>
      <path d="
M22 -16.6094
C15.5938 -16.6094 15.2031 -16.2031 15.2031 -12.3281
L15.2031 6.28125
C18.0938 2.09375 22.2969 -0.59375 27.5938 -0.59375
C37.5938 -0.59375 47.7031 8.17188 47.7031 21.6875
C47.7031 34.2344 39 43.7812 28.7031 43.7812
C22.7031 43.7812 17.7969 40.5 15 36.5312
L15 43.7812
L3.09375 42.6875
L3.09375 40.1094
C9 40.1094 9.90625 39.5 9.90625 34.7344
L9.90625 -12.3281
C9.90625 -16.1094 9.5 -16.6094 3.09375 -16.6094
L3.09375 -19.1875
C5.5 -19 9.90625 -19 12.5 -19
C15.0938 -19 19.5938 -19 22 -19.1875
z

M15.2031 31.4375
C15.2031 32.8438 15.2031 34.9219 19.0938 38.6094
C19.5938 39.0156 23 42 28 42
C35.2969 42 41.2969 32.9375 41.2969 21.5938
C41.2969 10.25 34.9062 1 27 1
C23.4062 1 19.5 2.6875 16.5 7.375
C15.2031 9.5625 15.2031 10.1562 15.2031 11.75
z
" id="CMR17-112"/>
      <path d="
M29.2031 67.5938
L29.2031 65
C35.0938 65 36 64.4062 36 59.6875
L36 36.6406
C35.5938 37.1406 31.5 43.5938 23.4062 43.5938
C13.2031 43.5938 3.29688 34.5 3.29688 21.3125
C3.29688 8.20312 12.5938 -1 22.4062 -1
C30.9062 -1 35.2969 5.26562 35.7969 5.9375
L35.7969 -0.984375
L47.9062 -0.984375
L47.9062 2
C42 2 41.0938 2.59375 41.0938 7.39062
L41.0938 68.6875
z

M35.7969 11.7969
C35.7969 8.79688 34 6.09375 31.7031 4.09375
C28.2969 1.09375 24.9062 0.59375 23 0.59375
C20.0938 0.59375 9.70312 2.09375 9.70312 21.1875
C9.70312 40.8125 21.2969 42 23.9062 42
C28.5 42 32.2031 39.4062 34.5 35.7969
C35.7969 33.7031 35.7969 33.4062 35.7969 31.6094
z
" id="CMR17-100"/>
      <path d="
M67.5938 30.2031
C67.5938 35.1875 66.7031 43.5938 54.7969 43.5938
C48 43.5938 43.2969 39 41.5 33.5938
L41.4062 33.5938
C40.2031 41.7969 34.2969 43.5938 28.7031 43.5938
C20.7969 43.5938 16.7031 37.5625 15.2031 33.5938
L15.0938 33.5938
L15.0938 43.5938
L3.29688 42.5
L3.29688 39.9062
C9.20312 39.9062 10.0938 39.2969 10.0938 34.5
L10.0938 6.6875
C10.0938 2.875 9.70312 2.39062 3.29688 2.39062
L3.29688 -0.203125
C5.70312 0 10.0938 0 12.7031 0
C15.2969 0 19.7969 0 22.2031 -0.203125
L22.2031 2.39062
C15.7969 2.39062 15.4062 2.78125 15.4062 6.6875
L15.4062 25.9062
C15.4062 35.1094 21 42 28 42
C35.4062 42 36.2031 35.4062 36.2031 30.5938
L36.2031 6.6875
C36.2031 2.875 35.7969 2.39062 29.4062 2.39062
L29.4062 -0.203125
C31.7969 0 36.2031 0 38.7969 0
C41.4062 0 45.9062 0 48.2969 -0.203125
L48.2969 2.39062
C41.9062 2.39062 41.5 2.78125 41.5 6.6875
L41.5 25.9062
C41.5 35.1094 47.0938 42 54.0938 42
C61.5 42 62.2969 35.4062 62.2969 30.5938
L62.2969 6.6875
C62.2969 2.875 61.9062 2.39062 55.5 2.39062
L55.5 -0.203125
C57.9062 0 62.2969 0 64.9062 0
C67.5 0 72 0 74.4062 -0.203125
L74.4062 2.39062
C68 2.39062 67.5938 2.78125 67.5938 6.6875
z
" id="CMR17-109"/>
      <path d="
M15.2969 68.6875
L3.40625 67.5938
L3.40625 65
C9.29688 65 10.2031 64.4062 10.2031 59.6406
L10.2031 6.65625
C10.2031 2.875 9.79688 2.39062 3.40625 2.39062
L3.40625 -0.203125
C5.79688 0 10.2031 0 12.7031 0
C15.2969 0 19.7031 0 22.0938 -0.203125
L22.0938 2.39062
C15.7031 2.39062 15.2969 2.78125 15.2969 6.65625
z
" id="CMR17-108"/>
     </defs>
     <g transform="translate(10.8327426934 92.9379210672)rotate(-90.0)scale(0.1 -0.1)">
      <use transform="scale(0.996264009963)" xlink:href="#CMR17-97"/>
      <use transform="translate(45.6904771171 0.0)scale(0.996264009963)" xlink:href="#CMR17-109"/>
      <use transform="translate(122.610066985 0.0)scale(0.996264009963)" xlink:href="#CMR17-112"/>
      <use transform="translate(173.505436765 0.0)scale(0.996264009963)" xlink:href="#CMR17-108"/>
      <use transform="translate(198.376495247 0.0)scale(0.996264009963)" xlink:href="#CMR17-105"/>
      <use transform="translate(223.247553729 0.0)scale(0.996264009963)" xlink:href="#CMR17-116"/>
      <use transform="translate(258.528321529 0.0)scale(0.996264009963)" xlink:href="#CMR17-117"/>
      <use transform="translate(309.423691309 0.0)scale(0.996264009963)" xlink:href="#CMR17-100"/>
      <use transform="translate(360.319061089 0.0)scale(0.996264009963)" xlink:href="#CMR17-101"/>
     </g>
    </g>
   </g>
   <g id="patch_3">
    <path d="
M34.5 28.4302
L310.5 28.4302" style="fill:none;stroke:#000000;"/>
   </g>
   <g id="patch_4">
    <path d="
M310.5 113.721
L310.5 28.4302" style="fill:none;stroke:#000000;"/>
   </g>
   <g id="patch_5">
    <path d="
M34.5 113.721
L310.5 113.721" style="fill:none;stroke:#000000;"/>
   </g>
   <g id="patch_6">
    <path d="
M34.5 113.721
L34.5 28.4302" style="fill:none;stroke:#000000;"/>
   </g>
   <g id="text_15">
    <!-- Low-pass filter frequency response ($f_c=8000$ Hz, $N=127$). -->
    <defs>
     <path d="
M74 57.7031
C75.0938 62 76.7031 65 84.2969 65
C84.5938 65 85.7969 65.0938 85.7969 66.8594
C85.7969 68 84.9062 68 84.5 68
C82.5 68 77.4062 68 75.4062 68
L70.5938 68
C69.2031 68 67.4062 68 66 68
C65.4062 68 64.2031 68 64.2031 66.0312
C64.2031 65 65 65 65.7031 65
C71.7031 65 72.0938 62.7031 72.0938 60.9062
C72.0938 60.0156 72 59.7031 71.7031 58.3125
L60.4062 13.2812
L39 66.2969
C38.2969 67.9062 38.2031 68 36 68
L23.7969 68
C21.7969 68 20.9062 68 20.9062 66.0312
C20.9062 65 21.5938 65 23.5 65
C24 65 29.9062 65 29.9062 64.0938
C29.9062 63.8906 29.7031 63.0938 29.5938 62.7969
L16.2969 9.89062
C15.0938 5 12.7031 2.90625 6.09375 2.90625
C5.59375 2.90625 4.59375 2.8125 4.59375 1
C4.59375 0 5.59375 0 5.90625 0
C7.90625 0 13 0 15 0
L19.7969 0
C21.2031 0 22.9062 0 24.2969 0
C25 0 26.0938 0 26.0938 1.90625
C26.0938 2.8125 25.0938 2.90625 24.7031 2.90625
C21.4062 2.90625 18.2031 3.5 18.2031 7.09375
C18.2031 7.89062 18.4062 8.78125 18.5938 9.57812
L32.0938 62.9688
C32.7031 61.9688 32.7031 61.7812 33.0938 60.875
L56.9062 1.73438
C57.4062 0.578125 57.5938 0 58.5 0
C59.5 0 59.5938 0.296875 60 2
z
" id="CMMI12-78"/>
     <path d="
M30.5938 -24.4062
C30.5938 -24.3125 30.5938 -24.1094 30.2969 -23.8125
C25.7031 -19.1406 13.4062 -6.39062 13.4062 24.6719
C13.4062 55.75 25.5 68.3906 30.4062 73.3594
C30.4062 73.4688 30.5938 73.6719 30.5938 73.9531
C30.5938 74.25 30.2969 74.4531 29.9062 74.4531
C28.7969 74.4531 20.2969 67.0781 15.4062 56.125
C10.4062 45.0781 9 34.3281 9 24.7812
C9 17.6094 9.70312 5.46875 15.7031 -7.375
C20.5 -17.7344 28.7031 -25 29.9062 -25
C30.4062 -25 30.5938 -24.7969 30.5938 -24.4062" id="CMR17-40"/>
     <path d="
M39.0938 37.9844
C37.2031 37.9844 36.2969 37.9844 34.9062 36.7969
C34.2969 36.2969 33.2031 34.7969 33.2031 33.2031
C33.2031 31.2031 34.7031 30 36.5938 30
C39 30 41.7031 31.9375 41.7031 35.8125
C41.7031 40.4375 37.0938 44 30.2031 44
C17.0938 44 4 29.7344 4 15.5625
C4 6.89062 9.40625 -1 19.5938 -1
C33.2031 -1 41.7969 9.73438 41.7969 11.0469
C41.7969 11.6562 41.2031 12.1562 40.7969 12.1562
C40.5 12.1562 40.4062 12.0625 39.5 11.1562
C33.0938 2.53125 23.5938 1 19.7969 1
C12.9062 1 10.7031 6.96875 10.7031 11.9375
C10.7031 15.4375 12.4062 25.0781 16 31.8594
C18.5938 36.5312 24 41.9062 30.2969 41.9062
C31.5938 41.9062 37.0938 41.9062 39.0938 37.9844" id="CMMI12-99"/>
     <path d="
M39.9062 43.1875
C37.5 43.1875 30.0938 43.1875 28.2031 42.7969
C27.5938 42.5781 27.4062 42.5781 26.2031 42.5781
L14.7969 42.5781
L14.7969 54.2031
C14.7969 63.6406 22.4062 68 28.4062 68
C30.2969 68 34.5938 67.5 36.7969 64.0781
C35.7969 64.0781 32.5938 64.0781 32.5938 60.5938
C32.5938 58.2031 34.2031 57 36.2031 57
C38 57 39.7969 58 39.7969 60.7031
C39.7969 65.7031 35 69.5938 28.7969 69.5938
C20.9062 69.5938 9.90625 65.125 9.90625 54.2031
L9.90625 42.5781
L1.90625 42.5781
L1.90625 40
L9.90625 40
L9.90625 6.67188
C9.90625 2.875 9.5 2.39062 3.09375 2.39062
L3.09375 -0.203125
C5.5 0 9.90625 0 12.4062 0
C15 0 19.4062 0 21.7969 -0.203125
L21.7969 2.39062
C15.4062 2.39062 15 2.78125 15 6.67188
L15 40
L29.7031 40
C34 40 34.7969 39.0938 34.7969 34.7188
L34.7969 6.67188
C34.7969 2.875 34.4062 2.39062 28 2.39062
L28 -0.203125
C30.4062 0 34.7969 0 37.2969 0
C39.9062 0 44.2969 0 46.7031 -0.203125
L46.7031 2.39062
C40.2969 2.39062 39.9062 2.78125 39.9062 6.64062
z
" id="CMR17-12"/>
     <path d="
M15.7969 1.59375
C16 0.6875 16 0.375 16 -1.21875
C16 -7.25 14 -12.7656 9.79688 -17.7969
C9.29688 -18.2812 9.29688 -18.4844 9.29688 -18.7031
C9.29688 -19.0938 9.70312 -19.5 10.0938 -19.5
C10.7031 -19.5 17.5938 -12.4844 17.5938 -1.35938
C17.5938 1.9375 17.2031 8.15625 12.5 8.15625
C10.2969 8.15625 8.40625 6.67188 8.40625 4.07812
C8.40625 1.5 10.2969 0 12.5 0
C13.7031 0 15 0.5 15.7969 1.59375" id="CMR17-44"/>
     <path d="
M54.2031 25.2344
L52.4062 25.2344
C51.5938 15.3594 50.2969 2.59375 33.2031 2.59375
L23.9062 2.59375
C19.9062 2.59375 19.7031 3.07812 19.7031 6.46875
L19.7031 60.9062
C19.7031 64.5156 19.9062 65.5 27.5 65.5
L29.7031 65.5
L29.7031 68
C25.5938 68 20.7969 68 16.7031 68
C13.5938 68 8 68 5.09375 68
L5.09375 65.5
C12 65.5 13.0938 65.5 13.0938 61.0312
L13.0938 7.0625
C13.0938 2.59375 12 2.59375 5.09375 2.59375
L5.09375 0
L51.7969 0
z
" id="CMR17-76"/>
     <path d="
M64.2969 31.5156
C65.7969 31.5156 67.2969 31.5156 67.2969 33.2031
C67.2969 35 65.5938 35 63.9062 35
L8 35
C6.29688 35 4.59375 35 4.59375 33.2031
C4.59375 31.5156 6.09375 31.5156 7.59375 31.5156
z

M63.9062 14
C65.5938 14 67.2969 14 67.2969 15.7969
C67.2969 17.4844 65.7969 17.4844 64.2969 17.4844
L7.59375 17.4844
C6.09375 17.4844 4.59375 17.4844 4.59375 15.7969
C4.59375 14 6.29688 14 8 14
z
" id="CMR17-61"/>
     <path d="
M26.2969 24.6719
C26.2969 31.8438 25.5938 43.9844 19.5938 56.8281
C14.7969 67.1875 6.59375 74.4531 5.40625 74.4531
C5.09375 74.4531 4.70312 74.3438 4.70312 73.8594
C4.70312 73.6719 4.79688 73.5625 4.90625 73.3594
C9.70312 68.3906 21.9062 55.75 21.9062 24.7969
C21.9062 -6.28125 9.79688 -18.9219 4.90625 -23.9062
C4.79688 -24.0938 4.70312 -24.2031 4.70312 -24.3906
C4.70312 -24.8906 5.09375 -25 5.40625 -25
C6.5 -25 15 -17.625 19.9062 -6.67188
C24.9062 4.375 26.2969 15.125 26.2969 24.6719" id="CMR17-41"/>
     <path d="
M30.9062 42.1094
C30.9062 43.9062 30.7969 44 30.2031 44
C29.7969 44 29.7031 43.9062 28.5 42.4219
C28.2031 42.0156 27.2969 41.0156 27 40.625
C23.7969 44 19.2969 44 17.5938 44
C6.5 44 2.5 38.1719 2.5 32.375
C2.5 23.3438 12.7031 21.25 15.5938 20.6406
C21.9062 19.3438 24.0938 18.9375 26.2031 17.125
C27.5 15.9375 29.7031 13.7344 29.7031 10.125
C29.7031 5.90625 27.2969 0.5 18.0938 0.5
C9.40625 0.5 6.29688 7.0625 4.5 15.8281
C4.20312 17.2188 4.20312 17.3281 3.40625 17.3281
C2.59375 17.3281 2.5 17.2188 2.5 15.2344
L2.5 0.890625
C2.5 -0.890625 2.59375 -1 3.20312 -1
C3.70312 -1 3.79688 -0.890625 4.29688 -0.09375
C4.90625 0.796875 6.40625 3.1875 7 4.1875
C9 1.54688 12.5 -1 18.0938 -1
C28 -1 33.2969 4.40625 33.2969 12.2344
C33.2969 17.3438 30.5938 20.0625 29.2969 21.25
C26.2969 24.375 22.7969 25.0625 18.5938 25.8594
C13.0938 27.0781 6.09375 28.4688 6.09375 34.5938
C6.09375 37.1875 7.5 42.7188 17.5938 42.7188
C28.2969 42.7188 28.9062 32.75 29.0938 29.5625
C29.2031 29.0781 29.7031 28.9688 30 28.9688
C30.9062 28.9688 30.9062 29.2812 30.9062 30.9688
z
" id="CMR17-115"/>
     <path d="
M16.5938 4.07812
C16.5938 6.5625 14.5938 8.15625 12.5 8.15625
C10.5 8.15625 8.40625 6.5625 8.40625 4.07812
C8.40625 1.59375 10.4062 0 12.5 0
C14.5 0 16.5938 1.59375 16.5938 4.07812" id="CMR17-46"/>
     <path d="
M25.5 19
L25.5 23.375
L0.40625 23.375
L0.40625 19
z
" id="CMR17-45"/>
     <path d="
M43.0938 21.1875
C43.0938 34 33.7969 44 22.9062 44
C12 44 2.70312 34 2.70312 21.1875
C2.70312 8.60938 12 -1 22.9062 -1
C33.7969 -1 43.0938 8.60938 43.0938 21.1875
M22.9062 0.796875
C18.2031 0.796875 14.2031 3.59375 11.9062 7.5
C9.40625 11.9844 9.09375 17.5938 9.09375 22
C9.09375 26.2031 9.29688 31.4062 11.9062 35.9062
C13.9062 39.2031 17.7969 42.4062 22.9062 42.4062
C27.4062 42.4062 31.2031 39.9062 33.5938 36.4062
C36.7031 31.7031 36.7031 25.1094 36.7031 22
C36.7031 18.0938 36.5 12.1094 33.7969 7.29688
C31 2.70312 26.7031 0.796875 22.9062 0.796875" id="CMR17-111"/>
     <path d="
M58.2031 34.0781
C60.2031 40 64.2031 40 65.7031 40
L65.7031 42.6875
C63.7031 42.6875 61.7031 42.6875 59.7031 42.6875
C57.7969 42.6875 53.5 42.6875 51.7969 42.7812
L51.7969 40
C54.9062 40 56.5938 38.1875 56.5938 35.7031
C56.5938 35 56.4062 34.0938 56.2031 33.4062
L46.7969 6.20312
L36.5938 35.5156
C36.4062 36.2188 36.0938 37.0156 36.0938 37.4062
C36.0938 40 39.5 40 41.0938 40
L41.0938 42.7812
C38.7969 42.6875 34.5938 42.6875 32.2031 42.6875
C29.7031 42.6875 27.0938 42.6875 24.7969 42.7812
L24.7969 40
C30.2969 40 30.2969 39.7969 32.4062 33.7031
L23.2031 6.90625
L13.2969 35.625
C12.7969 36.9062 12.7969 37.1094 12.7969 37.4062
C12.7969 40 16.2031 40 17.7969 40
L17.7969 42.7812
C15.4062 42.6875 11.2031 42.6875 8.70312 42.6875
C6.5 42.6875 3.09375 42.6875 1 42.7812
L1 40
C5.40625 40 6.5 39.7031 7.59375 36.4062
L19.9062 0.59375
C20.2969 -0.703125 20.5938 -1 21.4062 -1
C22.0938 -1 22.5 -0.796875 23 0.703125
L33.2969 30.9062
L43.7031 0.703125
C44.2031 -0.796875 44.5938 -1 45.2969 -1
C46.0938 -1 46.4062 -0.703125 46.7969 0.609375
z
" id="CMR17-119"/>
    </defs>
    <g transform="translate(40.669231106 23.4301606922)scale(0.1 -0.1)">
     <use transform="translate(0.0 14.9439145441)scale(0.996264009963)" xlink:href="#CMR17-76"/>
     <use transform="translate(57.3814078553 14.9439145441)scale(0.996264009963)" xlink:href="#CMR17-111"/>
     <use transform="translate(100.46943104 14.9439145441)scale(0.996264009963)" xlink:href="#CMR17-119"/>
     <use transform="translate(166.97931159 14.9439145441)scale(0.996264009963)" xlink:href="#CMR17-45"/>
     <use transform="translate(197.055277937 14.9439145441)scale(0.996264009963)" xlink:href="#CMR17-112"/>
     <use transform="translate(247.950647718 14.9439145441)scale(0.996264009963)" xlink:href="#CMR17-97"/>
     <use transform="translate(293.641124835 14.9439145441)scale(0.996264009963)" xlink:href="#CMR17-115"/>
     <use transform="translate(329.44246247 14.9439145441)scale(0.996264009963)" xlink:href="#CMR17-115"/>
     <use transform="translate(395.319766452 14.9439145441)scale(0.996264009963)" xlink:href="#CMR17-12"/>
     <use transform="translate(445.061989828 14.9439145441)scale(0.996264009963)" xlink:href="#CMR17-108"/>
     <use transform="translate(469.93304831 14.9439145441)scale(0.996264009963)" xlink:href="#CMR17-116"/>
     <use transform="translate(505.21381611 14.9439145441)scale(0.996264009963)" xlink:href="#CMR17-101"/>
     <use transform="translate(545.699476572 14.9439145441)scale(0.996264009963)" xlink:href="#CMR17-114"/>
     <use transform="translate(611.056210719 14.9439145441)scale(0.996264009963)" xlink:href="#CMR17-102"/>
     <use transform="translate(638.529723133 14.9439145441)scale(0.996264009963)" xlink:href="#CMR17-114"/>
     <use transform="translate(673.810490932 14.9439145441)scale(0.996264009963)" xlink:href="#CMR17-101"/>
     <use transform="translate(714.296151395 14.9439145441)scale(0.996264009963)" xlink:href="#CMR17-113"/>
     <use transform="translate(762.589067243 14.9439145441)scale(0.996264009963)" xlink:href="#CMR17-117"/>
     <use transform="translate(813.484437023 14.9439145441)scale(0.996264009963)" xlink:href="#CMR17-101"/>
     <use transform="translate(853.970097486 14.9439145441)scale(0.996264009963)" xlink:href="#CMR17-110"/>
     <use transform="translate(904.865467266 14.9439145441)scale(0.996264009963)" xlink:href="#CMR17-99"/>
     <use transform="translate(945.351127729 14.9439145441)scale(0.996264009963)" xlink:href="#CMR17-121"/>
     <use transform="translate(1023.72000992 14.9439145441)scale(0.996264009963)" xlink:href="#CMR17-114"/>
     <use transform="translate(1059.00077772 14.9439145441)scale(0.996264009963)" xlink:href="#CMR17-101"/>
     <use transform="translate(1099.48643819 14.9439145441)scale(0.996264009963)" xlink:href="#CMR17-115"/>
     <use transform="translate(1135.28777582 14.9439145441)scale(0.996264009963)" xlink:href="#CMR17-112"/>
     <use transform="translate(1188.78558433 14.9439145441)scale(0.996264009963)" xlink:href="#CMR17-111"/>
     <use transform="translate(1234.47606145 14.9439145441)scale(0.996264009963)" xlink:href="#CMR17-110"/>
     <use transform="translate(1285.37143123 14.9439145441)scale(0.996264009963)" xlink:href="#CMR17-115"/>
     <use transform="translate(1321.17276886 14.9439145441)scale(0.996264009963)" xlink:href="#CMR17-101"/>
     <use transform="translate(1391.73439567 14.9439145441)scale(0.996264009963)" xlink:href="#CMR17-40"/>
     <use transform="translate(1427.01516347 14.9439145441)scale(0.996264009963)" xlink:href="#CMMI12-102"/>
     <use transform="translate(1475.09840114 0.0)scale(0.697381766617)" xlink:href="#CMMI12-99"/>
     <use transform="translate(1532.65867316 14.9439145441)scale(0.996264009963)" xlink:href="#CMR17-61"/>
     <use transform="translate(1632.0474703 14.9439145441)scale(0.996264009963)" xlink:href="#CMR17-56"/>
     <use transform="translate(1677.73794742 14.9439145441)scale(0.996264009963)" xlink:href="#CMR17-48"/>
     <use transform="translate(1723.42842454 14.9439145441)scale(0.996264009963)" xlink:href="#CMR17-48"/>
     <use transform="translate(1769.11890165 14.9439145441)scale(0.996264009963)" xlink:href="#CMR17-48"/>
     <use transform="translate(1844.88534512 14.9439145441)scale(0.996264009963)" xlink:href="#CMR17-72"/>
     <use transform="translate(1913.95777492 14.9439145441)scale(0.996264009963)" xlink:href="#CMR17-122"/>
     <use transform="translate(1954.44343538 14.9439145441)scale(0.996264009963)" xlink:href="#CMR17-44"/>
     <use transform="translate(2009.39046021 14.9439145441)scale(0.996264009963)" xlink:href="#CMMI12-78"/>
     <use transform="translate(2125.58624154 14.9439145441)scale(0.996264009963)" xlink:href="#CMR17-61"/>
     <use transform="translate(2224.97503867 14.9439145441)scale(0.996264009963)" xlink:href="#CMR17-49"/>
     <use transform="translate(2270.66551579 14.9439145441)scale(0.996264009963)" xlink:href="#CMR17-50"/>
     <use transform="translate(2316.35599291 14.9439145441)scale(0.996264009963)" xlink:href="#CMR17-55"/>
     <use transform="translate(2362.04647002 14.9439145441)scale(0.996264009963)" xlink:href="#CMR17-41"/>
     <use transform="translate(2397.32723782 14.9439145441)scale(0.996264009963)" xlink:href="#CMR17-46"/>
    </g>
   </g>
  </g>
 </g>
 <defs>
  <clipPath id="p4549ed8a9f">
   <rect height="85.2904820766" width="276.0" x="34.5" y="28.4301606922"/>
  </clipPath>
 </defs>
</svg>
