<?xml version="1.0" encoding="utf-8" standalone="no"?>
<!DOCTYPE svg PUBLIC "-//W3C//DTD SVG 1.1//EN"
  "http://www.w3.org/Graphics/SVG/1.1/DTD/svg11.dtd">
<!-- Created with matplotlib (http://matplotlib.org/) -->
<svg height="213pt" version="1.1" viewBox="0 0 345 213" width="345pt" xmlns="http://www.w3.org/2000/svg" xmlns:xlink="http://www.w3.org/1999/xlink">
 <defs>
  <style type="text/css">
*{stroke-linecap:butt;stroke-linejoin:round;}
  </style>
 </defs>
 <g id="figure_1">
  <g id="patch_1">
   <path d="
M0 213.226
L345 213.226
L345 0
L0 0
z
" style="fill:#ffffff;"/>
  </g>
  <g id="axes_1">
   <g id="patch_2">
    <path d="
M51.75 181.242
L310.5 181.242
L310.5 21.3226
L51.75 21.3226
z
" style="fill:#ffffff;"/>
   </g>
   <g id="line2d_1">
    <defs>
     <path d="
M-1.25 0
L1.25 0
M0 1.25
L0 -1.25" id="md24aedda73" style="stroke:#000000;stroke-width:0.5;"/>
    </defs>
    <g clip-path="url(#pdb219827e2)">
     <use style="stroke:#000000;stroke-width:0.5;" x="89.26875" xlink:href="#md24aedda73" y="143.698120421"/>
     <use style="stroke:#000000;stroke-width:0.5;" x="97.03125" xlink:href="#md24aedda73" y="143.698120421"/>
     <use style="stroke:#000000;stroke-width:0.5;" x="99.61875" xlink:href="#md24aedda73" y="123.107660107"/>
     <use style="stroke:#000000;stroke-width:0.5;" x="102.20625" xlink:href="#md24aedda73" y="123.107660107"/>
     <use style="stroke:#000000;stroke-width:0.5;" x="104.79375" xlink:href="#md24aedda73" y="125.962463267"/>
     <use style="stroke:#000000;stroke-width:0.5;" x="107.38125" xlink:href="#md24aedda73" y="114.23983153"/>
     <use style="stroke:#000000;stroke-width:0.5;" x="109.96875" xlink:href="#md24aedda73" y="106.028227424"/>
     <use style="stroke:#000000;stroke-width:0.5;" x="112.55625" xlink:href="#md24aedda73" y="106.719940329"/>
     <use style="stroke:#000000;stroke-width:0.5;" x="115.14375" xlink:href="#md24aedda73" y="104.74780246"/>
     <use style="stroke:#000000;stroke-width:0.5;" x="117.73125" xlink:href="#md24aedda73" y="106.719940329"/>
     <use style="stroke:#000000;stroke-width:0.5;" x="120.31875" xlink:href="#md24aedda73" y="106.719940329"/>
     <use style="stroke:#000000;stroke-width:0.5;" x="122.90625" xlink:href="#md24aedda73" y="99.3589775357"/>
     <use style="stroke:#000000;stroke-width:0.5;" x="125.49375" xlink:href="#md24aedda73" y="92.9039037269"/>
     <use style="stroke:#000000;stroke-width:0.5;" x="128.08125" xlink:href="#md24aedda73" y="93.9078360135"/>
     <use style="stroke:#000000;stroke-width:0.5;" x="130.66875" xlink:href="#md24aedda73" y="93.6493712165"/>
     <use style="stroke:#000000;stroke-width:0.5;" x="133.25625" xlink:href="#md24aedda73" y="88.6337524174"/>
     <use style="stroke:#000000;stroke-width:0.5;" x="135.84375" xlink:href="#md24aedda73" y="91.3168271957"/>
     <use style="stroke:#000000;stroke-width:0.5;" x="138.43125" xlink:href="#md24aedda73" y="87.0121453057"/>
     <use style="stroke:#000000;stroke-width:0.5;" x="141.01875" xlink:href="#md24aedda73" y="86.4169881218"/>
     <use style="stroke:#000000;stroke-width:0.5;" x="143.60625" xlink:href="#md24aedda73" y="83.679022051"/>
     <use style="stroke:#000000;stroke-width:0.5;" x="146.19375" xlink:href="#md24aedda73" y="85.9881131371"/>
     <use style="stroke:#000000;stroke-width:0.5;" x="148.78125" xlink:href="#md24aedda73" y="84.1573421461"/>
     <use style="stroke:#000000;stroke-width:0.5;" x="151.36875" xlink:href="#md24aedda73" y="80.4768607495"/>
     <use style="stroke:#000000;stroke-width:0.5;" x="153.95625" xlink:href="#md24aedda73" y="78.0683902607"/>
     <use style="stroke:#000000;stroke-width:0.5;" x="156.54375" xlink:href="#md24aedda73" y="76.042293761"/>
     <use style="stroke:#000000;stroke-width:0.5;" x="159.13125" xlink:href="#md24aedda73" y="73.4222416338"/>
     <use style="stroke:#000000;stroke-width:0.5;" x="161.71875" xlink:href="#md24aedda73" y="70.2245938523"/>
     <use style="stroke:#000000;stroke-width:0.5;" x="164.30625" xlink:href="#md24aedda73" y="67.174465184"/>
     <use style="stroke:#000000;stroke-width:0.5;" x="166.89375" xlink:href="#md24aedda73" y="64.39743474"/>
     <use style="stroke:#000000;stroke-width:0.5;" x="169.48125" xlink:href="#md24aedda73" y="61.9871180036"/>
     <use style="stroke:#000000;stroke-width:0.5;" x="172.06875" xlink:href="#md24aedda73" y="60.0519558027"/>
     <use style="stroke:#000000;stroke-width:0.5;" x="174.65625" xlink:href="#md24aedda73" y="58.6670427586"/>
     <use style="stroke:#000000;stroke-width:0.5;" x="177.24375" xlink:href="#md24aedda73" y="52.5815323183"/>
     <use style="stroke:#000000;stroke-width:0.5;" x="179.83125" xlink:href="#md24aedda73" y="33.4322800657"/>
     <use style="stroke:#000000;stroke-width:0.5;" x="182.41875" xlink:href="#md24aedda73" y="29.8213291245"/>
     <use style="stroke:#000000;stroke-width:0.5;" x="185.00625" xlink:href="#md24aedda73" y="55.5686705363"/>
     <use style="stroke:#000000;stroke-width:0.5;" x="187.59375" xlink:href="#md24aedda73" y="61.2954050986"/>
     <use style="stroke:#000000;stroke-width:0.5;" x="190.18125" xlink:href="#md24aedda73" y="63.4697764532"/>
     <use style="stroke:#000000;stroke-width:0.5;" x="192.76875" xlink:href="#md24aedda73" y="66.9502917234"/>
     <use style="stroke:#000000;stroke-width:0.5;" x="195.35625" xlink:href="#md24aedda73" y="70.183654386"/>
     <use style="stroke:#000000;stroke-width:0.5;" x="197.94375" xlink:href="#md24aedda73" y="72.3618123644"/>
     <use style="stroke:#000000;stroke-width:0.5;" x="200.53125" xlink:href="#md24aedda73" y="74.0148919946"/>
     <use style="stroke:#000000;stroke-width:0.5;" x="203.11875" xlink:href="#md24aedda73" y="76.637450945"/>
     <use style="stroke:#000000;stroke-width:0.5;" x="205.70625" xlink:href="#md24aedda73" y="78.53085889"/>
     <use style="stroke:#000000;stroke-width:0.5;" x="208.29375" xlink:href="#md24aedda73" y="79.6797715128"/>
     <use style="stroke:#000000;stroke-width:0.5;" x="210.88125" xlink:href="#md24aedda73" y="80.7539886749"/>
     <use style="stroke:#000000;stroke-width:0.5;" x="213.46875" xlink:href="#md24aedda73" y="82.8827205716"/>
     <use style="stroke:#000000;stroke-width:0.5;" x="216.05625" xlink:href="#md24aedda73" y="87.1653635719"/>
     <use style="stroke:#000000;stroke-width:0.5;" x="218.64375" xlink:href="#md24aedda73" y="86.860740316"/>
     <use style="stroke:#000000;stroke-width:0.5;" x="221.23125" xlink:href="#md24aedda73" y="89.5287726796"/>
     <use style="stroke:#000000;stroke-width:0.5;" x="223.81875" xlink:href="#md24aedda73" y="91.105358376"/>
     <use style="stroke:#000000;stroke-width:0.5;" x="226.40625" xlink:href="#md24aedda73" y="93.1475981867"/>
     <use style="stroke:#000000;stroke-width:0.5;" x="228.99375" xlink:href="#md24aedda73" y="91.9730516666"/>
     <use style="stroke:#000000;stroke-width:0.5;" x="231.58125" xlink:href="#md24aedda73" y="97.160398847"/>
     <use style="stroke:#000000;stroke-width:0.5;" x="234.16875" xlink:href="#md24aedda73" y="93.9078360135"/>
     <use style="stroke:#000000;stroke-width:0.5;" x="236.75625" xlink:href="#md24aedda73" y="98.5833720526"/>
     <use style="stroke:#000000;stroke-width:0.5;" x="239.34375" xlink:href="#md24aedda73" y="102.517199794"/>
     <use style="stroke:#000000;stroke-width:0.5;" x="241.93125" xlink:href="#md24aedda73" y="104.74780246"/>
     <use style="stroke:#000000;stroke-width:0.5;" x="244.51875" xlink:href="#md24aedda73" y="102.015426764"/>
     <use style="stroke:#000000;stroke-width:0.5;" x="247.10625" xlink:href="#md24aedda73" y="106.719940329"/>
     <use style="stroke:#000000;stroke-width:0.5;" x="249.69375" xlink:href="#md24aedda73" y="106.719940329"/>
     <use style="stroke:#000000;stroke-width:0.5;" x="252.28125" xlink:href="#md24aedda73" y="110.883255341"/>
     <use style="stroke:#000000;stroke-width:0.5;" x="254.86875" xlink:href="#md24aedda73" y="104.152645276"/>
     <use style="stroke:#000000;stroke-width:0.5;" x="257.45625" xlink:href="#md24aedda73" y="104.74780246"/>
     <use style="stroke:#000000;stroke-width:0.5;" x="260.04375" xlink:href="#md24aedda73" y="105.372002953"/>
     <use style="stroke:#000000;stroke-width:0.5;" x="262.63125" xlink:href="#md24aedda73" y="115.587768906"/>
     <use style="stroke:#000000;stroke-width:0.5;" x="265.21875" xlink:href="#md24aedda73" y="110.883255341"/>
     <use style="stroke:#000000;stroke-width:0.5;" x="267.80625" xlink:href="#md24aedda73" y="111.907287509"/>
     <use style="stroke:#000000;stroke-width:0.5;" x="270.39375" xlink:href="#md24aedda73" y="115.587768906"/>
     <use style="stroke:#000000;stroke-width:0.5;" x="272.98125" xlink:href="#md24aedda73" y="109.93514964"/>
     <use style="stroke:#000000;stroke-width:0.5;" x="275.56875" xlink:href="#md24aedda73" y="110.883255341"/>
     <use style="stroke:#000000;stroke-width:0.5;" x="278.15625" xlink:href="#md24aedda73" y="129.642944663"/>
     <use style="stroke:#000000;stroke-width:0.5;" x="280.74375" xlink:href="#md24aedda73" y="106.719940329"/>
     <use style="stroke:#000000;stroke-width:0.5;" x="283.33125" xlink:href="#md24aedda73" y="114.23983153"/>
     <use style="stroke:#000000;stroke-width:0.5;" x="285.91875" xlink:href="#md24aedda73" y="125.962463267"/>
     <use style="stroke:#000000;stroke-width:0.5;" x="288.50625" xlink:href="#md24aedda73" y="115.587768906"/>
     <use style="stroke:#000000;stroke-width:0.5;" x="291.09375" xlink:href="#md24aedda73" y="120.775116086"/>
     <use style="stroke:#000000;stroke-width:0.5;" x="293.68125" xlink:href="#md24aedda73" y="106.719940329"/>
     <use style="stroke:#000000;stroke-width:0.5;" x="296.26875" xlink:href="#md24aedda73" y="117.09463469"/>
     <use style="stroke:#000000;stroke-width:0.5;" x="298.85625" xlink:href="#md24aedda73" y="120.775116086"/>
     <use style="stroke:#000000;stroke-width:0.5;" x="301.44375" xlink:href="#md24aedda73" y="129.642944663"/>
     <use style="stroke:#000000;stroke-width:0.5;" x="304.03125" xlink:href="#md24aedda73" y="117.09463469"/>
     <use style="stroke:#000000;stroke-width:0.5;" x="306.61875" xlink:href="#md24aedda73" y="120.775116086"/>
     <use style="stroke:#000000;stroke-width:0.5;" x="309.20625" xlink:href="#md24aedda73" y="123.107660107"/>
     <use style="stroke:#000000;stroke-width:0.5;" x="311.79375" xlink:href="#md24aedda73" y="134.830291844"/>
    </g>
   </g>
   <g id="line2d_2">
    <path clip-path="url(#pdb219827e2)" d="
M50.973 172.814
L180.477 44.7499
L181.773 44.7499
L311.277 172.814
L311.277 172.814" style="fill:none;stroke:#000000;stroke-linecap:square;"/>
   </g>
   <g id="matplotlib.axis_1">
    <g id="xtick_1">
     <g id="line2d_3">
      <path clip-path="url(#pdb219827e2)" d="
M51.75 181.242
L51.75 21.3226" style="fill:none;stroke:#000000;stroke-dasharray:1.000000,3.000000;stroke-dashoffset:0.0;stroke-width:0.5;"/>
     </g>
     <g id="line2d_4">
      <defs>
       <path d="
M0 0
L0 -4" id="m93b0483c22" style="stroke:#000000;stroke-width:0.5;"/>
      </defs>
      <g>
       <use style="stroke:#000000;stroke-width:0.5;" x="51.75" xlink:href="#m93b0483c22" y="181.242274413"/>
      </g>
     </g>
     <g id="line2d_5">
      <defs>
       <path d="
M0 0
L0 4" id="m741efc42ff" style="stroke:#000000;stroke-width:0.5;"/>
      </defs>
      <g>
       <use style="stroke:#000000;stroke-width:0.5;" x="51.75" xlink:href="#m741efc42ff" y="21.3226205192"/>
      </g>
     </g>
     <g id="text_1">
      <!-- $-0.2$ -->
      <defs>
       <path d="
M65.9062 23
C67.5938 23 69.4062 23 69.4062 25
C69.4062 27 67.5938 27 65.9062 27
L11.7969 27
C10.0938 27 8.29688 27 8.29688 25
C8.29688 23 10.0938 23 11.7969 23
z
" id="CMSY10-0"/>
       <path d="
M41.7031 15.4531
L39.9062 15.4531
C38.9062 8.375 38.0938 7.17188 37.7031 6.5625
C37.2031 5.76562 30 5.76562 28.5938 5.76562
L9.40625 5.76562
C13 9.67188 20 16.75 28.5 24.9531
C34.5938 30.7344 41.7031 37.5312 41.7031 47.4219
C41.7031 59.2188 32.2969 66 21.7969 66
C10.7969 66 4.09375 56.3125 4.09375 47.3438
C4.09375 43.4375 7 42.9375 8.20312 42.9375
C9.20312 42.9375 12.2031 43.5469 12.2031 47.0312
C12.2031 50.1094 9.59375 51 8.20312 51
C7.59375 51 7 50.9062 6.59375 50.7031
C8.5 59.2188 14.2969 63.4062 20.4062 63.4062
C29.0938 63.4062 34.7969 56.5156 34.7969 47.4219
C34.7969 38.7344 29.7031 31.25 24 24.75
L4.09375 2.28125
L4.09375 0
L39.2969 0
z
" id="CMR17-50"/>
       <path d="
M42 31.6406
C42 37.75 41.9062 48.125 37.7031 56.1094
C34 63.1094 28.0938 65.5938 22.9062 65.5938
C18.0938 65.5938 12 63.4062 8.20312 56.2031
C4.20312 48.7188 3.79688 39.4375 3.79688 31.6406
C3.79688 25.9531 3.90625 17.2812 7 9.67188
C11.2969 -0.609375 19 -2 22.9062 -2
C27.5 -2 34.5 -0.109375 38.5938 9.375
C41.5938 16.2812 42 24.3594 42 31.6406
M22.9062 -0.40625
C16.5 -0.40625 12.7031 5.07812 11.2969 12.6875
C10.2031 18.5625 10.2031 27.1562 10.2031 32.75
C10.2031 40.4375 10.2031 46.8281 11.5 52.9219
C13.4062 61.3906 19 64 22.9062 64
C27 64 32.2969 61.2969 34.2031 53.125
C35.5 47.4375 35.5938 40.7344 35.5938 32.75
C35.5938 26.25 35.5938 18.2656 34.4062 12.375
C32.2969 1.48438 26.4062 -0.40625 22.9062 -0.40625" id="CMR17-48"/>
       <path d="
M18.4062 4.79688
C18.4062 7.6875 16 9.67188 13.5938 9.67188
C10.7031 9.67188 8.70312 7.28125 8.70312 4.89062
C8.70312 2 11.0938 0 13.5 0
C16.4062 0 18.4062 2.39062 18.4062 4.79688" id="CMMI12-58"/>
      </defs>
      <g transform="translate(41.5105886495 192.160772793)scale(0.1 -0.1)">
       <use transform="scale(0.996264009963)" xlink:href="#CMSY10-0"/>
       <use transform="translate(77.4874676506 0.0)scale(0.996264009963)" xlink:href="#CMR17-48"/>
       <use transform="translate(123.177944768 0.0)scale(0.996264009963)" xlink:href="#CMMI12-58"/>
       <use transform="translate(150.275121857 0.0)scale(0.996264009963)" xlink:href="#CMR17-50"/>
      </g>
     </g>
    </g>
    <g id="xtick_2">
     <g id="line2d_6">
      <path clip-path="url(#pdb219827e2)" d="
M116.438 181.242
L116.438 21.3226" style="fill:none;stroke:#000000;stroke-dasharray:1.000000,3.000000;stroke-dashoffset:0.0;stroke-width:0.5;"/>
     </g>
     <g id="line2d_7">
      <g>
       <use style="stroke:#000000;stroke-width:0.5;" x="116.4375" xlink:href="#m93b0483c22" y="181.242274413"/>
      </g>
     </g>
     <g id="line2d_8">
      <g>
       <use style="stroke:#000000;stroke-width:0.5;" x="116.4375" xlink:href="#m741efc42ff" y="21.3226205192"/>
      </g>
     </g>
     <g id="text_2">
      <!-- $-0.1$ -->
      <defs>
       <path d="
M26.5938 63.3125
C26.5938 65.4062 26.5 65.5 25.0938 65.5
C21.2031 61.1875 15.2969 59.7969 9.70312 59.7969
C9.40625 59.7969 8.90625 59.7969 8.79688 59.6094
C8.70312 59.3906 8.70312 59.1719 8.70312 57
C11.7969 57 17 57.5938 21 59.9844
L21 7.20312
C21 3.6875 20.7969 2.5 12.2031 2.5
L9.20312 2.5
L9.20312 0
C14 0 19 0 23.7969 0
C28.5938 0 33.5938 0 38.4062 0
L38.4062 2.5
L35.4062 2.5
C26.7969 2.5 26.5938 3.59375 26.5938 7.15625
z
" id="CMR17-49"/>
      </defs>
      <g transform="translate(106.198088649 192.160772793)scale(0.1 -0.1)">
       <use transform="scale(0.996264009963)" xlink:href="#CMSY10-0"/>
       <use transform="translate(77.4874676506 0.0)scale(0.996264009963)" xlink:href="#CMR17-48"/>
       <use transform="translate(123.177944768 0.0)scale(0.996264009963)" xlink:href="#CMMI12-58"/>
       <use transform="translate(150.275121857 0.0)scale(0.996264009963)" xlink:href="#CMR17-49"/>
      </g>
     </g>
    </g>
    <g id="xtick_3">
     <g id="line2d_9">
      <path clip-path="url(#pdb219827e2)" d="
M181.125 181.242
L181.125 21.3226" style="fill:none;stroke:#000000;stroke-dasharray:1.000000,3.000000;stroke-dashoffset:0.0;stroke-width:0.5;"/>
     </g>
     <g id="line2d_10">
      <g>
       <use style="stroke:#000000;stroke-width:0.5;" x="181.125" xlink:href="#m93b0483c22" y="181.242274413"/>
      </g>
     </g>
     <g id="line2d_11">
      <g>
       <use style="stroke:#000000;stroke-width:0.5;" x="181.125" xlink:href="#m741efc42ff" y="21.3226205192"/>
      </g>
     </g>
     <g id="text_3">
      <!-- $0.0$ -->
      <g transform="translate(174.759960512 192.160772793)scale(0.1 -0.1)">
       <use transform="scale(0.996264009963)" xlink:href="#CMR17-48"/>
       <use transform="translate(45.6904771171 0.0)scale(0.996264009963)" xlink:href="#CMMI12-58"/>
       <use transform="translate(72.7876542069 0.0)scale(0.996264009963)" xlink:href="#CMR17-48"/>
      </g>
     </g>
    </g>
    <g id="xtick_4">
     <g id="line2d_12">
      <path clip-path="url(#pdb219827e2)" d="
M245.813 181.242
L245.813 21.3226" style="fill:none;stroke:#000000;stroke-dasharray:1.000000,3.000000;stroke-dashoffset:0.0;stroke-width:0.5;"/>
     </g>
     <g id="line2d_13">
      <g>
       <use style="stroke:#000000;stroke-width:0.5;" x="245.8125" xlink:href="#m93b0483c22" y="181.242274413"/>
      </g>
     </g>
     <g id="line2d_14">
      <g>
       <use style="stroke:#000000;stroke-width:0.5;" x="245.8125" xlink:href="#m741efc42ff" y="21.3226205192"/>
      </g>
     </g>
     <g id="text_4">
      <!-- $0.1$ -->
      <g transform="translate(239.447460512 192.160772793)scale(0.1 -0.1)">
       <use transform="scale(0.996264009963)" xlink:href="#CMR17-48"/>
       <use transform="translate(45.6904771171 0.0)scale(0.996264009963)" xlink:href="#CMMI12-58"/>
       <use transform="translate(72.7876542069 0.0)scale(0.996264009963)" xlink:href="#CMR17-49"/>
      </g>
     </g>
    </g>
    <g id="xtick_5">
     <g id="line2d_15">
      <path clip-path="url(#pdb219827e2)" d="
M310.5 181.242
L310.5 21.3226" style="fill:none;stroke:#000000;stroke-dasharray:1.000000,3.000000;stroke-dashoffset:0.0;stroke-width:0.5;"/>
     </g>
     <g id="line2d_16">
      <g>
       <use style="stroke:#000000;stroke-width:0.5;" x="310.5" xlink:href="#m93b0483c22" y="181.242274413"/>
      </g>
     </g>
     <g id="line2d_17">
      <g>
       <use style="stroke:#000000;stroke-width:0.5;" x="310.5" xlink:href="#m741efc42ff" y="21.3226205192"/>
      </g>
     </g>
     <g id="text_5">
      <!-- $0.2$ -->
      <g transform="translate(304.134960512 192.160772793)scale(0.1 -0.1)">
       <use transform="scale(0.996264009963)" xlink:href="#CMR17-48"/>
       <use transform="translate(45.6904771171 0.0)scale(0.996264009963)" xlink:href="#CMMI12-58"/>
       <use transform="translate(72.7876542069 0.0)scale(0.996264009963)" xlink:href="#CMR17-50"/>
      </g>
     </g>
    </g>
    <g id="text_6">
     <!-- $x$ -->
     <defs>
      <path d="
M47.4062 40.7188
C44.2031 40.1094 43 37.7188 43 35.8281
C43 33.4219 44.9062 32.625 46.2969 32.625
C49.2969 32.625 51.4062 35.2188 51.4062 37.9219
C51.4062 42.1094 46.5938 44 42.4062 44
C36.2969 44 32.9062 38.0156 32 36.125
C29.7031 44 23.5 44 21.7031 44
C11.5 44 6.09375 30.9375 6.09375 28.7344
C6.09375 28.3438 6.5 27.8438 7.20312 27.8438
C8 27.8438 8.20312 28.4375 8.40625 28.8438
C11.7969 39.9219 18.5 42.0156 21.4062 42.0156
C25.9062 42.0156 26.7969 37.8125 26.7969 35.4219
C26.7969 33.2344 26.2031 30.9375 25 26.1406
L21.5938 12.4688
C20.0938 6.48438 17.2031 1 11.9062 1
C11.4062 1 8.90625 1 6.79688 2.29688
C10.4062 3 11.2031 5.98438 11.2031 7.1875
C11.2031 9.1875 9.70312 10.375 7.79688 10.375
C5.40625 10.375 2.79688 8.28125 2.79688 5.09375
C2.79688 0.890625 7.5 -1 11.7969 -1
C16.5938 -1 20 2.79688 22.0938 6.89062
C23.7031 1 28.7031 -1 32.4062 -1
C42.5938 -1 48 12.0781 48 14.2656
C48 14.7656 47.5938 15.1719 47 15.1719
C46.0938 15.1719 46 14.6719 45.7031 13.875
C43 5.09375 37.2031 1 32.7031 1
C29.2031 1 27.2969 3.59375 27.2969 7.6875
C27.2969 9.875 27.7031 11.4688 29.2969 18.0625
L32.7969 31.625
C34.2969 37.625 37.7031 42.0156 42.2969 42.0156
C42.5 42.0156 45.2969 42.0156 47.4062 40.7188" id="CMMI12-120"/>
     </defs>
     <g transform="translate(178.2780406 206.016449503)scale(0.1 -0.1)">
      <use transform="scale(0.996264009963)" xlink:href="#CMMI12-120"/>
     </g>
    </g>
   </g>
   <g id="matplotlib.axis_2">
    <g id="ytick_1">
     <g id="line2d_18">
      <path clip-path="url(#pdb219827e2)" d="
M51.75 181.242
L310.5 181.242" style="fill:none;stroke:#000000;stroke-dasharray:1.000000,3.000000;stroke-dashoffset:0.0;stroke-width:0.5;"/>
     </g>
     <g id="line2d_19">
      <defs>
       <path d="
M0 0
L4 0" id="m728421d6d4" style="stroke:#000000;stroke-width:0.5;"/>
      </defs>
      <g>
       <use style="stroke:#000000;stroke-width:0.5;" x="51.75" xlink:href="#m728421d6d4" y="181.242274413"/>
      </g>
     </g>
     <g id="line2d_20">
      <defs>
       <path d="
M0 0
L-4 0" id="mcb0005524f" style="stroke:#000000;stroke-width:0.5;"/>
      </defs>
      <g>
       <use style="stroke:#000000;stroke-width:0.5;" x="310.5" xlink:href="#mcb0005524f" y="181.242274413"/>
      </g>
     </g>
     <g id="text_7">
      <!-- $-7.5$ -->
      <defs>
       <path d="
M11.4062 57.6875
C12.4062 57.2812 16.5 56 20.7031 56
C30 56 35.0938 61.0156 38 63.9219
C38 64.7344 38 65.25 37.4062 65.25
C37.2969 65.25 37.0938 65.25 36.2969 64.8281
C32.7969 63.3125 28.7031 62.0781 23.7031 62.0781
C20.7031 62.0781 16.2031 62.5 11.2969 64.7344
C10.2031 65.25 10 65.25 9.90625 65.25
C9.40625 65.25 9.29688 65.1406 9.29688 63.1562
L9.29688 34.2812
C9.29688 32.5 9.29688 32 10.2969 32
C10.7969 32 11 32.2031 11.5 32.9062
C14.7031 37.4844 19.0938 39.4062 24.0938 39.4062
C27.5938 39.4062 35.0938 37.2188 35.0938 20.1406
C35.0938 16.9531 35.0938 11.1719 32.0938 6.57812
C29.5938 2.48438 25.7031 0.390625 21.4062 0.390625
C14.7969 0.390625 8.09375 5 6.29688 12.7188
C6.70312 12.6094 7.5 12.4219 7.90625 12.4219
C9.20312 12.4219 11.7031 13.125 11.7031 16.2188
C11.7031 18.9062 9.79688 20 7.90625 20
C5.59375 20 4.09375 18.5938 4.09375 15.7969
C4.09375 7.09375 11 -2 21.5938 -2
C31.9062 -2 41.7031 6.875 41.7031 19.75
C41.7031 31.7188 33.9062 41 24.2031 41
C19.0938 41 14.7969 39.0938 11.4062 35.4531
z
" id="CMR17-53"/>
       <path d="
M45.0938 61.5781
L45.0938 63.7656
L21.5938 63.7656
C9.90625 63.7656 9.70312 65.0781 9.29688 67
L7.5 67
L4.59375 48.3438
L6.40625 48.3438
C6.70312 50.2344 7.40625 55.3125 8.59375 57.2031
C9.20312 58 16.5938 58 18.2969 58
L40.2969 58
L29.2031 41.5781
C21.7969 30.5312 16.7031 15.6094 16.7031 2.57812
C16.7031 1.39062 16.7031 -2 20.2969 -2
C23.9062 -2 23.9062 1.39062 23.9062 2.67188
L23.9062 7.26562
C23.9062 23.5625 26.7031 34.3125 31.2969 41.1875
z
" id="CMR17-55"/>
      </defs>
      <g transform="translate(27.271177299 183.732934438)scale(0.1 -0.1)">
       <use transform="scale(0.996264009963)" xlink:href="#CMSY10-0"/>
       <use transform="translate(77.4874676506 0.0)scale(0.996264009963)" xlink:href="#CMR17-55"/>
       <use transform="translate(123.177944768 0.0)scale(0.996264009963)" xlink:href="#CMMI12-58"/>
       <use transform="translate(150.275121857 0.0)scale(0.996264009963)" xlink:href="#CMR17-53"/>
      </g>
     </g>
    </g>
    <g id="ytick_2">
     <g id="line2d_21">
      <path clip-path="url(#pdb219827e2)" d="
M51.75 149.258
L310.5 149.258" style="fill:none;stroke:#000000;stroke-dasharray:1.000000,3.000000;stroke-dashoffset:0.0;stroke-width:0.5;"/>
     </g>
     <g id="line2d_22">
      <g>
       <use style="stroke:#000000;stroke-width:0.5;" x="51.75" xlink:href="#m728421d6d4" y="149.258343634"/>
      </g>
     </g>
     <g id="line2d_23">
      <g>
       <use style="stroke:#000000;stroke-width:0.5;" x="310.5" xlink:href="#mcb0005524f" y="149.258343634"/>
      </g>
     </g>
     <g id="text_8">
      <!-- $-5.0$ -->
      <g transform="translate(27.271177299 151.749003659)scale(0.1 -0.1)">
       <use transform="scale(0.996264009963)" xlink:href="#CMSY10-0"/>
       <use transform="translate(77.4874676506 0.0)scale(0.996264009963)" xlink:href="#CMR17-53"/>
       <use transform="translate(123.177944768 0.0)scale(0.996264009963)" xlink:href="#CMMI12-58"/>
       <use transform="translate(150.275121857 0.0)scale(0.996264009963)" xlink:href="#CMR17-48"/>
      </g>
     </g>
    </g>
    <g id="ytick_3">
     <g id="line2d_24">
      <path clip-path="url(#pdb219827e2)" d="
M51.75 117.274
L310.5 117.274" style="fill:none;stroke:#000000;stroke-dasharray:1.000000,3.000000;stroke-dashoffset:0.0;stroke-width:0.5;"/>
     </g>
     <g id="line2d_25">
      <g>
       <use style="stroke:#000000;stroke-width:0.5;" x="51.75" xlink:href="#m728421d6d4" y="117.274412855"/>
      </g>
     </g>
     <g id="line2d_26">
      <g>
       <use style="stroke:#000000;stroke-width:0.5;" x="310.5" xlink:href="#mcb0005524f" y="117.274412855"/>
      </g>
     </g>
     <g id="text_9">
      <!-- $-2.5$ -->
      <g transform="translate(27.271177299 119.76507288)scale(0.1 -0.1)">
       <use transform="scale(0.996264009963)" xlink:href="#CMSY10-0"/>
       <use transform="translate(77.4874676506 0.0)scale(0.996264009963)" xlink:href="#CMR17-50"/>
       <use transform="translate(123.177944768 0.0)scale(0.996264009963)" xlink:href="#CMMI12-58"/>
       <use transform="translate(150.275121857 0.0)scale(0.996264009963)" xlink:href="#CMR17-53"/>
      </g>
     </g>
    </g>
    <g id="ytick_4">
     <g id="line2d_27">
      <path clip-path="url(#pdb219827e2)" d="
M51.75 85.2905
L310.5 85.2905" style="fill:none;stroke:#000000;stroke-dasharray:1.000000,3.000000;stroke-dashoffset:0.0;stroke-width:0.5;"/>
     </g>
     <g id="line2d_28">
      <g>
       <use style="stroke:#000000;stroke-width:0.5;" x="51.75" xlink:href="#m728421d6d4" y="85.2904820766"/>
      </g>
     </g>
     <g id="line2d_29">
      <g>
       <use style="stroke:#000000;stroke-width:0.5;" x="310.5" xlink:href="#mcb0005524f" y="85.2904820766"/>
      </g>
     </g>
     <g id="text_10">
      <!-- $0.0$ -->
      <g transform="translate(35.0199210237 87.7811421015)scale(0.1 -0.1)">
       <use transform="scale(0.996264009963)" xlink:href="#CMR17-48"/>
       <use transform="translate(45.6904771171 0.0)scale(0.996264009963)" xlink:href="#CMMI12-58"/>
       <use transform="translate(72.7876542069 0.0)scale(0.996264009963)" xlink:href="#CMR17-48"/>
      </g>
     </g>
    </g>
    <g id="ytick_5">
     <g id="line2d_30">
      <path clip-path="url(#pdb219827e2)" d="
M51.75 53.3066
L310.5 53.3066" style="fill:none;stroke:#000000;stroke-dasharray:1.000000,3.000000;stroke-dashoffset:0.0;stroke-width:0.5;"/>
     </g>
     <g id="line2d_31">
      <g>
       <use style="stroke:#000000;stroke-width:0.5;" x="51.75" xlink:href="#m728421d6d4" y="53.3065512979"/>
      </g>
     </g>
     <g id="line2d_32">
      <g>
       <use style="stroke:#000000;stroke-width:0.5;" x="310.5" xlink:href="#mcb0005524f" y="53.3065512979"/>
      </g>
     </g>
     <g id="text_11">
      <!-- $2.5$ -->
      <g transform="translate(35.0199210237 55.7972113228)scale(0.1 -0.1)">
       <use transform="scale(0.996264009963)" xlink:href="#CMR17-50"/>
       <use transform="translate(45.6904771171 0.0)scale(0.996264009963)" xlink:href="#CMMI12-58"/>
       <use transform="translate(72.7876542069 0.0)scale(0.996264009963)" xlink:href="#CMR17-53"/>
      </g>
     </g>
    </g>
    <g id="ytick_6">
     <g id="line2d_33">
      <path clip-path="url(#pdb219827e2)" d="
M51.75 21.3226
L310.5 21.3226" style="fill:none;stroke:#000000;stroke-dasharray:1.000000,3.000000;stroke-dashoffset:0.0;stroke-width:0.5;"/>
     </g>
     <g id="line2d_34">
      <g>
       <use style="stroke:#000000;stroke-width:0.5;" x="51.75" xlink:href="#m728421d6d4" y="21.3226205192"/>
      </g>
     </g>
     <g id="line2d_35">
      <g>
       <use style="stroke:#000000;stroke-width:0.5;" x="310.5" xlink:href="#mcb0005524f" y="21.3226205192"/>
      </g>
     </g>
     <g id="text_12">
      <!-- $5.0$ -->
      <g transform="translate(35.0199210237 23.8132805441)scale(0.1 -0.1)">
       <use transform="scale(0.996264009963)" xlink:href="#CMR17-53"/>
       <use transform="translate(45.6904771171 0.0)scale(0.996264009963)" xlink:href="#CMMI12-58"/>
       <use transform="translate(72.7876542069 0.0)scale(0.996264009963)" xlink:href="#CMR17-48"/>
      </g>
     </g>
    </g>
    <g id="text_13">
     <!-- $\log p(x)$ -->
     <defs>
      <path d="
M4.29688 -12.3281
C3.59375 -15.3125 3.20312 -16.1094 -0.90625 -16.1094
C-2.09375 -16.1094 -3.09375 -16.1094 -3.09375 -18
C-3.09375 -18.2031 -3 -19 -1.90625 -19
C-0.59375 -19 0.796875 -19 2.09375 -19
L6.40625 -19
C8.5 -19 13.5938 -19 15.7031 -19
C16.2969 -19 17.5 -19 17.5 -17.2031
C17.5 -16.1094 16.7969 -16.1094 15.0938 -16.1094
C10.5 -16.1094 10.2031 -15.4219 10.2031 -14.6406
C10.2031 -13.4531 14.7031 3.42188 15.2969 5.6875
C16.4062 2.89062 19.0938 -1 24.2969 -1
C35.5938 -1 47.7969 13.6719 47.7969 28.3438
C47.7969 37.5156 42.5938 44 35.0938 44
C28.7031 44 23.2969 37.8125 22.2031 36.4219
C21.4062 41.4062 17.5 44 13.5 44
C10.5938 44 8.29688 42.6094 6.40625 38.8125
C4.59375 35.2188 3.20312 29.1406 3.20312 28.7344
C3.20312 28.3438 3.59375 27.8438 4.29688 27.8438
C5.09375 27.8438 5.20312 27.9375 5.79688 30.2344
C7.29688 36.125 9.20312 42.0156 13.2031 42.0156
C15.5 42.0156 16.2969 40.4219 16.2969 37.4531
C16.2969 35.0781 16 34.0781 15.5938 32.2969
z

M21.5938 31.1406
C22.2969 33.9219 25.0938 36.8281 26.7031 38.2188
C27.7969 39.2188 31.0938 42.0156 34.9062 42.0156
C39.2969 42.0156 41.2969 37.625 41.2969 32.4375
C41.2969 27.6406 38.5 16.3594 36 11.1719
C33.5 5.78125 28.9062 1 24.2969 1
C17.5 1 16.4062 9.57812 16.4062 9.98438
C16.4062 10.2812 16.5938 11.0781 16.7031 11.5781
z
" id="CMMI12-112"/>
      <path d="
M26.2969 24.6719
C26.2969 31.8438 25.5938 43.9844 19.5938 56.8281
C14.7969 67.1875 6.59375 74.4531 5.40625 74.4531
C5.09375 74.4531 4.70312 74.3438 4.70312 73.8594
C4.70312 73.6719 4.79688 73.5625 4.90625 73.3594
C9.70312 68.3906 21.9062 55.75 21.9062 24.7969
C21.9062 -6.28125 9.79688 -18.9219 4.90625 -23.9062
C4.79688 -24.0938 4.70312 -24.2031 4.70312 -24.3906
C4.70312 -24.8906 5.09375 -25 5.40625 -25
C6.5 -25 15 -17.625 19.9062 -6.67188
C24.9062 4.375 26.2969 15.125 26.2969 24.6719" id="CMR17-41"/>
      <path d="
M30.5938 -24.4062
C30.5938 -24.3125 30.5938 -24.1094 30.2969 -23.8125
C25.7031 -19.1406 13.4062 -6.39062 13.4062 24.6719
C13.4062 55.75 25.5 68.3906 30.4062 73.3594
C30.4062 73.4688 30.5938 73.6719 30.5938 73.9531
C30.5938 74.25 30.2969 74.4531 29.9062 74.4531
C28.7969 74.4531 20.2969 67.0781 15.4062 56.125
C10.4062 45.0781 9 34.3281 9 24.7812
C9 17.6094 9.70312 5.46875 15.7031 -7.375
C20.5 -17.7344 28.7031 -25 29.9062 -25
C30.4062 -25 30.5938 -24.7969 30.5938 -24.4062" id="CMR17-40"/>
      <path d="
M11.0938 18.1875
C13 16.6875 16.2969 15 20.2969 15
C28.2031 15 35 21.2031 35 29.5
C35 32.0938 34.2031 36.0938 31.2031 39.2031
C34 42.0625 38.0938 43 40.4062 43
C40.7969 43 41.4062 43 41.9062 42.7656
C41.5 42.6719 40.5938 42.2812 40.5938 40.7344
C40.5938 39.4844 41.5 38.6094 42.7969 38.6094
C44.2969 38.6094 45.0938 39.5781 45.0938 40.8438
C45.0938 42.6719 43.5938 44.5938 40.4062 44.5938
C36.4062 44.5938 32.9062 42.7812 30.0938 40.3125
C27.0938 43.0156 23.5 44 20.2969 44
C12.4062 44 5.59375 37.7969 5.59375 29.5
C5.59375 23.7812 8.90625 20.1875 9.90625 19.1875
C6.90625 15.6875 6.90625 11.6094 6.90625 11.1094
C6.90625 8.51562 7.90625 4.71875 11.2969 2.625
C6.09375 1.32812 2 -2.64062 2 -7.59375
C2 -14.7344 11.5 -20 22.9062 -20
C33.9062 -20 43.7969 -14.9375 43.7969 -7.48438
C43.7969 6 29 6 21.2969 6
C19 6 14.9062 6 14.4062 6.10938
C11.2969 6.60938 9.20312 9.40625 9.20312 12.8906
C9.20312 13.7812 9.20312 16 11.0938 18.1875
M20.2969 16.6875
C11.5 16.6875 11.5 27.5 11.5 29.5156
C11.5 31.5 11.5 42.3125 20.2969 42.3125
C29.0938 42.3125 29.0938 31.5 29.0938 29.5156
C29.0938 27.5 29.0938 16.6875 20.2969 16.6875
M22.9062 -18.2969
C12.9062 -18.2969 6 -13.0469 6 -7.59375
C6 -4.51562 7.70312 -1.64062 9.90625 -0.0625
C12.4062 1.625 13.4062 1.625 20.2031 1.625
C28.4062 1.625 39.7969 1.625 39.7969 -7.59375
C39.7969 -13.0469 32.9062 -18.2969 22.9062 -18.2969" id="CMR17-103"/>
      <path d="
M43.0938 21.1875
C43.0938 34 33.7969 44 22.9062 44
C12 44 2.70312 34 2.70312 21.1875
C2.70312 8.60938 12 -1 22.9062 -1
C33.7969 -1 43.0938 8.60938 43.0938 21.1875
M22.9062 0.796875
C18.2031 0.796875 14.2031 3.59375 11.9062 7.5
C9.40625 11.9844 9.09375 17.5938 9.09375 22
C9.09375 26.2031 9.29688 31.4062 11.9062 35.9062
C13.9062 39.2031 17.7969 42.4062 22.9062 42.4062
C27.4062 42.4062 31.2031 39.9062 33.5938 36.4062
C36.7031 31.7031 36.7031 25.1094 36.7031 22
C36.7031 18.0938 36.5 12.1094 33.7969 7.29688
C31 2.70312 26.7031 0.796875 22.9062 0.796875" id="CMR17-111"/>
      <path d="
M15.2969 68.6875
L3.40625 67.5938
L3.40625 65
C9.29688 65 10.2031 64.4062 10.2031 59.6406
L10.2031 6.65625
C10.2031 2.875 9.79688 2.39062 3.40625 2.39062
L3.40625 -0.203125
C5.79688 0 10.2031 0 12.7031 0
C15.2969 0 19.7031 0 22.0938 -0.203125
L22.0938 2.39062
C15.7031 2.39062 15.2969 2.78125 15.2969 6.65625
z
" id="CMR17-108"/>
     </defs>
     <g transform="translate(19.7805172741 117.774420317)rotate(-90.0)scale(0.1 -0.1)">
      <use transform="scale(0.996264009963)" xlink:href="#CMR17-108"/>
      <use transform="translate(24.8710584819 0.0)scale(0.996264009963)" xlink:href="#CMR17-111"/>
      <use transform="translate(70.5615355989 0.0)scale(0.996264009963)" xlink:href="#CMR17-103"/>
      <use transform="translate(134.157584108 0.0)scale(0.996264009963)" xlink:href="#CMMI12-112"/>
      <use transform="translate(183.117098114 0.0)scale(0.996264009963)" xlink:href="#CMR17-40"/>
      <use transform="translate(218.397865913 0.0)scale(0.996264009963)" xlink:href="#CMMI12-120"/>
      <use transform="translate(273.831925446 0.0)scale(0.996264009963)" xlink:href="#CMR17-41"/>
     </g>
    </g>
   </g>
   <g id="patch_3">
    <path d="
M51.75 21.3226
L310.5 21.3226" style="fill:none;stroke:#000000;"/>
   </g>
   <g id="patch_4">
    <path d="
M310.5 181.242
L310.5 21.3226" style="fill:none;stroke:#000000;"/>
   </g>
   <g id="patch_5">
    <path d="
M51.75 181.242
L310.5 181.242" style="fill:none;stroke:#000000;"/>
   </g>
   <g id="patch_6">
    <path d="
M51.75 181.242
L51.75 21.3226" style="fill:none;stroke:#000000;"/>
   </g>
   <g id="text_14">
    <!-- Distribution of the values of \texttt{data} -->
    <defs>
     <path d="
M5.20312 68
L5.20312 65.4062
C12.0938 65.4062 13.2031 65.4062 13.2031 60.9375
L13.2031 7.0625
C13.2031 2.59375 12.0938 2.59375 5.20312 2.59375
L5.20312 0
L37 0
C53.0938 0 66 14.7344 66 33.4531
C66 52.2812 53.2969 68 37 68
z

M23.7969 2.59375
C19.7969 2.59375 19.5938 3.07812 19.5938 6.46875
L19.5938 61.5312
C19.5938 64.9219 19.7969 65.4062 23.7969 65.4062
L35 65.4062
C43.2969 65.4062 58.5938 60.5312 58.5938 33.4531
C58.5938 19.4062 54.5 13.7344 52.5938 11.0469
C50.2031 7.96875 44.5 2.59375 35 2.59375
z
" id="CMR17-68"/>
     <path d="
M36 25.8281
C36 32.375 36 35.8438 31.7969 39.7344
C28.0938 43 23.7969 44 20.4062 44
C12.5 44 6.79688 37.6094 6.79688 30.7969
C6.79688 27 9.79688 27 10.4062 27
C11.7031 27 14 27.7812 14 30.5312
C14 33 12.0938 34.0781 10.4062 34.0781
C10 34.0781 9.5 33.9688 9.20312 33.875
C11.2969 40.5 16.7031 42.4062 20.2031 42.4062
C25.2031 42.4062 30.7031 37.9531 30.7031 29.4531
L30.7031 25
C24.7969 25 17.7031 24.2031 12.0938 21.2031
C5.79688 17.7031 4 12.7031 4 8.90625
C4 1.20312 13 -1 18.2969 -1
C23.7969 -1 28.9062 2.17188 31.0938 7.98438
C31.2969 3.64062 34.0938 -0.28125 38.5 -0.28125
C40.5938 -0.28125 45.9062 1.09375 45.9062 8.85938
L45.9062 14.375
L44.0938 14.375
L44.0938 8.78125
C44.0938 2.78125 41.4062 2 40.0938 2
C36 2 36 7.15625 36 11.5312
z

M30.7031 13.5938
C30.7031 4.95312 24.5 0.59375 19 0.59375
C14 0.59375 10.0938 4.29688 10.0938 8.90625
C10.0938 11.8906 11.4062 17.1875 17.2031 20.3906
C22 23.0938 27.5 23.5 30.7031 23.5
z
" id="CMR17-97"/>
     <path d="
M15.0938 40
L29.0938 40
L29.0938 42.5781
L15.0938 42.5781
L15.0938 61
L13.2969 61
C13.0938 50.7031 9.59375 41.6875 1.09375 41.6875
L1.09375 40
L9.79688 40
L9.79688 12.0469
C9.79688 10.1562 9.79688 -1 21.4062 -1
C27.2969 -1 30.7031 4.78125 30.7031 12.1406
L30.7031 17.8125
L28.9062 17.8125
L28.9062 12.2344
C28.9062 5.375 26.2031 0.796875 22 0.796875
C19.0938 0.796875 15.0938 2.78125 15.0938 11.8438
z
" id="CMR17-116"/>
     <path d="
M41.5 30.2031
C41.5 35.2969 40.5 43.5938 28.7031 43.5938
C20.5 43.5938 16.5 37 15.2969 33.7031
L15.2031 33.7031
L15.2031 68.6875
L3.29688 67.5938
L3.29688 65
C9.20312 65 10.0938 64.4062 10.0938 59.6406
L10.0938 6.65625
C10.0938 2.875 9.70312 2.39062 3.29688 2.39062
L3.29688 -0.203125
C5.70312 0 10.0938 0 12.7031 0
C15.2969 0 19.7969 0 22.2031 -0.203125
L22.2031 2.39062
C15.7969 2.39062 15.4062 2.78125 15.4062 6.6875
L15.4062 25.9062
C15.4062 35.1094 21 42 28 42
C35.4062 42 36.2031 35.4062 36.2031 30.5938
L36.2031 6.6875
C36.2031 2.875 35.7969 2.39062 29.4062 2.39062
L29.4062 -0.203125
C31.7969 0 36.2031 0 38.7969 0
C41.4062 0 45.9062 0 48.2969 -0.203125
L48.2969 2.39062
C41.9062 2.39062 41.5 2.78125 41.5 6.6875
z
" id="CMR17-104"/>
     <path d="
M15 68.6875
L3.09375 67.5938
L3.09375 65
C9 65 9.90625 64.4062 9.90625 59.6406
L9.90625 -0.203125
L11.7031 -0.203125
L14.5938 6.89062
C17.5 2.20312 21.7969 -1 27.5938 -1
C37.5938 -1 47.7031 7.8125 47.7031 21.4062
C47.7031 34.1875 38.7031 43.5938 28.5938 43.5938
C22.4062 43.5938 18 40.2969 15 36.4062
z

M15.2031 31.3125
C15.2031 33.0938 15.2031 33.4062 16.5938 35.5
C20.5 41.5156 26.0938 42 28 42
C31 42 41.2969 40.3906 41.2969 21.5
C41.2969 1.6875 29.5 0.59375 27.0938 0.59375
C24 0.59375 19.5 1.78125 16.2969 7.59375
C15.2031 9.5 15.2031 9.70312 15.2031 11.4844
z
" id="CMR17-98"/>
     <path d="
M15.5 61.0781
C15.5 63.2656 13.7031 65.1562 11.4062 65.1562
C9.20312 65.1562 7.29688 63.375 7.29688 61.0781
C7.29688 58.8906 9.09375 57 11.4062 57
C13.5938 57 15.5 58.7969 15.5 61.0781
M3.79688 42.2812
L3.79688 39.7031
C9.40625 39.7031 10.2031 39.0938 10.2031 34.3281
L10.2031 6.67188
C10.2031 2.875 9.79688 2.39062 3.40625 2.39062
L3.40625 -0.203125
C5.79688 0 10.0938 0 12.5938 0
C15 0 19.0938 0 21.4062 -0.203125
L21.4062 2.39062
C15.5 2.39062 15.2969 2.98438 15.2969 6.5625
L15.2969 43.375
z
" id="CMR17-105"/>
     <path d="
M29.4062 42.0781
L29.4062 39.5
C35.2969 39.5 36.2031 38.8906 36.2031 34.1562
L36.2031 16.125
C36.2031 7.8125 31.7031 0.59375 24.2969 0.59375
C16.0938 0.59375 15.4062 5.4375 15.4062 10.5938
L15.4062 43.1719
L3.29688 42.0781
L3.29688 39.5
C7.29688 39.5 10 39.5 10.0938 35.5312
L10.0938 16.5312
C10.0938 9.89062 10.0938 5.64062 12.7031 2.85938
C14 1.57812 16.5 -1 23.7031 -1
C32.2031 -1 35.5 6.35938 36.2969 8.5
L36.4062 8.5
L36.4062 -0.984375
L48.2969 -0.984375
L48.2969 2
C42.4062 2 41.5 2.59375 41.5 7.39062
L41.5 43.1719
z
" id="CMR17-117"/>
     <path d="
M15 23.3906
C15 33 19.0938 42 26.5938 42
C27.2969 42 28 41.9062 28.7031 41.5938
C28.7031 41.5938 26.5 40.8906 26.5 38.3125
C26.5 35.9062 28.4062 34.9062 29.9062 34.9062
C31.0938 34.9062 33.2969 35.6094 33.2969 38.4062
C33.2969 41.6094 30.0938 43.5938 26.7031 43.5938
C19.0938 43.5938 15.7969 36.2031 14.7969 32.7031
L14.7031 32.7031
L14.7031 43.5938
L3.09375 42.5
L3.09375 39.9062
C9 39.9062 9.90625 39.2969 9.90625 34.5
L9.90625 6.6875
C9.90625 2.875 9.5 2.39062 3.09375 2.39062
L3.09375 -0.203125
C5.5 0 10.0938 0 12.7031 0
C15.5938 0 20.7031 0 23.4062 -0.203125
L23.4062 2.39062
C16.2031 2.39062 15 2.39062 15 6.875
z
" id="CMR17-114"/>
     <path d="
M30.9062 42.1094
C30.9062 43.9062 30.7969 44 30.2031 44
C29.7969 44 29.7031 43.9062 28.5 42.4219
C28.2031 42.0156 27.2969 41.0156 27 40.625
C23.7969 44 19.2969 44 17.5938 44
C6.5 44 2.5 38.1719 2.5 32.375
C2.5 23.3438 12.7031 21.25 15.5938 20.6406
C21.9062 19.3438 24.0938 18.9375 26.2031 17.125
C27.5 15.9375 29.7031 13.7344 29.7031 10.125
C29.7031 5.90625 27.2969 0.5 18.0938 0.5
C9.40625 0.5 6.29688 7.0625 4.5 15.8281
C4.20312 17.2188 4.20312 17.3281 3.40625 17.3281
C2.59375 17.3281 2.5 17.2188 2.5 15.2344
L2.5 0.890625
C2.5 -0.890625 2.59375 -1 3.20312 -1
C3.70312 -1 3.79688 -0.890625 4.29688 -0.09375
C4.90625 0.796875 6.40625 3.1875 7 4.1875
C9 1.54688 12.5 -1 18.0938 -1
C28 -1 33.2969 4.40625 33.2969 12.2344
C33.2969 17.3438 30.5938 20.0625 29.2969 21.25
C26.2969 24.375 22.7969 25.0625 18.5938 25.8594
C13.0938 27.0781 6.09375 28.4688 6.09375 34.5938
C6.09375 37.1875 7.5 42.7188 17.5938 42.7188
C28.2969 42.7188 28.9062 32.75 29.0938 29.5625
C29.2031 29.0781 29.7031 28.9688 30 28.9688
C30.9062 28.9688 30.9062 29.2812 30.9062 30.9688
z
" id="CMR17-115"/>
     <path d="
M38.0938 23
C38.5 23.4062 38.5 23.6094 38.5 24.625
C38.5 34.9688 33.0938 44 21.7031 44
C11.0938 44 2.70312 33.8906 2.70312 21.6094
C2.70312 8.60938 12.2031 -1 22.7969 -1
C34 -1 38.4062 9.46875 38.4062 11.5469
C38.4062 12.25 37.7969 12.25 37.5938 12.25
C36.9062 12.25 36.7969 12.0469 36.4062 10.875
C34.2031 4.14062 28.7031 0.796875 23.5 0.796875
C19.2031 0.796875 14.9062 3.17188 12.2031 7.5
C9.09375 12.5469 9.09375 18.375 9.09375 23
z

M9.20312 24.5
C9.90625 39.1406 17.5938 42.4062 21.5938 42.4062
C28.4062 42.4062 33 35.8906 33.0938 24.5
z
" id="CMR17-101"/>
     <path d="
M41.5 30.2031
C41.5 35.2969 40.5 43.5938 28.7031 43.5938
C20.7969 43.5938 16.7031 37.5 15.2031 33.5
L15.0938 33.5
L15.0938 43.5938
L3.29688 42.5
L3.29688 39.9062
C9.20312 39.9062 10.0938 39.2969 10.0938 34.5
L10.0938 6.6875
C10.0938 2.875 9.70312 2.39062 3.29688 2.39062
L3.29688 -0.203125
C5.70312 0 10.0938 0 12.7031 0
C15.2969 0 19.7969 0 22.2031 -0.203125
L22.2031 2.39062
C15.7969 2.39062 15.4062 2.78125 15.4062 6.6875
L15.4062 25.9062
C15.4062 35.1094 21 42 28 42
C35.4062 42 36.2031 35.4062 36.2031 30.5938
L36.2031 6.6875
C36.2031 2.875 35.7969 2.39062 29.4062 2.39062
L29.4062 -0.203125
C31.7969 0 36.2031 0 38.7969 0
C41.4062 0 45.9062 0 48.2969 -0.203125
L48.2969 2.39062
C41.9062 2.39062 41.5 2.78125 41.5 6.6875
z
" id="CMR17-110"/>
     <path d="
M15.2969 40
L26.7031 40
L26.7031 42.5781
L15.0938 42.5781
L15.0938 54.5938
C15.0938 62.8438 19.2969 68 23.5938 68
C24.9062 68 26.4062 67.6094 27.4062 66.9062
C26.5938 66.7031 24.5 66.0156 24.5 63.5312
C24.5 60.9531 26.5 60.1562 27.9062 60.1562
C29.2969 60.1562 31.2969 60.9531 31.2969 63.5469
C31.2969 67.3125 27.7031 69.5938 23.7031 69.5938
C18 69.5938 10.2031 64.9375 10.2031 54.3906
L10.2031 42.5781
L2.20312 42.5781
L2.20312 40
L10.2031 40
L10.2031 6.67188
C10.2031 2.875 9.79688 2.39062 3.40625 2.39062
L3.40625 -0.203125
C5.79688 0 10.4062 0 13 0
C15.9062 0 21 0 23.7031 -0.203125
L23.7031 2.39062
C16.5 2.39062 15.2969 2.39062 15.2969 6.85938
z
" id="CMR17-102"/>
     <path d="
M21.5938 37.2031
L37.7969 37.2031
C39.2031 37.2031 41.7969 37.2031 41.7969 40.1094
C41.7969 43 39.2031 43 37.7969 43
L21.5938 43
L21.5938 51.3281
C21.5938 53.1562 21.5938 55.5 18.4062 55.5
C15.0938 55.5 15.0938 53.1562 15.0938 51.3281
L15.0938 43
L6.59375 43
C5.20312 43 2.5 43 2.5 40.1094
C2.5 37.2031 5.09375 37.2031 6.5 37.2031
L15.0938 37.2031
L15.0938 12.125
C15.0938 2.875 21.5 -0.5 28.7031 -0.5
C34.0938 -0.5 44 2.17188 44 12.3438
C44 14.3438 44 16.5312 40.7031 16.5312
C37.5 16.5312 37.5 14.3438 37.5 12.2656
C37.4062 6.29688 31.7031 5.29688 29.4062 5.29688
C21.5938 5.29688 21.5938 10.2656 21.5938 12.6406
z
" id="CMTT12-116"/>
     <path d="
M41.4062 28.375
C41.4062 35.9844 35.7031 44 22.2031 44
C18 44 8.29688 44 8.29688 37.1875
C8.29688 34.5312 10.2031 33.0469 12.4062 33.0469
C13 33.0469 16.2969 33.0469 16.4062 37.2812
C16.4062 37.7969 16.5 37.9062 18.5938 38.0938
C19.7969 38.2031 21.0938 38.2031 22.2969 38.2031
C24.5938 38.2031 28 38.2031 31.2969 35.6562
C34.9062 32.8125 34.9062 29.9375 34.9062 27
C29 27 23.2031 27 17 24.9844
C12 23.2656 5.59375 19.625 5.59375 12.75
C5.59375 5.5625 11.9062 -0.5 21.2031 -0.5
C24.4062 -0.5 30.5938 0 35.7969 3.53125
C37.7969 0 42.7969 0 46.5938 0
C49 0 51.4062 0 51.4062 2.85938
C51.4062 5.70312 48.7969 5.70312 47.4062 5.70312
C44.7969 5.70312 42.7969 5.90625 41.4062 6.51562
z

M34.9062 13.2969
C34.9062 11 34.9062 8.89062 30.7969 7
C27.2969 5.29688 22.5938 5.29688 22.2969 5.29688
C16.4062 5.29688 12.0938 8.5 12.0938 12.5938
C12.0938 18.5 22.7969 21.8906 34.9062 21.8906
z
" id="CMTT12-97"/>
     <path d="
M41.7969 56.9062
C41.7969 60 41.2031 61 37.7969 61
L31.2031 61
C29.7969 61 27.2031 61 27.2031 58.1094
C27.2031 55.2031 29.7969 55.2031 31.2031 55.2031
L35.2969 55.2031
L35.2969 38.7969
C33.7031 40.3906 29.5938 43.7969 23.5 43.7969
C12.9062 43.7969 3.70312 34.1875 3.70312 21.5938
C3.70312 9.29688 12.2969 -0.5 22.5938 -0.5
C29.0938 -0.5 33.4062 3.35938 35.2969 5.54688
C35.2969 1.3125 35.2969 0 39.2969 0
L45.9062 0
C47.2969 0 49.9062 0 49.9062 2.90625
C49.9062 5.79688 47.2969 5.79688 45.9062 5.79688
L41.7969 5.79688
z

M35.2969 19.0938
C35.2969 13.5 30.7031 5.29688 23.2031 5.29688
C16 5.29688 10.2031 12.5938 10.2031 21.5938
C10.2031 31.1875 17 38 24.0938 38
C30.5938 38 35.2969 32.0938 35.2969 26.8906
z
" id="CMTT12-100"/>
     <path d="
M39.0938 33.7969
C40 36 41.5938 40 47.4062 40
L47.4062 42.5938
C45.5 42.5938 43 42.5938 41.0938 42.5938
C39 42.5938 35.7031 42.5938 33.7031 42.6875
L33.7031 40.0938
C36.2031 39.8906 37.5938 38.7031 37.5938 36.1094
C37.5938 35.2031 37.5938 35 37 33.6094
L26 5.89062
L14.0938 35.7188
C13.5 37.0156 13.5 37.2031 13.5 37.6094
C13.5 40 16.7969 40 18.2969 40
L18.2969 42.6875
C15.9062 42.5938 11.5 42.5938 9 42.5938
C6.29688 42.5938 3.20312 42.5938 1 42.6875
L1 40
C4.79688 40 6.90625 40 8.09375 36.9062
L22.5938 0.6875
C23.2031 -0.796875 23.2969 -1 24.2031 -1
C25.0938 -1 25.2031 -0.796875 25.7969 0.6875
z
" id="CMR17-118"/>
    </defs>
    <g transform="translate(107.318400724 16.3226205192)scale(0.1 -0.1)">
     <use transform="scale(0.996264009963)" xlink:href="#CMR17-68"/>
     <use transform="translate(70.3935559036 0.0)scale(0.996264009963)" xlink:href="#CMR17-105"/>
     <use transform="translate(95.2646143855 0.0)scale(0.996264009963)" xlink:href="#CMR17-115"/>
     <use transform="translate(131.065952021 0.0)scale(0.996264009963)" xlink:href="#CMR17-116"/>
     <use transform="translate(166.34671982 0.0)scale(0.996264009963)" xlink:href="#CMR17-114"/>
     <use transform="translate(201.62748762 0.0)scale(0.996264009963)" xlink:href="#CMR17-105"/>
     <use transform="translate(226.498546102 0.0)scale(0.996264009963)" xlink:href="#CMR17-98"/>
     <use transform="translate(277.393915882 0.0)scale(0.996264009963)" xlink:href="#CMR17-117"/>
     <use transform="translate(328.289285662 0.0)scale(0.996264009963)" xlink:href="#CMR17-116"/>
     <use transform="translate(363.570053462 0.0)scale(0.996264009963)" xlink:href="#CMR17-105"/>
     <use transform="translate(388.441111943 0.0)scale(0.996264009963)" xlink:href="#CMR17-111"/>
     <use transform="translate(434.131589061 0.0)scale(0.996264009963)" xlink:href="#CMR17-110"/>
     <use transform="translate(515.102925188 0.0)scale(0.996264009963)" xlink:href="#CMR17-111"/>
     <use transform="translate(560.793402305 0.0)scale(0.996264009963)" xlink:href="#CMR17-102"/>
     <use transform="translate(618.342881066 0.0)scale(0.996264009963)" xlink:href="#CMR17-116"/>
     <use transform="translate(653.623648866 0.0)scale(0.996264009963)" xlink:href="#CMR17-104"/>
     <use transform="translate(704.519018646 0.0)scale(0.996264009963)" xlink:href="#CMR17-101"/>
     <use transform="translate(775.080645456 0.0)scale(0.996264009963)" xlink:href="#CMR17-118"/>
     <use transform="translate(818.168744649 0.0)scale(0.996264009963)" xlink:href="#CMR17-97"/>
     <use transform="translate(863.859221766 0.0)scale(0.996264009963)" xlink:href="#CMR17-108"/>
     <use transform="translate(888.730280248 0.0)scale(0.996264009963)" xlink:href="#CMR17-117"/>
     <use transform="translate(939.625650028 0.0)scale(0.996264009963)" xlink:href="#CMR17-101"/>
     <use transform="translate(980.111310491 0.0)scale(0.996264009963)" xlink:href="#CMR17-115"/>
     <use transform="translate(1045.98861447 0.0)scale(0.996264009963)" xlink:href="#CMR17-111"/>
     <use transform="translate(1091.67909159 0.0)scale(0.996264009963)" xlink:href="#CMR17-102"/>
     <use transform="translate(1155.13408276 0.0)scale(0.996264009963)" xlink:href="#CMTT12-100"/>
     <use transform="translate(1206.40019361 0.0)scale(0.996264009963)" xlink:href="#CMTT12-97"/>
     <use transform="translate(1257.66630446 0.0)scale(0.996264009963)" xlink:href="#CMTT12-116"/>
     <use transform="translate(1308.93241531 0.0)scale(0.996264009963)" xlink:href="#CMTT12-97"/>
    </g>
   </g>
   <g id="legend_1">
    <g id="patch_7">
     <path d="
M119.951 176.242
L242.299 176.242
L242.299 142.969
L119.951 142.969
L119.951 176.242
z
" style="fill:#ffffff;stroke:#000000;"/>
    </g>
    <g id="line2d_36"/>
    <g id="line2d_37">
     <g>
      <use style="stroke:#000000;stroke-width:0.5;" x="126.950881521" xlink:href="#md24aedda73" y="150.468686111"/>
      <use style="stroke:#000000;stroke-width:0.5;" x="140.950881521" xlink:href="#md24aedda73" y="150.468686111"/>
     </g>
    </g>
    <g id="text_15">
     <!-- experimental -->
     <defs>
      <path d="
M67.5938 30.2031
C67.5938 35.1875 66.7031 43.5938 54.7969 43.5938
C48 43.5938 43.2969 39 41.5 33.5938
L41.4062 33.5938
C40.2031 41.7969 34.2969 43.5938 28.7031 43.5938
C20.7969 43.5938 16.7031 37.5625 15.2031 33.5938
L15.0938 33.5938
L15.0938 43.5938
L3.29688 42.5
L3.29688 39.9062
C9.20312 39.9062 10.0938 39.2969 10.0938 34.5
L10.0938 6.6875
C10.0938 2.875 9.70312 2.39062 3.29688 2.39062
L3.29688 -0.203125
C5.70312 0 10.0938 0 12.7031 0
C15.2969 0 19.7969 0 22.2031 -0.203125
L22.2031 2.39062
C15.7969 2.39062 15.4062 2.78125 15.4062 6.6875
L15.4062 25.9062
C15.4062 35.1094 21 42 28 42
C35.4062 42 36.2031 35.4062 36.2031 30.5938
L36.2031 6.6875
C36.2031 2.875 35.7969 2.39062 29.4062 2.39062
L29.4062 -0.203125
C31.7969 0 36.2031 0 38.7969 0
C41.4062 0 45.9062 0 48.2969 -0.203125
L48.2969 2.39062
C41.9062 2.39062 41.5 2.78125 41.5 6.6875
L41.5 25.9062
C41.5 35.1094 47.0938 42 54.0938 42
C61.5 42 62.2969 35.4062 62.2969 30.5938
L62.2969 6.6875
C62.2969 2.875 61.9062 2.39062 55.5 2.39062
L55.5 -0.203125
C57.9062 0 62.2969 0 64.9062 0
C67.5 0 72 0 74.4062 -0.203125
L74.4062 2.39062
C68 2.39062 67.5938 2.78125 67.5938 6.6875
z
" id="CMR17-109"/>
      <path d="
M26 23.0938
C29 26.9844 32.4062 31.3594 35.2031 34.625
C38.5 38.4062 42.2969 40 46.7031 40
L46.7031 42.5938
C45 42.5938 41.5 42.5938 39.7031 42.5938
C37 42.5938 33.9062 42.5938 31.5938 42.6875
L31.5938 40.0938
C33 39.8906 33.7969 38.8906 33.7969 37.5
C33.7969 35.7031 32.7969 34.6094 32.2969 33.9219
L24.9062 24.5781
L16.0938 36.0312
C15.2031 37.125 15.2031 37.3125 15.2031 37.8125
C15.2031 39.0156 16.2031 40 17.9062 40
L17.9062 42.6875
C15.5 42.5938 11.2031 42.5938 8.70312 42.5938
C6 42.5938 2.79688 42.5938 0.59375 42.6875
L0.59375 40
C6 40 7.20312 39.5938 9.59375 36.6094
L21.0938 21.7969
C21.2969 21.5938 21.7969 21 21.7969 20.7031
C21.7969 20.2969 13.0938 9.67188 12 8.28125
C7.5 2.89062 2.79688 2.5 0.09375 2.5
L0.09375 0
C1.79688 0 5.29688 0 7.09375 0
C9.09375 0 13.5 0 15.2969 -0.09375
L15.2969 2.5
C14.7031 2.59375 13.0938 2.79688 13.0938 5.07812
C13.0938 6.875 13.9062 7.96875 14.7969 9.15625
L23.0938 19.3125
L31.7969 8
C32.5938 6.90625 33.7969 5.40625 33.7969 4.70312
C33.7969 3.29688 32.5938 2.5 31 2.5
L31 -0.09375
C33.4062 0 37.7031 0 40.2031 0
C42.9062 0 46.0938 0 48.2969 -0.09375
L48.2969 2.5
C43.2969 2.5 41.7969 2.6875 39.4062 5.78125
z
" id="CMR17-120"/>
      <path d="
M22 -16.6094
C15.5938 -16.6094 15.2031 -16.2031 15.2031 -12.3281
L15.2031 6.28125
C18.0938 2.09375 22.2969 -0.59375 27.5938 -0.59375
C37.5938 -0.59375 47.7031 8.17188 47.7031 21.6875
C47.7031 34.2344 39 43.7812 28.7031 43.7812
C22.7031 43.7812 17.7969 40.5 15 36.5312
L15 43.7812
L3.09375 42.6875
L3.09375 40.1094
C9 40.1094 9.90625 39.5 9.90625 34.7344
L9.90625 -12.3281
C9.90625 -16.1094 9.5 -16.6094 3.09375 -16.6094
L3.09375 -19.1875
C5.5 -19 9.90625 -19 12.5 -19
C15.0938 -19 19.5938 -19 22 -19.1875
z

M15.2031 31.4375
C15.2031 32.8438 15.2031 34.9219 19.0938 38.6094
C19.5938 39.0156 23 42 28 42
C35.2969 42 41.2969 32.9375 41.2969 21.5938
C41.2969 10.25 34.9062 1 27 1
C23.4062 1 19.5 2.6875 16.5 7.375
C15.2031 9.5625 15.2031 10.1562 15.2031 11.75
z
" id="CMR17-112"/>
     </defs>
     <g transform="translate(151.950881521 153.968686111)scale(0.1 -0.1)">
      <use transform="scale(0.996264009963)" xlink:href="#CMR17-101"/>
      <use transform="translate(40.4856604627 0.0)scale(0.996264009963)" xlink:href="#CMR17-120"/>
      <use transform="translate(88.7785763105 0.0)scale(0.996264009963)" xlink:href="#CMR17-112"/>
      <use transform="translate(142.276384822 0.0)scale(0.996264009963)" xlink:href="#CMR17-101"/>
      <use transform="translate(182.762045284 0.0)scale(0.996264009963)" xlink:href="#CMR17-114"/>
      <use transform="translate(218.042813084 0.0)scale(0.996264009963)" xlink:href="#CMR17-105"/>
      <use transform="translate(242.913871566 0.0)scale(0.996264009963)" xlink:href="#CMR17-109"/>
      <use transform="translate(319.833461434 0.0)scale(0.996264009963)" xlink:href="#CMR17-101"/>
      <use transform="translate(360.319121896 0.0)scale(0.996264009963)" xlink:href="#CMR17-110"/>
      <use transform="translate(408.612037744 0.0)scale(0.996264009963)" xlink:href="#CMR17-116"/>
      <use transform="translate(443.892805544 0.0)scale(0.996264009963)" xlink:href="#CMR17-97"/>
      <use transform="translate(489.583282661 0.0)scale(0.996264009963)" xlink:href="#CMR17-108"/>
     </g>
    </g>
    <g id="line2d_38">
     <path d="
M126.951 166.252
L140.951 166.252" style="fill:none;stroke:#000000;stroke-linecap:square;"/>
    </g>
    <g id="line2d_39"/>
    <g id="text_16">
     <!-- $p(x) = 0.5 \times a e^{-a |x|}$ -->
     <defs>
      <path d="
M64.2969 31.5156
C65.7969 31.5156 67.2969 31.5156 67.2969 33.2031
C67.2969 35 65.5938 35 63.9062 35
L8 35
C6.29688 35 4.59375 35 4.59375 33.2031
C4.59375 31.5156 6.09375 31.5156 7.59375 31.5156
z

M63.9062 14
C65.5938 14 67.2969 14 67.2969 15.7969
C67.2969 17.4844 65.7969 17.4844 64.2969 17.4844
L7.59375 17.4844
C6.09375 17.4844 4.59375 17.4844 4.59375 15.7969
C4.59375 14 6.29688 14 8 14
z
" id="CMR17-61"/>
      <path d="
M38.9062 27.8906
L18.9062 47.7969
C17.7031 49 17.5 49.1875 16.7031 49.1875
C15.7031 49.1875 14.7031 48.2969 14.7031 47.1875
C14.7031 46.5 14.9062 46.2969 16 45.1875
L36 25.0938
L16 5
C14.9062 3.89062 14.7031 3.6875 14.7031 3
C14.7031 1.89062 15.7031 1 16.7031 1
C17.5 1 17.7031 1.1875 18.9062 2.39062
L38.7969 22.2969
L59.5 1.59375
C59.7031 1.5 60.4062 1 61 1
C62.2031 1 63 1.89062 63 3
C63 3.1875 63 3.59375 62.7031 4.09375
C62.5938 4.29688 46.7031 20 41.7031 25.0938
L60 43.3906
C60.5 44 62 45.2969 62.5 45.8906
C62.5938 46.0938 63 46.5 63 47.1875
C63 48.2969 62.2031 49.1875 61 49.1875
C60.2031 49.1875 59.7969 48.7969 58.7031 47.6875
z
" id="CMSY10-2"/>
      <path d="
M17.9062 23.1094
C20.5938 23.1094 27.4062 23.1094 32.2031 24.9219
C39.7969 27.8594 40.5 33.7188 40.5 35.5312
C40.5 39.9688 36.7031 44 30.0938 44
C19.5938 44 4.5 34.5312 4.5 16.7656
C4.5 6.28125 10.5 -1 19.5938 -1
C33.2031 -1 41.7969 9.53125 41.7969 10.8125
C41.7969 11.4062 41.2031 11.9062 40.7969 11.9062
C40.5 11.9062 40.4062 11.8125 39.5 10.9219
C33.0938 2.48438 23.5938 1 19.7969 1
C14.0938 1 11.0938 5.46875 11.0938 12.8438
C11.0938 14.2344 11.0938 16.7344 12.5938 23.1094
z

M13.0938 25
C17.4062 40.5 26.9062 42.0156 30.0938 42.0156
C34.5 42.0156 37.5 39.4062 37.5 35.5781
C37.5 25 21.5 25 17.2969 25
z
" id="CMMI12-101"/>
      <path d="
M30.0938 11.875
C29.5938 10.1719 29.5938 9.98438 28.2031 8.07812
C26 5.28125 21.5938 1 16.9062 1
C12.7969 1 10.5 4.6875 10.5 10.5781
C10.5 16.0625 13.5938 27.2344 15.5 31.4375
C18.9062 38.4219 23.5938 42.0156 27.5 42.0156
C34.0938 42.0156 35.4062 33.8281 35.4062 33.0312
C35.4062 32.9375 35.0938 31.625 35 31.4375
z

M36.5 37.4219
C35.4062 40.0156 32.7031 44 27.5 44
C16.2031 44 4 29.4375 4 14.6719
C4 4.79688 9.79688 -1 16.5938 -1
C22.0938 -1 26.7969 3.29688 29.5938 6.59375
C30.5938 0.703125 35.2969 -1 38.2969 -1
C41.2969 -1 43.7031 0.796875 45.5 4.39062
C47.0938 7.78125 48.5 13.875 48.5 14.2656
C48.5 14.7656 48.0938 15.1719 47.5 15.1719
C46.5938 15.1719 46.5 14.6719 46.0938 13.1719
C44.5938 7.28125 42.7031 1 38.5938 1
C35.7031 1 35.5 3.59375 35.5 5.59375
C35.5 7.89062 35.7969 8.98438 36.7031 12.875
C37.4062 15.375 37.9062 17.5625 38.7031 20.4531
C42.4062 35.4219 43.2969 39.0156 43.2969 39.6094
C43.2969 41.0156 42.2031 42.1094 40.7031 42.1094
C37.5 42.1094 36.7031 38.625 36.5 37.4219" id="CMMI12-97"/>
      <path d="
M15.9062 71.4062
C15.9062 73.2031 15.9062 75 13.9062 75
C11.9062 75 11.9062 73.2031 11.9062 71.4062
L11.9062 -21.4062
C11.9062 -23.2031 11.9062 -25 13.9062 -25
C15.9062 -25 15.9062 -23.2031 15.9062 -21.4062
z
" id="CMSY10-106"/>
     </defs>
     <g transform="translate(151.950881521 169.751614388)scale(0.1 -0.1)">
      <use transform="scale(0.996264009963)" xlink:href="#CMMI12-112"/>
      <use transform="translate(48.9595140051 0.0)scale(0.996264009963)" xlink:href="#CMR17-40"/>
      <use transform="translate(84.2402818046 0.0)scale(0.996264009963)" xlink:href="#CMMI12-120"/>
      <use transform="translate(139.674341337 0.0)scale(0.996264009963)" xlink:href="#CMR17-41"/>
      <use transform="translate(202.629117859 0.0)scale(0.996264009963)" xlink:href="#CMR17-61"/>
      <use transform="translate(302.017914996 0.0)scale(0.996264009963)" xlink:href="#CMR17-48"/>
      <use transform="translate(347.708392114 0.0)scale(0.996264009963)" xlink:href="#CMMI12-58"/>
      <use transform="translate(374.805569203 0.0)scale(0.996264009963)" xlink:href="#CMR17-53"/>
      <use transform="translate(442.635253298 0.0)scale(0.996264009963)" xlink:href="#CMSY10-2"/>
      <use transform="translate(542.261927927 0.0)scale(0.996264009963)" xlink:href="#CMMI12-97"/>
      <use transform="translate(593.469785545 0.0)scale(0.996264009963)" xlink:href="#CMMI12-101"/>
      <use transform="translate(638.681786562 36.1536389419)scale(0.697381766617)" xlink:href="#CMSY10-0"/>
      <use transform="translate(692.92277981 36.1536389419)scale(0.697381766617)" xlink:href="#CMMI12-97"/>
      <use transform="translate(728.768126605 36.1536389419)scale(0.697381766617)" xlink:href="#CMSY10-106"/>
      <use transform="translate(748.139894706 36.1536389419)scale(0.697381766617)" xlink:href="#CMMI12-120"/>
      <use transform="translate(786.943553958 36.1536389419)scale(0.697381766617)" xlink:href="#CMSY10-106"/>
     </g>
    </g>
   </g>
  </g>
 </g>
 <defs>
  <clipPath id="pdb219827e2">
   <rect height="159.919653894" width="258.75" x="51.75" y="21.3226205192"/>
  </clipPath>
 </defs>
</svg>
