<?xml version="1.0" encoding="utf-8" standalone="no"?>
<!DOCTYPE svg PUBLIC "-//W3C//DTD SVG 1.1//EN"
  "http://www.w3.org/Graphics/SVG/1.1/DTD/svg11.dtd">
<!-- Created with matplotlib (http://matplotlib.org/) -->
<svg height="227pt" version="1.1" viewBox="0 0 345 227" width="345pt" xmlns="http://www.w3.org/2000/svg" xmlns:xlink="http://www.w3.org/1999/xlink">
 <defs>
  <style type="text/css">
*{stroke-linecap:butt;stroke-linejoin:round;}
  </style>
 </defs>
 <g id="figure_1">
  <g id="patch_1">
   <path d="
M0 227.441
L345 227.441
L345 0
L0 0
z
" style="fill:#ffffff;"/>
  </g>
  <g id="axes_1">
   <g id="patch_2">
    <path d="
M34.5 193.325
L310.5 193.325
L310.5 22.7441
L34.5 22.7441
z
" style="fill:#ffffff;"/>
   </g>
   <g id="line2d_1">
    <path clip-path="url(#pec95003a04)" d="
M34.5 179.508
L62.1 164.837
L89.7 150.165
L117.3 135.494
L144.9 120.823
L172.5 106.151
L200.1 91.4798
L227.7 76.8084
L255.3 62.1369
L282.9 47.4655
L310.5 32.7941" style="fill:none;stroke:#000000;stroke-linecap:square;"/>
   </g>
   <g id="line2d_2">
    <defs>
     <path d="
M-1.6 1.6
L1.6 1.6
L1.6 -1.6
L-1.6 -1.6
z
" id="m8d89a5e90e" style="stroke:#000000;stroke-linejoin:miter;stroke-width:0.5;"/>
    </defs>
    <g clip-path="url(#pec95003a04)">
     <use style="stroke:#000000;stroke-linejoin:miter;stroke-width:0.5;" x="34.5" xlink:href="#m8d89a5e90e" y="190.037644723"/>
     <use style="stroke:#000000;stroke-linejoin:miter;stroke-width:0.5;" x="62.1" xlink:href="#m8d89a5e90e" y="174.460886406"/>
     <use style="stroke:#000000;stroke-linejoin:miter;stroke-width:0.5;" x="89.7" xlink:href="#m8d89a5e90e" y="158.577264962"/>
     <use style="stroke:#000000;stroke-linejoin:miter;stroke-width:0.5;" x="117.3" xlink:href="#m8d89a5e90e" y="142.748316895"/>
     <use style="stroke:#000000;stroke-linejoin:miter;stroke-width:0.5;" x="144.9" xlink:href="#m8d89a5e90e" y="127.124237043"/>
     <use style="stroke:#000000;stroke-linejoin:miter;stroke-width:0.5;" x="172.5" xlink:href="#m8d89a5e90e" y="111.557056216"/>
     <use style="stroke:#000000;stroke-linejoin:miter;stroke-width:0.5;" x="200.1" xlink:href="#m8d89a5e90e" y="95.7399774307"/>
     <use style="stroke:#000000;stroke-linejoin:miter;stroke-width:0.5;" x="227.7" xlink:href="#m8d89a5e90e" y="80.0001127563"/>
     <use style="stroke:#000000;stroke-linejoin:miter;stroke-width:0.5;" x="255.3" xlink:href="#m8d89a5e90e" y="64.3838420086"/>
     <use style="stroke:#000000;stroke-linejoin:miter;stroke-width:0.5;" x="282.9" xlink:href="#m8d89a5e90e" y="49.1158197328"/>
     <use style="stroke:#000000;stroke-linejoin:miter;stroke-width:0.5;" x="310.5" xlink:href="#m8d89a5e90e" y="33.7044988178"/>
    </g>
   </g>
   <g id="line2d_3">
    <defs>
     <path d="
M0 1.75
C0.464105 1.75 0.909265 1.56561 1.23744 1.23744
C1.56561 0.909265 1.75 0.464105 1.75 0
C1.75 -0.464105 1.56561 -0.909265 1.23744 -1.23744
C0.909265 -1.56561 0.464105 -1.75 0 -1.75
C-0.464105 -1.75 -0.909265 -1.56561 -1.23744 -1.23744
C-1.56561 -0.909265 -1.75 -0.464105 -1.75 0
C-1.75 0.464105 -1.56561 0.909265 -1.23744 1.23744
C-0.909265 1.56561 -0.464105 1.75 0 1.75
z
" id="m0fc7715c6a" style="stroke:#000000;stroke-width:0.5;"/>
    </defs>
    <g clip-path="url(#pec95003a04)">
     <use style="stroke:#000000;stroke-width:0.5;" x="34.5" xlink:href="#m0fc7715c6a" y="144.587674378"/>
     <use style="stroke:#000000;stroke-width:0.5;" x="62.1" xlink:href="#m0fc7715c6a" y="143.506438403"/>
     <use style="stroke:#000000;stroke-width:0.5;" x="89.7" xlink:href="#m0fc7715c6a" y="137.407340321"/>
     <use style="stroke:#000000;stroke-width:0.5;" x="117.3" xlink:href="#m0fc7715c6a" y="126.870530034"/>
     <use style="stroke:#000000;stroke-width:0.5;" x="144.9" xlink:href="#m0fc7715c6a" y="114.206021979"/>
     <use style="stroke:#000000;stroke-width:0.5;" x="172.5" xlink:href="#m0fc7715c6a" y="100.541369139"/>
     <use style="stroke:#000000;stroke-width:0.5;" x="200.1" xlink:href="#m0fc7715c6a" y="87.4828650534"/>
     <use style="stroke:#000000;stroke-width:0.5;" x="227.7" xlink:href="#m0fc7715c6a" y="74.0366539499"/>
     <use style="stroke:#000000;stroke-width:0.5;" x="255.3" xlink:href="#m0fc7715c6a" y="60.4091731881"/>
     <use style="stroke:#000000;stroke-width:0.5;" x="282.9" xlink:href="#m0fc7715c6a" y="46.0643547699"/>
     <use style="stroke:#000000;stroke-width:0.5;" x="310.5" xlink:href="#m0fc7715c6a" y="31.9865525999"/>
    </g>
   </g>
   <g id="matplotlib.axis_1">
    <g id="xtick_1">
     <g id="line2d_4">
      <defs>
       <path d="
M0 0
L0 -4" id="m93b0483c22" style="stroke:#000000;stroke-width:0.5;"/>
      </defs>
      <g>
       <use style="stroke:#000000;stroke-width:0.5;" x="34.5" xlink:href="#m93b0483c22" y="193.325092707"/>
      </g>
     </g>
     <g id="line2d_5">
      <defs>
       <path d="
M0 0
L0 4" id="m741efc42ff" style="stroke:#000000;stroke-width:0.5;"/>
      </defs>
      <g>
       <use style="stroke:#000000;stroke-width:0.5;" x="34.5" xlink:href="#m741efc42ff" y="22.7441285538"/>
      </g>
     </g>
     <g id="text_1">
      <!-- $2$ -->
      <defs>
       <path d="
M41.7031 15.4531
L39.9062 15.4531
C38.9062 8.375 38.0938 7.17188 37.7031 6.5625
C37.2031 5.76562 30 5.76562 28.5938 5.76562
L9.40625 5.76562
C13 9.67188 20 16.75 28.5 24.9531
C34.5938 30.7344 41.7031 37.5312 41.7031 47.4219
C41.7031 59.2188 32.2969 66 21.7969 66
C10.7969 66 4.09375 56.3125 4.09375 47.3438
C4.09375 43.4375 7 42.9375 8.20312 42.9375
C9.20312 42.9375 12.2031 43.5469 12.2031 47.0312
C12.2031 50.1094 9.59375 51 8.20312 51
C7.59375 51 7 50.9062 6.59375 50.7031
C8.5 59.2188 14.2969 63.4062 20.4062 63.4062
C29.0938 63.4062 34.7969 56.5156 34.7969 47.4219
C34.7969 38.7344 29.7031 31.25 24 24.75
L4.09375 2.28125
L4.09375 0
L39.2969 0
z
" id="CMR17-50"/>
      </defs>
      <g transform="translate(32.0093323742 204.243591087)scale(0.1 -0.1)">
       <use transform="scale(0.996264009963)" xlink:href="#CMR17-50"/>
      </g>
     </g>
    </g>
    <g id="xtick_2">
     <g id="line2d_6">
      <g>
       <use style="stroke:#000000;stroke-width:0.5;" x="62.1" xlink:href="#m93b0483c22" y="193.325092707"/>
      </g>
     </g>
     <g id="line2d_7">
      <g>
       <use style="stroke:#000000;stroke-width:0.5;" x="62.1" xlink:href="#m741efc42ff" y="22.7441285538"/>
      </g>
     </g>
     <g id="text_2">
      <!-- $3$ -->
      <defs>
       <path d="
M22.0938 33.7031
C31 33.7031 34.9062 25.9688 34.9062 17.0312
C34.9062 5 28.5 0.390625 22.7031 0.390625
C17.4062 0.390625 8.79688 3.03125 6.09375 10.8281
C6.59375 10.625 7.09375 10.625 7.59375 10.625
C10 10.625 11.7969 12.2188 11.7969 14.8125
C11.7969 17.7031 9.59375 19 7.59375 19
C5.90625 19 3.29688 18.2031 3.29688 14.4688
C3.29688 5.23438 12.2969 -2 22.9062 -2
C34 -2 42.5 6.71875 42.5 16.9531
C42.5 26.6719 34.5 33.6875 25 34.7969
C32.5938 36.375 39.9062 43.0625 39.9062 52.0156
C39.9062 59.6875 32 65.2969 23 65.2969
C13.9062 65.2969 5.90625 59.8281 5.90625 52.0156
C5.90625 48.5938 8.5 48 9.79688 48
C11.9062 48 13.7031 49.2969 13.7031 51.8906
C13.7031 54.4688 11.9062 55.7656 9.79688 55.7656
C9.40625 55.7656 8.90625 55.7656 8.5 55.5625
C11.4062 61.8594 19.2969 63 22.7969 63
C26.2969 63 32.9062 61.3281 32.9062 51.875
C32.9062 49.1094 32.5 44.1875 29.0938 39.8438
C26.0938 36 22.7031 36 19.4062 35.5938
C18.9062 35.5938 16.5938 35.5938 16.2031 35.5938
C15.5 35.4844 15.0938 35.3906 15.0938 34.5938
C15.0938 33.8125 15.2031 33.7031 17.2031 33.7031
z
" id="CMR17-51"/>
      </defs>
      <g transform="translate(59.6093323742 204.243591087)scale(0.1 -0.1)">
       <use transform="scale(0.996264009963)" xlink:href="#CMR17-51"/>
      </g>
     </g>
    </g>
    <g id="xtick_3">
     <g id="line2d_8">
      <g>
       <use style="stroke:#000000;stroke-width:0.5;" x="89.7" xlink:href="#m93b0483c22" y="193.325092707"/>
      </g>
     </g>
     <g id="line2d_9">
      <g>
       <use style="stroke:#000000;stroke-width:0.5;" x="89.7" xlink:href="#m741efc42ff" y="22.7441285538"/>
      </g>
     </g>
     <g id="text_3">
      <!-- $4$ -->
      <defs>
       <path d="
M33.5938 64.3281
C33.5938 66.4062 33.5 66.5 31.7031 66.5
L2 19.5938
L2 17
L27.7969 17
L27.7969 7.14062
C27.7969 3.5 27.5938 2.5 20.5938 2.5
L18.7031 2.5
L18.7031 0
C21.9062 0 27.2969 0 30.7031 0
C34.0938 0 39.5 0 42.7031 0
L42.7031 2.5
L40.7969 2.5
C33.7969 2.5 33.5938 3.5 33.5938 7.14062
L33.5938 17
L43.7969 17
L43.7969 19.5938
L33.5938 19.5938
z

M28.0938 57.7656
L28.0938 19.5938
L4 19.5938
z
" id="CMR17-52"/>
      </defs>
      <g transform="translate(87.2093323742 204.243591087)scale(0.1 -0.1)">
       <use transform="scale(0.996264009963)" xlink:href="#CMR17-52"/>
      </g>
     </g>
    </g>
    <g id="xtick_4">
     <g id="line2d_10">
      <g>
       <use style="stroke:#000000;stroke-width:0.5;" x="117.3" xlink:href="#m93b0483c22" y="193.325092707"/>
      </g>
     </g>
     <g id="line2d_11">
      <g>
       <use style="stroke:#000000;stroke-width:0.5;" x="117.3" xlink:href="#m741efc42ff" y="22.7441285538"/>
      </g>
     </g>
     <g id="text_4">
      <!-- $5$ -->
      <defs>
       <path d="
M11.4062 57.6875
C12.4062 57.2812 16.5 56 20.7031 56
C30 56 35.0938 61.0156 38 63.9219
C38 64.7344 38 65.25 37.4062 65.25
C37.2969 65.25 37.0938 65.25 36.2969 64.8281
C32.7969 63.3125 28.7031 62.0781 23.7031 62.0781
C20.7031 62.0781 16.2031 62.5 11.2969 64.7344
C10.2031 65.25 10 65.25 9.90625 65.25
C9.40625 65.25 9.29688 65.1406 9.29688 63.1562
L9.29688 34.2812
C9.29688 32.5 9.29688 32 10.2969 32
C10.7969 32 11 32.2031 11.5 32.9062
C14.7031 37.4844 19.0938 39.4062 24.0938 39.4062
C27.5938 39.4062 35.0938 37.2188 35.0938 20.1406
C35.0938 16.9531 35.0938 11.1719 32.0938 6.57812
C29.5938 2.48438 25.7031 0.390625 21.4062 0.390625
C14.7969 0.390625 8.09375 5 6.29688 12.7188
C6.70312 12.6094 7.5 12.4219 7.90625 12.4219
C9.20312 12.4219 11.7031 13.125 11.7031 16.2188
C11.7031 18.9062 9.79688 20 7.90625 20
C5.59375 20 4.09375 18.5938 4.09375 15.7969
C4.09375 7.09375 11 -2 21.5938 -2
C31.9062 -2 41.7031 6.875 41.7031 19.75
C41.7031 31.7188 33.9062 41 24.2031 41
C19.0938 41 14.7969 39.0938 11.4062 35.4531
z
" id="CMR17-53"/>
      </defs>
      <g transform="translate(114.809332374 204.243591087)scale(0.1 -0.1)">
       <use transform="scale(0.996264009963)" xlink:href="#CMR17-53"/>
      </g>
     </g>
    </g>
    <g id="xtick_5">
     <g id="line2d_12">
      <g>
       <use style="stroke:#000000;stroke-width:0.5;" x="144.9" xlink:href="#m93b0483c22" y="193.325092707"/>
      </g>
     </g>
     <g id="line2d_13">
      <g>
       <use style="stroke:#000000;stroke-width:0.5;" x="144.9" xlink:href="#m741efc42ff" y="22.7441285538"/>
      </g>
     </g>
     <g id="text_5">
      <!-- $6$ -->
      <defs>
       <path d="
M10.5938 34
C10.5938 57.6562 21.7969 63 28.2969 63
C30.4062 63 35.5 62.6406 37.5 59
C35.9062 59 32.9062 59 32.9062 55.5156
C32.9062 52.8281 35.0938 51.9219 36.5 51.9219
C37.4062 51.9219 40.0938 52.3125 40.0938 55.625
C40.0938 61.7812 35.0938 65.2969 28.2031 65.2969
C16.2969 65.2969 3.79688 52.9688 3.79688 31
C3.79688 3.95312 15.0938 -2 23.0938 -2
C32.7969 -2 42 6.67188 42 20.0469
C42 32.5156 33.9062 41.5938 23.7031 41.5938
C17.5938 41.5938 13.0938 37.6094 10.5938 30.625
z

M23.0938 0.390625
C10.7969 0.390625 10.7969 18.75 10.7969 22.4375
C10.7969 29.625 14.2031 40 23.5 40
C25.2031 40 30.0938 40 33.4062 33.125
C35.2031 29.2188 35.2031 25.1406 35.2031 20.1406
C35.2031 14.75 35.2031 10.7812 33.0938 6.78125
C30.9062 2.67188 27.7031 0.390625 23.0938 0.390625" id="CMR17-54"/>
      </defs>
      <g transform="translate(142.409332374 204.243591087)scale(0.1 -0.1)">
       <use transform="scale(0.996264009963)" xlink:href="#CMR17-54"/>
      </g>
     </g>
    </g>
    <g id="xtick_6">
     <g id="line2d_14">
      <g>
       <use style="stroke:#000000;stroke-width:0.5;" x="172.5" xlink:href="#m93b0483c22" y="193.325092707"/>
      </g>
     </g>
     <g id="line2d_15">
      <g>
       <use style="stroke:#000000;stroke-width:0.5;" x="172.5" xlink:href="#m741efc42ff" y="22.7441285538"/>
      </g>
     </g>
     <g id="text_6">
      <!-- $7$ -->
      <defs>
       <path d="
M45.0938 61.5781
L45.0938 63.7656
L21.5938 63.7656
C9.90625 63.7656 9.70312 65.0781 9.29688 67
L7.5 67
L4.59375 48.3438
L6.40625 48.3438
C6.70312 50.2344 7.40625 55.3125 8.59375 57.2031
C9.20312 58 16.5938 58 18.2969 58
L40.2969 58
L29.2031 41.5781
C21.7969 30.5312 16.7031 15.6094 16.7031 2.57812
C16.7031 1.39062 16.7031 -2 20.2969 -2
C23.9062 -2 23.9062 1.39062 23.9062 2.67188
L23.9062 7.26562
C23.9062 23.5625 26.7031 34.3125 31.2969 41.1875
z
" id="CMR17-55"/>
      </defs>
      <g transform="translate(170.009332374 204.243591087)scale(0.1 -0.1)">
       <use transform="scale(0.996264009963)" xlink:href="#CMR17-55"/>
      </g>
     </g>
    </g>
    <g id="xtick_7">
     <g id="line2d_16">
      <g>
       <use style="stroke:#000000;stroke-width:0.5;" x="200.1" xlink:href="#m93b0483c22" y="193.325092707"/>
      </g>
     </g>
     <g id="line2d_17">
      <g>
       <use style="stroke:#000000;stroke-width:0.5;" x="200.1" xlink:href="#m741efc42ff" y="22.7441285538"/>
      </g>
     </g>
     <g id="text_7">
      <!-- $8$ -->
      <defs>
       <path d="
M27.2031 35.375
C33.5 38.5625 39.9062 43.3281 39.9062 50.9844
C39.9062 60.0312 31.0938 65.2969 23 65.2969
C13.9062 65.2969 5.90625 58.7344 5.90625 49.6875
C5.90625 47.2031 6.5 42.9219 10.4062 39.1406
C11.4062 38.1562 15.5938 35.1719 18.2969 33.2812
C13.7969 30.9844 3.29688 25.5312 3.29688 14.5938
C3.29688 4.35938 13.0938 -2 22.7969 -2
C33.5 -2 42.5 5.65625 42.5 15.7969
C42.5 24.8438 36.4062 29.0312 32.4062 31.7031
z

M14.0938 44.125
C13.2969 44.625 9.29688 47.7031 9.29688 52.375
C9.29688 58.4375 15.5938 63 22.7969 63
C30.7031 63 36.5 57.4531 36.5 50.9844
C36.5 41.7344 26.0938 36.4688 25.5938 36.4688
C25.5 36.4688 25.4062 36.4688 24.5938 37.0781
z

M32.5 23.7344
C34 22.6406 38.7969 19.375 38.7969 13.2969
C38.7969 5.95312 31.4062 0.390625 23 0.390625
C13.9062 0.390625 7 6.84375 7 14.6875
C7 22.5469 13.0938 29.0938 20 32.1875
z
" id="CMR17-56"/>
      </defs>
      <g transform="translate(197.609332374 204.243591087)scale(0.1 -0.1)">
       <use transform="scale(0.996264009963)" xlink:href="#CMR17-56"/>
      </g>
     </g>
    </g>
    <g id="xtick_8">
     <g id="line2d_18">
      <g>
       <use style="stroke:#000000;stroke-width:0.5;" x="227.7" xlink:href="#m93b0483c22" y="193.325092707"/>
      </g>
     </g>
     <g id="line2d_19">
      <g>
       <use style="stroke:#000000;stroke-width:0.5;" x="227.7" xlink:href="#m741efc42ff" y="22.7441285538"/>
      </g>
     </g>
     <g id="text_8">
      <!-- $9$ -->
      <defs>
       <path d="
M35.2031 29.125
C35.2031 7.25 26.0938 0.484375 18.5938 0.484375
C16.2969 0.484375 10.7031 0.484375 8.40625 4.59375
C11 4.1875 12.9062 5.57812 12.9062 8.09375
C12.9062 10.8125 10.7031 11.7031 9.29688 11.7031
C8.40625 11.7031 5.70312 11.2969 5.70312 7.90625
C5.70312 1.10938 11.5938 -2 18.7969 -2
C30.2969 -2 42 10.5312 42 32.3906
C42 59.6406 30.7969 65.2969 23.2031 65.2969
C13.2969 65.2969 3.79688 56.6875 3.79688 43.4062
C3.79688 31.1094 11.9062 22 22.0938 22
C30.5 22 34.2031 29.7344 35.2031 33
z

M22.2969 23.5938
C19.5938 23.5938 15.7969 24.0938 12.7031 30.0312
C10.5938 33.8906 10.5938 38.4531 10.5938 43.2969
C10.5938 49.1562 10.5938 53.2031 13.4062 57.5625
C14.7969 59.6406 17.4062 63 23.2031 63
C35 63 35 45.0781 35 41.125
C35 34.0938 31.7969 23.5938 22.2969 23.5938" id="CMR17-57"/>
      </defs>
      <g transform="translate(225.209332374 204.243591087)scale(0.1 -0.1)">
       <use transform="scale(0.996264009963)" xlink:href="#CMR17-57"/>
      </g>
     </g>
    </g>
    <g id="xtick_9">
     <g id="line2d_20">
      <g>
       <use style="stroke:#000000;stroke-width:0.5;" x="255.3" xlink:href="#m93b0483c22" y="193.325092707"/>
      </g>
     </g>
     <g id="line2d_21">
      <g>
       <use style="stroke:#000000;stroke-width:0.5;" x="255.3" xlink:href="#m741efc42ff" y="22.7441285538"/>
      </g>
     </g>
     <g id="text_9">
      <!-- $10$ -->
      <defs>
       <path d="
M26.5938 63.3125
C26.5938 65.4062 26.5 65.5 25.0938 65.5
C21.2031 61.1875 15.2969 59.7969 9.70312 59.7969
C9.40625 59.7969 8.90625 59.7969 8.79688 59.6094
C8.70312 59.3906 8.70312 59.1719 8.70312 57
C11.7969 57 17 57.5938 21 59.9844
L21 7.20312
C21 3.6875 20.7969 2.5 12.2031 2.5
L9.20312 2.5
L9.20312 0
C14 0 19 0 23.7969 0
C28.5938 0 33.5938 0 38.4062 0
L38.4062 2.5
L35.4062 2.5
C26.7969 2.5 26.5938 3.59375 26.5938 7.15625
z
" id="CMR17-49"/>
       <path d="
M42 31.6406
C42 37.75 41.9062 48.125 37.7031 56.1094
C34 63.1094 28.0938 65.5938 22.9062 65.5938
C18.0938 65.5938 12 63.4062 8.20312 56.2031
C4.20312 48.7188 3.79688 39.4375 3.79688 31.6406
C3.79688 25.9531 3.90625 17.2812 7 9.67188
C11.2969 -0.609375 19 -2 22.9062 -2
C27.5 -2 34.5 -0.109375 38.5938 9.375
C41.5938 16.2812 42 24.3594 42 31.6406
M22.9062 -0.40625
C16.5 -0.40625 12.7031 5.07812 11.2969 12.6875
C10.2031 18.5625 10.2031 27.1562 10.2031 32.75
C10.2031 40.4375 10.2031 46.8281 11.5 52.9219
C13.4062 61.3906 19 64 22.9062 64
C27 64 32.2969 61.2969 34.2031 53.125
C35.5 47.4375 35.5938 40.7344 35.5938 32.75
C35.5938 26.25 35.5938 18.2656 34.4062 12.375
C32.2969 1.48438 26.4062 -0.40625 22.9062 -0.40625" id="CMR17-48"/>
      </defs>
      <g transform="translate(250.318664748 204.243591087)scale(0.1 -0.1)">
       <use transform="scale(0.996264009963)" xlink:href="#CMR17-49"/>
       <use transform="translate(45.6904771171 0.0)scale(0.996264009963)" xlink:href="#CMR17-48"/>
      </g>
     </g>
    </g>
    <g id="xtick_10">
     <g id="line2d_22">
      <g>
       <use style="stroke:#000000;stroke-width:0.5;" x="282.9" xlink:href="#m93b0483c22" y="193.325092707"/>
      </g>
     </g>
     <g id="line2d_23">
      <g>
       <use style="stroke:#000000;stroke-width:0.5;" x="282.9" xlink:href="#m741efc42ff" y="22.7441285538"/>
      </g>
     </g>
     <g id="text_10">
      <!-- $11$ -->
      <g transform="translate(277.918664748 204.243591087)scale(0.1 -0.1)">
       <use transform="scale(0.996264009963)" xlink:href="#CMR17-49"/>
       <use transform="translate(45.6904771171 0.0)scale(0.996264009963)" xlink:href="#CMR17-49"/>
      </g>
     </g>
    </g>
    <g id="xtick_11">
     <g id="line2d_24">
      <g>
       <use style="stroke:#000000;stroke-width:0.5;" x="310.5" xlink:href="#m93b0483c22" y="193.325092707"/>
      </g>
     </g>
     <g id="line2d_25">
      <g>
       <use style="stroke:#000000;stroke-width:0.5;" x="310.5" xlink:href="#m741efc42ff" y="22.7441285538"/>
      </g>
     </g>
     <g id="text_11">
      <!-- $12$ -->
      <g transform="translate(305.518664748 204.243591087)scale(0.1 -0.1)">
       <use transform="scale(0.996264009963)" xlink:href="#CMR17-49"/>
       <use transform="translate(45.6904771171 0.0)scale(0.996264009963)" xlink:href="#CMR17-50"/>
      </g>
     </g>
    </g>
    <g id="text_12">
     <!-- number of quantizer bits -->
     <defs>
      <path d="
M15.5 61.0781
C15.5 63.2656 13.7031 65.1562 11.4062 65.1562
C9.20312 65.1562 7.29688 63.375 7.29688 61.0781
C7.29688 58.8906 9.09375 57 11.4062 57
C13.5938 57 15.5 58.7969 15.5 61.0781
M3.79688 42.2812
L3.79688 39.7031
C9.40625 39.7031 10.2031 39.0938 10.2031 34.3281
L10.2031 6.67188
C10.2031 2.875 9.79688 2.39062 3.40625 2.39062
L3.40625 -0.203125
C5.79688 0 10.0938 0 12.5938 0
C15 0 19.0938 0 21.4062 -0.203125
L21.4062 2.39062
C15.5 2.39062 15.2969 2.98438 15.2969 6.5625
L15.2969 43.375
z
" id="CMR17-105"/>
      <path d="
M36 25.8281
C36 32.375 36 35.8438 31.7969 39.7344
C28.0938 43 23.7969 44 20.4062 44
C12.5 44 6.79688 37.6094 6.79688 30.7969
C6.79688 27 9.79688 27 10.4062 27
C11.7031 27 14 27.7812 14 30.5312
C14 33 12.0938 34.0781 10.4062 34.0781
C10 34.0781 9.5 33.9688 9.20312 33.875
C11.2969 40.5 16.7031 42.4062 20.2031 42.4062
C25.2031 42.4062 30.7031 37.9531 30.7031 29.4531
L30.7031 25
C24.7969 25 17.7031 24.2031 12.0938 21.2031
C5.79688 17.7031 4 12.7031 4 8.90625
C4 1.20312 13 -1 18.2969 -1
C23.7969 -1 28.9062 2.17188 31.0938 7.98438
C31.2969 3.64062 34.0938 -0.28125 38.5 -0.28125
C40.5938 -0.28125 45.9062 1.09375 45.9062 8.85938
L45.9062 14.375
L44.0938 14.375
L44.0938 8.78125
C44.0938 2.78125 41.4062 2 40.0938 2
C36 2 36 7.15625 36 11.5312
z

M30.7031 13.5938
C30.7031 4.95312 24.5 0.59375 19 0.59375
C14 0.59375 10.0938 4.29688 10.0938 8.90625
C10.0938 11.8906 11.4062 17.1875 17.2031 20.3906
C22 23.0938 27.5 23.5 30.7031 23.5
z
" id="CMR17-97"/>
      <path d="
M36.0938 40.7031
C36.9062 41.7188 36.9062 41.9062 36.9062 42.1094
C36.9062 43 36.5 43 34.7031 43
L4.29688 43
L3.29688 27.5
L5.09375 27.5
C5.79688 37.2031 6.90625 41.4062 18.4062 41.4062
L30.5938 41.4062
L2 1.5
C2 0.09375 2.09375 0 4.20312 0
L35.7969 0
L37.2031 18
L35.4062 18
C34.5938 6.90625 33.2969 1.79688 21.0938 1.79688
L8.29688 1.79688
z
" id="CMR17-122"/>
      <path d="
M15.2969 40
L26.7031 40
L26.7031 42.5781
L15.0938 42.5781
L15.0938 54.5938
C15.0938 62.8438 19.2969 68 23.5938 68
C24.9062 68 26.4062 67.6094 27.4062 66.9062
C26.5938 66.7031 24.5 66.0156 24.5 63.5312
C24.5 60.9531 26.5 60.1562 27.9062 60.1562
C29.2969 60.1562 31.2969 60.9531 31.2969 63.5469
C31.2969 67.3125 27.7031 69.5938 23.7031 69.5938
C18 69.5938 10.2031 64.9375 10.2031 54.3906
L10.2031 42.5781
L2.20312 42.5781
L2.20312 40
L10.2031 40
L10.2031 6.67188
C10.2031 2.875 9.79688 2.39062 3.40625 2.39062
L3.40625 -0.203125
C5.79688 0 10.4062 0 13 0
C15.9062 0 21 0 23.7031 -0.203125
L23.7031 2.39062
C16.5 2.39062 15.2969 2.39062 15.2969 6.85938
z
" id="CMR17-102"/>
      <path d="
M15 68.6875
L3.09375 67.5938
L3.09375 65
C9 65 9.90625 64.4062 9.90625 59.6406
L9.90625 -0.203125
L11.7031 -0.203125
L14.5938 6.89062
C17.5 2.20312 21.7969 -1 27.5938 -1
C37.5938 -1 47.7031 7.8125 47.7031 21.4062
C47.7031 34.1875 38.7031 43.5938 28.5938 43.5938
C22.4062 43.5938 18 40.2969 15 36.4062
z

M15.2031 31.3125
C15.2031 33.0938 15.2031 33.4062 16.5938 35.5
C20.5 41.5156 26.0938 42 28 42
C31 42 41.2969 40.3906 41.2969 21.5
C41.2969 1.6875 29.5 0.59375 27.0938 0.59375
C24 0.59375 19.5 1.78125 16.2969 7.59375
C15.2031 9.5 15.2031 9.70312 15.2031 11.4844
z
" id="CMR17-98"/>
      <path d="
M15.0938 40
L29.0938 40
L29.0938 42.5781
L15.0938 42.5781
L15.0938 61
L13.2969 61
C13.0938 50.7031 9.59375 41.6875 1.09375 41.6875
L1.09375 40
L9.79688 40
L9.79688 12.0469
C9.79688 10.1562 9.79688 -1 21.4062 -1
C27.2969 -1 30.7031 4.78125 30.7031 12.1406
L30.7031 17.8125
L28.9062 17.8125
L28.9062 12.2344
C28.9062 5.375 26.2031 0.796875 22 0.796875
C19.0938 0.796875 15.0938 2.78125 15.0938 11.8438
z
" id="CMR17-116"/>
      <path d="
M29.4062 42.0781
L29.4062 39.5
C35.2969 39.5 36.2031 38.8906 36.2031 34.1562
L36.2031 16.125
C36.2031 7.8125 31.7031 0.59375 24.2969 0.59375
C16.0938 0.59375 15.4062 5.4375 15.4062 10.5938
L15.4062 43.1719
L3.29688 42.0781
L3.29688 39.5
C7.29688 39.5 10 39.5 10.0938 35.5312
L10.0938 16.5312
C10.0938 9.89062 10.0938 5.64062 12.7031 2.85938
C14 1.57812 16.5 -1 23.7031 -1
C32.2031 -1 35.5 6.35938 36.2969 8.5
L36.4062 8.5
L36.4062 -0.984375
L48.2969 -0.984375
L48.2969 2
C42.4062 2 41.5 2.59375 41.5 7.39062
L41.5 43.1719
z
" id="CMR17-117"/>
      <path d="
M15 23.3906
C15 33 19.0938 42 26.5938 42
C27.2969 42 28 41.9062 28.7031 41.5938
C28.7031 41.5938 26.5 40.8906 26.5 38.3125
C26.5 35.9062 28.4062 34.9062 29.9062 34.9062
C31.0938 34.9062 33.2969 35.6094 33.2969 38.4062
C33.2969 41.6094 30.0938 43.5938 26.7031 43.5938
C19.0938 43.5938 15.7969 36.2031 14.7969 32.7031
L14.7031 32.7031
L14.7031 43.5938
L3.09375 42.5
L3.09375 39.9062
C9 39.9062 9.90625 39.2969 9.90625 34.5
L9.90625 6.6875
C9.90625 2.875 9.5 2.39062 3.09375 2.39062
L3.09375 -0.203125
C5.5 0 10.0938 0 12.7031 0
C15.5938 0 20.7031 0 23.4062 -0.203125
L23.4062 2.39062
C16.2031 2.39062 15 2.39062 15 6.875
z
" id="CMR17-114"/>
      <path d="
M30.9062 42.1094
C30.9062 43.9062 30.7969 44 30.2031 44
C29.7969 44 29.7031 43.9062 28.5 42.4219
C28.2031 42.0156 27.2969 41.0156 27 40.625
C23.7969 44 19.2969 44 17.5938 44
C6.5 44 2.5 38.1719 2.5 32.375
C2.5 23.3438 12.7031 21.25 15.5938 20.6406
C21.9062 19.3438 24.0938 18.9375 26.2031 17.125
C27.5 15.9375 29.7031 13.7344 29.7031 10.125
C29.7031 5.90625 27.2969 0.5 18.0938 0.5
C9.40625 0.5 6.29688 7.0625 4.5 15.8281
C4.20312 17.2188 4.20312 17.3281 3.40625 17.3281
C2.59375 17.3281 2.5 17.2188 2.5 15.2344
L2.5 0.890625
C2.5 -0.890625 2.59375 -1 3.20312 -1
C3.70312 -1 3.79688 -0.890625 4.29688 -0.09375
C4.90625 0.796875 6.40625 3.1875 7 4.1875
C9 1.54688 12.5 -1 18.0938 -1
C28 -1 33.2969 4.40625 33.2969 12.2344
C33.2969 17.3438 30.5938 20.0625 29.2969 21.25
C26.2969 24.375 22.7969 25.0625 18.5938 25.8594
C13.0938 27.0781 6.09375 28.4688 6.09375 34.5938
C6.09375 37.1875 7.5 42.7188 17.5938 42.7188
C28.2969 42.7188 28.9062 32.75 29.0938 29.5625
C29.2031 29.0781 29.7031 28.9688 30 28.9688
C30.9062 28.9688 30.9062 29.2812 30.9062 30.9688
z
" id="CMR17-115"/>
      <path d="
M38.0938 23
C38.5 23.4062 38.5 23.6094 38.5 24.625
C38.5 34.9688 33.0938 44 21.7031 44
C11.0938 44 2.70312 33.8906 2.70312 21.6094
C2.70312 8.60938 12.2031 -1 22.7969 -1
C34 -1 38.4062 9.46875 38.4062 11.5469
C38.4062 12.25 37.7969 12.25 37.5938 12.25
C36.9062 12.25 36.7969 12.0469 36.4062 10.875
C34.2031 4.14062 28.7031 0.796875 23.5 0.796875
C19.2031 0.796875 14.9062 3.17188 12.2031 7.5
C9.09375 12.5469 9.09375 18.375 9.09375 23
z

M9.20312 24.5
C9.90625 39.1406 17.5938 42.4062 21.5938 42.4062
C28.4062 42.4062 33 35.8906 33.0938 24.5
z
" id="CMR17-101"/>
      <path d="
M41.0938 43.7812
L39.5 43.7812
L36.5 33.9375
C34.2031 39.2031 30 43.7812 23.2969 43.7812
C13.0938 43.7812 3.29688 34.7344 3.29688 21.5938
C3.29688 8.5625 12.5 -0.59375 22.5 -0.59375
C30.2031 -0.59375 34.5 5.28125 35.7969 7.46875
L35.7969 -12.3281
C35.7969 -16.1094 35.4062 -16.6094 29 -16.6094
L29 -19.1875
C31.4062 -19 35.7969 -19 38.4062 -19
C41 -19 45.5 -19 47.9062 -19.1875
L47.9062 -16.6094
C41.5 -16.6094 41.0938 -16.2031 41.0938 -12.3281
z

M36 13.8438
C36 9.5625 32.4062 5.57812 32.0938 5.28125
C29 1.79688 25.4062 1 23 1
C15.5 1 9.70312 10.4531 9.70312 21.5
C9.70312 33.1406 16.2969 42 24 42
C32 42 36 32.9375 36 27.7656
z
" id="CMR17-113"/>
      <path d="
M41.5 30.2031
C41.5 35.2969 40.5 43.5938 28.7031 43.5938
C20.7969 43.5938 16.7031 37.5 15.2031 33.5
L15.0938 33.5
L15.0938 43.5938
L3.29688 42.5
L3.29688 39.9062
C9.20312 39.9062 10.0938 39.2969 10.0938 34.5
L10.0938 6.6875
C10.0938 2.875 9.70312 2.39062 3.29688 2.39062
L3.29688 -0.203125
C5.70312 0 10.0938 0 12.7031 0
C15.2969 0 19.7969 0 22.2031 -0.203125
L22.2031 2.39062
C15.7969 2.39062 15.4062 2.78125 15.4062 6.6875
L15.4062 25.9062
C15.4062 35.1094 21 42 28 42
C35.4062 42 36.2031 35.4062 36.2031 30.5938
L36.2031 6.6875
C36.2031 2.875 35.7969 2.39062 29.4062 2.39062
L29.4062 -0.203125
C31.7969 0 36.2031 0 38.7969 0
C41.4062 0 45.9062 0 48.2969 -0.203125
L48.2969 2.39062
C41.9062 2.39062 41.5 2.78125 41.5 6.6875
z
" id="CMR17-110"/>
      <path d="
M43.0938 21.1875
C43.0938 34 33.7969 44 22.9062 44
C12 44 2.70312 34 2.70312 21.1875
C2.70312 8.60938 12 -1 22.9062 -1
C33.7969 -1 43.0938 8.60938 43.0938 21.1875
M22.9062 0.796875
C18.2031 0.796875 14.2031 3.59375 11.9062 7.5
C9.40625 11.9844 9.09375 17.5938 9.09375 22
C9.09375 26.2031 9.29688 31.4062 11.9062 35.9062
C13.9062 39.2031 17.7969 42.4062 22.9062 42.4062
C27.4062 42.4062 31.2031 39.9062 33.5938 36.4062
C36.7031 31.7031 36.7031 25.1094 36.7031 22
C36.7031 18.0938 36.5 12.1094 33.7969 7.29688
C31 2.70312 26.7031 0.796875 22.9062 0.796875" id="CMR17-111"/>
      <path d="
M67.5938 30.2031
C67.5938 35.1875 66.7031 43.5938 54.7969 43.5938
C48 43.5938 43.2969 39 41.5 33.5938
L41.4062 33.5938
C40.2031 41.7969 34.2969 43.5938 28.7031 43.5938
C20.7969 43.5938 16.7031 37.5625 15.2031 33.5938
L15.0938 33.5938
L15.0938 43.5938
L3.29688 42.5
L3.29688 39.9062
C9.20312 39.9062 10.0938 39.2969 10.0938 34.5
L10.0938 6.6875
C10.0938 2.875 9.70312 2.39062 3.29688 2.39062
L3.29688 -0.203125
C5.70312 0 10.0938 0 12.7031 0
C15.2969 0 19.7969 0 22.2031 -0.203125
L22.2031 2.39062
C15.7969 2.39062 15.4062 2.78125 15.4062 6.6875
L15.4062 25.9062
C15.4062 35.1094 21 42 28 42
C35.4062 42 36.2031 35.4062 36.2031 30.5938
L36.2031 6.6875
C36.2031 2.875 35.7969 2.39062 29.4062 2.39062
L29.4062 -0.203125
C31.7969 0 36.2031 0 38.7969 0
C41.4062 0 45.9062 0 48.2969 -0.203125
L48.2969 2.39062
C41.9062 2.39062 41.5 2.78125 41.5 6.6875
L41.5 25.9062
C41.5 35.1094 47.0938 42 54.0938 42
C61.5 42 62.2969 35.4062 62.2969 30.5938
L62.2969 6.6875
C62.2969 2.875 61.9062 2.39062 55.5 2.39062
L55.5 -0.203125
C57.9062 0 62.2969 0 64.9062 0
C67.5 0 72 0 74.4062 -0.203125
L74.4062 2.39062
C68 2.39062 67.5938 2.78125 67.5938 6.6875
z
" id="CMR17-109"/>
     </defs>
     <g transform="translate(118.75699434 218.099267798)scale(0.1 -0.1)">
      <use transform="scale(0.996264009963)" xlink:href="#CMR17-110"/>
      <use transform="translate(48.2929158478 0.0)scale(0.996264009963)" xlink:href="#CMR17-117"/>
      <use transform="translate(99.1882856281 0.0)scale(0.996264009963)" xlink:href="#CMR17-109"/>
      <use transform="translate(173.505421564 0.0)scale(0.996264009963)" xlink:href="#CMR17-98"/>
      <use transform="translate(227.003230075 0.0)scale(0.996264009963)" xlink:href="#CMR17-101"/>
      <use transform="translate(267.488890537 0.0)scale(0.996264009963)" xlink:href="#CMR17-114"/>
      <use transform="translate(332.845624684 0.0)scale(0.996264009963)" xlink:href="#CMR17-111"/>
      <use transform="translate(378.536101801 0.0)scale(0.996264009963)" xlink:href="#CMR17-102"/>
      <use transform="translate(436.085580562 0.0)scale(0.996264009963)" xlink:href="#CMR17-113"/>
      <use transform="translate(484.37849641 0.0)scale(0.996264009963)" xlink:href="#CMR17-117"/>
      <use transform="translate(535.27386619 0.0)scale(0.996264009963)" xlink:href="#CMR17-97"/>
      <use transform="translate(580.964343307 0.0)scale(0.996264009963)" xlink:href="#CMR17-110"/>
      <use transform="translate(629.257259155 0.0)scale(0.996264009963)" xlink:href="#CMR17-116"/>
      <use transform="translate(664.538026955 0.0)scale(0.996264009963)" xlink:href="#CMR17-105"/>
      <use transform="translate(689.409085436 0.0)scale(0.996264009963)" xlink:href="#CMR17-122"/>
      <use transform="translate(729.894745899 0.0)scale(0.996264009963)" xlink:href="#CMR17-101"/>
      <use transform="translate(770.380406362 0.0)scale(0.996264009963)" xlink:href="#CMR17-114"/>
      <use transform="translate(835.737140508 0.0)scale(0.996264009963)" xlink:href="#CMR17-98"/>
      <use transform="translate(886.632510289 0.0)scale(0.996264009963)" xlink:href="#CMR17-105"/>
      <use transform="translate(911.50356877 0.0)scale(0.996264009963)" xlink:href="#CMR17-116"/>
      <use transform="translate(946.78433657 0.0)scale(0.996264009963)" xlink:href="#CMR17-115"/>
     </g>
    </g>
   </g>
   <g id="matplotlib.axis_2">
    <g id="ytick_1">
     <g id="line2d_26">
      <defs>
       <path d="
M0 0
L4 0" id="m728421d6d4" style="stroke:#000000;stroke-width:0.5;"/>
      </defs>
      <g>
       <use style="stroke:#000000;stroke-width:0.5;" x="34.5" xlink:href="#m728421d6d4" y="193.325092707"/>
      </g>
     </g>
     <g id="line2d_27">
      <defs>
       <path d="
M0 0
L-4 0" id="mcb0005524f" style="stroke:#000000;stroke-width:0.5;"/>
      </defs>
      <g>
       <use style="stroke:#000000;stroke-width:0.5;" x="310.5" xlink:href="#mcb0005524f" y="193.325092707"/>
      </g>
     </g>
     <g id="text_13">
      <!-- $-20$ -->
      <defs>
       <path d="
M65.9062 23
C67.5938 23 69.4062 23 69.4062 25
C69.4062 27 67.5938 27 65.9062 27
L11.7969 27
C10.0938 27 8.29688 27 8.29688 25
C8.29688 23 10.0938 23 11.7969 23
z
" id="CMSY10-0"/>
      </defs>
      <g transform="translate(12.7885857721 195.815752732)scale(0.1 -0.1)">
       <use transform="scale(0.996264009963)" xlink:href="#CMSY10-0"/>
       <use transform="translate(77.4874676506 0.0)scale(0.996264009963)" xlink:href="#CMR17-50"/>
       <use transform="translate(123.177944768 0.0)scale(0.996264009963)" xlink:href="#CMR17-48"/>
      </g>
     </g>
    </g>
    <g id="ytick_2">
     <g id="line2d_28">
      <g>
       <use style="stroke:#000000;stroke-width:0.5;" x="34.5" xlink:href="#m728421d6d4" y="168.956383542"/>
      </g>
     </g>
     <g id="line2d_29">
      <g>
       <use style="stroke:#000000;stroke-width:0.5;" x="310.5" xlink:href="#mcb0005524f" y="168.956383542"/>
      </g>
     </g>
     <g id="text_14">
      <!-- $-10$ -->
      <g transform="translate(12.7885857721 171.447043567)scale(0.1 -0.1)">
       <use transform="scale(0.996264009963)" xlink:href="#CMSY10-0"/>
       <use transform="translate(77.4874676506 0.0)scale(0.996264009963)" xlink:href="#CMR17-49"/>
       <use transform="translate(123.177944768 0.0)scale(0.996264009963)" xlink:href="#CMR17-48"/>
      </g>
     </g>
    </g>
    <g id="ytick_3">
     <g id="line2d_30">
      <g>
       <use style="stroke:#000000;stroke-width:0.5;" x="34.5" xlink:href="#m728421d6d4" y="144.587674378"/>
      </g>
     </g>
     <g id="line2d_31">
      <g>
       <use style="stroke:#000000;stroke-width:0.5;" x="310.5" xlink:href="#mcb0005524f" y="144.587674378"/>
      </g>
     </g>
     <g id="text_15">
      <!-- $0$ -->
      <g transform="translate(25.5186647484 147.078334402)scale(0.1 -0.1)">
       <use transform="scale(0.996264009963)" xlink:href="#CMR17-48"/>
      </g>
     </g>
    </g>
    <g id="ytick_4">
     <g id="line2d_32">
      <g>
       <use style="stroke:#000000;stroke-width:0.5;" x="34.5" xlink:href="#m728421d6d4" y="120.218965213"/>
      </g>
     </g>
     <g id="line2d_33">
      <g>
       <use style="stroke:#000000;stroke-width:0.5;" x="310.5" xlink:href="#mcb0005524f" y="120.218965213"/>
      </g>
     </g>
     <g id="text_16">
      <!-- $10$ -->
      <g transform="translate(20.5373294968 122.709625238)scale(0.1 -0.1)">
       <use transform="scale(0.996264009963)" xlink:href="#CMR17-49"/>
       <use transform="translate(45.6904771171 0.0)scale(0.996264009963)" xlink:href="#CMR17-48"/>
      </g>
     </g>
    </g>
    <g id="ytick_5">
     <g id="line2d_34">
      <g>
       <use style="stroke:#000000;stroke-width:0.5;" x="34.5" xlink:href="#m728421d6d4" y="95.850256048"/>
      </g>
     </g>
     <g id="line2d_35">
      <g>
       <use style="stroke:#000000;stroke-width:0.5;" x="310.5" xlink:href="#mcb0005524f" y="95.850256048"/>
      </g>
     </g>
     <g id="text_17">
      <!-- $20$ -->
      <g transform="translate(20.5373294968 98.3409160729)scale(0.1 -0.1)">
       <use transform="scale(0.996264009963)" xlink:href="#CMR17-50"/>
       <use transform="translate(45.6904771171 0.0)scale(0.996264009963)" xlink:href="#CMR17-48"/>
      </g>
     </g>
    </g>
    <g id="ytick_6">
     <g id="line2d_36">
      <g>
       <use style="stroke:#000000;stroke-width:0.5;" x="34.5" xlink:href="#m728421d6d4" y="71.4815468833"/>
      </g>
     </g>
     <g id="line2d_37">
      <g>
       <use style="stroke:#000000;stroke-width:0.5;" x="310.5" xlink:href="#mcb0005524f" y="71.4815468833"/>
      </g>
     </g>
     <g id="text_18">
      <!-- $30$ -->
      <g transform="translate(20.5373294968 73.9722069082)scale(0.1 -0.1)">
       <use transform="scale(0.996264009963)" xlink:href="#CMR17-51"/>
       <use transform="translate(45.6904771171 0.0)scale(0.996264009963)" xlink:href="#CMR17-48"/>
      </g>
     </g>
    </g>
    <g id="ytick_7">
     <g id="line2d_38">
      <g>
       <use style="stroke:#000000;stroke-width:0.5;" x="34.5" xlink:href="#m728421d6d4" y="47.1128377185"/>
      </g>
     </g>
     <g id="line2d_39">
      <g>
       <use style="stroke:#000000;stroke-width:0.5;" x="310.5" xlink:href="#mcb0005524f" y="47.1128377185"/>
      </g>
     </g>
     <g id="text_19">
      <!-- $40$ -->
      <g transform="translate(20.5373294968 49.6034977434)scale(0.1 -0.1)">
       <use transform="scale(0.996264009963)" xlink:href="#CMR17-52"/>
       <use transform="translate(45.6904771171 0.0)scale(0.996264009963)" xlink:href="#CMR17-48"/>
      </g>
     </g>
    </g>
    <g id="ytick_8">
     <g id="line2d_40">
      <g>
       <use style="stroke:#000000;stroke-width:0.5;" x="34.5" xlink:href="#m728421d6d4" y="22.7441285538"/>
      </g>
     </g>
     <g id="line2d_41">
      <g>
       <use style="stroke:#000000;stroke-width:0.5;" x="310.5" xlink:href="#mcb0005524f" y="22.7441285538"/>
      </g>
     </g>
     <g id="text_20">
      <!-- $50$ -->
      <g transform="translate(20.5373294968 25.2347885787)scale(0.1 -0.1)">
       <use transform="scale(0.996264009963)" xlink:href="#CMR17-53"/>
       <use transform="translate(45.6904771171 0.0)scale(0.996264009963)" xlink:href="#CMR17-48"/>
      </g>
     </g>
    </g>
    <g id="text_21">
     <!-- SNR in dB -->
     <defs>
      <path d="
M5.20312 68
L5.20312 65.4062
C12.0938 65.4062 13.2031 65.4062 13.2031 60.9375
L13.2031 7.0625
C13.2031 2.59375 12.0938 2.59375 5.20312 2.59375
L5.20312 0
L39.5938 0
C52.4062 0 60.7031 9.10938 60.7031 18.1875
C60.7031 27.2031 52.5 34.8906 41.7969 34.8906
C51.4062 36.8125 58.0938 43.2969 58.0938 51
C58.0938 59.4062 49.9062 68 37 68
z

M19.5 36
L19.5 61.5156
C19.5 64.9219 19.7031 65.4062 23.7031 65.4062
L36.5 65.4062
C46.4062 65.4062 50.7969 57.4062 50.7969 51.2031
C50.7969 43.6094 44.7031 36 33.9062 36
z

M23.7031 2.59375
C19.7031 2.59375 19.5 3.07812 19.5 6.45312
L19.5 34.4062
L38 34.4062
C48.2969 34.4062 53.2969 25.3906 53.2969 18.1562
C53.2969 10.9219 47.5938 2.59375 36.7031 2.59375
z
" id="CMR17-66"/>
      <path d="
M43.7969 68.1094
C43.7969 69.8906 43.7031 70 43.0938 70
C42.5 70 42.2969 69.5938 41.9062 68.7031
L38.9062 62.125
C35.0938 67.5469 29.2969 70 23 70
C12.7969 70 4.59375 61.9531 4.59375 51.7969
C4.59375 48.7344 5.29688 44.3438 8.70312 40.1719
C12.4062 35.6094 15.9062 34.8125 23.9062 32.7188
C26.9062 31.9219 31.9062 30.625 32.9062 30.2344
C38.5938 27.8438 41.5938 21.8906 41.5938 16.3125
C41.5938 9.14062 36.5 1.5 27.7969 1.5
C17.0938 1.5 7.09375 7.46875 6.40625 21.4062
C6.29688 23 6.20312 23.0938 5.5 23.0938
C4.70312 23.0938 4.59375 23 4.59375 21
L4.59375 0.890625
C4.59375 -0.890625 4.70312 -1 5.29688 -1
C6 -1 6.20312 -0.5 7.59375 2.59375
C7.70312 2.89062 7.70312 3.09375 9.59375 6.875
C14.5938 0.375 23 -1 27.7969 -1
C38.7031 -1 46.4062 8.04688 46.4062 18.5781
C46.4062 23.7344 44.5 27.7031 43.4062 29.5
C39.2031 35.8594 34.7031 37.0469 29.9062 38.2344
C29.2031 38.5469 29 38.5469 23.4062 39.9375
C18 41.3281 15.7031 42.0312 13.2031 44.7188
C10.4062 47.7969 9.40625 50.9844 9.40625 54.1719
C9.40625 60.6406 14.5938 67.7031 23.0938 67.7031
C33.7031 67.7031 40.2969 60.2344 41.7969 47.7969
C42.0938 46 42.2031 45.9062 42.9062 45.9062
C43.7969 45.9062 43.7969 46.2031 43.7969 47.8906
z
" id="CMR17-83"/>
      <path d="
M39.2031 33.7031
C48.7031 35.5781 56.7031 41.9375 56.7031 49.8594
C56.7031 59.1719 46.0938 67.5938 32.0938 67.5938
L5.20312 67.5938
L5.20312 65
C12.0938 65 13.2031 65 13.2031 60.5156
L13.2031 6.48438
C13.2031 2 12.0938 2 5.20312 2
L5.20312 -0.40625
C8.09375 -0.40625 13.2969 -0.40625 16.4062 -0.40625
C19.5 -0.40625 24.7031 -0.40625 27.5938 -0.40625
L27.5938 2
C20.7031 2 19.5938 2 19.5938 6.51562
L19.5938 33
L31.2969 33
C37 33 40.2031 30.6875 41.5938 29.3906
C45.5938 25.5 45.5938 22.7969 45.5938 16
C45.5938 9.29688 45.5938 5.89062 48.5938 2.5
C52.4062 -1.59375 57.5 -2 59.7031 -2
C67.0938 -2 68.2031 6.1875 68.2031 7.85938
C68.2031 8.4375 68.2031 9.14062 67.2969 9.14062
C66.5 9.14062 66.4062 8.54688 66.4062 8.14062
C65.9062 1.75 63 -0.40625 59.9062 -0.40625
C54.4062 -0.40625 53.7969 5.89062 53.2031 12
C52.9062 14.1094 52.7031 15.5938 52.5 17.7969
C51.9062 22.7969 51.0938 30.1094 39.2031 33.7031
M31 34.5938
L19.5938 34.5938
L19.5938 61.1406
C19.5938 64.5156 19.7969 65 23.7969 65
L31.0938 65
C39.4062 65 49.0938 62.1406 49.0938 49.8438
C49.0938 37.0625 38.5 34.5938 31 34.5938" id="CMR17-82"/>
      <path d="
M20.5 66.4062
C19.7969 67.5 19.7031 67.5938 17.7969 67.5938
L5.09375 67.5938
L5.09375 65
L7 65
C11 65 12.7969 64.5156 13.0938 64.4062
L13.0938 9.53125
C13.0938 7.04688 13.0938 2.39062 5.09375 2.39062
L5.09375 -0.203125
C7.40625 0 11.5938 0 14.0938 0
C16.5938 0 20.7969 0 23.0938 -0.203125
L23.0938 2.39062
C15.0938 2.39062 15.0938 7.04688 15.0938 9.53125
L15.0938 63.0156
C15.7969 62.4219 15.7969 62.2188 16.5 61.2344
L53.5938 1.1875
C54.2969 0 54.5938 0 55.0938 0
C56.0938 0 56.0938 0.296875 56.0938 2.17188
L56.0938 57.8906
C56.0938 60.3594 56.0938 65 64.0938 65
L64.0938 67.5938
C61.7969 67.5938 57.5938 67.5938 55.0938 67.5938
C52.5938 67.5938 48.4062 67.5938 46.0938 67.5938
L46.0938 65
C54.0938 65 54.0938 60.3438 54.0938 57.8594
L54.0938 11.9219
z
" id="CMR17-78"/>
      <path d="
M29.2031 67.5938
L29.2031 65
C35.0938 65 36 64.4062 36 59.6875
L36 36.6406
C35.5938 37.1406 31.5 43.5938 23.4062 43.5938
C13.2031 43.5938 3.29688 34.5 3.29688 21.3125
C3.29688 8.20312 12.5938 -1 22.4062 -1
C30.9062 -1 35.2969 5.26562 35.7969 5.9375
L35.7969 -0.984375
L47.9062 -0.984375
L47.9062 2
C42 2 41.0938 2.59375 41.0938 7.39062
L41.0938 68.6875
z

M35.7969 11.7969
C35.7969 8.79688 34 6.09375 31.7031 4.09375
C28.2969 1.09375 24.9062 0.59375 23 0.59375
C20.0938 0.59375 9.70312 2.09375 9.70312 21.1875
C9.70312 40.8125 21.2969 42 23.9062 42
C28.5 42 32.2031 39.4062 34.5 35.7969
C35.7969 33.7031 35.7969 33.4062 35.7969 31.6094
z
" id="CMR17-100"/>
     </defs>
     <g transform="translate(5.85140744182 131.97266732)rotate(-90.0)scale(0.1 -0.1)">
      <use transform="scale(0.996264009963)" xlink:href="#CMR17-83"/>
      <use transform="translate(50.8953697803 0.0)scale(0.996264009963)" xlink:href="#CMR17-78"/>
      <use transform="translate(119.967799585 0.0)scale(0.996264009963)" xlink:href="#CMR17-82"/>
      <use transform="translate(217.834867903 0.0)scale(0.996264009963)" xlink:href="#CMR17-105"/>
      <use transform="translate(242.705926384 0.0)scale(0.996264009963)" xlink:href="#CMR17-110"/>
      <use transform="translate(323.677262512 0.0)scale(0.996264009963)" xlink:href="#CMR17-100"/>
      <use transform="translate(374.572632292 0.0)scale(0.996264009963)" xlink:href="#CMR17-66"/>
     </g>
    </g>
   </g>
   <g id="patch_3">
    <path d="
M34.5 22.7441
L310.5 22.7441" style="fill:none;stroke:#000000;"/>
   </g>
   <g id="patch_4">
    <path d="
M310.5 193.325
L310.5 22.7441" style="fill:none;stroke:#000000;"/>
   </g>
   <g id="patch_5">
    <path d="
M34.5 193.325
L310.5 193.325" style="fill:none;stroke:#000000;"/>
   </g>
   <g id="patch_6">
    <path d="
M34.5 193.325
L34.5 22.7441" style="fill:none;stroke:#000000;"/>
   </g>
   <g id="text_22">
    <!-- Linear Quantizers SNRs -->
    <defs>
     <path d="
M54.2031 25.2344
L52.4062 25.2344
C51.5938 15.3594 50.2969 2.59375 33.2031 2.59375
L23.9062 2.59375
C19.9062 2.59375 19.7031 3.07812 19.7031 6.46875
L19.7031 60.9062
C19.7031 64.5156 19.9062 65.5 27.5 65.5
L29.7031 65.5
L29.7031 68
C25.5938 68 20.7969 68 16.7031 68
C13.5938 68 8 68 5.09375 68
L5.09375 65.5
C12 65.5 13.0938 65.5 13.0938 61.0312
L13.0938 7.0625
C13.0938 2.59375 12 2.59375 5.09375 2.59375
L5.09375 0
L51.7969 0
z
" id="CMR17-76"/>
     <path d="
M47.2969 1.48438
C59.2031 6.54688 67.2969 19.4531 67.2969 34.3594
C67.2969 54.7031 52.5938 70 36 70
C19 70 4.59375 54.5 4.59375 34.3594
C4.59375 14.5 19 -1 36 -1
C38.2969 -1 41.5 -0.703125 45.2969 0.59375
C47 -11.6719 48.0938 -19 56.7031 -19
C67.2969 -19 67.7969 -3.32812 67.7969 -0.515625
C67.7969 0.5 67.7969 1.1875 67.0938 1.1875
C66.5938 1.1875 66.5 0.5 66.5 0.296875
C65.7969 -9.42188 60.4062 -11.4375 57.2031 -11.4375
C51.2969 -11.4375 49.2031 -6.07812 47.2969 1.48438
M30.5938 1.57812
C20.2031 4.85938 12 15.875 12 34.3438
C12 57.9844 25.0938 68.2031 35.9062 68.2031
C47.0938 68.2031 59.9062 57.5938 59.9062 34.3438
C59.9062 17.5625 53.2031 8.23438 46.5 3.96875
C45 9.04688 42.5938 15 36.0938 15
C31.2969 15 28.5938 10.8125 28.5938 7.04688
C28.5938 4.76562 29.5 2.875 30.5938 1.57812
M44.9062 3.07812
C40.9062 0.890625 37.7031 0.890625 36 0.890625
C31.5 0.890625 30.2031 4.92188 30.2031 7.09375
C30.2031 10.1562 32.2969 13.4062 36.0938 13.4062
C42.5 13.4062 44.0938 7.75 44.9062 3.07812" id="CMR17-81"/>
    </defs>
    <g transform="translate(119.697923862 17.7441285538)scale(0.1 -0.1)">
     <use transform="scale(0.996264009963)" xlink:href="#CMR17-76"/>
     <use transform="translate(57.3814078553 0.0)scale(0.996264009963)" xlink:href="#CMR17-105"/>
     <use transform="translate(82.2524663372 0.0)scale(0.996264009963)" xlink:href="#CMR17-110"/>
     <use transform="translate(133.147836117 0.0)scale(0.996264009963)" xlink:href="#CMR17-101"/>
     <use transform="translate(173.63349658 0.0)scale(0.996264009963)" xlink:href="#CMR17-97"/>
     <use transform="translate(219.323973697 0.0)scale(0.996264009963)" xlink:href="#CMR17-114"/>
     <use transform="translate(284.680707844 0.0)scale(0.996264009963)" xlink:href="#CMR17-81"/>
     <use transform="translate(356.395496259 0.0)scale(0.996264009963)" xlink:href="#CMR17-117"/>
     <use transform="translate(407.290866039 0.0)scale(0.996264009963)" xlink:href="#CMR17-97"/>
     <use transform="translate(452.981343157 0.0)scale(0.996264009963)" xlink:href="#CMR17-110"/>
     <use transform="translate(501.274259004 0.0)scale(0.996264009963)" xlink:href="#CMR17-116"/>
     <use transform="translate(536.555026804 0.0)scale(0.996264009963)" xlink:href="#CMR17-105"/>
     <use transform="translate(561.426085286 0.0)scale(0.996264009963)" xlink:href="#CMR17-122"/>
     <use transform="translate(601.911745748 0.0)scale(0.996264009963)" xlink:href="#CMR17-101"/>
     <use transform="translate(642.397406211 0.0)scale(0.996264009963)" xlink:href="#CMR17-114"/>
     <use transform="translate(677.678174011 0.0)scale(0.996264009963)" xlink:href="#CMR17-115"/>
     <use transform="translate(743.555477993 0.0)scale(0.996264009963)" xlink:href="#CMR17-83"/>
     <use transform="translate(794.450847773 0.0)scale(0.996264009963)" xlink:href="#CMR17-78"/>
     <use transform="translate(863.523277577 0.0)scale(0.996264009963)" xlink:href="#CMR17-82"/>
     <use transform="translate(931.314379548 0.0)scale(0.996264009963)" xlink:href="#CMR17-115"/>
    </g>
   </g>
   <g id="legend_1">
    <g id="patch_7">
     <path d="
M230.175 188.325
L305.5 188.325
L305.5 143.514
L230.175 143.514
L230.175 188.325
z
" style="fill:#ffffff;stroke:#000000;"/>
    </g>
    <g id="line2d_42">
     <path d="
M237.175 151.014
L251.175 151.014" style="fill:none;stroke:#000000;stroke-linecap:square;"/>
    </g>
    <g id="line2d_43"/>
    <g id="text_23">
     <!-- theory  -->
     <defs>
      <path d="
M41.5 30.2031
C41.5 35.2969 40.5 43.5938 28.7031 43.5938
C20.5 43.5938 16.5 37 15.2969 33.7031
L15.2031 33.7031
L15.2031 68.6875
L3.29688 67.5938
L3.29688 65
C9.20312 65 10.0938 64.4062 10.0938 59.6406
L10.0938 6.65625
C10.0938 2.875 9.70312 2.39062 3.29688 2.39062
L3.29688 -0.203125
C5.70312 0 10.0938 0 12.7031 0
C15.2969 0 19.7969 0 22.2031 -0.203125
L22.2031 2.39062
C15.7969 2.39062 15.4062 2.78125 15.4062 6.6875
L15.4062 25.9062
C15.4062 35.1094 21 42 28 42
C35.4062 42 36.2031 35.4062 36.2031 30.5938
L36.2031 6.6875
C36.2031 2.875 35.7969 2.39062 29.4062 2.39062
L29.4062 -0.203125
C31.7969 0 36.2031 0 38.7969 0
C41.4062 0 45.9062 0 48.2969 -0.203125
L48.2969 2.39062
C41.9062 2.39062 41.5 2.78125 41.5 6.6875
z
" id="CMR17-104"/>
      <path d="
M39 34.3281
C41.5 40.4062 46 40.4062 47.4062 40.4062
L47.4062 43
C45.5 43 43 43 41.0938 43
C39 43 35.7031 43 33.7031 43.0938
L33.7031 40.5
C37.5 40.2031 37.5938 37.4062 37.5938 36.6094
C37.5938 35.625 37.4062 35.125 36.9062 33.9219
L26 7.01562
L14.0938 36.0312
C13.5938 37.2188 13.5938 37.9062 13.5938 38.0156
C13.5938 40.2031 15.9062 40.4062 18.2969 40.4062
L18.2969 43.0938
C15.9062 43 11.5938 43 9.09375 43
C6.40625 43 3.20312 43 1 43.0938
L1 40.4062
C6.40625 40.4062 7 39.9062 8.29688 36.7188
L23.2031 0.234375
C18.7031 -11.5312 16.0938 -18.4062 9.79688 -18.4062
C8.70312 -18.4062 6.20312 -18.1094 4.40625 -16.3125
C6.70312 -16.1094 7.70312 -14.7188 7.70312 -13.0156
C7.70312 -11.3281 6.5 -9.82812 4.5 -9.82812
C2.29688 -9.82812 1.20312 -11.3281 1.20312 -13.125
C1.20312 -17.1094 5.29688 -20 9.79688 -20
C15.5938 -20 19.2031 -14.4062 21.2031 -9.4375
z
" id="CMR17-121"/>
     </defs>
     <g transform="translate(262.17514764 154.513557716)scale(0.1 -0.1)">
      <use transform="scale(0.996264009963)" xlink:href="#CMR17-116"/>
      <use transform="translate(35.2807677995 0.0)scale(0.996264009963)" xlink:href="#CMR17-104"/>
      <use transform="translate(86.1761375798 0.0)scale(0.996264009963)" xlink:href="#CMR17-101"/>
      <use transform="translate(126.661798042 0.0)scale(0.996264009963)" xlink:href="#CMR17-111"/>
      <use transform="translate(172.35227516 0.0)scale(0.996264009963)" xlink:href="#CMR17-114"/>
      <use transform="translate(207.633042959 0.0)scale(0.996264009963)" xlink:href="#CMR17-121"/>
     </g>
    </g>
    <g id="line2d_44"/>
    <g id="line2d_45">
     <g>
      <use style="stroke:#000000;stroke-linejoin:miter;stroke-width:0.5;" x="237.17514764" xlink:href="#m8d89a5e90e" y="164.950736046"/>
      <use style="stroke:#000000;stroke-linejoin:miter;stroke-width:0.5;" x="251.17514764" xlink:href="#m8d89a5e90e" y="164.950736046"/>
     </g>
    </g>
    <g id="text_24">
     <!-- midrise -->
     <g transform="translate(262.17514764 168.450736046)scale(0.1 -0.1)">
      <use transform="scale(0.996264009963)" xlink:href="#CMR17-109"/>
      <use transform="translate(76.9195898681 0.0)scale(0.996264009963)" xlink:href="#CMR17-105"/>
      <use transform="translate(101.79064835 0.0)scale(0.996264009963)" xlink:href="#CMR17-100"/>
      <use transform="translate(152.68601813 0.0)scale(0.996264009963)" xlink:href="#CMR17-114"/>
      <use transform="translate(187.96678593 0.0)scale(0.996264009963)" xlink:href="#CMR17-105"/>
      <use transform="translate(212.837844412 0.0)scale(0.996264009963)" xlink:href="#CMR17-115"/>
      <use transform="translate(248.639182047 0.0)scale(0.996264009963)" xlink:href="#CMR17-101"/>
     </g>
    </g>
    <g id="line2d_46"/>
    <g id="line2d_47">
     <g>
      <use style="stroke:#000000;stroke-width:0.5;" x="237.17514764" xlink:href="#m0fc7715c6a" y="178.887914377"/>
      <use style="stroke:#000000;stroke-width:0.5;" x="251.17514764" xlink:href="#m0fc7715c6a" y="178.887914377"/>
     </g>
    </g>
    <g id="text_25">
     <!-- midtread -->
     <g transform="translate(262.17514764 182.387914377)scale(0.1 -0.1)">
      <use transform="scale(0.996264009963)" xlink:href="#CMR17-109"/>
      <use transform="translate(76.9195898681 0.0)scale(0.996264009963)" xlink:href="#CMR17-105"/>
      <use transform="translate(101.79064835 0.0)scale(0.996264009963)" xlink:href="#CMR17-100"/>
      <use transform="translate(152.68601813 0.0)scale(0.996264009963)" xlink:href="#CMR17-116"/>
      <use transform="translate(187.96678593 0.0)scale(0.996264009963)" xlink:href="#CMR17-114"/>
      <use transform="translate(223.247553729 0.0)scale(0.996264009963)" xlink:href="#CMR17-101"/>
      <use transform="translate(263.733214192 0.0)scale(0.996264009963)" xlink:href="#CMR17-97"/>
      <use transform="translate(309.423691309 0.0)scale(0.996264009963)" xlink:href="#CMR17-100"/>
     </g>
    </g>
   </g>
  </g>
 </g>
 <defs>
  <clipPath id="pec95003a04">
   <rect height="170.580964153" width="276.0" x="34.5" y="22.7441285538"/>
  </clipPath>
 </defs>
</svg>
