<?xml version="1.0" encoding="utf-8" standalone="no"?>
<!DOCTYPE svg PUBLIC "-//W3C//DTD SVG 1.1//EN"
  "http://www.w3.org/Graphics/SVG/1.1/DTD/svg11.dtd">
<!-- Created with matplotlib (http://matplotlib.org/) -->
<svg height="309.755677pt" version="1.1" viewBox="0 0 313.630079 309.755677" width="313.630079pt" xmlns="http://www.w3.org/2000/svg" xmlns:xlink="http://www.w3.org/1999/xlink">
 <defs>
  <style type="text/css">
*{stroke-linecap:butt;stroke-linejoin:round;}
  </style>
 </defs>
 <g id="figure_1">
  <g id="patch_1">
   <path d="M 0 309.755677 
L 313.630079 309.755677 
L 313.630079 0 
L 0 0 
z
" style="fill:#ffffff;"/>
  </g>
  <g id="axes_1">
   <g id="patch_2">
    <path d="M 26.930079 286.7 
L 302.930079 286.7 
L 302.930079 10.7 
L 26.930079 10.7 
z
" style="fill:#ffffff;"/>
   </g>
   <g id="patch_3">
    <path clip-path="url(#p7e7122920e)" d="M 290.384624 148.7 
L 290.263302 143.184 
L 289.899568 137.678668 
L 289.294127 132.194653 
L 288.44815 126.742562 
L 287.363273 121.332939 
L 286.041594 115.976247 
L 284.485669 110.682848 
L 282.698508 105.462979 
L 280.683568 100.326736 
L 278.444746 95.284053 
L 275.986371 90.344683 
L 273.313199 85.51818 
L 270.430399 80.813879 
L 267.343549 76.240879 
L 264.058617 71.808024 
L 260.581958 67.523888 
L 256.920295 63.396758 
L 253.080712 59.434615 
L 249.070633 55.645123 
L 244.897816 52.035611 
L 240.570331 48.613061 
L 236.096547 45.384092 
L 231.485118 42.35495 
L 226.744964 39.531493 
L 221.885251 36.919182 
L 216.915379 34.523069 
L 211.844961 32.34779 
L 206.683804 30.397551 
L 201.441889 28.676124 
L 196.129356 27.18684 
L 190.756479 25.932577 
L 185.333651 24.915763 
L 179.871359 24.138364 
L 174.380169 23.601883 
L 168.870701 23.307359 
L 163.353612 23.25536 
L 157.839572 23.445987 
L 152.339246 23.878872 
L 146.863272 24.553178 
L 141.422241 25.467599 
L 136.026678 26.620369 
L 130.687018 28.009256 
L 125.413588 29.631575 
L 120.216589 31.484187 
L 115.106071 33.563511 
L 110.091919 35.865523 
L 105.183832 38.385772 
L 100.391301 41.119383 
L 95.723597 44.061069 
L 91.189747 47.205141 
L 86.798521 50.545516 
L 82.558411 54.075736 
L 78.477619 57.788971 
L 74.564038 61.67804 
L 70.825236 65.735421 
L 67.268445 69.953266 
L 63.900544 74.323417 
L 60.728048 78.837423 
L 57.757092 83.486552 
L 54.993423 88.261812 
L 52.442385 93.153967 
L 50.108914 98.153556 
L 47.997521 103.250909 
L 46.112292 108.436165 
L 44.456871 113.699298 
L 43.034462 119.030126 
L 41.847814 124.418339 
L 40.899224 129.853517 
L 40.190525 135.325146 
L 39.723089 140.822644 
L 39.49782 146.335378 
L 39.515153 151.852685 
L 39.775055 157.363894 
L 40.277024 162.858346 
L 41.020087 168.325415 
L 42.002809 173.754525 
L 43.223288 179.135176 
L 44.679164 184.456962 
L 46.36762 189.709589 
L 48.285393 194.882898 
L 50.428771 199.966884 
L 52.793609 204.951713 
L 55.375335 209.827743 
L 58.168953 214.585544 
L 61.169061 219.215915 
L 64.369857 223.709898 
L 67.76515 228.058802 
L 71.348372 232.254216 
L 75.112593 236.288025 
L 79.050533 240.152428 
L 83.154575 243.839949 
L 87.416782 247.343458 
L 91.82891 250.656177 
L 96.382425 253.7717 
L 101.06852 256.684 
L 105.878131 259.387445 
L 110.801957 261.876806 
L 115.830474 264.147268 
L 120.953955 266.19444 
L 126.162492 268.014363 
L 131.446011 269.603516 
L 136.794293 270.958826 
L 142.196992 272.077671 
L 147.643661 272.957888 
L 153.123763 273.597774 
L 158.626701 273.996091 
L 164.14183 274.152069 
L 169.658484 274.065407 
L 175.165992 273.736271 
L 180.653703 273.165299 
L 186.111002 272.353595 
L 191.527335 271.302728 
L 196.892225 270.014732 
L 202.195296 268.492097 
L 207.426291 266.737769 
L 212.575093 264.75514 
L 217.631743 262.548046 
L 222.586461 260.120754 
L 227.429665 257.477961 
L 232.151986 254.624776 
L 236.744291 251.566719 
L 241.197698 248.309705 
L 245.503594 244.860032 
L 249.653649 241.224373 
L 253.639839 237.40976 
L 257.454452 233.42357 
L 261.090111 229.273515 
L 264.539784 224.967619 
L 267.796798 220.514212 
L 270.854855 215.921907 
L 273.70804 211.199586 
L 276.350833 206.356383 
L 278.778125 201.401664 
L 280.985219 196.345014 
L 282.967848 191.196212 
L 284.722176 185.965217 
L 286.244811 180.662146 
L 287.532807 175.297256 
L 288.583674 169.880923 
L 289.395378 164.423624 
L 289.96635 158.935913 
L 290.295486 153.428405 
L 290.384624 148.7 
L 290.384624 148.7 
" style="fill:none;stroke:#000000;stroke-linejoin:miter;"/>
   </g>
   <g id="patch_4">
    <path clip-path="url(#p7e7122920e)" d="M 292.580079 148.7 
L 290.384624 148.7 
L 288.18917 148.700001 
z
"/>
   </g>
   <g id="patch_5">
    <path clip-path="url(#p7e7122920e)" d="M 37.280078 145.563637 
L 39.475535 151.836364 
L 41.670987 145.563636 
z
"/>
   </g>
   <g id="patch_6">
    <path clip-path="url(#p7e7122920e)" d="M 292.580079 148.700001 
L 290.384624 148.7 
L 288.18917 148.7 
z
"/>
   </g>
   <g id="matplotlib.axis_1">
    <g id="xtick_1">
     <g id="line2d_1">
      <path clip-path="url(#p7e7122920e)" d="M 39.475534 286.7 
L 39.475534 10.7 
" style="fill:none;stroke:#b0b0b0;stroke-linecap:square;stroke-width:0.8;"/>
     </g>
     <g id="line2d_2">
      <defs>
       <path d="M 0 0 
L 0 3.5 
" id="m971c5e7acd" style="stroke:#000000;stroke-width:0.8;"/>
      </defs>
      <g>
       <use style="stroke:#000000;stroke-width:0.8;" x="39.475534" xlink:href="#m971c5e7acd" y="286.7"/>
      </g>
     </g>
     <g id="text_1">
      <!-- $-1$ -->
      <defs>
       <path d="M 65.90625 23 
C 67.59375 23 69.40625 23 69.40625 25 
C 69.40625 27 67.59375 27 65.90625 27 
L 11.796875 27 
C 10.09375 27 8.296875 27 8.296875 25 
C 8.296875 23 10.09375 23 11.796875 23 
z
" id="CMSY10-0"/>
       <path d="M 26.59375 63.40625 
C 26.59375 65.5 26.5 65.5 25.09375 65.5 
C 21.203125 61.1875 15.296875 59.796875 9.703125 59.796875 
C 9.40625 59.796875 8.90625 59.796875 8.796875 59.5 
C 8.703125 59.296875 8.703125 59.09375 8.703125 57 
C 11.796875 57 17 57.59375 21 59.984375 
L 21 7.203125 
C 21 3.6875 20.796875 2.5 12.203125 2.5 
L 9.203125 2.5 
L 9.203125 0 
C 14 0 19 0 23.796875 0 
C 28.59375 0 33.59375 0 38.40625 0 
L 38.40625 2.5 
L 35.40625 2.5 
C 26.796875 2.5 26.59375 3.59375 26.59375 7.15625 
z
" id="CMR17-49"/>
      </defs>
      <g transform="translate(33.110494 300.618498)scale(0.1 -0.1)">
       <use transform="scale(0.996264)" xlink:href="#CMSY10-0"/>
       <use transform="translate(77.487468 0)scale(0.996264)" xlink:href="#CMR17-49"/>
      </g>
     </g>
    </g>
    <g id="xtick_2">
     <g id="line2d_3">
      <path clip-path="url(#p7e7122920e)" d="M 164.930079 286.7 
L 164.930079 10.7 
" style="fill:none;stroke:#b0b0b0;stroke-linecap:square;stroke-width:0.8;"/>
     </g>
     <g id="line2d_4">
      <g>
       <use style="stroke:#000000;stroke-width:0.8;" x="164.930079" xlink:href="#m971c5e7acd" y="286.7"/>
      </g>
     </g>
     <g id="text_2">
      <!-- $0$ -->
      <defs>
       <path d="M 42 31.640625 
C 42 37.75 41.90625 48.125 37.703125 56.109375 
C 34 63.109375 28.09375 65.59375 22.90625 65.59375 
C 18.09375 65.59375 12 63.40625 8.203125 56.203125 
C 4.203125 48.71875 3.796875 39.4375 3.796875 31.640625 
C 3.796875 25.953125 3.90625 17.28125 7 9.671875 
C 11.296875 -0.609375 19 -2 22.90625 -2 
C 27.5 -2 34.5 -0.109375 38.59375 9.375 
C 41.59375 16.28125 42 24.359375 42 31.640625 
z
M 22.90625 -0.40625 
C 16.5 -0.40625 12.703125 5.078125 11.296875 12.6875 
C 10.203125 18.5625 10.203125 27.15625 10.203125 32.75 
C 10.203125 40.4375 10.203125 46.828125 11.5 52.921875 
C 13.40625 61.390625 19 64 22.90625 64 
C 27 64 32.296875 61.296875 34.203125 53.125 
C 35.5 47.4375 35.59375 40.734375 35.59375 32.75 
C 35.59375 26.25 35.59375 18.265625 34.40625 12.375 
C 32.296875 1.484375 26.40625 -0.40625 22.90625 -0.40625 
z
" id="CMR17-48"/>
      </defs>
      <g transform="translate(162.439411 300.618498)scale(0.1 -0.1)">
       <use transform="scale(0.996264)" xlink:href="#CMR17-48"/>
      </g>
     </g>
    </g>
    <g id="xtick_3">
     <g id="line2d_5">
      <path clip-path="url(#p7e7122920e)" d="M 290.384624 286.7 
L 290.384624 10.7 
" style="fill:none;stroke:#b0b0b0;stroke-linecap:square;stroke-width:0.8;"/>
     </g>
     <g id="line2d_6">
      <g>
       <use style="stroke:#000000;stroke-width:0.8;" x="290.384624" xlink:href="#m971c5e7acd" y="286.7"/>
      </g>
     </g>
     <g id="text_3">
      <!-- $1$ -->
      <g transform="translate(287.893957 300.618498)scale(0.1 -0.1)">
       <use transform="scale(0.996264)" xlink:href="#CMR17-49"/>
      </g>
     </g>
    </g>
   </g>
   <g id="matplotlib.axis_2">
    <g id="ytick_1">
     <g id="line2d_7">
      <path clip-path="url(#p7e7122920e)" d="M 26.930079 274.154545 
L 302.930079 274.154545 
" style="fill:none;stroke:#b0b0b0;stroke-linecap:square;stroke-width:0.8;"/>
     </g>
     <g id="line2d_8">
      <defs>
       <path d="M 0 0 
L -3.5 0 
" id="m97ff4bdc08" style="stroke:#000000;stroke-width:0.8;"/>
      </defs>
      <g>
       <use style="stroke:#000000;stroke-width:0.8;" x="26.930079" xlink:href="#m97ff4bdc08" y="274.154545"/>
      </g>
     </g>
     <g id="text_4">
      <!-- $-1$ -->
      <g transform="translate(7.2 277.613795)scale(0.1 -0.1)">
       <use transform="scale(0.996264)" xlink:href="#CMSY10-0"/>
       <use transform="translate(77.487468 0)scale(0.996264)" xlink:href="#CMR17-49"/>
      </g>
     </g>
    </g>
    <g id="ytick_2">
     <g id="line2d_9">
      <path clip-path="url(#p7e7122920e)" d="M 26.930079 148.7 
L 302.930079 148.7 
" style="fill:none;stroke:#b0b0b0;stroke-linecap:square;stroke-width:0.8;"/>
     </g>
     <g id="line2d_10">
      <g>
       <use style="stroke:#000000;stroke-width:0.8;" x="26.930079" xlink:href="#m97ff4bdc08" y="148.7"/>
      </g>
     </g>
     <g id="text_5">
      <!-- $0$ -->
      <g transform="translate(14.948744 152.159249)scale(0.1 -0.1)">
       <use transform="scale(0.996264)" xlink:href="#CMR17-48"/>
      </g>
     </g>
    </g>
    <g id="ytick_3">
     <g id="line2d_11">
      <path clip-path="url(#p7e7122920e)" d="M 26.930079 23.245455 
L 302.930079 23.245455 
" style="fill:none;stroke:#b0b0b0;stroke-linecap:square;stroke-width:0.8;"/>
     </g>
     <g id="line2d_12">
      <g>
       <use style="stroke:#000000;stroke-width:0.8;" x="26.930079" xlink:href="#m97ff4bdc08" y="23.245455"/>
      </g>
     </g>
     <g id="text_6">
      <!-- $1$ -->
      <g transform="translate(14.948744 26.704704)scale(0.1 -0.1)">
       <use transform="scale(0.996264)" xlink:href="#CMR17-49"/>
      </g>
     </g>
    </g>
   </g>
   <g id="patch_7">
    <path d="M 26.930079 286.7 
L 26.930079 10.7 
" style="fill:none;stroke:#000000;stroke-linecap:square;stroke-linejoin:miter;stroke-width:0.8;"/>
   </g>
   <g id="patch_8">
    <path d="M 302.930079 286.7 
L 302.930079 10.7 
" style="fill:none;stroke:#000000;stroke-linecap:square;stroke-linejoin:miter;stroke-width:0.8;"/>
   </g>
   <g id="patch_9">
    <path d="M 26.930079 286.7 
L 302.930079 286.7 
" style="fill:none;stroke:#000000;stroke-linecap:square;stroke-linejoin:miter;stroke-width:0.8;"/>
   </g>
   <g id="patch_10">
    <path d="M 26.930079 10.7 
L 302.930079 10.7 
" style="fill:none;stroke:#000000;stroke-linecap:square;stroke-linejoin:miter;stroke-width:0.8;"/>
   </g>
  </g>
 </g>
 <defs>
  <clipPath id="p7e7122920e">
   <rect height="276" width="276" x="26.930079" y="10.7"/>
  </clipPath>
 </defs>
</svg>
