<?xml version="1.0" encoding="utf-8" standalone="no"?>
<!DOCTYPE svg PUBLIC "-//W3C//DTD SVG 1.1//EN"
  "http://www.w3.org/Graphics/SVG/1.1/DTD/svg11.dtd">
<!-- Created with matplotlib (http://matplotlib.org/) -->
<svg height="243pt" version="1.1" viewBox="0 0 345 243" width="345pt" xmlns="http://www.w3.org/2000/svg" xmlns:xlink="http://www.w3.org/1999/xlink">
 <defs>
  <style type="text/css">
*{stroke-linecap:butt;stroke-linejoin:round;}
  </style>
 </defs>
 <g id="figure_1">
  <g id="patch_1">
   <path d="
M0 243.687
L345 243.687
L345 0
L0 0
z
" style="fill:#ffffff;"/>
  </g>
  <g id="axes_1">
   <g id="patch_2">
    <path d="
M34.5 194.95
L310.5 194.95
L310.5 24.3687
L34.5 24.3687
z
" style="fill:#ffffff;"/>
   </g>
   <g id="line2d_1">
    <path clip-path="url(#p75ad0bfdef)" d="
M34.5 194.344
L43.9091 194.241
L45.4773 194.847
L47.0455 193.368
L48.6136 193.939
L50.1818 194.253
L58.0227 194.344
L294.818 194.425
L296.386 193.988
L297.955 194.95
L301.091 194.386
L310.5 194.344
L310.5 194.344" style="fill:none;stroke:#000000;stroke-linecap:square;"/>
   </g>
   <g id="line2d_2">
    <path clip-path="url(#p75ad0bfdef)" d="
M34.5 188.877
L42.3409 188.86
L43.9091 189.034
L45.4773 188.459
L47.0455 190.281
L48.6136 189.845
L50.1818 189.12
L54.8864 188.886
L78.4091 188.874
L156.818 188.879
L221.114 188.874
L290.114 188.868
L294.818 188.642
L296.386 188.812
L297.955 187.327
L299.523 188.083
L301.091 188.608
L304.227 188.831
L310.5 188.877
L310.5 188.877" style="fill:none;stroke:#000000;stroke-linecap:square;"/>
   </g>
   <g id="line2d_3">
    <path clip-path="url(#p75ad0bfdef)" d="
M34.5 183.409
L42.3409 183.407
L45.4773 183.026
L47.0455 181.5
L48.6136 188.38
L50.1818 189.185
L51.75 179.861
L53.3182 177.097
L54.8864 185.496
L56.4545 190.278
L58.0227 182.987
L59.5909 176.443
L61.1591 182.151
L62.7273 190.071
L64.2955 186.273
L65.8636 177.437
L67.4318 179.105
L69 188.344
L70.5682 188.902
L72.1364 179.799
L73.7045 177.045
L75.2727 185.485
L76.8409 190.273
L78.4091 182.988
L79.9773 176.443
L81.5455 182.151
L83.1136 190.071
L84.6818 186.273
L86.25 177.437
L87.8182 179.105
L89.3864 188.344
L90.9545 188.902
L92.5227 179.799
L94.0909 177.045
L95.6591 185.485
L97.2273 190.273
L98.7955 182.988
L100.364 176.443
L101.932 182.151
L103.5 190.071
L105.068 186.273
L106.636 177.437
L108.205 179.105
L109.773 188.344
L111.341 188.902
L112.909 179.799
L114.477 177.045
L116.045 185.485
L117.614 190.273
L119.182 182.988
L120.75 176.443
L122.318 182.151
L123.886 190.071
L125.455 186.273
L127.023 177.437
L128.591 179.105
L130.159 188.344
L131.727 188.902
L133.295 179.799
L134.864 177.045
L136.432 185.485
L138 190.273
L139.568 182.988
L141.136 176.443
L142.705 182.151
L144.273 190.071
L145.841 186.273
L147.409 177.437
L148.977 179.105
L150.545 188.344
L152.114 188.902
L153.682 179.799
L155.25 177.045
L156.818 185.485
L158.386 190.273
L159.955 182.988
L161.523 176.443
L163.091 182.151
L164.659 190.071
L166.227 186.273
L167.795 177.437
L169.364 179.105
L170.932 188.344
L172.5 188.902
L174.068 179.799
L175.636 177.045
L177.205 185.485
L178.773 190.273
L180.341 182.988
L181.909 176.443
L183.477 182.151
L185.045 190.071
L186.614 186.273
L188.182 177.437
L189.75 179.105
L191.318 188.344
L192.886 188.902
L194.455 179.799
L196.023 177.045
L197.591 185.485
L199.159 190.273
L200.727 182.988
L202.295 176.443
L203.864 182.151
L205.432 190.071
L207 186.273
L208.568 177.437
L210.136 179.105
L211.705 188.344
L213.273 188.902
L214.841 179.799
L216.409 177.045
L217.977 185.485
L219.545 190.273
L221.114 182.988
L222.682 176.443
L224.25 182.151
L225.818 190.071
L227.386 186.273
L228.955 177.437
L230.523 179.105
L232.091 188.344
L233.659 188.902
L235.227 179.799
L236.795 177.045
L238.364 185.485
L239.932 190.273
L241.5 182.988
L243.068 176.443
L244.636 182.151
L246.205 190.071
L247.773 186.273
L249.341 177.437
L250.909 179.105
L252.477 188.344
L254.045 188.902
L255.614 179.799
L257.182 177.045
L258.75 185.485
L260.318 190.273
L261.886 182.988
L263.455 176.443
L265.023 182.151
L266.591 190.071
L268.159 186.273
L269.727 177.437
L271.295 179.105
L272.864 188.344
L274.432 188.902
L276 179.799
L277.568 177.045
L279.136 185.485
L280.705 190.273
L282.273 182.988
L283.841 176.443
L285.409 182.151
L286.977 190.072
L288.545 186.278
L290.114 177.435
L291.682 179.165
L293.25 188.341
L294.818 189.269
L296.386 179.96
L297.955 180.151
L299.523 183.401
L301.091 183.025
L302.659 183.374
L305.795 183.403
L310.5 183.409
L310.5 183.409" style="fill:none;stroke:#000000;stroke-linecap:square;"/>
   </g>
   <g id="line2d_4">
    <path clip-path="url(#p75ad0bfdef)" d="
M34.5 177.941
L42.3409 177.865
L43.9091 178.1
L45.4773 177.422
L47.0455 178.484
L48.6136 178.001
L112.909 177.941
L293.25 178.039
L294.818 177.726
L296.386 178.498
L297.955 176.741
L299.523 178.091
L301.091 177.771
L302.659 177.997
L304.227 177.896
L307.364 177.938
L310.5 177.941
L310.5 177.941" style="fill:none;stroke:#000000;stroke-linecap:square;"/>
   </g>
   <g id="line2d_5">
    <path clip-path="url(#p75ad0bfdef)" d="
M34.5 172.474
L45.4773 172.514
L48.6136 172.581
L51.75 172.493
L64.2955 172.474
L294.818 172.474
L296.386 172.675
L297.955 172.246
L299.523 172.23
L301.091 172.425
L310.5 172.474
L310.5 172.474" style="fill:none;stroke:#000000;stroke-linecap:square;"/>
   </g>
   <g id="line2d_6">
    <path clip-path="url(#p75ad0bfdef)" d="
M34.5 167.006
L294.818 167.02
L296.386 166.849
L297.955 167.19
L299.523 167.038
L310.5 167.006
L310.5 167.006" style="fill:none;stroke:#000000;stroke-linecap:square;"/>
   </g>
   <g id="line2d_7">
    <path clip-path="url(#p75ad0bfdef)" d="
M34.5 161.539
L43.9091 161.644
L45.4773 161.235
L47.0455 162.099
L48.6136 161.427
L50.1818 161.641
L51.75 161.509
L56.4545 161.547
L64.2955 161.534
L72.1364 161.539
L84.6818 161.534
L92.5227 161.539
L105.068 161.534
L112.909 161.539
L125.455 161.534
L133.295 161.539
L145.841 161.534
L153.682 161.539
L166.227 161.534
L174.068 161.539
L186.614 161.534
L194.455 161.539
L207 161.534
L214.841 161.539
L227.386 161.534
L235.227 161.539
L247.773 161.534
L255.614 161.539
L268.159 161.534
L276 161.539
L286.977 161.527
L296.386 161.534
L297.955 161.825
L299.523 161.425
L301.091 161.599
L304.227 161.541
L310.5 161.539
L310.5 161.539" style="fill:none;stroke:#000000;stroke-linecap:square;"/>
   </g>
   <g id="line2d_8">
    <path clip-path="url(#p75ad0bfdef)" d="
M34.5 156.071
L42.3409 156.089
L43.9091 155.945
L45.4773 156.099
L47.0455 155.013
L48.6136 157.643
L50.1818 157.173
L51.75 153.693
L53.3182 156.798
L54.8864 157.938
L56.4545 154.043
L58.0227 155.643
L59.5909 158.404
L61.1591 154.844
L62.7273 154.608
L64.2955 158.336
L65.8636 155.928
L67.4318 153.908
L69 157.748
L70.5682 157.045
L72.1364 153.703
L73.7045 156.777
L75.2727 157.938
L76.8409 154.041
L78.4091 155.643
L79.9773 158.404
L81.5455 154.844
L83.1136 154.608
L84.6818 158.336
L86.25 155.928
L87.8182 153.908
L89.3864 157.748
L90.9545 157.045
L92.5227 153.703
L94.0909 156.777
L95.6591 157.938
L97.2273 154.041
L98.7955 155.643
L100.364 158.404
L101.932 154.844
L103.5 154.608
L105.068 158.336
L106.636 155.928
L108.205 153.908
L109.773 157.748
L111.341 157.045
L112.909 153.703
L114.477 156.777
L116.045 157.938
L117.614 154.041
L119.182 155.643
L120.75 158.404
L122.318 154.844
L123.886 154.608
L125.455 158.336
L127.023 155.928
L128.591 153.908
L130.159 157.748
L131.727 157.045
L133.295 153.703
L134.864 156.777
L136.432 157.938
L138 154.041
L139.568 155.643
L141.136 158.404
L142.705 154.844
L144.273 154.608
L145.841 158.336
L147.409 155.928
L148.977 153.908
L150.545 157.748
L152.114 157.045
L153.682 153.703
L155.25 156.777
L156.818 157.938
L158.386 154.041
L159.955 155.643
L161.523 158.404
L163.091 154.844
L164.659 154.608
L166.227 158.336
L167.795 155.928
L169.364 153.908
L170.932 157.748
L172.5 157.045
L174.068 153.703
L175.636 156.777
L177.205 157.938
L178.773 154.041
L180.341 155.643
L181.909 158.404
L183.477 154.844
L185.045 154.608
L186.614 158.336
L188.182 155.928
L189.75 153.908
L191.318 157.748
L192.886 157.045
L194.455 153.703
L196.023 156.777
L197.591 157.938
L199.159 154.041
L200.727 155.643
L202.295 158.404
L203.864 154.844
L205.432 154.608
L207 158.336
L208.568 155.928
L210.136 153.908
L211.705 157.748
L213.273 157.045
L214.841 153.703
L216.409 156.777
L217.977 157.938
L219.545 154.041
L221.114 155.643
L222.682 158.404
L224.25 154.844
L225.818 154.608
L227.386 158.336
L228.955 155.928
L230.523 153.908
L232.091 157.748
L233.659 157.045
L235.227 153.703
L236.795 156.777
L238.364 157.938
L239.932 154.041
L241.5 155.643
L243.068 158.404
L244.636 154.844
L246.205 154.608
L247.773 158.336
L249.341 155.928
L250.909 153.908
L252.477 157.748
L254.045 157.045
L255.614 153.703
L257.182 156.777
L258.75 157.938
L260.318 154.041
L261.886 155.643
L263.455 158.404
L265.023 154.844
L266.591 154.608
L268.159 158.336
L269.727 155.928
L271.295 153.908
L272.864 157.748
L274.432 157.045
L276 153.703
L277.568 156.777
L279.136 157.938
L280.705 154.041
L282.273 155.643
L283.841 158.404
L285.409 154.844
L286.977 154.608
L288.545 158.334
L290.114 155.927
L291.682 153.892
L293.25 157.751
L294.818 156.969
L296.386 153.863
L297.955 156.01
L301.091 156.08
L307.364 156.071
L310.5 156.071
L310.5 156.071" style="fill:none;stroke:#000000;stroke-linecap:square;"/>
   </g>
   <g id="line2d_9">
    <path clip-path="url(#p75ad0bfdef)" d="
M34.5 150.603
L45.4773 150.664
L47.0455 150.911
L50.1818 150.663
L58.0227 150.604
L294.818 150.635
L296.386 150.929
L299.523 150.35
L301.091 150.588
L310.5 150.603
L310.5 150.603" style="fill:none;stroke:#000000;stroke-linecap:square;"/>
   </g>
   <g id="line2d_10">
    <path clip-path="url(#p75ad0bfdef)" d="
M34.5 145.136
L296.386 145.061
L297.955 145.513
L299.523 145.143
L304.227 145.147
L310.5 145.136
L310.5 145.136" style="fill:none;stroke:#000000;stroke-linecap:square;"/>
   </g>
   <g id="line2d_11">
    <path clip-path="url(#p75ad0bfdef)" d="
M34.5 139.668
L294.818 139.677
L296.386 139.512
L297.955 139.825
L305.795 139.669
L310.5 139.668
L310.5 139.668" style="fill:none;stroke:#000000;stroke-linecap:square;"/>
   </g>
   <g id="line2d_12">
    <path clip-path="url(#p75ad0bfdef)" d="
M34.5 134.201
L45.4773 134.291
L47.0455 134.082
L48.6136 134.012
L50.1818 134.192
L53.3182 134.247
L59.5909 134.186
L64.2955 134.226
L69 134.165
L73.7045 134.243
L79.9773 134.186
L84.6818 134.226
L89.3864 134.165
L94.0909 134.243
L100.364 134.186
L105.068 134.226
L109.773 134.165
L114.477 134.243
L120.75 134.186
L125.455 134.226
L130.159 134.165
L134.864 134.243
L141.136 134.186
L145.841 134.226
L150.545 134.165
L155.25 134.243
L161.523 134.186
L166.227 134.226
L170.932 134.165
L175.636 134.243
L181.909 134.186
L186.614 134.226
L191.318 134.165
L196.023 134.243
L202.295 134.186
L207 134.226
L211.705 134.165
L216.409 134.243
L222.682 134.186
L227.386 134.226
L232.091 134.165
L236.795 134.243
L243.068 134.186
L247.773 134.226
L252.477 134.165
L257.182 134.243
L263.455 134.186
L268.159 134.226
L272.864 134.165
L277.568 134.243
L283.841 134.186
L288.545 134.225
L293.25 134.189
L294.818 134.225
L296.386 134.471
L297.955 134.165
L310.5 134.201
L310.5 134.201" style="fill:none;stroke:#000000;stroke-linecap:square;"/>
   </g>
   <g id="line2d_13">
    <path clip-path="url(#p75ad0bfdef)" d="
M34.5 128.733
L45.4773 128.822
L47.0455 129.019
L48.6136 127.741
L50.1818 127.273
L51.75 128.119
L53.3182 129.497
L54.8864 130.209
L56.4545 129.646
L58.0227 128.293
L59.5909 127.32
L61.1591 127.568
L64.2955 129.999
L65.8636 130.083
L67.4318 129
L69 127.687
L70.5682 127.277
L72.1364 128.126
L73.7045 129.499
L75.2727 130.21
L76.8409 129.646
L78.4091 128.293
L79.9773 127.32
L81.5455 127.568
L84.6818 129.999
L86.25 130.083
L87.8182 129
L89.3864 127.687
L90.9545 127.277
L92.5227 128.126
L94.0909 129.499
L95.6591 130.21
L97.2273 129.646
L98.7955 128.293
L100.364 127.32
L101.932 127.568
L105.068 129.999
L106.636 130.083
L108.205 129
L109.773 127.687
L111.341 127.277
L112.909 128.126
L114.477 129.499
L116.045 130.21
L117.614 129.646
L119.182 128.293
L120.75 127.32
L122.318 127.568
L125.455 129.999
L127.023 130.083
L128.591 129
L130.159 127.687
L131.727 127.277
L133.295 128.126
L134.864 129.499
L136.432 130.21
L138 129.646
L139.568 128.293
L141.136 127.32
L142.705 127.568
L145.841 129.999
L147.409 130.083
L148.977 129
L150.545 127.687
L152.114 127.277
L153.682 128.126
L155.25 129.499
L156.818 130.21
L158.386 129.646
L159.955 128.293
L161.523 127.32
L163.091 127.568
L166.227 129.999
L167.795 130.083
L169.364 129
L170.932 127.687
L172.5 127.277
L174.068 128.126
L175.636 129.499
L177.205 130.21
L178.773 129.646
L180.341 128.293
L181.909 127.32
L183.477 127.568
L186.614 129.999
L188.182 130.083
L189.75 129
L191.318 127.687
L192.886 127.277
L194.455 128.126
L196.023 129.499
L197.591 130.21
L199.159 129.646
L200.727 128.293
L202.295 127.32
L203.864 127.568
L207 129.999
L208.568 130.083
L210.136 129
L211.705 127.687
L213.273 127.277
L214.841 128.126
L216.409 129.499
L217.977 130.21
L219.545 129.646
L221.114 128.293
L222.682 127.32
L224.25 127.568
L227.386 129.999
L228.955 130.083
L230.523 129
L232.091 127.687
L233.659 127.277
L235.227 128.126
L236.795 129.499
L238.364 130.21
L239.932 129.646
L241.5 128.293
L243.068 127.32
L244.636 127.568
L247.773 129.999
L249.341 130.083
L250.909 129
L252.477 127.687
L254.045 127.277
L255.614 128.126
L257.182 129.499
L258.75 130.21
L260.318 129.646
L261.886 128.293
L263.455 127.32
L265.023 127.568
L268.159 129.999
L269.727 130.083
L271.295 129
L272.864 127.687
L274.432 127.277
L276 128.126
L277.568 129.499
L279.136 130.21
L280.705 129.646
L282.273 128.293
L283.841 127.32
L285.409 127.568
L288.545 129.999
L290.114 130.082
L291.682 128.992
L293.25 127.696
L294.818 127.238
L296.386 128.293
L297.955 129.211
L299.523 128.684
L301.091 128.786
L304.227 128.741
L310.5 128.733
L310.5 128.733" style="fill:none;stroke:#000000;stroke-linecap:square;"/>
   </g>
   <g id="line2d_14">
    <path clip-path="url(#p75ad0bfdef)" d="
M34.5 123.265
L296.386 123.29
L297.955 123.645
L299.523 123.174
L301.091 123.318
L304.227 123.276
L310.5 123.265
L310.5 123.265" style="fill:none;stroke:#000000;stroke-linecap:square;"/>
   </g>
   <g id="line2d_15">
    <path clip-path="url(#p75ad0bfdef)" d="
M34.5 117.798
L294.818 117.794
L296.386 117.626
L299.523 117.927
L301.091 117.799
L310.5 117.798
L310.5 117.798" style="fill:none;stroke:#000000;stroke-linecap:square;"/>
   </g>
   <g id="line2d_16">
    <path clip-path="url(#p75ad0bfdef)" d="
M34.5 112.33
L296.386 112.372
L297.955 112.05
L299.523 112.294
L310.5 112.33
L310.5 112.33" style="fill:none;stroke:#000000;stroke-linecap:square;"/>
   </g>
   <g id="line2d_17">
    <path clip-path="url(#p75ad0bfdef)" d="
M34.5 106.863
L43.9091 106.794
L45.4773 107.021
L47.0455 106.451
L48.6136 107.111
L50.1818 106.669
L51.75 106.986
L53.3182 106.831
L54.8864 106.799
L56.4545 106.983
L58.0227 106.747
L59.5909 106.915
L61.1591 106.9
L62.7273 106.754
L64.2955 106.987
L65.8636 106.784
L69 106.952
L70.5682 106.736
L72.1364 106.963
L75.2727 106.797
L76.8409 106.984
L78.4091 106.747
L79.9773 106.915
L81.5455 106.9
L83.1136 106.754
L84.6818 106.987
L86.25 106.784
L89.3864 106.952
L90.9545 106.736
L92.5227 106.963
L95.6591 106.797
L97.2273 106.984
L98.7955 106.747
L100.364 106.915
L101.932 106.9
L103.5 106.754
L105.068 106.987
L106.636 106.784
L109.773 106.952
L111.341 106.736
L112.909 106.963
L116.045 106.797
L117.614 106.984
L119.182 106.747
L120.75 106.915
L122.318 106.9
L123.886 106.754
L125.455 106.987
L127.023 106.784
L130.159 106.952
L131.727 106.736
L133.295 106.963
L136.432 106.797
L138 106.984
L139.568 106.747
L141.136 106.915
L142.705 106.9
L144.273 106.754
L145.841 106.987
L147.409 106.784
L150.545 106.952
L152.114 106.736
L153.682 106.963
L156.818 106.797
L158.386 106.984
L159.955 106.747
L161.523 106.915
L163.091 106.9
L164.659 106.754
L166.227 106.987
L167.795 106.784
L170.932 106.952
L172.5 106.736
L174.068 106.963
L177.205 106.797
L178.773 106.984
L180.341 106.747
L181.909 106.915
L183.477 106.9
L185.045 106.754
L186.614 106.987
L188.182 106.784
L191.318 106.952
L192.886 106.736
L194.455 106.963
L197.591 106.797
L199.159 106.984
L200.727 106.747
L202.295 106.915
L203.864 106.9
L205.432 106.754
L207 106.987
L208.568 106.784
L211.705 106.952
L213.273 106.736
L214.841 106.963
L217.977 106.797
L219.545 106.984
L221.114 106.747
L222.682 106.915
L224.25 106.9
L225.818 106.754
L227.386 106.987
L228.955 106.784
L232.091 106.952
L233.659 106.736
L235.227 106.963
L238.364 106.797
L239.932 106.984
L241.5 106.747
L243.068 106.915
L244.636 106.9
L246.205 106.754
L247.773 106.987
L249.341 106.784
L252.477 106.952
L254.045 106.736
L255.614 106.963
L258.75 106.797
L260.318 106.984
L261.886 106.747
L263.455 106.915
L265.023 106.9
L266.591 106.754
L268.159 106.987
L269.727 106.784
L272.864 106.952
L274.432 106.736
L276 106.963
L279.136 106.797
L280.705 106.984
L282.273 106.747
L283.841 106.915
L285.409 106.9
L286.977 106.754
L288.545 106.987
L290.114 106.787
L293.25 106.992
L294.818 106.673
L296.386 107.25
L297.955 106.453
L299.523 106.882
L301.091 106.793
L304.227 106.852
L310.5 106.863
L310.5 106.863" style="fill:none;stroke:#000000;stroke-linecap:square;"/>
   </g>
   <g id="line2d_18">
    <path clip-path="url(#p75ad0bfdef)" d="
M34.5 101.395
L45.4773 101.33
L47.0455 101.973
L48.6136 100.661
L51.75 102.098
L53.3182 100.285
L54.8864 102.352
L56.4545 101.062
L58.0227 100.937
L59.5909 102.413
L61.1591 100.329
L62.7273 101.973
L64.2955 101.596
L65.8636 100.516
L67.4318 102.51
L69 100.606
L70.5682 101.463
L72.1364 102.084
L73.7045 100.297
L75.2727 102.351
L76.8409 101.063
L78.4091 100.937
L79.9773 102.413
L81.5455 100.329
L83.1136 101.973
L84.6818 101.596
L86.25 100.516
L87.8182 102.51
L89.3864 100.606
L90.9545 101.463
L92.5227 102.084
L94.0909 100.297
L95.6591 102.351
L97.2273 101.063
L98.7955 100.937
L100.364 102.413
L101.932 100.329
L103.5 101.973
L105.068 101.596
L106.636 100.516
L108.205 102.51
L109.773 100.606
L111.341 101.463
L112.909 102.084
L114.477 100.297
L116.045 102.351
L117.614 101.063
L119.182 100.937
L120.75 102.413
L122.318 100.329
L123.886 101.973
L125.455 101.596
L127.023 100.516
L128.591 102.51
L130.159 100.606
L131.727 101.463
L133.295 102.084
L134.864 100.297
L136.432 102.351
L138 101.063
L139.568 100.937
L141.136 102.413
L142.705 100.329
L144.273 101.973
L145.841 101.596
L147.409 100.516
L148.977 102.51
L150.545 100.606
L152.114 101.463
L153.682 102.084
L155.25 100.297
L156.818 102.351
L158.386 101.063
L159.955 100.937
L161.523 102.413
L163.091 100.329
L164.659 101.973
L166.227 101.596
L167.795 100.516
L169.364 102.51
L170.932 100.606
L172.5 101.463
L174.068 102.084
L175.636 100.297
L177.205 102.351
L178.773 101.063
L180.341 100.937
L181.909 102.413
L183.477 100.329
L185.045 101.973
L186.614 101.596
L188.182 100.516
L189.75 102.51
L191.318 100.606
L192.886 101.463
L194.455 102.084
L196.023 100.297
L197.591 102.351
L199.159 101.063
L200.727 100.937
L202.295 102.413
L203.864 100.329
L205.432 101.973
L207 101.596
L208.568 100.516
L210.136 102.51
L211.705 100.606
L213.273 101.463
L214.841 102.084
L216.409 100.297
L217.977 102.351
L219.545 101.063
L221.114 100.937
L222.682 102.413
L224.25 100.329
L225.818 101.973
L227.386 101.596
L228.955 100.516
L230.523 102.51
L232.091 100.606
L233.659 101.463
L235.227 102.084
L236.795 100.297
L238.364 102.351
L239.932 101.063
L241.5 100.937
L243.068 102.413
L244.636 100.329
L246.205 101.973
L247.773 101.596
L249.341 100.516
L250.909 102.51
L252.477 100.606
L254.045 101.463
L255.614 102.084
L257.182 100.297
L258.75 102.351
L260.318 101.063
L261.886 100.937
L263.455 102.413
L265.023 100.329
L266.591 101.973
L268.159 101.596
L269.727 100.516
L271.295 102.51
L272.864 100.606
L274.432 101.463
L276 102.084
L277.568 100.297
L279.136 102.351
L280.705 101.063
L282.273 100.937
L283.841 102.413
L285.409 100.329
L286.977 101.973
L288.545 101.598
L290.114 100.514
L291.682 102.527
L293.25 100.592
L294.818 101.551
L296.386 102.041
L297.955 101.039
L299.523 101.458
L301.091 101.34
L304.227 101.389
L310.5 101.395
L310.5 101.395" style="fill:none;stroke:#000000;stroke-linecap:square;"/>
   </g>
   <g id="line2d_19">
    <path clip-path="url(#p75ad0bfdef)" d="
M34.5 95.9275
L45.4773 95.8759
L47.0455 95.7953
L50.1818 95.9092
L70.5682 95.9275
L294.818 95.908
L297.955 95.7729
L299.523 95.9848
L302.659 95.9323
L310.5 95.9275
L310.5 95.9275" style="fill:none;stroke:#000000;stroke-linecap:square;"/>
   </g>
   <g id="line2d_20">
    <path clip-path="url(#p75ad0bfdef)" d="
M34.5 90.4599
L296.386 90.4292
L297.955 90.2445
L299.523 90.4805
L304.227 90.4538
L310.5 90.4599
L310.5 90.4599" style="fill:none;stroke:#000000;stroke-linecap:square;"/>
   </g>
   <g id="line2d_21">
    <path clip-path="url(#p75ad0bfdef)" d="
M34.5 84.9923
L294.818 84.9867
L296.386 85.1313
L299.523 84.8869
L301.091 84.9939
L310.5 84.9923
L310.5 84.9923" style="fill:none;stroke:#000000;stroke-linecap:square;"/>
   </g>
   <g id="line2d_22">
    <path clip-path="url(#p75ad0bfdef)" d="
M34.5 79.5247
L47.0455 79.536
L48.6136 79.6943
L53.3182 79.36
L56.4545 79.2711
L59.5909 79.3936
L65.8636 79.7741
L69 79.704
L76.8409 79.2717
L79.9773 79.3936
L86.25 79.7741
L89.3864 79.704
L97.2273 79.2717
L100.364 79.3936
L106.636 79.7741
L109.773 79.704
L117.614 79.2717
L120.75 79.3936
L127.023 79.7741
L130.159 79.704
L138 79.2717
L141.136 79.3936
L147.409 79.7741
L150.545 79.704
L158.386 79.2717
L161.523 79.3936
L167.795 79.7741
L170.932 79.704
L178.773 79.2717
L181.909 79.3936
L188.182 79.7741
L191.318 79.704
L199.159 79.2717
L202.295 79.3936
L208.568 79.7741
L211.705 79.704
L219.545 79.2717
L222.682 79.3936
L228.955 79.7741
L232.091 79.704
L239.932 79.2717
L243.068 79.3936
L249.341 79.7741
L252.477 79.704
L260.318 79.2717
L263.455 79.3936
L269.727 79.7741
L272.864 79.704
L280.705 79.2717
L283.841 79.3936
L290.114 79.7757
L293.25 79.7239
L296.386 79.5876
L297.955 79.9274
L299.523 79.6441
L304.227 79.5313
L310.5 79.5247
L310.5 79.5247" style="fill:none;stroke:#000000;stroke-linecap:square;"/>
   </g>
   <g id="line2d_23">
    <path clip-path="url(#p75ad0bfdef)" d="
M34.5 74.0571
L47.0455 73.9756
L48.6136 74.6112
L50.1818 74.8888
L51.75 74.9493
L53.3182 74.7718
L56.4545 74.0014
L59.5909 73.2736
L61.1591 73.1433
L62.7273 73.2223
L64.2955 73.4925
L69 74.7045
L70.5682 74.9312
L72.1364 74.9577
L73.7045 74.7778
L76.8409 74.0019
L79.9773 73.2736
L81.5455 73.1433
L83.1136 73.2223
L84.6818 73.4925
L89.3864 74.7045
L90.9545 74.9312
L92.5227 74.9577
L94.0909 74.7778
L97.2273 74.0019
L100.364 73.2736
L101.932 73.1433
L103.5 73.2223
L105.068 73.4925
L109.773 74.7045
L111.341 74.9312
L112.909 74.9577
L114.477 74.7778
L117.614 74.0019
L120.75 73.2736
L122.318 73.1433
L123.886 73.2223
L125.455 73.4925
L130.159 74.7045
L131.727 74.9312
L133.295 74.9577
L134.864 74.7778
L138 74.0019
L141.136 73.2736
L142.705 73.1433
L144.273 73.2223
L145.841 73.4925
L150.545 74.7045
L152.114 74.9312
L153.682 74.9577
L155.25 74.7778
L158.386 74.0019
L161.523 73.2736
L163.091 73.1433
L164.659 73.2223
L166.227 73.4925
L170.932 74.7045
L172.5 74.9312
L174.068 74.9577
L175.636 74.7778
L178.773 74.0019
L181.909 73.2736
L183.477 73.1433
L185.045 73.2223
L186.614 73.4925
L191.318 74.7045
L192.886 74.9312
L194.455 74.9577
L196.023 74.7778
L199.159 74.0019
L202.295 73.2736
L203.864 73.1433
L205.432 73.2223
L207 73.4925
L211.705 74.7045
L213.273 74.9312
L214.841 74.9577
L216.409 74.7778
L219.545 74.0019
L222.682 73.2736
L224.25 73.1433
L225.818 73.2223
L227.386 73.4925
L232.091 74.7045
L233.659 74.9312
L235.227 74.9577
L236.795 74.7778
L239.932 74.0019
L243.068 73.2736
L244.636 73.1433
L246.205 73.2223
L247.773 73.4925
L252.477 74.7045
L254.045 74.9312
L255.614 74.9577
L257.182 74.7778
L260.318 74.0019
L263.455 73.2736
L265.023 73.1433
L266.591 73.2223
L268.159 73.4925
L272.864 74.7045
L274.432 74.9312
L276 74.9577
L277.568 74.7778
L280.705 74.0019
L283.841 73.2736
L285.409 73.1433
L286.977 73.2222
L288.545 73.4916
L293.25 74.6803
L294.818 74.8621
L296.386 74.7854
L297.955 74.2397
L301.091 74.0885
L310.5 74.0571
L310.5 74.0571" style="fill:none;stroke:#000000;stroke-linecap:square;"/>
   </g>
   <g id="line2d_24">
    <path clip-path="url(#p75ad0bfdef)" d="
M34.5 68.5895
L310.5 68.5895
L310.5 68.5895" style="fill:none;stroke:#000000;stroke-linecap:square;"/>
   </g>
   <g id="line2d_25">
    <path clip-path="url(#p75ad0bfdef)" d="
M34.5 63.1219
L310.5 63.1219
L310.5 63.1219" style="fill:none;stroke:#000000;stroke-linecap:square;"/>
   </g>
   <g id="line2d_26">
    <path clip-path="url(#p75ad0bfdef)" d="
M34.5 57.6543
L296.386 57.6962
L297.955 57.8335
L299.523 57.6522
L307.364 57.6549
L310.5 57.6543
L310.5 57.6543" style="fill:none;stroke:#000000;stroke-linecap:square;"/>
   </g>
   <g id="line2d_27">
    <path clip-path="url(#p75ad0bfdef)" d="
M34.5 52.1868
L43.9091 52.2501
L45.4773 52.0631
L47.0455 52.6202
L48.6136 51.7734
L50.1818 52.5732
L51.75 51.7775
L53.3182 52.6065
L54.8864 51.7747
L56.4545 52.5687
L58.0227 51.8571
L59.5909 52.445
L61.1591 52.0149
L62.7273 52.2623
L65.8636 52.0622
L67.4318 52.4034
L69 51.8907
L70.5682 52.5451
L72.1364 51.787
L73.7045 52.6047
L75.2727 51.7749
L76.8409 52.5686
L78.4091 51.8571
L79.9773 52.445
L81.5455 52.0149
L83.1136 52.2623
L86.25 52.0622
L87.8182 52.4034
L89.3864 51.8907
L90.9545 52.5451
L92.5227 51.787
L94.0909 52.6047
L95.6591 51.7749
L97.2273 52.5686
L98.7955 51.8571
L100.364 52.445
L101.932 52.0149
L103.5 52.2623
L106.636 52.0622
L108.205 52.4034
L109.773 51.8907
L111.341 52.5451
L112.909 51.787
L114.477 52.6047
L116.045 51.7749
L117.614 52.5686
L119.182 51.8571
L120.75 52.445
L122.318 52.0149
L123.886 52.2623
L127.023 52.0622
L128.591 52.4034
L130.159 51.8907
L131.727 52.5451
L133.295 51.787
L134.864 52.6047
L136.432 51.7749
L138 52.5686
L139.568 51.8571
L141.136 52.445
L142.705 52.0149
L144.273 52.2623
L147.409 52.0622
L148.977 52.4034
L150.545 51.8907
L152.114 52.5451
L153.682 51.787
L155.25 52.6047
L156.818 51.7749
L158.386 52.5686
L159.955 51.8571
L161.523 52.445
L163.091 52.0149
L164.659 52.2623
L167.795 52.0622
L169.364 52.4034
L170.932 51.8907
L172.5 52.5451
L174.068 51.787
L175.636 52.6047
L177.205 51.7749
L178.773 52.5686
L180.341 51.8571
L181.909 52.445
L183.477 52.0149
L185.045 52.2623
L188.182 52.0622
L189.75 52.4034
L191.318 51.8907
L192.886 52.5451
L194.455 51.787
L196.023 52.6047
L197.591 51.7749
L199.159 52.5686
L200.727 51.8571
L202.295 52.445
L203.864 52.0149
L205.432 52.2623
L208.568 52.0622
L210.136 52.4034
L211.705 51.8907
L213.273 52.5451
L214.841 51.787
L216.409 52.6047
L217.977 51.7749
L219.545 52.5686
L221.114 51.8571
L222.682 52.445
L224.25 52.0149
L225.818 52.2623
L228.955 52.0622
L230.523 52.4034
L232.091 51.8907
L233.659 52.5451
L235.227 51.787
L236.795 52.6047
L238.364 51.7749
L239.932 52.5686
L241.5 51.8571
L243.068 52.445
L244.636 52.0149
L246.205 52.2623
L249.341 52.0622
L250.909 52.4034
L252.477 51.8907
L254.045 52.5451
L255.614 51.787
L257.182 52.6047
L258.75 51.7749
L260.318 52.5686
L261.886 51.8571
L263.455 52.445
L265.023 52.0149
L266.591 52.2623
L269.727 52.0622
L271.295 52.4034
L272.864 51.8907
L274.432 52.5451
L276 51.787
L277.568 52.6047
L279.136 51.7749
L280.705 52.5686
L282.273 51.8571
L283.841 52.445
L285.409 52.0149
L286.977 52.2622
L290.114 52.0627
L291.682 52.3948
L293.25 51.8931
L294.818 52.5039
L296.386 51.7478
L297.955 52.3436
L301.091 52.2161
L307.364 52.1871
L310.5 52.1868
L310.5 52.1868" style="fill:none;stroke:#000000;stroke-linecap:square;"/>
   </g>
   <g id="line2d_28">
    <path clip-path="url(#p75ad0bfdef)" d="
M34.5 46.7192
L45.4773 46.8161
L47.0455 46.2411
L48.6136 47.2655
L50.1818 46.3546
L51.75 46.9383
L53.3182 46.6788
L54.8864 46.5815
L56.4545 47.0308
L58.0227 46.2515
L59.5909 47.3162
L61.1591 46.0276
L62.7273 47.4651
L64.2955 45.9622
L65.8636 47.4432
L67.4318 46.0701
L69 47.2554
L70.5682 46.3268
L72.1364 46.9448
L73.7045 46.6734
L75.2727 46.5825
L76.8409 47.0304
L78.4091 46.2515
L79.9773 47.3162
L81.5455 46.0276
L83.1136 47.4651
L84.6818 45.9622
L86.25 47.4432
L87.8182 46.0701
L89.3864 47.2554
L90.9545 46.3268
L92.5227 46.9448
L94.0909 46.6734
L95.6591 46.5825
L97.2273 47.0304
L98.7955 46.2515
L100.364 47.3162
L101.932 46.0276
L103.5 47.4651
L105.068 45.9622
L106.636 47.4432
L108.205 46.0701
L109.773 47.2554
L111.341 46.3268
L112.909 46.9448
L114.477 46.6734
L116.045 46.5825
L117.614 47.0304
L119.182 46.2515
L120.75 47.3162
L122.318 46.0276
L123.886 47.4651
L125.455 45.9622
L127.023 47.4432
L128.591 46.0701
L130.159 47.2554
L131.727 46.3268
L133.295 46.9448
L134.864 46.6734
L136.432 46.5825
L138 47.0304
L139.568 46.2515
L141.136 47.3162
L142.705 46.0276
L144.273 47.4651
L145.841 45.9622
L147.409 47.4432
L148.977 46.0701
L150.545 47.2554
L152.114 46.3268
L153.682 46.9448
L155.25 46.6734
L156.818 46.5825
L158.386 47.0304
L159.955 46.2515
L161.523 47.3162
L163.091 46.0276
L164.659 47.4651
L166.227 45.9622
L167.795 47.4432
L169.364 46.0701
L170.932 47.2554
L172.5 46.3268
L174.068 46.9448
L175.636 46.6734
L177.205 46.5825
L178.773 47.0304
L180.341 46.2515
L181.909 47.3162
L183.477 46.0276
L185.045 47.4651
L186.614 45.9622
L188.182 47.4432
L189.75 46.0701
L191.318 47.2554
L192.886 46.3268
L194.455 46.9448
L196.023 46.6734
L197.591 46.5825
L199.159 47.0304
L200.727 46.2515
L202.295 47.3162
L203.864 46.0276
L205.432 47.4651
L207 45.9622
L208.568 47.4432
L210.136 46.0701
L211.705 47.2554
L213.273 46.3268
L214.841 46.9448
L216.409 46.6734
L217.977 46.5825
L219.545 47.0304
L221.114 46.2515
L222.682 47.3162
L224.25 46.0276
L225.818 47.4651
L227.386 45.9622
L228.955 47.4432
L230.523 46.0701
L232.091 47.2554
L233.659 46.3268
L235.227 46.9448
L236.795 46.6734
L238.364 46.5825
L239.932 47.0304
L241.5 46.2515
L243.068 47.3162
L244.636 46.0276
L246.205 47.4651
L247.773 45.9622
L249.341 47.4432
L250.909 46.0701
L252.477 47.2554
L254.045 46.3268
L255.614 46.9448
L257.182 46.6734
L258.75 46.5825
L260.318 47.0304
L261.886 46.2515
L263.455 47.3162
L265.023 46.0276
L266.591 47.4651
L268.159 45.9622
L269.727 47.4432
L271.295 46.0701
L272.864 47.2554
L274.432 46.3268
L276 46.9448
L277.568 46.6734
L279.136 46.5825
L280.705 47.0304
L282.273 46.2515
L283.841 47.3162
L285.409 46.0276
L286.977 47.4651
L288.545 45.9623
L290.114 47.4428
L291.682 46.0728
L293.25 47.2449
L294.818 46.3585
L296.386 46.8316
L297.955 46.9059
L299.523 46.6353
L301.091 46.7437
L307.364 46.7192
L310.5 46.7192
L310.5 46.7192" style="fill:none;stroke:#000000;stroke-linecap:square;"/>
   </g>
   <g id="line2d_29">
    <path clip-path="url(#p75ad0bfdef)" d="
M34.5 41.2516
L310.5 41.2516
L310.5 41.2516" style="fill:none;stroke:#000000;stroke-linecap:square;"/>
   </g>
   <g id="line2d_30">
    <path clip-path="url(#p75ad0bfdef)" d="
M34.5 35.784
L310.5 35.784
L310.5 35.784" style="fill:none;stroke:#000000;stroke-linecap:square;"/>
   </g>
   <g id="line2d_31">
    <path clip-path="url(#p75ad0bfdef)" d="
M34.5 30.3164
L310.5 30.3164
L310.5 30.3164" style="fill:none;stroke:#000000;stroke-linecap:square;"/>
   </g>
   <g id="line2d_32">
    <path clip-path="url(#p75ad0bfdef)" d="
M34.5 24.8488
L47.0455 24.8721
L48.6136 24.5334
L56.4545 24.4288
L297.955 24.3782
L299.523 24.739
L307.364 24.8481
L310.5 24.8488
L310.5 24.8488" style="fill:none;stroke:#000000;stroke-linecap:square;"/>
   </g>
   <g id="matplotlib.axis_1">
    <g id="xtick_1">
     <g id="line2d_33">
      <defs>
       <path d="
M0 0
L0 -4" id="m93b0483c22" style="stroke:#000000;stroke-width:0.5;"/>
      </defs>
      <g>
       <use style="stroke:#000000;stroke-width:0.5;" x="34.5" xlink:href="#m93b0483c22" y="194.949673318"/>
      </g>
     </g>
     <g id="line2d_34">
      <defs>
       <path d="
M0 0
L0 4" id="m741efc42ff" style="stroke:#000000;stroke-width:0.5;"/>
      </defs>
      <g>
       <use style="stroke:#000000;stroke-width:0.5;" x="34.5" xlink:href="#m741efc42ff" y="24.3687091648"/>
      </g>
     </g>
     <g id="text_1">
      <!-- $0$ -->
      <defs>
       <path d="
M42 31.6406
C42 37.75 41.9062 48.125 37.7031 56.1094
C34 63.1094 28.0938 65.5938 22.9062 65.5938
C18.0938 65.5938 12 63.4062 8.20312 56.2031
C4.20312 48.7188 3.79688 39.4375 3.79688 31.6406
C3.79688 25.9531 3.90625 17.2812 7 9.67188
C11.2969 -0.609375 19 -2 22.9062 -2
C27.5 -2 34.5 -0.109375 38.5938 9.375
C41.5938 16.2812 42 24.3594 42 31.6406
M22.9062 -0.40625
C16.5 -0.40625 12.7031 5.07812 11.2969 12.6875
C10.2031 18.5625 10.2031 27.1562 10.2031 32.75
C10.2031 40.4375 10.2031 46.8281 11.5 52.9219
C13.4062 61.3906 19 64 22.9062 64
C27 64 32.2969 61.2969 34.2031 53.125
C35.5 47.4375 35.5938 40.7344 35.5938 32.75
C35.5938 26.25 35.5938 18.2656 34.4062 12.375
C32.2969 1.48438 26.4062 -0.40625 22.9062 -0.40625" id="CMR17-48"/>
      </defs>
      <g transform="translate(32.0093323742 205.868171698)scale(0.1 -0.1)">
       <use transform="scale(0.996264009963)" xlink:href="#CMR17-48"/>
      </g>
     </g>
    </g>
    <g id="xtick_2">
     <g id="line2d_35">
      <g>
       <use style="stroke:#000000;stroke-width:0.5;" x="65.8636363636" xlink:href="#m93b0483c22" y="194.949673318"/>
      </g>
     </g>
     <g id="line2d_36">
      <g>
       <use style="stroke:#000000;stroke-width:0.5;" x="65.8636363636" xlink:href="#m741efc42ff" y="24.3687091648"/>
      </g>
     </g>
     <g id="text_2">
      <!-- $20$ -->
      <defs>
       <path d="
M41.7031 15.4531
L39.9062 15.4531
C38.9062 8.375 38.0938 7.17188 37.7031 6.5625
C37.2031 5.76562 30 5.76562 28.5938 5.76562
L9.40625 5.76562
C13 9.67188 20 16.75 28.5 24.9531
C34.5938 30.7344 41.7031 37.5312 41.7031 47.4219
C41.7031 59.2188 32.2969 66 21.7969 66
C10.7969 66 4.09375 56.3125 4.09375 47.3438
C4.09375 43.4375 7 42.9375 8.20312 42.9375
C9.20312 42.9375 12.2031 43.5469 12.2031 47.0312
C12.2031 50.1094 9.59375 51 8.20312 51
C7.59375 51 7 50.9062 6.59375 50.7031
C8.5 59.2188 14.2969 63.4062 20.4062 63.4062
C29.0938 63.4062 34.7969 56.5156 34.7969 47.4219
C34.7969 38.7344 29.7031 31.25 24 24.75
L4.09375 2.28125
L4.09375 0
L39.2969 0
z
" id="CMR17-50"/>
      </defs>
      <g transform="translate(60.882301112 205.868171698)scale(0.1 -0.1)">
       <use transform="scale(0.996264009963)" xlink:href="#CMR17-50"/>
       <use transform="translate(45.6904771171 0.0)scale(0.996264009963)" xlink:href="#CMR17-48"/>
      </g>
     </g>
    </g>
    <g id="xtick_3">
     <g id="line2d_37">
      <g>
       <use style="stroke:#000000;stroke-width:0.5;" x="97.2272727273" xlink:href="#m93b0483c22" y="194.949673318"/>
      </g>
     </g>
     <g id="line2d_38">
      <g>
       <use style="stroke:#000000;stroke-width:0.5;" x="97.2272727273" xlink:href="#m741efc42ff" y="24.3687091648"/>
      </g>
     </g>
     <g id="text_3">
      <!-- $40$ -->
      <defs>
       <path d="
M33.5938 64.3281
C33.5938 66.4062 33.5 66.5 31.7031 66.5
L2 19.5938
L2 17
L27.7969 17
L27.7969 7.14062
C27.7969 3.5 27.5938 2.5 20.5938 2.5
L18.7031 2.5
L18.7031 0
C21.9062 0 27.2969 0 30.7031 0
C34.0938 0 39.5 0 42.7031 0
L42.7031 2.5
L40.7969 2.5
C33.7969 2.5 33.5938 3.5 33.5938 7.14062
L33.5938 17
L43.7969 17
L43.7969 19.5938
L33.5938 19.5938
z

M28.0938 57.7656
L28.0938 19.5938
L4 19.5938
z
" id="CMR17-52"/>
      </defs>
      <g transform="translate(92.2459374757 205.868171698)scale(0.1 -0.1)">
       <use transform="scale(0.996264009963)" xlink:href="#CMR17-52"/>
       <use transform="translate(45.6904771171 0.0)scale(0.996264009963)" xlink:href="#CMR17-48"/>
      </g>
     </g>
    </g>
    <g id="xtick_4">
     <g id="line2d_39">
      <g>
       <use style="stroke:#000000;stroke-width:0.5;" x="128.590909091" xlink:href="#m93b0483c22" y="194.949673318"/>
      </g>
     </g>
     <g id="line2d_40">
      <g>
       <use style="stroke:#000000;stroke-width:0.5;" x="128.590909091" xlink:href="#m741efc42ff" y="24.3687091648"/>
      </g>
     </g>
     <g id="text_4">
      <!-- $60$ -->
      <defs>
       <path d="
M10.5938 34
C10.5938 57.6562 21.7969 63 28.2969 63
C30.4062 63 35.5 62.6406 37.5 59
C35.9062 59 32.9062 59 32.9062 55.5156
C32.9062 52.8281 35.0938 51.9219 36.5 51.9219
C37.4062 51.9219 40.0938 52.3125 40.0938 55.625
C40.0938 61.7812 35.0938 65.2969 28.2031 65.2969
C16.2969 65.2969 3.79688 52.9688 3.79688 31
C3.79688 3.95312 15.0938 -2 23.0938 -2
C32.7969 -2 42 6.67188 42 20.0469
C42 32.5156 33.9062 41.5938 23.7031 41.5938
C17.5938 41.5938 13.0938 37.6094 10.5938 30.625
z

M23.0938 0.390625
C10.7969 0.390625 10.7969 18.75 10.7969 22.4375
C10.7969 29.625 14.2031 40 23.5 40
C25.2031 40 30.0938 40 33.4062 33.125
C35.2031 29.2188 35.2031 25.1406 35.2031 20.1406
C35.2031 14.75 35.2031 10.7812 33.0938 6.78125
C30.9062 2.67188 27.7031 0.390625 23.0938 0.390625" id="CMR17-54"/>
      </defs>
      <g transform="translate(123.609573839 205.868171698)scale(0.1 -0.1)">
       <use transform="scale(0.996264009963)" xlink:href="#CMR17-54"/>
       <use transform="translate(45.6904771171 0.0)scale(0.996264009963)" xlink:href="#CMR17-48"/>
      </g>
     </g>
    </g>
    <g id="xtick_5">
     <g id="line2d_41">
      <g>
       <use style="stroke:#000000;stroke-width:0.5;" x="159.954545455" xlink:href="#m93b0483c22" y="194.949673318"/>
      </g>
     </g>
     <g id="line2d_42">
      <g>
       <use style="stroke:#000000;stroke-width:0.5;" x="159.954545455" xlink:href="#m741efc42ff" y="24.3687091648"/>
      </g>
     </g>
     <g id="text_5">
      <!-- $80$ -->
      <defs>
       <path d="
M27.2031 35.375
C33.5 38.5625 39.9062 43.3281 39.9062 50.9844
C39.9062 60.0312 31.0938 65.2969 23 65.2969
C13.9062 65.2969 5.90625 58.7344 5.90625 49.6875
C5.90625 47.2031 6.5 42.9219 10.4062 39.1406
C11.4062 38.1562 15.5938 35.1719 18.2969 33.2812
C13.7969 30.9844 3.29688 25.5312 3.29688 14.5938
C3.29688 4.35938 13.0938 -2 22.7969 -2
C33.5 -2 42.5 5.65625 42.5 15.7969
C42.5 24.8438 36.4062 29.0312 32.4062 31.7031
z

M14.0938 44.125
C13.2969 44.625 9.29688 47.7031 9.29688 52.375
C9.29688 58.4375 15.5938 63 22.7969 63
C30.7031 63 36.5 57.4531 36.5 50.9844
C36.5 41.7344 26.0938 36.4688 25.5938 36.4688
C25.5 36.4688 25.4062 36.4688 24.5938 37.0781
z

M32.5 23.7344
C34 22.6406 38.7969 19.375 38.7969 13.2969
C38.7969 5.95312 31.4062 0.390625 23 0.390625
C13.9062 0.390625 7 6.84375 7 14.6875
C7 22.5469 13.0938 29.0938 20 32.1875
z
" id="CMR17-56"/>
      </defs>
      <g transform="translate(154.973210203 205.868171698)scale(0.1 -0.1)">
       <use transform="scale(0.996264009963)" xlink:href="#CMR17-56"/>
       <use transform="translate(45.6904771171 0.0)scale(0.996264009963)" xlink:href="#CMR17-48"/>
      </g>
     </g>
    </g>
    <g id="xtick_6">
     <g id="line2d_43">
      <g>
       <use style="stroke:#000000;stroke-width:0.5;" x="191.318181818" xlink:href="#m93b0483c22" y="194.949673318"/>
      </g>
     </g>
     <g id="line2d_44">
      <g>
       <use style="stroke:#000000;stroke-width:0.5;" x="191.318181818" xlink:href="#m741efc42ff" y="24.3687091648"/>
      </g>
     </g>
     <g id="text_6">
      <!-- $100$ -->
      <defs>
       <path d="
M26.5938 63.3125
C26.5938 65.4062 26.5 65.5 25.0938 65.5
C21.2031 61.1875 15.2969 59.7969 9.70312 59.7969
C9.40625 59.7969 8.90625 59.7969 8.79688 59.6094
C8.70312 59.3906 8.70312 59.1719 8.70312 57
C11.7969 57 17 57.5938 21 59.9844
L21 7.20312
C21 3.6875 20.7969 2.5 12.2031 2.5
L9.20312 2.5
L9.20312 0
C14 0 19 0 23.7969 0
C28.5938 0 33.5938 0 38.4062 0
L38.4062 2.5
L35.4062 2.5
C26.7969 2.5 26.5938 3.59375 26.5938 7.15625
z
" id="CMR17-49"/>
      </defs>
      <g transform="translate(183.846178941 205.868171698)scale(0.1 -0.1)">
       <use transform="scale(0.996264009963)" xlink:href="#CMR17-49"/>
       <use transform="translate(45.6904771171 0.0)scale(0.996264009963)" xlink:href="#CMR17-48"/>
       <use transform="translate(91.3809542341 0.0)scale(0.996264009963)" xlink:href="#CMR17-48"/>
      </g>
     </g>
    </g>
    <g id="xtick_7">
     <g id="line2d_45">
      <g>
       <use style="stroke:#000000;stroke-width:0.5;" x="222.681818182" xlink:href="#m93b0483c22" y="194.949673318"/>
      </g>
     </g>
     <g id="line2d_46">
      <g>
       <use style="stroke:#000000;stroke-width:0.5;" x="222.681818182" xlink:href="#m741efc42ff" y="24.3687091648"/>
      </g>
     </g>
     <g id="text_7">
      <!-- $120$ -->
      <g transform="translate(215.209815304 205.868171698)scale(0.1 -0.1)">
       <use transform="scale(0.996264009963)" xlink:href="#CMR17-49"/>
       <use transform="translate(45.6904771171 0.0)scale(0.996264009963)" xlink:href="#CMR17-50"/>
       <use transform="translate(91.3809542341 0.0)scale(0.996264009963)" xlink:href="#CMR17-48"/>
      </g>
     </g>
    </g>
    <g id="xtick_8">
     <g id="line2d_47">
      <g>
       <use style="stroke:#000000;stroke-width:0.5;" x="254.045454545" xlink:href="#m93b0483c22" y="194.949673318"/>
      </g>
     </g>
     <g id="line2d_48">
      <g>
       <use style="stroke:#000000;stroke-width:0.5;" x="254.045454545" xlink:href="#m741efc42ff" y="24.3687091648"/>
      </g>
     </g>
     <g id="text_8">
      <!-- $140$ -->
      <g transform="translate(246.573451668 205.868171698)scale(0.1 -0.1)">
       <use transform="scale(0.996264009963)" xlink:href="#CMR17-49"/>
       <use transform="translate(45.6904771171 0.0)scale(0.996264009963)" xlink:href="#CMR17-52"/>
       <use transform="translate(91.3809542341 0.0)scale(0.996264009963)" xlink:href="#CMR17-48"/>
      </g>
     </g>
    </g>
    <g id="xtick_9">
     <g id="line2d_49">
      <g>
       <use style="stroke:#000000;stroke-width:0.5;" x="285.409090909" xlink:href="#m93b0483c22" y="194.949673318"/>
      </g>
     </g>
     <g id="line2d_50">
      <g>
       <use style="stroke:#000000;stroke-width:0.5;" x="285.409090909" xlink:href="#m741efc42ff" y="24.3687091648"/>
      </g>
     </g>
     <g id="text_9">
      <!-- $160$ -->
      <g transform="translate(277.937088032 205.868171698)scale(0.1 -0.1)">
       <use transform="scale(0.996264009963)" xlink:href="#CMR17-49"/>
       <use transform="translate(45.6904771171 0.0)scale(0.996264009963)" xlink:href="#CMR17-54"/>
       <use transform="translate(91.3809542341 0.0)scale(0.996264009963)" xlink:href="#CMR17-48"/>
      </g>
     </g>
    </g>
    <g id="text_10">
     <!-- subband data -->
     <defs>
      <path d="
M36 25.8281
C36 32.375 36 35.8438 31.7969 39.7344
C28.0938 43 23.7969 44 20.4062 44
C12.5 44 6.79688 37.6094 6.79688 30.7969
C6.79688 27 9.79688 27 10.4062 27
C11.7031 27 14 27.7812 14 30.5312
C14 33 12.0938 34.0781 10.4062 34.0781
C10 34.0781 9.5 33.9688 9.20312 33.875
C11.2969 40.5 16.7031 42.4062 20.2031 42.4062
C25.2031 42.4062 30.7031 37.9531 30.7031 29.4531
L30.7031 25
C24.7969 25 17.7031 24.2031 12.0938 21.2031
C5.79688 17.7031 4 12.7031 4 8.90625
C4 1.20312 13 -1 18.2969 -1
C23.7969 -1 28.9062 2.17188 31.0938 7.98438
C31.2969 3.64062 34.0938 -0.28125 38.5 -0.28125
C40.5938 -0.28125 45.9062 1.09375 45.9062 8.85938
L45.9062 14.375
L44.0938 14.375
L44.0938 8.78125
C44.0938 2.78125 41.4062 2 40.0938 2
C36 2 36 7.15625 36 11.5312
z

M30.7031 13.5938
C30.7031 4.95312 24.5 0.59375 19 0.59375
C14 0.59375 10.0938 4.29688 10.0938 8.90625
C10.0938 11.8906 11.4062 17.1875 17.2031 20.3906
C22 23.0938 27.5 23.5 30.7031 23.5
z
" id="CMR17-97"/>
      <path d="
M15 68.6875
L3.09375 67.5938
L3.09375 65
C9 65 9.90625 64.4062 9.90625 59.6406
L9.90625 -0.203125
L11.7031 -0.203125
L14.5938 6.89062
C17.5 2.20312 21.7969 -1 27.5938 -1
C37.5938 -1 47.7031 7.8125 47.7031 21.4062
C47.7031 34.1875 38.7031 43.5938 28.5938 43.5938
C22.4062 43.5938 18 40.2969 15 36.4062
z

M15.2031 31.3125
C15.2031 33.0938 15.2031 33.4062 16.5938 35.5
C20.5 41.5156 26.0938 42 28 42
C31 42 41.2969 40.3906 41.2969 21.5
C41.2969 1.6875 29.5 0.59375 27.0938 0.59375
C24 0.59375 19.5 1.78125 16.2969 7.59375
C15.2031 9.5 15.2031 9.70312 15.2031 11.4844
z
" id="CMR17-98"/>
      <path d="
M15.0938 40
L29.0938 40
L29.0938 42.5781
L15.0938 42.5781
L15.0938 61
L13.2969 61
C13.0938 50.7031 9.59375 41.6875 1.09375 41.6875
L1.09375 40
L9.79688 40
L9.79688 12.0469
C9.79688 10.1562 9.79688 -1 21.4062 -1
C27.2969 -1 30.7031 4.78125 30.7031 12.1406
L30.7031 17.8125
L28.9062 17.8125
L28.9062 12.2344
C28.9062 5.375 26.2031 0.796875 22 0.796875
C19.0938 0.796875 15.0938 2.78125 15.0938 11.8438
z
" id="CMR17-116"/>
      <path d="
M29.4062 42.0781
L29.4062 39.5
C35.2969 39.5 36.2031 38.8906 36.2031 34.1562
L36.2031 16.125
C36.2031 7.8125 31.7031 0.59375 24.2969 0.59375
C16.0938 0.59375 15.4062 5.4375 15.4062 10.5938
L15.4062 43.1719
L3.29688 42.0781
L3.29688 39.5
C7.29688 39.5 10 39.5 10.0938 35.5312
L10.0938 16.5312
C10.0938 9.89062 10.0938 5.64062 12.7031 2.85938
C14 1.57812 16.5 -1 23.7031 -1
C32.2031 -1 35.5 6.35938 36.2969 8.5
L36.4062 8.5
L36.4062 -0.984375
L48.2969 -0.984375
L48.2969 2
C42.4062 2 41.5 2.59375 41.5 7.39062
L41.5 43.1719
z
" id="CMR17-117"/>
      <path d="
M30.9062 42.1094
C30.9062 43.9062 30.7969 44 30.2031 44
C29.7969 44 29.7031 43.9062 28.5 42.4219
C28.2031 42.0156 27.2969 41.0156 27 40.625
C23.7969 44 19.2969 44 17.5938 44
C6.5 44 2.5 38.1719 2.5 32.375
C2.5 23.3438 12.7031 21.25 15.5938 20.6406
C21.9062 19.3438 24.0938 18.9375 26.2031 17.125
C27.5 15.9375 29.7031 13.7344 29.7031 10.125
C29.7031 5.90625 27.2969 0.5 18.0938 0.5
C9.40625 0.5 6.29688 7.0625 4.5 15.8281
C4.20312 17.2188 4.20312 17.3281 3.40625 17.3281
C2.59375 17.3281 2.5 17.2188 2.5 15.2344
L2.5 0.890625
C2.5 -0.890625 2.59375 -1 3.20312 -1
C3.70312 -1 3.79688 -0.890625 4.29688 -0.09375
C4.90625 0.796875 6.40625 3.1875 7 4.1875
C9 1.54688 12.5 -1 18.0938 -1
C28 -1 33.2969 4.40625 33.2969 12.2344
C33.2969 17.3438 30.5938 20.0625 29.2969 21.25
C26.2969 24.375 22.7969 25.0625 18.5938 25.8594
C13.0938 27.0781 6.09375 28.4688 6.09375 34.5938
C6.09375 37.1875 7.5 42.7188 17.5938 42.7188
C28.2969 42.7188 28.9062 32.75 29.0938 29.5625
C29.2031 29.0781 29.7031 28.9688 30 28.9688
C30.9062 28.9688 30.9062 29.2812 30.9062 30.9688
z
" id="CMR17-115"/>
      <path d="
M29.2031 67.5938
L29.2031 65
C35.0938 65 36 64.4062 36 59.6875
L36 36.6406
C35.5938 37.1406 31.5 43.5938 23.4062 43.5938
C13.2031 43.5938 3.29688 34.5 3.29688 21.3125
C3.29688 8.20312 12.5938 -1 22.4062 -1
C30.9062 -1 35.2969 5.26562 35.7969 5.9375
L35.7969 -0.984375
L47.9062 -0.984375
L47.9062 2
C42 2 41.0938 2.59375 41.0938 7.39062
L41.0938 68.6875
z

M35.7969 11.7969
C35.7969 8.79688 34 6.09375 31.7031 4.09375
C28.2969 1.09375 24.9062 0.59375 23 0.59375
C20.0938 0.59375 9.70312 2.09375 9.70312 21.1875
C9.70312 40.8125 21.2969 42 23.9062 42
C28.5 42 32.2031 39.4062 34.5 35.7969
C35.7969 33.7031 35.7969 33.4062 35.7969 31.6094
z
" id="CMR17-100"/>
      <path d="
M41.5 30.2031
C41.5 35.2969 40.5 43.5938 28.7031 43.5938
C20.7969 43.5938 16.7031 37.5 15.2031 33.5
L15.0938 33.5
L15.0938 43.5938
L3.29688 42.5
L3.29688 39.9062
C9.20312 39.9062 10.0938 39.2969 10.0938 34.5
L10.0938 6.6875
C10.0938 2.875 9.70312 2.39062 3.29688 2.39062
L3.29688 -0.203125
C5.70312 0 10.0938 0 12.7031 0
C15.2969 0 19.7969 0 22.2031 -0.203125
L22.2031 2.39062
C15.7969 2.39062 15.4062 2.78125 15.4062 6.6875
L15.4062 25.9062
C15.4062 35.1094 21 42 28 42
C35.4062 42 36.2031 35.4062 36.2031 30.5938
L36.2031 6.6875
C36.2031 2.875 35.7969 2.39062 29.4062 2.39062
L29.4062 -0.203125
C31.7969 0 36.2031 0 38.7969 0
C41.4062 0 45.9062 0 48.2969 -0.203125
L48.2969 2.39062
C41.9062 2.39062 41.5 2.78125 41.5 6.6875
z
" id="CMR17-110"/>
     </defs>
     <g transform="translate(142.861069695 219.723848409)scale(0.1 -0.1)">
      <use transform="scale(0.996264009963)" xlink:href="#CMR17-115"/>
      <use transform="translate(35.8013376352 0.0)scale(0.996264009963)" xlink:href="#CMR17-117"/>
      <use transform="translate(86.6967074156 0.0)scale(0.996264009963)" xlink:href="#CMR17-98"/>
      <use transform="translate(137.592077196 0.0)scale(0.996264009963)" xlink:href="#CMR17-98"/>
      <use transform="translate(188.487446976 0.0)scale(0.996264009963)" xlink:href="#CMR17-97"/>
      <use transform="translate(234.177924093 0.0)scale(0.996264009963)" xlink:href="#CMR17-110"/>
      <use transform="translate(285.073293874 0.0)scale(0.996264009963)" xlink:href="#CMR17-100"/>
      <use transform="translate(366.044630001 0.0)scale(0.996264009963)" xlink:href="#CMR17-100"/>
      <use transform="translate(416.939999781 0.0)scale(0.996264009963)" xlink:href="#CMR17-97"/>
      <use transform="translate(462.630476898 0.0)scale(0.996264009963)" xlink:href="#CMR17-116"/>
      <use transform="translate(497.911244698 0.0)scale(0.996264009963)" xlink:href="#CMR17-97"/>
     </g>
    </g>
   </g>
   <g id="matplotlib.axis_2">
    <g id="ytick_1">
     <g id="line2d_51">
      <defs>
       <path d="
M0 0
L4 0" id="m728421d6d4" style="stroke:#000000;stroke-width:0.5;"/>
      </defs>
      <g>
       <use style="stroke:#000000;stroke-width:0.5;" x="34.5" xlink:href="#m728421d6d4" y="194.344160663"/>
      </g>
     </g>
     <g id="line2d_52">
      <defs>
       <path d="
M0 0
L-4 0" id="mcb0005524f" style="stroke:#000000;stroke-width:0.5;"/>
      </defs>
      <g>
       <use style="stroke:#000000;stroke-width:0.5;" x="310.5" xlink:href="#mcb0005524f" y="194.344160663"/>
      </g>
     </g>
     <g id="text_11">
      <!-- $0$ -->
      <g transform="translate(25.5186647484 196.834820688)scale(0.1 -0.1)">
       <use transform="scale(0.996264009963)" xlink:href="#CMR17-48"/>
      </g>
     </g>
    </g>
    <g id="ytick_2">
     <g id="line2d_53">
      <g>
       <use style="stroke:#000000;stroke-width:0.5;" x="34.5" xlink:href="#m728421d6d4" y="167.006198285"/>
      </g>
     </g>
     <g id="line2d_54">
      <g>
       <use style="stroke:#000000;stroke-width:0.5;" x="310.5" xlink:href="#mcb0005524f" y="167.006198285"/>
      </g>
     </g>
     <g id="text_12">
      <!-- $5$ -->
      <defs>
       <path d="
M11.4062 57.6875
C12.4062 57.2812 16.5 56 20.7031 56
C30 56 35.0938 61.0156 38 63.9219
C38 64.7344 38 65.25 37.4062 65.25
C37.2969 65.25 37.0938 65.25 36.2969 64.8281
C32.7969 63.3125 28.7031 62.0781 23.7031 62.0781
C20.7031 62.0781 16.2031 62.5 11.2969 64.7344
C10.2031 65.25 10 65.25 9.90625 65.25
C9.40625 65.25 9.29688 65.1406 9.29688 63.1562
L9.29688 34.2812
C9.29688 32.5 9.29688 32 10.2969 32
C10.7969 32 11 32.2031 11.5 32.9062
C14.7031 37.4844 19.0938 39.4062 24.0938 39.4062
C27.5938 39.4062 35.0938 37.2188 35.0938 20.1406
C35.0938 16.9531 35.0938 11.1719 32.0938 6.57812
C29.5938 2.48438 25.7031 0.390625 21.4062 0.390625
C14.7969 0.390625 8.09375 5 6.29688 12.7188
C6.70312 12.6094 7.5 12.4219 7.90625 12.4219
C9.20312 12.4219 11.7031 13.125 11.7031 16.2188
C11.7031 18.9062 9.79688 20 7.90625 20
C5.59375 20 4.09375 18.5938 4.09375 15.7969
C4.09375 7.09375 11 -2 21.5938 -2
C31.9062 -2 41.7031 6.875 41.7031 19.75
C41.7031 31.7188 33.9062 41 24.2031 41
C19.0938 41 14.7969 39.0938 11.4062 35.4531
z
" id="CMR17-53"/>
      </defs>
      <g transform="translate(25.5186647484 169.49685831)scale(0.1 -0.1)">
       <use transform="scale(0.996264009963)" xlink:href="#CMR17-53"/>
      </g>
     </g>
    </g>
    <g id="ytick_3">
     <g id="line2d_55">
      <g>
       <use style="stroke:#000000;stroke-width:0.5;" x="34.5" xlink:href="#m728421d6d4" y="139.668235908"/>
      </g>
     </g>
     <g id="line2d_56">
      <g>
       <use style="stroke:#000000;stroke-width:0.5;" x="310.5" xlink:href="#mcb0005524f" y="139.668235908"/>
      </g>
     </g>
     <g id="text_13">
      <!-- $10$ -->
      <g transform="translate(20.5373294968 142.158895933)scale(0.1 -0.1)">
       <use transform="scale(0.996264009963)" xlink:href="#CMR17-49"/>
       <use transform="translate(45.6904771171 0.0)scale(0.996264009963)" xlink:href="#CMR17-48"/>
      </g>
     </g>
    </g>
    <g id="ytick_4">
     <g id="line2d_57">
      <g>
       <use style="stroke:#000000;stroke-width:0.5;" x="34.5" xlink:href="#m728421d6d4" y="112.330273531"/>
      </g>
     </g>
     <g id="line2d_58">
      <g>
       <use style="stroke:#000000;stroke-width:0.5;" x="310.5" xlink:href="#mcb0005524f" y="112.330273531"/>
      </g>
     </g>
     <g id="text_14">
      <!-- $15$ -->
      <g transform="translate(20.5373294968 114.820933556)scale(0.1 -0.1)">
       <use transform="scale(0.996264009963)" xlink:href="#CMR17-49"/>
       <use transform="translate(45.6904771171 0.0)scale(0.996264009963)" xlink:href="#CMR17-53"/>
      </g>
     </g>
    </g>
    <g id="ytick_5">
     <g id="line2d_59">
      <g>
       <use style="stroke:#000000;stroke-width:0.5;" x="34.5" xlink:href="#m728421d6d4" y="84.9923111537"/>
      </g>
     </g>
     <g id="line2d_60">
      <g>
       <use style="stroke:#000000;stroke-width:0.5;" x="310.5" xlink:href="#mcb0005524f" y="84.9923111537"/>
      </g>
     </g>
     <g id="text_15">
      <!-- $20$ -->
      <g transform="translate(20.5373294968 87.4829711786)scale(0.1 -0.1)">
       <use transform="scale(0.996264009963)" xlink:href="#CMR17-50"/>
       <use transform="translate(45.6904771171 0.0)scale(0.996264009963)" xlink:href="#CMR17-48"/>
      </g>
     </g>
    </g>
    <g id="ytick_6">
     <g id="line2d_61">
      <g>
       <use style="stroke:#000000;stroke-width:0.5;" x="34.5" xlink:href="#m728421d6d4" y="57.6543487764"/>
      </g>
     </g>
     <g id="line2d_62">
      <g>
       <use style="stroke:#000000;stroke-width:0.5;" x="310.5" xlink:href="#mcb0005524f" y="57.6543487764"/>
      </g>
     </g>
     <g id="text_16">
      <!-- $25$ -->
      <g transform="translate(20.5373294968 60.1450088013)scale(0.1 -0.1)">
       <use transform="scale(0.996264009963)" xlink:href="#CMR17-50"/>
       <use transform="translate(45.6904771171 0.0)scale(0.996264009963)" xlink:href="#CMR17-53"/>
      </g>
     </g>
    </g>
    <g id="ytick_7">
     <g id="line2d_63">
      <g>
       <use style="stroke:#000000;stroke-width:0.5;" x="34.5" xlink:href="#m728421d6d4" y="30.3163863992"/>
      </g>
     </g>
     <g id="line2d_64">
      <g>
       <use style="stroke:#000000;stroke-width:0.5;" x="310.5" xlink:href="#mcb0005524f" y="30.3163863992"/>
      </g>
     </g>
     <g id="text_17">
      <!-- $30$ -->
      <defs>
       <path d="
M22.0938 33.7031
C31 33.7031 34.9062 25.9688 34.9062 17.0312
C34.9062 5 28.5 0.390625 22.7031 0.390625
C17.4062 0.390625 8.79688 3.03125 6.09375 10.8281
C6.59375 10.625 7.09375 10.625 7.59375 10.625
C10 10.625 11.7969 12.2188 11.7969 14.8125
C11.7969 17.7031 9.59375 19 7.59375 19
C5.90625 19 3.29688 18.2031 3.29688 14.4688
C3.29688 5.23438 12.2969 -2 22.9062 -2
C34 -2 42.5 6.71875 42.5 16.9531
C42.5 26.6719 34.5 33.6875 25 34.7969
C32.5938 36.375 39.9062 43.0625 39.9062 52.0156
C39.9062 59.6875 32 65.2969 23 65.2969
C13.9062 65.2969 5.90625 59.8281 5.90625 52.0156
C5.90625 48.5938 8.5 48 9.79688 48
C11.9062 48 13.7031 49.2969 13.7031 51.8906
C13.7031 54.4688 11.9062 55.7656 9.79688 55.7656
C9.40625 55.7656 8.90625 55.7656 8.5 55.5625
C11.4062 61.8594 19.2969 63 22.7969 63
C26.2969 63 32.9062 61.3281 32.9062 51.875
C32.9062 49.1094 32.5 44.1875 29.0938 39.8438
C26.0938 36 22.7031 36 19.4062 35.5938
C18.9062 35.5938 16.5938 35.5938 16.2031 35.5938
C15.5 35.4844 15.0938 35.3906 15.0938 34.5938
C15.0938 33.8125 15.2031 33.7031 17.2031 33.7031
z
" id="CMR17-51"/>
      </defs>
      <g transform="translate(20.5373294968 32.8070464241)scale(0.1 -0.1)">
       <use transform="scale(0.996264009963)" xlink:href="#CMR17-51"/>
       <use transform="translate(45.6904771171 0.0)scale(0.996264009963)" xlink:href="#CMR17-48"/>
      </g>
     </g>
    </g>
    <g id="text_18">
     <!-- subband number -->
     <defs>
      <path d="
M38.0938 23
C38.5 23.4062 38.5 23.6094 38.5 24.625
C38.5 34.9688 33.0938 44 21.7031 44
C11.0938 44 2.70312 33.8906 2.70312 21.6094
C2.70312 8.60938 12.2031 -1 22.7969 -1
C34 -1 38.4062 9.46875 38.4062 11.5469
C38.4062 12.25 37.7969 12.25 37.5938 12.25
C36.9062 12.25 36.7969 12.0469 36.4062 10.875
C34.2031 4.14062 28.7031 0.796875 23.5 0.796875
C19.2031 0.796875 14.9062 3.17188 12.2031 7.5
C9.09375 12.5469 9.09375 18.375 9.09375 23
z

M9.20312 24.5
C9.90625 39.1406 17.5938 42.4062 21.5938 42.4062
C28.4062 42.4062 33 35.8906 33.0938 24.5
z
" id="CMR17-101"/>
      <path d="
M15 23.3906
C15 33 19.0938 42 26.5938 42
C27.2969 42 28 41.9062 28.7031 41.5938
C28.7031 41.5938 26.5 40.8906 26.5 38.3125
C26.5 35.9062 28.4062 34.9062 29.9062 34.9062
C31.0938 34.9062 33.2969 35.6094 33.2969 38.4062
C33.2969 41.6094 30.0938 43.5938 26.7031 43.5938
C19.0938 43.5938 15.7969 36.2031 14.7969 32.7031
L14.7031 32.7031
L14.7031 43.5938
L3.09375 42.5
L3.09375 39.9062
C9 39.9062 9.90625 39.2969 9.90625 34.5
L9.90625 6.6875
C9.90625 2.875 9.5 2.39062 3.09375 2.39062
L3.09375 -0.203125
C5.5 0 10.0938 0 12.7031 0
C15.5938 0 20.7031 0 23.4062 -0.203125
L23.4062 2.39062
C16.2031 2.39062 15 2.39062 15 6.875
z
" id="CMR17-114"/>
      <path d="
M67.5938 30.2031
C67.5938 35.1875 66.7031 43.5938 54.7969 43.5938
C48 43.5938 43.2969 39 41.5 33.5938
L41.4062 33.5938
C40.2031 41.7969 34.2969 43.5938 28.7031 43.5938
C20.7969 43.5938 16.7031 37.5625 15.2031 33.5938
L15.0938 33.5938
L15.0938 43.5938
L3.29688 42.5
L3.29688 39.9062
C9.20312 39.9062 10.0938 39.2969 10.0938 34.5
L10.0938 6.6875
C10.0938 2.875 9.70312 2.39062 3.29688 2.39062
L3.29688 -0.203125
C5.70312 0 10.0938 0 12.7031 0
C15.2969 0 19.7969 0 22.2031 -0.203125
L22.2031 2.39062
C15.7969 2.39062 15.4062 2.78125 15.4062 6.6875
L15.4062 25.9062
C15.4062 35.1094 21 42 28 42
C35.4062 42 36.2031 35.4062 36.2031 30.5938
L36.2031 6.6875
C36.2031 2.875 35.7969 2.39062 29.4062 2.39062
L29.4062 -0.203125
C31.7969 0 36.2031 0 38.7969 0
C41.4062 0 45.9062 0 48.2969 -0.203125
L48.2969 2.39062
C41.9062 2.39062 41.5 2.78125 41.5 6.6875
L41.5 25.9062
C41.5 35.1094 47.0938 42 54.0938 42
C61.5 42 62.2969 35.4062 62.2969 30.5938
L62.2969 6.6875
C62.2969 2.875 61.9062 2.39062 55.5 2.39062
L55.5 -0.203125
C57.9062 0 62.2969 0 64.9062 0
C67.5 0 72 0 74.4062 -0.203125
L74.4062 2.39062
C68 2.39062 67.5938 2.78125 67.5938 6.6875
z
" id="CMR17-109"/>
     </defs>
     <g transform="translate(13.6001511665 146.092094526)rotate(-90.0)scale(0.1 -0.1)">
      <use transform="scale(0.996264009963)" xlink:href="#CMR17-115"/>
      <use transform="translate(35.8013376352 0.0)scale(0.996264009963)" xlink:href="#CMR17-117"/>
      <use transform="translate(86.6967074156 0.0)scale(0.996264009963)" xlink:href="#CMR17-98"/>
      <use transform="translate(137.592077196 0.0)scale(0.996264009963)" xlink:href="#CMR17-98"/>
      <use transform="translate(188.487446976 0.0)scale(0.996264009963)" xlink:href="#CMR17-97"/>
      <use transform="translate(234.177924093 0.0)scale(0.996264009963)" xlink:href="#CMR17-110"/>
      <use transform="translate(285.073293874 0.0)scale(0.996264009963)" xlink:href="#CMR17-100"/>
      <use transform="translate(366.044630001 0.0)scale(0.996264009963)" xlink:href="#CMR17-110"/>
      <use transform="translate(414.337545849 0.0)scale(0.996264009963)" xlink:href="#CMR17-117"/>
      <use transform="translate(465.232915629 0.0)scale(0.996264009963)" xlink:href="#CMR17-109"/>
      <use transform="translate(539.550051564 0.0)scale(0.996264009963)" xlink:href="#CMR17-98"/>
      <use transform="translate(593.047860075 0.0)scale(0.996264009963)" xlink:href="#CMR17-101"/>
      <use transform="translate(633.533520538 0.0)scale(0.996264009963)" xlink:href="#CMR17-114"/>
     </g>
    </g>
   </g>
   <g id="patch_3">
    <path d="
M34.5 24.3687
L310.5 24.3687" style="fill:none;stroke:#000000;"/>
   </g>
   <g id="patch_4">
    <path d="
M310.5 194.95
L310.5 24.3687" style="fill:none;stroke:#000000;"/>
   </g>
   <g id="patch_5">
    <path d="
M34.5 194.95
L310.5 194.95" style="fill:none;stroke:#000000;"/>
   </g>
   <g id="patch_6">
    <path d="
M34.5 194.95
L34.5 24.3687" style="fill:none;stroke:#000000;"/>
   </g>
   <g id="text_19">
    <!-- Subband decomposition of a square signal (unit amplitude, $f=1760$ Hz). -->
    <defs>
     <path d="
M44.5938 40.0938
C46.5938 40.0938 47.4062 40.0938 47.4062 42
C47.4062 43 46.5938 43 44.7969 43
L36.7031 43
C38.5938 53.5781 40 60.8906 40.7969 64.1719
C41.4062 66.6406 43.5 69 46.0938 69
C48.2031 69 50.2969 68.0938 51.2969 67.1562
C47.4062 66.75 46.2031 63.7812 46.2031 62.0156
C46.2031 59.9531 47.7031 58.7344 49.5938 58.7344
C51.5938 58.7344 54.5938 60.4688 54.5938 64.3594
C54.5938 68.6406 50.4062 71 46 71
C41.7031 71 37.5 67.7188 35.5 63.7188
C33.7031 60.125 32.7031 56.4375 30.4062 43
L23.7031 43
C21.7969 43 20.7969 43 20.7969 41.2031
C20.7969 40.0938 21.4062 40.0938 23.4062 40.0938
L29.7969 40.0938
C28 30.875 23.9062 8.46875 21.5938 -2.14062
C19.9062 -10.7656 18.4062 -18 13.4062 -18
C13.0938 -18 10.2031 -18 8.40625 -16.1094
C13.5 -15.7031 13.5 -11.3438 13.5 -11.25
C13.5 -9.26562 12 -8.07812 10.0938 -8.07812
C8.09375 -8.07812 5.09375 -9.76562 5.09375 -13.5469
C5.09375 -17.8125 9.5 -20 13.4062 -20
C23.5938 -20 27.7969 -1.84375 28.9062 3.10938
C30.7031 10.75 35.5938 37.125 36.0938 40.0938
z
" id="CMMI12-102"/>
     <path d="
M16.5938 4.07812
C16.5938 6.5625 14.5938 8.15625 12.5 8.15625
C10.5 8.15625 8.40625 6.5625 8.40625 4.07812
C8.40625 1.59375 10.4062 0 12.5 0
C14.5 0 16.5938 1.59375 16.5938 4.07812" id="CMR17-46"/>
     <path d="
M43.7969 68.1094
C43.7969 69.8906 43.7031 70 43.0938 70
C42.5 70 42.2969 69.5938 41.9062 68.7031
L38.9062 62.125
C35.0938 67.5469 29.2969 70 23 70
C12.7969 70 4.59375 61.9531 4.59375 51.7969
C4.59375 48.7344 5.29688 44.3438 8.70312 40.1719
C12.4062 35.6094 15.9062 34.8125 23.9062 32.7188
C26.9062 31.9219 31.9062 30.625 32.9062 30.2344
C38.5938 27.8438 41.5938 21.8906 41.5938 16.3125
C41.5938 9.14062 36.5 1.5 27.7969 1.5
C17.0938 1.5 7.09375 7.46875 6.40625 21.4062
C6.29688 23 6.20312 23.0938 5.5 23.0938
C4.70312 23.0938 4.59375 23 4.59375 21
L4.59375 0.890625
C4.59375 -0.890625 4.70312 -1 5.29688 -1
C6 -1 6.20312 -0.5 7.59375 2.59375
C7.70312 2.89062 7.70312 3.09375 9.59375 6.875
C14.5938 0.375 23 -1 27.7969 -1
C38.7031 -1 46.4062 8.04688 46.4062 18.5781
C46.4062 23.7344 44.5 27.7031 43.4062 29.5
C39.2031 35.8594 34.7031 37.0469 29.9062 38.2344
C29.2031 38.5469 29 38.5469 23.4062 39.9375
C18 41.3281 15.7031 42.0312 13.2031 44.7188
C10.4062 47.7969 9.40625 50.9844 9.40625 54.1719
C9.40625 60.6406 14.5938 67.7031 23.0938 67.7031
C33.7031 67.7031 40.2969 60.2344 41.7969 47.7969
C42.0938 46 42.2031 45.9062 42.9062 45.9062
C43.7969 45.9062 43.7969 46.2031 43.7969 47.8906
z
" id="CMR17-83"/>
     <path d="
M64.2969 31.5156
C65.7969 31.5156 67.2969 31.5156 67.2969 33.2031
C67.2969 35 65.5938 35 63.9062 35
L8 35
C6.29688 35 4.59375 35 4.59375 33.2031
C4.59375 31.5156 6.09375 31.5156 7.59375 31.5156
z

M63.9062 14
C65.5938 14 67.2969 14 67.2969 15.7969
C67.2969 17.4844 65.7969 17.4844 64.2969 17.4844
L7.59375 17.4844
C6.09375 17.4844 4.59375 17.4844 4.59375 15.7969
C4.59375 14 6.29688 14 8 14
z
" id="CMR17-61"/>
     <path d="
M36.0938 40.7031
C36.9062 41.7188 36.9062 41.9062 36.9062 42.1094
C36.9062 43 36.5 43 34.7031 43
L4.29688 43
L3.29688 27.5
L5.09375 27.5
C5.79688 37.2031 6.90625 41.4062 18.4062 41.4062
L30.5938 41.4062
L2 1.5
C2 0.09375 2.09375 0 4.20312 0
L35.7969 0
L37.2031 18
L35.4062 18
C34.5938 6.90625 33.2969 1.79688 21.0938 1.79688
L8.29688 1.79688
z
" id="CMR17-122"/>
     <path d="
M43.0938 21.1875
C43.0938 34 33.7969 44 22.9062 44
C12 44 2.70312 34 2.70312 21.1875
C2.70312 8.60938 12 -1 22.9062 -1
C33.7969 -1 43.0938 8.60938 43.0938 21.1875
M22.9062 0.796875
C18.2031 0.796875 14.2031 3.59375 11.9062 7.5
C9.40625 11.9844 9.09375 17.5938 9.09375 22
C9.09375 26.2031 9.29688 31.4062 11.9062 35.9062
C13.9062 39.2031 17.7969 42.4062 22.9062 42.4062
C27.4062 42.4062 31.2031 39.9062 33.5938 36.4062
C36.7031 31.7031 36.7031 25.1094 36.7031 22
C36.7031 18.0938 36.5 12.1094 33.7969 7.29688
C31 2.70312 26.7031 0.796875 22.9062 0.796875" id="CMR17-111"/>
     <path d="
M34.9062 35
C33 35 30.2031 35 30.2031 31.5156
C30.2031 28.7188 32.5 27.9219 33.7969 27.9219
C34.5 27.9219 37.4062 28.2344 37.4062 31.625
C37.4062 38.5469 30.5938 43.7969 22.9062 43.7969
C12.2969 43.7969 3.29688 34.0312 3.29688 21.2969
C3.29688 8.0625 12.7031 -1 22.9062 -1
C35.2969 -1 38.4062 10.5938 38.4062 11.6875
C38.4062 12.0938 38.2969 12.3906 37.5938 12.3906
C36.9062 12.3906 36.7969 12.2969 36.4062 10.9844
C33.7969 2.8125 28.0938 0.796875 23.7969 0.796875
C17.4062 0.796875 9.70312 6.67188 9.70312 21.3906
C9.70312 36.5312 17.0938 42 23 42
C26.9062 42 32.7031 40.2031 34.9062 35" id="CMR17-99"/>
     <path d="
M15.7969 1.59375
C16 0.6875 16 0.375 16 -1.21875
C16 -7.25 14 -12.7656 9.79688 -17.7969
C9.29688 -18.2812 9.29688 -18.4844 9.29688 -18.7031
C9.29688 -19.0938 9.70312 -19.5 10.0938 -19.5
C10.7031 -19.5 17.5938 -12.4844 17.5938 -1.35938
C17.5938 1.9375 17.2031 8.15625 12.5 8.15625
C10.2969 8.15625 8.40625 6.67188 8.40625 4.07812
C8.40625 1.5 10.2969 0 12.5 0
C13.7031 0 15 0.5 15.7969 1.59375" id="CMR17-44"/>
     <path d="
M15.5 61.0781
C15.5 63.2656 13.7031 65.1562 11.4062 65.1562
C9.20312 65.1562 7.29688 63.375 7.29688 61.0781
C7.29688 58.8906 9.09375 57 11.4062 57
C13.5938 57 15.5 58.7969 15.5 61.0781
M3.79688 42.2812
L3.79688 39.7031
C9.40625 39.7031 10.2031 39.0938 10.2031 34.3281
L10.2031 6.67188
C10.2031 2.875 9.79688 2.39062 3.40625 2.39062
L3.40625 -0.203125
C5.79688 0 10.0938 0 12.5938 0
C15 0 19.0938 0 21.4062 -0.203125
L21.4062 2.39062
C15.5 2.39062 15.2969 2.98438 15.2969 6.5625
L15.2969 43.375
z
" id="CMR17-105"/>
     <path d="
M26.2969 24.6719
C26.2969 31.8438 25.5938 43.9844 19.5938 56.8281
C14.7969 67.1875 6.59375 74.4531 5.40625 74.4531
C5.09375 74.4531 4.70312 74.3438 4.70312 73.8594
C4.70312 73.6719 4.79688 73.5625 4.90625 73.3594
C9.70312 68.3906 21.9062 55.75 21.9062 24.7969
C21.9062 -6.28125 9.79688 -18.9219 4.90625 -23.9062
C4.79688 -24.0938 4.70312 -24.2031 4.70312 -24.3906
C4.70312 -24.8906 5.09375 -25 5.40625 -25
C6.5 -25 15 -17.625 19.9062 -6.67188
C24.9062 4.375 26.2969 15.125 26.2969 24.6719" id="CMR17-41"/>
     <path d="
M30.5938 -24.4062
C30.5938 -24.3125 30.5938 -24.1094 30.2969 -23.8125
C25.7031 -19.1406 13.4062 -6.39062 13.4062 24.6719
C13.4062 55.75 25.5 68.3906 30.4062 73.3594
C30.4062 73.4688 30.5938 73.6719 30.5938 73.9531
C30.5938 74.25 30.2969 74.4531 29.9062 74.4531
C28.7969 74.4531 20.2969 67.0781 15.4062 56.125
C10.4062 45.0781 9 34.3281 9 24.7812
C9 17.6094 9.70312 5.46875 15.7031 -7.375
C20.5 -17.7344 28.7031 -25 29.9062 -25
C30.4062 -25 30.5938 -24.7969 30.5938 -24.4062" id="CMR17-40"/>
     <path d="
M22 -16.6094
C15.5938 -16.6094 15.2031 -16.2031 15.2031 -12.3281
L15.2031 6.28125
C18.0938 2.09375 22.2969 -0.59375 27.5938 -0.59375
C37.5938 -0.59375 47.7031 8.17188 47.7031 21.6875
C47.7031 34.2344 39 43.7812 28.7031 43.7812
C22.7031 43.7812 17.7969 40.5 15 36.5312
L15 43.7812
L3.09375 42.6875
L3.09375 40.1094
C9 40.1094 9.90625 39.5 9.90625 34.7344
L9.90625 -12.3281
C9.90625 -16.1094 9.5 -16.6094 3.09375 -16.6094
L3.09375 -19.1875
C5.5 -19 9.90625 -19 12.5 -19
C15.0938 -19 19.5938 -19 22 -19.1875
z

M15.2031 31.4375
C15.2031 32.8438 15.2031 34.9219 19.0938 38.6094
C19.5938 39.0156 23 42 28 42
C35.2969 42 41.2969 32.9375 41.2969 21.5938
C41.2969 10.25 34.9062 1 27 1
C23.4062 1 19.5 2.6875 16.5 7.375
C15.2031 9.5625 15.2031 10.1562 15.2031 11.75
z
" id="CMR17-112"/>
     <path d="
M41.0938 43.7812
L39.5 43.7812
L36.5 33.9375
C34.2031 39.2031 30 43.7812 23.2969 43.7812
C13.0938 43.7812 3.29688 34.7344 3.29688 21.5938
C3.29688 8.5625 12.5 -0.59375 22.5 -0.59375
C30.2031 -0.59375 34.5 5.28125 35.7969 7.46875
L35.7969 -12.3281
C35.7969 -16.1094 35.4062 -16.6094 29 -16.6094
L29 -19.1875
C31.4062 -19 35.7969 -19 38.4062 -19
C41 -19 45.5 -19 47.9062 -19.1875
L47.9062 -16.6094
C41.5 -16.6094 41.0938 -16.2031 41.0938 -12.3281
z

M36 13.8438
C36 9.5625 32.4062 5.57812 32.0938 5.28125
C29 1.79688 25.4062 1 23 1
C15.5 1 9.70312 10.4531 9.70312 21.5
C9.70312 33.1406 16.2969 42 24 42
C32 42 36 32.9375 36 27.7656
z
" id="CMR17-113"/>
     <path d="
M11.0938 18.1875
C13 16.6875 16.2969 15 20.2969 15
C28.2031 15 35 21.2031 35 29.5
C35 32.0938 34.2031 36.0938 31.2031 39.2031
C34 42.0625 38.0938 43 40.4062 43
C40.7969 43 41.4062 43 41.9062 42.7656
C41.5 42.6719 40.5938 42.2812 40.5938 40.7344
C40.5938 39.4844 41.5 38.6094 42.7969 38.6094
C44.2969 38.6094 45.0938 39.5781 45.0938 40.8438
C45.0938 42.6719 43.5938 44.5938 40.4062 44.5938
C36.4062 44.5938 32.9062 42.7812 30.0938 40.3125
C27.0938 43.0156 23.5 44 20.2969 44
C12.4062 44 5.59375 37.7969 5.59375 29.5
C5.59375 23.7812 8.90625 20.1875 9.90625 19.1875
C6.90625 15.6875 6.90625 11.6094 6.90625 11.1094
C6.90625 8.51562 7.90625 4.71875 11.2969 2.625
C6.09375 1.32812 2 -2.64062 2 -7.59375
C2 -14.7344 11.5 -20 22.9062 -20
C33.9062 -20 43.7969 -14.9375 43.7969 -7.48438
C43.7969 6 29 6 21.2969 6
C19 6 14.9062 6 14.4062 6.10938
C11.2969 6.60938 9.20312 9.40625 9.20312 12.8906
C9.20312 13.7812 9.20312 16 11.0938 18.1875
M20.2969 16.6875
C11.5 16.6875 11.5 27.5 11.5 29.5156
C11.5 31.5 11.5 42.3125 20.2969 42.3125
C29.0938 42.3125 29.0938 31.5 29.0938 29.5156
C29.0938 27.5 29.0938 16.6875 20.2969 16.6875
M22.9062 -18.2969
C12.9062 -18.2969 6 -13.0469 6 -7.59375
C6 -4.51562 7.70312 -1.64062 9.90625 -0.0625
C12.4062 1.625 13.4062 1.625 20.2031 1.625
C28.4062 1.625 39.7969 1.625 39.7969 -7.59375
C39.7969 -13.0469 32.9062 -18.2969 22.9062 -18.2969" id="CMR17-103"/>
     <path d="
M15.2969 40
L26.7031 40
L26.7031 42.5781
L15.0938 42.5781
L15.0938 54.5938
C15.0938 62.8438 19.2969 68 23.5938 68
C24.9062 68 26.4062 67.6094 27.4062 66.9062
C26.5938 66.7031 24.5 66.0156 24.5 63.5312
C24.5 60.9531 26.5 60.1562 27.9062 60.1562
C29.2969 60.1562 31.2969 60.9531 31.2969 63.5469
C31.2969 67.3125 27.7031 69.5938 23.7031 69.5938
C18 69.5938 10.2031 64.9375 10.2031 54.3906
L10.2031 42.5781
L2.20312 42.5781
L2.20312 40
L10.2031 40
L10.2031 6.67188
C10.2031 2.875 9.79688 2.39062 3.40625 2.39062
L3.40625 -0.203125
C5.79688 0 10.4062 0 13 0
C15.9062 0 21 0 23.7031 -0.203125
L23.7031 2.39062
C16.5 2.39062 15.2969 2.39062 15.2969 6.85938
z
" id="CMR17-102"/>
     <path d="
M56.0938 61.0156
C56.0938 65.5 57.2031 65.5 64.0938 65.5
L64.0938 68
C61.2031 68 55.9062 68 52.7969 68
C49.7031 68 44.4062 68 41.5 68
L41.5 65.5
C48.4062 65.5 49.5 65.5 49.5 61
L49.5 36.5781
L19.7031 36.5781
L19.7031 61
C19.7031 65.5 20.7969 65.5 27.7031 65.5
L27.7031 68
C24.7969 68 19.5 68 16.4062 68
C13.2969 68 8 68 5.09375 68
L5.09375 65.5
C12 65.5 13.0938 65.5 13.0938 61.0156
L13.0938 6.98438
C13.0938 2.5 12 2.5 5.09375 2.5
L5.09375 0
C8 0 13.2969 0 16.4062 0
C19.5 0 24.7969 0 27.7031 0
L27.7031 2.5
C20.7969 2.5 19.7031 2.5 19.7031 6.96875
L19.7031 34
L49.5 34
L49.5 6.96875
C49.5 2.5 48.4062 2.5 41.5 2.5
L41.5 0
C44.4062 0 49.7031 0 52.7969 0
C55.9062 0 61.2031 0 64.0938 0
L64.0938 2.5
C57.2031 2.5 56.0938 2.5 56.0938 6.98438
z
" id="CMR17-72"/>
     <path d="
M15.2969 68.6875
L3.40625 67.5938
L3.40625 65
C9.29688 65 10.2031 64.4062 10.2031 59.6406
L10.2031 6.65625
C10.2031 2.875 9.79688 2.39062 3.40625 2.39062
L3.40625 -0.203125
C5.79688 0 10.2031 0 12.7031 0
C15.2969 0 19.7031 0 22.0938 -0.203125
L22.0938 2.39062
C15.7031 2.39062 15.2969 2.78125 15.2969 6.65625
z
" id="CMR17-108"/>
     <path d="
M45.0938 61.5781
L45.0938 63.7656
L21.5938 63.7656
C9.90625 63.7656 9.70312 65.0781 9.29688 67
L7.5 67
L4.59375 48.3438
L6.40625 48.3438
C6.70312 50.2344 7.40625 55.3125 8.59375 57.2031
C9.20312 58 16.5938 58 18.2969 58
L40.2969 58
L29.2031 41.5781
C21.7969 30.5312 16.7031 15.6094 16.7031 2.57812
C16.7031 1.39062 16.7031 -2 20.2969 -2
C23.9062 -2 23.9062 1.39062 23.9062 2.67188
L23.9062 7.26562
C23.9062 23.5625 26.7031 34.3125 31.2969 41.1875
z
" id="CMR17-55"/>
    </defs>
    <g transform="translate(11.4093496434 19.3687091648)scale(0.1 -0.1)">
     <use transform="scale(0.996264009963)" xlink:href="#CMR17-83"/>
     <use transform="translate(50.8953697803 0.0)scale(0.996264009963)" xlink:href="#CMR17-117"/>
     <use transform="translate(101.790739561 0.0)scale(0.996264009963)" xlink:href="#CMR17-98"/>
     <use transform="translate(152.686109341 0.0)scale(0.996264009963)" xlink:href="#CMR17-98"/>
     <use transform="translate(203.581479121 0.0)scale(0.996264009963)" xlink:href="#CMR17-97"/>
     <use transform="translate(249.271956238 0.0)scale(0.996264009963)" xlink:href="#CMR17-110"/>
     <use transform="translate(300.167326019 0.0)scale(0.996264009963)" xlink:href="#CMR17-100"/>
     <use transform="translate(381.138662146 0.0)scale(0.996264009963)" xlink:href="#CMR17-100"/>
     <use transform="translate(432.034031926 0.0)scale(0.996264009963)" xlink:href="#CMR17-101"/>
     <use transform="translate(472.519692389 0.0)scale(0.996264009963)" xlink:href="#CMR17-99"/>
     <use transform="translate(513.005352852 0.0)scale(0.996264009963)" xlink:href="#CMR17-111"/>
     <use transform="translate(558.695829969 0.0)scale(0.996264009963)" xlink:href="#CMR17-109"/>
     <use transform="translate(635.615419837 0.0)scale(0.996264009963)" xlink:href="#CMR17-112"/>
     <use transform="translate(689.113228348 0.0)scale(0.996264009963)" xlink:href="#CMR17-111"/>
     <use transform="translate(734.803705465 0.0)scale(0.996264009963)" xlink:href="#CMR17-115"/>
     <use transform="translate(770.6050431 0.0)scale(0.996264009963)" xlink:href="#CMR17-105"/>
     <use transform="translate(795.476101582 0.0)scale(0.996264009963)" xlink:href="#CMR17-116"/>
     <use transform="translate(830.756869381 0.0)scale(0.996264009963)" xlink:href="#CMR17-105"/>
     <use transform="translate(855.627927863 0.0)scale(0.996264009963)" xlink:href="#CMR17-111"/>
     <use transform="translate(901.31840498 0.0)scale(0.996264009963)" xlink:href="#CMR17-110"/>
     <use transform="translate(982.289741108 0.0)scale(0.996264009963)" xlink:href="#CMR17-111"/>
     <use transform="translate(1027.98021822 0.0)scale(0.996264009963)" xlink:href="#CMR17-102"/>
     <use transform="translate(1085.52969699 0.0)scale(0.996264009963)" xlink:href="#CMR17-97"/>
     <use transform="translate(1161.29614045 0.0)scale(0.996264009963)" xlink:href="#CMR17-115"/>
     <use transform="translate(1197.09747809 0.0)scale(0.996264009963)" xlink:href="#CMR17-113"/>
     <use transform="translate(1245.39039393 0.0)scale(0.996264009963)" xlink:href="#CMR17-117"/>
     <use transform="translate(1296.28576371 0.0)scale(0.996264009963)" xlink:href="#CMR17-97"/>
     <use transform="translate(1341.97624083 0.0)scale(0.996264009963)" xlink:href="#CMR17-114"/>
     <use transform="translate(1377.25700863 0.0)scale(0.996264009963)" xlink:href="#CMR17-101"/>
     <use transform="translate(1447.81863544 0.0)scale(0.996264009963)" xlink:href="#CMR17-115"/>
     <use transform="translate(1483.61997307 0.0)scale(0.996264009963)" xlink:href="#CMR17-105"/>
     <use transform="translate(1508.49103156 0.0)scale(0.996264009963)" xlink:href="#CMR17-103"/>
     <use transform="translate(1554.18150867 0.0)scale(0.996264009963)" xlink:href="#CMR17-110"/>
     <use transform="translate(1605.07687845 0.0)scale(0.996264009963)" xlink:href="#CMR17-97"/>
     <use transform="translate(1650.76735557 0.0)scale(0.996264009963)" xlink:href="#CMR17-108"/>
     <use transform="translate(1705.7143804 0.0)scale(0.996264009963)" xlink:href="#CMR17-40"/>
     <use transform="translate(1740.9951482 0.0)scale(0.996264009963)" xlink:href="#CMR17-117"/>
     <use transform="translate(1791.89051798 0.0)scale(0.996264009963)" xlink:href="#CMR17-110"/>
     <use transform="translate(1842.78588776 0.0)scale(0.996264009963)" xlink:href="#CMR17-105"/>
     <use transform="translate(1867.65694624 0.0)scale(0.996264009963)" xlink:href="#CMR17-116"/>
     <use transform="translate(1933.01368039 0.0)scale(0.996264009963)" xlink:href="#CMR17-97"/>
     <use transform="translate(1978.70415751 0.0)scale(0.996264009963)" xlink:href="#CMR17-109"/>
     <use transform="translate(2055.62374737 0.0)scale(0.996264009963)" xlink:href="#CMR17-112"/>
     <use transform="translate(2106.51911715 0.0)scale(0.996264009963)" xlink:href="#CMR17-108"/>
     <use transform="translate(2131.39017564 0.0)scale(0.996264009963)" xlink:href="#CMR17-105"/>
     <use transform="translate(2156.26123412 0.0)scale(0.996264009963)" xlink:href="#CMR17-116"/>
     <use transform="translate(2191.54200192 0.0)scale(0.996264009963)" xlink:href="#CMR17-117"/>
     <use transform="translate(2242.4373717 0.0)scale(0.996264009963)" xlink:href="#CMR17-100"/>
     <use transform="translate(2293.33274148 0.0)scale(0.996264009963)" xlink:href="#CMR17-101"/>
     <use transform="translate(2333.81840194 0.0)scale(0.996264009963)" xlink:href="#CMR17-44"/>
     <use transform="translate(2388.76542677 0.0)scale(0.996264009963)" xlink:href="#CMMI12-102"/>
     <use transform="translate(2475.15974033 0.0)scale(0.996264009963)" xlink:href="#CMR17-61"/>
     <use transform="translate(2574.54853747 0.0)scale(0.996264009963)" xlink:href="#CMR17-49"/>
     <use transform="translate(2620.23901458 0.0)scale(0.996264009963)" xlink:href="#CMR17-55"/>
     <use transform="translate(2665.9294917 0.0)scale(0.996264009963)" xlink:href="#CMR17-54"/>
     <use transform="translate(2711.61996882 0.0)scale(0.996264009963)" xlink:href="#CMR17-48"/>
     <use transform="translate(2787.38641228 0.0)scale(0.996264009963)" xlink:href="#CMR17-72"/>
     <use transform="translate(2856.45884209 0.0)scale(0.996264009963)" xlink:href="#CMR17-122"/>
     <use transform="translate(2896.94450255 0.0)scale(0.996264009963)" xlink:href="#CMR17-41"/>
     <use transform="translate(2932.22527035 0.0)scale(0.996264009963)" xlink:href="#CMR17-46"/>
    </g>
   </g>
  </g>
 </g>
 <defs>
  <clipPath id="p75ad0bfdef">
   <rect height="170.580964153" width="276.0" x="34.5" y="24.3687091648"/>
  </clipPath>
 </defs>
</svg>
