<?xml version="1.0" encoding="utf-8" standalone="no"?>
<!DOCTYPE svg PUBLIC "-//W3C//DTD SVG 1.1//EN"
  "http://www.w3.org/Graphics/SVG/1.1/DTD/svg11.dtd">
<!-- Created with matplotlib (http://matplotlib.org/) -->
<svg height="135.174175pt" version="1.1" viewBox="0 0 318.611414 135.174175" width="318.611414pt" xmlns="http://www.w3.org/2000/svg" xmlns:xlink="http://www.w3.org/1999/xlink">
 <defs>
  <style type="text/css">
*{stroke-linecap:butt;stroke-linejoin:round;}
  </style>
 </defs>
 <g id="figure_1">
  <g id="patch_1">
   <path d="M 0 135.174175 
L 318.611414 135.174175 
L 318.611414 0 
L 0 0 
z
" style="fill:#ffffff;"/>
  </g>
  <g id="axes_1">
   <g id="patch_2">
    <path d="M 31.911414 112.118498 
L 307.911414 112.118498 
L 307.911414 20.118498 
L 31.911414 20.118498 
z
" style="fill:#ffffff;"/>
   </g>
   <g id="patch_3">
    <path clip-path="url(#pdb61875a24)" d="M 44.456869 112.118498 
L 57.002323 112.118498 
L 57.002323 26.190072 
L 44.456869 26.190072 
z
" style="fill:none;stroke:#000000;stroke-linejoin:miter;"/>
   </g>
   <g id="patch_4">
    <path clip-path="url(#pdb61875a24)" d="M 57.002323 112.118498 
L 69.547778 112.118498 
L 69.547778 26.29358 
L 57.002323 26.29358 
z
" style="fill:none;stroke:#000000;stroke-linejoin:miter;"/>
   </g>
   <g id="patch_5">
    <path clip-path="url(#pdb61875a24)" d="M 69.547778 112.118498 
L 82.093232 112.118498 
L 82.093232 25.551776 
L 69.547778 25.551776 
z
" style="fill:none;stroke:#000000;stroke-linejoin:miter;"/>
   </g>
   <g id="patch_6">
    <path clip-path="url(#pdb61875a24)" d="M 82.093232 112.118498 
L 94.638687 112.118498 
L 94.638687 26.190072 
L 82.093232 26.190072 
z
" style="fill:none;stroke:#000000;stroke-linejoin:miter;"/>
   </g>
   <g id="patch_7">
    <path clip-path="url(#pdb61875a24)" d="M 94.638687 112.118498 
L 107.184142 112.118498 
L 107.184142 25.120495 
L 94.638687 25.120495 
z
" style="fill:none;stroke:#000000;stroke-linejoin:miter;"/>
   </g>
   <g id="patch_8">
    <path clip-path="url(#pdb61875a24)" d="M 107.184142 112.118498 
L 119.729596 112.118498 
L 119.729596 25.983057 
L 107.184142 25.983057 
z
" style="fill:none;stroke:#000000;stroke-linejoin:miter;"/>
   </g>
   <g id="patch_9">
    <path clip-path="url(#pdb61875a24)" d="M 119.729596 112.118498 
L 132.275051 112.118498 
L 132.275051 24.982485 
L 119.729596 24.982485 
z
" style="fill:none;stroke:#000000;stroke-linejoin:miter;"/>
   </g>
   <g id="patch_10">
    <path clip-path="url(#pdb61875a24)" d="M 132.275051 112.118498 
L 144.820505 112.118498 
L 144.820505 25.482771 
L 132.275051 25.482771 
z
" style="fill:none;stroke:#000000;stroke-linejoin:miter;"/>
   </g>
   <g id="patch_11">
    <path clip-path="url(#pdb61875a24)" d="M 144.820505 112.118498 
L 157.36596 112.118498 
L 157.36596 24.602958 
L 144.820505 24.602958 
z
" style="fill:none;stroke:#000000;stroke-linejoin:miter;"/>
   </g>
   <g id="patch_12">
    <path clip-path="url(#pdb61875a24)" d="M 157.36596 112.118498 
L 169.911414 112.118498 
L 169.911414 25.05149 
L 157.36596 25.05149 
z
" style="fill:none;stroke:#000000;stroke-linejoin:miter;"/>
   </g>
   <g id="patch_13">
    <path clip-path="url(#pdb61875a24)" d="M 169.911414 112.118498 
L 182.456869 112.118498 
L 182.456869 26.724861 
L 169.911414 26.724861 
z
" style="fill:none;stroke:#000000;stroke-linejoin:miter;"/>
   </g>
   <g id="patch_14">
    <path clip-path="url(#pdb61875a24)" d="M 182.456869 112.118498 
L 195.002323 112.118498 
L 195.002323 27.311403 
L 182.456869 27.311403 
z
" style="fill:none;stroke:#000000;stroke-linejoin:miter;"/>
   </g>
   <g id="patch_15">
    <path clip-path="url(#pdb61875a24)" d="M 195.002323 112.118498 
L 207.547778 112.118498 
L 207.547778 27.82894 
L 195.002323 27.82894 
z
" style="fill:none;stroke:#000000;stroke-linejoin:miter;"/>
   </g>
   <g id="patch_16">
    <path clip-path="url(#pdb61875a24)" d="M 207.547778 112.118498 
L 220.093232 112.118498 
L 220.093232 25.793294 
L 207.547778 25.793294 
z
" style="fill:none;stroke:#000000;stroke-linejoin:miter;"/>
   </g>
   <g id="patch_17">
    <path clip-path="url(#pdb61875a24)" d="M 220.093232 112.118498 
L 232.638687 112.118498 
L 232.638687 24.499451 
L 220.093232 24.499451 
z
" style="fill:none;stroke:#000000;stroke-linejoin:miter;"/>
   </g>
   <g id="patch_18">
    <path clip-path="url(#pdb61875a24)" d="M 232.638687 112.118498 
L 245.184142 112.118498 
L 245.184142 26.845619 
L 232.638687 26.845619 
z
" style="fill:none;stroke:#000000;stroke-linejoin:miter;"/>
   </g>
   <g id="patch_19">
    <path clip-path="url(#pdb61875a24)" d="M 245.184142 112.118498 
L 257.729596 112.118498 
L 257.729596 24.499451 
L 245.184142 24.499451 
z
" style="fill:none;stroke:#000000;stroke-linejoin:miter;"/>
   </g>
   <g id="patch_20">
    <path clip-path="url(#pdb61875a24)" d="M 257.729596 112.118498 
L 270.275051 112.118498 
L 270.275051 24.861727 
L 257.729596 24.861727 
z
" style="fill:none;stroke:#000000;stroke-linejoin:miter;"/>
   </g>
   <g id="patch_21">
    <path clip-path="url(#pdb61875a24)" d="M 270.275051 112.118498 
L 282.820505 112.118498 
L 282.820505 26.655856 
L 270.275051 26.655856 
z
" style="fill:none;stroke:#000000;stroke-linejoin:miter;"/>
   </g>
   <g id="patch_22">
    <path clip-path="url(#pdb61875a24)" d="M 282.820505 112.118498 
L 295.36596 112.118498 
L 295.36596 26.776614 
L 282.820505 26.776614 
z
" style="fill:none;stroke:#000000;stroke-linejoin:miter;"/>
   </g>
   <g id="matplotlib.axis_1">
    <g id="xtick_1">
     <g id="line2d_1">
      <defs>
       <path d="M 0 0 
L 0 3.5 
" id="m80f33c0691" style="stroke:#000000;stroke-width:0.8;"/>
      </defs>
      <g>
       <use style="stroke:#000000;stroke-width:0.8;" x="44.455652" xlink:href="#m80f33c0691" y="112.118498"/>
      </g>
     </g>
     <g id="text_1">
      <!-- $-1$ -->
      <defs>
       <path d="M 65.90625 23 
C 67.59375 23 69.40625 23 69.40625 25 
C 69.40625 27 67.59375 27 65.90625 27 
L 11.796875 27 
C 10.09375 27 8.296875 27 8.296875 25 
C 8.296875 23 10.09375 23 11.796875 23 
z
" id="CMSY10-0"/>
       <path d="M 26.59375 63.40625 
C 26.59375 65.5 26.5 65.5 25.09375 65.5 
C 21.203125 61.1875 15.296875 59.796875 9.703125 59.796875 
C 9.40625 59.796875 8.90625 59.796875 8.796875 59.5 
C 8.703125 59.296875 8.703125 59.09375 8.703125 57 
C 11.796875 57 17 57.59375 21 59.984375 
L 21 7.203125 
C 21 3.6875 20.796875 2.5 12.203125 2.5 
L 9.203125 2.5 
L 9.203125 0 
C 14 0 19 0 23.796875 0 
C 28.59375 0 33.59375 0 38.40625 0 
L 38.40625 2.5 
L 35.40625 2.5 
C 26.796875 2.5 26.59375 3.59375 26.59375 7.15625 
z
" id="CMR17-49"/>
      </defs>
      <g transform="translate(38.090613 126.036997)scale(0.1 -0.1)">
       <use transform="scale(0.996264)" xlink:href="#CMSY10-0"/>
       <use transform="translate(77.487468 0)scale(0.996264)" xlink:href="#CMR17-49"/>
      </g>
     </g>
    </g>
    <g id="xtick_2">
     <g id="line2d_2">
      <g>
       <use style="stroke:#000000;stroke-width:0.8;" x="169.912051" xlink:href="#m80f33c0691" y="112.118498"/>
      </g>
     </g>
     <g id="text_2">
      <!-- $0$ -->
      <defs>
       <path d="M 42 31.640625 
C 42 37.75 41.90625 48.125 37.703125 56.109375 
C 34 63.109375 28.09375 65.59375 22.90625 65.59375 
C 18.09375 65.59375 12 63.40625 8.203125 56.203125 
C 4.203125 48.71875 3.796875 39.4375 3.796875 31.640625 
C 3.796875 25.953125 3.90625 17.28125 7 9.671875 
C 11.296875 -0.609375 19 -2 22.90625 -2 
C 27.5 -2 34.5 -0.109375 38.59375 9.375 
C 41.59375 16.28125 42 24.359375 42 31.640625 
z
M 22.90625 -0.40625 
C 16.5 -0.40625 12.703125 5.078125 11.296875 12.6875 
C 10.203125 18.5625 10.203125 27.15625 10.203125 32.75 
C 10.203125 40.4375 10.203125 46.828125 11.5 52.921875 
C 13.40625 61.390625 19 64 22.90625 64 
C 27 64 32.296875 61.296875 34.203125 53.125 
C 35.5 47.4375 35.59375 40.734375 35.59375 32.75 
C 35.59375 26.25 35.59375 18.265625 34.40625 12.375 
C 32.296875 1.484375 26.40625 -0.40625 22.90625 -0.40625 
z
" id="CMR17-48"/>
      </defs>
      <g transform="translate(167.421384 126.036997)scale(0.1 -0.1)">
       <use transform="scale(0.996264)" xlink:href="#CMR17-48"/>
      </g>
     </g>
    </g>
    <g id="xtick_3">
     <g id="line2d_3">
      <g>
       <use style="stroke:#000000;stroke-width:0.8;" x="295.36845" xlink:href="#m80f33c0691" y="112.118498"/>
      </g>
     </g>
     <g id="text_3">
      <!-- $1$ -->
      <g transform="translate(292.877783 126.036997)scale(0.1 -0.1)">
       <use transform="scale(0.996264)" xlink:href="#CMR17-49"/>
      </g>
     </g>
    </g>
   </g>
   <g id="matplotlib.axis_2">
    <g id="ytick_1">
     <g id="line2d_4">
      <defs>
       <path d="M 0 0 
L -3.5 0 
" id="m5f00613503" style="stroke:#000000;stroke-width:0.8;"/>
      </defs>
      <g>
       <use style="stroke:#000000;stroke-width:0.8;" x="31.911414" xlink:href="#m5f00613503" y="112.118498"/>
      </g>
     </g>
     <g id="text_4">
      <!-- $0.00$ -->
      <defs>
       <path d="M 18.40625 4.796875 
C 18.40625 7.6875 16 9.671875 13.59375 9.671875 
C 10.703125 9.671875 8.703125 7.28125 8.703125 4.890625 
C 8.703125 2 11.09375 0 13.5 0 
C 16.40625 0 18.40625 2.390625 18.40625 4.796875 
z
" id="CMMI12-58"/>
      </defs>
      <g transform="translate(7.2 115.577748)scale(0.1 -0.1)">
       <use transform="scale(0.996264)" xlink:href="#CMR17-48"/>
       <use transform="translate(45.690477 0)scale(0.996264)" xlink:href="#CMMI12-58"/>
       <use transform="translate(72.787654 0)scale(0.996264)" xlink:href="#CMR17-48"/>
       <use transform="translate(118.478131 0)scale(0.996264)" xlink:href="#CMR17-48"/>
      </g>
     </g>
    </g>
    <g id="ytick_2">
     <g id="line2d_5">
      <g>
       <use style="stroke:#000000;stroke-width:0.8;" x="31.911414" xlink:href="#m5f00613503" y="68.991036"/>
      </g>
     </g>
     <g id="text_5">
      <!-- $0.25$ -->
      <defs>
       <path d="M 41.703125 15.453125 
L 39.90625 15.453125 
C 38.90625 8.375 38.09375 7.171875 37.703125 6.5625 
C 37.203125 5.765625 30 5.765625 28.59375 5.765625 
L 9.40625 5.765625 
C 13 9.671875 20 16.75 28.5 24.953125 
C 34.59375 30.734375 41.703125 37.53125 41.703125 47.421875 
C 41.703125 59.21875 32.296875 66 21.796875 66 
C 10.796875 66 4.09375 56.3125 4.09375 47.34375 
C 4.09375 43.4375 7 42.9375 8.203125 42.9375 
C 9.203125 42.9375 12.203125 43.546875 12.203125 47.03125 
C 12.203125 50.109375 9.59375 51 8.203125 51 
C 7.59375 51 7 50.90625 6.59375 50.703125 
C 8.5 59.21875 14.296875 63.40625 20.40625 63.40625 
C 29.09375 63.40625 34.796875 56.515625 34.796875 47.421875 
C 34.796875 38.734375 29.703125 31.25 24 24.75 
L 4.09375 2.28125 
L 4.09375 0 
L 39.296875 0 
z
" id="CMR17-50"/>
       <path d="M 11.40625 57.6875 
C 12.40625 57.28125 16.5 56 20.703125 56 
C 30 56 35.09375 61.109375 38 64.0625 
C 38 64.953125 38 65.5 37.40625 65.5 
C 37.296875 65.5 37.09375 65.5 36.296875 65.046875 
C 32.796875 63.40625 28.703125 62.078125 23.703125 62.078125 
C 20.703125 62.078125 16.203125 62.484375 11.296875 64.671875 
C 10.203125 65.171875 10 65.171875 9.90625 65.171875 
C 9.40625 65.171875 9.296875 65.0625 9.296875 63.078125 
L 9.296875 34.421875 
C 9.296875 32.640625 9.296875 32.140625 10.296875 32.140625 
C 10.796875 32.140625 11 32.34375 11.5 33.03125 
C 14.703125 37.515625 19.09375 39.40625 24.09375 39.40625 
C 27.59375 39.40625 35.09375 37.21875 35.09375 20.140625 
C 35.09375 16.953125 35.09375 11.171875 32.09375 6.578125 
C 29.59375 2.484375 25.703125 0.390625 21.40625 0.390625 
C 14.796875 0.390625 8.09375 5 6.296875 12.71875 
C 6.703125 12.609375 7.5 12.421875 7.90625 12.421875 
C 9.203125 12.421875 11.703125 13.125 11.703125 16.21875 
C 11.703125 18.90625 9.796875 20 7.90625 20 
C 5.59375 20 4.09375 18.59375 4.09375 15.796875 
C 4.09375 7.09375 11 -2 21.59375 -2 
C 31.90625 -2 41.703125 6.875 41.703125 19.75 
C 41.703125 31.71875 33.90625 41 24.203125 41 
C 19.09375 41 14.796875 39.109375 11.40625 35.53125 
z
" id="CMR17-53"/>
      </defs>
      <g transform="translate(7.2 72.450285)scale(0.1 -0.1)">
       <use transform="scale(0.996264)" xlink:href="#CMR17-48"/>
       <use transform="translate(45.690477 0)scale(0.996264)" xlink:href="#CMMI12-58"/>
       <use transform="translate(72.787654 0)scale(0.996264)" xlink:href="#CMR17-50"/>
       <use transform="translate(118.478131 0)scale(0.996264)" xlink:href="#CMR17-53"/>
      </g>
     </g>
    </g>
    <g id="ytick_3">
     <g id="line2d_6">
      <g>
       <use style="stroke:#000000;stroke-width:0.8;" x="31.911414" xlink:href="#m5f00613503" y="25.863573"/>
      </g>
     </g>
     <g id="text_6">
      <!-- $0.50$ -->
      <g transform="translate(7.2 29.322822)scale(0.1 -0.1)">
       <use transform="scale(0.996264)" xlink:href="#CMR17-48"/>
       <use transform="translate(45.690477 0)scale(0.996264)" xlink:href="#CMMI12-58"/>
       <use transform="translate(72.787654 0)scale(0.996264)" xlink:href="#CMR17-53"/>
       <use transform="translate(118.478131 0)scale(0.996264)" xlink:href="#CMR17-48"/>
      </g>
     </g>
    </g>
   </g>
   <g id="patch_23">
    <path d="M 31.911414 112.118498 
L 31.911414 20.118498 
" style="fill:none;stroke:#000000;stroke-linecap:square;stroke-linejoin:miter;stroke-width:0.8;"/>
   </g>
   <g id="patch_24">
    <path d="M 307.911414 112.118498 
L 307.911414 20.118498 
" style="fill:none;stroke:#000000;stroke-linecap:square;stroke-linejoin:miter;stroke-width:0.8;"/>
   </g>
   <g id="patch_25">
    <path d="M 31.911414 112.118498 
L 307.911414 112.118498 
" style="fill:none;stroke:#000000;stroke-linecap:square;stroke-linejoin:miter;stroke-width:0.8;"/>
   </g>
   <g id="patch_26">
    <path d="M 31.911414 20.118498 
L 307.911414 20.118498 
" style="fill:none;stroke:#000000;stroke-linecap:square;stroke-linejoin:miter;stroke-width:0.8;"/>
   </g>
   <g id="text_7">
    <!-- \texttt{hist(x, bins=20, density=True)} -->
    <defs>
     <path d="M 41.796875 29.359375 
C 41.796875 39.171875 37.203125 43.796875 29 43.796875 
C 22.203125 43.796875 17.796875 40 16.09375 38.09375 
L 16.09375 56.9375 
C 16.09375 60.015625 15.5 61 12.09375 61 
L 5.5 61 
C 4.09375 61 1.5 61 1.5 58.109375 
C 1.5 55.203125 4.09375 55.203125 5.5 55.203125 
L 9.59375 55.203125 
L 9.59375 5.796875 
L 5.5 5.796875 
C 4.09375 5.796875 1.5 5.796875 1.5 2.90625 
C 1.5 0 4.09375 0 5.5 0 
L 20.203125 0 
C 21.59375 0 24.203125 0 24.203125 2.90625 
C 24.203125 5.796875 21.59375 5.796875 20.203125 5.796875 
L 16.09375 5.796875 
L 16.09375 23.953125 
C 16.09375 33.671875 22.90625 38 28.296875 38 
C 34.09375 38 35.296875 34.671875 35.296875 28.96875 
L 35.296875 5.796875 
L 31.203125 5.796875 
C 29.796875 5.796875 27.203125 5.796875 27.203125 2.90625 
C 27.203125 0 29.796875 0 31.203125 0 
L 45.90625 0 
C 47.296875 0 49.90625 0 49.90625 2.90625 
C 49.90625 5.796875 47.296875 5.796875 45.90625 5.796875 
L 41.796875 5.796875 
z
" id="CMTT12-104"/>
     <path d="M 30.203125 56.5 
C 30.203125 59 28.203125 61 25.703125 61 
C 23.203125 61 21.203125 59 21.203125 56.5 
C 21.203125 54 23.203125 52 25.703125 52 
C 28.203125 52 30.203125 54 30.203125 56.5 
z
M 13 43 
C 11.59375 43 9 43 9 40.109375 
C 9 37.203125 11.59375 37.203125 13 37.203125 
L 23.703125 37.203125 
L 23.703125 5.796875 
L 12.296875 5.796875 
C 10.90625 5.796875 8.203125 5.796875 8.203125 2.90625 
C 8.203125 0 10.90625 0 12.296875 0 
L 40.09375 0 
C 41.5 0 44.09375 0 44.09375 2.90625 
C 44.09375 5.796875 41.5 5.796875 40.09375 5.796875 
L 30.203125 5.796875 
L 30.203125 38.921875 
C 30.203125 42 29.59375 43 26.203125 43 
z
" id="CMTT12-105"/>
     <path d="M 42 40.203125 
C 42 41.796875 42 44 39.203125 44 
C 36.796875 44 36.203125 41.703125 36.203125 41.59375 
C 32.203125 44 27.59375 44 25.59375 44 
C 9.296875 44 7.09375 35.71875 7.09375 32.328125 
C 7.09375 28.234375 9.5 25.453125 12.90625 23.546875 
C 16.09375 21.75 19 21.265625 27.203125 19.96875 
C 31.09375 19.265625 39.09375 17.96875 39.09375 12.484375 
C 39.09375 8.78125 35.703125 5.296875 26.40625 5.296875 
C 20 5.296875 15.796875 7.796875 13.703125 15 
C 13.203125 16.390625 12.90625 17.5 10.40625 17.5 
C 7.09375 17.5 7.09375 15.59375 7.09375 13.59375 
L 7.09375 3.296875 
C 7.09375 1.6875 7.09375 -0.5 9.90625 -0.5 
C 11.09375 -0.5 12 -0.5 13.5 3.59375 
C 18.09375 -0.5 23.296875 -0.5 26.40625 -0.5 
C 44.90625 -0.5 44.90625 11.46875 44.90625 12.46875 
C 44.90625 22.828125 32.5 24.9375 27.703125 25.625 
C 18.90625 27.125 12.90625 28.125 12.90625 32.3125 
C 12.90625 35.015625 16 38.203125 25.40625 38.203125 
C 34.90625 38.203125 35.296875 33.703125 35.5 31.09375 
C 35.703125 29.09375 37.5 28.796875 38.703125 28.796875 
C 42 28.796875 42 30.59375 42 32.59375 
z
" id="CMTT12-115"/>
     <path d="M 21.59375 37.203125 
L 37.796875 37.203125 
C 39.203125 37.203125 41.796875 37.203125 41.796875 40.109375 
C 41.796875 43 39.203125 43 37.796875 43 
L 21.59375 43 
L 21.59375 51.328125 
C 21.59375 53.15625 21.59375 55.5 18.40625 55.5 
C 15.09375 55.5 15.09375 53.15625 15.09375 51.328125 
L 15.09375 43 
L 6.59375 43 
C 5.203125 43 2.5 43 2.5 40.109375 
C 2.5 37.203125 5.09375 37.203125 6.5 37.203125 
L 15.09375 37.203125 
L 15.09375 12.125 
C 15.09375 2.875 21.5 -0.5 28.703125 -0.5 
C 34.09375 -0.5 44 2.171875 44 12.34375 
C 44 14.34375 44 16.53125 40.703125 16.53125 
C 37.5 16.53125 37.5 14.34375 37.5 12.265625 
C 37.40625 6.296875 31.703125 5.296875 29.40625 5.296875 
C 21.59375 5.296875 21.59375 10.265625 21.59375 12.640625 
z
" id="CMTT12-116"/>
     <path d="M 42.796875 -5.40625 
C 42.796875 -4.125 42.09375 -3.71875 40.703125 -2.71875 
C 26.90625 6.765625 23.5 21.015625 23.5 30.703125 
C 23.5 40.171875 26.703125 54.546875 40.703125 64.203125 
C 42.09375 65.203125 42.796875 65.609375 42.796875 66.890625 
C 42.796875 67.890625 42.296875 69.5 39.90625 69.5 
C 37.40625 69.5 30 63.703125 25.40625 57.21875 
C 19.796875 49.4375 17 40.171875 17 30.703125 
C 17 19.625 21 10.34375 25.203125 4.46875 
C 29.796875 -1.921875 37.09375 -8 39.90625 -8 
C 42.296875 -8 42.796875 -6.296875 42.796875 -5.40625 
z
" id="CMTT12-40"/>
     <path d="M 28.203125 22.15625 
L 39.703125 37.203125 
L 43.203125 37.203125 
C 44.59375 37.203125 47.203125 37.203125 47.203125 40.109375 
C 47.203125 43 44.59375 43 43.203125 43 
L 32.09375 43 
C 30.703125 43 28.09375 43 28.09375 40.109375 
C 28.09375 37.203125 30.5 37.203125 32.90625 37.203125 
L 25.40625 26.9375 
L 17.703125 37.203125 
C 20 37.203125 22.40625 37.203125 22.40625 40.109375 
C 22.40625 43 19.796875 43 18.40625 43 
L 7.296875 43 
C 5.90625 43 3.296875 43 3.296875 40.109375 
C 3.296875 37.203125 5.90625 37.203125 7.296875 37.203125 
L 10.796875 37.203125 
L 22.703125 22.140625 
L 10.203125 5.796875 
L 6.796875 5.796875 
C 5.40625 5.796875 2.703125 5.796875 2.703125 2.90625 
C 2.703125 0 5.40625 0 6.796875 0 
L 17.796875 0 
C 19.203125 0 21.796875 0 21.796875 2.90625 
C 21.796875 5.796875 19.5 5.796875 16.796875 5.796875 
L 25.40625 18.359375 
L 34.40625 5.796875 
C 31.90625 5.796875 29.5 5.796875 29.5 2.90625 
C 29.5 0 32.09375 0 33.5 0 
L 44.59375 0 
C 46 0 48.59375 0 48.59375 2.90625 
C 48.59375 5.796875 46 5.796875 44.59375 5.796875 
L 41.09375 5.796875 
z
" id="CMTT12-120"/>
     <path d="M 27.59375 0.296875 
C 27.09375 -2.8125 25.09375 -6.640625 20.203125 -8.359375 
C 19.296875 -8.5625 17.796875 -9.0625 17.796875 -10.984375 
C 17.796875 -12.28125 19.296875 -14 20.90625 -14 
C 23.59375 -14 33.5 -9.078125 33.5 1.765625 
C 33.5 7.078125 30.203125 11.296875 25.796875 11.296875 
C 22.09375 11.296875 20.09375 8.40625 20.09375 5.703125 
C 20.09375 2.40625 22.59375 0 25.703125 0 
C 26.296875 0 27 0.09375 27.59375 0.296875 
z
" id="CMTT12-44"/>
     <path d="M 16.09375 56.9375 
C 16.09375 60.015625 15.5 61 12.09375 61 
L 5.5 61 
C 4.09375 61 1.5 61 1.5 58.109375 
C 1.5 55.203125 4.09375 55.203125 5.5 55.203125 
L 9.59375 55.203125 
L 9.59375 4.09375 
C 9.59375 2.296875 9.59375 0 12.90625 0 
C 16.09375 0 16.09375 2.140625 16.09375 5.09375 
C 18.5 2.390625 22.203125 -0.5 27.796875 -0.5 
C 38.40625 -0.5 47.703125 9 47.703125 21.6875 
C 47.703125 34 39.296875 43.796875 28.90625 43.796875 
C 21.59375 43.796875 17 39.40625 16.09375 38.40625 
z
M 16.09375 26.6875 
C 16.09375 32.390625 21.703125 38 28.203125 38 
C 35.40625 38 41.203125 30.6875 41.203125 21.6875 
C 41.203125 12.09375 34.40625 5.296875 27.296875 5.296875 
C 19.796875 5.296875 16.09375 13.796875 16.09375 18.796875 
z
" id="CMTT12-98"/>
     <path d="M 41.796875 29.359375 
C 41.796875 39.171875 37.203125 43.796875 29 43.796875 
C 22.203125 43.796875 17.796875 40 16.09375 38.09375 
C 16.09375 41.65625 16.09375 43 12.09375 43 
L 5.5 43 
C 4.09375 43 1.5 43 1.5 40.109375 
C 1.5 37.203125 4.09375 37.203125 5.5 37.203125 
L 9.59375 37.203125 
L 9.59375 5.796875 
L 5.5 5.796875 
C 4.09375 5.796875 1.5 5.796875 1.5 2.90625 
C 1.5 0 4.09375 0 5.5 0 
L 20.203125 0 
C 21.59375 0 24.203125 0 24.203125 2.90625 
C 24.203125 5.796875 21.59375 5.796875 20.203125 5.796875 
L 16.09375 5.796875 
L 16.09375 23.953125 
C 16.09375 33.671875 22.90625 38 28.296875 38 
C 34.09375 38 35.296875 34.671875 35.296875 28.96875 
L 35.296875 5.796875 
L 31.203125 5.796875 
C 29.796875 5.796875 27.203125 5.796875 27.203125 2.90625 
C 27.203125 0 29.796875 0 31.203125 0 
L 45.90625 0 
C 47.296875 0 49.90625 0 49.90625 2.90625 
C 49.90625 5.796875 47.296875 5.796875 45.90625 5.796875 
L 41.796875 5.796875 
z
" id="CMTT12-110"/>
     <path d="M 43.40625 35 
C 44.703125 35 47.703125 35 47.703125 38.1875 
C 47.703125 41.5 44.40625 41.5 42.90625 41.5 
L 8.5 41.5 
C 7 41.5 3.703125 41.5 3.703125 38.1875 
C 3.703125 35 6.796875 35 8 35 
z
M 42.90625 20 
C 44.40625 20 47.703125 20 47.703125 23.296875 
C 47.703125 26.5 44.59375 26.5 43.40625 26.5 
L 8 26.5 
C 6.703125 26.5 3.703125 26.5 3.703125 23.296875 
C 3.703125 20 7 20 8.5 20 
z
" id="CMTT12-61"/>
     <path d="M 34.796875 21.921875 
C 36.203125 23.109375 46.296875 31.65625 46.296875 42.71875 
C 46.296875 54.046875 36.90625 62 24.40625 62 
C 12.796875 62 5.09375 53.328125 5.09375 44.984375 
C 5.09375 40.796875 8.59375 40.5 9.203125 40.5 
C 11 40.5 13.203125 41.875 13.203125 44.5625 
C 13.203125 46.453125 12.5 47.046875 12 47.453125 
C 13.40625 52.71875 18 56.203125 23.796875 56.203125 
C 32.296875 56.203125 39.796875 51.328125 39.796875 42.6875 
C 39.796875 34.90625 33.90625 28.9375 28.5 24.28125 
L 6.5 5.265625 
C 5.40625 4.375 5.09375 4.078125 5.09375 2.890625 
C 5.09375 0 7.796875 0 9.203125 0 
L 44.09375 0 
C 46.296875 0.59375 46.296875 2.578125 46.296875 4.078125 
L 46.296875 6.1875 
C 46.296875 7.96875 46.296875 10.265625 43.09375 10.265625 
C 39.796875 10.265625 39.796875 8.1875 39.796875 5.796875 
L 15.703125 5.796875 
z
" id="CMTT12-50"/>
     <path d="M 46.40625 30.84375 
C 46.40625 49.53125 36.5 62.796875 25.703125 62.796875 
C 14.796875 62.796875 5 49.34375 5 30.953125 
C 5 12.265625 14.90625 -1 25.703125 -1 
C 36.59375 -1 46.40625 12.46875 46.40625 30.84375 
z
M 25.703125 4.796875 
C 17.796875 4.796875 11.5 16.96875 11.5 31.953125 
C 11.5 46.9375 18.40625 57 25.703125 57 
C 33 57 39.90625 46.9375 39.90625 31.953125 
C 39.90625 17.0625 33.59375 4.796875 25.703125 4.796875 
z
" id="CMTT12-48"/>
     <path d="M 41.796875 56.90625 
C 41.796875 60 41.203125 61 37.796875 61 
L 31.203125 61 
C 29.796875 61 27.203125 61 27.203125 58.109375 
C 27.203125 55.203125 29.796875 55.203125 31.203125 55.203125 
L 35.296875 55.203125 
L 35.296875 38.796875 
C 33.703125 40.390625 29.59375 43.796875 23.5 43.796875 
C 12.90625 43.796875 3.703125 34.1875 3.703125 21.59375 
C 3.703125 9.296875 12.296875 -0.5 22.59375 -0.5 
C 29.09375 -0.5 33.40625 3.359375 35.296875 5.546875 
C 35.296875 1.3125 35.296875 0 39.296875 0 
L 45.90625 0 
C 47.296875 0 49.90625 0 49.90625 2.90625 
C 49.90625 5.796875 47.296875 5.796875 45.90625 5.796875 
L 41.796875 5.796875 
z
M 35.296875 19.09375 
C 35.296875 13.5 30.703125 5.296875 23.203125 5.296875 
C 16 5.296875 10.203125 12.59375 10.203125 21.59375 
C 10.203125 31.1875 17 38 24.09375 38 
C 30.59375 38 35.296875 32.09375 35.296875 26.890625 
z
" id="CMTT12-100"/>
     <path d="M 41.59375 19.5 
C 43.703125 19.5 45.59375 19.5 45.59375 23.15625 
C 45.59375 34.703125 39 44 26.5 44 
C 14.90625 44 5.59375 34.015625 5.59375 21.84375 
C 5.59375 9.28125 15.703125 -0.5 28 -0.5 
C 40.90625 -0.5 45.59375 8.453125 45.59375 11.078125 
C 45.59375 11.6875 45.40625 13.921875 42.296875 13.921875 
C 40.40625 13.921875 39.796875 13.203125 39.203125 11.6875 
C 36.703125 5.796875 30.203125 5.296875 28.296875 5.296875 
C 20 5.296875 13.40625 11.6875 12.296875 19.5 
z
M 12.40625 25 
C 13.703125 33.3125 20.203125 38.203125 26.5 38.203125 
C 36.5 38.203125 38.59375 29.890625 39 25 
z
" id="CMTT12-101"/>
     <path d="M 42.40625 37.203125 
L 45 37.203125 
C 46.40625 37.203125 49.09375 37.203125 49.09375 40.109375 
C 49.09375 43 46.40625 43 45 43 
L 34 43 
C 32.59375 43 29.90625 43 29.90625 40.109375 
C 29.90625 37.203125 32.59375 37.203125 34 37.203125 
L 36.5 37.203125 
C 33.703125 29.0625 28 12.515625 26.59375 6.859375 
L 26.5 6.859375 
C 26 9.046875 25.59375 10.125 24.59375 12.8125 
L 15.296875 37.203125 
L 17.59375 37.203125 
C 19 37.203125 21.703125 37.203125 21.703125 40.109375 
C 21.703125 43 19 43 17.59375 43 
L 6.59375 43 
C 5.203125 43 2.5 43 2.5 40.109375 
C 2.5 37.203125 5.203125 37.203125 6.59375 37.203125 
L 9.296875 37.203125 
L 23.296875 1.46875 
C 23.703125 0.46875 23.703125 0.265625 23.703125 0.171875 
C 23.703125 -0.03125 21.09375 -8.671875 19.59375 -11.4375 
C 19 -12.4375 16.5 -17.109375 11.703125 -16.609375 
C 11.796875 -16.296875 12.09375 -15.703125 12.09375 -14.609375 
C 12.09375 -12.296875 10.5 -10.703125 8.203125 -10.703125 
C 5.703125 -10.703125 4.203125 -12.40625 4.203125 -14.703125 
C 4.203125 -18.5 7.40625 -22.5 12.40625 -22.5 
C 22.09375 -22.5 26.40625 -9.6875 26.703125 -8.890625 
z
" id="CMTT12-121"/>
     <path d="M 29 55.203125 
L 42.296875 55.203125 
L 42.296875 50.328125 
C 42.296875 48.515625 42.296875 46.21875 45.5 46.21875 
C 48.796875 46.21875 48.796875 48.421875 48.796875 50.328125 
L 48.796875 56.90625 
C 48.796875 60 48.203125 61 44.796875 61 
L 6.703125 61 
C 3.40625 61 2.59375 60.203125 2.59375 56.90625 
L 2.59375 50.328125 
C 2.59375 48.515625 2.59375 46.21875 5.796875 46.21875 
C 9.09375 46.21875 9.09375 48.421875 9.09375 50.328125 
L 9.09375 55.203125 
L 22.5 55.203125 
L 22.5 5.796875 
L 17.703125 5.796875 
C 16.296875 5.796875 13.703125 5.796875 13.703125 2.90625 
C 13.703125 0 16.296875 0 17.703125 0 
L 33.796875 0 
C 35.203125 0 37.796875 0 37.796875 2.90625 
C 37.796875 5.796875 35.203125 5.796875 33.796875 5.796875 
L 29 5.796875 
z
" id="CMTT12-84"/>
     <path d="M 21.59375 18.9375 
C 21.59375 30.875 30 38 38.5 38 
C 39 38 39.59375 38 40.09375 37.890625 
C 40.40625 34.140625 43.203125 33.828125 43.90625 33.828125 
C 46.203125 33.828125 47.796875 35.546875 47.796875 37.78125 
C 47.796875 42.15625 43.59375 43.796875 38.59375 43.796875 
C 31.90625 43.796875 26.203125 40.734375 21.59375 35.015625 
L 21.59375 38.921875 
C 21.59375 42 21 43 17.59375 43 
L 7.5 43 
C 6.09375 43 3.5 43 3.5 40.109375 
C 3.5 37.203125 6.09375 37.203125 7.5 37.203125 
L 15.09375 37.203125 
L 15.09375 5.796875 
L 7.5 5.796875 
C 6.09375 5.796875 3.5 5.796875 3.5 2.90625 
C 3.5 0 6.09375 0 7.5 0 
L 32.09375 0 
C 33.5 0 36.09375 0 36.09375 2.90625 
C 36.09375 5.796875 33.5 5.796875 32.09375 5.796875 
L 21.59375 5.796875 
z
" id="CMTT12-114"/>
     <path d="M 41.796875 38.921875 
C 41.796875 42 41.203125 43 37.796875 43 
L 31.203125 43 
C 29.796875 43 27.203125 43 27.203125 40.109375 
C 27.203125 37.203125 29.796875 37.203125 31.203125 37.203125 
L 35.296875 37.203125 
L 35.296875 15.625 
C 35.296875 7.484375 28.5 5.296875 24 5.296875 
C 16.09375 5.296875 16.09375 8.875 16.09375 11.96875 
L 16.09375 38.921875 
C 16.09375 42 15.5 43 12.09375 43 
L 5.5 43 
C 4.09375 43 1.5 43 1.5 40.109375 
C 1.5 37.203125 4.09375 37.203125 5.5 37.203125 
L 9.59375 37.203125 
L 9.59375 11.4375 
C 9.59375 2.28125 15.59375 -0.5 23.296875 -0.5 
C 29.40625 -0.5 33.203125 1.984375 35.203125 3.671875 
C 35.203125 0 37.59375 0 39.296875 0 
L 45.90625 0 
C 47.296875 0 49.90625 0 49.90625 2.90625 
C 49.90625 5.796875 47.296875 5.796875 45.90625 5.796875 
L 41.796875 5.796875 
z
" id="CMTT12-117"/>
     <path d="M 34.40625 30.703125 
C 34.40625 38.46875 32.5 48.5625 25.296875 58.21875 
C 21.90625 62.8125 14.5 69.5 11.5 69.5 
C 9.203125 69.5 8.59375 67.796875 8.59375 66.890625 
C 8.59375 65.703125 9.296875 65.203125 11.09375 64.015625 
C 23.296875 55.421875 27.90625 42.078125 27.90625 30.796875 
C 27.90625 21.8125 25 7.15625 10.703125 -2.71875 
C 9.40625 -3.625 8.59375 -4.125 8.59375 -5.40625 
C 8.59375 -6.296875 9.203125 -8 11.5 -8 
C 14 -8 21.40625 -2.21875 26 4.265625 
C 31.796875 12.453125 34.40625 21.8125 34.40625 30.703125 
z
" id="CMTT12-41"/>
    </defs>
    <g transform="translate(91.456308 14.118498)scale(0.1 -0.1)">
     <use transform="scale(0.996264)" xlink:href="#CMTT12-104"/>
     <use transform="translate(51.266111 0)scale(0.996264)" xlink:href="#CMTT12-105"/>
     <use transform="translate(102.532222 0)scale(0.996264)" xlink:href="#CMTT12-115"/>
     <use transform="translate(153.798333 0)scale(0.996264)" xlink:href="#CMTT12-116"/>
     <use transform="translate(205.064443 0)scale(0.996264)" xlink:href="#CMTT12-40"/>
     <use transform="translate(256.330554 0)scale(0.996264)" xlink:href="#CMTT12-120"/>
     <use transform="translate(307.596665 0)scale(0.996264)" xlink:href="#CMTT12-44"/>
     <use transform="translate(410.128887 0)scale(0.996264)" xlink:href="#CMTT12-98"/>
     <use transform="translate(461.394998 0)scale(0.996264)" xlink:href="#CMTT12-105"/>
     <use transform="translate(512.661108 0)scale(0.996264)" xlink:href="#CMTT12-110"/>
     <use transform="translate(563.927219 0)scale(0.996264)" xlink:href="#CMTT12-115"/>
     <use transform="translate(615.19333 0)scale(0.996264)" xlink:href="#CMTT12-61"/>
     <use transform="translate(666.459441 0)scale(0.996264)" xlink:href="#CMTT12-50"/>
     <use transform="translate(717.725552 0)scale(0.996264)" xlink:href="#CMTT12-48"/>
     <use transform="translate(768.991663 0)scale(0.996264)" xlink:href="#CMTT12-44"/>
     <use transform="translate(871.523884 0)scale(0.996264)" xlink:href="#CMTT12-100"/>
     <use transform="translate(922.789995 0)scale(0.996264)" xlink:href="#CMTT12-101"/>
     <use transform="translate(974.056106 0)scale(0.996264)" xlink:href="#CMTT12-110"/>
     <use transform="translate(1025.322217 0)scale(0.996264)" xlink:href="#CMTT12-115"/>
     <use transform="translate(1076.588328 0)scale(0.996264)" xlink:href="#CMTT12-105"/>
     <use transform="translate(1127.854439 0)scale(0.996264)" xlink:href="#CMTT12-116"/>
     <use transform="translate(1179.12055 0)scale(0.996264)" xlink:href="#CMTT12-121"/>
     <use transform="translate(1230.38666 0)scale(0.996264)" xlink:href="#CMTT12-61"/>
     <use transform="translate(1281.652771 0)scale(0.996264)" xlink:href="#CMTT12-84"/>
     <use transform="translate(1332.918882 0)scale(0.996264)" xlink:href="#CMTT12-114"/>
     <use transform="translate(1384.184993 0)scale(0.996264)" xlink:href="#CMTT12-117"/>
     <use transform="translate(1435.451104 0)scale(0.996264)" xlink:href="#CMTT12-101"/>
     <use transform="translate(1486.717215 0)scale(0.996264)" xlink:href="#CMTT12-41"/>
    </g>
   </g>
  </g>
 </g>
 <defs>
  <clipPath id="pdb61875a24">
   <rect height="92" width="276" x="31.911414" y="20.118498"/>
  </clipPath>
 </defs>
</svg>
