<?xml version="1.0" standalone="no"?>
<!DOCTYPE svg PUBLIC "-//W3C//DTD SVG 1.1//EN"
  "http://www.w3.org/Graphics/SVG/1.1/DTD/svg11.dtd">
<!-- Created with matplotlib (http://matplotlib.sourceforge.net/) -->
<svg width="340pt" height="56pt" viewBox="0 0 340 56"
   xmlns="http://www.w3.org/2000/svg"
   xmlns:xlink="http://www.w3.org/1999/xlink"
   version="1.1"
   id="svg1">
<filter id="colorAdd"><feComposite in="SourceGraphic" in2="BackgroundImage" operator="arithmetic" k2="1" k3="1"/></filter>
<g id="figure1">
<g id="patch1">
<path style="fill: #ffffff; stroke: #ffffff; stroke-width: 1.000000; stroke-linejoin: round; stroke-linecap: square;  opacity: 1.000000"  d="M0.000000 56.692913L340.157480 56.692913L340.157480 0.000000
L0.000000 0.000000z"/>
</g>
<g id="axes1">
<g id="patch2">
<path style="fill: #ffffff; opacity: 1.000000"  d="M42.519685 45.354331L306.141732 45.354331L306.141732 5.669291
L42.519685 5.669291z"/>
</g>
<g id="patch3">
<defs>
  <clipPath id="p0a0ac5fcb8a5f5853e508140f59dd8a9">
<rect x="42.519685" y="5.669291" width="263.622047" height="39.685039"/>
  </clipPath>
</defs><path style="fill: #eeeeee; opacity: 1.000000" clip-path="url(#p0a0ac5fcb8a5f5853e508140f59dd8a9)" d="M-89.291339 81.431639L86.456693 81.431639L86.456693 -26.800286
L-89.291339 -26.800286z"/>
</g>
<g id="patch4">
<path style="fill: #eeeeee; opacity: 1.000000" clip-path="url(#p0a0ac5fcb8a5f5853e508140f59dd8a9)" d="M262.204724 81.431639L437.952756 81.431639L437.952756 -26.800286
L262.204724 -26.800286z"/>
</g>
<g id="line2d1">
<path style="fill: none; stroke: #000000; stroke-width: 0.750000; stroke-linejoin: round; stroke-linecap: square;  opacity: 1.000000" clip-path="url(#p0a0ac5fcb8a5f5853e508140f59dd8a9)" d="M86.456693 45.347865L204.682394 45.208225L207.213165 44.899201
L208.162205 45.030842L209.163969 45.205092L209.902110 44.559127
L210.657827 43.584735L211.483843 42.129217L212.432882 39.970139
L213.698268 36.476158L215.965417 30.168598L216.809008 28.506088
L217.441701 27.698498L217.968945 27.357691L218.425890 27.320433
L218.865260 27.512281L219.357354 27.984330L219.954898 28.895713
L220.710614 30.499797L221.765102 33.323262L224.594646 41.150705
L225.578835 43.105816L226.422425 44.320581L227.213291 45.090151
L227.670236 45.318584L228.461102 45.007672L229.357417 44.898628
L230.570079 44.996004L233.382047 45.295751L235.332850 45.227242
L250.429606 45.344652L262.187150 45.354326L262.187150 45.354326"/>
</g>
<g id="matplotlib.axis1">
<g id="xtick1">
<g id="line2d2">
<path style="fill: none; stroke: #000000; stroke-width: 0.500000; stroke-linejoin: round; stroke-linecap: butt; stroke-dasharray: 1.000000,3.000000; stroke-dashoffset: 0.000000; opacity: 1.000000" clip-path="url(#p0a0ac5fcb8a5f5853e508140f59dd8a9)" d="M86.456693 45.354331L86.456693 5.669291"/>
</g>
<g id="line2d3">
<defs><path id="m30e32995789d870ad79a2e54c91cf9c6" d="M0.000000 0.000000L0.000000 -4.000000"/></defs>
<g ><use style="fill: none; stroke: #000000; stroke-width: 0.500000; stroke-linejoin: round; stroke-linecap: butt;  opacity: 1.000000" xlink:href="#m30e32995789d870ad79a2e54c91cf9c6" x="86.456693" y="45.354331"/>
</g></g>
<g id="line2d4">
<defs><path id="m9281cae24120827b11d5ea8a7ad3e96b" d="M0.000000 0.000000L0.000000 4.000000"/></defs>
<g ><use style="fill: none; stroke: #000000; stroke-width: 0.500000; stroke-linejoin: round; stroke-linecap: butt;  opacity: 1.000000" xlink:href="#m9281cae24120827b11d5ea8a7ad3e96b" x="86.456693" y="5.669291"/>
</g></g>
<g id="text1">
<defs>
<path id="CMR17-48" d="M21.000000 16.875000
C21.000000 19.921875 20.953125 25.140625 18.843750 29.140625
C17.000000 32.656250 14.046875 33.890625 11.453125 33.890625
C9.046875 33.890625 6.000000 32.796875 4.093750 29.187500
C2.093750 25.437500 1.906250 20.765625 1.906250 16.875000
C1.906250 14.015625 1.953125 9.656250 3.500000 5.859375
C5.656250 0.703125 9.500000 0.000000 11.453125 0.000000
C13.750000 0.000000 17.250000 0.953125 19.296875 5.703125
C20.796875 9.156250 21.000000 13.218750 21.000000 16.875000
M11.453125 0.796875C8.250000 0.796875 6.343750 3.546875 5.656250 7.359375
C5.093750 10.312500 5.093750 14.625000 5.093750 17.437500
C5.093750 21.281250 5.093750 24.500000 5.750000 27.562500
C6.703125 31.796875 9.500000 33.109375 11.453125 33.109375
C13.500000 33.109375 16.156250 31.750000 17.093750 27.656250
C17.750000 24.796875 17.796875 21.437500 17.796875 17.437500
C17.796875 14.171875 17.796875 10.171875 17.203125 7.218750
C16.156250 1.750000 13.203125 0.796875 11.453125 0.796875"/>
</defs>
<g style="fill: #000000; opacity: 1.000000" transform="translate(84.339601,54.490633)scale(0.160000,-0.160000)">
<use xlink:href="#CMR17-48" x="0.000000" y="0.000000" transform="scale(0.996264)"/>
</g><!-- style -->
</g>
</g>
<g id="xtick2">
<g id="line2d5">
<path style="fill: none; stroke: #000000; stroke-width: 0.500000; stroke-linejoin: round; stroke-linecap: butt; stroke-dasharray: 1.000000,3.000000; stroke-dashoffset: 0.000000; opacity: 1.000000" clip-path="url(#p0a0ac5fcb8a5f5853e508140f59dd8a9)" d="M262.204724 45.354331L262.204724 5.669291"/>
</g>
<g id="line2d6">
<g ><use style="fill: none; stroke: #000000; stroke-width: 0.500000; stroke-linejoin: round; stroke-linecap: butt;  opacity: 1.000000" xlink:href="#m30e32995789d870ad79a2e54c91cf9c6" x="262.204724" y="45.354331"/>
</g></g>
<g id="line2d7">
<g ><use style="fill: none; stroke: #000000; stroke-width: 0.500000; stroke-linejoin: round; stroke-linecap: butt;  opacity: 1.000000" xlink:href="#m9281cae24120827b11d5ea8a7ad3e96b" x="262.204724" y="5.669291"/>
</g></g>
<g id="text2">
<defs>
<path id="CMR17-50" d="M20.843750 7.609375L19.953125 7.609375
C19.453125 4.156250 19.046875 3.562500 18.843750 3.265625
C18.593750 2.890625 15.000000 2.890625 14.296875 2.890625L4.703125 2.890625
C6.500000 4.843750 10.000000 8.390625 14.250000 12.500000
C17.296875 15.390625 20.843750 18.796875 20.843750 23.750000
C20.843750 29.656250 16.156250 33.046875 10.906250 33.046875
C5.406250 33.046875 2.046875 27.984375 2.046875 23.296875
C2.046875 21.265625 3.500000 21.000000 4.093750 21.000000
C4.593750 21.000000 6.093750 21.296875 6.093750 23.046875
C6.093750 24.593750 4.796875 25.031250 4.093750 25.031250
C3.796875 25.031250 3.500000 24.984375 3.296875 24.875000
C4.250000 29.500000 7.156250 31.765625 10.203125 31.765625
C14.546875 31.765625 17.406250 28.328125 17.406250 23.765625
C17.406250 19.406250 14.843750 15.656250 12.000000 12.406250
L2.046875 1.140625L2.046875 0.000000L19.656250 0.000000z"/>
<path id="CMR17-48" d="M21.000000 16.875000
C21.000000 19.921875 20.953125 25.140625 18.843750 29.140625
C17.000000 32.656250 14.046875 33.890625 11.453125 33.890625
C9.046875 33.890625 6.000000 32.796875 4.093750 29.187500
C2.093750 25.437500 1.906250 20.765625 1.906250 16.875000
C1.906250 14.015625 1.953125 9.656250 3.500000 5.859375
C5.656250 0.703125 9.500000 0.000000 11.453125 0.000000
C13.750000 0.000000 17.250000 0.953125 19.296875 5.703125
C20.796875 9.156250 21.000000 13.218750 21.000000 16.875000
M11.453125 0.796875C8.250000 0.796875 6.343750 3.546875 5.656250 7.359375
C5.093750 10.312500 5.093750 14.625000 5.093750 17.437500
C5.093750 21.281250 5.093750 24.500000 5.750000 27.562500
C6.703125 31.796875 9.500000 33.109375 11.453125 33.109375
C13.500000 33.109375 16.156250 31.750000 17.093750 27.656250
C17.750000 24.796875 17.796875 21.437500 17.796875 17.437500
C17.796875 14.171875 17.796875 10.171875 17.203125 7.218750
C16.156250 1.750000 13.203125 0.796875 11.453125 0.796875"/>
<path id="CMR17-53" d="M5.703125 29.843750
C6.203125 29.640625 8.250000 29.000000 10.343750 29.000000
C15.000000 29.000000 17.546875 31.500000 19.000000 32.953125
C19.000000 33.359375 19.000000 33.625000 18.703125 33.625000
C18.656250 33.625000 18.546875 33.625000 18.156250 33.421875
C16.406250 32.640625 14.343750 32.031250 11.843750 32.031250
C10.343750 32.031250 8.093750 32.234375 5.656250 33.375000
C5.093750 33.625000 5.000000 33.625000 4.953125 33.625000
C4.703125 33.625000 4.656250 33.578125 4.656250 32.578125
L4.656250 18.140625
C4.656250 17.250000 4.656250 17.000000 5.156250 17.000000
C5.406250 17.000000 5.500000 17.109375 5.750000 17.500000
C7.343750 20.046875 9.546875 21.109375 12.046875 21.109375
C13.796875 21.109375 17.546875 19.984375 17.546875 11.281250
C17.546875 9.640625 17.546875 6.703125 16.046875 4.359375
C14.796875 2.265625 12.843750 1.187500 10.703125 1.187500
C7.406250 1.187500 4.046875 3.515625 3.156250 7.375000
C3.343750 7.328125 3.750000 7.218750 3.953125 7.218750
C4.593750 7.218750 5.843750 7.562500 5.843750 9.109375
C5.843750 10.453125 4.906250 11.000000 3.953125 11.000000
C2.796875 11.000000 2.046875 10.296875 2.046875 8.890625
C2.046875 4.546875 5.500000 0.000000 10.796875 0.000000
C15.953125 0.000000 20.843750 4.531250 20.843750 11.078125
C20.843750 17.171875 16.953125 21.890625 12.093750 21.890625
C9.546875 21.890625 7.406250 20.875000 5.703125 18.906250z"/>
</defs>
<g style="fill: #000000; opacity: 1.000000" transform="translate(251.619267,54.490633)scale(0.160000,-0.160000)">
<use xlink:href="#CMR17-50" x="0.000000" y="0.000000" transform="scale(0.996264)"/>
<use xlink:href="#CMR17-50" x="22.930908" y="0.000000" transform="scale(0.996264)"/>
<use xlink:href="#CMR17-48" x="45.861816" y="0.000000" transform="scale(0.996264)"/>
<use xlink:href="#CMR17-53" x="68.792725" y="0.000000" transform="scale(0.996264)"/>
<use xlink:href="#CMR17-48" x="91.723633" y="0.000000" transform="scale(0.996264)"/>
</g><!-- style -->
</g>
</g>
</g>
<g id="matplotlib.axis2">
<g id="ytick1">
<g id="line2d8">
<path style="fill: none; stroke: #000000; stroke-width: 0.500000; stroke-linejoin: round; stroke-linecap: butt; stroke-dasharray: 1.000000,3.000000; stroke-dashoffset: 0.000000; opacity: 1.000000" clip-path="url(#p0a0ac5fcb8a5f5853e508140f59dd8a9)" d="M42.519685 45.354331L306.141732 45.354331"/>
</g>
<g id="line2d9">
<defs><path id="m3400efa6b1638b3fea9e19e898273957" d="M0.000000 0.000000L4.000000 0.000000"/></defs>
<g ><use style="fill: none; stroke: #000000; stroke-width: 0.500000; stroke-linejoin: round; stroke-linecap: butt;  opacity: 1.000000" xlink:href="#m3400efa6b1638b3fea9e19e898273957" x="42.519685" y="45.354331"/>
</g></g>
<g id="line2d10">
<defs><path id="m20b58b2501143cb5e0a5e8f1ef6f1643" d="M0.000000 0.000000L-4.000000 0.000000"/></defs>
<g ><use style="fill: none; stroke: #000000; stroke-width: 0.500000; stroke-linejoin: round; stroke-linecap: butt;  opacity: 1.000000" xlink:href="#m20b58b2501143cb5e0a5e8f1ef6f1643" x="306.141732" y="45.354331"/>
</g></g>
<g id="text3">
<defs>
<path id="CMR17-50" d="M20.843750 7.609375L19.953125 7.609375
C19.453125 4.156250 19.046875 3.562500 18.843750 3.265625
C18.593750 2.890625 15.000000 2.890625 14.296875 2.890625L4.703125 2.890625
C6.500000 4.843750 10.000000 8.390625 14.250000 12.500000
C17.296875 15.390625 20.843750 18.796875 20.843750 23.750000
C20.843750 29.656250 16.156250 33.046875 10.906250 33.046875
C5.406250 33.046875 2.046875 27.984375 2.046875 23.296875
C2.046875 21.265625 3.500000 21.000000 4.093750 21.000000
C4.593750 21.000000 6.093750 21.296875 6.093750 23.046875
C6.093750 24.593750 4.796875 25.031250 4.093750 25.031250
C3.796875 25.031250 3.500000 24.984375 3.296875 24.875000
C4.250000 29.500000 7.156250 31.765625 10.203125 31.765625
C14.546875 31.765625 17.406250 28.328125 17.406250 23.765625
C17.406250 19.406250 14.843750 15.656250 12.000000 12.406250
L2.046875 1.140625L2.046875 0.000000L19.656250 0.000000z"/>
<path id="CMR17-48" d="M21.000000 16.875000
C21.000000 19.921875 20.953125 25.140625 18.843750 29.140625
C17.000000 32.656250 14.046875 33.890625 11.453125 33.890625
C9.046875 33.890625 6.000000 32.796875 4.093750 29.187500
C2.093750 25.437500 1.906250 20.765625 1.906250 16.875000
C1.906250 14.015625 1.953125 9.656250 3.500000 5.859375
C5.656250 0.703125 9.500000 0.000000 11.453125 0.000000
C13.750000 0.000000 17.250000 0.953125 19.296875 5.703125
C20.796875 9.156250 21.000000 13.218750 21.000000 16.875000
M11.453125 0.796875C8.250000 0.796875 6.343750 3.546875 5.656250 7.359375
C5.093750 10.312500 5.093750 14.625000 5.093750 17.437500
C5.093750 21.281250 5.093750 24.500000 5.750000 27.562500
C6.703125 31.796875 9.500000 33.109375 11.453125 33.109375
C13.500000 33.109375 16.156250 31.750000 17.093750 27.656250
C17.750000 24.796875 17.796875 21.437500 17.796875 17.437500
C17.796875 14.171875 17.796875 10.171875 17.203125 7.218750
C16.156250 1.750000 13.203125 0.796875 11.453125 0.796875"/>
<path id="CMR17-53" d="M5.703125 29.843750
C6.203125 29.640625 8.250000 29.000000 10.343750 29.000000
C15.000000 29.000000 17.546875 31.500000 19.000000 32.953125
C19.000000 33.359375 19.000000 33.625000 18.703125 33.625000
C18.656250 33.625000 18.546875 33.625000 18.156250 33.421875
C16.406250 32.640625 14.343750 32.031250 11.843750 32.031250
C10.343750 32.031250 8.093750 32.234375 5.656250 33.375000
C5.093750 33.625000 5.000000 33.625000 4.953125 33.625000
C4.703125 33.625000 4.656250 33.578125 4.656250 32.578125
L4.656250 18.140625
C4.656250 17.250000 4.656250 17.000000 5.156250 17.000000
C5.406250 17.000000 5.500000 17.109375 5.750000 17.500000
C7.343750 20.046875 9.546875 21.109375 12.046875 21.109375
C13.796875 21.109375 17.546875 19.984375 17.546875 11.281250
C17.546875 9.640625 17.546875 6.703125 16.046875 4.359375
C14.796875 2.265625 12.843750 1.187500 10.703125 1.187500
C7.406250 1.187500 4.046875 3.515625 3.156250 7.375000
C3.343750 7.328125 3.750000 7.218750 3.953125 7.218750
C4.593750 7.218750 5.843750 7.562500 5.843750 9.109375
C5.843750 10.453125 4.906250 11.000000 3.953125 11.000000
C2.796875 11.000000 2.046875 10.296875 2.046875 8.890625
C2.046875 4.546875 5.500000 0.000000 10.796875 0.000000
C15.953125 0.000000 20.843750 4.531250 20.843750 11.078125
C20.843750 17.171875 16.953125 21.890625 12.093750 21.890625
C9.546875 21.890625 7.406250 20.875000 5.703125 18.906250z"/>
</defs>
<g style="fill: #000000; opacity: 1.000000" transform="translate(34.285502,47.922482)scale(0.160000,-0.160000)">
<use xlink:href="#CMR17-48" x="0.000000" y="0.000000" transform="scale(0.996264)"/>
</g><!-- style -->
</g>
</g>
<g id="ytick2">
<g id="line2d11">
<path style="fill: none; stroke: #000000; stroke-width: 0.500000; stroke-linejoin: round; stroke-linecap: butt; stroke-dasharray: 1.000000,3.000000; stroke-dashoffset: 0.000000; opacity: 1.000000" clip-path="url(#p0a0ac5fcb8a5f5853e508140f59dd8a9)" d="M42.519685 9.277022L306.141732 9.277022"/>
</g>
<g id="line2d12">
<g ><use style="fill: none; stroke: #000000; stroke-width: 0.500000; stroke-linejoin: round; stroke-linecap: butt;  opacity: 1.000000" xlink:href="#m3400efa6b1638b3fea9e19e898273957" x="42.519685" y="9.277022"/>
</g></g>
<g id="line2d13">
<g ><use style="fill: none; stroke: #000000; stroke-width: 0.500000; stroke-linejoin: round; stroke-linecap: butt;  opacity: 1.000000" xlink:href="#m20b58b2501143cb5e0a5e8f1ef6f1643" x="306.141732" y="9.277022"/>
</g></g>
<g id="text4">
<defs>
<path id="CMR17-50" d="M20.843750 7.609375L19.953125 7.609375
C19.453125 4.156250 19.046875 3.562500 18.843750 3.265625
C18.593750 2.890625 15.000000 2.890625 14.296875 2.890625L4.703125 2.890625
C6.500000 4.843750 10.000000 8.390625 14.250000 12.500000
C17.296875 15.390625 20.843750 18.796875 20.843750 23.750000
C20.843750 29.656250 16.156250 33.046875 10.906250 33.046875
C5.406250 33.046875 2.046875 27.984375 2.046875 23.296875
C2.046875 21.265625 3.500000 21.000000 4.093750 21.000000
C4.593750 21.000000 6.093750 21.296875 6.093750 23.046875
C6.093750 24.593750 4.796875 25.031250 4.093750 25.031250
C3.796875 25.031250 3.500000 24.984375 3.296875 24.875000
C4.250000 29.500000 7.156250 31.765625 10.203125 31.765625
C14.546875 31.765625 17.406250 28.328125 17.406250 23.765625
C17.406250 19.406250 14.843750 15.656250 12.000000 12.406250
L2.046875 1.140625L2.046875 0.000000L19.656250 0.000000z"/>
<path id="CMR17-49" d="M13.296875 31.906250
C13.296875 32.953125 13.250000 33.000000 12.546875 33.000000
C10.593750 30.781250 7.656250 30.093750 4.843750 30.093750
C4.703125 30.093750 4.453125 30.093750 4.406250 29.953125
C4.343750 29.859375 4.343750 29.750000 4.343750 28.718750
C5.906250 28.718750 8.500000 29.015625 10.500000 30.187500
L10.500000 3.625000C10.500000 1.843750 10.406250 1.250000 6.093750 1.250000
L4.593750 1.250000L4.593750 0.000000
C7.000000 0.000000 9.500000 0.000000 11.906250 0.000000
C14.296875 0.000000 16.796875 0.000000 19.203125 0.000000
L19.203125 1.250000L17.703125 1.250000
C13.406250 1.250000 13.296875 1.796875 13.296875 3.609375z"/>
<path id="CMR17-48" d="M21.000000 16.875000
C21.000000 19.921875 20.953125 25.140625 18.843750 29.140625
C17.000000 32.656250 14.046875 33.890625 11.453125 33.890625
C9.046875 33.890625 6.000000 32.796875 4.093750 29.187500
C2.093750 25.437500 1.906250 20.765625 1.906250 16.875000
C1.906250 14.015625 1.953125 9.656250 3.500000 5.859375
C5.656250 0.703125 9.500000 0.000000 11.453125 0.000000
C13.750000 0.000000 17.250000 0.953125 19.296875 5.703125
C20.796875 9.156250 21.000000 13.218750 21.000000 16.875000
M11.453125 0.796875C8.250000 0.796875 6.343750 3.546875 5.656250 7.359375
C5.093750 10.312500 5.093750 14.625000 5.093750 17.437500
C5.093750 21.281250 5.093750 24.500000 5.750000 27.562500
C6.703125 31.796875 9.500000 33.109375 11.453125 33.109375
C13.500000 33.109375 16.156250 31.750000 17.093750 27.656250
C17.750000 24.796875 17.796875 21.437500 17.796875 17.437500
C17.796875 14.171875 17.796875 10.171875 17.203125 7.218750
C16.156250 1.750000 13.203125 0.796875 11.453125 0.796875"/>
<path id="CMR17-53" d="M5.703125 29.843750
C6.203125 29.640625 8.250000 29.000000 10.343750 29.000000
C15.000000 29.000000 17.546875 31.500000 19.000000 32.953125
C19.000000 33.359375 19.000000 33.625000 18.703125 33.625000
C18.656250 33.625000 18.546875 33.625000 18.156250 33.421875
C16.406250 32.640625 14.343750 32.031250 11.843750 32.031250
C10.343750 32.031250 8.093750 32.234375 5.656250 33.375000
C5.093750 33.625000 5.000000 33.625000 4.953125 33.625000
C4.703125 33.625000 4.656250 33.578125 4.656250 32.578125
L4.656250 18.140625
C4.656250 17.250000 4.656250 17.000000 5.156250 17.000000
C5.406250 17.000000 5.500000 17.109375 5.750000 17.500000
C7.343750 20.046875 9.546875 21.109375 12.046875 21.109375
C13.796875 21.109375 17.546875 19.984375 17.546875 11.281250
C17.546875 9.640625 17.546875 6.703125 16.046875 4.359375
C14.796875 2.265625 12.843750 1.187500 10.703125 1.187500
C7.406250 1.187500 4.046875 3.515625 3.156250 7.375000
C3.343750 7.328125 3.750000 7.218750 3.953125 7.218750
C4.593750 7.218750 5.843750 7.562500 5.843750 9.109375
C5.843750 10.453125 4.906250 11.000000 3.953125 11.000000
C2.796875 11.000000 2.046875 10.296875 2.046875 8.890625
C2.046875 4.546875 5.500000 0.000000 10.796875 0.000000
C15.953125 0.000000 20.843750 4.531250 20.843750 11.078125
C20.843750 17.171875 16.953125 21.890625 12.093750 21.890625
C9.546875 21.890625 7.406250 20.875000 5.703125 18.906250z"/>
</defs>
<g style="fill: #000000; opacity: 1.000000" transform="translate(34.285502,11.845173)scale(0.160000,-0.160000)">
<use xlink:href="#CMR17-49" x="0.000000" y="0.000000" transform="scale(0.996264)"/>
</g><!-- style -->
</g>
</g>
</g>
<g id="patch5">
<path style="fill: none; stroke: #000000; stroke-width: 1.000000; stroke-linejoin: round; stroke-linecap: square;  opacity: 1.000000"  d="M42.519685 5.669291L306.141732 5.669291"/>
</g>
<g id="patch6">
<path style="fill: none; stroke: #000000; stroke-width: 1.000000; stroke-linejoin: round; stroke-linecap: square;  opacity: 1.000000"  d="M306.141732 45.354331L306.141732 5.669291"/>
</g>
<g id="patch7">
<path style="fill: none; stroke: #000000; stroke-width: 1.000000; stroke-linejoin: round; stroke-linecap: square;  opacity: 1.000000"  d="M42.519685 45.354331L306.141732 45.354331"/>
</g>
<g id="patch8">
<path style="fill: none; stroke: #000000; stroke-width: 1.000000; stroke-linejoin: round; stroke-linecap: square;  opacity: 1.000000"  d="M42.519685 45.354331L42.519685 5.669291"/>
</g>
<g id="text5">
<defs>
<path id="CMMI12-102" d="M22.296875 19.687500
C23.296875 19.687500 23.703125 19.687500 23.703125 20.625000
C23.703125 21.125000 23.296875 21.125000 22.406250 21.125000
L18.343750 21.125000
C19.296875 26.375000 20.000000 29.984375 20.406250 31.609375
C20.703125 32.843750 21.750000 34.000000 23.046875 34.000000
C24.093750 34.000000 25.156250 33.531250 25.656250 33.093750
C23.703125 32.890625 23.093750 31.406250 23.093750 30.546875
C23.093750 29.531250 23.843750 28.921875 24.796875 28.921875
C25.796875 28.921875 27.296875 29.781250 27.296875 31.703125
C27.296875 33.843750 25.203125 35.000000 23.000000 35.000000
C20.843750 35.000000 18.750000 33.375000 17.750000 31.390625
C16.843750 29.625000 16.343750 27.796875 15.203125 21.125000
L11.843750 21.125000
C10.906250 21.125000 10.406250 21.125000 10.406250 20.234375
C10.406250 19.687500 10.703125 19.687500 11.703125 19.687500
L14.906250 19.687500
C14.000000 15.046875 11.953125 3.796875 10.796875 -1.546875
C9.953125 -5.859375 9.203125 -9.515625 6.703125 -9.515625
C6.546875 -9.515625 5.093750 -9.515625 4.203125 -8.562500
C6.750000 -8.359375 6.750000 -6.187500 6.750000 -6.125000
C6.750000 -5.140625 6.000000 -4.531250 5.046875 -4.531250
C4.046875 -4.531250 2.546875 -5.390625 2.546875 -7.281250
C2.546875 -9.406250 4.750000 -10.500000 6.703125 -10.500000
C11.796875 -10.500000 13.906250 -1.390625 14.453125 1.109375
C15.343750 4.921875 17.796875 18.187500 18.046875 19.687500z"/>
<path id="CMMI12-84" d="M20.843750 29.781250
C21.156250 30.953125 21.250000 31.390625 22.000000 31.593750
C22.406250 31.687500 24.046875 31.687500 25.093750 31.687500
C30.093750 31.687500 32.453125 31.500000 32.453125 27.656250
C32.453125 26.921875 32.250000 25.031250 31.953125 23.218750
L31.906250 22.625000
C31.906250 22.421875 32.093750 22.140625 32.406250 22.140625
C32.906250 22.140625 32.906250 22.390625 33.046875 23.171875
L34.500000 31.890625
C34.593750 32.343750 34.593750 32.437500 34.593750 32.578125
C34.593750 33.125000 34.296875 33.125000 33.296875 33.125000
L5.953125 33.125000
C4.796875 33.125000 4.750000 33.078125 4.453125 32.187500
L1.406250 23.328125
C1.343750 23.218750 1.203125 22.687500 1.203125 22.640625
C1.203125 22.390625 1.406250 22.140625 1.703125 22.140625
C2.093750 22.140625 2.203125 22.343750 2.406250 22.968750
C4.500000 28.937500 5.546875 31.687500 12.203125 31.687500
L15.546875 31.687500
C16.750000 31.687500 17.250000 31.687500 17.250000 31.140625
C17.250000 31.015625 17.250000 30.906250 17.000000 30.015625
L10.296875 3.546875C9.796875 1.640625 9.703125 1.140625 4.406250 1.140625
C3.156250 1.140625 2.796875 1.140625 2.796875 0.187500
C2.796875 -0.312500 3.343750 -0.312500 3.593750 -0.312500
C4.843750 -0.312500 6.156250 -0.312500 7.406250 -0.312500
L15.203125 -0.312500
C16.453125 -0.312500 17.796875 -0.312500 19.046875 -0.312500
C19.593750 -0.312500 20.093750 -0.312500 20.093750 0.640625
C20.093750 1.140625 19.750000 1.140625 18.453125 1.140625
C13.953125 1.140625 13.953125 1.578125 13.953125 2.312500
C13.953125 2.359375 13.953125 2.718750 14.156250 3.500000z"/>
<path id="CMSY10-106" d="M7.953125 36.203125
C7.953125 37.093750 7.953125 38.000000 6.953125 38.000000
C5.953125 38.000000 5.953125 37.093750 5.953125 36.203125
L5.953125 -10.203125
C5.953125 -11.093750 5.953125 -12.000000 6.953125 -12.000000
C7.953125 -12.000000 7.953125 -11.093750 7.953125 -10.203125z"/>
<path id="CMR17-50" d="M20.843750 7.609375L19.953125 7.609375
C19.453125 4.156250 19.046875 3.562500 18.843750 3.265625
C18.593750 2.890625 15.000000 2.890625 14.296875 2.890625L4.703125 2.890625
C6.500000 4.843750 10.000000 8.390625 14.250000 12.500000
C17.296875 15.390625 20.843750 18.796875 20.843750 23.750000
C20.843750 29.656250 16.156250 33.046875 10.906250 33.046875
C5.406250 33.046875 2.046875 27.984375 2.046875 23.296875
C2.046875 21.265625 3.500000 21.000000 4.093750 21.000000
C4.593750 21.000000 6.093750 21.296875 6.093750 23.046875
C6.093750 24.593750 4.796875 25.031250 4.093750 25.031250
C3.796875 25.031250 3.500000 24.984375 3.296875 24.875000
C4.250000 29.500000 7.156250 31.765625 10.203125 31.765625
C14.546875 31.765625 17.406250 28.328125 17.406250 23.765625
C17.406250 19.406250 14.843750 15.656250 12.000000 12.406250
L2.046875 1.140625L2.046875 0.000000L19.656250 0.000000z"/>
<path id="CMR17-41" d="M13.156250 12.843750
C13.156250 16.437500 12.796875 22.515625 9.796875 28.937500
C7.406250 34.109375 3.296875 37.750000 2.703125 37.750000
C2.546875 37.750000 2.343750 37.687500 2.343750 37.453125
C2.343750 37.343750 2.406250 37.296875 2.453125 37.203125
C4.843750 34.703125 10.953125 28.390625 10.953125 12.906250
C10.953125 -2.640625 4.906250 -8.953125 2.453125 -11.453125
C2.406250 -11.546875 2.343750 -11.593750 2.343750 -11.687500
C2.343750 -11.937500 2.546875 -12.000000 2.703125 -12.000000
C3.250000 -12.000000 7.500000 -8.312500 9.953125 -2.828125
C12.453125 2.687500 13.156250 8.078125 13.156250 12.843750"/>
<path id="CMR17-53" d="M5.703125 29.843750
C6.203125 29.640625 8.250000 29.000000 10.343750 29.000000
C15.000000 29.000000 17.546875 31.500000 19.000000 32.953125
C19.000000 33.359375 19.000000 33.625000 18.703125 33.625000
C18.656250 33.625000 18.546875 33.625000 18.156250 33.421875
C16.406250 32.640625 14.343750 32.031250 11.843750 32.031250
C10.343750 32.031250 8.093750 32.234375 5.656250 33.375000
C5.093750 33.625000 5.000000 33.625000 4.953125 33.625000
C4.703125 33.625000 4.656250 33.578125 4.656250 32.578125
L4.656250 18.140625
C4.656250 17.250000 4.656250 17.000000 5.156250 17.000000
C5.406250 17.000000 5.500000 17.109375 5.750000 17.500000
C7.343750 20.046875 9.546875 21.109375 12.046875 21.109375
C13.796875 21.109375 17.546875 19.984375 17.546875 11.281250
C17.546875 9.640625 17.546875 6.703125 16.046875 4.359375
C14.796875 2.265625 12.843750 1.187500 10.703125 1.187500
C7.406250 1.187500 4.046875 3.515625 3.156250 7.375000
C3.343750 7.328125 3.750000 7.218750 3.953125 7.218750
C4.593750 7.218750 5.843750 7.562500 5.843750 9.109375
C5.843750 10.453125 4.906250 11.000000 3.953125 11.000000
C2.796875 11.000000 2.046875 10.296875 2.046875 8.890625
C2.046875 4.546875 5.500000 0.000000 10.796875 0.000000
C15.953125 0.000000 20.843750 4.531250 20.843750 11.078125
C20.843750 17.171875 16.953125 21.890625 12.093750 21.890625
C9.546875 21.890625 7.406250 20.875000 5.703125 18.906250z"/>
<path id="CMR17-40" d="M15.296875 -11.687500
C15.296875 -11.640625 15.296875 -11.546875 15.156250 -11.390625
C12.843750 -9.062500 6.703125 -2.687500 6.703125 12.843750
C6.703125 28.390625 12.750000 34.703125 15.203125 37.203125
C15.203125 37.250000 15.296875 37.343750 15.296875 37.500000
C15.296875 37.640625 15.156250 37.750000 14.953125 37.750000
C14.406250 37.750000 10.156250 34.062500 7.703125 28.578125
C5.203125 23.062500 4.500000 17.687500 4.500000 12.906250
C4.500000 9.312500 4.843750 3.234375 7.843750 -3.187500
C10.250000 -8.359375 14.343750 -12.000000 14.953125 -12.000000
C15.203125 -12.000000 15.296875 -11.890625 15.296875 -11.687500"/>
<path id="CMR17-49" d="M13.296875 31.906250
C13.296875 32.953125 13.250000 33.000000 12.546875 33.000000
C10.593750 30.781250 7.656250 30.093750 4.843750 30.093750
C4.703125 30.093750 4.453125 30.093750 4.406250 29.953125
C4.343750 29.859375 4.343750 29.750000 4.343750 28.718750
C5.906250 28.718750 8.500000 29.015625 10.500000 30.187500
L10.500000 3.625000C10.500000 1.843750 10.406250 1.250000 6.093750 1.250000
L4.593750 1.250000L4.593750 0.000000
C7.000000 0.000000 9.500000 0.000000 11.906250 0.000000
C14.296875 0.000000 16.796875 0.000000 19.203125 0.000000
L19.203125 1.250000L17.703125 1.250000
C13.406250 1.250000 13.296875 1.796875 13.296875 3.609375z"/>
<path id="CMR17-48" d="M21.000000 16.875000
C21.000000 19.921875 20.953125 25.140625 18.843750 29.140625
C17.000000 32.656250 14.046875 33.890625 11.453125 33.890625
C9.046875 33.890625 6.000000 32.796875 4.093750 29.187500
C2.093750 25.437500 1.906250 20.765625 1.906250 16.875000
C1.906250 14.015625 1.953125 9.656250 3.500000 5.859375
C5.656250 0.703125 9.500000 0.000000 11.453125 0.000000
C13.750000 0.000000 17.250000 0.953125 19.296875 5.703125
C20.796875 9.156250 21.000000 13.218750 21.000000 16.875000
M11.453125 0.796875C8.250000 0.796875 6.343750 3.546875 5.656250 7.359375
C5.093750 10.312500 5.093750 14.625000 5.093750 17.437500
C5.093750 21.281250 5.093750 24.500000 5.750000 27.562500
C6.703125 31.796875 9.500000 33.109375 11.453125 33.109375
C13.500000 33.109375 16.156250 31.750000 17.093750 27.656250
C17.750000 24.796875 17.796875 21.437500 17.796875 17.437500
C17.796875 14.171875 17.796875 10.171875 17.203125 7.218750
C16.156250 1.750000 13.203125 0.796875 11.453125 0.796875"/>
</defs>
<g style="fill: #000000; opacity: 1.000000" transform="translate(94.427125,28.201256)scale(0.160000,-0.160000)">
<use xlink:href="#CMSY10-106" x="0.000000" y="12.500000" transform="scale(0.996264)"/>
<use xlink:href="#CMMI12-84" x="13.888931" y="12.500000" transform="scale(0.996264)"/>
<use xlink:href="#CMR17-49" x="60.834049" y="7.142932" transform="scale(0.697382)"/>
<use xlink:href="#CMR17-40" x="59.135208" y="12.500000" transform="scale(0.996264)"/>
<use xlink:href="#CMMI12-102" x="76.841736" y="12.500000" transform="scale(0.996264)"/>
<use xlink:href="#CMR17-41" x="106.311981" y="12.500000" transform="scale(0.996264)"/>
<use xlink:href="#CMSY10-106" x="124.018509" y="12.500000" transform="scale(0.996264)"/>
</g><!-- style -->
</g>
<g id="text6">
<defs>
<path id="Century_Schoolbook_L_Roman-72" d="M29.203125 17.296875L29.203125 6.140625L29.203125 4.687500
C29.203125 2.593750 28.750000 2.343750 24.703125 2.343750
L23.796875 2.343750L23.796875 0.000000L40.203125 0.000000
L40.203125 2.343750L39.296875 2.343750
C35.250000 2.343750 34.796875 2.593750 34.796875 4.687500
L34.796875 6.140625L34.796875 29.859375L34.796875 31.312500
C34.796875 33.406250 35.250000 33.656250 39.296875 33.656250
L40.203125 33.656250L40.203125 36.000000L24.000000 36.000000
L24.000000 33.656250L24.703125 33.656250
C28.750000 33.656250 29.203125 33.406250 29.203125 31.312500
L29.203125 29.859375L29.203125 20.000000L12.453125 20.000000
L12.453125 29.859375L12.453125 31.312500
C12.453125 33.406250 12.906250 33.656250 16.953125 33.656250
L17.906250 33.656250L17.906250 36.000000L1.453125 36.000000
L1.453125 33.656250L2.343750 33.656250
C6.406250 33.656250 6.843750 33.406250 6.843750 31.312500
L6.843750 29.859375L6.843750 6.140625L6.843750 4.687500
C6.843750 2.593750 6.406250 2.343750 2.343750 2.343750L1.453125 2.343750
L1.453125 0.000000L17.906250 0.000000L17.906250 2.343750L16.953125 2.343750
C12.906250 2.343750 12.453125 2.593750 12.453125 4.687500
L12.453125 6.140625L12.453125 17.296875z"/>
<path id="CMMI12-102" d="M22.296875 19.687500
C23.296875 19.687500 23.703125 19.687500 23.703125 20.625000
C23.703125 21.125000 23.296875 21.125000 22.406250 21.125000
L18.343750 21.125000
C19.296875 26.375000 20.000000 29.984375 20.406250 31.609375
C20.703125 32.843750 21.750000 34.000000 23.046875 34.000000
C24.093750 34.000000 25.156250 33.531250 25.656250 33.093750
C23.703125 32.890625 23.093750 31.406250 23.093750 30.546875
C23.093750 29.531250 23.843750 28.921875 24.796875 28.921875
C25.796875 28.921875 27.296875 29.781250 27.296875 31.703125
C27.296875 33.843750 25.203125 35.000000 23.000000 35.000000
C20.843750 35.000000 18.750000 33.375000 17.750000 31.390625
C16.843750 29.625000 16.343750 27.796875 15.203125 21.125000
L11.843750 21.125000
C10.906250 21.125000 10.406250 21.125000 10.406250 20.234375
C10.406250 19.687500 10.703125 19.687500 11.703125 19.687500
L14.906250 19.687500
C14.000000 15.046875 11.953125 3.796875 10.796875 -1.546875
C9.953125 -5.859375 9.203125 -9.515625 6.703125 -9.515625
C6.546875 -9.515625 5.093750 -9.515625 4.203125 -8.562500
C6.750000 -8.359375 6.750000 -6.187500 6.750000 -6.125000
C6.750000 -5.140625 6.000000 -4.531250 5.046875 -4.531250
C4.046875 -4.531250 2.546875 -5.390625 2.546875 -7.281250
C2.546875 -9.406250 4.750000 -10.500000 6.703125 -10.500000
C11.796875 -10.500000 13.906250 -1.390625 14.453125 1.109375
C15.343750 4.921875 17.796875 18.187500 18.046875 19.687500z"/>
<path id="Century_Schoolbook_L_Roman-40" d="M13.953125 36.734375
C10.953125 34.875000 9.343750 33.578125 7.656250 31.593750
C3.843750 27.093750 1.796875 21.359375 1.796875 15.312500
C1.796875 9.625000 3.593750 4.296875 6.953125 -0.156250
C8.843750 -2.546875 10.546875 -4.046875 13.953125 -6.140625
L13.953125 -4.296875C8.953125 0.093750 6.953125 5.734375 6.953125 15.312500
C6.953125 24.906250 8.953125 30.484375 13.953125 34.875000z"/>
<path id="CMMI12-84" d="M20.843750 29.781250
C21.156250 30.953125 21.250000 31.390625 22.000000 31.593750
C22.406250 31.687500 24.046875 31.687500 25.093750 31.687500
C30.093750 31.687500 32.453125 31.500000 32.453125 27.656250
C32.453125 26.921875 32.250000 25.031250 31.953125 23.218750
L31.906250 22.625000
C31.906250 22.421875 32.093750 22.140625 32.406250 22.140625
C32.906250 22.140625 32.906250 22.390625 33.046875 23.171875
L34.500000 31.890625
C34.593750 32.343750 34.593750 32.437500 34.593750 32.578125
C34.593750 33.125000 34.296875 33.125000 33.296875 33.125000
L5.953125 33.125000
C4.796875 33.125000 4.750000 33.078125 4.453125 32.187500
L1.406250 23.328125
C1.343750 23.218750 1.203125 22.687500 1.203125 22.640625
C1.203125 22.390625 1.406250 22.140625 1.703125 22.140625
C2.093750 22.140625 2.203125 22.343750 2.406250 22.968750
C4.500000 28.937500 5.546875 31.687500 12.203125 31.687500
L15.546875 31.687500
C16.750000 31.687500 17.250000 31.687500 17.250000 31.140625
C17.250000 31.015625 17.250000 30.906250 17.000000 30.015625
L10.296875 3.546875C9.796875 1.640625 9.703125 1.140625 4.406250 1.140625
C3.156250 1.140625 2.796875 1.140625 2.796875 0.187500
C2.796875 -0.312500 3.343750 -0.312500 3.593750 -0.312500
C4.843750 -0.312500 6.156250 -0.312500 7.406250 -0.312500
L15.203125 -0.312500
C16.453125 -0.312500 17.796875 -0.312500 19.046875 -0.312500
C19.593750 -0.312500 20.093750 -0.312500 20.093750 0.640625
C20.093750 1.140625 19.750000 1.140625 18.453125 1.140625
C13.953125 1.140625 13.953125 1.578125 13.953125 2.312500
C13.953125 2.359375 13.953125 2.718750 14.156250 3.500000z"/>
<path id="CMSY10-106" d="M7.953125 36.203125
C7.953125 37.093750 7.953125 38.000000 6.953125 38.000000
C5.953125 38.000000 5.953125 37.093750 5.953125 36.203125
L5.953125 -10.203125
C5.953125 -11.093750 5.953125 -12.000000 6.953125 -12.000000
C7.953125 -12.000000 7.953125 -11.093750 7.953125 -10.203125z"/>
<path id="CMR17-50" d="M20.843750 7.609375L19.953125 7.609375
C19.453125 4.156250 19.046875 3.562500 18.843750 3.265625
C18.593750 2.890625 15.000000 2.890625 14.296875 2.890625L4.703125 2.890625
C6.500000 4.843750 10.000000 8.390625 14.250000 12.500000
C17.296875 15.390625 20.843750 18.796875 20.843750 23.750000
C20.843750 29.656250 16.156250 33.046875 10.906250 33.046875
C5.406250 33.046875 2.046875 27.984375 2.046875 23.296875
C2.046875 21.265625 3.500000 21.000000 4.093750 21.000000
C4.593750 21.000000 6.093750 21.296875 6.093750 23.046875
C6.093750 24.593750 4.796875 25.031250 4.093750 25.031250
C3.796875 25.031250 3.500000 24.984375 3.296875 24.875000
C4.250000 29.500000 7.156250 31.765625 10.203125 31.765625
C14.546875 31.765625 17.406250 28.328125 17.406250 23.765625
C17.406250 19.406250 14.843750 15.656250 12.000000 12.406250
L2.046875 1.140625L2.046875 0.000000L19.656250 0.000000z"/>
<path id="CMR17-41" d="M13.156250 12.843750
C13.156250 16.437500 12.796875 22.515625 9.796875 28.937500
C7.406250 34.109375 3.296875 37.750000 2.703125 37.750000
C2.546875 37.750000 2.343750 37.687500 2.343750 37.453125
C2.343750 37.343750 2.406250 37.296875 2.453125 37.203125
C4.843750 34.703125 10.953125 28.390625 10.953125 12.906250
C10.953125 -2.640625 4.906250 -8.953125 2.453125 -11.453125
C2.406250 -11.546875 2.343750 -11.593750 2.343750 -11.687500
C2.343750 -11.937500 2.546875 -12.000000 2.703125 -12.000000
C3.250000 -12.000000 7.500000 -8.312500 9.953125 -2.828125
C12.453125 2.687500 13.156250 8.078125 13.156250 12.843750"/>
<path id="CMR17-53" d="M5.703125 29.843750
C6.203125 29.640625 8.250000 29.000000 10.343750 29.000000
C15.000000 29.000000 17.546875 31.500000 19.000000 32.953125
C19.000000 33.359375 19.000000 33.625000 18.703125 33.625000
C18.656250 33.625000 18.546875 33.625000 18.156250 33.421875
C16.406250 32.640625 14.343750 32.031250 11.843750 32.031250
C10.343750 32.031250 8.093750 32.234375 5.656250 33.375000
C5.093750 33.625000 5.000000 33.625000 4.953125 33.625000
C4.703125 33.625000 4.656250 33.578125 4.656250 32.578125
L4.656250 18.140625
C4.656250 17.250000 4.656250 17.000000 5.156250 17.000000
C5.406250 17.000000 5.500000 17.109375 5.750000 17.500000
C7.343750 20.046875 9.546875 21.109375 12.046875 21.109375
C13.796875 21.109375 17.546875 19.984375 17.546875 11.281250
C17.546875 9.640625 17.546875 6.703125 16.046875 4.359375
C14.796875 2.265625 12.843750 1.187500 10.703125 1.187500
C7.406250 1.187500 4.046875 3.515625 3.156250 7.375000
C3.343750 7.328125 3.750000 7.218750 3.953125 7.218750
C4.593750 7.218750 5.843750 7.562500 5.843750 9.109375
C5.843750 10.453125 4.906250 11.000000 3.953125 11.000000
C2.796875 11.000000 2.046875 10.296875 2.046875 8.890625
C2.046875 4.546875 5.500000 0.000000 10.796875 0.000000
C15.953125 0.000000 20.843750 4.531250 20.843750 11.078125
C20.843750 17.171875 16.953125 21.890625 12.093750 21.890625
C9.546875 21.890625 7.406250 20.875000 5.703125 18.906250z"/>
<path id="CMR17-40" d="M15.296875 -11.687500
C15.296875 -11.640625 15.296875 -11.546875 15.156250 -11.390625
C12.843750 -9.062500 6.703125 -2.687500 6.703125 12.843750
C6.703125 28.390625 12.750000 34.703125 15.203125 37.203125
C15.203125 37.250000 15.296875 37.343750 15.296875 37.500000
C15.296875 37.640625 15.156250 37.750000 14.953125 37.750000
C14.406250 37.750000 10.156250 34.062500 7.703125 28.578125
C5.203125 23.062500 4.500000 17.687500 4.500000 12.906250
C4.500000 9.312500 4.843750 3.234375 7.843750 -3.187500
C10.250000 -8.359375 14.343750 -12.000000 14.953125 -12.000000
C15.203125 -12.000000 15.296875 -11.890625 15.296875 -11.687500"/>
<path id="Century_Schoolbook_L_Roman-122" d="M21.406250 23.000000L3.343750 23.000000L2.906250 14.656250
L4.906250 14.656250
C5.343750 19.078125 7.156250 20.859375 11.250000 20.859375
L15.593750 20.859375L1.953125 1.796875L1.953125 0.000000L21.406250 0.000000
L21.750000 8.843750L19.750000 8.843750
C19.250000 3.968750 17.343750 2.140625 12.843750 2.140625L7.750000 2.140625
L21.406250 21.203125z"/>
<path id="CMR17-49" d="M13.296875 31.906250
C13.296875 32.953125 13.250000 33.000000 12.546875 33.000000
C10.593750 30.781250 7.656250 30.093750 4.843750 30.093750
C4.703125 30.093750 4.453125 30.093750 4.406250 29.953125
C4.343750 29.859375 4.343750 29.750000 4.343750 28.718750
C5.906250 28.718750 8.500000 29.015625 10.500000 30.187500
L10.500000 3.625000C10.500000 1.843750 10.406250 1.250000 6.093750 1.250000
L4.593750 1.250000L4.593750 0.000000
C7.000000 0.000000 9.500000 0.000000 11.906250 0.000000
C14.296875 0.000000 16.796875 0.000000 19.203125 0.000000
L19.203125 1.250000L17.703125 1.250000
C13.406250 1.250000 13.296875 1.796875 13.296875 3.609375z"/>
<path id="CMR17-48" d="M21.000000 16.875000
C21.000000 19.921875 20.953125 25.140625 18.843750 29.140625
C17.000000 32.656250 14.046875 33.890625 11.453125 33.890625
C9.046875 33.890625 6.000000 32.796875 4.093750 29.187500
C2.093750 25.437500 1.906250 20.765625 1.906250 16.875000
C1.906250 14.015625 1.953125 9.656250 3.500000 5.859375
C5.656250 0.703125 9.500000 0.000000 11.453125 0.000000
C13.750000 0.000000 17.250000 0.953125 19.296875 5.703125
C20.796875 9.156250 21.000000 13.218750 21.000000 16.875000
M11.453125 0.796875C8.250000 0.796875 6.343750 3.546875 5.656250 7.359375
C5.093750 10.312500 5.093750 14.625000 5.093750 17.437500
C5.093750 21.281250 5.093750 24.500000 5.750000 27.562500
C6.703125 31.796875 9.500000 33.109375 11.453125 33.109375
C13.500000 33.109375 16.156250 31.750000 17.093750 27.656250
C17.750000 24.796875 17.796875 21.437500 17.796875 17.437500
C17.796875 14.171875 17.796875 10.171875 17.203125 7.218750
C16.156250 1.750000 13.203125 0.796875 11.453125 0.796875"/>
<path id="Century_Schoolbook_L_Roman-41" d="M2.703125 -6.140625
C5.703125 -4.296875 7.296875 -3.000000 9.000000 -0.953125
C12.796875 3.500000 14.843750 9.281250 14.843750 15.312500
C14.843750 21.015625 13.046875 26.343750 9.703125 30.734375
C7.796875 33.187500 6.093750 34.687500 2.703125 36.734375
L2.703125 34.875000
C7.703125 30.484375 9.703125 24.906250 9.703125 15.312500
C9.703125 5.687500 7.703125 0.093750 2.703125 -4.296875z"/>
</defs>
<g style="fill: #000000; opacity: 1.000000" transform="translate(273.761851,41.492480)scale(0.160000,-0.160000)">
<use xlink:href="#CMMI12-102" x="0.000000" y="9.722183" transform="scale(0.996264)"/>
<use xlink:href="#Century_Schoolbook_L_Roman-40" x="43.369751" y="9.722183" transform="scale(0.996264)"/>
<use xlink:href="#Century_Schoolbook_L_Roman-72" x="60.019562" y="9.722183" transform="scale(0.996264)"/>
<use xlink:href="#Century_Schoolbook_L_Roman-122" x="101.669373" y="9.722183" transform="scale(0.996264)"/>
<use xlink:href="#Century_Schoolbook_L_Roman-41" x="125.719070" y="9.722183" transform="scale(0.996264)"/>
</g><!-- style -->
</g>
</g>
</g>
</svg>
