<?xml version="1.0" standalone="no"?>
<!DOCTYPE svg PUBLIC "-//W3C//DTD SVG 1.1//EN"
  "http://www.w3.org/Graphics/SVG/1.1/DTD/svg11.dtd">
<!-- Created with matplotlib (http://matplotlib.sourceforge.net/) -->
<svg width="340pt" height="210pt" viewBox="0 0 340 210"
   xmlns="http://www.w3.org/2000/svg"
   xmlns:xlink="http://www.w3.org/1999/xlink"
   version="1.1"
   id="svg1">
<filter id="colorAdd"><feComposite in="SourceGraphic" in2="BackgroundImage" operator="arithmetic" k2="1" k3="1"/></filter>
<g id="figure1">
<g id="patch1">
<path style="fill: #ffffff; stroke: #ffffff; stroke-width: 1.000000; stroke-linejoin: round; stroke-linecap: square;  opacity: 1.000000"  d="M0.000000 210.233301L340.157480 210.233301L340.157480 0.000000
L0.000000 0.000000z"/>
</g>
<g id="axes1">
<g id="patch2">
<path style="fill: #ffffff; opacity: 1.000000"  d="M42.519685 168.186640L306.141732 168.186640L306.141732 21.023330
L42.519685 21.023330z"/>
</g>
<g id="patch3">
<defs>
  <clipPath id="p92c4cb1587840fe43c9a69ca7f348748">
<rect x="42.519685" y="21.023330" width="263.622047" height="147.163310"/>
  </clipPath>
</defs><path style="fill: #eeeeee; opacity: 1.000000" clip-path="url(#p92c4cb1587840fe43c9a69ca7f348748)" d="M42.519685 315.349951L166.066256 315.349951L166.066256 -126.139980
L42.519685 -126.139980z"/>
</g>
<g id="patch4">
<path style="fill: #eeeeee; opacity: 1.000000" clip-path="url(#p92c4cb1587840fe43c9a69ca7f348748)" d="M289.612826 315.349951L413.159397 315.349951L413.159397 -126.139980
L289.612826 -126.139980z"/>
</g>
<g id="line2d1">
<path style="fill: none; stroke: #008000; stroke-width: 1.000000; stroke-linejoin: round; stroke-linecap: square;  opacity: 1.000000" clip-path="url(#p92c4cb1587840fe43c9a69ca7f348748)" d="M166.066256 168.173454L289.600471 168.173455L289.600471 168.173455"/>
</g>
<g id="line2d2">
<path style="fill: none; stroke: #0000ff; stroke-width: 1.000000; stroke-linejoin: round; stroke-linecap: square;  opacity: 1.000000" clip-path="url(#p92c4cb1587840fe43c9a69ca7f348748)" d="M166.066256 168.186640L289.600471 168.186640L289.600471 168.186640"/>
</g>
<g id="line2d3">
<path style="fill: none; stroke: #ff0000; stroke-width: 1.000000; stroke-linejoin: round; stroke-linecap: square;  opacity: 1.000000" clip-path="url(#p92c4cb1587840fe43c9a69ca7f348748)" d="M166.066256 168.173454L289.600471 168.173455L289.600471 168.173455"/>
</g>
<g id="matplotlib.axis1">
<g id="xtick1">
<g id="line2d4">
<path style="fill: none; stroke: #000000; stroke-width: 0.500000; stroke-linejoin: round; stroke-linecap: butt; stroke-dasharray: 1.000000,3.000000; stroke-dashoffset: 0.000000; opacity: 1.000000" clip-path="url(#p92c4cb1587840fe43c9a69ca7f348748)" d="M42.519685 168.186640L42.519685 21.023330"/>
</g>
<g id="line2d5">
<defs><path id="m30e32995789d870ad79a2e54c91cf9c6" d="M0.000000 0.000000L0.000000 -4.000000"/></defs>
<g ><use style="fill: none; stroke: #000000; stroke-width: 0.500000; stroke-linejoin: round; stroke-linecap: butt;  opacity: 1.000000" xlink:href="#m30e32995789d870ad79a2e54c91cf9c6" x="42.519685" y="168.186640"/>
</g></g>
<g id="line2d6">
<defs><path id="m9281cae24120827b11d5ea8a7ad3e96b" d="M0.000000 0.000000L0.000000 4.000000"/></defs>
<g ><use style="fill: none; stroke: #000000; stroke-width: 0.500000; stroke-linejoin: round; stroke-linecap: butt;  opacity: 1.000000" xlink:href="#m9281cae24120827b11d5ea8a7ad3e96b" x="42.519685" y="21.023330"/>
</g></g>
<g id="text1">
<defs>
<path id="CMSY10-0" d="M32.953125 11.281250
C33.796875 11.281250 34.703125 11.281250 34.703125 12.281250
C34.703125 13.281250 33.796875 13.281250 32.953125 13.281250
L5.906250 13.281250
C5.046875 13.281250 4.156250 13.281250 4.156250 12.281250
C4.156250 11.281250 5.046875 11.281250 5.906250 11.281250z"/>
<path id="CMR17-50" d="M20.843750 7.609375L19.953125 7.609375
C19.453125 4.156250 19.046875 3.562500 18.843750 3.265625
C18.593750 2.890625 15.000000 2.890625 14.296875 2.890625L4.703125 2.890625
C6.500000 4.843750 10.000000 8.390625 14.250000 12.500000
C17.296875 15.390625 20.843750 18.796875 20.843750 23.750000
C20.843750 29.656250 16.156250 33.046875 10.906250 33.046875
C5.406250 33.046875 2.046875 27.984375 2.046875 23.296875
C2.046875 21.265625 3.500000 21.000000 4.093750 21.000000
C4.593750 21.000000 6.093750 21.296875 6.093750 23.046875
C6.093750 24.593750 4.796875 25.031250 4.093750 25.031250
C3.796875 25.031250 3.500000 24.984375 3.296875 24.875000
C4.250000 29.500000 7.156250 31.765625 10.203125 31.765625
C14.546875 31.765625 17.406250 28.328125 17.406250 23.765625
C17.406250 19.406250 14.843750 15.656250 12.000000 12.406250
L2.046875 1.140625L2.046875 0.000000L19.656250 0.000000z"/>
<path id="CMR17-48" d="M21.000000 16.875000
C21.000000 19.921875 20.953125 25.140625 18.843750 29.140625
C17.000000 32.656250 14.046875 33.890625 11.453125 33.890625
C9.046875 33.890625 6.000000 32.796875 4.093750 29.187500
C2.093750 25.437500 1.906250 20.765625 1.906250 16.875000
C1.906250 14.015625 1.953125 9.656250 3.500000 5.859375
C5.656250 0.703125 9.500000 0.000000 11.453125 0.000000
C13.750000 0.000000 17.250000 0.953125 19.296875 5.703125
C20.796875 9.156250 21.000000 13.218750 21.000000 16.875000
M11.453125 0.796875C8.250000 0.796875 6.343750 3.546875 5.656250 7.359375
C5.093750 10.312500 5.093750 14.625000 5.093750 17.437500
C5.093750 21.281250 5.093750 24.500000 5.750000 27.562500
C6.703125 31.796875 9.500000 33.109375 11.453125 33.109375
C13.500000 33.109375 16.156250 31.750000 17.093750 27.656250
C17.750000 24.796875 17.796875 21.437500 17.796875 17.437500
C17.796875 14.171875 17.796875 10.171875 17.203125 7.218750
C16.156250 1.750000 13.203125 0.796875 11.453125 0.796875"/>
<path id="CMR17-53" d="M5.703125 29.843750
C6.203125 29.640625 8.250000 29.000000 10.343750 29.000000
C15.000000 29.000000 17.546875 31.500000 19.000000 32.953125
C19.000000 33.359375 19.000000 33.625000 18.703125 33.625000
C18.656250 33.625000 18.546875 33.625000 18.156250 33.421875
C16.406250 32.640625 14.343750 32.031250 11.843750 32.031250
C10.343750 32.031250 8.093750 32.234375 5.656250 33.375000
C5.093750 33.625000 5.000000 33.625000 4.953125 33.625000
C4.703125 33.625000 4.656250 33.578125 4.656250 32.578125
L4.656250 18.140625
C4.656250 17.250000 4.656250 17.000000 5.156250 17.000000
C5.406250 17.000000 5.500000 17.109375 5.750000 17.500000
C7.343750 20.046875 9.546875 21.109375 12.046875 21.109375
C13.796875 21.109375 17.546875 19.984375 17.546875 11.281250
C17.546875 9.640625 17.546875 6.703125 16.046875 4.359375
C14.796875 2.265625 12.843750 1.187500 10.703125 1.187500
C7.406250 1.187500 4.046875 3.515625 3.156250 7.375000
C3.343750 7.328125 3.750000 7.218750 3.953125 7.218750
C4.593750 7.218750 5.843750 7.562500 5.843750 9.109375
C5.843750 10.453125 4.906250 11.000000 3.953125 11.000000
C2.796875 11.000000 2.046875 10.296875 2.046875 8.890625
C2.046875 4.546875 5.500000 0.000000 10.796875 0.000000
C15.953125 0.000000 20.843750 4.531250 20.843750 11.078125
C20.843750 17.171875 16.953125 21.890625 12.093750 21.890625
C9.546875 21.890625 7.406250 20.875000 5.703125 18.906250z"/>
</defs>
<g style="fill: #000000; opacity: 1.000000" transform="translate(28.640975,178.153203)scale(0.160000,-0.160000)">
<use xlink:href="#CMSY10-0" x="0.000000" y="4.166687" transform="scale(0.996264)"/>
<use xlink:href="#CMR17-50" x="38.889023" y="4.166687" transform="scale(0.996264)"/>
<use xlink:href="#CMR17-50" x="61.819931" y="4.166687" transform="scale(0.996264)"/>
<use xlink:href="#CMR17-48" x="84.750839" y="4.166687" transform="scale(0.996264)"/>
<use xlink:href="#CMR17-53" x="107.681747" y="4.166687" transform="scale(0.996264)"/>
<use xlink:href="#CMR17-48" x="130.612656" y="4.166687" transform="scale(0.996264)"/>
</g><!-- style -->
</g>
</g>
<g id="xtick2">
<g id="line2d7">
<path style="fill: none; stroke: #000000; stroke-width: 0.500000; stroke-linejoin: round; stroke-linecap: butt; stroke-dasharray: 1.000000,3.000000; stroke-dashoffset: 0.000000; opacity: 1.000000" clip-path="url(#p92c4cb1587840fe43c9a69ca7f348748)" d="M166.066256 168.186640L166.066256 21.023330"/>
</g>
<g id="line2d8">
<g ><use style="fill: none; stroke: #000000; stroke-width: 0.500000; stroke-linejoin: round; stroke-linecap: butt;  opacity: 1.000000" xlink:href="#m30e32995789d870ad79a2e54c91cf9c6" x="166.066256" y="168.186640"/>
</g></g>
<g id="line2d9">
<g ><use style="fill: none; stroke: #000000; stroke-width: 0.500000; stroke-linejoin: round; stroke-linecap: butt;  opacity: 1.000000" xlink:href="#m9281cae24120827b11d5ea8a7ad3e96b" x="166.066256" y="21.023330"/>
</g></g>
<g id="text2">
<defs>
<path id="CMSY10-0" d="M32.953125 11.281250
C33.796875 11.281250 34.703125 11.281250 34.703125 12.281250
C34.703125 13.281250 33.796875 13.281250 32.953125 13.281250
L5.906250 13.281250
C5.046875 13.281250 4.156250 13.281250 4.156250 12.281250
C4.156250 11.281250 5.046875 11.281250 5.906250 11.281250z"/>
<path id="CMR17-50" d="M20.843750 7.609375L19.953125 7.609375
C19.453125 4.156250 19.046875 3.562500 18.843750 3.265625
C18.593750 2.890625 15.000000 2.890625 14.296875 2.890625L4.703125 2.890625
C6.500000 4.843750 10.000000 8.390625 14.250000 12.500000
C17.296875 15.390625 20.843750 18.796875 20.843750 23.750000
C20.843750 29.656250 16.156250 33.046875 10.906250 33.046875
C5.406250 33.046875 2.046875 27.984375 2.046875 23.296875
C2.046875 21.265625 3.500000 21.000000 4.093750 21.000000
C4.593750 21.000000 6.093750 21.296875 6.093750 23.046875
C6.093750 24.593750 4.796875 25.031250 4.093750 25.031250
C3.796875 25.031250 3.500000 24.984375 3.296875 24.875000
C4.250000 29.500000 7.156250 31.765625 10.203125 31.765625
C14.546875 31.765625 17.406250 28.328125 17.406250 23.765625
C17.406250 19.406250 14.843750 15.656250 12.000000 12.406250
L2.046875 1.140625L2.046875 0.000000L19.656250 0.000000z"/>
<path id="CMR17-48" d="M21.000000 16.875000
C21.000000 19.921875 20.953125 25.140625 18.843750 29.140625
C17.000000 32.656250 14.046875 33.890625 11.453125 33.890625
C9.046875 33.890625 6.000000 32.796875 4.093750 29.187500
C2.093750 25.437500 1.906250 20.765625 1.906250 16.875000
C1.906250 14.015625 1.953125 9.656250 3.500000 5.859375
C5.656250 0.703125 9.500000 0.000000 11.453125 0.000000
C13.750000 0.000000 17.250000 0.953125 19.296875 5.703125
C20.796875 9.156250 21.000000 13.218750 21.000000 16.875000
M11.453125 0.796875C8.250000 0.796875 6.343750 3.546875 5.656250 7.359375
C5.093750 10.312500 5.093750 14.625000 5.093750 17.437500
C5.093750 21.281250 5.093750 24.500000 5.750000 27.562500
C6.703125 31.796875 9.500000 33.109375 11.453125 33.109375
C13.500000 33.109375 16.156250 31.750000 17.093750 27.656250
C17.750000 24.796875 17.796875 21.437500 17.796875 17.437500
C17.796875 14.171875 17.796875 10.171875 17.203125 7.218750
C16.156250 1.750000 13.203125 0.796875 11.453125 0.796875"/>
<path id="CMR17-53" d="M5.703125 29.843750
C6.203125 29.640625 8.250000 29.000000 10.343750 29.000000
C15.000000 29.000000 17.546875 31.500000 19.000000 32.953125
C19.000000 33.359375 19.000000 33.625000 18.703125 33.625000
C18.656250 33.625000 18.546875 33.625000 18.156250 33.421875
C16.406250 32.640625 14.343750 32.031250 11.843750 32.031250
C10.343750 32.031250 8.093750 32.234375 5.656250 33.375000
C5.093750 33.625000 5.000000 33.625000 4.953125 33.625000
C4.703125 33.625000 4.656250 33.578125 4.656250 32.578125
L4.656250 18.140625
C4.656250 17.250000 4.656250 17.000000 5.156250 17.000000
C5.406250 17.000000 5.500000 17.109375 5.750000 17.500000
C7.343750 20.046875 9.546875 21.109375 12.046875 21.109375
C13.796875 21.109375 17.546875 19.984375 17.546875 11.281250
C17.546875 9.640625 17.546875 6.703125 16.046875 4.359375
C14.796875 2.265625 12.843750 1.187500 10.703125 1.187500
C7.406250 1.187500 4.046875 3.515625 3.156250 7.375000
C3.343750 7.328125 3.750000 7.218750 3.953125 7.218750
C4.593750 7.218750 5.843750 7.562500 5.843750 9.109375
C5.843750 10.453125 4.906250 11.000000 3.953125 11.000000
C2.796875 11.000000 2.046875 10.296875 2.046875 8.890625
C2.046875 4.546875 5.500000 0.000000 10.796875 0.000000
C15.953125 0.000000 20.843750 4.531250 20.843750 11.078125
C20.843750 17.171875 16.953125 21.890625 12.093750 21.890625
C9.546875 21.890625 7.406250 20.875000 5.703125 18.906250z"/>
</defs>
<g style="fill: #000000; opacity: 1.000000" transform="translate(163.949164,177.322943)scale(0.160000,-0.160000)">
<use xlink:href="#CMR17-48" x="0.000000" y="0.000000" transform="scale(0.996264)"/>
</g><!-- style -->
</g>
</g>
<g id="xtick3">
<g id="line2d10">
<path style="fill: none; stroke: #000000; stroke-width: 0.500000; stroke-linejoin: round; stroke-linecap: butt; stroke-dasharray: 1.000000,3.000000; stroke-dashoffset: 0.000000; opacity: 1.000000" clip-path="url(#p92c4cb1587840fe43c9a69ca7f348748)" d="M289.612826 168.186640L289.612826 21.023330"/>
</g>
<g id="line2d11">
<g ><use style="fill: none; stroke: #000000; stroke-width: 0.500000; stroke-linejoin: round; stroke-linecap: butt;  opacity: 1.000000" xlink:href="#m30e32995789d870ad79a2e54c91cf9c6" x="289.612826" y="168.186640"/>
</g></g>
<g id="line2d12">
<g ><use style="fill: none; stroke: #000000; stroke-width: 0.500000; stroke-linejoin: round; stroke-linecap: butt;  opacity: 1.000000" xlink:href="#m9281cae24120827b11d5ea8a7ad3e96b" x="289.612826" y="21.023330"/>
</g></g>
<g id="text3">
<defs>
<path id="CMSY10-0" d="M32.953125 11.281250
C33.796875 11.281250 34.703125 11.281250 34.703125 12.281250
C34.703125 13.281250 33.796875 13.281250 32.953125 13.281250
L5.906250 13.281250
C5.046875 13.281250 4.156250 13.281250 4.156250 12.281250
C4.156250 11.281250 5.046875 11.281250 5.906250 11.281250z"/>
<path id="CMR17-50" d="M20.843750 7.609375L19.953125 7.609375
C19.453125 4.156250 19.046875 3.562500 18.843750 3.265625
C18.593750 2.890625 15.000000 2.890625 14.296875 2.890625L4.703125 2.890625
C6.500000 4.843750 10.000000 8.390625 14.250000 12.500000
C17.296875 15.390625 20.843750 18.796875 20.843750 23.750000
C20.843750 29.656250 16.156250 33.046875 10.906250 33.046875
C5.406250 33.046875 2.046875 27.984375 2.046875 23.296875
C2.046875 21.265625 3.500000 21.000000 4.093750 21.000000
C4.593750 21.000000 6.093750 21.296875 6.093750 23.046875
C6.093750 24.593750 4.796875 25.031250 4.093750 25.031250
C3.796875 25.031250 3.500000 24.984375 3.296875 24.875000
C4.250000 29.500000 7.156250 31.765625 10.203125 31.765625
C14.546875 31.765625 17.406250 28.328125 17.406250 23.765625
C17.406250 19.406250 14.843750 15.656250 12.000000 12.406250
L2.046875 1.140625L2.046875 0.000000L19.656250 0.000000z"/>
<path id="CMR17-48" d="M21.000000 16.875000
C21.000000 19.921875 20.953125 25.140625 18.843750 29.140625
C17.000000 32.656250 14.046875 33.890625 11.453125 33.890625
C9.046875 33.890625 6.000000 32.796875 4.093750 29.187500
C2.093750 25.437500 1.906250 20.765625 1.906250 16.875000
C1.906250 14.015625 1.953125 9.656250 3.500000 5.859375
C5.656250 0.703125 9.500000 0.000000 11.453125 0.000000
C13.750000 0.000000 17.250000 0.953125 19.296875 5.703125
C20.796875 9.156250 21.000000 13.218750 21.000000 16.875000
M11.453125 0.796875C8.250000 0.796875 6.343750 3.546875 5.656250 7.359375
C5.093750 10.312500 5.093750 14.625000 5.093750 17.437500
C5.093750 21.281250 5.093750 24.500000 5.750000 27.562500
C6.703125 31.796875 9.500000 33.109375 11.453125 33.109375
C13.500000 33.109375 16.156250 31.750000 17.093750 27.656250
C17.750000 24.796875 17.796875 21.437500 17.796875 17.437500
C17.796875 14.171875 17.796875 10.171875 17.203125 7.218750
C16.156250 1.750000 13.203125 0.796875 11.453125 0.796875"/>
<path id="CMR17-53" d="M5.703125 29.843750
C6.203125 29.640625 8.250000 29.000000 10.343750 29.000000
C15.000000 29.000000 17.546875 31.500000 19.000000 32.953125
C19.000000 33.359375 19.000000 33.625000 18.703125 33.625000
C18.656250 33.625000 18.546875 33.625000 18.156250 33.421875
C16.406250 32.640625 14.343750 32.031250 11.843750 32.031250
C10.343750 32.031250 8.093750 32.234375 5.656250 33.375000
C5.093750 33.625000 5.000000 33.625000 4.953125 33.625000
C4.703125 33.625000 4.656250 33.578125 4.656250 32.578125
L4.656250 18.140625
C4.656250 17.250000 4.656250 17.000000 5.156250 17.000000
C5.406250 17.000000 5.500000 17.109375 5.750000 17.500000
C7.343750 20.046875 9.546875 21.109375 12.046875 21.109375
C13.796875 21.109375 17.546875 19.984375 17.546875 11.281250
C17.546875 9.640625 17.546875 6.703125 16.046875 4.359375
C14.796875 2.265625 12.843750 1.187500 10.703125 1.187500
C7.406250 1.187500 4.046875 3.515625 3.156250 7.375000
C3.343750 7.328125 3.750000 7.218750 3.953125 7.218750
C4.593750 7.218750 5.843750 7.562500 5.843750 9.109375
C5.843750 10.453125 4.906250 11.000000 3.953125 11.000000
C2.796875 11.000000 2.046875 10.296875 2.046875 8.890625
C2.046875 4.546875 5.500000 0.000000 10.796875 0.000000
C15.953125 0.000000 20.843750 4.531250 20.843750 11.078125
C20.843750 17.171875 16.953125 21.890625 12.093750 21.890625
C9.546875 21.890625 7.406250 20.875000 5.703125 18.906250z"/>
</defs>
<g style="fill: #000000; opacity: 1.000000" transform="translate(279.027369,177.322943)scale(0.160000,-0.160000)">
<use xlink:href="#CMR17-50" x="0.000000" y="0.000000" transform="scale(0.996264)"/>
<use xlink:href="#CMR17-50" x="22.930908" y="0.000000" transform="scale(0.996264)"/>
<use xlink:href="#CMR17-48" x="45.861816" y="0.000000" transform="scale(0.996264)"/>
<use xlink:href="#CMR17-53" x="68.792725" y="0.000000" transform="scale(0.996264)"/>
<use xlink:href="#CMR17-48" x="91.723633" y="0.000000" transform="scale(0.996264)"/>
</g><!-- style -->
</g>
</g>
<g id="text4">
<defs>
<path id="Century_Schoolbook_L_Roman-101" d="M23.250000 11.000000
C23.296875 18.625000 19.046875 24.000000 12.953125 24.000000
C6.546875 24.000000 1.750000 18.406250 1.750000 10.859375
C1.750000 3.796875 6.296875 -1.000000 13.046875 -1.000000
C17.796875 -1.000000 21.203125 1.343750 23.250000 6.109375
L21.500000 7.046875
C19.453125 3.187500 17.343750 1.703125 14.000000 1.703125
C11.453125 1.703125 9.593750 2.796875 8.296875 4.984375
C7.406250 6.500000 7.000000 8.250000 7.046875 11.000000zM7.093750 13.140625
C7.093750 14.734375 7.296875 15.859375 7.796875 17.296875
C8.843750 20.359375 10.453125 21.859375 12.843750 21.859375
C15.906250 21.859375 17.906250 19.140625 17.906250 15.031250
C17.906250 13.546875 17.453125 13.140625 15.843750 13.140625z"/>
<path id="CMR17-50" d="M20.843750 7.609375L19.953125 7.609375
C19.453125 4.156250 19.046875 3.562500 18.843750 3.265625
C18.593750 2.890625 15.000000 2.890625 14.296875 2.890625L4.703125 2.890625
C6.500000 4.843750 10.000000 8.390625 14.250000 12.500000
C17.296875 15.390625 20.843750 18.796875 20.843750 23.750000
C20.843750 29.656250 16.156250 33.046875 10.906250 33.046875
C5.406250 33.046875 2.046875 27.984375 2.046875 23.296875
C2.046875 21.265625 3.500000 21.000000 4.093750 21.000000
C4.593750 21.000000 6.093750 21.296875 6.093750 23.046875
C6.093750 24.593750 4.796875 25.031250 4.093750 25.031250
C3.796875 25.031250 3.500000 24.984375 3.296875 24.875000
C4.250000 29.500000 7.156250 31.765625 10.203125 31.765625
C14.546875 31.765625 17.406250 28.328125 17.406250 23.765625
C17.406250 19.406250 14.843750 15.656250 12.000000 12.406250
L2.046875 1.140625L2.046875 0.000000L19.656250 0.000000z"/>
<path id="Century_Schoolbook_L_Roman-70" d="M31.203125 36.000000L1.453125 36.000000L1.453125 33.656250
L2.343750 33.656250
C6.406250 33.656250 6.843750 33.406250 6.843750 31.312500
L6.843750 29.859375L6.843750 6.140625L6.843750 4.687500
C6.843750 2.593750 6.406250 2.343750 2.343750 2.343750L1.453125 2.343750
L1.453125 0.000000L18.593750 0.000000L18.593750 2.343750L16.953125 2.343750
C12.906250 2.343750 12.453125 2.593750 12.453125 4.718750
L12.453125 6.187500L12.453125 17.656250L13.453125 17.656250
C16.546875 17.656250 17.750000 17.343750 18.796875 16.218750
C20.046875 14.843750 20.546875 13.125000 20.656250 10.000000
L23.000000 10.000000L23.000000 26.359375L20.656250 26.359375
C20.406250 21.796875 18.406250 20.000000 13.656250 20.000000
L12.453125 20.000000L12.453125 31.203125
C12.453125 33.296875 12.906250 33.656250 15.593750 33.656250
L17.906250 33.656250
C26.156250 33.656250 28.296875 31.750000 29.703125 23.203125
L31.906250 23.203125z"/>
<path id="Century_Schoolbook_L_Roman-40" d="M13.953125 36.734375
C10.953125 34.875000 9.343750 33.578125 7.656250 31.593750
C3.843750 27.093750 1.796875 21.359375 1.796875 15.312500
C1.796875 9.625000 3.593750 4.296875 6.953125 -0.156250
C8.843750 -2.546875 10.546875 -4.046875 13.953125 -6.140625
L13.953125 -4.296875C8.953125 0.093750 6.953125 5.734375 6.953125 15.312500
C6.953125 24.906250 8.953125 30.484375 13.953125 34.875000z"/>
<path id="CMMI12-102" d="M22.296875 19.687500
C23.296875 19.687500 23.703125 19.687500 23.703125 20.625000
C23.703125 21.125000 23.296875 21.125000 22.406250 21.125000
L18.343750 21.125000
C19.296875 26.375000 20.000000 29.984375 20.406250 31.609375
C20.703125 32.843750 21.750000 34.000000 23.046875 34.000000
C24.093750 34.000000 25.156250 33.531250 25.656250 33.093750
C23.703125 32.890625 23.093750 31.406250 23.093750 30.546875
C23.093750 29.531250 23.843750 28.921875 24.796875 28.921875
C25.796875 28.921875 27.296875 29.781250 27.296875 31.703125
C27.296875 33.843750 25.203125 35.000000 23.000000 35.000000
C20.843750 35.000000 18.750000 33.375000 17.750000 31.390625
C16.843750 29.625000 16.343750 27.796875 15.203125 21.125000
L11.843750 21.125000
C10.906250 21.125000 10.406250 21.125000 10.406250 20.234375
C10.406250 19.687500 10.703125 19.687500 11.703125 19.687500
L14.906250 19.687500
C14.000000 15.046875 11.953125 3.796875 10.796875 -1.546875
C9.953125 -5.859375 9.203125 -9.515625 6.703125 -9.515625
C6.546875 -9.515625 5.093750 -9.515625 4.203125 -8.562500
C6.750000 -8.359375 6.750000 -6.187500 6.750000 -6.125000
C6.750000 -5.140625 6.000000 -4.531250 5.046875 -4.531250
C4.046875 -4.531250 2.546875 -5.390625 2.546875 -7.281250
C2.546875 -9.406250 4.750000 -10.500000 6.703125 -10.500000
C11.796875 -10.500000 13.906250 -1.390625 14.453125 1.109375
C15.343750 4.921875 17.796875 18.187500 18.046875 19.687500z"/>
<path id="Century_Schoolbook_L_Roman-113" d="M22.453125 23.000000L20.093750 19.843750
C18.093750 22.656250 15.656250 24.000000 12.500000 24.000000
C6.406250 24.000000 1.796875 18.406250 1.796875 10.953125
C1.796875 4.031250 6.093750 -1.000000 11.953125 -1.000000
C15.046875 -1.000000 16.750000 -0.093750 18.750000 2.656250
L18.750000 -3.984375L18.750000 -5.921875
C18.750000 -7.875000 18.203125 -8.203125 14.953125 -8.203125
L14.406250 -8.203125L14.406250 -10.000000L27.406250 -10.000000
L27.406250 -8.203125L27.203125 -8.203125
C24.000000 -8.203125 23.453125 -7.859375 23.453125 -5.875000
L23.453125 -3.875000L23.453125 15.406250
C23.500000 18.234375 23.500000 18.437500 23.500000 18.984375
C23.593750 19.890625 23.750000 20.546875 24.296875 23.000000z
M12.953125 21.859375
C14.953125 21.859375 16.750000 20.546875 17.703125 18.421875
C18.453125 16.750000 18.750000 14.921875 18.750000 12.046875
C18.750000 5.140625 16.796875 1.703125 12.906250 1.703125
C9.203125 1.703125 7.046875 5.187500 7.046875 11.250000
C7.046875 18.312500 9.000000 21.859375 12.953125 21.859375"/>
<path id="Century_Schoolbook_L_Roman-110" d="M10.000000 23.000000L1.343750 23.000000L1.343750 20.609375
L3.156250 20.609375
C5.000000 20.609375 5.296875 20.250000 5.296875 18.109375L5.296875 6.156250
L5.296875 4.140625C5.296875 2.140625 4.750000 1.796875 1.546875 1.796875
L1.343750 1.796875L1.343750 0.000000L14.000000 0.000000L14.000000 1.796875
L13.796875 1.796875
C10.546875 1.796875 10.000000 2.140625 10.000000 4.140625
L10.000000 6.140625L10.000000 11.328125
C10.000000 13.765625 10.343750 16.015625 10.906250 17.171875
C11.953125 19.406250 14.203125 20.953125 16.343750 20.953125
C17.656250 20.953125 19.156250 20.203125 19.906250 19.218750
C20.656250 18.171875 21.000000 16.625000 21.000000 14.218750
L21.000000 6.140625L21.000000 4.140625
C21.000000 2.140625 20.453125 1.796875 17.203125 1.796875
L17.000000 1.796875L17.000000 0.000000L29.656250 0.000000
L29.656250 1.796875L29.453125 1.796875
C26.250000 1.796875 25.703125 2.140625 25.703125 4.140625
L25.703125 6.140625L25.703125 13.968750
C25.703125 17.562500 25.546875 18.468750 24.656250 20.156250
C23.406250 22.562500 20.843750 24.000000 17.906250 24.000000
C14.703125 24.000000 12.203125 22.515625 10.000000 19.265625z"/>
<path id="Century_Schoolbook_L_Roman-117" d="M20.593750 0.000000L29.703125 0.000000L29.703125 2.343750
L28.453125 2.343750
C25.703125 2.343750 25.296875 2.781250 25.296875 5.906250
L25.296875 23.000000L15.906250 23.000000L15.906250 20.609375
L18.453125 20.609375
C20.296875 20.609375 20.593750 20.250000 20.593750 18.109375
L20.593750 11.968750
C20.593750 9.125000 20.296875 7.484375 19.546875 5.828125
C18.500000 3.640625 16.500000 2.343750 14.046875 2.343750
C12.500000 2.343750 11.203125 2.890625 10.546875 3.875000
C9.906250 4.812500 9.796875 5.296875 9.796875 8.000000L9.796875 23.000000
L1.046875 23.000000L1.046875 20.609375L2.953125 20.609375
C4.796875 20.609375 5.093750 20.250000 5.093750 18.078125L5.093750 7.140625
C5.093750 4.562500 5.296875 3.406250 6.046875 2.234375
C7.406250 0.171875 9.796875 -1.000000 12.796875 -1.000000
C16.093750 -1.000000 18.406250 0.468750 20.593750 3.984375z"/>
<path id="Century_Schoolbook_L_Roman-114" d="M9.906250 23.000000L1.046875 23.000000L1.046875 20.609375
L3.093750 20.609375
C4.953125 20.609375 5.250000 20.250000 5.250000 18.109375L5.250000 6.156250
L5.250000 4.140625C5.250000 2.140625 4.703125 1.796875 1.453125 1.796875
L1.250000 1.796875L1.250000 0.000000L14.593750 0.000000L14.593750 1.796875
L13.656250 1.796875C10.453125 1.796875 9.906250 2.140625 9.906250 4.140625
L9.906250 6.156250L9.906250 6.656250
C9.906250 10.390625 10.593750 14.203125 11.843750 17.046875
C13.046875 19.859375 14.750000 21.406250 16.843750 21.656250
C16.156250 20.859375 15.953125 20.343750 15.953125 19.390625
C15.953125 17.781250 17.093750 16.625000 18.703125 16.625000
C20.500000 16.625000 21.750000 17.968750 21.750000 20.015625
C21.750000 22.406250 20.046875 24.000000 17.406250 24.000000
C14.250000 24.000000 11.500000 21.453125 9.906250 17.078125z"/>
<path id="CMSY10-0" d="M32.953125 11.281250
C33.796875 11.281250 34.703125 11.281250 34.703125 12.281250
C34.703125 13.281250 33.796875 13.281250 32.953125 13.281250
L5.906250 13.281250
C5.046875 13.281250 4.156250 13.281250 4.156250 12.281250
C4.156250 11.281250 5.046875 11.281250 5.906250 11.281250z"/>
<path id="CMR17-53" d="M5.703125 29.843750
C6.203125 29.640625 8.250000 29.000000 10.343750 29.000000
C15.000000 29.000000 17.546875 31.500000 19.000000 32.953125
C19.000000 33.359375 19.000000 33.625000 18.703125 33.625000
C18.656250 33.625000 18.546875 33.625000 18.156250 33.421875
C16.406250 32.640625 14.343750 32.031250 11.843750 32.031250
C10.343750 32.031250 8.093750 32.234375 5.656250 33.375000
C5.093750 33.625000 5.000000 33.625000 4.953125 33.625000
C4.703125 33.625000 4.656250 33.578125 4.656250 32.578125
L4.656250 18.140625
C4.656250 17.250000 4.656250 17.000000 5.156250 17.000000
C5.406250 17.000000 5.500000 17.109375 5.750000 17.500000
C7.343750 20.046875 9.546875 21.109375 12.046875 21.109375
C13.796875 21.109375 17.546875 19.984375 17.546875 11.281250
C17.546875 9.640625 17.546875 6.703125 16.046875 4.359375
C14.796875 2.265625 12.843750 1.187500 10.703125 1.187500
C7.406250 1.187500 4.046875 3.515625 3.156250 7.375000
C3.343750 7.328125 3.750000 7.218750 3.953125 7.218750
C4.593750 7.218750 5.843750 7.562500 5.843750 9.109375
C5.843750 10.453125 4.906250 11.000000 3.953125 11.000000
C2.796875 11.000000 2.046875 10.296875 2.046875 8.890625
C2.046875 4.546875 5.500000 0.000000 10.796875 0.000000
C15.953125 0.000000 20.843750 4.531250 20.843750 11.078125
C20.843750 17.171875 16.953125 21.890625 12.093750 21.890625
C9.546875 21.890625 7.406250 20.875000 5.703125 18.906250z"/>
<path id="Century_Schoolbook_L_Roman-122" d="M21.406250 23.000000L3.343750 23.000000L2.906250 14.656250
L4.906250 14.656250
C5.343750 19.078125 7.156250 20.859375 11.250000 20.859375
L15.593750 20.859375L1.953125 1.796875L1.953125 0.000000L21.406250 0.000000
L21.750000 8.843750L19.750000 8.843750
C19.250000 3.968750 17.343750 2.140625 12.843750 2.140625L7.750000 2.140625
L21.406250 21.203125z"/>
<path id="Century_Schoolbook_L_Roman-121" d="M15.000000 6.359375L9.500000 18.953125
C9.296875 19.390625 9.203125 19.750000 9.203125 19.968750
C9.203125 20.859375 9.796875 21.203125 11.500000 21.203125
L12.546875 21.203125L12.546875 23.000000L0.656250 23.000000
L0.656250 21.203125L1.203125 21.203125
C2.796875 21.203125 3.703125 20.531250 4.593750 18.562500
L12.750000 0.484375L11.906250 -1.218750
C10.093750 -4.953125 7.750000 -7.546875 6.156250 -7.546875
C5.703125 -7.546875 5.343750 -7.359375 5.343750 -7.062500
C5.343750 -6.968750 5.406250 -6.828125 5.453125 -6.625000
C5.593750 -6.187500 5.703125 -5.734375 5.703125 -5.343750
C5.703125 -4.078125 4.593750 -3.140625 3.156250 -3.140625
C1.406250 -3.140625 0.156250 -4.421875 0.156250 -6.203125
C0.156250 -8.375000 2.093750 -10.000000 4.703125 -10.000000
C7.343750 -10.000000 9.593750 -8.718750 11.593750 -6.062500
C13.156250 -4.015625 14.156250 -2.062500 16.343750 3.390625
L22.046875 17.234375
C23.296875 20.218750 24.343750 21.203125 26.250000 21.203125
L26.546875 21.203125L26.546875 23.000000L16.546875 23.000000
L16.546875 21.203125L17.343750 21.203125
C19.250000 21.203125 20.046875 20.671875 20.046875 19.390625
C20.046875 18.906250 19.906250 18.265625 19.546875 17.421875z"/>
<path id="CMR17-48" d="M21.000000 16.875000
C21.000000 19.921875 20.953125 25.140625 18.843750 29.140625
C17.000000 32.656250 14.046875 33.890625 11.453125 33.890625
C9.046875 33.890625 6.000000 32.796875 4.093750 29.187500
C2.093750 25.437500 1.906250 20.765625 1.906250 16.875000
C1.906250 14.015625 1.953125 9.656250 3.500000 5.859375
C5.656250 0.703125 9.500000 0.000000 11.453125 0.000000
C13.750000 0.000000 17.250000 0.953125 19.296875 5.703125
C20.796875 9.156250 21.000000 13.218750 21.000000 16.875000
M11.453125 0.796875C8.250000 0.796875 6.343750 3.546875 5.656250 7.359375
C5.093750 10.312500 5.093750 14.625000 5.093750 17.437500
C5.093750 21.281250 5.093750 24.500000 5.750000 27.562500
C6.703125 31.796875 9.500000 33.109375 11.453125 33.109375
C13.500000 33.109375 16.156250 31.750000 17.093750 27.656250
C17.750000 24.796875 17.796875 21.437500 17.796875 17.437500
C17.796875 14.171875 17.796875 10.171875 17.203125 7.218750
C16.156250 1.750000 13.203125 0.796875 11.453125 0.796875"/>
<path id="Century_Schoolbook_L_Roman-41" d="M2.703125 -6.140625
C5.703125 -4.296875 7.296875 -3.000000 9.000000 -0.953125
C12.796875 3.500000 14.843750 9.281250 14.843750 15.312500
C14.843750 21.015625 13.046875 26.343750 9.703125 30.734375
C7.796875 33.187500 6.093750 34.687500 2.703125 36.734375
L2.703125 34.875000
C7.703125 30.484375 9.703125 24.906250 9.703125 15.312500
C9.703125 5.687500 7.703125 0.093750 2.703125 -4.296875z"/>
<path id="Century_Schoolbook_L_Roman-72" d="M29.203125 17.296875L29.203125 6.140625L29.203125 4.687500
C29.203125 2.593750 28.750000 2.343750 24.703125 2.343750
L23.796875 2.343750L23.796875 0.000000L40.203125 0.000000
L40.203125 2.343750L39.296875 2.343750
C35.250000 2.343750 34.796875 2.593750 34.796875 4.687500
L34.796875 6.140625L34.796875 29.859375L34.796875 31.312500
C34.796875 33.406250 35.250000 33.656250 39.296875 33.656250
L40.203125 33.656250L40.203125 36.000000L24.000000 36.000000
L24.000000 33.656250L24.703125 33.656250
C28.750000 33.656250 29.203125 33.406250 29.203125 31.312500
L29.203125 29.859375L29.203125 20.000000L12.453125 20.000000
L12.453125 29.859375L12.453125 31.312500
C12.453125 33.406250 12.906250 33.656250 16.953125 33.656250
L17.906250 33.656250L17.906250 36.000000L1.453125 36.000000
L1.453125 33.656250L2.343750 33.656250
C6.406250 33.656250 6.843750 33.406250 6.843750 31.312500
L6.843750 29.859375L6.843750 6.140625L6.843750 4.687500
C6.843750 2.593750 6.406250 2.343750 2.343750 2.343750L1.453125 2.343750
L1.453125 0.000000L17.906250 0.000000L17.906250 2.343750L16.953125 2.343750
C12.906250 2.343750 12.453125 2.593750 12.453125 4.687500
L12.453125 6.140625L12.453125 17.296875z"/>
<path id="Century_Schoolbook_L_Roman-99" d="M19.343750 7.156250
C17.750000 3.515625 16.046875 2.046875 13.453125 2.046875
C9.453125 2.046875 6.953125 5.734375 6.953125 11.656250
C6.953125 17.765625 9.406250 21.859375 13.093750 21.859375
C14.593750 21.859375 15.906250 21.140625 15.906250 20.343750
C15.906250 20.187500 15.796875 20.031250 15.593750 19.734375
C14.796875 18.765625 14.593750 18.265625 14.593750 17.406250
C14.593750 15.734375 15.843750 14.578125 17.593750 14.578125
C19.343750 14.578125 20.656250 15.984375 20.656250 18.000000
C20.656250 21.375000 17.296875 24.000000 12.843750 24.000000
C6.343750 24.000000 1.703125 18.609375 1.703125 11.109375
C1.703125 3.937500 5.953125 -1.000000 12.156250 -1.000000
C16.593750 -1.000000 19.156250 1.062500 21.296875 6.390625z"/>
</defs>
<g style="fill: #000000; opacity: 1.000000" transform="translate(142.384110,190.616716)scale(0.160000,-0.160000)">
<use xlink:href="#Century_Schoolbook_L_Roman-70" x="0.000000" y="9.722183" transform="scale(0.996264)"/>
<use xlink:href="#Century_Schoolbook_L_Roman-114" x="32.849686" y="9.722183" transform="scale(0.996264)"/>
<use xlink:href="#Century_Schoolbook_L_Roman-101" x="55.049408" y="9.722183" transform="scale(0.996264)"/>
<use xlink:href="#Century_Schoolbook_L_Roman-113" x="80.049408" y="9.722183" transform="scale(0.996264)"/>
<use xlink:href="#Century_Schoolbook_L_Roman-117" x="107.849106" y="9.722183" transform="scale(0.996264)"/>
<use xlink:href="#Century_Schoolbook_L_Roman-101" x="138.399048" y="9.722183" transform="scale(0.996264)"/>
<use xlink:href="#Century_Schoolbook_L_Roman-110" x="163.399048" y="9.722183" transform="scale(0.996264)"/>
<use xlink:href="#Century_Schoolbook_L_Roman-99" x="193.948990" y="9.722183" transform="scale(0.996264)"/>
<use xlink:href="#Century_Schoolbook_L_Roman-121" x="216.148712" y="9.722183" transform="scale(0.996264)"/>
<use xlink:href="#CMMI12-102" x="256.898193" y="9.722183" transform="scale(0.996264)"/>
<use xlink:href="#Century_Schoolbook_L_Roman-40" x="300.267944" y="9.722183" transform="scale(0.996264)"/>
<use xlink:href="#Century_Schoolbook_L_Roman-72" x="316.917755" y="9.722183" transform="scale(0.996264)"/>
<use xlink:href="#Century_Schoolbook_L_Roman-122" x="358.567566" y="9.722183" transform="scale(0.996264)"/>
<use xlink:href="#Century_Schoolbook_L_Roman-41" x="382.617264" y="9.722183" transform="scale(0.996264)"/>
</g><!-- style -->
</g>
</g>
<g id="matplotlib.axis2">
<g id="ytick1">
<g id="line2d13">
<path style="fill: none; stroke: #000000; stroke-width: 0.500000; stroke-linejoin: round; stroke-linecap: butt; stroke-dasharray: 1.000000,3.000000; stroke-dashoffset: 0.000000; opacity: 1.000000" clip-path="url(#p92c4cb1587840fe43c9a69ca7f348748)" d="M42.519685 168.186640L306.141732 168.186640"/>
</g>
<g id="line2d14">
<defs><path id="m3400efa6b1638b3fea9e19e898273957" d="M0.000000 0.000000L4.000000 0.000000"/></defs>
<g ><use style="fill: none; stroke: #000000; stroke-width: 0.500000; stroke-linejoin: round; stroke-linecap: butt;  opacity: 1.000000" xlink:href="#m3400efa6b1638b3fea9e19e898273957" x="42.519685" y="168.186640"/>
</g></g>
<g id="line2d15">
<defs><path id="m20b58b2501143cb5e0a5e8f1ef6f1643" d="M0.000000 0.000000L-4.000000 0.000000"/></defs>
<g ><use style="fill: none; stroke: #000000; stroke-width: 0.500000; stroke-linejoin: round; stroke-linecap: butt;  opacity: 1.000000" xlink:href="#m20b58b2501143cb5e0a5e8f1ef6f1643" x="306.141732" y="168.186640"/>
</g></g>
<g id="text5">
<defs>
<path id="Century_Schoolbook_L_Roman-101" d="M23.250000 11.000000
C23.296875 18.625000 19.046875 24.000000 12.953125 24.000000
C6.546875 24.000000 1.750000 18.406250 1.750000 10.859375
C1.750000 3.796875 6.296875 -1.000000 13.046875 -1.000000
C17.796875 -1.000000 21.203125 1.343750 23.250000 6.109375
L21.500000 7.046875
C19.453125 3.187500 17.343750 1.703125 14.000000 1.703125
C11.453125 1.703125 9.593750 2.796875 8.296875 4.984375
C7.406250 6.500000 7.000000 8.250000 7.046875 11.000000zM7.093750 13.140625
C7.093750 14.734375 7.296875 15.859375 7.796875 17.296875
C8.843750 20.359375 10.453125 21.859375 12.843750 21.859375
C15.906250 21.859375 17.906250 19.140625 17.906250 15.031250
C17.906250 13.546875 17.453125 13.140625 15.843750 13.140625z"/>
<path id="CMR17-50" d="M20.843750 7.609375L19.953125 7.609375
C19.453125 4.156250 19.046875 3.562500 18.843750 3.265625
C18.593750 2.890625 15.000000 2.890625 14.296875 2.890625L4.703125 2.890625
C6.500000 4.843750 10.000000 8.390625 14.250000 12.500000
C17.296875 15.390625 20.843750 18.796875 20.843750 23.750000
C20.843750 29.656250 16.156250 33.046875 10.906250 33.046875
C5.406250 33.046875 2.046875 27.984375 2.046875 23.296875
C2.046875 21.265625 3.500000 21.000000 4.093750 21.000000
C4.593750 21.000000 6.093750 21.296875 6.093750 23.046875
C6.093750 24.593750 4.796875 25.031250 4.093750 25.031250
C3.796875 25.031250 3.500000 24.984375 3.296875 24.875000
C4.250000 29.500000 7.156250 31.765625 10.203125 31.765625
C14.546875 31.765625 17.406250 28.328125 17.406250 23.765625
C17.406250 19.406250 14.843750 15.656250 12.000000 12.406250
L2.046875 1.140625L2.046875 0.000000L19.656250 0.000000z"/>
<path id="Century_Schoolbook_L_Roman-70" d="M31.203125 36.000000L1.453125 36.000000L1.453125 33.656250
L2.343750 33.656250
C6.406250 33.656250 6.843750 33.406250 6.843750 31.312500
L6.843750 29.859375L6.843750 6.140625L6.843750 4.687500
C6.843750 2.593750 6.406250 2.343750 2.343750 2.343750L1.453125 2.343750
L1.453125 0.000000L18.593750 0.000000L18.593750 2.343750L16.953125 2.343750
C12.906250 2.343750 12.453125 2.593750 12.453125 4.718750
L12.453125 6.187500L12.453125 17.656250L13.453125 17.656250
C16.546875 17.656250 17.750000 17.343750 18.796875 16.218750
C20.046875 14.843750 20.546875 13.125000 20.656250 10.000000
L23.000000 10.000000L23.000000 26.359375L20.656250 26.359375
C20.406250 21.796875 18.406250 20.000000 13.656250 20.000000
L12.453125 20.000000L12.453125 31.203125
C12.453125 33.296875 12.906250 33.656250 15.593750 33.656250
L17.906250 33.656250
C26.156250 33.656250 28.296875 31.750000 29.703125 23.203125
L31.906250 23.203125z"/>
<path id="Century_Schoolbook_L_Roman-40" d="M13.953125 36.734375
C10.953125 34.875000 9.343750 33.578125 7.656250 31.593750
C3.843750 27.093750 1.796875 21.359375 1.796875 15.312500
C1.796875 9.625000 3.593750 4.296875 6.953125 -0.156250
C8.843750 -2.546875 10.546875 -4.046875 13.953125 -6.140625
L13.953125 -4.296875C8.953125 0.093750 6.953125 5.734375 6.953125 15.312500
C6.953125 24.906250 8.953125 30.484375 13.953125 34.875000z"/>
<path id="CMMI12-102" d="M22.296875 19.687500
C23.296875 19.687500 23.703125 19.687500 23.703125 20.625000
C23.703125 21.125000 23.296875 21.125000 22.406250 21.125000
L18.343750 21.125000
C19.296875 26.375000 20.000000 29.984375 20.406250 31.609375
C20.703125 32.843750 21.750000 34.000000 23.046875 34.000000
C24.093750 34.000000 25.156250 33.531250 25.656250 33.093750
C23.703125 32.890625 23.093750 31.406250 23.093750 30.546875
C23.093750 29.531250 23.843750 28.921875 24.796875 28.921875
C25.796875 28.921875 27.296875 29.781250 27.296875 31.703125
C27.296875 33.843750 25.203125 35.000000 23.000000 35.000000
C20.843750 35.000000 18.750000 33.375000 17.750000 31.390625
C16.843750 29.625000 16.343750 27.796875 15.203125 21.125000
L11.843750 21.125000
C10.906250 21.125000 10.406250 21.125000 10.406250 20.234375
C10.406250 19.687500 10.703125 19.687500 11.703125 19.687500
L14.906250 19.687500
C14.000000 15.046875 11.953125 3.796875 10.796875 -1.546875
C9.953125 -5.859375 9.203125 -9.515625 6.703125 -9.515625
C6.546875 -9.515625 5.093750 -9.515625 4.203125 -8.562500
C6.750000 -8.359375 6.750000 -6.187500 6.750000 -6.125000
C6.750000 -5.140625 6.000000 -4.531250 5.046875 -4.531250
C4.046875 -4.531250 2.546875 -5.390625 2.546875 -7.281250
C2.546875 -9.406250 4.750000 -10.500000 6.703125 -10.500000
C11.796875 -10.500000 13.906250 -1.390625 14.453125 1.109375
C15.343750 4.921875 17.796875 18.187500 18.046875 19.687500z"/>
<path id="Century_Schoolbook_L_Roman-113" d="M22.453125 23.000000L20.093750 19.843750
C18.093750 22.656250 15.656250 24.000000 12.500000 24.000000
C6.406250 24.000000 1.796875 18.406250 1.796875 10.953125
C1.796875 4.031250 6.093750 -1.000000 11.953125 -1.000000
C15.046875 -1.000000 16.750000 -0.093750 18.750000 2.656250
L18.750000 -3.984375L18.750000 -5.921875
C18.750000 -7.875000 18.203125 -8.203125 14.953125 -8.203125
L14.406250 -8.203125L14.406250 -10.000000L27.406250 -10.000000
L27.406250 -8.203125L27.203125 -8.203125
C24.000000 -8.203125 23.453125 -7.859375 23.453125 -5.875000
L23.453125 -3.875000L23.453125 15.406250
C23.500000 18.234375 23.500000 18.437500 23.500000 18.984375
C23.593750 19.890625 23.750000 20.546875 24.296875 23.000000z
M12.953125 21.859375
C14.953125 21.859375 16.750000 20.546875 17.703125 18.421875
C18.453125 16.750000 18.750000 14.921875 18.750000 12.046875
C18.750000 5.140625 16.796875 1.703125 12.906250 1.703125
C9.203125 1.703125 7.046875 5.187500 7.046875 11.250000
C7.046875 18.312500 9.000000 21.859375 12.953125 21.859375"/>
<path id="Century_Schoolbook_L_Roman-110" d="M10.000000 23.000000L1.343750 23.000000L1.343750 20.609375
L3.156250 20.609375
C5.000000 20.609375 5.296875 20.250000 5.296875 18.109375L5.296875 6.156250
L5.296875 4.140625C5.296875 2.140625 4.750000 1.796875 1.546875 1.796875
L1.343750 1.796875L1.343750 0.000000L14.000000 0.000000L14.000000 1.796875
L13.796875 1.796875
C10.546875 1.796875 10.000000 2.140625 10.000000 4.140625
L10.000000 6.140625L10.000000 11.328125
C10.000000 13.765625 10.343750 16.015625 10.906250 17.171875
C11.953125 19.406250 14.203125 20.953125 16.343750 20.953125
C17.656250 20.953125 19.156250 20.203125 19.906250 19.218750
C20.656250 18.171875 21.000000 16.625000 21.000000 14.218750
L21.000000 6.140625L21.000000 4.140625
C21.000000 2.140625 20.453125 1.796875 17.203125 1.796875
L17.000000 1.796875L17.000000 0.000000L29.656250 0.000000
L29.656250 1.796875L29.453125 1.796875
C26.250000 1.796875 25.703125 2.140625 25.703125 4.140625
L25.703125 6.140625L25.703125 13.968750
C25.703125 17.562500 25.546875 18.468750 24.656250 20.156250
C23.406250 22.562500 20.843750 24.000000 17.906250 24.000000
C14.703125 24.000000 12.203125 22.515625 10.000000 19.265625z"/>
<path id="Century_Schoolbook_L_Roman-117" d="M20.593750 0.000000L29.703125 0.000000L29.703125 2.343750
L28.453125 2.343750
C25.703125 2.343750 25.296875 2.781250 25.296875 5.906250
L25.296875 23.000000L15.906250 23.000000L15.906250 20.609375
L18.453125 20.609375
C20.296875 20.609375 20.593750 20.250000 20.593750 18.109375
L20.593750 11.968750
C20.593750 9.125000 20.296875 7.484375 19.546875 5.828125
C18.500000 3.640625 16.500000 2.343750 14.046875 2.343750
C12.500000 2.343750 11.203125 2.890625 10.546875 3.875000
C9.906250 4.812500 9.796875 5.296875 9.796875 8.000000L9.796875 23.000000
L1.046875 23.000000L1.046875 20.609375L2.953125 20.609375
C4.796875 20.609375 5.093750 20.250000 5.093750 18.078125L5.093750 7.140625
C5.093750 4.562500 5.296875 3.406250 6.046875 2.234375
C7.406250 0.171875 9.796875 -1.000000 12.796875 -1.000000
C16.093750 -1.000000 18.406250 0.468750 20.593750 3.984375z"/>
<path id="Century_Schoolbook_L_Roman-114" d="M9.906250 23.000000L1.046875 23.000000L1.046875 20.609375
L3.093750 20.609375
C4.953125 20.609375 5.250000 20.250000 5.250000 18.109375L5.250000 6.156250
L5.250000 4.140625C5.250000 2.140625 4.703125 1.796875 1.453125 1.796875
L1.250000 1.796875L1.250000 0.000000L14.593750 0.000000L14.593750 1.796875
L13.656250 1.796875C10.453125 1.796875 9.906250 2.140625 9.906250 4.140625
L9.906250 6.156250L9.906250 6.656250
C9.906250 10.390625 10.593750 14.203125 11.843750 17.046875
C13.046875 19.859375 14.750000 21.406250 16.843750 21.656250
C16.156250 20.859375 15.953125 20.343750 15.953125 19.390625
C15.953125 17.781250 17.093750 16.625000 18.703125 16.625000
C20.500000 16.625000 21.750000 17.968750 21.750000 20.015625
C21.750000 22.406250 20.046875 24.000000 17.406250 24.000000
C14.250000 24.000000 11.500000 21.453125 9.906250 17.078125z"/>
<path id="CMSY10-0" d="M32.953125 11.281250
C33.796875 11.281250 34.703125 11.281250 34.703125 12.281250
C34.703125 13.281250 33.796875 13.281250 32.953125 13.281250
L5.906250 13.281250
C5.046875 13.281250 4.156250 13.281250 4.156250 12.281250
C4.156250 11.281250 5.046875 11.281250 5.906250 11.281250z"/>
<path id="CMR17-53" d="M5.703125 29.843750
C6.203125 29.640625 8.250000 29.000000 10.343750 29.000000
C15.000000 29.000000 17.546875 31.500000 19.000000 32.953125
C19.000000 33.359375 19.000000 33.625000 18.703125 33.625000
C18.656250 33.625000 18.546875 33.625000 18.156250 33.421875
C16.406250 32.640625 14.343750 32.031250 11.843750 32.031250
C10.343750 32.031250 8.093750 32.234375 5.656250 33.375000
C5.093750 33.625000 5.000000 33.625000 4.953125 33.625000
C4.703125 33.625000 4.656250 33.578125 4.656250 32.578125
L4.656250 18.140625
C4.656250 17.250000 4.656250 17.000000 5.156250 17.000000
C5.406250 17.000000 5.500000 17.109375 5.750000 17.500000
C7.343750 20.046875 9.546875 21.109375 12.046875 21.109375
C13.796875 21.109375 17.546875 19.984375 17.546875 11.281250
C17.546875 9.640625 17.546875 6.703125 16.046875 4.359375
C14.796875 2.265625 12.843750 1.187500 10.703125 1.187500
C7.406250 1.187500 4.046875 3.515625 3.156250 7.375000
C3.343750 7.328125 3.750000 7.218750 3.953125 7.218750
C4.593750 7.218750 5.843750 7.562500 5.843750 9.109375
C5.843750 10.453125 4.906250 11.000000 3.953125 11.000000
C2.796875 11.000000 2.046875 10.296875 2.046875 8.890625
C2.046875 4.546875 5.500000 0.000000 10.796875 0.000000
C15.953125 0.000000 20.843750 4.531250 20.843750 11.078125
C20.843750 17.171875 16.953125 21.890625 12.093750 21.890625
C9.546875 21.890625 7.406250 20.875000 5.703125 18.906250z"/>
<path id="Century_Schoolbook_L_Roman-122" d="M21.406250 23.000000L3.343750 23.000000L2.906250 14.656250
L4.906250 14.656250
C5.343750 19.078125 7.156250 20.859375 11.250000 20.859375
L15.593750 20.859375L1.953125 1.796875L1.953125 0.000000L21.406250 0.000000
L21.750000 8.843750L19.750000 8.843750
C19.250000 3.968750 17.343750 2.140625 12.843750 2.140625L7.750000 2.140625
L21.406250 21.203125z"/>
<path id="Century_Schoolbook_L_Roman-121" d="M15.000000 6.359375L9.500000 18.953125
C9.296875 19.390625 9.203125 19.750000 9.203125 19.968750
C9.203125 20.859375 9.796875 21.203125 11.500000 21.203125
L12.546875 21.203125L12.546875 23.000000L0.656250 23.000000
L0.656250 21.203125L1.203125 21.203125
C2.796875 21.203125 3.703125 20.531250 4.593750 18.562500
L12.750000 0.484375L11.906250 -1.218750
C10.093750 -4.953125 7.750000 -7.546875 6.156250 -7.546875
C5.703125 -7.546875 5.343750 -7.359375 5.343750 -7.062500
C5.343750 -6.968750 5.406250 -6.828125 5.453125 -6.625000
C5.593750 -6.187500 5.703125 -5.734375 5.703125 -5.343750
C5.703125 -4.078125 4.593750 -3.140625 3.156250 -3.140625
C1.406250 -3.140625 0.156250 -4.421875 0.156250 -6.203125
C0.156250 -8.375000 2.093750 -10.000000 4.703125 -10.000000
C7.343750 -10.000000 9.593750 -8.718750 11.593750 -6.062500
C13.156250 -4.015625 14.156250 -2.062500 16.343750 3.390625
L22.046875 17.234375
C23.296875 20.218750 24.343750 21.203125 26.250000 21.203125
L26.546875 21.203125L26.546875 23.000000L16.546875 23.000000
L16.546875 21.203125L17.343750 21.203125
C19.250000 21.203125 20.046875 20.671875 20.046875 19.390625
C20.046875 18.906250 19.906250 18.265625 19.546875 17.421875z"/>
<path id="CMR17-48" d="M21.000000 16.875000
C21.000000 19.921875 20.953125 25.140625 18.843750 29.140625
C17.000000 32.656250 14.046875 33.890625 11.453125 33.890625
C9.046875 33.890625 6.000000 32.796875 4.093750 29.187500
C2.093750 25.437500 1.906250 20.765625 1.906250 16.875000
C1.906250 14.015625 1.953125 9.656250 3.500000 5.859375
C5.656250 0.703125 9.500000 0.000000 11.453125 0.000000
C13.750000 0.000000 17.250000 0.953125 19.296875 5.703125
C20.796875 9.156250 21.000000 13.218750 21.000000 16.875000
M11.453125 0.796875C8.250000 0.796875 6.343750 3.546875 5.656250 7.359375
C5.093750 10.312500 5.093750 14.625000 5.093750 17.437500
C5.093750 21.281250 5.093750 24.500000 5.750000 27.562500
C6.703125 31.796875 9.500000 33.109375 11.453125 33.109375
C13.500000 33.109375 16.156250 31.750000 17.093750 27.656250
C17.750000 24.796875 17.796875 21.437500 17.796875 17.437500
C17.796875 14.171875 17.796875 10.171875 17.203125 7.218750
C16.156250 1.750000 13.203125 0.796875 11.453125 0.796875"/>
<path id="Century_Schoolbook_L_Roman-41" d="M2.703125 -6.140625
C5.703125 -4.296875 7.296875 -3.000000 9.000000 -0.953125
C12.796875 3.500000 14.843750 9.281250 14.843750 15.312500
C14.843750 21.015625 13.046875 26.343750 9.703125 30.734375
C7.796875 33.187500 6.093750 34.687500 2.703125 36.734375
L2.703125 34.875000
C7.703125 30.484375 9.703125 24.906250 9.703125 15.312500
C9.703125 5.687500 7.703125 0.093750 2.703125 -4.296875z"/>
<path id="Century_Schoolbook_L_Roman-72" d="M29.203125 17.296875L29.203125 6.140625L29.203125 4.687500
C29.203125 2.593750 28.750000 2.343750 24.703125 2.343750
L23.796875 2.343750L23.796875 0.000000L40.203125 0.000000
L40.203125 2.343750L39.296875 2.343750
C35.250000 2.343750 34.796875 2.593750 34.796875 4.687500
L34.796875 6.140625L34.796875 29.859375L34.796875 31.312500
C34.796875 33.406250 35.250000 33.656250 39.296875 33.656250
L40.203125 33.656250L40.203125 36.000000L24.000000 36.000000
L24.000000 33.656250L24.703125 33.656250
C28.750000 33.656250 29.203125 33.406250 29.203125 31.312500
L29.203125 29.859375L29.203125 20.000000L12.453125 20.000000
L12.453125 29.859375L12.453125 31.312500
C12.453125 33.406250 12.906250 33.656250 16.953125 33.656250
L17.906250 33.656250L17.906250 36.000000L1.453125 36.000000
L1.453125 33.656250L2.343750 33.656250
C6.406250 33.656250 6.843750 33.406250 6.843750 31.312500
L6.843750 29.859375L6.843750 6.140625L6.843750 4.687500
C6.843750 2.593750 6.406250 2.343750 2.343750 2.343750L1.453125 2.343750
L1.453125 0.000000L17.906250 0.000000L17.906250 2.343750L16.953125 2.343750
C12.906250 2.343750 12.453125 2.593750 12.453125 4.687500
L12.453125 6.140625L12.453125 17.296875z"/>
<path id="Century_Schoolbook_L_Roman-99" d="M19.343750 7.156250
C17.750000 3.515625 16.046875 2.046875 13.453125 2.046875
C9.453125 2.046875 6.953125 5.734375 6.953125 11.656250
C6.953125 17.765625 9.406250 21.859375 13.093750 21.859375
C14.593750 21.859375 15.906250 21.140625 15.906250 20.343750
C15.906250 20.187500 15.796875 20.031250 15.593750 19.734375
C14.796875 18.765625 14.593750 18.265625 14.593750 17.406250
C14.593750 15.734375 15.843750 14.578125 17.593750 14.578125
C19.343750 14.578125 20.656250 15.984375 20.656250 18.000000
C20.656250 21.375000 17.296875 24.000000 12.843750 24.000000
C6.343750 24.000000 1.703125 18.609375 1.703125 11.109375
C1.703125 3.937500 5.953125 -1.000000 12.156250 -1.000000
C16.593750 -1.000000 19.156250 1.062500 21.296875 6.390625z"/>
</defs>
<g style="fill: #000000; opacity: 1.000000" transform="translate(34.285502,170.754792)scale(0.160000,-0.160000)">
<use xlink:href="#CMR17-48" x="0.000000" y="0.000000" transform="scale(0.996264)"/>
</g><!-- style -->
</g>
</g>
<g id="ytick2">
<g id="line2d16">
<path style="fill: none; stroke: #000000; stroke-width: 0.500000; stroke-linejoin: round; stroke-linecap: butt; stroke-dasharray: 1.000000,3.000000; stroke-dashoffset: 0.000000; opacity: 1.000000" clip-path="url(#p92c4cb1587840fe43c9a69ca7f348748)" d="M42.519685 21.023330L306.141732 21.023330"/>
</g>
<g id="line2d17">
<g ><use style="fill: none; stroke: #000000; stroke-width: 0.500000; stroke-linejoin: round; stroke-linecap: butt;  opacity: 1.000000" xlink:href="#m3400efa6b1638b3fea9e19e898273957" x="42.519685" y="21.023330"/>
</g></g>
<g id="line2d18">
<g ><use style="fill: none; stroke: #000000; stroke-width: 0.500000; stroke-linejoin: round; stroke-linecap: butt;  opacity: 1.000000" xlink:href="#m20b58b2501143cb5e0a5e8f1ef6f1643" x="306.141732" y="21.023330"/>
</g></g>
<g id="text6">
<defs>
<path id="Century_Schoolbook_L_Roman-101" d="M23.250000 11.000000
C23.296875 18.625000 19.046875 24.000000 12.953125 24.000000
C6.546875 24.000000 1.750000 18.406250 1.750000 10.859375
C1.750000 3.796875 6.296875 -1.000000 13.046875 -1.000000
C17.796875 -1.000000 21.203125 1.343750 23.250000 6.109375
L21.500000 7.046875
C19.453125 3.187500 17.343750 1.703125 14.000000 1.703125
C11.453125 1.703125 9.593750 2.796875 8.296875 4.984375
C7.406250 6.500000 7.000000 8.250000 7.046875 11.000000zM7.093750 13.140625
C7.093750 14.734375 7.296875 15.859375 7.796875 17.296875
C8.843750 20.359375 10.453125 21.859375 12.843750 21.859375
C15.906250 21.859375 17.906250 19.140625 17.906250 15.031250
C17.906250 13.546875 17.453125 13.140625 15.843750 13.140625z"/>
<path id="CMR17-50" d="M20.843750 7.609375L19.953125 7.609375
C19.453125 4.156250 19.046875 3.562500 18.843750 3.265625
C18.593750 2.890625 15.000000 2.890625 14.296875 2.890625L4.703125 2.890625
C6.500000 4.843750 10.000000 8.390625 14.250000 12.500000
C17.296875 15.390625 20.843750 18.796875 20.843750 23.750000
C20.843750 29.656250 16.156250 33.046875 10.906250 33.046875
C5.406250 33.046875 2.046875 27.984375 2.046875 23.296875
C2.046875 21.265625 3.500000 21.000000 4.093750 21.000000
C4.593750 21.000000 6.093750 21.296875 6.093750 23.046875
C6.093750 24.593750 4.796875 25.031250 4.093750 25.031250
C3.796875 25.031250 3.500000 24.984375 3.296875 24.875000
C4.250000 29.500000 7.156250 31.765625 10.203125 31.765625
C14.546875 31.765625 17.406250 28.328125 17.406250 23.765625
C17.406250 19.406250 14.843750 15.656250 12.000000 12.406250
L2.046875 1.140625L2.046875 0.000000L19.656250 0.000000z"/>
<path id="Century_Schoolbook_L_Roman-70" d="M31.203125 36.000000L1.453125 36.000000L1.453125 33.656250
L2.343750 33.656250
C6.406250 33.656250 6.843750 33.406250 6.843750 31.312500
L6.843750 29.859375L6.843750 6.140625L6.843750 4.687500
C6.843750 2.593750 6.406250 2.343750 2.343750 2.343750L1.453125 2.343750
L1.453125 0.000000L18.593750 0.000000L18.593750 2.343750L16.953125 2.343750
C12.906250 2.343750 12.453125 2.593750 12.453125 4.718750
L12.453125 6.187500L12.453125 17.656250L13.453125 17.656250
C16.546875 17.656250 17.750000 17.343750 18.796875 16.218750
C20.046875 14.843750 20.546875 13.125000 20.656250 10.000000
L23.000000 10.000000L23.000000 26.359375L20.656250 26.359375
C20.406250 21.796875 18.406250 20.000000 13.656250 20.000000
L12.453125 20.000000L12.453125 31.203125
C12.453125 33.296875 12.906250 33.656250 15.593750 33.656250
L17.906250 33.656250
C26.156250 33.656250 28.296875 31.750000 29.703125 23.203125
L31.906250 23.203125z"/>
<path id="Century_Schoolbook_L_Roman-40" d="M13.953125 36.734375
C10.953125 34.875000 9.343750 33.578125 7.656250 31.593750
C3.843750 27.093750 1.796875 21.359375 1.796875 15.312500
C1.796875 9.625000 3.593750 4.296875 6.953125 -0.156250
C8.843750 -2.546875 10.546875 -4.046875 13.953125 -6.140625
L13.953125 -4.296875C8.953125 0.093750 6.953125 5.734375 6.953125 15.312500
C6.953125 24.906250 8.953125 30.484375 13.953125 34.875000z"/>
<path id="CMMI12-102" d="M22.296875 19.687500
C23.296875 19.687500 23.703125 19.687500 23.703125 20.625000
C23.703125 21.125000 23.296875 21.125000 22.406250 21.125000
L18.343750 21.125000
C19.296875 26.375000 20.000000 29.984375 20.406250 31.609375
C20.703125 32.843750 21.750000 34.000000 23.046875 34.000000
C24.093750 34.000000 25.156250 33.531250 25.656250 33.093750
C23.703125 32.890625 23.093750 31.406250 23.093750 30.546875
C23.093750 29.531250 23.843750 28.921875 24.796875 28.921875
C25.796875 28.921875 27.296875 29.781250 27.296875 31.703125
C27.296875 33.843750 25.203125 35.000000 23.000000 35.000000
C20.843750 35.000000 18.750000 33.375000 17.750000 31.390625
C16.843750 29.625000 16.343750 27.796875 15.203125 21.125000
L11.843750 21.125000
C10.906250 21.125000 10.406250 21.125000 10.406250 20.234375
C10.406250 19.687500 10.703125 19.687500 11.703125 19.687500
L14.906250 19.687500
C14.000000 15.046875 11.953125 3.796875 10.796875 -1.546875
C9.953125 -5.859375 9.203125 -9.515625 6.703125 -9.515625
C6.546875 -9.515625 5.093750 -9.515625 4.203125 -8.562500
C6.750000 -8.359375 6.750000 -6.187500 6.750000 -6.125000
C6.750000 -5.140625 6.000000 -4.531250 5.046875 -4.531250
C4.046875 -4.531250 2.546875 -5.390625 2.546875 -7.281250
C2.546875 -9.406250 4.750000 -10.500000 6.703125 -10.500000
C11.796875 -10.500000 13.906250 -1.390625 14.453125 1.109375
C15.343750 4.921875 17.796875 18.187500 18.046875 19.687500z"/>
<path id="Century_Schoolbook_L_Roman-113" d="M22.453125 23.000000L20.093750 19.843750
C18.093750 22.656250 15.656250 24.000000 12.500000 24.000000
C6.406250 24.000000 1.796875 18.406250 1.796875 10.953125
C1.796875 4.031250 6.093750 -1.000000 11.953125 -1.000000
C15.046875 -1.000000 16.750000 -0.093750 18.750000 2.656250
L18.750000 -3.984375L18.750000 -5.921875
C18.750000 -7.875000 18.203125 -8.203125 14.953125 -8.203125
L14.406250 -8.203125L14.406250 -10.000000L27.406250 -10.000000
L27.406250 -8.203125L27.203125 -8.203125
C24.000000 -8.203125 23.453125 -7.859375 23.453125 -5.875000
L23.453125 -3.875000L23.453125 15.406250
C23.500000 18.234375 23.500000 18.437500 23.500000 18.984375
C23.593750 19.890625 23.750000 20.546875 24.296875 23.000000z
M12.953125 21.859375
C14.953125 21.859375 16.750000 20.546875 17.703125 18.421875
C18.453125 16.750000 18.750000 14.921875 18.750000 12.046875
C18.750000 5.140625 16.796875 1.703125 12.906250 1.703125
C9.203125 1.703125 7.046875 5.187500 7.046875 11.250000
C7.046875 18.312500 9.000000 21.859375 12.953125 21.859375"/>
<path id="Century_Schoolbook_L_Roman-110" d="M10.000000 23.000000L1.343750 23.000000L1.343750 20.609375
L3.156250 20.609375
C5.000000 20.609375 5.296875 20.250000 5.296875 18.109375L5.296875 6.156250
L5.296875 4.140625C5.296875 2.140625 4.750000 1.796875 1.546875 1.796875
L1.343750 1.796875L1.343750 0.000000L14.000000 0.000000L14.000000 1.796875
L13.796875 1.796875
C10.546875 1.796875 10.000000 2.140625 10.000000 4.140625
L10.000000 6.140625L10.000000 11.328125
C10.000000 13.765625 10.343750 16.015625 10.906250 17.171875
C11.953125 19.406250 14.203125 20.953125 16.343750 20.953125
C17.656250 20.953125 19.156250 20.203125 19.906250 19.218750
C20.656250 18.171875 21.000000 16.625000 21.000000 14.218750
L21.000000 6.140625L21.000000 4.140625
C21.000000 2.140625 20.453125 1.796875 17.203125 1.796875
L17.000000 1.796875L17.000000 0.000000L29.656250 0.000000
L29.656250 1.796875L29.453125 1.796875
C26.250000 1.796875 25.703125 2.140625 25.703125 4.140625
L25.703125 6.140625L25.703125 13.968750
C25.703125 17.562500 25.546875 18.468750 24.656250 20.156250
C23.406250 22.562500 20.843750 24.000000 17.906250 24.000000
C14.703125 24.000000 12.203125 22.515625 10.000000 19.265625z"/>
<path id="Century_Schoolbook_L_Roman-117" d="M20.593750 0.000000L29.703125 0.000000L29.703125 2.343750
L28.453125 2.343750
C25.703125 2.343750 25.296875 2.781250 25.296875 5.906250
L25.296875 23.000000L15.906250 23.000000L15.906250 20.609375
L18.453125 20.609375
C20.296875 20.609375 20.593750 20.250000 20.593750 18.109375
L20.593750 11.968750
C20.593750 9.125000 20.296875 7.484375 19.546875 5.828125
C18.500000 3.640625 16.500000 2.343750 14.046875 2.343750
C12.500000 2.343750 11.203125 2.890625 10.546875 3.875000
C9.906250 4.812500 9.796875 5.296875 9.796875 8.000000L9.796875 23.000000
L1.046875 23.000000L1.046875 20.609375L2.953125 20.609375
C4.796875 20.609375 5.093750 20.250000 5.093750 18.078125L5.093750 7.140625
C5.093750 4.562500 5.296875 3.406250 6.046875 2.234375
C7.406250 0.171875 9.796875 -1.000000 12.796875 -1.000000
C16.093750 -1.000000 18.406250 0.468750 20.593750 3.984375z"/>
<path id="CMR17-49" d="M13.296875 31.906250
C13.296875 32.953125 13.250000 33.000000 12.546875 33.000000
C10.593750 30.781250 7.656250 30.093750 4.843750 30.093750
C4.703125 30.093750 4.453125 30.093750 4.406250 29.953125
C4.343750 29.859375 4.343750 29.750000 4.343750 28.718750
C5.906250 28.718750 8.500000 29.015625 10.500000 30.187500
L10.500000 3.625000C10.500000 1.843750 10.406250 1.250000 6.093750 1.250000
L4.593750 1.250000L4.593750 0.000000
C7.000000 0.000000 9.500000 0.000000 11.906250 0.000000
C14.296875 0.000000 16.796875 0.000000 19.203125 0.000000
L19.203125 1.250000L17.703125 1.250000
C13.406250 1.250000 13.296875 1.796875 13.296875 3.609375z"/>
<path id="Century_Schoolbook_L_Roman-114" d="M9.906250 23.000000L1.046875 23.000000L1.046875 20.609375
L3.093750 20.609375
C4.953125 20.609375 5.250000 20.250000 5.250000 18.109375L5.250000 6.156250
L5.250000 4.140625C5.250000 2.140625 4.703125 1.796875 1.453125 1.796875
L1.250000 1.796875L1.250000 0.000000L14.593750 0.000000L14.593750 1.796875
L13.656250 1.796875C10.453125 1.796875 9.906250 2.140625 9.906250 4.140625
L9.906250 6.156250L9.906250 6.656250
C9.906250 10.390625 10.593750 14.203125 11.843750 17.046875
C13.046875 19.859375 14.750000 21.406250 16.843750 21.656250
C16.156250 20.859375 15.953125 20.343750 15.953125 19.390625
C15.953125 17.781250 17.093750 16.625000 18.703125 16.625000
C20.500000 16.625000 21.750000 17.968750 21.750000 20.015625
C21.750000 22.406250 20.046875 24.000000 17.406250 24.000000
C14.250000 24.000000 11.500000 21.453125 9.906250 17.078125z"/>
<path id="CMSY10-0" d="M32.953125 11.281250
C33.796875 11.281250 34.703125 11.281250 34.703125 12.281250
C34.703125 13.281250 33.796875 13.281250 32.953125 13.281250
L5.906250 13.281250
C5.046875 13.281250 4.156250 13.281250 4.156250 12.281250
C4.156250 11.281250 5.046875 11.281250 5.906250 11.281250z"/>
<path id="CMR17-53" d="M5.703125 29.843750
C6.203125 29.640625 8.250000 29.000000 10.343750 29.000000
C15.000000 29.000000 17.546875 31.500000 19.000000 32.953125
C19.000000 33.359375 19.000000 33.625000 18.703125 33.625000
C18.656250 33.625000 18.546875 33.625000 18.156250 33.421875
C16.406250 32.640625 14.343750 32.031250 11.843750 32.031250
C10.343750 32.031250 8.093750 32.234375 5.656250 33.375000
C5.093750 33.625000 5.000000 33.625000 4.953125 33.625000
C4.703125 33.625000 4.656250 33.578125 4.656250 32.578125
L4.656250 18.140625
C4.656250 17.250000 4.656250 17.000000 5.156250 17.000000
C5.406250 17.000000 5.500000 17.109375 5.750000 17.500000
C7.343750 20.046875 9.546875 21.109375 12.046875 21.109375
C13.796875 21.109375 17.546875 19.984375 17.546875 11.281250
C17.546875 9.640625 17.546875 6.703125 16.046875 4.359375
C14.796875 2.265625 12.843750 1.187500 10.703125 1.187500
C7.406250 1.187500 4.046875 3.515625 3.156250 7.375000
C3.343750 7.328125 3.750000 7.218750 3.953125 7.218750
C4.593750 7.218750 5.843750 7.562500 5.843750 9.109375
C5.843750 10.453125 4.906250 11.000000 3.953125 11.000000
C2.796875 11.000000 2.046875 10.296875 2.046875 8.890625
C2.046875 4.546875 5.500000 0.000000 10.796875 0.000000
C15.953125 0.000000 20.843750 4.531250 20.843750 11.078125
C20.843750 17.171875 16.953125 21.890625 12.093750 21.890625
C9.546875 21.890625 7.406250 20.875000 5.703125 18.906250z"/>
<path id="Century_Schoolbook_L_Roman-122" d="M21.406250 23.000000L3.343750 23.000000L2.906250 14.656250
L4.906250 14.656250
C5.343750 19.078125 7.156250 20.859375 11.250000 20.859375
L15.593750 20.859375L1.953125 1.796875L1.953125 0.000000L21.406250 0.000000
L21.750000 8.843750L19.750000 8.843750
C19.250000 3.968750 17.343750 2.140625 12.843750 2.140625L7.750000 2.140625
L21.406250 21.203125z"/>
<path id="Century_Schoolbook_L_Roman-121" d="M15.000000 6.359375L9.500000 18.953125
C9.296875 19.390625 9.203125 19.750000 9.203125 19.968750
C9.203125 20.859375 9.796875 21.203125 11.500000 21.203125
L12.546875 21.203125L12.546875 23.000000L0.656250 23.000000
L0.656250 21.203125L1.203125 21.203125
C2.796875 21.203125 3.703125 20.531250 4.593750 18.562500
L12.750000 0.484375L11.906250 -1.218750
C10.093750 -4.953125 7.750000 -7.546875 6.156250 -7.546875
C5.703125 -7.546875 5.343750 -7.359375 5.343750 -7.062500
C5.343750 -6.968750 5.406250 -6.828125 5.453125 -6.625000
C5.593750 -6.187500 5.703125 -5.734375 5.703125 -5.343750
C5.703125 -4.078125 4.593750 -3.140625 3.156250 -3.140625
C1.406250 -3.140625 0.156250 -4.421875 0.156250 -6.203125
C0.156250 -8.375000 2.093750 -10.000000 4.703125 -10.000000
C7.343750 -10.000000 9.593750 -8.718750 11.593750 -6.062500
C13.156250 -4.015625 14.156250 -2.062500 16.343750 3.390625
L22.046875 17.234375
C23.296875 20.218750 24.343750 21.203125 26.250000 21.203125
L26.546875 21.203125L26.546875 23.000000L16.546875 23.000000
L16.546875 21.203125L17.343750 21.203125
C19.250000 21.203125 20.046875 20.671875 20.046875 19.390625
C20.046875 18.906250 19.906250 18.265625 19.546875 17.421875z"/>
<path id="CMR17-48" d="M21.000000 16.875000
C21.000000 19.921875 20.953125 25.140625 18.843750 29.140625
C17.000000 32.656250 14.046875 33.890625 11.453125 33.890625
C9.046875 33.890625 6.000000 32.796875 4.093750 29.187500
C2.093750 25.437500 1.906250 20.765625 1.906250 16.875000
C1.906250 14.015625 1.953125 9.656250 3.500000 5.859375
C5.656250 0.703125 9.500000 0.000000 11.453125 0.000000
C13.750000 0.000000 17.250000 0.953125 19.296875 5.703125
C20.796875 9.156250 21.000000 13.218750 21.000000 16.875000
M11.453125 0.796875C8.250000 0.796875 6.343750 3.546875 5.656250 7.359375
C5.093750 10.312500 5.093750 14.625000 5.093750 17.437500
C5.093750 21.281250 5.093750 24.500000 5.750000 27.562500
C6.703125 31.796875 9.500000 33.109375 11.453125 33.109375
C13.500000 33.109375 16.156250 31.750000 17.093750 27.656250
C17.750000 24.796875 17.796875 21.437500 17.796875 17.437500
C17.796875 14.171875 17.796875 10.171875 17.203125 7.218750
C16.156250 1.750000 13.203125 0.796875 11.453125 0.796875"/>
<path id="Century_Schoolbook_L_Roman-41" d="M2.703125 -6.140625
C5.703125 -4.296875 7.296875 -3.000000 9.000000 -0.953125
C12.796875 3.500000 14.843750 9.281250 14.843750 15.312500
C14.843750 21.015625 13.046875 26.343750 9.703125 30.734375
C7.796875 33.187500 6.093750 34.687500 2.703125 36.734375
L2.703125 34.875000
C7.703125 30.484375 9.703125 24.906250 9.703125 15.312500
C9.703125 5.687500 7.703125 0.093750 2.703125 -4.296875z"/>
<path id="Century_Schoolbook_L_Roman-72" d="M29.203125 17.296875L29.203125 6.140625L29.203125 4.687500
C29.203125 2.593750 28.750000 2.343750 24.703125 2.343750
L23.796875 2.343750L23.796875 0.000000L40.203125 0.000000
L40.203125 2.343750L39.296875 2.343750
C35.250000 2.343750 34.796875 2.593750 34.796875 4.687500
L34.796875 6.140625L34.796875 29.859375L34.796875 31.312500
C34.796875 33.406250 35.250000 33.656250 39.296875 33.656250
L40.203125 33.656250L40.203125 36.000000L24.000000 36.000000
L24.000000 33.656250L24.703125 33.656250
C28.750000 33.656250 29.203125 33.406250 29.203125 31.312500
L29.203125 29.859375L29.203125 20.000000L12.453125 20.000000
L12.453125 29.859375L12.453125 31.312500
C12.453125 33.406250 12.906250 33.656250 16.953125 33.656250
L17.906250 33.656250L17.906250 36.000000L1.453125 36.000000
L1.453125 33.656250L2.343750 33.656250
C6.406250 33.656250 6.843750 33.406250 6.843750 31.312500
L6.843750 29.859375L6.843750 6.140625L6.843750 4.687500
C6.843750 2.593750 6.406250 2.343750 2.343750 2.343750L1.453125 2.343750
L1.453125 0.000000L17.906250 0.000000L17.906250 2.343750L16.953125 2.343750
C12.906250 2.343750 12.453125 2.593750 12.453125 4.687500
L12.453125 6.140625L12.453125 17.296875z"/>
<path id="Century_Schoolbook_L_Roman-99" d="M19.343750 7.156250
C17.750000 3.515625 16.046875 2.046875 13.453125 2.046875
C9.453125 2.046875 6.953125 5.734375 6.953125 11.656250
C6.953125 17.765625 9.406250 21.859375 13.093750 21.859375
C14.593750 21.859375 15.906250 21.140625 15.906250 20.343750
C15.906250 20.187500 15.796875 20.031250 15.593750 19.734375
C14.796875 18.765625 14.593750 18.265625 14.593750 17.406250
C14.593750 15.734375 15.843750 14.578125 17.593750 14.578125
C19.343750 14.578125 20.656250 15.984375 20.656250 18.000000
C20.656250 21.375000 17.296875 24.000000 12.843750 24.000000
C6.343750 24.000000 1.703125 18.609375 1.703125 11.109375
C1.703125 3.937500 5.953125 -1.000000 12.156250 -1.000000
C16.593750 -1.000000 19.156250 1.062500 21.296875 6.390625z"/>
</defs>
<g style="fill: #000000; opacity: 1.000000" transform="translate(34.285502,23.591481)scale(0.160000,-0.160000)">
<use xlink:href="#CMR17-49" x="0.000000" y="0.000000" transform="scale(0.996264)"/>
</g><!-- style -->
</g>
</g>
</g>
<g id="patch5">
<path style="fill: none; stroke: #000000; stroke-width: 1.000000; stroke-linejoin: round; stroke-linecap: square;  opacity: 1.000000"  d="M42.519685 21.023330L306.141732 21.023330"/>
</g>
<g id="patch6">
<path style="fill: none; stroke: #000000; stroke-width: 1.000000; stroke-linejoin: round; stroke-linecap: square;  opacity: 1.000000"  d="M306.141732 168.186640L306.141732 21.023330"/>
</g>
<g id="patch7">
<path style="fill: none; stroke: #000000; stroke-width: 1.000000; stroke-linejoin: round; stroke-linecap: square;  opacity: 1.000000"  d="M42.519685 168.186640L306.141732 168.186640"/>
</g>
<g id="patch8">
<path style="fill: none; stroke: #000000; stroke-width: 1.000000; stroke-linejoin: round; stroke-linecap: square;  opacity: 1.000000"  d="M42.519685 168.186640L42.519685 21.023330"/>
</g>
</g>
</g>
</svg>
