<?xml version="1.0" encoding="utf-8" standalone="no"?>
<!DOCTYPE svg PUBLIC "-//W3C//DTD SVG 1.1//EN"
  "http://www.w3.org/Graphics/SVG/1.1/DTD/svg11.dtd">
<!-- Created with matplotlib (http://matplotlib.org/) -->
<svg height="207pt" version="1.1" viewBox="0 0 345 207" width="345pt" xmlns="http://www.w3.org/2000/svg" xmlns:xlink="http://www.w3.org/1999/xlink">
 <defs>
  <style type="text/css">
*{stroke-linecap:butt;stroke-linejoin:round;}
  </style>
 </defs>
 <g id="figure_1">
  <g id="patch_1">
   <path d="
M0 207
L345 207
L345 0
L0 0
z
" style="fill:#ffffff;"/>
  </g>
  <g id="axes_1">
   <g id="patch_2">
    <path d="
M43.125 175.95
L301.875 175.95
L301.875 20.7
L43.125 20.7
z
" style="fill:#ffffff;"/>
   </g>
   <g id="line2d_1">
    <path clip-path="url(#p42680d1cdf)" d="
M102.926 -1
L103.111 23.6645
L103.366 -1
M104.876 -1
L104.976 4.0717
L105.09 -1
M106.411 -1
L106.53 3.94876
L106.655 -1
M107.391 -1
L107.463 -0.150447
L107.463 -0.150447
L107.463 -0.150447
L107.5 -1
M110.226 -1
L110.26 -0.18473
L110.26 -0.18473
L110.26 -0.18473
L110.288 -1
M111.621 -1
L111.814 8.74226
L112.03 -1
M112.733 -1
L113.057 3.27891
L113.198 -1
M113.759 -1
L113.99 8.92305
L114.259 -1
M114.452 -1
L114.611 0.60233
L114.7 -1
M115.579 -1
L115.855 25.9652
L116.166 0.813961
L116.723 -1
M116.799 -1
L117.098 5.20053
L117.72 0.720895
L118.03 2.20942
L118.341 18.194
L118.652 1.14496
L118.963 2.66
L119.274 2.69546
L119.584 1.82377
L119.895 7.65921
L120.206 3.60481
L120.517 1.64293
L120.828 1.25574
L121.139 1.71064
L121.449 0.461934
L121.76 5.55833
L122.071 5.46699
L122.693 8.5481
L123.003 4.95674
L123.314 13.6647
L123.625 7.87066
L123.936 13.955
L124.247 8.85992
L124.557 31.2798
L124.868 5.60471
L125.49 5.97082
L125.801 12.4354
L126.111 14.879
L126.422 8.75254
L126.733 16.3501
L127.044 11.3438
L127.666 9.80744
L127.976 10.469
L128.287 12.24
L128.598 20.5217
L128.909 9.97241
L129.22 11.3278
L129.53 14.5172
L129.841 14.0307
L130.152 14.0971
L130.463 15.6601
L130.774 17.927
L131.084 11.3155
L131.395 13.056
L131.706 27.5105
L132.017 15.231
L132.328 19.8794
L132.639 19.0083
L132.949 13.2267
L133.26 15.0896
L133.571 14.8722
L133.882 14.1142
L134.193 33.4127
L134.503 22.1727
L134.814 17.4285
L135.125 15.7786
L135.436 26.1299
L135.747 16.7749
L136.057 19.9976
L136.368 27.0937
L136.679 20.5145
L136.99 30.5797
L137.301 18.0358
L137.611 24.131
L137.922 33.6805
L138.233 19.1475
L138.544 19.9525
L138.855 24.1828
L139.166 25.6464
L139.476 24.5101
L139.787 30.2763
L140.098 22.7952
L140.409 27.3727
L140.72 21.8968
L141.03 22.9221
L141.341 21.781
L141.652 27.5225
L141.963 29.796
L142.274 26.6821
L142.584 38.4818
L142.895 31.4522
L143.206 27.9201
L143.517 27.6078
L143.828 25.9187
L144.139 27.9644
L144.449 25.4428
L144.76 24.3172
L145.071 32.7456
L145.382 32.7665
L145.693 27.9699
L146.003 25.604
L146.314 29.868
L146.625 27.0174
L146.936 32.5786
L147.247 30.7987
L147.557 30.3253
L147.868 39.3174
L148.179 29.538
L148.49 27.03
L148.801 28.9545
L149.111 45.5527
L149.733 31.7207
L150.044 31.4602
L150.355 33.0436
L150.666 36.9949
L150.976 31.3233
L151.598 34.1516
L151.909 40.4564
L152.22 32.7757
L152.53 38.4436
L152.841 34.8456
L153.152 35.7389
L153.774 44.1386
L154.084 40.2209
L154.395 38.8586
L154.706 51.5393
L155.017 37.1475
L155.328 39.7219
L155.639 38.493
L155.949 40.0172
L156.26 53.7846
L156.571 40.8372
L156.882 45.1601
L157.193 38.1356
L157.503 47.6636
L157.814 36.7874
L158.125 37.6819
L158.747 43.2074
L159.057 42.5295
L159.368 44.087
L159.679 40.3268
L159.99 59.4864
L160.611 40.5005
L160.922 55.5199
L161.233 41.5561
L161.544 40.2102
L161.855 41.8083
L162.476 46.6429
L162.787 51.5149
L163.098 45.8842
L163.409 47.1545
L163.72 47.2389
L164.03 48.4402
L164.341 47.5636
L164.652 48.8613
L164.963 48.7734
L165.274 48.8305
L165.584 53.0934
L165.895 47.6039
L166.206 49.8906
L166.517 48.9136
L166.828 61.7983
L167.139 49.3389
L167.449 47.4202
L167.76 55.2521
L168.071 51.0861
L168.382 52.1949
L168.693 52.6816
L169.003 56.2204
L169.314 52.0309
L169.625 62.0935
L169.936 55.7842
L170.247 77.3144
L170.557 58.9927
L170.868 58.4007
L171.179 56.1974
L171.49 58.0688
L171.801 61.0694
L172.111 54.1711
L172.422 53.8154
L172.733 51.8376
L173.044 60.1655
L173.355 55.3398
L173.666 64.717
L173.976 59.8739
L174.287 62.2147
L174.909 78.2043
L175.22 63.1027
L175.53 55.9539
L175.841 58.5155
L176.152 63.4092
L176.463 63.5971
L176.774 60.2631
L177.395 68.9426
L177.706 56.5003
L178.328 73.2547
L178.639 62.482
L178.949 61.2998
L179.26 62.5556
L179.571 67.8805
L179.882 61.6572
L180.193 75.705
L180.503 60.3942
L181.125 64.8493
L181.436 60.3002
L181.747 67.2166
L182.057 63.7587
L182.368 61.7001
L182.99 71.298
L183.301 66.3297
L183.611 72.662
L183.922 64.3259
L184.233 83.645
L184.544 64.8299
L184.855 64.7801
L185.166 71.9175
L185.476 66.355
L186.098 67.4212
L186.409 68.7286
L186.72 76.5856
L187.03 71.6603
L187.341 71.444
L187.652 68.2722
L187.963 66.5249
L188.274 73.4564
L188.584 77.5692
L188.895 69.9634
L189.206 71.1736
L189.517 69.1999
L189.828 72.5893
L190.139 72.1928
L190.449 76.5586
L190.76 75.9855
L191.071 90.5616
L191.382 76.7282
L191.693 77.7772
L192.003 72.8155
L192.314 74.0333
L192.625 80.1971
L192.936 75.4442
L193.247 80.7233
L193.557 93.3115
L193.868 80.7727
L194.179 78.847
L194.49 90.1172
L194.801 79.6504
L195.111 84.8802
L195.733 76.0652
L196.355 80.473
L196.666 74.1192
L196.976 87.8756
L197.287 82.8661
L197.598 81.8182
L197.909 84.6214
L198.22 92.7891
L198.53 79.7004
L198.841 89.1934
L199.152 78.2576
L199.463 104.942
L199.774 86.4263
L200.084 87.7855
L200.395 78.5154
L200.706 85.0983
L201.017 82.3838
L201.328 106.358
L201.949 86.8859
L202.26 87.3083
L202.571 80.6691
L202.882 106
L203.193 110.023
L203.503 85.8595
L203.814 85.168
L204.125 86.6972
L204.436 100.884
L205.057 81.3805
L205.368 87.7784
L205.679 90.3582
L205.99 104.751
L206.301 100.92
L206.922 87.8307
L207.233 90.5872
L207.544 88.7072
L207.855 91.4005
L208.166 90.1634
L208.476 91.2328
L208.787 96.2173
L209.098 88.6469
L209.409 92.6675
L209.72 90.8756
L210.03 98.1549
L210.341 89.0332
L210.652 91.8142
L210.963 97.141
L211.274 89.9219
L211.584 91.0634
L211.895 96.8833
L212.206 115.966
L212.517 94.3713
L212.828 100.271
L213.139 100.644
L213.449 97.4356
L213.76 102.914
L214.071 102.569
L214.382 106.222
L214.693 105.09
L215.003 96.4604
L215.314 106.764
L215.625 103.686
L215.936 98.286
L216.247 106.066
L216.557 111.059
L216.868 110.438
L217.179 102.562
L217.801 110.686
L218.111 105.672
L218.422 112.057
L218.733 102.72
L219.044 100.591
L219.355 110.337
L219.666 115.352
L219.976 114.127
L220.287 108.939
L220.598 106.517
L220.909 101.752
L221.22 104.225
L221.53 141.698
L221.841 114.525
L222.152 106.865
L222.463 104.716
L222.774 105.057
L223.084 104.926
L223.395 126.771
L223.706 115.767
L224.017 123.96
L224.328 105.024
L224.639 103.786
L224.949 105.822
L225.26 110.438
L225.571 110.52
L225.882 108.697
L226.193 111.749
L226.503 109.026
L226.814 109.827
L227.436 116.837
L227.747 111.255
L228.368 116.687
L228.679 116.921
L228.99 107.24
L229.301 113.621
L229.611 115.496
L229.922 116.51
L230.233 118.694
L230.544 137.804
L230.855 117.256
L231.166 112.321
L231.476 129.674
L231.787 114.799
L232.098 113.765
L232.409 113.755
L232.72 119.132
L233.03 119.286
L233.341 113.218
L233.963 125.229
L234.274 121.642
L234.584 131.181
L234.895 118.933
L235.206 119.525
L235.517 122.683
L235.828 134.659
L236.139 118.244
L236.449 126.298
L236.76 118.375
L237.071 124.866
L237.382 120.765
L237.693 122.182
L238.003 132.655
L238.314 123.613
L238.625 130.568
L238.936 125.458
L239.247 130.015
L239.557 124.46
L239.868 125.229
L240.179 121.334
L240.49 141.698
L240.801 125.947
L241.111 119.947
L241.422 121.186
L241.733 137.142
L242.044 125.009
L242.355 137.804
L242.666 123.501
L242.976 136.55
L243.287 138.554
L243.598 136.55
L243.909 135.526
L244.22 136.014
L244.53 132.12
L244.841 137.804
L245.152 128.487
L245.463 127.075
L245.774 134.272
L246.395 130.969
L246.706 125.947
L247.017 127.736
L247.328 131.631
L247.639 129.049
L247.949 136.55
L248.26 131.181
L248.571 132.12
L248.882 133.909
L249.193 133.247
L249.503 132.944
L249.814 133.909
L250.125 132.12
M250.747 133.569
L251.057 137.804
L251.368 141.698
L251.679 136.55
L252.301 133.909
L252.611 136.014
L252.922 139.42
L253.233 137.142
L253.544 137.142
L254.166 133.247
L254.476 135.076
L254.787 134.272
L255.098 145.593
L255.409 136.014
L256.03 143.315
L256.341 141.698
L256.652 141.698
M257.274 141.698
L257.584 137.804
L257.895 137.804
L258.206 149.488
L258.517 143.315
L258.828 149.488
L259.139 137.804
L259.449 141.698
L260.071 141.698
L260.382 143.315
L260.693 145.593
L261.003 141.698
L261.314 143.315
L261.625 143.315
L261.936 140.445
L262.557 143.315
L262.868 141.698
L263.179 141.698
L263.49 145.593
L264.111 141.698
M264.733 139.42
L265.044 141.698
L265.355 143.315
L266.287 143.315
L266.598 141.698
L266.909 141.698
L267.22 140.445
L267.53 143.315
L267.841 141.698
L268.152 143.315
L268.463 141.698
L268.774 145.593
L269.395 140.445
L269.706 145.593
L274.252 -1
L274.252 -1" style="fill:none;stroke:#333333;stroke-linecap:square;"/>
   </g>
   <g id="line2d_2">
    <path clip-path="url(#p42680d1cdf)" d="
M185.762 -1
L185.787 0.80912
L185.787 0.80912
L185.787 0.80912
L185.817 -1
M186.372 -1
L186.409 1.28393
L186.409 1.28393
L186.409 1.28393
L186.437 -1
M190.09 -1
L190.139 1.5825
L190.343 -1
M191.229 -1
L191.382 4.49977
L191.5 -1
M191.894 -1
L192.003 3.81989
L192.314 4.40549
L192.435 -1
M192.919 -1
L192.936 -0.510796
L192.936 -0.510796
L192.936 -0.510796
L192.969 -1
M194.487 -1
L194.49 -0.947319
L194.801 11.4522
L195.111 11.5414
L195.38 -1
M195.549 -1
L195.733 1.84947
L195.866 -1
M196.414 -1
L196.666 16.7542
L196.944 -1
M197.065 -1
L197.287 4.14748
L197.598 2.58769
L197.909 17.2759
L198.195 -1
M198.278 -1
L198.841 17.0968
L199.152 4.66644
L199.463 15.8096
L199.774 3.70773
L200.084 10.4459
L200.395 11.6043
L200.706 4.91359
L201.017 17.7614
L201.328 6.27732
L201.639 7.02202
L201.949 11.4436
L202.26 10.8618
L202.571 6.96781
L202.882 20.0057
L203.193 14.3856
L203.503 22.7351
L203.814 14.3566
L204.125 24.2238
L204.436 22.4155
L204.747 19.3477
L205.057 23.0097
L205.368 21.9142
L205.679 18.921
L205.99 17.7797
L206.301 22.4569
L206.611 25.0559
L206.922 16.1134
L207.233 26.2856
L207.544 22.2026
L207.855 24.3065
L208.166 33.4849
L208.476 24.705
L208.787 29.7443
L209.098 26.8579
L209.409 27.1468
L209.72 26.4103
L210.03 31.5382
L210.341 27.6904
L210.652 29.5191
L210.963 30.048
L211.274 29.2642
L211.584 42.4623
L211.895 36.9615
L212.206 37.8495
L212.517 31.3822
L212.828 33.8122
L213.139 35.1393
L213.449 33.2778
L213.76 34.3866
L214.071 34.8274
L214.382 38.5707
L214.693 49.9836
L215.003 39.3163
L215.314 37.3952
L215.936 43.9755
L216.247 55.4848
L216.557 38.5143
L216.868 53.7903
L217.179 48.0186
L217.49 68.5192
L217.801 42.3648
L218.111 45.4358
L218.422 40.6478
L218.733 45.0774
L219.044 40.5999
L219.355 56.4802
L219.666 63.262
L219.976 50.899
L220.287 43.605
L220.909 47.6754
L221.22 46.8822
L221.53 57.2818
L221.841 60.9464
L222.152 54.4
L222.463 67.7513
L222.774 62.1991
L223.084 62.0129
L223.395 56.6238
L223.706 56.1519
L224.017 62.9755
L224.328 63.4376
L224.639 80.3911
L224.949 58.5616
L225.26 56.9904
L225.571 62.0253
L225.882 69.254
L226.193 68.245
L226.503 83.1086
L226.814 59.5508
L227.125 66.9414
L227.436 68.918
L227.747 65.9257
L228.057 60.2946
L228.99 64.318
L229.301 70.4358
L229.611 64.9605
L229.922 76.6863
L230.233 92.8516
L230.544 74.1982
L230.855 65.54
L231.476 87.1205
L231.787 78.764
L232.098 73.4308
L232.409 70.9284
L232.72 77.5792
L233.03 68.4639
L233.341 72.9629
L233.963 77.1812
L234.274 82.1554
L234.584 79.5497
L234.895 81.8204
L235.206 92.7742
L235.517 76.5821
L236.139 79.7375
L236.449 93.719
L236.76 79.4505
L237.071 80.2138
L237.382 92.9738
L237.693 83.7345
L238.003 89.2191
L238.314 85.9777
L238.625 87.1515
L238.936 93.6066
L239.247 87.2973
L239.557 85.9189
L239.868 86.8114
L240.179 91.7566
L240.49 84.1127
L240.801 97.4655
L241.111 87.1364
L241.422 88.3079
L241.733 93.1542
L242.044 101.989
L242.355 100.866
L242.666 93.0821
L242.976 93.8049
L243.598 104.314
L243.909 99.3419
L244.22 101.425
L244.53 95.0537
L244.841 107.11
L245.152 98.8924
L245.463 109.115
L245.774 99.3434
L246.084 109.549
L246.706 99.4232
L247.017 112.382
L247.639 102.011
L247.949 106.353
L248.26 120.598
L248.571 102.78
L248.882 122.876
L249.193 106.464
L249.503 108.713
L249.814 106.727
L250.125 107.717
L250.436 113.755
L250.747 105.045
L251.057 112.374
L251.368 107.992
L251.679 119.607
L251.99 111.702
L252.301 116.112
L252.611 116.201
L252.922 125.304
L253.233 116.51
L253.544 117.63
L253.855 112.568
L254.476 131.402
L254.787 129.511
L255.098 126.12
L255.409 126.483
L255.72 118.375
L256.03 118.331
L256.341 117.31
L256.652 117.572
L256.963 139.42
L257.274 135.526
L257.584 134.272
L257.895 120.436
L258.206 130.765
L258.517 136.55
L258.828 132.944
L259.139 125.154
L259.449 129.049
L259.76 149.488
L260.071 133.247
L260.382 145.593
L260.693 131.631
L261.314 145.593
L261.625 132.655
L261.936 139.42
L262.247 137.804
L262.557 145.593
L262.868 136.55
L263.179 132.944
L263.49 133.247
L263.801 139.42
L264.111 136.014
L264.422 134.272
L264.733 139.42
L265.044 140.445
L265.355 145.593
L265.666 135.526
L265.976 139.42
L266.287 137.804
L266.598 137.142
L266.909 139.42
L267.22 135.076
L267.53 140.445
L267.841 137.804
L268.152 139.42
L268.463 137.142
L269.084 138.554
L269.395 140.445
L269.706 145.593
L270.017 137.804
L270.639 114.729
L274.252 -1
L274.252 -1" style="fill:none;stroke:#666666;stroke-linecap:square;"/>
   </g>
   <g id="line2d_3">
    <path clip-path="url(#p42680d1cdf)" d="
M218.498 -1
L218.733 29.5728
L218.991 -1
M219.752 -1
L219.976 3.58919
L220.236 -1
M220.321 -1
L220.598 6.33093
L220.734 -1
M221.634 -1
L221.841 4.51468
L222.152 2.2188
L222.463 1.33941
L222.568 -1
M222.994 -1
L223.084 0.865641
L223.395 11.6126
L223.706 0.856587
L224.017 8.57479
L224.328 3.46339
L224.639 7.74639
L224.949 5.9722
L225.26 11.5112
L225.571 10.699
L225.882 7.62271
L226.193 14.5084
L226.503 15.4225
L226.814 9.64427
L227.125 13.7983
L227.436 13.2437
L227.747 20.217
L228.057 17.2273
L228.368 22.7163
L228.99 15.3141
L229.301 24.8235
L229.611 27.7178
L229.922 19.7903
L230.233 32.0242
L230.544 24.8356
L230.855 21.3254
L231.476 32.7471
L231.787 28.8383
L232.098 42.9525
L232.409 26.2273
L232.72 35.9204
L233.03 36.0376
L233.341 26.5225
L233.652 32.8062
L233.963 32.8791
L234.274 40.1022
L234.584 36.9734
L234.895 37.9927
L235.517 43.9802
L235.828 51.8246
L236.139 51.094
L236.449 48.5211
L236.76 47.4834
L237.071 77.3893
L237.382 41.7647
L238.003 57.8148
L238.314 45.1825
L238.625 53.0921
L238.936 55.4964
L239.247 47.2528
L239.557 55.7813
L239.868 52.8598
L240.179 53.8553
L240.49 68.0877
L240.801 52.5189
L241.111 59.0906
L241.422 56.9576
L241.733 84.4594
L242.044 56.9801
L242.355 64.2549
L242.666 58.3302
L242.976 75.7317
L243.287 67.0365
L243.598 67.9639
L244.22 63.5223
L244.53 72.7424
L244.841 72.7023
L245.152 78.2452
L245.463 65.7575
L245.774 78.2131
L246.084 78.582
L246.395 71.4257
L246.706 70.5852
L247.017 67.5739
L247.328 77.3603
L247.949 87.8026
L248.26 76.9886
L248.571 83.4006
L248.882 77.6749
L249.193 81.3904
L249.503 77.8674
L249.814 82.6
L250.125 82.0566
L250.436 83.3194
L250.747 103.714
L251.057 85.6127
L251.368 91.5715
L251.679 94.5167
L251.99 90.5428
L252.301 103.881
L252.611 93.1677
L252.922 97.0324
L253.233 90.8354
L253.544 97.1138
L253.855 93.4507
L254.476 99.4827
L254.787 97.3921
L255.098 101.771
L255.409 96.4229
L255.72 113.13
L256.03 113.397
L256.341 103.251
L256.652 109.132
L256.963 107.197
L257.274 111.059
L257.584 103.806
L257.895 123.501
L258.206 106.054
L258.517 113.545
L258.828 113.271
L259.139 105.161
L259.449 110.401
L259.76 107.563
L260.071 107.999
L260.382 108.105
L260.693 132.12
L261.003 114.846
L261.314 124.796
L261.625 111.735
L261.936 121.26
L262.247 117.077
L262.557 116.671
L262.868 117.292
L263.179 128.761
L263.49 125.458
L263.801 124.204
L264.111 119.774
L264.422 126.298
L264.733 124.728
L265.044 124.866
L265.355 124.331
L265.666 124.728
L265.976 126.87
L266.287 125.009
L266.598 132.655
L267.22 125.304
L268.152 132.655
L268.774 131.631
L269.084 135.526
L269.395 135.526
L269.706 136.55
L270.017 132.655
L270.639 114.592
L274.252 -1
L274.252 -1" style="fill:none;stroke:#999999;stroke-linecap:square;"/>
   </g>
   <g id="line2d_4">
    <path clip-path="url(#p42680d1cdf)" d="
M233.795 -1
L233.963 13.0384
L234.296 -1
M234.935 -1
L235.206 7.41425
L235.517 9.05035
L235.733 -1
M236.02 -1
L236.139 1.75233
L236.231 -1
M236.686 -1
L236.76 1.02068
L237.071 -0.954127
L237.693 5.98246
L238.003 3.67505
L238.625 7.93135
L238.936 5.90367
L239.247 5.68478
L239.557 12.6534
L239.868 9.73384
L240.49 16.1386
L240.801 13.2092
L241.111 15.8887
L241.422 29.5671
L241.733 24.9051
L242.044 30.6466
L242.666 21.3963
L242.976 22.7223
L243.287 25.564
L243.598 34.9951
L243.909 38.5515
L244.22 34.41
L244.53 27.3731
L244.841 30.4428
L245.152 31.1134
L245.463 66.8763
L245.774 42.3678
L246.084 40.3169
L246.395 41.35
L246.706 34.1271
L247.017 41.2587
L247.328 53.042
L247.639 48.9754
L247.949 63.1912
L248.26 49.8482
L248.571 46.7222
L248.882 56.8096
L249.193 50.968
L249.503 53.7431
L249.814 50.5433
L250.125 52.132
L250.436 52.7704
L250.747 59.5211
L251.057 56.5156
L251.368 58.633
L251.679 58.9056
L251.99 67.5155
L252.301 63.1606
L252.611 62.1818
L252.922 81.1756
L253.233 66.8434
L253.544 79.3687
L253.855 69.4544
L254.166 73.6065
L254.476 71.008
L254.787 71.412
L255.098 75.8742
L255.409 77.8586
L255.72 74.6054
L256.03 82.9656
L256.341 76.0394
L256.652 76.3565
L256.963 76.3802
L257.274 80.2873
L257.584 94.2115
L257.895 89.7218
L258.206 89.8473
L258.517 86.4653
L258.828 87.1357
L259.139 101.675
L259.449 87.0063
L259.76 95.0186
L260.071 93.7943
L260.382 93.2336
L260.693 94.4387
L261.003 100.426
L261.314 102.33
L261.625 100.154
L262.247 101.223
L262.557 116.353
L262.868 103.234
L263.179 113.697
L263.49 119.391
L263.801 109.056
L264.111 127.976
L264.422 118.095
L264.733 112.158
L265.044 113.794
L265.355 112.291
L265.666 127.736
L265.976 118.032
L266.287 121.007
M266.909 127.507
L267.22 128.225
L267.53 127.507
L267.841 136.55
L268.152 128.225
L268.463 132.12
L268.774 129.049
L269.084 141.698
L269.395 130.568
L269.706 130.015
L270.017 139.42
L271.571 84.8057
L274.252 -1
L274.252 -1" style="fill:none;stroke:#cccccc;stroke-linecap:square;"/>
   </g>
   <g id="matplotlib.axis_1">
    <g id="xtick_1">
     <g id="line2d_5">
      <path clip-path="url(#p42680d1cdf)" d="
M69 175.95
L69 20.7" style="fill:none;stroke:#000000;stroke-dasharray:1.000000,3.000000;stroke-dashoffset:0.0;stroke-width:0.5;"/>
     </g>
     <g id="line2d_6">
      <defs>
       <path d="
M0 0
L0 -4" id="m93b0483c22" style="stroke:#000000;stroke-width:0.5;"/>
      </defs>
      <g>
       <use style="stroke:#000000;stroke-width:0.5;" x="69.0" xlink:href="#m93b0483c22" y="175.95"/>
      </g>
     </g>
     <g id="line2d_7">
      <defs>
       <path d="
M0 0
L0 4" id="m741efc42ff" style="stroke:#000000;stroke-width:0.5;"/>
      </defs>
      <g>
       <use style="stroke:#000000;stroke-width:0.5;" x="69.0" xlink:href="#m741efc42ff" y="20.7"/>
      </g>
     </g>
     <g id="text_1">
      <!-- $10^{-16}$ -->
      <defs>
       <path d="
M65.9062 23
C67.5938 23 69.4062 23 69.4062 25
C69.4062 27 67.5938 27 65.9062 27
L11.7969 27
C10.0938 27 8.29688 27 8.29688 25
C8.29688 23 10.0938 23 11.7969 23
z
" id="CMSY10-0"/>
       <path d="
M26.5938 63.3125
C26.5938 65.4062 26.5 65.5 25.0938 65.5
C21.2031 61.1875 15.2969 59.7969 9.70312 59.7969
C9.40625 59.7969 8.90625 59.7969 8.79688 59.6094
C8.70312 59.3906 8.70312 59.1719 8.70312 57
C11.7969 57 17 57.5938 21 59.9844
L21 7.20312
C21 3.6875 20.7969 2.5 12.2031 2.5
L9.20312 2.5
L9.20312 0
C14 0 19 0 23.7969 0
C28.5938 0 33.5938 0 38.4062 0
L38.4062 2.5
L35.4062 2.5
C26.7969 2.5 26.5938 3.59375 26.5938 7.15625
z
" id="CMR17-49"/>
       <path d="
M42 31.6406
C42 37.75 41.9062 48.125 37.7031 56.1094
C34 63.1094 28.0938 65.5938 22.9062 65.5938
C18.0938 65.5938 12 63.4062 8.20312 56.2031
C4.20312 48.7188 3.79688 39.4375 3.79688 31.6406
C3.79688 25.9531 3.90625 17.2812 7 9.67188
C11.2969 -0.609375 19 -2 22.9062 -2
C27.5 -2 34.5 -0.109375 38.5938 9.375
C41.5938 16.2812 42 24.3594 42 31.6406
M22.9062 -0.40625
C16.5 -0.40625 12.7031 5.07812 11.2969 12.6875
C10.2031 18.5625 10.2031 27.1562 10.2031 32.75
C10.2031 40.4375 10.2031 46.8281 11.5 52.9219
C13.4062 61.3906 19 64 22.9062 64
C27 64 32.2969 61.2969 34.2031 53.125
C35.5 47.4375 35.5938 40.7344 35.5938 32.75
C35.5938 26.25 35.5938 18.2656 34.4062 12.375
C32.2969 1.48438 26.4062 -0.40625 22.9062 -0.40625" id="CMR17-48"/>
       <path d="
M10.5938 34
C10.5938 57.6562 21.7969 63 28.2969 63
C30.4062 63 35.5 62.6406 37.5 59
C35.9062 59 32.9062 59 32.9062 55.5156
C32.9062 52.8281 35.0938 51.9219 36.5 51.9219
C37.4062 51.9219 40.0938 52.3125 40.0938 55.625
C40.0938 61.7812 35.0938 65.2969 28.2031 65.2969
C16.2969 65.2969 3.79688 52.9688 3.79688 31
C3.79688 3.95312 15.0938 -2 23.0938 -2
C32.7969 -2 42 6.67188 42 20.0469
C42 32.5156 33.9062 41.5938 23.7031 41.5938
C17.5938 41.5938 13.0938 37.6094 10.5938 30.625
z

M23.0938 0.390625
C10.7969 0.390625 10.7969 18.75 10.7969 22.4375
C10.7969 29.625 14.2031 40 23.5 40
C25.2031 40 30.0938 40 33.4062 33.125
C35.2031 29.2188 35.2031 25.1406 35.2031 20.1406
C35.2031 14.75 35.2031 10.7812 33.0938 6.78125
C30.9062 2.67188 27.7031 0.390625 23.0938 0.390625" id="CMR17-54"/>
      </defs>
      <g transform="translate(56.9340944967 186.86849838)scale(0.1 -0.1)">
       <use transform="scale(0.996264009963)" xlink:href="#CMR17-49"/>
       <use transform="translate(45.6904771171 0.0)scale(0.996264009963)" xlink:href="#CMR17-48"/>
       <use transform="translate(91.3809542341 36.1536389419)scale(0.697381766617)" xlink:href="#CMSY10-0"/>
       <use transform="translate(145.621947482 36.1536389419)scale(0.697381766617)" xlink:href="#CMR17-49"/>
       <use transform="translate(177.605129446 36.1536389419)scale(0.697381766617)" xlink:href="#CMR17-54"/>
      </g>
     </g>
    </g>
    <g id="xtick_2">
     <g id="line2d_8">
      <path clip-path="url(#p42680d1cdf)" d="
M120.75 175.95
L120.75 20.7" style="fill:none;stroke:#000000;stroke-dasharray:1.000000,3.000000;stroke-dashoffset:0.0;stroke-width:0.5;"/>
     </g>
     <g id="line2d_9">
      <g>
       <use style="stroke:#000000;stroke-width:0.5;" x="120.75" xlink:href="#m93b0483c22" y="175.95"/>
      </g>
     </g>
     <g id="line2d_10">
      <g>
       <use style="stroke:#000000;stroke-width:0.5;" x="120.75" xlink:href="#m741efc42ff" y="20.7"/>
      </g>
     </g>
     <g id="text_2">
      <!-- $10^{-12}$ -->
      <defs>
       <path d="
M41.7031 15.4531
L39.9062 15.4531
C38.9062 8.375 38.0938 7.17188 37.7031 6.5625
C37.2031 5.76562 30 5.76562 28.5938 5.76562
L9.40625 5.76562
C13 9.67188 20 16.75 28.5 24.9531
C34.5938 30.7344 41.7031 37.5312 41.7031 47.4219
C41.7031 59.2188 32.2969 66 21.7969 66
C10.7969 66 4.09375 56.3125 4.09375 47.3438
C4.09375 43.4375 7 42.9375 8.20312 42.9375
C9.20312 42.9375 12.2031 43.5469 12.2031 47.0312
C12.2031 50.1094 9.59375 51 8.20312 51
C7.59375 51 7 50.9062 6.59375 50.7031
C8.5 59.2188 14.2969 63.4062 20.4062 63.4062
C29.0938 63.4062 34.7969 56.5156 34.7969 47.4219
C34.7969 38.7344 29.7031 31.25 24 24.75
L4.09375 2.28125
L4.09375 0
L39.2969 0
z
" id="CMR17-50"/>
      </defs>
      <g transform="translate(108.684094497 186.86849838)scale(0.1 -0.1)">
       <use transform="scale(0.996264009963)" xlink:href="#CMR17-49"/>
       <use transform="translate(45.6904771171 0.0)scale(0.996264009963)" xlink:href="#CMR17-48"/>
       <use transform="translate(91.3809542341 36.1536389419)scale(0.697381766617)" xlink:href="#CMSY10-0"/>
       <use transform="translate(145.621947482 36.1536389419)scale(0.697381766617)" xlink:href="#CMR17-49"/>
       <use transform="translate(177.605129446 36.1536389419)scale(0.697381766617)" xlink:href="#CMR17-50"/>
      </g>
     </g>
    </g>
    <g id="xtick_3">
     <g id="line2d_11">
      <path clip-path="url(#p42680d1cdf)" d="
M172.5 175.95
L172.5 20.7" style="fill:none;stroke:#000000;stroke-dasharray:1.000000,3.000000;stroke-dashoffset:0.0;stroke-width:0.5;"/>
     </g>
     <g id="line2d_12">
      <g>
       <use style="stroke:#000000;stroke-width:0.5;" x="172.5" xlink:href="#m93b0483c22" y="175.95"/>
      </g>
     </g>
     <g id="line2d_13">
      <g>
       <use style="stroke:#000000;stroke-width:0.5;" x="172.5" xlink:href="#m741efc42ff" y="20.7"/>
      </g>
     </g>
     <g id="text_3">
      <!-- $10^{-8}$ -->
      <defs>
       <path d="
M27.2031 35.375
C33.5 38.5625 39.9062 43.3281 39.9062 50.9844
C39.9062 60.0312 31.0938 65.2969 23 65.2969
C13.9062 65.2969 5.90625 58.7344 5.90625 49.6875
C5.90625 47.2031 6.5 42.9219 10.4062 39.1406
C11.4062 38.1562 15.5938 35.1719 18.2969 33.2812
C13.7969 30.9844 3.29688 25.5312 3.29688 14.5938
C3.29688 4.35938 13.0938 -2 22.7969 -2
C33.5 -2 42.5 5.65625 42.5 15.7969
C42.5 24.8438 36.4062 29.0312 32.4062 31.7031
z

M14.0938 44.125
C13.2969 44.625 9.29688 47.7031 9.29688 52.375
C9.29688 58.4375 15.5938 63 22.7969 63
C30.7031 63 36.5 57.4531 36.5 50.9844
C36.5 41.7344 26.0938 36.4688 25.5938 36.4688
C25.5 36.4688 25.4062 36.4688 24.5938 37.0781
z

M32.5 23.7344
C34 22.6406 38.7969 19.375 38.7969 13.2969
C38.7969 5.95312 31.4062 0.390625 23 0.390625
C13.9062 0.390625 7 6.84375 7 14.6875
C7 22.5469 13.0938 29.0938 20 32.1875
z
" id="CMR17-56"/>
      </defs>
      <g transform="translate(162.419713307 186.86849838)scale(0.1 -0.1)">
       <use transform="scale(0.996264009963)" xlink:href="#CMR17-49"/>
       <use transform="translate(45.6904771171 0.0)scale(0.996264009963)" xlink:href="#CMR17-48"/>
       <use transform="translate(91.3809542341 36.1536389419)scale(0.697381766617)" xlink:href="#CMSY10-0"/>
       <use transform="translate(145.621947482 36.1536389419)scale(0.697381766617)" xlink:href="#CMR17-56"/>
      </g>
     </g>
    </g>
    <g id="xtick_4">
     <g id="line2d_14">
      <path clip-path="url(#p42680d1cdf)" d="
M224.25 175.95
L224.25 20.7" style="fill:none;stroke:#000000;stroke-dasharray:1.000000,3.000000;stroke-dashoffset:0.0;stroke-width:0.5;"/>
     </g>
     <g id="line2d_15">
      <g>
       <use style="stroke:#000000;stroke-width:0.5;" x="224.25" xlink:href="#m93b0483c22" y="175.95"/>
      </g>
     </g>
     <g id="line2d_16">
      <g>
       <use style="stroke:#000000;stroke-width:0.5;" x="224.25" xlink:href="#m741efc42ff" y="20.7"/>
      </g>
     </g>
     <g id="text_4">
      <!-- $10^{-4}$ -->
      <defs>
       <path d="
M33.5938 64.3281
C33.5938 66.4062 33.5 66.5 31.7031 66.5
L2 19.5938
L2 17
L27.7969 17
L27.7969 7.14062
C27.7969 3.5 27.5938 2.5 20.5938 2.5
L18.7031 2.5
L18.7031 0
C21.9062 0 27.2969 0 30.7031 0
C34.0938 0 39.5 0 42.7031 0
L42.7031 2.5
L40.7969 2.5
C33.7969 2.5 33.5938 3.5 33.5938 7.14062
L33.5938 17
L43.7969 17
L43.7969 19.5938
L33.5938 19.5938
z

M28.0938 57.7656
L28.0938 19.5938
L4 19.5938
z
" id="CMR17-52"/>
      </defs>
      <g transform="translate(214.169713307 186.86849838)scale(0.1 -0.1)">
       <use transform="scale(0.996264009963)" xlink:href="#CMR17-49"/>
       <use transform="translate(45.6904771171 0.0)scale(0.996264009963)" xlink:href="#CMR17-48"/>
       <use transform="translate(91.3809542341 36.1536389419)scale(0.697381766617)" xlink:href="#CMSY10-0"/>
       <use transform="translate(145.621947482 36.1536389419)scale(0.697381766617)" xlink:href="#CMR17-52"/>
      </g>
     </g>
    </g>
    <g id="xtick_5">
     <g id="line2d_17">
      <path clip-path="url(#p42680d1cdf)" d="
M276 175.95
L276 20.7" style="fill:none;stroke:#000000;stroke-dasharray:1.000000,3.000000;stroke-dashoffset:0.0;stroke-width:0.5;"/>
     </g>
     <g id="line2d_18">
      <g>
       <use style="stroke:#000000;stroke-width:0.5;" x="276.0" xlink:href="#m93b0483c22" y="175.95"/>
      </g>
     </g>
     <g id="line2d_19">
      <g>
       <use style="stroke:#000000;stroke-width:0.5;" x="276.0" xlink:href="#m741efc42ff" y="20.7"/>
      </g>
     </g>
     <g id="text_5">
      <!-- $10^{0}$ -->
      <g transform="translate(269.033045939 186.86849838)scale(0.1 -0.1)">
       <use transform="scale(0.996264009963)" xlink:href="#CMR17-49"/>
       <use transform="translate(45.6904771171 0.0)scale(0.996264009963)" xlink:href="#CMR17-48"/>
       <use transform="translate(91.3809542341 36.1536389419)scale(0.697381766617)" xlink:href="#CMR17-48"/>
      </g>
     </g>
    </g>
    <g id="xtick_6">
     <g id="line2d_20">
      <defs>
       <path d="
M0 0
L0 -2" id="m177f7580d0" style="stroke:#000000;stroke-width:0.5;"/>
      </defs>
      <g>
       <use style="stroke:#000000;stroke-width:0.5;" x="43.125" xlink:href="#m177f7580d0" y="175.95"/>
      </g>
     </g>
     <g id="line2d_21">
      <defs>
       <path d="
M0 0
L0 2" id="m5284c7e2a0" style="stroke:#000000;stroke-width:0.5;"/>
      </defs>
      <g>
       <use style="stroke:#000000;stroke-width:0.5;" x="43.125" xlink:href="#m5284c7e2a0" y="20.7"/>
      </g>
     </g>
    </g>
    <g id="xtick_7">
     <g id="line2d_22">
      <g>
       <use style="stroke:#000000;stroke-width:0.5;" x="69.0" xlink:href="#m177f7580d0" y="175.95"/>
      </g>
     </g>
     <g id="line2d_23">
      <g>
       <use style="stroke:#000000;stroke-width:0.5;" x="69.0" xlink:href="#m5284c7e2a0" y="20.7"/>
      </g>
     </g>
    </g>
    <g id="xtick_8">
     <g id="line2d_24">
      <g>
       <use style="stroke:#000000;stroke-width:0.5;" x="94.875" xlink:href="#m177f7580d0" y="175.95"/>
      </g>
     </g>
     <g id="line2d_25">
      <g>
       <use style="stroke:#000000;stroke-width:0.5;" x="94.875" xlink:href="#m5284c7e2a0" y="20.7"/>
      </g>
     </g>
    </g>
    <g id="xtick_9">
     <g id="line2d_26">
      <g>
       <use style="stroke:#000000;stroke-width:0.5;" x="120.75" xlink:href="#m177f7580d0" y="175.95"/>
      </g>
     </g>
     <g id="line2d_27">
      <g>
       <use style="stroke:#000000;stroke-width:0.5;" x="120.75" xlink:href="#m5284c7e2a0" y="20.7"/>
      </g>
     </g>
    </g>
    <g id="xtick_10">
     <g id="line2d_28">
      <g>
       <use style="stroke:#000000;stroke-width:0.5;" x="146.625" xlink:href="#m177f7580d0" y="175.95"/>
      </g>
     </g>
     <g id="line2d_29">
      <g>
       <use style="stroke:#000000;stroke-width:0.5;" x="146.625" xlink:href="#m5284c7e2a0" y="20.7"/>
      </g>
     </g>
    </g>
    <g id="xtick_11">
     <g id="line2d_30">
      <g>
       <use style="stroke:#000000;stroke-width:0.5;" x="172.5" xlink:href="#m177f7580d0" y="175.95"/>
      </g>
     </g>
     <g id="line2d_31">
      <g>
       <use style="stroke:#000000;stroke-width:0.5;" x="172.5" xlink:href="#m5284c7e2a0" y="20.7"/>
      </g>
     </g>
    </g>
    <g id="xtick_12">
     <g id="line2d_32">
      <g>
       <use style="stroke:#000000;stroke-width:0.5;" x="198.375" xlink:href="#m177f7580d0" y="175.95"/>
      </g>
     </g>
     <g id="line2d_33">
      <g>
       <use style="stroke:#000000;stroke-width:0.5;" x="198.375" xlink:href="#m5284c7e2a0" y="20.7"/>
      </g>
     </g>
    </g>
    <g id="xtick_13">
     <g id="line2d_34">
      <g>
       <use style="stroke:#000000;stroke-width:0.5;" x="224.25" xlink:href="#m177f7580d0" y="175.95"/>
      </g>
     </g>
     <g id="line2d_35">
      <g>
       <use style="stroke:#000000;stroke-width:0.5;" x="224.25" xlink:href="#m5284c7e2a0" y="20.7"/>
      </g>
     </g>
    </g>
    <g id="xtick_14">
     <g id="line2d_36">
      <g>
       <use style="stroke:#000000;stroke-width:0.5;" x="250.125" xlink:href="#m177f7580d0" y="175.95"/>
      </g>
     </g>
     <g id="line2d_37">
      <g>
       <use style="stroke:#000000;stroke-width:0.5;" x="250.125" xlink:href="#m5284c7e2a0" y="20.7"/>
      </g>
     </g>
    </g>
    <g id="xtick_15">
     <g id="line2d_38">
      <g>
       <use style="stroke:#000000;stroke-width:0.5;" x="276.0" xlink:href="#m177f7580d0" y="175.95"/>
      </g>
     </g>
     <g id="line2d_39">
      <g>
       <use style="stroke:#000000;stroke-width:0.5;" x="276.0" xlink:href="#m5284c7e2a0" y="20.7"/>
      </g>
     </g>
    </g>
    <g id="xtick_16">
     <g id="line2d_40">
      <g>
       <use style="stroke:#000000;stroke-width:0.5;" x="301.875" xlink:href="#m177f7580d0" y="175.95"/>
      </g>
     </g>
     <g id="line2d_41">
      <g>
       <use style="stroke:#000000;stroke-width:0.5;" x="301.875" xlink:href="#m5284c7e2a0" y="20.7"/>
      </g>
     </g>
    </g>
    <g id="text_6">
     <!-- radius $h$ -->
     <defs>
      <path d="
M36 25.8281
C36 32.375 36 35.8438 31.7969 39.7344
C28.0938 43 23.7969 44 20.4062 44
C12.5 44 6.79688 37.6094 6.79688 30.7969
C6.79688 27 9.79688 27 10.4062 27
C11.7031 27 14 27.7812 14 30.5312
C14 33 12.0938 34.0781 10.4062 34.0781
C10 34.0781 9.5 33.9688 9.20312 33.875
C11.2969 40.5 16.7031 42.4062 20.2031 42.4062
C25.2031 42.4062 30.7031 37.9531 30.7031 29.4531
L30.7031 25
C24.7969 25 17.7031 24.2031 12.0938 21.2031
C5.79688 17.7031 4 12.7031 4 8.90625
C4 1.20312 13 -1 18.2969 -1
C23.7969 -1 28.9062 2.17188 31.0938 7.98438
C31.2969 3.64062 34.0938 -0.28125 38.5 -0.28125
C40.5938 -0.28125 45.9062 1.09375 45.9062 8.85938
L45.9062 14.375
L44.0938 14.375
L44.0938 8.78125
C44.0938 2.78125 41.4062 2 40.0938 2
C36 2 36 7.15625 36 11.5312
z

M30.7031 13.5938
C30.7031 4.95312 24.5 0.59375 19 0.59375
C14 0.59375 10.0938 4.29688 10.0938 8.90625
C10.0938 11.8906 11.4062 17.1875 17.2031 20.3906
C22 23.0938 27.5 23.5 30.7031 23.5
z
" id="CMR17-97"/>
      <path d="
M28.0938 66.5156
C28.2031 66.9219 28.4062 67.5156 28.4062 68
C28.4062 69 27.4062 69 27.2031 69
C27.0938 69 22.2031 68.5312 21.7031 68.3906
C20 68.3906 18.5 68.0938 16.7031 68.0938
C14.2031 67.8906 13.5 67.7969 13.5 66
C13.5 65 14.2969 65 15.7031 65
C20.5938 65 20.7031 64.0938 20.7031 63.0938
C20.7031 62.5156 20.5 61.7188 20.4062 61.4219
L5.90625 3.875
C5.5 2.375 5.5 2.1875 5.5 1.57812
C5.5 -0.59375 7.20312 -1 8.20312 -1
C9.90625 -1 11.2031 0.296875 11.7031 1.39062
L16.2031 19.4531
C16.7031 21.6562 17.2969 23.75 17.7969 25.9375
C18.9062 30.1406 18.9062 30.2344 20.7969 33.125
C22.7031 36.0156 27.2031 42.0156 34.9062 42.0156
C38.9062 42.0156 40.2969 39.0156 40.2969 35.0312
C40.2969 29.4375 36.4062 18.5625 34.2031 12.5781
C33.2969 10.1719 32.7969 8.875 32.7969 7.07812
C32.7969 2.59375 35.9062 -1 40.7031 -1
C50 -1 53.5 13.6719 53.5 14.2656
C53.5 14.7656 53.0938 15.1719 52.5 15.1719
C51.5938 15.1719 51.5 14.875 51 13.1719
C48.7031 5.1875 45 1 41 1
C40 1 38.4062 1 38.4062 4.20312
C38.4062 6.8125 39.5938 10 40 11.0938
C41.7969 15.9062 46.2969 27.7031 46.2969 33.5156
C46.2969 39.5 42.7969 44 35.2031 44
C29.5 44 24.5 41.3125 20.4062 36.125
z
" id="CMMI12-104"/>
      <path d="
M15.5 61.0781
C15.5 63.2656 13.7031 65.1562 11.4062 65.1562
C9.20312 65.1562 7.29688 63.375 7.29688 61.0781
C7.29688 58.8906 9.09375 57 11.4062 57
C13.5938 57 15.5 58.7969 15.5 61.0781
M3.79688 42.2812
L3.79688 39.7031
C9.40625 39.7031 10.2031 39.0938 10.2031 34.3281
L10.2031 6.67188
C10.2031 2.875 9.79688 2.39062 3.40625 2.39062
L3.40625 -0.203125
C5.79688 0 10.0938 0 12.5938 0
C15 0 19.0938 0 21.4062 -0.203125
L21.4062 2.39062
C15.5 2.39062 15.2969 2.98438 15.2969 6.5625
L15.2969 43.375
z
" id="CMR17-105"/>
      <path d="
M29.4062 42.0781
L29.4062 39.5
C35.2969 39.5 36.2031 38.8906 36.2031 34.1562
L36.2031 16.125
C36.2031 7.8125 31.7031 0.59375 24.2969 0.59375
C16.0938 0.59375 15.4062 5.4375 15.4062 10.5938
L15.4062 43.1719
L3.29688 42.0781
L3.29688 39.5
C7.29688 39.5 10 39.5 10.0938 35.5312
L10.0938 16.5312
C10.0938 9.89062 10.0938 5.64062 12.7031 2.85938
C14 1.57812 16.5 -1 23.7031 -1
C32.2031 -1 35.5 6.35938 36.2969 8.5
L36.4062 8.5
L36.4062 -0.984375
L48.2969 -0.984375
L48.2969 2
C42.4062 2 41.5 2.59375 41.5 7.39062
L41.5 43.1719
z
" id="CMR17-117"/>
      <path d="
M15 23.3906
C15 33 19.0938 42 26.5938 42
C27.2969 42 28 41.9062 28.7031 41.5938
C28.7031 41.5938 26.5 40.8906 26.5 38.3125
C26.5 35.9062 28.4062 34.9062 29.9062 34.9062
C31.0938 34.9062 33.2969 35.6094 33.2969 38.4062
C33.2969 41.6094 30.0938 43.5938 26.7031 43.5938
C19.0938 43.5938 15.7969 36.2031 14.7969 32.7031
L14.7031 32.7031
L14.7031 43.5938
L3.09375 42.5
L3.09375 39.9062
C9 39.9062 9.90625 39.2969 9.90625 34.5
L9.90625 6.6875
C9.90625 2.875 9.5 2.39062 3.09375 2.39062
L3.09375 -0.203125
C5.5 0 10.0938 0 12.7031 0
C15.5938 0 20.7031 0 23.4062 -0.203125
L23.4062 2.39062
C16.2031 2.39062 15 2.39062 15 6.875
z
" id="CMR17-114"/>
      <path d="
M30.9062 42.1094
C30.9062 43.9062 30.7969 44 30.2031 44
C29.7969 44 29.7031 43.9062 28.5 42.4219
C28.2031 42.0156 27.2969 41.0156 27 40.625
C23.7969 44 19.2969 44 17.5938 44
C6.5 44 2.5 38.1719 2.5 32.375
C2.5 23.3438 12.7031 21.25 15.5938 20.6406
C21.9062 19.3438 24.0938 18.9375 26.2031 17.125
C27.5 15.9375 29.7031 13.7344 29.7031 10.125
C29.7031 5.90625 27.2969 0.5 18.0938 0.5
C9.40625 0.5 6.29688 7.0625 4.5 15.8281
C4.20312 17.2188 4.20312 17.3281 3.40625 17.3281
C2.59375 17.3281 2.5 17.2188 2.5 15.2344
L2.5 0.890625
C2.5 -0.890625 2.59375 -1 3.20312 -1
C3.70312 -1 3.79688 -0.890625 4.29688 -0.09375
C4.90625 0.796875 6.40625 3.1875 7 4.1875
C9 1.54688 12.5 -1 18.0938 -1
C28 -1 33.2969 4.40625 33.2969 12.2344
C33.2969 17.3438 30.5938 20.0625 29.2969 21.25
C26.2969 24.375 22.7969 25.0625 18.5938 25.8594
C13.0938 27.0781 6.09375 28.4688 6.09375 34.5938
C6.09375 37.1875 7.5 42.7188 17.5938 42.7188
C28.2969 42.7188 28.9062 32.75 29.0938 29.5625
C29.2031 29.0781 29.7031 28.9688 30 28.9688
C30.9062 28.9688 30.9062 29.2812 30.9062 30.9688
z
" id="CMR17-115"/>
      <path d="
M29.2031 67.5938
L29.2031 65
C35.0938 65 36 64.4062 36 59.6875
L36 36.6406
C35.5938 37.1406 31.5 43.5938 23.4062 43.5938
C13.2031 43.5938 3.29688 34.5 3.29688 21.3125
C3.29688 8.20312 12.5938 -1 22.4062 -1
C30.9062 -1 35.2969 5.26562 35.7969 5.9375
L35.7969 -0.984375
L47.9062 -0.984375
L47.9062 2
C42 2 41.0938 2.59375 41.0938 7.39062
L41.0938 68.6875
z

M35.7969 11.7969
C35.7969 8.79688 34 6.09375 31.7031 4.09375
C28.2969 1.09375 24.9062 0.59375 23 0.59375
C20.0938 0.59375 9.70312 2.09375 9.70312 21.1875
C9.70312 40.8125 21.2969 42 23.9062 42
C28.5 42 32.2031 39.4062 34.5 35.7969
C35.7969 33.7031 35.7969 33.4062 35.7969 31.6094
z
" id="CMR17-100"/>
     </defs>
     <g transform="translate(154.644472875 200.72417509)scale(0.1 -0.1)">
      <use transform="scale(0.996264009963)" xlink:href="#CMR17-114"/>
      <use transform="translate(35.2807677995 0.0)scale(0.996264009963)" xlink:href="#CMR17-97"/>
      <use transform="translate(80.9712449165 0.0)scale(0.996264009963)" xlink:href="#CMR17-100"/>
      <use transform="translate(131.866614697 0.0)scale(0.996264009963)" xlink:href="#CMR17-105"/>
      <use transform="translate(156.737673179 0.0)scale(0.996264009963)" xlink:href="#CMR17-117"/>
      <use transform="translate(207.633042959 0.0)scale(0.996264009963)" xlink:href="#CMR17-115"/>
      <use transform="translate(273.510346941 0.0)scale(0.996264009963)" xlink:href="#CMMI12-104"/>
     </g>
    </g>
   </g>
   <g id="matplotlib.axis_2">
    <g id="ytick_1">
     <g id="line2d_42">
      <path clip-path="url(#p42680d1cdf)" d="
M43.125 150.075
L301.875 150.075" style="fill:none;stroke:#000000;stroke-dasharray:1.000000,3.000000;stroke-dashoffset:0.0;stroke-width:0.5;"/>
     </g>
     <g id="line2d_43">
      <defs>
       <path d="
M0 0
L-4 0" id="mcb0005524f" style="stroke:#000000;stroke-width:0.5;"/>
      </defs>
      <g>
       <use style="stroke:#000000;stroke-width:0.5;" x="43.125" xlink:href="#mcb0005524f" y="150.075"/>
      </g>
     </g>
     <g id="line2d_44">
      <defs>
       <path d="
M0 0
L4 0" id="m728421d6d4" style="stroke:#000000;stroke-width:0.5;"/>
      </defs>
      <g>
       <use style="stroke:#000000;stroke-width:0.5;" x="301.875" xlink:href="#m728421d6d4" y="150.075"/>
      </g>
     </g>
     <g id="text_7">
      <!-- $10^{-16}$ -->
      <g transform="translate(14.125 152.565660025)scale(0.1 -0.1)">
       <use transform="scale(0.996264009963)" xlink:href="#CMR17-49"/>
       <use transform="translate(45.6904771171 0.0)scale(0.996264009963)" xlink:href="#CMR17-48"/>
       <use transform="translate(91.3809542341 36.1536389419)scale(0.697381766617)" xlink:href="#CMSY10-0"/>
       <use transform="translate(145.621947482 36.1536389419)scale(0.697381766617)" xlink:href="#CMR17-49"/>
       <use transform="translate(177.605129446 36.1536389419)scale(0.697381766617)" xlink:href="#CMR17-54"/>
      </g>
     </g>
    </g>
    <g id="ytick_2">
     <g id="line2d_45">
      <path clip-path="url(#p42680d1cdf)" d="
M43.125 98.325
L301.875 98.325" style="fill:none;stroke:#000000;stroke-dasharray:1.000000,3.000000;stroke-dashoffset:0.0;stroke-width:0.5;"/>
     </g>
     <g id="line2d_46">
      <g>
       <use style="stroke:#000000;stroke-width:0.5;" x="43.125" xlink:href="#mcb0005524f" y="98.325"/>
      </g>
     </g>
     <g id="line2d_47">
      <g>
       <use style="stroke:#000000;stroke-width:0.5;" x="301.875" xlink:href="#m728421d6d4" y="98.325"/>
      </g>
     </g>
     <g id="text_8">
      <!-- $10^{-12}$ -->
      <g transform="translate(14.125 100.815660025)scale(0.1 -0.1)">
       <use transform="scale(0.996264009963)" xlink:href="#CMR17-49"/>
       <use transform="translate(45.6904771171 0.0)scale(0.996264009963)" xlink:href="#CMR17-48"/>
       <use transform="translate(91.3809542341 36.1536389419)scale(0.697381766617)" xlink:href="#CMSY10-0"/>
       <use transform="translate(145.621947482 36.1536389419)scale(0.697381766617)" xlink:href="#CMR17-49"/>
       <use transform="translate(177.605129446 36.1536389419)scale(0.697381766617)" xlink:href="#CMR17-50"/>
      </g>
     </g>
    </g>
    <g id="ytick_3">
     <g id="line2d_48">
      <path clip-path="url(#p42680d1cdf)" d="
M43.125 46.575
L301.875 46.575" style="fill:none;stroke:#000000;stroke-dasharray:1.000000,3.000000;stroke-dashoffset:0.0;stroke-width:0.5;"/>
     </g>
     <g id="line2d_49">
      <g>
       <use style="stroke:#000000;stroke-width:0.5;" x="43.125" xlink:href="#mcb0005524f" y="46.575"/>
      </g>
     </g>
     <g id="line2d_50">
      <g>
       <use style="stroke:#000000;stroke-width:0.5;" x="301.875" xlink:href="#m728421d6d4" y="46.575"/>
      </g>
     </g>
     <g id="text_9">
      <!-- $10^{-8}$ -->
      <g transform="translate(14.125 49.0656600249)scale(0.1 -0.1)">
       <use transform="scale(0.996264009963)" xlink:href="#CMR17-49"/>
       <use transform="translate(45.6904771171 0.0)scale(0.996264009963)" xlink:href="#CMR17-48"/>
       <use transform="translate(91.3809542341 36.1536389419)scale(0.697381766617)" xlink:href="#CMSY10-0"/>
       <use transform="translate(145.621947482 36.1536389419)scale(0.697381766617)" xlink:href="#CMR17-56"/>
      </g>
     </g>
    </g>
    <g id="ytick_4">
     <g id="line2d_51">
      <defs>
       <path d="
M0 0
L2 0" id="mf0c55a9a47" style="stroke:#000000;stroke-width:0.5;"/>
      </defs>
      <g>
       <use style="stroke:#000000;stroke-width:0.5;" x="43.125" xlink:href="#mf0c55a9a47" y="175.95"/>
      </g>
     </g>
     <g id="line2d_52">
      <defs>
       <path d="
M0 0
L-2 0" id="ma4f294b3af" style="stroke:#000000;stroke-width:0.5;"/>
      </defs>
      <g>
       <use style="stroke:#000000;stroke-width:0.5;" x="301.875" xlink:href="#ma4f294b3af" y="175.95"/>
      </g>
     </g>
    </g>
    <g id="ytick_5">
     <g id="line2d_53">
      <g>
       <use style="stroke:#000000;stroke-width:0.5;" x="43.125" xlink:href="#mf0c55a9a47" y="163.0125"/>
      </g>
     </g>
     <g id="line2d_54">
      <g>
       <use style="stroke:#000000;stroke-width:0.5;" x="301.875" xlink:href="#ma4f294b3af" y="163.0125"/>
      </g>
     </g>
    </g>
    <g id="ytick_6">
     <g id="line2d_55">
      <g>
       <use style="stroke:#000000;stroke-width:0.5;" x="43.125" xlink:href="#mf0c55a9a47" y="150.075"/>
      </g>
     </g>
     <g id="line2d_56">
      <g>
       <use style="stroke:#000000;stroke-width:0.5;" x="301.875" xlink:href="#ma4f294b3af" y="150.075"/>
      </g>
     </g>
    </g>
    <g id="ytick_7">
     <g id="line2d_57">
      <g>
       <use style="stroke:#000000;stroke-width:0.5;" x="43.125" xlink:href="#mf0c55a9a47" y="137.1375"/>
      </g>
     </g>
     <g id="line2d_58">
      <g>
       <use style="stroke:#000000;stroke-width:0.5;" x="301.875" xlink:href="#ma4f294b3af" y="137.1375"/>
      </g>
     </g>
    </g>
    <g id="ytick_8">
     <g id="line2d_59">
      <g>
       <use style="stroke:#000000;stroke-width:0.5;" x="43.125" xlink:href="#mf0c55a9a47" y="124.2"/>
      </g>
     </g>
     <g id="line2d_60">
      <g>
       <use style="stroke:#000000;stroke-width:0.5;" x="301.875" xlink:href="#ma4f294b3af" y="124.2"/>
      </g>
     </g>
    </g>
    <g id="ytick_9">
     <g id="line2d_61">
      <g>
       <use style="stroke:#000000;stroke-width:0.5;" x="43.125" xlink:href="#mf0c55a9a47" y="111.2625"/>
      </g>
     </g>
     <g id="line2d_62">
      <g>
       <use style="stroke:#000000;stroke-width:0.5;" x="301.875" xlink:href="#ma4f294b3af" y="111.2625"/>
      </g>
     </g>
    </g>
    <g id="ytick_10">
     <g id="line2d_63">
      <g>
       <use style="stroke:#000000;stroke-width:0.5;" x="43.125" xlink:href="#mf0c55a9a47" y="98.325"/>
      </g>
     </g>
     <g id="line2d_64">
      <g>
       <use style="stroke:#000000;stroke-width:0.5;" x="301.875" xlink:href="#ma4f294b3af" y="98.325"/>
      </g>
     </g>
    </g>
    <g id="ytick_11">
     <g id="line2d_65">
      <g>
       <use style="stroke:#000000;stroke-width:0.5;" x="43.125" xlink:href="#mf0c55a9a47" y="85.3875"/>
      </g>
     </g>
     <g id="line2d_66">
      <g>
       <use style="stroke:#000000;stroke-width:0.5;" x="301.875" xlink:href="#ma4f294b3af" y="85.3875"/>
      </g>
     </g>
    </g>
    <g id="ytick_12">
     <g id="line2d_67">
      <g>
       <use style="stroke:#000000;stroke-width:0.5;" x="43.125" xlink:href="#mf0c55a9a47" y="72.45"/>
      </g>
     </g>
     <g id="line2d_68">
      <g>
       <use style="stroke:#000000;stroke-width:0.5;" x="301.875" xlink:href="#ma4f294b3af" y="72.45"/>
      </g>
     </g>
    </g>
    <g id="ytick_13">
     <g id="line2d_69">
      <g>
       <use style="stroke:#000000;stroke-width:0.5;" x="43.125" xlink:href="#mf0c55a9a47" y="59.5125"/>
      </g>
     </g>
     <g id="line2d_70">
      <g>
       <use style="stroke:#000000;stroke-width:0.5;" x="301.875" xlink:href="#ma4f294b3af" y="59.5125"/>
      </g>
     </g>
    </g>
    <g id="ytick_14">
     <g id="line2d_71">
      <g>
       <use style="stroke:#000000;stroke-width:0.5;" x="43.125" xlink:href="#mf0c55a9a47" y="46.575"/>
      </g>
     </g>
     <g id="line2d_72">
      <g>
       <use style="stroke:#000000;stroke-width:0.5;" x="301.875" xlink:href="#ma4f294b3af" y="46.575"/>
      </g>
     </g>
    </g>
    <g id="ytick_15">
     <g id="line2d_73">
      <g>
       <use style="stroke:#000000;stroke-width:0.5;" x="43.125" xlink:href="#mf0c55a9a47" y="33.6375"/>
      </g>
     </g>
     <g id="line2d_74">
      <g>
       <use style="stroke:#000000;stroke-width:0.5;" x="301.875" xlink:href="#ma4f294b3af" y="33.6375"/>
      </g>
     </g>
    </g>
    <g id="ytick_16">
     <g id="line2d_75">
      <g>
       <use style="stroke:#000000;stroke-width:0.5;" x="43.125" xlink:href="#mf0c55a9a47" y="20.7"/>
      </g>
     </g>
     <g id="line2d_76">
      <g>
       <use style="stroke:#000000;stroke-width:0.5;" x="301.875" xlink:href="#ma4f294b3af" y="20.7"/>
      </g>
     </g>
    </g>
    <g id="text_10">
     <!-- relative error -->
     <defs>
      <path d="
M15.0938 40
L29.0938 40
L29.0938 42.5781
L15.0938 42.5781
L15.0938 61
L13.2969 61
C13.0938 50.7031 9.59375 41.6875 1.09375 41.6875
L1.09375 40
L9.79688 40
L9.79688 12.0469
C9.79688 10.1562 9.79688 -1 21.4062 -1
C27.2969 -1 30.7031 4.78125 30.7031 12.1406
L30.7031 17.8125
L28.9062 17.8125
L28.9062 12.2344
C28.9062 5.375 26.2031 0.796875 22 0.796875
C19.0938 0.796875 15.0938 2.78125 15.0938 11.8438
z
" id="CMR17-116"/>
      <path d="
M38.0938 23
C38.5 23.4062 38.5 23.6094 38.5 24.625
C38.5 34.9688 33.0938 44 21.7031 44
C11.0938 44 2.70312 33.8906 2.70312 21.6094
C2.70312 8.60938 12.2031 -1 22.7969 -1
C34 -1 38.4062 9.46875 38.4062 11.5469
C38.4062 12.25 37.7969 12.25 37.5938 12.25
C36.9062 12.25 36.7969 12.0469 36.4062 10.875
C34.2031 4.14062 28.7031 0.796875 23.5 0.796875
C19.2031 0.796875 14.9062 3.17188 12.2031 7.5
C9.09375 12.5469 9.09375 18.375 9.09375 23
z

M9.20312 24.5
C9.90625 39.1406 17.5938 42.4062 21.5938 42.4062
C28.4062 42.4062 33 35.8906 33.0938 24.5
z
" id="CMR17-101"/>
      <path d="
M15.2969 68.6875
L3.40625 67.5938
L3.40625 65
C9.29688 65 10.2031 64.4062 10.2031 59.6406
L10.2031 6.65625
C10.2031 2.875 9.79688 2.39062 3.40625 2.39062
L3.40625 -0.203125
C5.79688 0 10.2031 0 12.7031 0
C15.2969 0 19.7031 0 22.0938 -0.203125
L22.0938 2.39062
C15.7031 2.39062 15.2969 2.78125 15.2969 6.65625
z
" id="CMR17-108"/>
      <path d="
M39.0938 33.7969
C40 36 41.5938 40 47.4062 40
L47.4062 42.5938
C45.5 42.5938 43 42.5938 41.0938 42.5938
C39 42.5938 35.7031 42.5938 33.7031 42.6875
L33.7031 40.0938
C36.2031 39.8906 37.5938 38.7031 37.5938 36.1094
C37.5938 35.2031 37.5938 35 37 33.6094
L26 5.89062
L14.0938 35.7188
C13.5 37.0156 13.5 37.2031 13.5 37.6094
C13.5 40 16.7969 40 18.2969 40
L18.2969 42.6875
C15.9062 42.5938 11.5 42.5938 9 42.5938
C6.29688 42.5938 3.20312 42.5938 1 42.6875
L1 40
C4.79688 40 6.90625 40 8.09375 36.9062
L22.5938 0.6875
C23.2031 -0.796875 23.2969 -1 24.2031 -1
C25.0938 -1 25.2031 -0.796875 25.7969 0.6875
z
" id="CMR17-118"/>
      <path d="
M43.0938 21.1875
C43.0938 34 33.7969 44 22.9062 44
C12 44 2.70312 34 2.70312 21.1875
C2.70312 8.60938 12 -1 22.9062 -1
C33.7969 -1 43.0938 8.60938 43.0938 21.1875
M22.9062 0.796875
C18.2031 0.796875 14.2031 3.59375 11.9062 7.5
C9.40625 11.9844 9.09375 17.5938 9.09375 22
C9.09375 26.2031 9.29688 31.4062 11.9062 35.9062
C13.9062 39.2031 17.7969 42.4062 22.9062 42.4062
C27.4062 42.4062 31.2031 39.9062 33.5938 36.4062
C36.7031 31.7031 36.7031 25.1094 36.7031 22
C36.7031 18.0938 36.5 12.1094 33.7969 7.29688
C31 2.70312 26.7031 0.796875 22.9062 0.796875" id="CMR17-111"/>
     </defs>
     <g transform="translate(7.18782166972 126.60787051)rotate(-90.0)scale(0.1 -0.1)">
      <use transform="scale(0.996264009963)" xlink:href="#CMR17-114"/>
      <use transform="translate(35.2807677995 0.0)scale(0.996264009963)" xlink:href="#CMR17-101"/>
      <use transform="translate(75.7664282622 0.0)scale(0.996264009963)" xlink:href="#CMR17-108"/>
      <use transform="translate(100.637486744 0.0)scale(0.996264009963)" xlink:href="#CMR17-97"/>
      <use transform="translate(146.327963861 0.0)scale(0.996264009963)" xlink:href="#CMR17-116"/>
      <use transform="translate(181.608731661 0.0)scale(0.996264009963)" xlink:href="#CMR17-105"/>
      <use transform="translate(206.479790142 0.0)scale(0.996264009963)" xlink:href="#CMR17-118"/>
      <use transform="translate(252.170252058 0.0)scale(0.996264009963)" xlink:href="#CMR17-101"/>
      <use transform="translate(322.731878867 0.0)scale(0.996264009963)" xlink:href="#CMR17-101"/>
      <use transform="translate(363.21753933 0.0)scale(0.996264009963)" xlink:href="#CMR17-114"/>
      <use transform="translate(398.49830713 0.0)scale(0.996264009963)" xlink:href="#CMR17-114"/>
      <use transform="translate(433.779074929 0.0)scale(0.996264009963)" xlink:href="#CMR17-111"/>
      <use transform="translate(479.469552046 0.0)scale(0.996264009963)" xlink:href="#CMR17-114"/>
     </g>
    </g>
   </g>
   <g id="patch_3">
    <path d="
M43.125 20.7
L301.875 20.7" style="fill:none;stroke:#000000;"/>
   </g>
   <g id="patch_4">
    <path d="
M301.875 175.95
L301.875 20.7" style="fill:none;stroke:#000000;"/>
   </g>
   <g id="patch_5">
    <path d="
M43.125 175.95
L301.875 175.95" style="fill:none;stroke:#000000;"/>
   </g>
   <g id="patch_6">
    <path d="
M43.125 175.95
L43.125 20.7" style="fill:none;stroke:#000000;"/>
   </g>
   <g id="text_11">
    <!-- Accuracy of $f^{(n)}(0) \simeq \mathrm{SM}(f,0,h,N)[n]$ for $f(z)=1/(1-z)$ -->
    <defs>
     <path d="
M44.5938 40.0938
C46.5938 40.0938 47.4062 40.0938 47.4062 42
C47.4062 43 46.5938 43 44.7969 43
L36.7031 43
C38.5938 53.5781 40 60.8906 40.7969 64.1719
C41.4062 66.6406 43.5 69 46.0938 69
C48.2031 69 50.2969 68.0938 51.2969 67.1562
C47.4062 66.75 46.2031 63.7812 46.2031 62.0156
C46.2031 59.9531 47.7031 58.7344 49.5938 58.7344
C51.5938 58.7344 54.5938 60.4688 54.5938 64.3594
C54.5938 68.6406 50.4062 71 46 71
C41.7031 71 37.5 67.7188 35.5 63.7188
C33.7031 60.125 32.7031 56.4375 30.4062 43
L23.7031 43
C21.7969 43 20.7969 43 20.7969 41.2031
C20.7969 40.0938 21.4062 40.0938 23.4062 40.0938
L29.7969 40.0938
C28 30.875 23.9062 8.46875 21.5938 -2.14062
C19.9062 -10.7656 18.4062 -18 13.4062 -18
C13.0938 -18 10.2031 -18 8.40625 -16.1094
C13.5 -15.7031 13.5 -11.3438 13.5 -11.25
C13.5 -9.26562 12 -8.07812 10.0938 -8.07812
C8.09375 -8.07812 5.09375 -9.76562 5.09375 -13.5469
C5.09375 -17.8125 9.5 -20 13.4062 -20
C23.5938 -20 27.7969 -1.84375 28.9062 3.10938
C30.7031 10.75 35.5938 37.125 36.0938 40.0938
z
" id="CMMI12-102"/>
     <path d="
M12.7031 7.59375
C17 12.5469 20.5 15.6875 25.5 20.25
C31.5 25.5 34.0938 28.0156 35.5 29.5469
C42.5 36.5312 46 42.3906 46 43.1875
C46 44 45.2031 44 45 44
C44.2969 44 44.0938 43.6406 43.5938 42.9688
C41.0938 38.9688 38.7031 36.9844 36.0938 36.9844
C34 36.9844 32.9062 37.8281 31 40.0781
C28.9062 42.4219 27.2031 44 24.2969 44
C17 44 12.5938 35.2031 12.5938 33.1719
C12.5938 32.8906 12.7031 32.3125 13.5938 32.3125
C14.4062 32.3125 14.5 32.6719 14.7969 33.3281
C16.5 37.0625 21.2969 37.7188 23.2031 37.7188
C25.2969 37.7188 27.2969 37.125 29.4062 36.3594
C33.2031 35 34.7969 35 35.7969 35
C36.5 35 36.9062 35 37.4062 35.0938
C34.0938 31.1562 28.7031 26.2969 24.2031 22.1562
L14.0938 12.75
C8 6.48438 4.29688 0.515625 4.29688 -0.1875
C4.29688 -0.796875 4.79688 -1 5.40625 -1
C6 -1 6.09375 -0.890625 6.79688 0.21875
C8.40625 2.54688 11.5938 6 15.2969 6
C17.4062 6 18.4062 5.34375 20.4062 3.01562
C22.2969 0.953125 24 -1 27.2031 -1
C37 -1 42.5938 11.4688 42.5938 13.7344
C42.5938 14.1406 42.5 14.7188 41.5 14.7188
C40.7031 14.7188 40.5938 14.3281 40.2969 13.3594
C38.0938 7.625 32.2031 5.28125 28.2969 5.28125
C26.2031 5.28125 24.2031 5.875 22.0938 6.64062
C18.0938 8 17 8 15.7031 8
C14.7031 8 13.5938 8 12.7031 7.59375" id="CMMI12-122"/>
     <path d="
M43.7969 68.1094
C43.7969 69.8906 43.7031 70 43.0938 70
C42.5 70 42.2969 69.5938 41.9062 68.7031
L38.9062 62.125
C35.0938 67.5469 29.2969 70 23 70
C12.7969 70 4.59375 61.9531 4.59375 51.7969
C4.59375 48.7344 5.29688 44.3438 8.70312 40.1719
C12.4062 35.6094 15.9062 34.8125 23.9062 32.7188
C26.9062 31.9219 31.9062 30.625 32.9062 30.2344
C38.5938 27.8438 41.5938 21.8906 41.5938 16.3125
C41.5938 9.14062 36.5 1.5 27.7969 1.5
C17.0938 1.5 7.09375 7.46875 6.40625 21.4062
C6.29688 23 6.20312 23.0938 5.5 23.0938
C4.70312 23.0938 4.59375 23 4.59375 21
L4.59375 0.890625
C4.59375 -0.890625 4.70312 -1 5.29688 -1
C6 -1 6.20312 -0.5 7.59375 2.59375
C7.70312 2.89062 7.70312 3.09375 9.59375 6.875
C14.5938 0.375 23 -1 27.7969 -1
C38.7031 -1 46.4062 8.04688 46.4062 18.5781
C46.4062 23.7344 44.5 27.7031 43.4062 29.5
C39.2031 35.8594 34.7031 37.0469 29.9062 38.2344
C29.2031 38.5469 29 38.5469 23.4062 39.9375
C18 41.3281 15.7031 42.0312 13.2031 44.7188
C10.4062 47.7969 9.40625 50.9844 9.40625 54.1719
C9.40625 60.6406 14.5938 67.7031 23.0938 67.7031
C33.7031 67.7031 40.2969 60.2344 41.7969 47.7969
C42.0938 46 42.2031 45.9062 42.9062 45.9062
C43.7969 45.9062 43.7969 46.2031 43.7969 47.8906
z
" id="CMR17-83"/>
     <path d="
M23.5 -25
L23.5 -21.5156
L14.0938 -21.5156
L14.0938 71
L23.5 71
L23.5 74.4844
L10.5938 74.4844
L10.5938 -25
z
" id="CMR17-91"/>
     <path d="
M72.2188 43.25
C72.2188 45.4688 71.5156 46.3594 70.8281 46.3594
C70.4219 46.3594 69.5156 45.9688 69.4219 43.6406
C69.0156 35.3125 62.0156 30.5938 55.5156 30.5938
C49.5156 30.5938 44.7188 34.1094 39.5156 38.125
C34.2031 42.3438 28.9062 46.4688 22.2031 46.4688
C12.4062 46.4688 5.5 37.625 5.5 28.2188
C5.5 25.2031 6.79688 25.0938 6.90625 25.0938
C8 25.0938 8.29688 27.1094 8.29688 27.4219
C8.79688 37.25 16.7969 40.8594 22.2031 40.8594
C28.2031 40.8594 33.0156 37.3438 38.2031 33.3281
C43.5156 29.1094 48.8125 25 55.5156 25
C65.3281 25 72.2188 33.8281 72.2188 43.25
M9.10938 7.8125
C7.5 7.8125 5.5 7.8125 5.5 5.8125
C5.5 3.8125 7.29688 3.8125 9 3.8125
L68.7188 3.8125
C70.4219 3.8125 72.2188 3.8125 72.2188 5.8125
C72.2188 7.8125 70.3281 7.8125 68.625 7.8125
z
" id="CMSY10-39"/>
     <path d="
M64.2969 31.5156
C65.7969 31.5156 67.2969 31.5156 67.2969 33.2031
C67.2969 35 65.5938 35 63.9062 35
L8 35
C6.29688 35 4.59375 35 4.59375 33.2031
C4.59375 31.5156 6.09375 31.5156 7.59375 31.5156
z

M63.9062 14
C65.5938 14 67.2969 14 67.2969 15.7969
C67.2969 17.4844 65.7969 17.4844 64.2969 17.4844
L7.59375 17.4844
C6.09375 17.4844 4.59375 17.4844 4.59375 15.7969
C4.59375 14 6.29688 14 8 14
z
" id="CMR17-61"/>
     <path d="
M20.5938 29.2344
C20.7969 29.8438 23.2969 34.8281 27 38.0156
C29.5938 40.4062 33 42.0156 36.9062 42.0156
C40.9062 42.0156 42.2969 39.0156 42.2969 35.0312
C42.2969 29.3438 38.2031 17.9688 36.2031 12.5781
C35.2969 10.1719 34.7969 8.875 34.7969 7.07812
C34.7969 2.59375 37.9062 -1 42.7031 -1
C52 -1 55.5 13.6719 55.5 14.2656
C55.5 14.7656 55.0938 15.1719 54.5 15.1719
C53.5938 15.1719 53.5 14.875 53 13.1719
C50.7031 4.98438 46.9062 1 43 1
C42 1 40.4062 1 40.4062 4.20312
C40.4062 6.70312 41.5 9.70312 42.0938 11.0938
C44.0938 16.6094 48.2969 27.8125 48.2969 33.5156
C48.2969 39.5 44.7969 44 37.2031 44
C28.2969 44 23.5938 37.7344 21.7969 35.2344
C21.5 40.9062 17.4062 44 13 44
C9.79688 44 7.59375 42.1094 5.90625 38.7188
C4.09375 35.125 2.70312 29.1406 2.70312 28.7344
C2.70312 28.3438 3.09375 27.8438 3.79688 27.8438
C4.59375 27.8438 4.70312 27.9375 5.29688 30.2344
C6.90625 36.3281 8.70312 42.0156 12.7031 42.0156
C15 42.0156 15.7969 40.4062 15.7969 37.4219
C15.7969 35.2188 14.7969 31.3281 14.0938 28.2344
L11.2969 17.4688
C10.9062 15.5625 9.79688 11.0781 9.29688 9.28125
C8.59375 6.6875 7.5 2 7.5 1.5
C7.5 0.09375 8.59375 -1 10.0938 -1
C11.2969 -1 12.7031 -0.40625 13.5 1.09375
C13.7031 1.59375 14.5938 5.09375 15.0938 7.07812
L17.2969 16.0625
z
" id="CMMI12-110"/>
     <path d="
M39 34.3281
C41.5 40.4062 46 40.4062 47.4062 40.4062
L47.4062 43
C45.5 43 43 43 41.0938 43
C39 43 35.7031 43 33.7031 43.0938
L33.7031 40.5
C37.5 40.2031 37.5938 37.4062 37.5938 36.6094
C37.5938 35.625 37.4062 35.125 36.9062 33.9219
L26 7.01562
L14.0938 36.0312
C13.5938 37.2188 13.5938 37.9062 13.5938 38.0156
C13.5938 40.2031 15.9062 40.4062 18.2969 40.4062
L18.2969 43.0938
C15.9062 43 11.5938 43 9.09375 43
C6.40625 43 3.20312 43 1 43.0938
L1 40.4062
C6.40625 40.4062 7 39.9062 8.29688 36.7188
L23.2031 0.234375
C18.7031 -11.5312 16.0938 -18.4062 9.79688 -18.4062
C8.70312 -18.4062 6.20312 -18.1094 4.40625 -16.3125
C6.70312 -16.1094 7.70312 -14.7188 7.70312 -13.0156
C7.70312 -11.3281 6.5 -9.82812 4.5 -9.82812
C2.29688 -9.82812 1.20312 -11.3281 1.20312 -13.125
C1.20312 -17.1094 5.29688 -20 9.79688 -20
C15.5938 -20 19.2031 -14.4062 21.2031 -9.4375
z
" id="CMR17-121"/>
     <path d="
M14.2969 74.4844
L1.40625 74.4844
L1.40625 71
L10.7969 71
L10.7969 -21.5156
L1.40625 -21.5156
L1.40625 -25
L14.2969 -25
z
" id="CMR17-93"/>
     <path d="
M36.2969 68.4062
C35.7969 69.7031 35.5938 70 34.5938 70
C33.5938 70 33.4062 69.7031 32.9062 68.4062
L11.7031 8.84375
C9.79688 3.48438 5.79688 2.39062 2.29688 2.39062
L2.29688 -0.203125
C4.09375 0 8.09375 0 10 0
C12.5 0 16.5 0 18.9062 -0.203125
L18.9062 2.39062
C14.2031 2.39062 13.5 5.64062 13.5 6.85938
C13.5 7.76562 13.7031 8.28125 13.9062 8.89062
L19.2031 24
L45.4062 24
L51.4062 6.90625
C51.9062 5.70312 51.9062 5.5 51.9062 5.10938
C51.9062 2.39062 47.5938 2.39062 45.7031 2.39062
L45.7031 0
C48.5938 0 53.7969 0 56.9062 0
C59.5 0 64.5 0 66.9062 -0.203125
L66.9062 2.39062
C61.5938 2.39062 59.7969 2.39062 58.5 6.04688
z

M32.2969 60.5312
L44.5 26.5938
L20.0938 26.5938
z
" id="CMR17-65"/>
     <path d="
M34.9062 35
C33 35 30.2031 35 30.2031 31.5156
C30.2031 28.7188 32.5 27.9219 33.7969 27.9219
C34.5 27.9219 37.4062 28.2344 37.4062 31.625
C37.4062 38.5469 30.5938 43.7969 22.9062 43.7969
C12.2969 43.7969 3.29688 34.0312 3.29688 21.2969
C3.29688 8.0625 12.7031 -1 22.9062 -1
C35.2969 -1 38.4062 10.5938 38.4062 11.6875
C38.4062 12.0938 38.2969 12.3906 37.5938 12.3906
C36.9062 12.3906 36.7969 12.2969 36.4062 10.9844
C33.7969 2.8125 28.0938 0.796875 23.7969 0.796875
C17.4062 0.796875 9.70312 6.67188 9.70312 21.3906
C9.70312 36.5312 17.0938 42 23 42
C26.9062 42 32.7031 40.2031 34.9062 35" id="CMR17-99"/>
     <path d="
M20.9062 66
C20.2969 67.5 20.2031 67.5938 18.0938 67.5938
L5.29688 67.5938
L5.29688 65
C12.2031 65 13.2969 65 13.2969 60.5469
L13.2969 9.53125
C13.2969 7.04688 13.2969 2.39062 5.29688 2.39062
L5.29688 -0.203125
C7.59375 0 11.7969 0 14.2969 0
C16.7969 0 21 0 23.2969 -0.203125
L23.2969 2.39062
C15.2969 2.39062 15.2969 7.04688 15.2969 9.53125
L15.2969 64.6094
L15.4062 64.6094
L38.9062 1.57812
C39.2969 0.59375 39.5 0 40.2969 0
C41.0938 0 41.2969 0.59375 41.7031 1.57812
L65.4062 65
L65.5 65
L65.5 6.84375
C65.5 2.39062 64.4062 2.39062 57.5 2.39062
L57.5 -0.203125
C60.2031 0 65.5938 0 68.5 0
C71.4062 0 76.9062 0 79.5938 -0.203125
L79.5938 2.39062
C72.7031 2.39062 71.5938 2.39062 71.5938 6.84375
L71.5938 60.5469
C71.5938 65 72.7031 65 79.5938 65
L79.5938 67.5938
L66.9062 67.5938
C64.7969 67.5938 64.7031 67.5 64.0938 66
L42.5 7.84375
z
" id="CMR17-77"/>
     <path d="
M26.2969 24.6719
C26.2969 31.8438 25.5938 43.9844 19.5938 56.8281
C14.7969 67.1875 6.59375 74.4531 5.40625 74.4531
C5.09375 74.4531 4.70312 74.3438 4.70312 73.8594
C4.70312 73.6719 4.79688 73.5625 4.90625 73.3594
C9.70312 68.3906 21.9062 55.75 21.9062 24.7969
C21.9062 -6.28125 9.79688 -18.9219 4.90625 -23.9062
C4.79688 -24.0938 4.70312 -24.2031 4.70312 -24.3906
C4.70312 -24.8906 5.09375 -25 5.40625 -25
C6.5 -25 15 -17.625 19.9062 -6.67188
C24.9062 4.375 26.2969 15.125 26.2969 24.6719" id="CMR17-41"/>
     <path d="
M30.5938 -24.4062
C30.5938 -24.3125 30.5938 -24.1094 30.2969 -23.8125
C25.7031 -19.1406 13.4062 -6.39062 13.4062 24.6719
C13.4062 55.75 25.5 68.3906 30.4062 73.3594
C30.4062 73.4688 30.5938 73.6719 30.5938 73.9531
C30.5938 74.25 30.2969 74.4531 29.9062 74.4531
C28.7969 74.4531 20.2969 67.0781 15.4062 56.125
C10.4062 45.0781 9 34.3281 9 24.7812
C9 17.6094 9.70312 5.46875 15.7031 -7.375
C20.5 -17.7344 28.7031 -25 29.9062 -25
C30.4062 -25 30.5938 -24.7969 30.5938 -24.4062" id="CMR17-40"/>
     <path d="
M15.2969 40
L26.7031 40
L26.7031 42.5781
L15.0938 42.5781
L15.0938 54.5938
C15.0938 62.8438 19.2969 68 23.5938 68
C24.9062 68 26.4062 67.6094 27.4062 66.9062
C26.5938 66.7031 24.5 66.0156 24.5 63.5312
C24.5 60.9531 26.5 60.1562 27.9062 60.1562
C29.2969 60.1562 31.2969 60.9531 31.2969 63.5469
C31.2969 67.3125 27.7031 69.5938 23.7031 69.5938
C18 69.5938 10.2031 64.9375 10.2031 54.3906
L10.2031 42.5781
L2.20312 42.5781
L2.20312 40
L10.2031 40
L10.2031 6.67188
C10.2031 2.875 9.79688 2.39062 3.40625 2.39062
L3.40625 -0.203125
C5.79688 0 10.4062 0 13 0
C15.9062 0 21 0 23.7031 -0.203125
L23.7031 2.39062
C16.5 2.39062 15.2969 2.39062 15.2969 6.85938
z
" id="CMR17-102"/>
     <path d="
M74 57.7031
C75.0938 62 76.7031 65 84.2969 65
C84.5938 65 85.7969 65.0938 85.7969 66.8594
C85.7969 68 84.9062 68 84.5 68
C82.5 68 77.4062 68 75.4062 68
L70.5938 68
C69.2031 68 67.4062 68 66 68
C65.4062 68 64.2031 68 64.2031 66.0312
C64.2031 65 65 65 65.7031 65
C71.7031 65 72.0938 62.7031 72.0938 60.9062
C72.0938 60.0156 72 59.7031 71.7031 58.3125
L60.4062 13.2812
L39 66.2969
C38.2969 67.9062 38.2031 68 36 68
L23.7969 68
C21.7969 68 20.9062 68 20.9062 66.0312
C20.9062 65 21.5938 65 23.5 65
C24 65 29.9062 65 29.9062 64.0938
C29.9062 63.8906 29.7031 63.0938 29.5938 62.7969
L16.2969 9.89062
C15.0938 5 12.7031 2.90625 6.09375 2.90625
C5.59375 2.90625 4.59375 2.8125 4.59375 1
C4.59375 0 5.59375 0 5.90625 0
C7.90625 0 13 0 15 0
L19.7969 0
C21.2031 0 22.9062 0 24.2969 0
C25 0 26.0938 0 26.0938 1.90625
C26.0938 2.8125 25.0938 2.90625 24.7031 2.90625
C21.4062 2.90625 18.2031 3.5 18.2031 7.09375
C18.2031 7.89062 18.4062 8.78125 18.5938 9.57812
L32.0938 62.9688
C32.7031 61.9688 32.7031 61.7812 33.0938 60.875
L56.9062 1.73438
C57.4062 0.578125 57.5938 0 58.5 0
C59.5 0 59.5938 0.296875 60 2
z
" id="CMMI12-78"/>
     <path d="
M42.9062 71.2969
C42.9062 71.4062 43.5 72.9062 43.5 73.0938
C43.5 74.2969 42.5 75 41.7031 75
C41.2031 75 40.2969 75 39.5 72.7969
L6 -21.2969
C6 -21.4062 5.40625 -22.8906 5.40625 -23.0938
C5.40625 -24.2969 6.40625 -25 7.20312 -25
C7.79688 -25 8.70312 -24.8906 9.40625 -22.7969
z
" id="CMMI12-61"/>
     <path d="
M19.5 -0.484375
C19.5 5.35938 17.5938 9.67188 13.5 9.67188
C10.2969 9.67188 8.70312 7.07812 8.70312 4.89062
C8.70312 2.6875 10.2031 0 13.5938 0
C14.9062 0 16 0.40625 16.9062 1.29688
C17.0938 1.5 17.2031 1.5 17.2969 1.5
C17.5 1.5 17.5 0.078125 17.5 -0.421875
C17.5 -3.75 16.9062 -10.2969 11.0938 -16.875
C10 -18.0781 10 -18.2812 10 -18.4844
C10 -19 10.5 -19.5 11 -19.5
C11.7969 -19.5 19.5 -12.0469 19.5 -0.484375" id="CMMI12-59"/>
    </defs>
    <g transform="translate(41.650893804 15.7)scale(0.1 -0.1)">
     <use transform="scale(0.996264009963)" xlink:href="#CMR17-65"/>
     <use transform="translate(69.0724298042 0.0)scale(0.996264009963)" xlink:href="#CMR17-99"/>
     <use transform="translate(109.558090267 0.0)scale(0.996264009963)" xlink:href="#CMR17-99"/>
     <use transform="translate(150.04375073 0.0)scale(0.996264009963)" xlink:href="#CMR17-117"/>
     <use transform="translate(200.93912051 0.0)scale(0.996264009963)" xlink:href="#CMR17-114"/>
     <use transform="translate(236.219888309 0.0)scale(0.996264009963)" xlink:href="#CMR17-97"/>
     <use transform="translate(281.910365427 0.0)scale(0.996264009963)" xlink:href="#CMR17-99"/>
     <use transform="translate(322.396025889 0.0)scale(0.996264009963)" xlink:href="#CMR17-121"/>
     <use transform="translate(400.764908084 0.0)scale(0.996264009963)" xlink:href="#CMR17-111"/>
     <use transform="translate(446.455385201 0.0)scale(0.996264009963)" xlink:href="#CMR17-102"/>
     <use transform="translate(504.004863962 0.0)scale(0.996264009963)" xlink:href="#CMMI12-102"/>
     <use transform="translate(562.725168801 36.1536389419)scale(0.697381766617)" xlink:href="#CMR17-40"/>
     <use transform="translate(587.421589206 36.1536389419)scale(0.697381766617)" xlink:href="#CMMI12-110"/>
     <use transform="translate(628.182432334 36.1536389419)scale(0.697381766617)" xlink:href="#CMR17-41"/>
     <use transform="translate(653.376984745 0.0)scale(0.996264009963)" xlink:href="#CMR17-40"/>
     <use transform="translate(688.657752544 0.0)scale(0.996264009963)" xlink:href="#CMR17-48"/>
     <use transform="translate(734.348229661 0.0)scale(0.996264009963)" xlink:href="#CMR17-41"/>
     <use transform="translate(797.303006183 0.0)scale(0.996264009963)" xlink:href="#CMSY10-39"/>
     <use transform="translate(902.464482556 0.0)scale(0.996264009963)" xlink:href="#CMR17-83"/>
     <use transform="translate(953.359852336 0.0)scale(0.996264009963)" xlink:href="#CMR17-77"/>
     <use transform="translate(1038.04679291 0.0)scale(0.996264009963)" xlink:href="#CMR17-40"/>
     <use transform="translate(1073.32756071 0.0)scale(0.996264009963)" xlink:href="#CMMI12-102"/>
     <use transform="translate(1126.62843013 0.0)scale(0.996264009963)" xlink:href="#CMMI12-59"/>
     <use transform="translate(1170.33001245 0.0)scale(0.996264009963)" xlink:href="#CMR17-48"/>
     <use transform="translate(1216.02048957 0.0)scale(0.996264009963)" xlink:href="#CMMI12-59"/>
     <use transform="translate(1259.72207189 0.0)scale(0.996264009963)" xlink:href="#CMMI12-104"/>
     <use transform="translate(1315.87669591 0.0)scale(0.996264009963)" xlink:href="#CMMI12-59"/>
     <use transform="translate(1359.57827823 0.0)scale(0.996264009963)" xlink:href="#CMMI12-78"/>
     <use transform="translate(1448.10005083 0.0)scale(0.996264009963)" xlink:href="#CMR17-41"/>
     <use transform="translate(1483.38081863 0.0)scale(0.996264009963)" xlink:href="#CMR17-91"/>
     <use transform="translate(1508.25187712 0.0)scale(0.996264009963)" xlink:href="#CMMI12-110"/>
     <use transform="translate(1566.48192447 0.0)scale(0.996264009963)" xlink:href="#CMR17-93"/>
     <use transform="translate(1621.4289493 0.0)scale(0.996264009963)" xlink:href="#CMR17-102"/>
     <use transform="translate(1648.90246172 0.0)scale(0.996264009963)" xlink:href="#CMR17-111"/>
     <use transform="translate(1694.59293883 0.0)scale(0.996264009963)" xlink:href="#CMR17-114"/>
     <use transform="translate(1759.94967298 0.0)scale(0.996264009963)" xlink:href="#CMMI12-102"/>
     <use transform="translate(1818.66997782 0.0)scale(0.996264009963)" xlink:href="#CMR17-40"/>
     <use transform="translate(1853.95074562 0.0)scale(0.996264009963)" xlink:href="#CMMI12-122"/>
     <use transform="translate(1903.70589051 0.0)scale(0.996264009963)" xlink:href="#CMR17-41"/>
     <use transform="translate(1966.66066703 0.0)scale(0.996264009963)" xlink:href="#CMR17-61"/>
     <use transform="translate(2066.04946417 0.0)scale(0.996264009963)" xlink:href="#CMR17-49"/>
     <use transform="translate(2111.73994128 0.0)scale(0.996264009963)" xlink:href="#CMMI12-61"/>
     <use transform="translate(2160.51486005 0.0)scale(0.996264009963)" xlink:href="#CMR17-40"/>
     <use transform="translate(2195.79562785 0.0)scale(0.996264009963)" xlink:href="#CMR17-49"/>
     <use transform="translate(2263.62531194 0.0)scale(0.996264009963)" xlink:href="#CMSY10-0"/>
     <use transform="translate(2363.25198657 0.0)scale(0.996264009963)" xlink:href="#CMMI12-122"/>
     <use transform="translate(2413.00713146 0.0)scale(0.996264009963)" xlink:href="#CMR17-41"/>
    </g>
   </g>
   <g id="legend_1">
    <g id="patch_7">
     <path d="
M48.125 134.627
L108.37 134.627
L108.37 62.0228
L48.125 62.0228
L48.125 134.627
z
" style="fill:#ffffff;stroke:#000000;"/>
    </g>
    <g id="text_12">
     <!-- $N=32$ -->
     <defs>
      <path d="
M22.0938 33.7031
C31 33.7031 34.9062 25.9688 34.9062 17.0312
C34.9062 5 28.5 0.390625 22.7031 0.390625
C17.4062 0.390625 8.79688 3.03125 6.09375 10.8281
C6.59375 10.625 7.09375 10.625 7.59375 10.625
C10 10.625 11.7969 12.2188 11.7969 14.8125
C11.7969 17.7031 9.59375 19 7.59375 19
C5.90625 19 3.29688 18.2031 3.29688 14.4688
C3.29688 5.23438 12.2969 -2 22.9062 -2
C34 -2 42.5 6.71875 42.5 16.9531
C42.5 26.6719 34.5 33.6875 25 34.7969
C32.5938 36.375 39.9062 43.0625 39.9062 52.0156
C39.9062 59.6875 32 65.2969 23 65.2969
C13.9062 65.2969 5.90625 59.8281 5.90625 52.0156
C5.90625 48.5938 8.5 48 9.79688 48
C11.9062 48 13.7031 49.2969 13.7031 51.8906
C13.7031 54.4688 11.9062 55.7656 9.79688 55.7656
C9.40625 55.7656 8.90625 55.7656 8.5 55.5625
C11.4062 61.8594 19.2969 63 22.7969 63
C26.2969 63 32.9062 61.3281 32.9062 51.875
C32.9062 49.1094 32.5 44.1875 29.0938 39.8438
C26.0938 36 22.7031 36 19.4062 35.5938
C18.9062 35.5938 16.5938 35.5938 16.2031 35.5938
C15.5 35.4844 15.0938 35.3906 15.0938 34.5938
C15.0938 33.8125 15.2031 33.7031 17.2031 33.7031
z
" id="CMR17-51"/>
     </defs>
     <g transform="translate(62.0788555977 72.9413033643)scale(0.1 -0.1)">
      <use transform="scale(0.996264009963)" xlink:href="#CMMI12-78"/>
      <use transform="translate(116.195781323 0.0)scale(0.996264009963)" xlink:href="#CMR17-61"/>
      <use transform="translate(215.584578461 0.0)scale(0.996264009963)" xlink:href="#CMR17-51"/>
      <use transform="translate(261.275055578 0.0)scale(0.996264009963)" xlink:href="#CMR17-50"/>
     </g>
    </g>
    <g id="line2d_77">
     <path d="
M55.125 83.3785
L69.125 83.3785" style="fill:none;stroke:#333333;stroke-linecap:square;"/>
    </g>
    <g id="line2d_78"/>
    <g id="text_13">
     <!-- $n=1$ -->
     <g transform="translate(80.125 86.8784816946)scale(0.1 -0.1)">
      <use transform="scale(0.996264009963)" xlink:href="#CMMI12-110"/>
      <use transform="translate(85.9040560788 0.0)scale(0.996264009963)" xlink:href="#CMR17-61"/>
      <use transform="translate(185.292853216 0.0)scale(0.996264009963)" xlink:href="#CMR17-49"/>
     </g>
    </g>
    <g id="line2d_79">
     <path d="
M55.125 97.3157
L69.125 97.3157" style="fill:none;stroke:#666666;stroke-linecap:square;"/>
    </g>
    <g id="line2d_80"/>
    <g id="text_14">
     <!-- $n=2$ -->
     <g transform="translate(80.125 100.815660025)scale(0.1 -0.1)">
      <use transform="scale(0.996264009963)" xlink:href="#CMMI12-110"/>
      <use transform="translate(85.9040560788 0.0)scale(0.996264009963)" xlink:href="#CMR17-61"/>
      <use transform="translate(185.292853216 0.0)scale(0.996264009963)" xlink:href="#CMR17-50"/>
     </g>
    </g>
    <g id="line2d_81">
     <path d="
M55.125 111.253
L69.125 111.253" style="fill:none;stroke:#999999;stroke-linecap:square;"/>
    </g>
    <g id="line2d_82"/>
    <g id="text_15">
     <!-- $n=3$ -->
     <g transform="translate(80.125 114.752838355)scale(0.1 -0.1)">
      <use transform="scale(0.996264009963)" xlink:href="#CMMI12-110"/>
      <use transform="translate(85.9040560788 0.0)scale(0.996264009963)" xlink:href="#CMR17-61"/>
      <use transform="translate(185.292853216 0.0)scale(0.996264009963)" xlink:href="#CMR17-51"/>
     </g>
    </g>
    <g id="line2d_83">
     <path d="
M55.125 125.19
L69.125 125.19" style="fill:none;stroke:#cccccc;stroke-linecap:square;"/>
    </g>
    <g id="line2d_84"/>
    <g id="text_16">
     <!-- $n=4$ -->
     <g transform="translate(80.125 128.690016685)scale(0.1 -0.1)">
      <use transform="scale(0.996264009963)" xlink:href="#CMMI12-110"/>
      <use transform="translate(85.9040560788 0.0)scale(0.996264009963)" xlink:href="#CMR17-61"/>
      <use transform="translate(185.292853216 0.0)scale(0.996264009963)" xlink:href="#CMR17-52"/>
     </g>
    </g>
   </g>
  </g>
 </g>
 <defs>
  <clipPath id="p42680d1cdf">
   <rect height="155.25" width="258.75" x="43.125" y="20.7"/>
  </clipPath>
 </defs>
</svg>
