<?xml version="1.0" encoding="utf-8" standalone="no"?>
<!DOCTYPE svg PUBLIC "-//W3C//DTD SVG 1.1//EN"
  "http://www.w3.org/Graphics/SVG/1.1/DTD/svg11.dtd">
<!-- Created with matplotlib (http://matplotlib.org/) -->
<svg height="191pt" version="1.1" viewBox="0 0 345 191" width="345pt" xmlns="http://www.w3.org/2000/svg" xmlns:xlink="http://www.w3.org/1999/xlink">
 <defs>
  <style type="text/css">
*{stroke-linecap:butt;stroke-linejoin:round;}
  </style>
 </defs>
 <g id="figure_1">
  <g id="patch_1">
   <path d="
M0 191.986
L345 191.986
L345 0
L0 0
z
" style="fill:#ffffff;"/>
  </g>
  <g id="axes_1">
   <g id="patch_2">
    <path d="
M34.5 163.188
L310.5 163.188
L310.5 3.83973
L34.5 3.83973
z
" style="fill:#ffffff;"/>
   </g>
   <g id="line2d_1">
    <path clip-path="url(#p23c68c79de)" d="
M-266.768 149.909
M-1 149.909
L346 149.909" style="fill:none;stroke:#000000;stroke-dasharray:1.000000,3.000000;stroke-dashoffset:0.0;stroke-width:0.5;"/>
   </g>
   <g id="line2d_2">
    <path clip-path="url(#p23c68c79de)" d="
M172.5 415.49
M172.5 192.986
L172.5 -1" style="fill:none;stroke:#000000;stroke-dasharray:1.000000,3.000000;stroke-dashoffset:0.0;stroke-width:0.5;"/>
   </g>
   <g id="line2d_3">
    <path clip-path="url(#p23c68c79de)" d="
M34.5 123.351
L310.5 123.351
L310.5 123.351" style="fill:none;stroke:#bfbfbf;stroke-linecap:square;"/>
   </g>
   <g id="line2d_4">
    <path clip-path="url(#p23c68c79de)" d="
M34.5 132.204
L43.8934 132.091
L53.0105 131.763
L62.1276 131.21
L70.6922 130.473
L78.9805 129.543
L86.9925 128.427
L94.7282 127.132
L102.464 125.615
L110.2 123.873
L118.488 121.773
L128.158 119.083
L147.221 113.716
L153.299 112.283
L158.272 111.326
L162.968 110.648
L167.389 110.24
L171.533 110.078
L175.677 110.137
L179.821 110.414
L184.242 110.937
L188.938 111.724
L194.188 112.839
L200.266 114.364
L208.83 116.763
L227.065 121.92
L235.629 124.07
L243.365 125.788
L251.101 127.281
L258.836 128.553
L266.848 129.646
L275.137 130.554
L283.701 131.27
L292.542 131.789
L301.659 132.104
L310.5 132.204
L310.5 132.204" style="fill:none;stroke:#9f9f9f;stroke-linecap:square;"/>
   </g>
   <g id="line2d_5">
    <path clip-path="url(#p23c68c79de)" d="
M34.5 136.63
L43.8934 136.516
L53.0105 136.18
L61.5751 135.646
L69.5871 134.932
L77.0465 134.052
L83.9535 133.024
L90.5841 131.81
L96.6622 130.471
L102.464 128.959
L107.713 127.368
L112.686 125.64
L117.659 123.677
L122.356 121.591
L127.053 119.272
L132.026 116.565
L137.275 113.453
L144.458 108.906
L152.746 103.686
L156.89 101.344
L160.206 99.7224
L162.968 98.598
L165.731 97.7207
L168.218 97.1687
L170.704 96.8596
L172.914 96.7967
L175.125 96.9349
L177.611 97.3264
L180.098 97.9559
L182.584 98.8042
L185.347 99.9737
L188.662 101.639
L192.53 103.852
L198.056 107.306
L209.659 114.627
L214.908 117.648
L219.881 120.256
L224.578 122.478
L229.551 124.58
L234.524 126.436
L239.773 128.15
L245.299 129.71
L251.101 131.109
L257.179 132.345
L263.809 133.462
L270.992 134.438
L278.728 135.254
L287.017 135.897
L295.581 136.34
L304.698 136.587
L310.5 136.63
L310.5 136.63" style="fill:none;stroke:#808080;stroke-linecap:square;"/>
   </g>
   <g id="line2d_6">
    <path clip-path="url(#p23c68c79de)" d="
M34.5 141.057
L44.9985 140.943
L54.9444 140.617
L64.3378 140.088
L72.6261 139.406
L80.0856 138.58
L86.9925 137.591
L93.0706 136.498
L98.5961 135.278
L103.569 133.954
L107.989 132.558
L112.134 131.024
L116.002 129.358
L119.593 127.574
L122.908 125.689
L126.224 123.543
L129.263 121.314
L132.302 118.801
L135.065 116.245
L137.827 113.407
L140.59 110.267
L143.353 106.813
L146.392 102.652
L149.707 97.7153
L153.851 91.1128
L160.206 80.9659
L162.692 77.4314
L164.626 75.0337
L166.284 73.2983
L167.665 72.1179
L169.047 71.2074
L170.428 70.5879
L171.533 70.3121
L172.638 70.2366
L173.743 70.3624
L174.848 70.6877
L176.23 71.3668
L177.611 72.3332
L178.992 73.5645
L180.65 75.3535
L182.584 77.8019
L184.794 80.9659
L188.11 86.1652
L196.674 99.8183
L199.989 104.589
L203.029 108.579
L206.068 112.188
L209.107 115.425
L212.146 118.312
L215.185 120.879
L218.224 123.157
L221.539 125.351
L224.854 127.276
L228.446 129.1
L232.314 130.801
L236.458 132.367
L240.878 133.792
L245.575 135.074
L250.824 136.273
L256.626 137.363
L262.98 138.327
L270.164 139.184
L278.176 139.906
L287.017 140.471
L296.686 140.859
L306.908 141.043
L310.5 141.057
L310.5 141.057" style="fill:none;stroke:#404040;stroke-linecap:square;"/>
   </g>
   <g id="line2d_7">
    <path clip-path="url(#p23c68c79de)" d="
M34.5 144.598
L47.485 144.485
L59.6411 144.158
L70.4159 143.648
L79.533 143.003
L87.545 142.217
L94.452 141.317
L100.254 140.346
L105.503 139.246
L110.2 138.028
L114.344 136.72
L117.935 135.36
L121.251 133.875
L124.29 132.275
L127.053 130.58
L129.539 128.818
L132.026 126.79
L134.236 124.722
L136.446 122.36
L138.656 119.653
L140.59 116.954
L142.524 113.897
L144.458 110.427
L146.392 106.484
L148.326 102.001
L150.26 96.9093
L152.194 91.1401
L154.128 84.6363
L156.062 77.366
L158.272 68.1424
L161.035 55.4941
L165.731 33.6492
L167.389 27.0847
L168.494 23.4261
L169.599 20.5037
L170.428 18.8679
L171.257 17.7539
L171.809 17.3155
L172.362 17.1267
L172.914 17.1897
L173.467 17.5037
L174.02 18.0653
L174.848 19.357
L175.677 21.1584
L176.782 24.2769
L177.887 28.0985
L179.269 33.6492
L181.479 43.6619
L187.005 69.3452
L189.215 78.4517
L191.425 86.572
L193.359 92.8612
L195.293 98.4303
L197.227 103.341
L199.161 107.662
L201.095 111.464
L203.029 114.81
L204.962 117.76
L207.173 120.713
L209.383 123.283
L211.593 125.529
L214.08 127.727
L216.566 129.631
L219.329 131.459
L222.368 133.179
L225.407 134.648
L228.722 136.017
L232.59 137.361
L236.734 138.56
L241.431 139.68
L246.68 140.695
L252.758 141.632
L259.665 142.458
L267.677 143.181
L276.794 143.772
L287.293 144.226
L299.173 144.512
L310.5 144.598
L310.5 144.598" style="fill:none;stroke:#000000;stroke-linecap:square;"/>
   </g>
   <g id="matplotlib.axis_1">
    <g id="xtick_1">
     <g id="line2d_8">
      <defs>
       <path d="
M0 0
L0 -4" id="m93b0483c22" style="stroke:#000000;stroke-width:0.5;"/>
      </defs>
      <g>
       <use style="stroke:#000000;stroke-width:0.5;" x="34.5" xlink:href="#m93b0483c22" y="163.188401388"/>
      </g>
     </g>
     <g id="line2d_9">
      <defs>
       <path d="
M0 0
L0 4" id="m741efc42ff" style="stroke:#000000;stroke-width:0.5;"/>
      </defs>
      <g>
       <use style="stroke:#000000;stroke-width:0.5;" x="34.5" xlink:href="#m741efc42ff" y="3.83972709148"/>
      </g>
     </g>
     <g id="text_1">
      <!-- $-\pi$ -->
      <defs>
       <path d="
M65.9062 23
C67.5938 23 69.4062 23 69.4062 25
C69.4062 27 67.5938 27 65.9062 27
L11.7969 27
C10.0938 27 8.29688 27 8.29688 25
C8.29688 23 10.0938 23 11.7969 23
z
" id="CMSY10-0"/>
       <path d="
M25.9062 37.625
L37.2031 37.625
C34.5 26.4375 32.7969 19.1562 32.7969 11.1875
C32.7969 9.78125 32.7969 -1 36.9062 -1
C39 -1 40.7969 0.890625 40.7969 2.60938
C40.7969 3.09375 40.7969 3.29688 40.0938 4.79688
C37.4062 11.6719 37.4062 20.25 37.4062 20.9531
C37.4062 21.5625 37.4062 28.6406 39.5 37.625
L50.7031 37.625
C52 37.625 55.2969 37.625 55.2969 40.8125
C55.2969 43 53.4062 43 51.5938 43
L18.7031 43
C16.4062 43 13 43 8.40625 38.125
C5.79688 35.2188 2.59375 29.9375 2.59375 29.3438
C2.59375 28.75 3.09375 28.5469 3.70312 28.5469
C4.40625 28.5469 4.5 28.8438 5 29.4375
C10.2031 37.625 15.4062 37.625 17.9062 37.625
L23.5938 37.625
C21.4062 30.1406 18.9062 21.4531 10.7031 4
C9.90625 2.40625 9.90625 2.1875 9.90625 1.59375
C9.90625 -0.5 11.7031 -1 12.5938 -1
C15.5 -1 16.2969 1.59375 17.5 5.78125
C19.0938 10.875 19.0938 11.0781 20.0938 15.0625
z
" id="CMMI12-25"/>
      </defs>
      <g transform="translate(27.7861404134 174.106899768)scale(0.1 -0.1)">
       <use transform="scale(0.996264009963)" xlink:href="#CMSY10-0"/>
       <use transform="translate(77.4874676506 0.0)scale(0.996264009963)" xlink:href="#CMMI12-25"/>
      </g>
     </g>
    </g>
    <g id="xtick_2">
     <g id="line2d_10">
      <g>
       <use style="stroke:#000000;stroke-width:0.5;" x="103.5" xlink:href="#m93b0483c22" y="163.188401388"/>
      </g>
     </g>
     <g id="line2d_11">
      <g>
       <use style="stroke:#000000;stroke-width:0.5;" x="103.5" xlink:href="#m741efc42ff" y="3.83972709148"/>
      </g>
     </g>
     <g id="text_2">
      <!-- $-\pi/2$ -->
      <defs>
       <path d="
M41.7031 15.4531
L39.9062 15.4531
C38.9062 8.375 38.0938 7.17188 37.7031 6.5625
C37.2031 5.76562 30 5.76562 28.5938 5.76562
L9.40625 5.76562
C13 9.67188 20 16.75 28.5 24.9531
C34.5938 30.7344 41.7031 37.5312 41.7031 47.4219
C41.7031 59.2188 32.2969 66 21.7969 66
C10.7969 66 4.09375 56.3125 4.09375 47.3438
C4.09375 43.4375 7 42.9375 8.20312 42.9375
C9.20312 42.9375 12.2031 43.5469 12.2031 47.0312
C12.2031 50.1094 9.59375 51 8.20312 51
C7.59375 51 7 50.9062 6.59375 50.7031
C8.5 59.2188 14.2969 63.4062 20.4062 63.4062
C29.0938 63.4062 34.7969 56.5156 34.7969 47.4219
C34.7969 38.7344 29.7031 31.25 24 24.75
L4.09375 2.28125
L4.09375 0
L39.2969 0
z
" id="CMR17-50"/>
       <path d="
M42.9062 71.2969
C42.9062 71.4062 43.5 72.9062 43.5 73.0938
C43.5 74.2969 42.5 75 41.7031 75
C41.2031 75 40.2969 75 39.5 72.7969
L6 -21.2969
C6 -21.4062 5.40625 -22.8906 5.40625 -23.0938
C5.40625 -24.2969 6.40625 -25 7.20312 -25
C7.79688 -25 8.70312 -24.8906 9.40625 -22.7969
z
" id="CMMI12-61"/>
      </defs>
      <g transform="translate(91.6260854073 174.660381463)scale(0.1 -0.1)">
       <use transform="scale(0.996264009963)" xlink:href="#CMSY10-0"/>
       <use transform="translate(77.4874676506 0.0)scale(0.996264009963)" xlink:href="#CMMI12-25"/>
       <use transform="translate(136.398068401 0.0)scale(0.996264009963)" xlink:href="#CMMI12-61"/>
       <use transform="translate(185.172987162 0.0)scale(0.996264009963)" xlink:href="#CMR17-50"/>
      </g>
     </g>
    </g>
    <g id="xtick_3">
     <g id="line2d_12">
      <g>
       <use style="stroke:#000000;stroke-width:0.5;" x="172.5" xlink:href="#m93b0483c22" y="163.188401388"/>
      </g>
     </g>
     <g id="line2d_13">
      <g>
       <use style="stroke:#000000;stroke-width:0.5;" x="172.5" xlink:href="#m741efc42ff" y="3.83972709148"/>
      </g>
     </g>
     <g id="text_3">
      <!-- $0$ -->
      <defs>
       <path d="
M42 31.6406
C42 37.75 41.9062 48.125 37.7031 56.1094
C34 63.1094 28.0938 65.5938 22.9062 65.5938
C18.0938 65.5938 12 63.4062 8.20312 56.2031
C4.20312 48.7188 3.79688 39.4375 3.79688 31.6406
C3.79688 25.9531 3.90625 17.2812 7 9.67188
C11.2969 -0.609375 19 -2 22.9062 -2
C27.5 -2 34.5 -0.109375 38.5938 9.375
C41.5938 16.2812 42 24.3594 42 31.6406
M22.9062 -0.40625
C16.5 -0.40625 12.7031 5.07812 11.2969 12.6875
C10.2031 18.5625 10.2031 27.1562 10.2031 32.75
C10.2031 40.4375 10.2031 46.8281 11.5 52.9219
C13.4062 61.3906 19 64 22.9062 64
C27 64 32.2969 61.2969 34.2031 53.125
C35.5 47.4375 35.5938 40.7344 35.5938 32.75
C35.5938 26.25 35.5938 18.2656 34.4062 12.375
C32.2969 1.48438 26.4062 -0.40625 22.9062 -0.40625" id="CMR17-48"/>
      </defs>
      <g transform="translate(170.009332374 174.106899768)scale(0.1 -0.1)">
       <use transform="scale(0.996264009963)" xlink:href="#CMR17-48"/>
      </g>
     </g>
    </g>
    <g id="xtick_4">
     <g id="line2d_14">
      <g>
       <use style="stroke:#000000;stroke-width:0.5;" x="241.5" xlink:href="#m93b0483c22" y="163.188401388"/>
      </g>
     </g>
     <g id="line2d_15">
      <g>
       <use style="stroke:#000000;stroke-width:0.5;" x="241.5" xlink:href="#m741efc42ff" y="3.83972709148"/>
      </g>
     </g>
     <g id="text_4">
      <!-- $\pi/2$ -->
      <g transform="translate(233.50045727 174.660381463)scale(0.1 -0.1)">
       <use transform="scale(0.996264009963)" xlink:href="#CMMI12-25"/>
       <use transform="translate(58.9106007501 0.0)scale(0.996264009963)" xlink:href="#CMMI12-61"/>
       <use transform="translate(107.685519512 0.0)scale(0.996264009963)" xlink:href="#CMR17-50"/>
      </g>
     </g>
    </g>
    <g id="xtick_5">
     <g id="line2d_16">
      <g>
       <use style="stroke:#000000;stroke-width:0.5;" x="310.5" xlink:href="#m93b0483c22" y="163.188401388"/>
      </g>
     </g>
     <g id="line2d_17">
      <g>
       <use style="stroke:#000000;stroke-width:0.5;" x="310.5" xlink:href="#m741efc42ff" y="3.83972709148"/>
      </g>
     </g>
     <g id="text_5">
      <!-- $\pi$ -->
      <g transform="translate(307.660512276 174.106899768)scale(0.1 -0.1)">
       <use transform="scale(0.996264009963)" xlink:href="#CMMI12-25"/>
      </g>
     </g>
    </g>
    <g id="text_6">
     <!-- angle $\theta$ -->
     <defs>
      <path d="
M36 25.8281
C36 32.375 36 35.8438 31.7969 39.7344
C28.0938 43 23.7969 44 20.4062 44
C12.5 44 6.79688 37.6094 6.79688 30.7969
C6.79688 27 9.79688 27 10.4062 27
C11.7031 27 14 27.7812 14 30.5312
C14 33 12.0938 34.0781 10.4062 34.0781
C10 34.0781 9.5 33.9688 9.20312 33.875
C11.2969 40.5 16.7031 42.4062 20.2031 42.4062
C25.2031 42.4062 30.7031 37.9531 30.7031 29.4531
L30.7031 25
C24.7969 25 17.7031 24.2031 12.0938 21.2031
C5.79688 17.7031 4 12.7031 4 8.90625
C4 1.20312 13 -1 18.2969 -1
C23.7969 -1 28.9062 2.17188 31.0938 7.98438
C31.2969 3.64062 34.0938 -0.28125 38.5 -0.28125
C40.5938 -0.28125 45.9062 1.09375 45.9062 8.85938
L45.9062 14.375
L44.0938 14.375
L44.0938 8.78125
C44.0938 2.78125 41.4062 2 40.0938 2
C36 2 36 7.15625 36 11.5312
z

M30.7031 13.5938
C30.7031 4.95312 24.5 0.59375 19 0.59375
C14 0.59375 10.0938 4.29688 10.0938 8.90625
C10.0938 11.8906 11.4062 17.1875 17.2031 20.3906
C22 23.0938 27.5 23.5 30.7031 23.5
z
" id="CMR17-97"/>
      <path d="
M41.5 30.2031
C41.5 35.2969 40.5 43.5938 28.7031 43.5938
C20.7969 43.5938 16.7031 37.5 15.2031 33.5
L15.0938 33.5
L15.0938 43.5938
L3.29688 42.5
L3.29688 39.9062
C9.20312 39.9062 10.0938 39.2969 10.0938 34.5
L10.0938 6.6875
C10.0938 2.875 9.70312 2.39062 3.29688 2.39062
L3.29688 -0.203125
C5.70312 0 10.0938 0 12.7031 0
C15.2969 0 19.7969 0 22.2031 -0.203125
L22.2031 2.39062
C15.7969 2.39062 15.4062 2.78125 15.4062 6.6875
L15.4062 25.9062
C15.4062 35.1094 21 42 28 42
C35.4062 42 36.2031 35.4062 36.2031 30.5938
L36.2031 6.6875
C36.2031 2.875 35.7969 2.39062 29.4062 2.39062
L29.4062 -0.203125
C31.7969 0 36.2031 0 38.7969 0
C41.4062 0 45.9062 0 48.2969 -0.203125
L48.2969 2.39062
C41.9062 2.39062 41.5 2.78125 41.5 6.6875
z
" id="CMR17-110"/>
      <path d="
M44.2969 50
C44.2969 60.1562 41.0938 70 32.9062 70
C18.9062 70 4 40.8594 4 19
C4 14.4219 5 -1 15.5 -1
C29.0938 -1 44.2969 27.4375 44.2969 50
M14 36
C15.5 41.8594 17.5938 50.2188 21.5938 57.2656
C24.9062 63.2344 28.4062 68 32.7969 68
C36.0938 68 38.2969 65.2188 38.2969 55.6875
C38.2969 52.0938 38 47.1406 35.0938 36
z

M34.4062 33.0156
C31.9062 23.2812 29.7969 17 26.2031 10.7344
C23.2969 5.67188 19.7969 1 15.5938 1
C12.5 1 10 3.39062 10 13.2188
C10 19.6875 11.5938 26.4531 13.2031 33.0156
z
" id="CMMI12-18"/>
      <path d="
M38.0938 23
C38.5 23.4062 38.5 23.6094 38.5 24.625
C38.5 34.9688 33.0938 44 21.7031 44
C11.0938 44 2.70312 33.8906 2.70312 21.6094
C2.70312 8.60938 12.2031 -1 22.7969 -1
C34 -1 38.4062 9.46875 38.4062 11.5469
C38.4062 12.25 37.7969 12.25 37.5938 12.25
C36.9062 12.25 36.7969 12.0469 36.4062 10.875
C34.2031 4.14062 28.7031 0.796875 23.5 0.796875
C19.2031 0.796875 14.9062 3.17188 12.2031 7.5
C9.09375 12.5469 9.09375 18.375 9.09375 23
z

M9.20312 24.5
C9.90625 39.1406 17.5938 42.4062 21.5938 42.4062
C28.4062 42.4062 33 35.8906 33.0938 24.5
z
" id="CMR17-101"/>
      <path d="
M11.0938 18.1875
C13 16.6875 16.2969 15 20.2969 15
C28.2031 15 35 21.2031 35 29.5
C35 32.0938 34.2031 36.0938 31.2031 39.2031
C34 42.0625 38.0938 43 40.4062 43
C40.7969 43 41.4062 43 41.9062 42.7656
C41.5 42.6719 40.5938 42.2812 40.5938 40.7344
C40.5938 39.4844 41.5 38.6094 42.7969 38.6094
C44.2969 38.6094 45.0938 39.5781 45.0938 40.8438
C45.0938 42.6719 43.5938 44.5938 40.4062 44.5938
C36.4062 44.5938 32.9062 42.7812 30.0938 40.3125
C27.0938 43.0156 23.5 44 20.2969 44
C12.4062 44 5.59375 37.7969 5.59375 29.5
C5.59375 23.7812 8.90625 20.1875 9.90625 19.1875
C6.90625 15.6875 6.90625 11.6094 6.90625 11.1094
C6.90625 8.51562 7.90625 4.71875 11.2969 2.625
C6.09375 1.32812 2 -2.64062 2 -7.59375
C2 -14.7344 11.5 -20 22.9062 -20
C33.9062 -20 43.7969 -14.9375 43.7969 -7.48438
C43.7969 6 29 6 21.2969 6
C19 6 14.9062 6 14.4062 6.10938
C11.2969 6.60938 9.20312 9.40625 9.20312 12.8906
C9.20312 13.7812 9.20312 16 11.0938 18.1875
M20.2969 16.6875
C11.5 16.6875 11.5 27.5 11.5 29.5156
C11.5 31.5 11.5 42.3125 20.2969 42.3125
C29.0938 42.3125 29.0938 31.5 29.0938 29.5156
C29.0938 27.5 29.0938 16.6875 20.2969 16.6875
M22.9062 -18.2969
C12.9062 -18.2969 6 -13.0469 6 -7.59375
C6 -4.51562 7.70312 -1.64062 9.90625 -0.0625
C12.4062 1.625 13.4062 1.625 20.2031 1.625
C28.4062 1.625 39.7969 1.625 39.7969 -7.59375
C39.7969 -13.0469 32.9062 -18.2969 22.9062 -18.2969" id="CMR17-103"/>
      <path d="
M15.2969 68.6875
L3.40625 67.5938
L3.40625 65
C9.29688 65 10.2031 64.4062 10.2031 59.6406
L10.2031 6.65625
C10.2031 2.875 9.79688 2.39062 3.40625 2.39062
L3.40625 -0.203125
C5.79688 0 10.2031 0 12.7031 0
C15.2969 0 19.7031 0 22.0938 -0.203125
L22.0938 2.39062
C15.7031 2.39062 15.2969 2.78125 15.2969 6.65625
z
" id="CMR17-108"/>
     </defs>
     <g transform="translate(157.154743199 189.069539868)scale(0.1 -0.1)">
      <use transform="scale(0.996264009963)" xlink:href="#CMR17-97"/>
      <use transform="translate(45.6904771171 0.0)scale(0.996264009963)" xlink:href="#CMR17-110"/>
      <use transform="translate(96.5858468974 0.0)scale(0.996264009963)" xlink:href="#CMR17-103"/>
      <use transform="translate(142.276324014 0.0)scale(0.996264009963)" xlink:href="#CMR17-108"/>
      <use transform="translate(167.147382496 0.0)scale(0.996264009963)" xlink:href="#CMR17-101"/>
      <use transform="translate(237.709009306 0.0)scale(0.996264009963)" xlink:href="#CMMI12-18"/>
     </g>
    </g>
   </g>
   <g id="matplotlib.axis_2">
    <g id="ytick_1">
     <g id="line2d_18">
      <defs>
       <path d="
M0 0
L4 0" id="m728421d6d4" style="stroke:#000000;stroke-width:0.5;"/>
      </defs>
      <g>
       <use style="stroke:#000000;stroke-width:0.5;" x="34.5" xlink:href="#m728421d6d4" y="149.909345196"/>
      </g>
     </g>
     <g id="line2d_19">
      <defs>
       <path d="
M0 0
L-4 0" id="mcb0005524f" style="stroke:#000000;stroke-width:0.5;"/>
      </defs>
      <g>
       <use style="stroke:#000000;stroke-width:0.5;" x="310.5" xlink:href="#mcb0005524f" y="149.909345196"/>
      </g>
     </g>
     <g id="text_7">
      <!-- $0$ -->
      <g transform="translate(25.5186647484 152.400005221)scale(0.1 -0.1)">
       <use transform="scale(0.996264009963)" xlink:href="#CMR17-48"/>
      </g>
     </g>
    </g>
    <g id="ytick_2">
     <g id="line2d_20">
      <g>
       <use style="stroke:#000000;stroke-width:0.5;" x="34.5" xlink:href="#m728421d6d4" y="123.351232814"/>
      </g>
     </g>
     <g id="line2d_21">
      <g>
       <use style="stroke:#000000;stroke-width:0.5;" x="310.5" xlink:href="#mcb0005524f" y="123.351232814"/>
      </g>
     </g>
     <g id="text_8">
      <!-- $1$ -->
      <defs>
       <path d="
M26.5938 63.3125
C26.5938 65.4062 26.5 65.5 25.0938 65.5
C21.2031 61.1875 15.2969 59.7969 9.70312 59.7969
C9.40625 59.7969 8.90625 59.7969 8.79688 59.6094
C8.70312 59.3906 8.70312 59.1719 8.70312 57
C11.7969 57 17 57.5938 21 59.9844
L21 7.20312
C21 3.6875 20.7969 2.5 12.2031 2.5
L9.20312 2.5
L9.20312 0
C14 0 19 0 23.7969 0
C28.5938 0 33.5938 0 38.4062 0
L38.4062 2.5
L35.4062 2.5
C26.7969 2.5 26.5938 3.59375 26.5938 7.15625
z
" id="CMR17-49"/>
      </defs>
      <g transform="translate(25.5186647484 125.841892839)scale(0.1 -0.1)">
       <use transform="scale(0.996264009963)" xlink:href="#CMR17-49"/>
      </g>
     </g>
    </g>
    <g id="ytick_3">
     <g id="line2d_22">
      <g>
       <use style="stroke:#000000;stroke-width:0.5;" x="34.5" xlink:href="#m728421d6d4" y="96.793120431"/>
      </g>
     </g>
     <g id="line2d_23">
      <g>
       <use style="stroke:#000000;stroke-width:0.5;" x="310.5" xlink:href="#mcb0005524f" y="96.793120431"/>
      </g>
     </g>
     <g id="text_9">
      <!-- $2$ -->
      <g transform="translate(25.5186647484 99.2837804559)scale(0.1 -0.1)">
       <use transform="scale(0.996264009963)" xlink:href="#CMR17-50"/>
      </g>
     </g>
    </g>
    <g id="ytick_4">
     <g id="line2d_24">
      <g>
       <use style="stroke:#000000;stroke-width:0.5;" x="34.5" xlink:href="#m728421d6d4" y="70.2350080483"/>
      </g>
     </g>
     <g id="line2d_25">
      <g>
       <use style="stroke:#000000;stroke-width:0.5;" x="310.5" xlink:href="#mcb0005524f" y="70.2350080483"/>
      </g>
     </g>
     <g id="text_10">
      <!-- $3$ -->
      <defs>
       <path d="
M22.0938 33.7031
C31 33.7031 34.9062 25.9688 34.9062 17.0312
C34.9062 5 28.5 0.390625 22.7031 0.390625
C17.4062 0.390625 8.79688 3.03125 6.09375 10.8281
C6.59375 10.625 7.09375 10.625 7.59375 10.625
C10 10.625 11.7969 12.2188 11.7969 14.8125
C11.7969 17.7031 9.59375 19 7.59375 19
C5.90625 19 3.29688 18.2031 3.29688 14.4688
C3.29688 5.23438 12.2969 -2 22.9062 -2
C34 -2 42.5 6.71875 42.5 16.9531
C42.5 26.6719 34.5 33.6875 25 34.7969
C32.5938 36.375 39.9062 43.0625 39.9062 52.0156
C39.9062 59.6875 32 65.2969 23 65.2969
C13.9062 65.2969 5.90625 59.8281 5.90625 52.0156
C5.90625 48.5938 8.5 48 9.79688 48
C11.9062 48 13.7031 49.2969 13.7031 51.8906
C13.7031 54.4688 11.9062 55.7656 9.79688 55.7656
C9.40625 55.7656 8.90625 55.7656 8.5 55.5625
C11.4062 61.8594 19.2969 63 22.7969 63
C26.2969 63 32.9062 61.3281 32.9062 51.875
C32.9062 49.1094 32.5 44.1875 29.0938 39.8438
C26.0938 36 22.7031 36 19.4062 35.5938
C18.9062 35.5938 16.5938 35.5938 16.2031 35.5938
C15.5 35.4844 15.0938 35.3906 15.0938 34.5938
C15.0938 33.8125 15.2031 33.7031 17.2031 33.7031
z
" id="CMR17-51"/>
      </defs>
      <g transform="translate(25.5186647484 72.7256680732)scale(0.1 -0.1)">
       <use transform="scale(0.996264009963)" xlink:href="#CMR17-51"/>
      </g>
     </g>
    </g>
    <g id="ytick_5">
     <g id="line2d_26">
      <g>
       <use style="stroke:#000000;stroke-width:0.5;" x="34.5" xlink:href="#m728421d6d4" y="43.6768956656"/>
      </g>
     </g>
     <g id="line2d_27">
      <g>
       <use style="stroke:#000000;stroke-width:0.5;" x="310.5" xlink:href="#mcb0005524f" y="43.6768956656"/>
      </g>
     </g>
     <g id="text_11">
      <!-- $4$ -->
      <defs>
       <path d="
M33.5938 64.3281
C33.5938 66.4062 33.5 66.5 31.7031 66.5
L2 19.5938
L2 17
L27.7969 17
L27.7969 7.14062
C27.7969 3.5 27.5938 2.5 20.5938 2.5
L18.7031 2.5
L18.7031 0
C21.9062 0 27.2969 0 30.7031 0
C34.0938 0 39.5 0 42.7031 0
L42.7031 2.5
L40.7969 2.5
C33.7969 2.5 33.5938 3.5 33.5938 7.14062
L33.5938 17
L43.7969 17
L43.7969 19.5938
L33.5938 19.5938
z

M28.0938 57.7656
L28.0938 19.5938
L4 19.5938
z
" id="CMR17-52"/>
      </defs>
      <g transform="translate(25.5186647484 46.1675556905)scale(0.1 -0.1)">
       <use transform="scale(0.996264009963)" xlink:href="#CMR17-52"/>
      </g>
     </g>
    </g>
    <g id="ytick_6">
     <g id="line2d_28">
      <g>
       <use style="stroke:#000000;stroke-width:0.5;" x="34.5" xlink:href="#m728421d6d4" y="17.1187832828"/>
      </g>
     </g>
     <g id="line2d_29">
      <g>
       <use style="stroke:#000000;stroke-width:0.5;" x="310.5" xlink:href="#mcb0005524f" y="17.1187832828"/>
      </g>
     </g>
     <g id="text_12">
      <!-- $5$ -->
      <defs>
       <path d="
M11.4062 57.6875
C12.4062 57.2812 16.5 56 20.7031 56
C30 56 35.0938 61.0156 38 63.9219
C38 64.7344 38 65.25 37.4062 65.25
C37.2969 65.25 37.0938 65.25 36.2969 64.8281
C32.7969 63.3125 28.7031 62.0781 23.7031 62.0781
C20.7031 62.0781 16.2031 62.5 11.2969 64.7344
C10.2031 65.25 10 65.25 9.90625 65.25
C9.40625 65.25 9.29688 65.1406 9.29688 63.1562
L9.29688 34.2812
C9.29688 32.5 9.29688 32 10.2969 32
C10.7969 32 11 32.2031 11.5 32.9062
C14.7031 37.4844 19.0938 39.4062 24.0938 39.4062
C27.5938 39.4062 35.0938 37.2188 35.0938 20.1406
C35.0938 16.9531 35.0938 11.1719 32.0938 6.57812
C29.5938 2.48438 25.7031 0.390625 21.4062 0.390625
C14.7969 0.390625 8.09375 5 6.29688 12.7188
C6.70312 12.6094 7.5 12.4219 7.90625 12.4219
C9.20312 12.4219 11.7031 13.125 11.7031 16.2188
C11.7031 18.9062 9.79688 20 7.90625 20
C5.59375 20 4.09375 18.5938 4.09375 15.7969
C4.09375 7.09375 11 -2 21.5938 -2
C31.9062 -2 41.7031 6.875 41.7031 19.75
C41.7031 31.7188 33.9062 41 24.2031 41
C19.0938 41 14.7969 39.0938 11.4062 35.4531
z
" id="CMR17-53"/>
      </defs>
      <g transform="translate(25.5186647484 19.6094433077)scale(0.1 -0.1)">
       <use transform="scale(0.996264009963)" xlink:href="#CMR17-53"/>
      </g>
     </g>
    </g>
   </g>
   <g id="patch_3">
    <path d="
M34.5 3.83973
L310.5 3.83973" style="fill:none;stroke:#000000;"/>
   </g>
   <g id="patch_4">
    <path d="
M310.5 163.188
L310.5 3.83973" style="fill:none;stroke:#000000;"/>
   </g>
   <g id="patch_5">
    <path d="
M34.5 163.188
L310.5 163.188" style="fill:none;stroke:#000000;"/>
   </g>
   <g id="patch_6">
    <path d="
M34.5 163.188
L34.5 3.83973" style="fill:none;stroke:#000000;"/>
   </g>
   <g id="text_13">
    <!-- $\displaystyle P(r e^{i \theta}) = \frac{1-r^2}{1 - 2r\cos \theta + r^2}$ -->
    <defs>
     <path d="
M30.9062 42.1094
C30.9062 43.9062 30.7969 44 30.2031 44
C29.7969 44 29.7031 43.9062 28.5 42.4219
C28.2031 42.0156 27.2969 41.0156 27 40.625
C23.7969 44 19.2969 44 17.5938 44
C6.5 44 2.5 38.1719 2.5 32.375
C2.5 23.3438 12.7031 21.25 15.5938 20.6406
C21.9062 19.3438 24.0938 18.9375 26.2031 17.125
C27.5 15.9375 29.7031 13.7344 29.7031 10.125
C29.7031 5.90625 27.2969 0.5 18.0938 0.5
C9.40625 0.5 6.29688 7.0625 4.5 15.8281
C4.20312 17.2188 4.20312 17.3281 3.40625 17.3281
C2.59375 17.3281 2.5 17.2188 2.5 15.2344
L2.5 0.890625
C2.5 -0.890625 2.59375 -1 3.20312 -1
C3.70312 -1 3.79688 -0.890625 4.29688 -0.09375
C4.90625 0.796875 6.40625 3.1875 7 4.1875
C9 1.54688 12.5 -1 18.0938 -1
C28 -1 33.2969 4.40625 33.2969 12.2344
C33.2969 17.3438 30.5938 20.0625 29.2969 21.25
C26.2969 24.375 22.7969 25.0625 18.5938 25.8594
C13.0938 27.0781 6.09375 28.4688 6.09375 34.5938
C6.09375 37.1875 7.5 42.7188 17.5938 42.7188
C28.2969 42.7188 28.9062 32.75 29.0938 29.5625
C29.2031 29.0781 29.7031 28.9688 30 28.9688
C30.9062 28.9688 30.9062 29.2812 30.9062 30.9688
z
" id="CMR17-115"/>
     <path d="
M29.5938 31.6094
L46.4062 31.6094
C60.2031 31.6094 74 41.7656 74 53.1406
C74 60.9062 67.4062 68 54.7969 68
L23.9062 68
C22 68 21.0938 68 21.0938 66.1094
C21.0938 65.1094 22 65.1094 23.5 65.1094
C29.5938 65.1094 29.5938 64.3125 29.5938 63.2031
C29.5938 63.0156 29.5938 62.4062 29.2031 60.9219
L15.7031 7.375
C14.7969 3.89062 14.5938 2.89062 7.59375 2.89062
C5.70312 2.89062 4.70312 2.89062 4.70312 1.09375
C4.70312 0 5.59375 0 6.20312 0
C8.09375 0 10.0938 0 12 0
L23.7031 0
C25.5938 0 27.7031 0 29.5938 0
C30.4062 0 31.5 0 31.5 1.89062
C31.5 2.89062 30.5938 2.89062 29.0938 2.89062
C23.0938 2.89062 23 3.59375 23 4.59375
C23 5.07812 23.0938 5.76562 23.2031 6.26562
z

M36.7969 61.2188
C37.7031 64.9062 38.0938 65.1094 42 65.1094
L51.9062 65.1094
C59.4062 65.1094 65.5938 62.7031 65.5938 55.2344
C65.5938 52.6406 64.2969 44.1719 59.7031 39.5938
C58 37.7969 53.2031 34 44.0938 34
L30 34
z
" id="CMMI12-80"/>
     <path d="
M17.9062 23.1094
C20.5938 23.1094 27.4062 23.1094 32.2031 24.9219
C39.7969 27.8594 40.5 33.7188 40.5 35.5312
C40.5 39.9688 36.7031 44 30.0938 44
C19.5938 44 4.5 34.5312 4.5 16.7656
C4.5 6.28125 10.5 -1 19.5938 -1
C33.2031 -1 41.7969 9.53125 41.7969 10.8125
C41.7969 11.4062 41.2031 11.9062 40.7969 11.9062
C40.5 11.9062 40.4062 11.8125 39.5 10.9219
C33.0938 2.48438 23.5938 1 19.7969 1
C14.0938 1 11.0938 5.46875 11.0938 12.8438
C11.0938 14.2344 11.0938 16.7344 12.5938 23.1094
z

M13.0938 25
C17.4062 40.5 26.9062 42.0156 30.0938 42.0156
C34.5 42.0156 37.5 39.4062 37.5 35.5781
C37.5 25 21.5 25 17.2969 25
z
" id="CMMI12-101"/>
     <path d="
M28.2969 14.2656
C28.2969 14.7656 27.9062 15.1719 27.2969 15.1719
C26.4062 15.1719 26.2969 14.875 25.7969 13.1719
C23.2031 4.09375 19.0938 1 15.7969 1
C14.5938 1 13.2031 1.29688 13.2031 4.29688
C13.2031 6.98438 14.4062 9.98438 15.5 12.9688
L22.5 31.5312
C22.7969 32.3281 23.5 34.125 23.5 36.0156
C23.5 40.2188 20.5 44 15.5938 44
C6.40625 44 2.70312 29.5312 2.70312 28.7344
C2.70312 28.3438 3.09375 27.8438 3.79688 27.8438
C4.70312 27.8438 4.79688 28.2344 5.20312 29.625
C7.59375 37.9375 11.4062 41.9062 15.2969 41.9062
C16.2031 41.9062 17.9062 41.9062 17.9062 38.7188
C17.9062 36.125 16.5938 32.8281 15.7969 30.6406
L8.79688 12.0781
C8.20312 10.4844 7.59375 8.875 7.59375 7.07812
C7.59375 2.59375 10.7031 -1 15.5 -1
C24.7031 -1 28.2969 13.5781 28.2969 14.2656
M27.5 62.7031
C27.5 64.2031 26.2969 66 24.0938 66
C21.7969 66 19.2031 63.7969 19.2031 61.2031
C19.2031 58.7188 21.2969 57.9219 22.5 57.9219
C25.2031 57.9219 27.5 60.5156 27.5 62.7031" id="CMMI12-105"/>
     <path d="
M38.9062 40.8125
C35.7969 40.2188 34.2031 38.0156 34.2031 35.8281
C34.2031 33.4219 36.0938 32.625 37.5 32.625
C40.2969 32.625 42.5938 35.0312 42.5938 38.0156
C42.5938 41.2188 39.5 44 34.5 44
C30.5 44 25.9062 42.2031 21.7031 36.125
C21 41.4062 17 44 13 44
C9.09375 44 7.09375 41.0156 5.90625 38.8125
C4.20312 35.2188 2.70312 29.2344 2.70312 28.7344
C2.70312 28.3438 3.09375 27.8438 3.79688 27.8438
C4.59375 27.8438 4.70312 27.9375 5.29688 30.2344
C6.79688 36.2188 8.70312 42.0156 12.7031 42.0156
C15.0938 42.0156 15.7969 40.3125 15.7969 37.4219
C15.7969 35.2188 14.7969 31.3281 14.0938 28.2344
L11.2969 17.4688
C10.9062 15.5625 9.79688 11.0781 9.29688 9.28125
C8.59375 6.6875 7.5 2 7.5 1.5
C7.5 0.09375 8.59375 -1 10.0938 -1
C11.2031 -1 13.0938 -0.296875 13.7031 1.70312
C14 2.5 17.7031 17.5625 18.2969 19.8594
C18.7969 22.0469 19.4062 24.1562 19.9062 26.3438
C20.2969 27.7344 20.7031 29.3438 21 30.6406
C21.2969 31.5312 24 36.4219 26.5 38.625
C27.7031 39.7188 30.2969 42.0156 34.4062 42.0156
C36 42.0156 37.5938 41.7188 38.9062 40.8125" id="CMMI12-114"/>
     <path d="
M34.9062 35
C33 35 30.2031 35 30.2031 31.5156
C30.2031 28.7188 32.5 27.9219 33.7969 27.9219
C34.5 27.9219 37.4062 28.2344 37.4062 31.625
C37.4062 38.5469 30.5938 43.7969 22.9062 43.7969
C12.2969 43.7969 3.29688 34.0312 3.29688 21.2969
C3.29688 8.0625 12.7031 -1 22.9062 -1
C35.2969 -1 38.4062 10.5938 38.4062 11.6875
C38.4062 12.0938 38.2969 12.3906 37.5938 12.3906
C36.9062 12.3906 36.7969 12.2969 36.4062 10.9844
C33.7969 2.8125 28.0938 0.796875 23.7969 0.796875
C17.4062 0.796875 9.70312 6.67188 9.70312 21.3906
C9.70312 36.5312 17.0938 42 23 42
C26.9062 42 32.7031 40.2031 34.9062 35" id="CMR17-99"/>
     <path d="
M37.7031 23.5156
L64.2031 23.5156
C65.5938 23.5156 67.2969 23.5156 67.2969 25.2031
C67.2969 27 65.7031 27 64.2031 27
L37.7031 27
L37.7031 53.3281
C37.7031 54.7188 37.7031 56.4219 36 56.4219
C34.2031 56.4219 34.2031 54.8281 34.2031 53.3281
L34.2031 27
L7.70312 27
C6.29688 27 4.59375 27 4.59375 25.3125
C4.59375 23.5156 6.20312 23.5156 7.70312 23.5156
L34.2031 23.5156
L34.2031 -2.90625
C34.2031 -4.29688 34.2031 -6 35.9062 -6
C37.7031 -6 37.7031 -4.40625 37.7031 -2.90625
z
" id="CMR17-43"/>
     <path d="
M64.2969 31.5156
C65.7969 31.5156 67.2969 31.5156 67.2969 33.2031
C67.2969 35 65.5938 35 63.9062 35
L8 35
C6.29688 35 4.59375 35 4.59375 33.2031
C4.59375 31.5156 6.09375 31.5156 7.59375 31.5156
z

M63.9062 14
C65.5938 14 67.2969 14 67.2969 15.7969
C67.2969 17.4844 65.7969 17.4844 64.2969 17.4844
L7.59375 17.4844
C6.09375 17.4844 4.59375 17.4844 4.59375 15.7969
C4.59375 14 6.29688 14 8 14
z
" id="CMR17-61"/>
     <path d="
M26.2969 24.6719
C26.2969 31.8438 25.5938 43.9844 19.5938 56.8281
C14.7969 67.1875 6.59375 74.4531 5.40625 74.4531
C5.09375 74.4531 4.70312 74.3438 4.70312 73.8594
C4.70312 73.6719 4.79688 73.5625 4.90625 73.3594
C9.70312 68.3906 21.9062 55.75 21.9062 24.7969
C21.9062 -6.28125 9.79688 -18.9219 4.90625 -23.9062
C4.79688 -24.0938 4.70312 -24.2031 4.70312 -24.3906
C4.70312 -24.8906 5.09375 -25 5.40625 -25
C6.5 -25 15 -17.625 19.9062 -6.67188
C24.9062 4.375 26.2969 15.125 26.2969 24.6719" id="CMR17-41"/>
     <path d="
M30.5938 -24.4062
C30.5938 -24.3125 30.5938 -24.1094 30.2969 -23.8125
C25.7031 -19.1406 13.4062 -6.39062 13.4062 24.6719
C13.4062 55.75 25.5 68.3906 30.4062 73.3594
C30.4062 73.4688 30.5938 73.6719 30.5938 73.9531
C30.5938 74.25 30.2969 74.4531 29.9062 74.4531
C28.7969 74.4531 20.2969 67.0781 15.4062 56.125
C10.4062 45.0781 9 34.3281 9 24.7812
C9 17.6094 9.70312 5.46875 15.7031 -7.375
C20.5 -17.7344 28.7031 -25 29.9062 -25
C30.4062 -25 30.5938 -24.7969 30.5938 -24.4062" id="CMR17-40"/>
     <path d="
M43.0938 21.1875
C43.0938 34 33.7969 44 22.9062 44
C12 44 2.70312 34 2.70312 21.1875
C2.70312 8.60938 12 -1 22.9062 -1
C33.7969 -1 43.0938 8.60938 43.0938 21.1875
M22.9062 0.796875
C18.2031 0.796875 14.2031 3.59375 11.9062 7.5
C9.40625 11.9844 9.09375 17.5938 9.09375 22
C9.09375 26.2031 9.29688 31.4062 11.9062 35.9062
C13.9062 39.2031 17.7969 42.4062 22.9062 42.4062
C27.4062 42.4062 31.2031 39.9062 33.5938 36.4062
C36.7031 31.7031 36.7031 25.1094 36.7031 22
C36.7031 18.0938 36.5 12.1094 33.7969 7.29688
C31 2.70312 26.7031 0.796875 22.9062 0.796875" id="CMR17-111"/>
    </defs>
    <g transform="translate(40.7197071199 30.3978394742)scale(0.1 -0.1)">
     <use transform="translate(0.0 68.338837392)scale(0.996264009963)" xlink:href="#CMMI12-80"/>
     <use transform="translate(76.4258207746 68.338837392)scale(0.996264009963)" xlink:href="#CMR17-40"/>
     <use transform="translate(111.706588574 68.338837392)scale(0.996264009963)" xlink:href="#CMMI12-114"/>
     <use transform="translate(158.37720061 68.338837392)scale(0.996264009963)" xlink:href="#CMMI12-101"/>
     <use transform="translate(203.589201627 109.473811585)scale(0.697381766617)" xlink:href="#CMMI12-105"/>
     <use transform="translate(226.884108908 109.473811585)scale(0.697381766617)" xlink:href="#CMMI12-18"/>
     <use transform="translate(261.100736739 68.338837392)scale(0.996264009963)" xlink:href="#CMR17-41"/>
     <use transform="translate(324.055513261 68.338837392)scale(0.996264009963)" xlink:href="#CMR17-61"/>
     <use transform="translate(630.494866662 135.736882078)scale(0.996264009963)" xlink:href="#CMR17-49"/>
     <use transform="translate(698.324550757 135.736882078)scale(0.996264009963)" xlink:href="#CMSY10-0"/>
     <use transform="translate(797.951225385 135.736882078)scale(0.996264009963)" xlink:href="#CMMI12-114"/>
     <use transform="translate(844.621837421 171.89052102)scale(0.697381766617)" xlink:href="#CMR17-50"/>
     <use transform="translate(424.63982417 0.0)scale(0.996264009963)" xlink:href="#CMR17-49"/>
     <use transform="translate(492.469508265 0.0)scale(0.996264009963)" xlink:href="#CMSY10-0"/>
     <use transform="translate(592.096182893 0.0)scale(0.996264009963)" xlink:href="#CMR17-50"/>
     <use transform="translate(637.78666001 0.0)scale(0.996264009963)" xlink:href="#CMMI12-114"/>
     <use transform="translate(701.06167728 0.0)scale(0.996264009963)" xlink:href="#CMR17-99"/>
     <use transform="translate(741.547337742 0.0)scale(0.996264009963)" xlink:href="#CMR17-111"/>
     <use transform="translate(787.237814859 0.0)scale(0.996264009963)" xlink:href="#CMR17-115"/>
     <use transform="translate(839.643557728 0.0)scale(0.996264009963)" xlink:href="#CMMI12-18"/>
     <use transform="translate(909.952272484 0.0)scale(0.996264009963)" xlink:href="#CMR17-43"/>
     <use transform="translate(1003.80626788 0.0)scale(0.996264009963)" xlink:href="#CMMI12-114"/>
     <use transform="translate(1050.47687991 28.7809569096)scale(0.697381766617)" xlink:href="#CMR17-50"/>
     <path d="
M424.64 91.253
L1082.96 91.253
L1082.96 95.2379
L424.64 95.2379
L424.64 91.253
z
"/>
    </g>
   </g>
   <g id="legend_1">
    <g id="patch_7">
     <path d="
M236.501 85.6275
L305.5 85.6275
L305.5 8.83973
L236.501 8.83973
L236.501 85.6275
z
" style="fill:#ffffff;stroke:#000000;"/>
    </g>
    <g id="line2d_30">
     <path d="
M243.501 16.3397
L257.501 16.3397" style="fill:none;stroke:#bfbfbf;stroke-linecap:square;"/>
    </g>
    <g id="line2d_31"/>
    <g id="text_14">
     <!-- $r=0$ -->
     <g transform="translate(268.501110946 19.8397270915)scale(0.1 -0.1)">
      <use transform="scale(0.996264009963)" xlink:href="#CMMI12-114"/>
      <use transform="translate(74.3446207581 0.0)scale(0.996264009963)" xlink:href="#CMR17-61"/>
      <use transform="translate(173.733417896 0.0)scale(0.996264009963)" xlink:href="#CMR17-48"/>
     </g>
    </g>
    <g id="line2d_32">
     <path d="
M243.501 30.7489
L257.501 30.7489" style="fill:none;stroke:#9f9f9f;stroke-linecap:square;"/>
    </g>
    <g id="line2d_33"/>
    <g id="text_15">
     <!-- $r=1/5$ -->
     <g transform="translate(268.501110946 34.2488854965)scale(0.1 -0.1)">
      <use transform="scale(0.996264009963)" xlink:href="#CMMI12-114"/>
      <use transform="translate(74.3446207581 0.0)scale(0.996264009963)" xlink:href="#CMR17-61"/>
      <use transform="translate(173.733417896 0.0)scale(0.996264009963)" xlink:href="#CMR17-49"/>
      <use transform="translate(219.423895013 0.0)scale(0.996264009963)" xlink:href="#CMMI12-61"/>
      <use transform="translate(268.198813775 0.0)scale(0.996264009963)" xlink:href="#CMR17-53"/>
     </g>
    </g>
    <g id="line2d_34">
     <path d="
M243.501 45.7115
L257.501 45.7115" style="fill:none;stroke:#808080;stroke-linecap:square;"/>
    </g>
    <g id="line2d_35"/>
    <g id="text_16">
     <!-- $r=1/3$ -->
     <g transform="translate(268.501110946 49.2115255961)scale(0.1 -0.1)">
      <use transform="scale(0.996264009963)" xlink:href="#CMMI12-114"/>
      <use transform="translate(74.3446207581 0.0)scale(0.996264009963)" xlink:href="#CMR17-61"/>
      <use transform="translate(173.733417896 0.0)scale(0.996264009963)" xlink:href="#CMR17-49"/>
      <use transform="translate(219.423895013 0.0)scale(0.996264009963)" xlink:href="#CMMI12-61"/>
      <use transform="translate(268.198813775 0.0)scale(0.996264009963)" xlink:href="#CMR17-51"/>
     </g>
    </g>
    <g id="line2d_36">
     <path d="
M243.501 60.6742
L257.501 60.6742" style="fill:none;stroke:#404040;stroke-linecap:square;"/>
    </g>
    <g id="line2d_37"/>
    <g id="text_17">
     <!-- $r=1/2$ -->
     <g transform="translate(268.501110946 64.1741656957)scale(0.1 -0.1)">
      <use transform="scale(0.996264009963)" xlink:href="#CMMI12-114"/>
      <use transform="translate(74.3446207581 0.0)scale(0.996264009963)" xlink:href="#CMR17-61"/>
      <use transform="translate(173.733417896 0.0)scale(0.996264009963)" xlink:href="#CMR17-49"/>
      <use transform="translate(219.423895013 0.0)scale(0.996264009963)" xlink:href="#CMMI12-61"/>
      <use transform="translate(268.198813775 0.0)scale(0.996264009963)" xlink:href="#CMR17-50"/>
     </g>
    </g>
    <g id="line2d_38">
     <path d="
M243.501 75.6368
L257.501 75.6368" style="fill:none;stroke:#000000;stroke-linecap:square;"/>
    </g>
    <g id="line2d_39"/>
    <g id="text_18">
     <!-- $r=2/3$ -->
     <g transform="translate(268.501110946 79.1368057954)scale(0.1 -0.1)">
      <use transform="scale(0.996264009963)" xlink:href="#CMMI12-114"/>
      <use transform="translate(74.3446207581 0.0)scale(0.996264009963)" xlink:href="#CMR17-61"/>
      <use transform="translate(173.733417896 0.0)scale(0.996264009963)" xlink:href="#CMR17-50"/>
      <use transform="translate(219.423895013 0.0)scale(0.996264009963)" xlink:href="#CMMI12-61"/>
      <use transform="translate(268.198813775 0.0)scale(0.996264009963)" xlink:href="#CMR17-51"/>
     </g>
    </g>
   </g>
  </g>
 </g>
 <defs>
  <clipPath id="p23c68c79de">
   <rect height="159.348674296" width="276.0" x="34.5" y="3.83972709148"/>
  </clipPath>
 </defs>
</svg>
