<?xml version="1.0" encoding="utf-8" standalone="no"?>
<!DOCTYPE svg PUBLIC "-//W3C//DTD SVG 1.1//EN"
  "http://www.w3.org/Graphics/SVG/1.1/DTD/svg11.dtd">
<!-- Created with matplotlib (http://matplotlib.org/) -->
<svg height="213.226205pt" version="1.1" viewBox="0 0 345 213.226205" width="345pt" xmlns="http://www.w3.org/2000/svg" xmlns:xlink="http://www.w3.org/1999/xlink">
 <defs>
  <style type="text/css">
*{stroke-linecap:butt;stroke-linejoin:round;}
  </style>
 </defs>
 <g id="figure_1">
  <g id="patch_1">
   <path d="M 0 213.226205 
L 345 213.226205 
L 345 0 
L 0 0 
z
" style="fill:#ffffff;"/>
  </g>
  <g id="axes_1">
   <g id="patch_2">
    <path d="M 34.5 191.903585 
L 310.5 191.903585 
L 310.5 21.322621 
L 34.5 21.322621 
z
" style="fill:#ffffff;"/>
   </g>
   <g id="patch_3">
    <path clip-path="url(#p83bb78b7bc)" d="M 250.036802 106.613103 
L 249.912863 102.230836 
L 249.541443 97.862579 
L 248.92373 93.522297 
L 248.061697 89.223865 
L 246.958101 84.981024 
L 245.61647 80.80734 
L 244.041093 76.716153 
L 242.237007 72.720544 
L 240.209978 68.833286 
L 237.966487 65.066807 
L 235.513706 61.433146 
L 232.859477 57.943922 
L 230.012285 54.610288 
L 226.981232 51.442902 
L 223.776007 48.451889 
L 220.406858 45.646812 
L 216.884556 43.036638 
L 213.220361 40.629712 
L 209.425987 38.433728 
L 205.513565 36.455707 
L 201.495601 34.701971 
L 197.384941 33.178129 
L 193.194727 31.889051 
L 188.938353 30.838858 
L 184.629428 30.030907 
L 180.281726 29.467783 
L 175.909147 29.151284 
L 171.525669 29.082423 
L 167.145306 29.261419 
L 162.782062 29.687702 
L 158.449885 30.359907 
L 154.162624 31.275885 
L 149.933986 32.43271 
L 145.77749 33.826681 
L 141.706423 35.453344 
L 137.733799 37.307497 
L 133.87232 39.383213 
L 130.13433 41.673857 
L 126.531778 44.172105 
L 123.076182 46.86997 
L 119.77859 49.758828 
L 116.649542 52.829444 
L 113.699042 56.072 
L 110.936524 59.476132 
L 108.370817 63.030955 
L 106.010126 66.725106 
L 103.861995 70.546776 
L 101.933294 74.483745 
L 100.230187 78.523429 
L 98.758119 82.652913 
L 97.521797 86.858995 
L 96.525173 91.128229 
L 95.771433 95.446967 
L 95.262986 99.801402 
L 95.001458 104.177613 
L 94.987685 108.56161 
L 95.221711 112.939378 
L 95.702789 117.296921 
L 96.429379 121.620309 
L 97.399159 125.895721 
L 98.60903 130.109488 
L 100.055122 134.24814 
L 101.732813 138.298445 
L 103.63674 142.247455 
L 105.760816 146.082546 
L 108.09825 149.791457 
L 110.641571 153.362331 
L 113.382646 156.783752 
L 116.312714 160.044783 
L 119.422407 163.134999 
L 122.701783 166.044519 
L 126.14036 168.764043 
L 129.727143 171.284877 
L 133.450668 173.598961 
L 137.299029 175.698899 
L 141.259924 177.577976 
L 145.32069 179.230186 
L 149.468346 180.650246 
L 153.689632 181.833616 
L 157.971052 182.776515 
L 162.29892 183.475926 
L 166.6594 183.929615 
L 171.038552 184.13613 
L 175.422376 184.094812 
L 179.796858 183.805793 
L 184.148012 183.269997 
L 188.461928 182.489136 
L 192.724816 181.465707 
L 196.923047 180.202982 
L 201.043201 178.704998 
L 205.072104 176.976543 
L 208.996878 175.023143 
L 212.804974 172.851043 
L 216.48422 170.467186 
L 220.022853 167.879195 
L 223.40956 165.095342 
L 226.633514 162.124528 
L 229.684408 158.976249 
L 232.55249 155.66057 
L 235.22859 152.188091 
L 237.704153 148.569914 
L 239.971265 144.817605 
L 242.022678 140.94316 
L 243.851834 136.958965 
L 245.452886 132.877758 
L 246.820714 128.712585 
L 247.950946 124.476762 
L 248.83997 120.183831 
L 249.484942 115.847516 
L 249.883801 111.481679 
L 250.035271 107.100277 
L 250.036802 106.613103 
L 250.036802 106.613103 
" style="fill:none;stroke:#000000;stroke-linejoin:miter;"/>
   </g>
   <g id="patch_4">
    <path clip-path="url(#p83bb78b7bc)" d="M 175.213787 27.176648 
L 169.786212 29.076302 
L 175.213789 30.975952 
z
"/>
   </g>
   <g id="patch_5">
    <path clip-path="url(#p83bb78b7bc)" d="M 169.786213 186.049557 
L 175.213788 184.149904 
L 169.786211 182.250254 
z
"/>
   </g>
   <g id="patch_6">
    <path clip-path="url(#p83bb78b7bc)" d="M 237.114002 106.613103 
L 237.012001 103.367385 
L 236.706401 100.134477 
L 236.198408 96.927137 
L 235.490027 93.758024 
L 234.584054 90.639643 
L 233.484064 87.584302 
L 232.194398 84.60406 
L 230.720145 81.710676 
L 229.067125 78.915572 
L 227.241861 76.229777 
L 225.251555 73.663891 
L 223.104064 71.22804 
L 220.807863 68.931839 
L 218.372012 66.784347 
L 215.806126 64.794042 
L 213.120331 62.968778 
L 210.325226 61.315758 
L 207.431843 59.841505 
L 204.451601 58.551839 
L 201.39626 57.451849 
L 198.277879 56.545875 
L 195.108766 55.837495 
L 191.901426 55.329502 
L 188.668518 55.023902 
L 185.4228 54.921901 
L 182.177083 55.023902 
L 178.944175 55.329502 
L 175.736835 55.837495 
L 172.567721 56.545875 
L 169.449341 57.451849 
L 166.394 58.551839 
L 163.413757 59.841505 
L 160.520374 61.315758 
L 157.72527 62.968778 
L 155.039475 64.794042 
L 152.473589 66.784347 
L 150.037738 68.931839 
L 147.741536 71.22804 
L 145.594045 73.663891 
L 143.60374 76.229777 
L 141.778476 78.915572 
L 140.125455 81.710676 
L 138.651203 84.60406 
L 137.361537 87.584302 
L 136.261547 90.639643 
L 135.355573 93.758024 
L 134.647192 96.927137 
L 134.1392 100.134477 
L 133.8336 103.367385 
L 133.731599 106.613103 
L 133.8336 109.85882 
L 134.1392 113.091728 
L 134.647192 116.299068 
L 135.355573 119.468182 
L 136.261547 122.586562 
L 137.361537 125.641903 
L 138.651203 128.622146 
L 140.125455 131.515529 
L 141.778476 134.310633 
L 143.60374 136.996428 
L 145.594045 139.562314 
L 147.741536 141.998165 
L 150.037738 144.294367 
L 152.473589 146.441858 
L 155.039475 148.432163 
L 157.72527 150.257427 
L 160.520374 151.910448 
L 163.413757 153.3847 
L 166.394 154.674366 
L 169.449341 155.774356 
L 172.567721 156.68033 
L 175.736835 157.388711 
L 178.944175 157.896703 
L 182.177083 158.202303 
L 185.4228 158.304304 
L 188.668518 158.202303 
L 191.901426 157.896703 
L 195.108766 157.388711 
L 198.277879 156.68033 
L 201.39626 155.774356 
L 204.451601 154.674366 
L 207.431843 153.3847 
L 210.325226 151.910448 
L 213.120331 150.257427 
L 215.806126 148.432163 
L 218.372012 146.441858 
L 220.807863 144.294367 
L 223.104064 141.998165 
L 225.251555 139.562314 
L 227.241861 136.996428 
L 229.067125 134.310633 
L 230.720145 131.515529 
L 232.194398 128.622146 
L 233.484064 125.641903 
L 234.584054 122.586562 
L 235.490027 119.468182 
L 236.198408 116.299068 
L 236.706401 113.091728 
L 237.012001 109.85882 
L 237.114002 106.613103 
L 237.114002 106.613103 
" style="fill:none;stroke:#000000;stroke-dasharray:5,1;stroke-dashoffset:0;stroke-linejoin:miter;"/>
   </g>
   <g id="patch_7">
    <path clip-path="url(#p83bb78b7bc)" d="M 188.136588 53.022249 
L 182.709012 54.921902 
L 188.136589 56.821552 
z
"/>
   </g>
   <g id="patch_8">
    <path clip-path="url(#p83bb78b7bc)" d="M 182.709013 160.203956 
L 188.136588 158.304303 
L 182.709012 156.404653 
z
"/>
   </g>
   <g id="patch_9">
    <path clip-path="url(#p83bb78b7bc)" d="M 224.191201 106.613103 
L 224.076498 104.180817 
L 223.733405 101.77012 
L 223.164968 99.40241 
L 222.376232 97.098702 
L 221.374199 94.879445 
L 220.167763 92.764337 
L 218.767632 90.772152 
L 217.186233 88.920571 
L 215.437603 87.226031 
L 213.537264 85.703572 
L 211.502082 84.366708 
L 209.350122 83.227304 
L 207.100486 82.295474 
L 204.77314 81.579489 
L 202.388743 81.085704 
L 199.968459 80.818502 
L 197.533771 80.780255 
L 195.106288 80.971302 
L 192.707558 81.389948 
L 190.358871 82.032476 
L 188.081075 82.893183 
L 185.894388 83.96443 
L 183.818218 85.236708 
L 181.870995 86.698725 
L 180.070001 88.337503 
L 178.431223 90.138497 
L 176.969206 92.08572 
L 175.696928 94.16189 
L 174.625681 96.348577 
L 173.764974 98.626373 
L 173.122446 100.975059 
L 172.7038 103.37379 
L 172.512753 105.801273 
L 172.551 108.235961 
L 172.818202 110.656245 
L 173.311987 113.040642 
L 174.027972 115.367988 
L 174.959802 117.617624 
L 176.099206 119.769584 
L 177.43607 121.804765 
L 178.958529 123.705105 
L 180.65307 125.453735 
L 182.50465 127.035133 
L 184.496835 128.435265 
L 186.611943 129.641701 
L 188.8312 130.643734 
L 191.134908 131.43247 
L 193.502618 132.000907 
L 195.913315 132.344 
L 198.345601 132.458703 
L 200.777887 132.344 
L 203.188583 132.000907 
L 205.556293 131.43247 
L 207.860001 130.643734 
L 210.079258 129.641701 
L 212.194366 128.435265 
L 214.186552 127.035133 
L 216.038132 125.453735 
L 217.732672 123.705105 
L 219.255131 121.804765 
L 220.591995 119.769584 
L 221.731399 117.617624 
L 222.663229 115.367988 
L 223.379214 113.040642 
L 223.872999 110.656245 
L 224.140201 108.235961 
L 224.191201 106.613103 
L 224.191201 106.613103 
" style="fill:none;stroke:#000000;stroke-dasharray:3,3;stroke-dashoffset:0;stroke-linejoin:miter;"/>
   </g>
   <g id="patch_10">
    <path clip-path="url(#p83bb78b7bc)" d="M 201.059388 78.867849 
L 195.631813 80.767503 
L 201.059389 82.667153 
z
"/>
   </g>
   <g id="patch_11">
    <path clip-path="url(#p83bb78b7bc)" d="M 195.631813 134.358356 
L 201.059389 132.458702 
L 195.631812 130.559052 
z
"/>
   </g>
   <g id="matplotlib.axis_1">
    <g id="xtick_1">
     <g id="line2d_1">
      <path clip-path="url(#p83bb78b7bc)" d="M 94.963198 191.903585 
L 94.963198 21.322621 
" style="fill:none;stroke:#b0b0b0;stroke-linecap:square;stroke-width:0.8;"/>
     </g>
     <g id="line2d_2">
      <defs>
       <path d="M 0 0 
L 0 3.5 
" id="mdb58a9b37b" style="stroke:#000000;stroke-width:0.8;"/>
      </defs>
      <g>
       <use style="stroke:#000000;stroke-width:0.8;" x="94.963198" xlink:href="#mdb58a9b37b" y="191.903585"/>
      </g>
     </g>
     <g id="text_1">
      <!-- $-1$ -->
      <defs>
       <path d="M 65.90625 23 
C 67.59375 23 69.40625 23 69.40625 25 
C 69.40625 27 67.59375 27 65.90625 27 
L 11.796875 27 
C 10.09375 27 8.296875 27 8.296875 25 
C 8.296875 23 10.09375 23 11.796875 23 
z
" id="CMSY10-0"/>
       <path d="M 26.59375 63.40625 
C 26.59375 65.5 26.5 65.5 25.09375 65.5 
C 21.203125 61.1875 15.296875 59.796875 9.703125 59.796875 
C 9.40625 59.796875 8.90625 59.796875 8.796875 59.5 
C 8.703125 59.296875 8.703125 59.09375 8.703125 57 
C 11.796875 57 17 57.59375 21 59.984375 
L 21 7.203125 
C 21 3.6875 20.796875 2.5 12.203125 2.5 
L 9.203125 2.5 
L 9.203125 0 
C 14 0 19 0 23.796875 0 
C 28.59375 0 33.59375 0 38.40625 0 
L 38.40625 2.5 
L 35.40625 2.5 
C 26.796875 2.5 26.59375 3.59375 26.59375 7.15625 
z
" id="CMR17-49"/>
      </defs>
      <g transform="translate(88.598159 205.822083)scale(0.1 -0.1)">
       <use transform="scale(0.996264)" xlink:href="#CMSY10-0"/>
       <use transform="translate(77.487468 0)scale(0.996264)" xlink:href="#CMR17-49"/>
      </g>
     </g>
    </g>
    <g id="xtick_2">
     <g id="line2d_3">
      <path clip-path="url(#p83bb78b7bc)" d="M 172.5 191.903585 
L 172.5 21.322621 
" style="fill:none;stroke:#b0b0b0;stroke-linecap:square;stroke-width:0.8;"/>
     </g>
     <g id="line2d_4">
      <g>
       <use style="stroke:#000000;stroke-width:0.8;" x="172.5" xlink:href="#mdb58a9b37b" y="191.903585"/>
      </g>
     </g>
     <g id="text_2">
      <!-- $0$ -->
      <defs>
       <path d="M 42 31.640625 
C 42 37.75 41.90625 48.125 37.703125 56.109375 
C 34 63.109375 28.09375 65.59375 22.90625 65.59375 
C 18.09375 65.59375 12 63.40625 8.203125 56.203125 
C 4.203125 48.71875 3.796875 39.4375 3.796875 31.640625 
C 3.796875 25.953125 3.90625 17.28125 7 9.671875 
C 11.296875 -0.609375 19 -2 22.90625 -2 
C 27.5 -2 34.5 -0.109375 38.59375 9.375 
C 41.59375 16.28125 42 24.359375 42 31.640625 
z
M 22.90625 -0.40625 
C 16.5 -0.40625 12.703125 5.078125 11.296875 12.6875 
C 10.203125 18.5625 10.203125 27.15625 10.203125 32.75 
C 10.203125 40.4375 10.203125 46.828125 11.5 52.921875 
C 13.40625 61.390625 19 64 22.90625 64 
C 27 64 32.296875 61.296875 34.203125 53.125 
C 35.5 47.4375 35.59375 40.734375 35.59375 32.75 
C 35.59375 26.25 35.59375 18.265625 34.40625 12.375 
C 32.296875 1.484375 26.40625 -0.40625 22.90625 -0.40625 
z
" id="CMR17-48"/>
      </defs>
      <g transform="translate(170.009332 205.822083)scale(0.1 -0.1)">
       <use transform="scale(0.996264)" xlink:href="#CMR17-48"/>
      </g>
     </g>
    </g>
    <g id="xtick_3">
     <g id="line2d_5">
      <path clip-path="url(#p83bb78b7bc)" d="M 250.036802 191.903585 
L 250.036802 21.322621 
" style="fill:none;stroke:#b0b0b0;stroke-linecap:square;stroke-width:0.8;"/>
     </g>
     <g id="line2d_6">
      <g>
       <use style="stroke:#000000;stroke-width:0.8;" x="250.036802" xlink:href="#mdb58a9b37b" y="191.903585"/>
      </g>
     </g>
     <g id="text_3">
      <!-- $1$ -->
      <g transform="translate(247.546134 205.822083)scale(0.1 -0.1)">
       <use transform="scale(0.996264)" xlink:href="#CMR17-49"/>
      </g>
     </g>
    </g>
   </g>
   <g id="matplotlib.axis_2">
    <g id="ytick_1">
     <g id="line2d_7">
      <path clip-path="url(#p83bb78b7bc)" d="M 34.5 184.149904 
L 310.5 184.149904 
" style="fill:none;stroke:#b0b0b0;stroke-linecap:square;stroke-width:0.8;"/>
     </g>
     <g id="line2d_8">
      <defs>
       <path d="M 0 0 
L -3.5 0 
" id="ma2120af9eb" style="stroke:#000000;stroke-width:0.8;"/>
      </defs>
      <g>
       <use style="stroke:#000000;stroke-width:0.8;" x="34.5" xlink:href="#ma2120af9eb" y="184.149904"/>
      </g>
     </g>
     <g id="text_4">
      <!-- $-1$ -->
      <g transform="translate(14.769921 187.609154)scale(0.1 -0.1)">
       <use transform="scale(0.996264)" xlink:href="#CMSY10-0"/>
       <use transform="translate(77.487468 0)scale(0.996264)" xlink:href="#CMR17-49"/>
      </g>
     </g>
    </g>
    <g id="ytick_2">
     <g id="line2d_9">
      <path clip-path="url(#p83bb78b7bc)" d="M 34.5 106.613103 
L 310.5 106.613103 
" style="fill:none;stroke:#b0b0b0;stroke-linecap:square;stroke-width:0.8;"/>
     </g>
     <g id="line2d_10">
      <g>
       <use style="stroke:#000000;stroke-width:0.8;" x="34.5" xlink:href="#ma2120af9eb" y="106.613103"/>
      </g>
     </g>
     <g id="text_5">
      <!-- $0$ -->
      <g transform="translate(22.518665 110.072352)scale(0.1 -0.1)">
       <use transform="scale(0.996264)" xlink:href="#CMR17-48"/>
      </g>
     </g>
    </g>
    <g id="ytick_3">
     <g id="line2d_11">
      <path clip-path="url(#p83bb78b7bc)" d="M 34.5 29.076301 
L 310.5 29.076301 
" style="fill:none;stroke:#b0b0b0;stroke-linecap:square;stroke-width:0.8;"/>
     </g>
     <g id="line2d_12">
      <g>
       <use style="stroke:#000000;stroke-width:0.8;" x="34.5" xlink:href="#ma2120af9eb" y="29.076301"/>
      </g>
     </g>
     <g id="text_6">
      <!-- $1$ -->
      <g transform="translate(22.518665 32.53555)scale(0.1 -0.1)">
       <use transform="scale(0.996264)" xlink:href="#CMR17-49"/>
      </g>
     </g>
    </g>
   </g>
   <g id="line2d_13">
    <defs>
     <path d="M -3 0 
L 3 0 
M 0 3 
L 0 -3 
" id="m4a16d2dd35" style="stroke:#000000;"/>
    </defs>
    <g clip-path="url(#p83bb78b7bc)">
     <use style="stroke:#000000;" x="211.268401" xlink:href="#m4a16d2dd35" y="106.613103"/>
    </g>
   </g>
   <g id="patch_12">
    <path d="M 34.5 191.903585 
L 34.5 21.322621 
" style="fill:none;stroke:#000000;stroke-linecap:square;stroke-linejoin:miter;stroke-width:0.8;"/>
   </g>
   <g id="patch_13">
    <path d="M 310.5 191.903585 
L 310.5 21.322621 
" style="fill:none;stroke:#000000;stroke-linecap:square;stroke-linejoin:miter;stroke-width:0.8;"/>
   </g>
   <g id="patch_14">
    <path d="M 34.5 191.903585 
L 310.5 191.903585 
" style="fill:none;stroke:#000000;stroke-linecap:square;stroke-linejoin:miter;stroke-width:0.8;"/>
   </g>
   <g id="patch_15">
    <path d="M 34.5 21.322621 
L 310.5 21.322621 
" style="fill:none;stroke:#000000;stroke-linecap:square;stroke-linejoin:miter;stroke-width:0.8;"/>
   </g>
   <g id="legend_1">
    <g id="patch_16">
     <path d="M 243.095819 74.210541 
L 303.5 74.210541 
Q 305.5 74.210541 305.5 72.210541 
L 305.5 28.322621 
Q 305.5 26.322621 303.5 26.322621 
L 243.095819 26.322621 
Q 241.095819 26.322621 241.095819 28.322621 
L 241.095819 72.210541 
Q 241.095819 74.210541 243.095819 74.210541 
z
" style="fill:#ffffff;opacity:0.8;stroke:#cccccc;stroke-linejoin:miter;"/>
    </g>
    <g id="patch_17">
     <path d="M 245.095819 37.794601 
L 265.095819 37.794601 
L 265.095819 30.794601 
L 245.095819 30.794601 
z
" style="fill:none;stroke:#000000;stroke-linejoin:miter;"/>
    </g>
    <g id="text_7">
     <!-- $\gamma(1)$ -->
     <defs>
      <path d="M 37.796875 11.875 
C 37.59375 16.734375 37.40625 24.390625 33.59375 33.328125 
C 31.59375 38.3125 28.203125 43.5625 20.90625 43.5625 
C 8.59375 43.5625 1.90625 27.96875 1.90625 25.390625 
C 1.90625 24.484375 2.59375 24.484375 2.90625 24.484375 
C 3.796875 24.484375 3.796875 24.6875 4.296875 25.984375 
C 6.40625 32.140625 12.796875 37 19.703125 37 
C 33.59375 37 35.59375 21.609375 35.59375 11.78125 
C 35.59375 5.5 34.90625 3.4375 34.296875 1.4375 
C 32.40625 -4.71875 29.09375 -17.03125 29.09375 -19.8125 
C 29.09375 -20.609375 29.40625 -21.5 30.203125 -21.5 
C 31.703125 -21.5 32.59375 -18.21875 33.703125 -14.25 
C 36.09375 -5.515625 36.703125 -1.140625 37.203125 2.828125 
C 37.5 5.21875 43.203125 21.625 51.09375 37.21875 
C 51.796875 38.796875 53.203125 41.484375 53.203125 41.78125 
C 53.203125 41.875 53.09375 42.578125 52.203125 42.578125 
C 52 42.578125 51.5 42.578125 51.296875 42.171875 
C 51.09375 41.984375 47.59375 35.21875 44.59375 28.46875 
C 43.09375 25.09375 41.09375 20.625 37.796875 11.875 
z
" id="CMMI12-13"/>
      <path d="M 30.59375 -24.390625 
C 30.59375 -24.296875 30.59375 -24.09375 30.296875 -23.796875 
C 25.703125 -19.125 13.40625 -6.359375 13.40625 24.703125 
C 13.40625 55.765625 25.5 68.421875 30.40625 73.390625 
C 30.40625 73.5 30.59375 73.703125 30.59375 74 
C 30.59375 74.296875 30.296875 74.5 29.90625 74.5 
C 28.796875 74.5 20.296875 67.125 15.40625 56.15625 
C 10.40625 45.109375 9 34.359375 9 24.8125 
C 9 17.625 9.703125 5.484375 15.703125 -7.359375 
C 20.5 -17.734375 28.703125 -25 29.90625 -25 
C 30.40625 -25 30.59375 -24.796875 30.59375 -24.390625 
z
" id="CMR17-40"/>
      <path d="M 26.296875 24.703125 
C 26.296875 31.875 25.59375 44.015625 19.59375 56.859375 
C 14.796875 67.234375 6.59375 74.5 5.40625 74.5 
C 5.09375 74.5 4.703125 74.390625 4.703125 73.890625 
C 4.703125 73.703125 4.796875 73.59375 4.90625 73.390625 
C 9.703125 68.40625 21.90625 55.75 21.90625 24.75 
C 21.90625 -6.359375 9.796875 -19.015625 4.90625 -24.015625 
C 4.796875 -24.203125 4.703125 -24.3125 4.703125 -24.5 
C 4.703125 -25 5.09375 -25 5.40625 -25 
C 6.5 -25 15 -17.625 19.90625 -6.65625 
C 24.90625 4.390625 26.296875 15.140625 26.296875 24.703125 
z
" id="CMR17-41"/>
     </defs>
     <g transform="translate(273.095819 37.794601)scale(0.1 -0.1)">
      <use transform="scale(0.996264)" xlink:href="#CMMI12-13"/>
      <use transform="translate(56.018568 0)scale(0.996264)" xlink:href="#CMR17-40"/>
      <use transform="translate(91.299336 0)scale(0.996264)" xlink:href="#CMR17-49"/>
      <use transform="translate(136.989813 0)scale(0.996264)" xlink:href="#CMR17-41"/>
     </g>
    </g>
    <g id="patch_18">
     <path d="M 245.095819 52.757241 
L 265.095819 52.757241 
L 265.095819 45.757241 
L 245.095819 45.757241 
z
" style="fill:none;stroke:#000000;stroke-dasharray:5,1;stroke-dashoffset:0;stroke-linejoin:miter;"/>
    </g>
    <g id="text_8">
     <!-- $\gamma(2/3)$ -->
     <defs>
      <path d="M 41.703125 15.453125 
L 39.90625 15.453125 
C 38.90625 8.375 38.09375 7.171875 37.703125 6.5625 
C 37.203125 5.765625 30 5.765625 28.59375 5.765625 
L 9.40625 5.765625 
C 13 9.671875 20 16.75 28.5 24.953125 
C 34.59375 30.734375 41.703125 37.53125 41.703125 47.421875 
C 41.703125 59.21875 32.296875 66 21.796875 66 
C 10.796875 66 4.09375 56.3125 4.09375 47.34375 
C 4.09375 43.4375 7 42.9375 8.203125 42.9375 
C 9.203125 42.9375 12.203125 43.546875 12.203125 47.03125 
C 12.203125 50.109375 9.59375 51 8.203125 51 
C 7.59375 51 7 50.90625 6.59375 50.703125 
C 8.5 59.21875 14.296875 63.40625 20.40625 63.40625 
C 29.09375 63.40625 34.796875 56.515625 34.796875 47.421875 
C 34.796875 38.734375 29.703125 31.25 24 24.75 
L 4.09375 2.28125 
L 4.09375 0 
L 39.296875 0 
z
" id="CMR17-50"/>
      <path d="M 42.90625 71.28125 
C 42.90625 71.390625 43.5 72.90625 43.5 73.09375 
C 43.5 74.296875 42.5 75 41.703125 75 
C 41.203125 75 40.296875 75 39.5 72.796875 
L 6 -21.296875 
C 6 -21.40625 5.40625 -22.890625 5.40625 -23.09375 
C 5.40625 -24.296875 6.40625 -25 7.203125 -25 
C 7.796875 -25 8.703125 -24.890625 9.40625 -22.796875 
z
" id="CMMI12-61"/>
      <path d="M 22.09375 33.703125 
C 31 33.703125 34.90625 25.96875 34.90625 17.03125 
C 34.90625 5 28.5 0.390625 22.703125 0.390625 
C 17.40625 0.390625 8.796875 3.03125 6.09375 10.828125 
C 6.59375 10.625 7.09375 10.625 7.59375 10.625 
C 10 10.625 11.796875 12.21875 11.796875 14.8125 
C 11.796875 17.703125 9.59375 19 7.59375 19 
C 5.90625 19 3.296875 18.203125 3.296875 14.46875 
C 3.296875 5.234375 12.296875 -2 22.90625 -2 
C 34 -2 42.5 6.71875 42.5 16.953125 
C 42.5 26.671875 34.5 33.703125 25 34.796875 
C 32.59375 36.375 39.90625 43.0625 39.90625 52.015625 
C 39.90625 59.6875 32 65.296875 23 65.296875 
C 13.90625 65.296875 5.90625 59.828125 5.90625 52.015625 
C 5.90625 48.59375 8.5 48 9.796875 48 
C 11.90625 48 13.703125 49.296875 13.703125 51.890625 
C 13.703125 54.46875 11.90625 55.765625 9.796875 55.765625 
C 9.40625 55.765625 8.90625 55.765625 8.5 55.578125 
C 11.40625 61.859375 19.296875 63 22.796875 63 
C 26.296875 63 32.90625 61.328125 32.90625 51.875 
C 32.90625 49.109375 32.5 44.1875 29.09375 39.84375 
C 26.09375 36 22.703125 36 19.40625 35.6875 
C 18.90625 35.6875 16.59375 35.453125 16.203125 35.453125 
C 15.5 35.359375 15.09375 35.265625 15.09375 34.5 
C 15.09375 33.796875 15.203125 33.703125 17.203125 33.703125 
z
" id="CMR17-51"/>
     </defs>
     <g transform="translate(273.095819 52.757241)scale(0.1 -0.1)">
      <use transform="scale(0.996264)" xlink:href="#CMMI12-13"/>
      <use transform="translate(56.018568 0)scale(0.996264)" xlink:href="#CMR17-40"/>
      <use transform="translate(91.299336 0)scale(0.996264)" xlink:href="#CMR17-50"/>
      <use transform="translate(136.989813 0)scale(0.996264)" xlink:href="#CMMI12-61"/>
      <use transform="translate(185.764732 0)scale(0.996264)" xlink:href="#CMR17-51"/>
      <use transform="translate(231.455209 0)scale(0.996264)" xlink:href="#CMR17-41"/>
     </g>
    </g>
    <g id="patch_19">
     <path d="M 245.095819 67.719881 
L 265.095819 67.719881 
L 265.095819 60.719881 
L 245.095819 60.719881 
z
" style="fill:none;stroke:#000000;stroke-dasharray:3,3;stroke-dashoffset:0;stroke-linejoin:miter;"/>
    </g>
    <g id="text_9">
     <!-- $\gamma(1/3)$ -->
     <g transform="translate(273.095819 67.719881)scale(0.1 -0.1)">
      <use transform="scale(0.996264)" xlink:href="#CMMI12-13"/>
      <use transform="translate(56.018568 0)scale(0.996264)" xlink:href="#CMR17-40"/>
      <use transform="translate(91.299336 0)scale(0.996264)" xlink:href="#CMR17-49"/>
      <use transform="translate(136.989813 0)scale(0.996264)" xlink:href="#CMMI12-61"/>
      <use transform="translate(185.764732 0)scale(0.996264)" xlink:href="#CMR17-51"/>
      <use transform="translate(231.455209 0)scale(0.996264)" xlink:href="#CMR17-41"/>
     </g>
    </g>
   </g>
  </g>
 </g>
 <defs>
  <clipPath id="p83bb78b7bc">
   <rect height="170.580964" width="276" x="34.5" y="21.322621"/>
  </clipPath>
 </defs>
</svg>
