<?xml version="1.0" encoding="utf-8" standalone="no"?>
<!DOCTYPE svg PUBLIC "-//W3C//DTD SVG 1.1//EN"
  "http://www.w3.org/Graphics/SVG/1.1/DTD/svg11.dtd">
<!-- Created with matplotlib (http://matplotlib.org/) -->
<svg height="213.226205pt" version="1.1" viewBox="0 0 345 213.226205" width="345pt" xmlns="http://www.w3.org/2000/svg" xmlns:xlink="http://www.w3.org/1999/xlink">
 <defs>
  <style type="text/css">
*{stroke-linecap:butt;stroke-linejoin:round;}
  </style>
 </defs>
 <g id="figure_1">
  <g id="patch_1">
   <path d="M 0 213.226205 
L 345 213.226205 
L 345 0 
L 0 0 
z
" style="fill:#ffffff;"/>
  </g>
  <g id="axes_1">
   <g id="patch_2">
    <path clip-path="url(#p8ff558eff4)" d="M 300.435723 191.903585 
L 300.435723 191.221261 
L 300.435723 190.538937 
L 300.435723 189.856613 
L 300.435723 189.174289 
L 300.435723 188.491965 
L 300.435723 187.809642 
L 300.435723 187.127318 
L 300.435723 186.444994 
L 300.435723 185.76267 
L 300.435723 185.080346 
L 300.435723 184.398022 
L 300.435723 183.715698 
L 300.435723 183.033375 
L 300.435723 182.351051 
L 300.435723 181.668727 
L 300.435723 180.986403 
L 300.435723 180.304079 
L 300.435723 179.621755 
L 300.435723 178.939431 
L 300.435723 178.257108 
L 300.435723 177.574784 
L 300.435723 176.89246 
L 300.435723 176.210136 
L 300.435723 175.527812 
L 300.435723 174.845488 
L 300.435723 174.163164 
L 300.435723 173.480841 
L 300.435723 172.798517 
L 300.435723 172.116193 
L 300.435723 171.433869 
L 300.435723 170.751545 
L 300.435723 170.069221 
L 300.435723 169.386897 
L 300.435723 168.704574 
L 300.435723 168.02225 
L 300.435723 167.339926 
L 300.435723 166.657602 
L 300.435723 165.975278 
L 300.435723 165.292954 
L 300.435723 164.61063 
L 300.435723 163.928307 
L 300.435723 163.245983 
L 300.435723 162.563659 
L 300.435723 161.881335 
L 300.435723 161.199011 
L 300.435723 160.516687 
L 300.435723 159.834363 
L 300.435723 159.15204 
L 300.435723 158.469716 
L 300.435723 157.787392 
L 300.435723 157.105068 
L 300.435723 156.422744 
L 300.435723 155.74042 
L 300.435723 155.058096 
L 300.435723 154.375773 
L 300.435723 153.693449 
L 300.435723 153.011125 
L 300.435723 152.328801 
L 300.435723 151.646477 
L 300.435723 150.964153 
L 300.435723 150.281829 
L 300.435723 149.599506 
L 300.435723 148.917182 
L 300.435723 148.234858 
L 300.435723 147.552534 
L 300.435723 146.87021 
L 300.435723 146.187886 
L 300.435723 145.505562 
L 300.435723 144.823239 
L 300.435723 144.140915 
L 300.435723 143.458591 
L 300.435723 142.776267 
L 300.435723 142.093943 
L 300.435723 141.411619 
L 300.435723 140.729295 
L 300.435723 140.046972 
L 300.435723 139.364648 
L 300.435723 138.682324 
L 300.435723 138 
L 300.435723 137.317676 
L 300.435723 136.635352 
L 300.435723 135.953028 
L 300.435723 135.270705 
L 300.435723 134.588381 
L 300.435723 133.906057 
L 300.435723 133.223733 
L 300.435723 132.541409 
L 300.435723 131.859085 
L 300.435723 131.176761 
L 300.435723 130.494438 
L 300.435723 129.812114 
L 300.435723 129.12979 
L 300.435723 128.447466 
L 300.435723 127.765142 
L 300.435723 127.082818 
L 300.435723 126.400494 
L 300.435723 125.718171 
L 300.435723 125.035847 
L 300.435723 124.353523 
L 300.435723 123.671199 
L 300.435723 122.988875 
L 300.435723 122.306551 
L 300.435723 121.624227 
L 300.435723 120.941904 
L 300.435723 120.25958 
L 300.435723 119.577256 
L 300.435723 118.894932 
L 300.435723 118.212608 
L 300.435723 117.530284 
L 300.435723 116.84796 
L 300.435723 116.165637 
L 300.435723 115.483313 
L 300.435723 114.800989 
L 300.435723 114.118665 
L 300.435723 113.436341 
L 300.435723 112.754017 
L 300.435723 112.071693 
L 300.435723 111.38937 
L 300.435723 110.707046 
L 300.435723 110.024722 
L 300.435723 109.342398 
L 300.435723 108.660074 
L 300.435723 107.97775 
L 300.435723 107.295426 
L 300.435723 106.613103 
L 300.435723 105.930779 
L 300.435723 105.248455 
L 300.435723 104.566131 
L 300.435723 103.883807 
L 300.435723 103.201483 
L 300.435723 102.519159 
L 300.435723 101.836836 
L 300.435723 101.154512 
L 300.435723 100.472188 
L 300.435723 99.789864 
L 300.435723 99.10754 
L 300.435723 98.425216 
L 300.435723 97.742892 
L 300.435723 97.060569 
L 300.435723 96.378245 
L 300.435723 95.695921 
L 300.435723 95.013597 
L 300.435723 94.331273 
L 300.435723 93.648949 
L 300.435723 92.966625 
L 300.435723 92.284302 
L 300.435723 91.601978 
L 300.435723 90.919654 
L 300.435723 90.23733 
L 300.435723 89.555006 
L 300.435723 88.872682 
L 300.435723 88.190358 
L 300.435723 87.508035 
L 300.435723 86.825711 
L 300.435723 86.143387 
L 300.435723 85.461063 
L 300.435723 84.778739 
L 300.435723 84.096415 
L 300.435723 83.414091 
L 300.435723 82.731768 
L 300.435723 82.049444 
L 300.435723 81.36712 
L 300.435723 80.684796 
L 300.435723 80.002472 
L 300.435723 79.320148 
L 300.435723 78.637824 
L 300.435723 77.955501 
L 300.435723 77.273177 
L 300.435723 76.590853 
L 300.435723 75.908529 
L 300.435723 75.226205 
L 300.435723 74.543881 
L 300.435723 73.861557 
L 300.435723 73.179234 
L 300.435723 72.49691 
L 300.435723 71.814586 
L 300.435723 71.132262 
L 300.435723 70.449938 
L 300.435723 69.767614 
L 300.435723 69.08529 
L 300.435723 68.402967 
L 300.435723 67.720643 
L 300.435723 67.038319 
L 300.435723 66.355995 
L 300.435723 65.673671 
L 300.435723 64.991347 
L 300.435723 64.309023 
L 300.435723 63.6267 
L 300.435723 62.944376 
L 300.435723 62.262052 
L 300.435723 61.579728 
L 300.435723 60.897404 
L 300.435723 60.21508 
L 300.435723 59.532756 
L 300.435723 58.850433 
L 300.435723 58.168109 
L 300.435723 57.485785 
L 300.435723 56.803461 
L 300.435723 56.121137 
L 300.435723 55.438813 
L 300.435723 54.756489 
L 300.435723 54.074166 
L 300.435723 53.391842 
L 300.435723 52.709518 
L 300.435723 52.027194 
L 300.435723 51.34487 
L 300.435723 50.662546 
L 300.435723 49.980222 
L 300.435723 49.297899 
L 300.435723 48.615575 
L 300.435723 47.933251 
L 300.435723 47.250927 
L 300.435723 46.568603 
L 300.435723 45.886279 
L 300.435723 45.203956 
L 300.435723 44.521632 
L 300.435723 43.839308 
L 300.435723 43.156984 
L 300.435723 42.47466 
L 300.435723 41.792336 
L 300.435723 41.110012 
L 300.435723 40.427689 
L 300.435723 39.745365 
L 300.435723 39.063041 
L 300.435723 38.380717 
L 300.435723 37.698393 
L 300.435723 37.016069 
L 300.435723 36.333745 
L 300.435723 35.651422 
L 300.435723 34.969098 
L 300.435723 34.286774 
L 300.435723 33.60445 
L 300.435723 32.922126 
L 300.435723 32.239802 
L 300.435723 31.557478 
L 300.435723 30.875155 
L 300.435723 30.192831 
L 300.435723 29.510507 
L 300.435723 28.828183 
L 300.435723 28.145859 
L 300.435723 27.463535 
L 300.435723 26.781211 
L 300.435723 26.098888 
L 300.435723 25.416564 
L 300.435723 24.73424 
L 300.435723 24.051916 
L 300.435723 23.369592 
L 300.435723 22.687268 
L 300.435723 22.004944 
L 300.435723 21.322621 
L 299.412237 21.322621 
L 298.388752 21.322621 
L 297.365266 21.322621 
L 296.34178 21.322621 
L 295.318294 21.322621 
L 294.294808 21.322621 
L 293.271323 21.322621 
L 292.247837 21.322621 
L 291.224351 21.322621 
L 290.200865 21.322621 
L 289.177379 21.322621 
L 288.153894 21.322621 
L 287.130408 21.322621 
L 286.106922 21.322621 
L 285.083436 21.322621 
L 284.059951 21.322621 
L 283.036465 21.322621 
L 282.012979 21.322621 
L 280.989493 21.322621 
L 279.966007 21.322621 
L 278.942522 21.322621 
L 277.919036 21.322621 
L 276.89555 21.322621 
L 275.872064 21.322621 
L 274.848578 21.322621 
L 273.825093 21.322621 
L 272.801607 21.322621 
L 271.778121 21.322621 
L 270.754635 21.322621 
L 269.73115 21.322621 
L 268.707664 21.322621 
L 267.684178 21.322621 
L 266.660692 21.322621 
L 265.637206 21.322621 
L 264.613721 21.322621 
L 263.590235 21.322621 
L 262.566749 21.322621 
L 261.543263 21.322621 
L 260.519778 21.322621 
L 259.496292 21.322621 
L 258.472806 21.322621 
L 257.44932 21.322621 
L 256.425834 21.322621 
L 255.402349 21.322621 
L 254.378863 21.322621 
L 253.355377 21.322621 
L 252.331891 21.322621 
L 251.308405 21.322621 
L 250.28492 21.322621 
L 249.261434 21.322621 
L 248.237948 21.322621 
L 247.214462 21.322621 
L 246.190977 21.322621 
L 245.167491 21.322621 
L 244.144005 21.322621 
L 243.120519 21.322621 
L 242.097033 21.322621 
L 241.073548 21.322621 
L 240.050062 21.322621 
L 239.026576 21.322621 
L 238.00309 21.322621 
L 236.979604 21.322621 
L 235.956119 21.322621 
L 234.932633 21.322621 
L 233.909147 21.322621 
L 232.885661 21.322621 
L 231.862176 21.322621 
L 230.83869 21.322621 
L 229.815204 21.322621 
L 228.791718 21.322621 
L 227.768232 21.322621 
L 226.744747 21.322621 
L 225.721261 21.322621 
L 224.697775 21.322621 
L 223.674289 21.322621 
L 222.650803 21.322621 
L 221.627318 21.322621 
L 220.603832 21.322621 
L 219.580346 21.322621 
L 218.55686 21.322621 
L 217.533375 21.322621 
L 216.509889 21.322621 
L 215.486403 21.322621 
L 214.462917 21.322621 
L 213.439431 21.322621 
L 212.415946 21.322621 
L 211.39246 21.322621 
L 210.368974 21.322621 
L 209.345488 21.322621 
L 208.322002 21.322621 
L 207.298517 21.322621 
L 206.275031 21.322621 
L 205.251545 21.322621 
L 204.228059 21.322621 
L 203.204574 21.322621 
L 202.181088 21.322621 
L 201.157602 21.322621 
L 200.134116 21.322621 
L 199.11063 21.322621 
L 198.087145 21.322621 
L 197.063659 21.322621 
L 196.040173 21.322621 
L 195.016687 21.322621 
L 193.993201 21.322621 
L 192.969716 21.322621 
L 191.94623 21.322621 
L 190.922744 21.322621 
L 189.899258 21.322621 
L 188.875773 21.322621 
L 187.852287 21.322621 
L 186.828801 21.322621 
L 185.805315 21.322621 
L 184.781829 21.322621 
L 183.758344 21.322621 
L 182.734858 21.322621 
L 181.711372 21.322621 
L 180.687886 21.322621 
L 179.6644 21.322621 
L 178.640915 21.322621 
L 177.617429 21.322621 
L 176.593943 21.322621 
L 175.570457 21.322621 
L 174.546972 21.322621 
L 173.523486 21.322621 
L 172.5 21.322621 
L 171.476514 21.322621 
L 170.453028 21.322621 
L 169.429543 21.322621 
L 168.406057 21.322621 
L 167.382571 21.322621 
L 166.359085 21.322621 
L 165.3356 21.322621 
L 164.312114 21.322621 
L 163.288628 21.322621 
L 162.265142 21.322621 
L 161.241656 21.322621 
L 160.218171 21.322621 
L 159.194685 21.322621 
L 158.171199 21.322621 
L 157.147713 21.322621 
L 156.124227 21.322621 
L 155.100742 21.322621 
L 154.077256 21.322621 
L 153.05377 21.322621 
L 152.030284 21.322621 
L 151.006799 21.322621 
L 149.983313 21.322621 
L 148.959827 21.322621 
L 147.936341 21.322621 
L 146.912855 21.322621 
L 145.88937 21.322621 
L 144.865884 21.322621 
L 143.842398 21.322621 
L 142.818912 21.322621 
L 141.795426 21.322621 
L 140.771941 21.322621 
L 139.748455 21.322621 
L 138.724969 21.322621 
L 137.701483 21.322621 
L 136.677998 21.322621 
L 135.654512 21.322621 
L 134.631026 21.322621 
L 133.60754 21.322621 
L 132.584054 21.322621 
L 131.560569 21.322621 
L 130.537083 21.322621 
L 129.513597 21.322621 
L 128.490111 21.322621 
L 127.466625 21.322621 
L 126.44314 21.322621 
L 125.419654 21.322621 
L 124.396168 21.322621 
L 123.372682 21.322621 
L 122.349197 21.322621 
L 121.325711 21.322621 
L 120.302225 21.322621 
L 119.278739 21.322621 
L 118.255253 21.322621 
L 117.231768 21.322621 
L 116.208282 21.322621 
L 115.184796 21.322621 
L 114.16131 21.322621 
L 113.137824 21.322621 
L 112.114339 21.322621 
L 111.090853 21.322621 
L 110.067367 21.322621 
L 109.043881 21.322621 
L 108.020396 21.322621 
L 106.99691 21.322621 
L 105.973424 21.322621 
L 104.949938 21.322621 
L 103.926452 21.322621 
L 102.902967 21.322621 
L 101.879481 21.322621 
L 100.855995 21.322621 
L 99.832509 21.322621 
L 98.809023 21.322621 
L 97.785538 21.322621 
L 96.762052 21.322621 
L 95.738566 21.322621 
L 94.71508 21.322621 
L 93.691595 21.322621 
L 92.668109 21.322621 
L 91.644623 21.322621 
L 90.621137 21.322621 
L 89.597651 21.322621 
L 88.574166 21.322621 
L 87.55068 21.322621 
L 86.527194 21.322621 
L 85.503708 21.322621 
L 84.480222 21.322621 
L 83.456737 21.322621 
L 82.433251 21.322621 
L 81.409765 21.322621 
L 80.386279 21.322621 
L 79.362794 21.322621 
L 78.339308 21.322621 
L 77.315822 21.322621 
L 76.292336 21.322621 
L 75.26885 21.322621 
L 74.245365 21.322621 
L 73.221879 21.322621 
L 72.198393 21.322621 
L 71.174907 21.322621 
L 70.151422 21.322621 
L 69.127936 21.322621 
L 68.10445 21.322621 
L 67.080964 21.322621 
L 66.057478 21.322621 
L 65.033993 21.322621 
L 64.010507 21.322621 
L 62.987021 21.322621 
L 61.963535 21.322621 
L 60.940049 21.322621 
L 59.916564 21.322621 
L 58.893078 21.322621 
L 57.869592 21.322621 
L 56.846106 21.322621 
L 55.822621 21.322621 
L 54.799135 21.322621 
L 53.775649 21.322621 
L 52.752163 21.322621 
L 51.728677 21.322621 
L 50.705192 21.322621 
L 49.681706 21.322621 
L 48.65822 21.322621 
L 47.634734 21.322621 
L 46.611248 21.322621 
L 45.587763 21.322621 
L 44.564277 21.322621 
L 44.564277 22.004944 
L 44.564277 22.687268 
L 44.564277 23.369592 
L 44.564277 24.051916 
L 44.564277 24.73424 
L 44.564277 25.416564 
L 44.564277 26.098888 
L 44.564277 26.781211 
L 44.564277 27.463535 
L 44.564277 28.145859 
L 44.564277 28.828183 
L 44.564277 29.510507 
L 44.564277 30.192831 
L 44.564277 30.875155 
L 44.564277 31.557478 
L 44.564277 32.239802 
L 44.564277 32.922126 
L 44.564277 33.60445 
L 44.564277 34.286774 
L 44.564277 34.969098 
L 44.564277 35.651422 
L 44.564277 36.333745 
L 44.564277 37.016069 
L 44.564277 37.698393 
L 44.564277 38.380717 
L 44.564277 39.063041 
L 44.564277 39.745365 
L 44.564277 40.427689 
L 44.564277 41.110012 
L 44.564277 41.792336 
L 44.564277 42.47466 
L 44.564277 43.156984 
L 44.564277 43.839308 
L 44.564277 44.521632 
L 44.564277 45.203956 
L 44.564277 45.886279 
L 44.564277 46.568603 
L 44.564277 47.250927 
L 44.564277 47.933251 
L 44.564277 48.615575 
L 44.564277 49.297899 
L 44.564277 49.980222 
L 44.564277 50.662546 
L 44.564277 51.34487 
L 44.564277 52.027194 
L 44.564277 52.709518 
L 44.564277 53.391842 
L 44.564277 54.074166 
L 44.564277 54.756489 
L 44.564277 55.438813 
L 44.564277 56.121137 
L 44.564277 56.803461 
L 44.564277 57.485785 
L 44.564277 58.168109 
L 44.564277 58.850433 
L 44.564277 59.532756 
L 44.564277 60.21508 
L 44.564277 60.897404 
L 44.564277 61.579728 
L 44.564277 62.262052 
L 44.564277 62.944376 
L 44.564277 63.6267 
L 44.564277 64.309023 
L 44.564277 64.991347 
L 44.564277 65.673671 
L 44.564277 66.355995 
L 44.564277 67.038319 
L 44.564277 67.720643 
L 44.564277 68.402967 
L 44.564277 69.08529 
L 44.564277 69.767614 
L 44.564277 70.449938 
L 44.564277 71.132262 
L 44.564277 71.814586 
L 44.564277 72.49691 
L 44.564277 73.179234 
L 44.564277 73.861557 
L 44.564277 74.543881 
L 44.564277 75.226205 
L 44.564277 75.908529 
L 44.564277 76.590853 
L 44.564277 77.273177 
L 44.564277 77.955501 
L 44.564277 78.637824 
L 44.564277 79.320148 
L 44.564277 80.002472 
L 44.564277 80.684796 
L 44.564277 81.36712 
L 44.564277 82.049444 
L 44.564277 82.731768 
L 44.564277 83.414091 
L 44.564277 84.096415 
L 44.564277 84.778739 
L 44.564277 85.461063 
L 44.564277 86.143387 
L 44.564277 86.825711 
L 44.564277 87.508035 
L 44.564277 88.190358 
L 44.564277 88.872682 
L 44.564277 89.555006 
L 44.564277 90.23733 
L 44.564277 90.919654 
L 44.564277 91.601978 
L 44.564277 92.284302 
L 44.564277 92.966625 
L 44.564277 93.648949 
L 44.564277 94.331273 
L 44.564277 95.013597 
L 44.564277 95.695921 
L 44.564277 96.378245 
L 44.564277 97.060569 
L 44.564277 97.742892 
L 44.564277 98.425216 
L 44.564277 99.10754 
L 44.564277 99.789864 
L 44.564277 100.472188 
L 44.564277 101.154512 
L 44.564277 101.836836 
L 44.564277 102.519159 
L 44.564277 103.201483 
L 44.564277 103.883807 
L 44.564277 104.566131 
L 44.564277 105.248455 
L 44.564277 105.930779 
L 44.564277 106.613103 
L 44.564277 107.295426 
L 44.564277 107.97775 
L 44.564277 108.660074 
L 44.564277 109.342398 
L 44.564277 110.024722 
L 44.564277 110.707046 
L 44.564277 111.38937 
L 44.564277 112.071693 
L 44.564277 112.754017 
L 44.564277 113.436341 
L 44.564277 114.118665 
L 44.564277 114.800989 
L 44.564277 115.483313 
L 44.564277 116.165637 
L 44.564277 116.84796 
L 44.564277 117.530284 
L 44.564277 118.212608 
L 44.564277 118.894932 
L 44.564277 119.577256 
L 44.564277 120.25958 
L 44.564277 120.941904 
L 44.564277 121.624227 
L 44.564277 122.306551 
L 44.564277 122.988875 
L 44.564277 123.671199 
L 44.564277 124.353523 
L 44.564277 125.035847 
L 44.564277 125.718171 
L 44.564277 126.400494 
L 44.564277 127.082818 
L 44.564277 127.765142 
L 44.564277 128.447466 
L 44.564277 129.12979 
L 44.564277 129.812114 
L 44.564277 130.494438 
L 44.564277 131.176761 
L 44.564277 131.859085 
L 44.564277 132.541409 
L 44.564277 133.223733 
L 44.564277 133.906057 
L 44.564277 134.588381 
L 44.564277 135.270705 
L 44.564277 135.953028 
L 44.564277 136.635352 
L 44.564277 137.317676 
L 44.564277 138 
L 44.564277 138.682324 
L 44.564277 139.364648 
L 44.564277 140.046972 
L 44.564277 140.729295 
L 44.564277 141.411619 
L 44.564277 142.093943 
L 44.564277 142.776267 
L 44.564277 143.458591 
L 44.564277 144.140915 
L 44.564277 144.823239 
L 44.564277 145.505562 
L 44.564277 146.187886 
L 44.564277 146.87021 
L 44.564277 147.552534 
L 44.564277 148.234858 
L 44.564277 148.917182 
L 44.564277 149.599506 
L 44.564277 150.281829 
L 44.564277 150.964153 
L 44.564277 151.646477 
L 44.564277 152.328801 
L 44.564277 153.011125 
L 44.564277 153.693449 
L 44.564277 154.375773 
L 44.564277 155.058096 
L 44.564277 155.74042 
L 44.564277 156.422744 
L 44.564277 157.105068 
L 44.564277 157.787392 
L 44.564277 158.469716 
L 44.564277 159.15204 
L 44.564277 159.834363 
L 44.564277 160.516687 
L 44.564277 161.199011 
L 44.564277 161.881335 
L 44.564277 162.563659 
L 44.564277 163.245983 
L 44.564277 163.928307 
L 44.564277 164.61063 
L 44.564277 165.292954 
L 44.564277 165.975278 
L 44.564277 166.657602 
L 44.564277 167.339926 
L 44.564277 168.02225 
L 44.564277 168.704574 
L 44.564277 169.386897 
L 44.564277 170.069221 
L 44.564277 170.751545 
L 44.564277 171.433869 
L 44.564277 172.116193 
L 44.564277 172.798517 
L 44.564277 173.480841 
L 44.564277 174.163164 
L 44.564277 174.845488 
L 44.564277 175.527812 
L 44.564277 176.210136 
L 44.564277 176.89246 
L 44.564277 177.574784 
L 44.564277 178.257108 
L 44.564277 178.939431 
L 44.564277 179.621755 
L 44.564277 180.304079 
L 44.564277 180.986403 
L 44.564277 181.668727 
L 44.564277 182.351051 
L 44.564277 183.033375 
L 44.564277 183.715698 
L 44.564277 184.398022 
L 44.564277 185.080346 
L 44.564277 185.76267 
L 44.564277 186.444994 
L 44.564277 187.127318 
L 44.564277 187.809642 
L 44.564277 188.491965 
L 44.564277 189.174289 
L 44.564277 189.856613 
L 44.564277 190.538937 
L 44.564277 191.221261 
L 44.564277 191.903585 
L 45.587763 191.903585 
L 46.611248 191.903585 
L 47.634734 191.903585 
L 48.65822 191.903585 
L 49.681706 191.903585 
L 50.705192 191.903585 
L 51.728677 191.903585 
L 52.752163 191.903585 
L 53.775649 191.903585 
L 54.799135 191.903585 
L 55.822621 191.903585 
L 56.846106 191.903585 
L 57.869592 191.903585 
L 58.893078 191.903585 
L 59.916564 191.903585 
L 60.940049 191.903585 
L 61.963535 191.903585 
L 62.987021 191.903585 
L 64.010507 191.903585 
L 65.033993 191.903585 
L 66.057478 191.903585 
L 67.080964 191.903585 
L 68.10445 191.903585 
L 69.127936 191.903585 
L 70.151422 191.903585 
L 71.174907 191.903585 
L 72.198393 191.903585 
L 73.221879 191.903585 
L 74.245365 191.903585 
L 75.26885 191.903585 
L 76.292336 191.903585 
L 77.315822 191.903585 
L 78.339308 191.903585 
L 79.362794 191.903585 
L 80.386279 191.903585 
L 81.409765 191.903585 
L 82.433251 191.903585 
L 83.456737 191.903585 
L 84.480222 191.903585 
L 85.503708 191.903585 
L 86.527194 191.903585 
L 87.55068 191.903585 
L 88.574166 191.903585 
L 89.597651 191.903585 
L 90.621137 191.903585 
L 91.644623 191.903585 
L 92.668109 191.903585 
L 93.691595 191.903585 
L 94.71508 191.903585 
L 95.738566 191.903585 
L 96.762052 191.903585 
L 97.785538 191.903585 
L 98.809023 191.903585 
L 99.832509 191.903585 
L 100.855995 191.903585 
L 101.879481 191.903585 
L 102.902967 191.903585 
L 103.926452 191.903585 
L 104.949938 191.903585 
L 105.973424 191.903585 
L 106.99691 191.903585 
L 108.020396 191.903585 
L 109.043881 191.903585 
L 110.067367 191.903585 
L 111.090853 191.903585 
L 112.114339 191.903585 
L 113.137824 191.903585 
L 114.16131 191.903585 
L 115.184796 191.903585 
L 116.208282 191.903585 
L 117.231768 191.903585 
L 118.255253 191.903585 
L 119.278739 191.903585 
L 120.302225 191.903585 
L 121.325711 191.903585 
L 122.349197 191.903585 
L 123.372682 191.903585 
L 124.396168 191.903585 
L 125.419654 191.903585 
L 126.44314 191.903585 
L 127.466625 191.903585 
L 128.490111 191.903585 
L 129.513597 191.903585 
L 130.537083 191.903585 
L 131.560569 191.903585 
L 132.584054 191.903585 
L 133.60754 191.903585 
L 134.631026 191.903585 
L 135.654512 191.903585 
L 136.677998 191.903585 
L 137.701483 191.903585 
L 138.724969 191.903585 
L 139.748455 191.903585 
L 140.771941 191.903585 
L 141.795426 191.903585 
L 142.818912 191.903585 
L 143.842398 191.903585 
L 144.865884 191.903585 
L 145.88937 191.903585 
L 146.912855 191.903585 
L 147.936341 191.903585 
L 148.959827 191.903585 
L 149.983313 191.903585 
L 151.006799 191.903585 
L 152.030284 191.903585 
L 153.05377 191.903585 
L 154.077256 191.903585 
L 155.100742 191.903585 
L 156.124227 191.903585 
L 157.147713 191.903585 
L 158.171199 191.903585 
L 159.194685 191.903585 
L 160.218171 191.903585 
L 161.241656 191.903585 
L 162.265142 191.903585 
L 163.288628 191.903585 
L 164.312114 191.903585 
L 165.3356 191.903585 
L 166.359085 191.903585 
L 167.382571 191.903585 
L 168.406057 191.903585 
L 169.429543 191.903585 
L 170.453028 191.903585 
L 171.476514 191.903585 
L 172.5 191.903585 
L 173.523486 191.903585 
L 174.546972 191.903585 
L 175.570457 191.903585 
L 176.593943 191.903585 
L 177.617429 191.903585 
L 178.640915 191.903585 
L 179.6644 191.903585 
L 180.687886 191.903585 
L 181.711372 191.903585 
L 182.734858 191.903585 
L 183.758344 191.903585 
L 184.781829 191.903585 
L 185.805315 191.903585 
L 186.828801 191.903585 
L 187.852287 191.903585 
L 188.875773 191.903585 
L 189.899258 191.903585 
L 190.922744 191.903585 
L 191.94623 191.903585 
L 192.969716 191.903585 
L 193.993201 191.903585 
L 195.016687 191.903585 
L 196.040173 191.903585 
L 197.063659 191.903585 
L 198.087145 191.903585 
L 199.11063 191.903585 
L 200.134116 191.903585 
L 201.157602 191.903585 
L 202.181088 191.903585 
L 203.204574 191.903585 
L 204.228059 191.903585 
L 205.251545 191.903585 
L 206.275031 191.903585 
L 207.298517 191.903585 
L 208.322002 191.903585 
L 209.345488 191.903585 
L 210.368974 191.903585 
L 211.39246 191.903585 
L 212.415946 191.903585 
L 213.439431 191.903585 
L 214.462917 191.903585 
L 215.486403 191.903585 
L 216.509889 191.903585 
L 217.533375 191.903585 
L 218.55686 191.903585 
L 219.580346 191.903585 
L 220.603832 191.903585 
L 221.627318 191.903585 
L 222.650803 191.903585 
L 223.674289 191.903585 
L 224.697775 191.903585 
L 225.721261 191.903585 
L 226.744747 191.903585 
L 227.768232 191.903585 
L 228.791718 191.903585 
L 229.815204 191.903585 
L 230.83869 191.903585 
L 231.862176 191.903585 
L 232.885661 191.903585 
L 233.909147 191.903585 
L 234.932633 191.903585 
L 235.956119 191.903585 
L 236.979604 191.903585 
L 238.00309 191.903585 
L 239.026576 191.903585 
L 240.050062 191.903585 
L 241.073548 191.903585 
L 242.097033 191.903585 
L 243.120519 191.903585 
L 244.144005 191.903585 
L 245.167491 191.903585 
L 246.190977 191.903585 
L 247.214462 191.903585 
L 248.237948 191.903585 
L 249.261434 191.903585 
L 250.28492 191.903585 
L 251.308405 191.903585 
L 252.331891 191.903585 
L 253.355377 191.903585 
L 254.378863 191.903585 
L 255.402349 191.903585 
L 256.425834 191.903585 
L 257.44932 191.903585 
L 258.472806 191.903585 
L 259.496292 191.903585 
L 260.519778 191.903585 
L 261.543263 191.903585 
L 262.566749 191.903585 
L 263.590235 191.903585 
L 264.613721 191.903585 
L 265.637206 191.903585 
L 266.660692 191.903585 
L 267.684178 191.903585 
L 268.707664 191.903585 
L 269.73115 191.903585 
L 270.754635 191.903585 
L 271.778121 191.903585 
L 272.801607 191.903585 
L 273.825093 191.903585 
L 274.848578 191.903585 
L 275.872064 191.903585 
L 276.89555 191.903585 
L 277.919036 191.903585 
L 278.942522 191.903585 
L 279.966007 191.903585 
L 280.989493 191.903585 
L 282.012979 191.903585 
L 283.036465 191.903585 
L 284.059951 191.903585 
L 285.083436 191.903585 
L 286.106922 191.903585 
L 287.130408 191.903585 
L 288.153894 191.903585 
L 289.177379 191.903585 
L 290.200865 191.903585 
L 291.224351 191.903585 
L 292.247837 191.903585 
L 293.271323 191.903585 
L 294.294808 191.903585 
L 295.318294 191.903585 
L 296.34178 191.903585 
L 297.365266 191.903585 
L 298.388752 191.903585 
L 299.412237 191.903585 
" style="fill:#f2f2f2;stroke:#cccccc;stroke-linejoin:miter;"/>
   </g>
   <g id="patch_3">
    <path clip-path="url(#p8ff558eff4)" d="M 172.5 149.258344 
L 172.5 148.917182 
L 172.5 148.57602 
L 172.5 148.234858 
L 172.5 147.893696 
L 172.5 147.552534 
L 172.5 147.211372 
L 172.5 146.87021 
L 172.5 146.529048 
L 172.5 146.187886 
L 172.5 145.846724 
L 172.5 145.505562 
L 172.5 145.1644 
L 172.5 144.823239 
L 172.5 144.482077 
L 172.5 144.140915 
L 172.5 143.799753 
L 172.5 143.458591 
L 172.5 143.117429 
L 172.5 142.776267 
L 172.5 142.435105 
L 172.5 142.093943 
L 172.5 141.752781 
L 172.5 141.411619 
L 172.5 141.070457 
L 172.5 140.729295 
L 172.5 140.388133 
L 172.5 140.046972 
L 172.5 139.70581 
L 172.5 139.364648 
L 172.5 139.023486 
L 172.5 138.682324 
L 172.5 138.341162 
L 172.5 138 
L 172.5 137.658838 
L 172.5 137.317676 
L 172.5 136.976514 
L 172.5 136.635352 
L 172.5 136.29419 
L 172.5 135.953028 
L 172.5 135.611867 
L 172.5 135.270705 
L 172.5 134.929543 
L 172.5 134.588381 
L 172.5 134.247219 
L 172.5 133.906057 
L 172.5 133.564895 
L 172.5 133.223733 
L 172.5 132.882571 
L 172.5 132.541409 
L 172.5 132.200247 
L 172.5 131.859085 
L 172.5 131.517923 
L 172.5 131.176761 
L 172.5 130.8356 
L 172.5 130.494438 
L 172.5 130.153276 
L 172.5 129.812114 
L 172.5 129.470952 
L 172.5 129.12979 
L 172.5 128.788628 
L 172.5 128.447466 
L 172.5 128.106304 
L 172.5 127.765142 
L 172.5 127.42398 
L 172.5 127.082818 
L 172.5 126.741656 
L 172.5 126.400494 
L 172.5 126.059333 
L 172.5 125.718171 
L 172.5 125.377009 
L 172.5 125.035847 
L 172.5 124.694685 
L 172.5 124.353523 
L 172.5 124.012361 
L 172.5 123.671199 
L 172.5 123.330037 
L 172.5 122.988875 
L 172.5 122.647713 
L 172.5 122.306551 
L 172.5 121.965389 
L 172.5 121.624227 
L 172.5 121.283066 
L 172.5 120.941904 
L 172.5 120.600742 
L 172.5 120.25958 
L 172.5 119.918418 
L 172.5 119.577256 
L 172.5 119.236094 
L 172.5 118.894932 
L 172.5 118.55377 
L 172.5 118.212608 
L 172.5 117.871446 
L 172.5 117.530284 
L 172.5 117.189122 
L 172.5 116.84796 
L 172.5 116.506799 
L 172.5 116.165637 
L 172.5 115.824475 
L 172.5 115.483313 
L 172.5 115.142151 
L 172.5 114.800989 
L 172.5 114.459827 
L 172.5 114.118665 
L 172.5 113.777503 
L 172.5 113.436341 
L 172.5 113.095179 
L 172.5 112.754017 
L 172.5 112.412855 
L 172.5 112.071693 
L 172.5 111.730532 
L 172.5 111.38937 
L 172.5 111.048208 
L 172.5 110.707046 
L 172.5 110.365884 
L 172.5 110.024722 
L 172.5 109.68356 
L 172.5 109.342398 
L 172.5 109.001236 
L 172.5 108.660074 
L 172.5 108.318912 
L 172.5 107.97775 
L 172.5 107.636588 
L 172.5 107.295426 
L 172.5 106.954265 
L 172.5 106.613103 
L 172.5 106.271941 
L 172.5 105.930779 
L 172.5 105.589617 
L 172.5 105.248455 
L 172.5 104.907293 
L 172.5 104.566131 
L 172.5 104.224969 
L 172.5 103.883807 
L 172.5 103.542645 
L 172.5 103.201483 
L 172.5 102.860321 
L 172.5 102.519159 
L 172.5 102.177998 
L 172.5 101.836836 
L 172.5 101.495674 
L 172.5 101.154512 
L 172.5 100.81335 
L 172.5 100.472188 
L 172.5 100.131026 
L 172.5 99.789864 
L 172.5 99.448702 
L 172.5 99.10754 
L 172.5 98.766378 
L 172.5 98.425216 
L 172.5 98.084054 
L 172.5 97.742892 
L 172.5 97.401731 
L 172.5 97.060569 
L 172.5 96.719407 
L 172.5 96.378245 
L 172.5 96.037083 
L 172.5 95.695921 
L 172.5 95.354759 
L 172.5 95.013597 
L 172.5 94.672435 
L 172.5 94.331273 
L 172.5 93.990111 
L 172.5 93.648949 
L 172.5 93.307787 
L 172.5 92.966625 
L 172.5 92.625464 
L 172.5 92.284302 
L 172.5 91.94314 
L 172.5 91.601978 
L 172.5 91.260816 
L 172.5 90.919654 
L 172.5 90.578492 
L 172.5 90.23733 
L 172.5 89.896168 
L 172.5 89.555006 
L 172.5 89.213844 
L 172.5 88.872682 
L 172.5 88.53152 
L 172.5 88.190358 
L 172.5 87.849197 
L 172.5 87.508035 
L 172.5 87.166873 
L 172.5 86.825711 
L 172.5 86.484549 
L 172.5 86.143387 
L 172.5 85.802225 
L 172.5 85.461063 
L 172.5 85.119901 
L 172.5 84.778739 
L 172.5 84.437577 
L 172.5 84.096415 
L 172.5 83.755253 
L 172.5 83.414091 
L 172.5 83.07293 
L 172.5 82.731768 
L 172.5 82.390606 
L 172.5 82.049444 
L 172.5 81.708282 
L 172.5 81.36712 
L 172.5 81.025958 
L 172.5 80.684796 
L 172.5 80.343634 
L 172.5 80.002472 
L 172.5 79.66131 
L 172.5 79.320148 
L 172.5 78.978986 
L 172.5 78.637824 
L 172.5 78.296663 
L 172.5 77.955501 
L 172.5 77.614339 
L 172.5 77.273177 
L 172.5 76.932015 
L 172.5 76.590853 
L 172.5 76.249691 
L 172.5 75.908529 
L 172.5 75.567367 
L 172.5 75.226205 
L 172.5 74.885043 
L 172.5 74.543881 
L 172.5 74.202719 
L 172.5 73.861557 
L 172.5 73.520396 
L 172.5 73.179234 
L 172.5 72.838072 
L 172.5 72.49691 
L 172.5 72.155748 
L 172.5 71.814586 
L 172.5 71.473424 
L 172.5 71.132262 
L 172.5 70.7911 
L 172.5 70.449938 
L 172.5 70.108776 
L 172.5 69.767614 
L 172.5 69.426452 
L 172.5 69.08529 
L 172.5 68.744129 
L 172.5 68.402967 
L 172.5 68.061805 
L 172.5 67.720643 
L 172.5 67.379481 
L 172.5 67.038319 
L 172.5 66.697157 
L 172.5 66.355995 
L 172.5 66.014833 
L 172.5 65.673671 
L 172.5 65.332509 
L 172.5 64.991347 
L 172.5 64.650185 
L 172.5 64.309023 
L 172.5 63.967862 
L 172.158838 63.967862 
L 171.817676 63.967862 
L 171.476514 63.967862 
L 171.135352 63.967862 
L 170.79419 63.967862 
L 170.453028 63.967862 
L 170.111867 63.967862 
L 169.770705 63.967862 
L 169.429543 63.967862 
L 169.088381 63.967862 
L 168.747219 63.967862 
L 168.406057 63.967862 
L 168.064895 63.967862 
L 167.723733 63.967862 
L 167.382571 63.967862 
L 167.041409 63.967862 
L 166.700247 63.967862 
L 166.359085 63.967862 
L 166.017923 63.967862 
L 165.676761 63.967862 
L 165.3356 63.967862 
L 164.994438 63.967862 
L 164.653276 63.967862 
L 164.312114 63.967862 
L 163.970952 63.967862 
L 163.62979 63.967862 
L 163.288628 63.967862 
L 162.947466 63.967862 
L 162.606304 63.967862 
L 162.265142 63.967862 
L 161.92398 63.967862 
L 161.582818 63.967862 
L 161.241656 63.967862 
L 160.900494 63.967862 
L 160.559333 63.967862 
L 160.218171 63.967862 
L 159.877009 63.967862 
L 159.535847 63.967862 
L 159.194685 63.967862 
L 158.853523 63.967862 
L 158.512361 63.967862 
L 158.171199 63.967862 
L 157.830037 63.967862 
L 157.488875 63.967862 
L 157.147713 63.967862 
L 156.806551 63.967862 
L 156.465389 63.967862 
L 156.124227 63.967862 
L 155.783066 63.967862 
L 155.441904 63.967862 
L 155.100742 63.967862 
L 154.75958 63.967862 
L 154.418418 63.967862 
L 154.077256 63.967862 
L 153.736094 63.967862 
L 153.394932 63.967862 
L 153.05377 63.967862 
L 152.712608 63.967862 
L 152.371446 63.967862 
L 152.030284 63.967862 
L 151.689122 63.967862 
L 151.34796 63.967862 
L 151.006799 63.967862 
L 150.665637 63.967862 
L 150.324475 63.967862 
L 149.983313 63.967862 
L 149.642151 63.967862 
L 149.300989 63.967862 
L 148.959827 63.967862 
L 148.618665 63.967862 
L 148.277503 63.967862 
L 147.936341 63.967862 
L 147.595179 63.967862 
L 147.254017 63.967862 
L 146.912855 63.967862 
L 146.571693 63.967862 
L 146.230532 63.967862 
L 145.88937 63.967862 
L 145.548208 63.967862 
L 145.207046 63.967862 
L 144.865884 63.967862 
L 144.524722 63.967862 
L 144.18356 63.967862 
L 143.842398 63.967862 
L 143.501236 63.967862 
L 143.160074 63.967862 
L 142.818912 63.967862 
L 142.47775 63.967862 
L 142.136588 63.967862 
L 141.795426 63.967862 
L 141.454265 63.967862 
L 141.113103 63.967862 
L 140.771941 63.967862 
L 140.430779 63.967862 
L 140.089617 63.967862 
L 139.748455 63.967862 
L 139.407293 63.967862 
L 139.066131 63.967862 
L 138.724969 63.967862 
L 138.383807 63.967862 
L 138.042645 63.967862 
L 137.701483 63.967862 
L 137.360321 63.967862 
L 137.019159 63.967862 
L 136.677998 63.967862 
L 136.336836 63.967862 
L 135.995674 63.967862 
L 135.654512 63.967862 
L 135.31335 63.967862 
L 134.972188 63.967862 
L 134.631026 63.967862 
L 134.289864 63.967862 
L 133.948702 63.967862 
L 133.60754 63.967862 
L 133.266378 63.967862 
L 132.925216 63.967862 
L 132.584054 63.967862 
L 132.242892 63.967862 
L 131.901731 63.967862 
L 131.560569 63.967862 
L 131.219407 63.967862 
L 130.878245 63.967862 
L 130.537083 63.967862 
L 130.195921 63.967862 
L 129.854759 63.967862 
L 129.513597 63.967862 
L 129.172435 63.967862 
L 128.831273 63.967862 
L 128.490111 63.967862 
L 128.148949 63.967862 
L 127.807787 63.967862 
L 127.466625 63.967862 
L 127.125464 63.967862 
L 126.784302 63.967862 
L 126.44314 63.967862 
L 126.101978 63.967862 
L 125.760816 63.967862 
L 125.419654 63.967862 
L 125.078492 63.967862 
L 124.73733 63.967862 
L 124.396168 63.967862 
L 124.055006 63.967862 
L 123.713844 63.967862 
L 123.372682 63.967862 
L 123.03152 63.967862 
L 122.690358 63.967862 
L 122.349197 63.967862 
L 122.008035 63.967862 
L 121.666873 63.967862 
L 121.325711 63.967862 
L 120.984549 63.967862 
L 120.643387 63.967862 
L 120.302225 63.967862 
L 119.961063 63.967862 
L 119.619901 63.967862 
L 119.278739 63.967862 
L 118.937577 63.967862 
L 118.596415 63.967862 
L 118.255253 63.967862 
L 117.914091 63.967862 
L 117.57293 63.967862 
L 117.231768 63.967862 
L 116.890606 63.967862 
L 116.549444 63.967862 
L 116.208282 63.967862 
L 115.86712 63.967862 
L 115.525958 63.967862 
L 115.184796 63.967862 
L 114.843634 63.967862 
L 114.502472 63.967862 
L 114.16131 63.967862 
L 113.820148 63.967862 
L 113.478986 63.967862 
L 113.137824 63.967862 
L 112.796663 63.967862 
L 112.455501 63.967862 
L 112.114339 63.967862 
L 111.773177 63.967862 
L 111.432015 63.967862 
L 111.090853 63.967862 
L 110.749691 63.967862 
L 110.408529 63.967862 
L 110.067367 63.967862 
L 109.726205 63.967862 
L 109.385043 63.967862 
L 109.043881 63.967862 
L 108.702719 63.967862 
L 108.361557 63.967862 
L 108.020396 63.967862 
L 107.679234 63.967862 
L 107.338072 63.967862 
L 106.99691 63.967862 
L 106.655748 63.967862 
L 106.314586 63.967862 
L 105.973424 63.967862 
L 105.632262 63.967862 
L 105.2911 63.967862 
L 104.949938 63.967862 
L 104.608776 63.967862 
L 104.267614 63.967862 
L 103.926452 63.967862 
L 103.58529 63.967862 
L 103.244129 63.967862 
L 102.902967 63.967862 
L 102.561805 63.967862 
L 102.220643 63.967862 
L 101.879481 63.967862 
L 101.538319 63.967862 
L 101.197157 63.967862 
L 100.855995 63.967862 
L 100.514833 63.967862 
L 100.173671 63.967862 
L 99.832509 63.967862 
L 99.491347 63.967862 
L 99.150185 63.967862 
L 98.809023 63.967862 
L 98.467862 63.967862 
L 98.1267 63.967862 
L 97.785538 63.967862 
L 97.444376 63.967862 
L 97.103214 63.967862 
L 96.762052 63.967862 
L 96.42089 63.967862 
L 96.079728 63.967862 
L 95.738566 63.967862 
L 95.397404 63.967862 
L 95.056242 63.967862 
L 94.71508 63.967862 
L 94.373918 63.967862 
L 94.032756 63.967862 
L 93.691595 63.967862 
L 93.350433 63.967862 
L 93.009271 63.967862 
L 92.668109 63.967862 
L 92.326947 63.967862 
L 91.985785 63.967862 
L 91.644623 63.967862 
L 91.303461 63.967862 
L 90.962299 63.967862 
L 90.621137 63.967862 
L 90.279975 63.967862 
L 89.938813 63.967862 
L 89.597651 63.967862 
L 89.256489 63.967862 
L 88.915328 63.967862 
L 88.574166 63.967862 
L 88.233004 63.967862 
L 87.891842 63.967862 
L 87.55068 63.967862 
L 87.209518 63.967862 
L 87.209518 64.309023 
L 87.209518 64.650185 
L 87.209518 64.991347 
L 87.209518 65.332509 
L 87.209518 65.673671 
L 87.209518 66.014833 
L 87.209518 66.355995 
L 87.209518 66.697157 
L 87.209518 67.038319 
L 87.209518 67.379481 
L 87.209518 67.720643 
L 87.209518 68.061805 
L 87.209518 68.402967 
L 87.209518 68.744129 
L 87.209518 69.08529 
L 87.209518 69.426452 
L 87.209518 69.767614 
L 87.209518 70.108776 
L 87.209518 70.449938 
L 87.209518 70.7911 
L 87.209518 71.132262 
L 87.209518 71.473424 
L 87.209518 71.814586 
L 87.209518 72.155748 
L 87.209518 72.49691 
L 87.209518 72.838072 
L 87.209518 73.179234 
L 87.209518 73.520396 
L 87.209518 73.861557 
L 87.209518 74.202719 
L 87.209518 74.543881 
L 87.209518 74.885043 
L 87.209518 75.226205 
L 87.209518 75.567367 
L 87.209518 75.908529 
L 87.209518 76.249691 
L 87.209518 76.590853 
L 87.209518 76.932015 
L 87.209518 77.273177 
L 87.209518 77.614339 
L 87.209518 77.955501 
L 87.209518 78.296663 
L 87.209518 78.637824 
L 87.209518 78.978986 
L 87.209518 79.320148 
L 87.209518 79.66131 
L 87.209518 80.002472 
L 87.209518 80.343634 
L 87.209518 80.684796 
L 87.209518 81.025958 
L 87.209518 81.36712 
L 87.209518 81.708282 
L 87.209518 82.049444 
L 87.209518 82.390606 
L 87.209518 82.731768 
L 87.209518 83.07293 
L 87.209518 83.414091 
L 87.209518 83.755253 
L 87.209518 84.096415 
L 87.209518 84.437577 
L 87.209518 84.778739 
L 87.209518 85.119901 
L 87.209518 85.461063 
L 87.209518 85.802225 
L 87.209518 86.143387 
L 87.209518 86.484549 
L 87.209518 86.825711 
L 87.209518 87.166873 
L 87.209518 87.508035 
L 87.209518 87.849197 
L 87.209518 88.190358 
L 87.209518 88.53152 
L 87.209518 88.872682 
L 87.209518 89.213844 
L 87.209518 89.555006 
L 87.209518 89.896168 
L 87.209518 90.23733 
L 87.209518 90.578492 
L 87.209518 90.919654 
L 87.209518 91.260816 
L 87.209518 91.601978 
L 87.209518 91.94314 
L 87.209518 92.284302 
L 87.209518 92.625464 
L 87.209518 92.966625 
L 87.209518 93.307787 
L 87.209518 93.648949 
L 87.209518 93.990111 
L 87.209518 94.331273 
L 87.209518 94.672435 
L 87.209518 95.013597 
L 87.209518 95.354759 
L 87.209518 95.695921 
L 87.209518 96.037083 
L 87.209518 96.378245 
L 87.209518 96.719407 
L 87.209518 97.060569 
L 87.209518 97.401731 
L 87.209518 97.742892 
L 87.209518 98.084054 
L 87.209518 98.425216 
L 87.209518 98.766378 
L 87.209518 99.10754 
L 87.209518 99.448702 
L 87.209518 99.789864 
L 87.209518 100.131026 
L 87.209518 100.472188 
L 87.209518 100.81335 
L 87.209518 101.154512 
L 87.209518 101.495674 
L 87.209518 101.836836 
L 87.209518 102.177998 
L 87.209518 102.519159 
L 87.209518 102.860321 
L 87.209518 103.201483 
L 87.209518 103.542645 
L 87.209518 103.883807 
L 87.209518 104.224969 
L 87.209518 104.566131 
L 87.209518 104.907293 
L 87.209518 105.248455 
L 87.209518 105.589617 
L 87.209518 105.930779 
L 87.209518 106.271941 
L 87.209518 106.613103 
L 87.209518 106.954265 
L 87.209518 107.295426 
L 87.209518 107.636588 
L 87.209518 107.97775 
L 87.209518 108.318912 
L 87.209518 108.660074 
L 87.209518 109.001236 
L 87.209518 109.342398 
L 87.209518 109.68356 
L 87.209518 110.024722 
L 87.209518 110.365884 
L 87.209518 110.707046 
L 87.209518 111.048208 
L 87.209518 111.38937 
L 87.209518 111.730532 
L 87.209518 112.071693 
L 87.209518 112.412855 
L 87.209518 112.754017 
L 87.209518 113.095179 
L 87.209518 113.436341 
L 87.209518 113.777503 
L 87.209518 114.118665 
L 87.209518 114.459827 
L 87.209518 114.800989 
L 87.209518 115.142151 
L 87.209518 115.483313 
L 87.209518 115.824475 
L 87.209518 116.165637 
L 87.209518 116.506799 
L 87.209518 116.84796 
L 87.209518 117.189122 
L 87.209518 117.530284 
L 87.209518 117.871446 
L 87.209518 118.212608 
L 87.209518 118.55377 
L 87.209518 118.894932 
L 87.209518 119.236094 
L 87.209518 119.577256 
L 87.209518 119.918418 
L 87.209518 120.25958 
L 87.209518 120.600742 
L 87.209518 120.941904 
L 87.209518 121.283066 
L 87.209518 121.624227 
L 87.209518 121.965389 
L 87.209518 122.306551 
L 87.209518 122.647713 
L 87.209518 122.988875 
L 87.209518 123.330037 
L 87.209518 123.671199 
L 87.209518 124.012361 
L 87.209518 124.353523 
L 87.209518 124.694685 
L 87.209518 125.035847 
L 87.209518 125.377009 
L 87.209518 125.718171 
L 87.209518 126.059333 
L 87.209518 126.400494 
L 87.209518 126.741656 
L 87.209518 127.082818 
L 87.209518 127.42398 
L 87.209518 127.765142 
L 87.209518 128.106304 
L 87.209518 128.447466 
L 87.209518 128.788628 
L 87.209518 129.12979 
L 87.209518 129.470952 
L 87.209518 129.812114 
L 87.209518 130.153276 
L 87.209518 130.494438 
L 87.209518 130.8356 
L 87.209518 131.176761 
L 87.209518 131.517923 
L 87.209518 131.859085 
L 87.209518 132.200247 
L 87.209518 132.541409 
L 87.209518 132.882571 
L 87.209518 133.223733 
L 87.209518 133.564895 
L 87.209518 133.906057 
L 87.209518 134.247219 
L 87.209518 134.588381 
L 87.209518 134.929543 
L 87.209518 135.270705 
L 87.209518 135.611867 
L 87.209518 135.953028 
L 87.209518 136.29419 
L 87.209518 136.635352 
L 87.209518 136.976514 
L 87.209518 137.317676 
L 87.209518 137.658838 
L 87.209518 138 
L 87.209518 138.341162 
L 87.209518 138.682324 
L 87.209518 139.023486 
L 87.209518 139.364648 
L 87.209518 139.70581 
L 87.209518 140.046972 
L 87.209518 140.388133 
L 87.209518 140.729295 
L 87.209518 141.070457 
L 87.209518 141.411619 
L 87.209518 141.752781 
L 87.209518 142.093943 
L 87.209518 142.435105 
L 87.209518 142.776267 
L 87.209518 143.117429 
L 87.209518 143.458591 
L 87.209518 143.799753 
L 87.209518 144.140915 
L 87.209518 144.482077 
L 87.209518 144.823239 
L 87.209518 145.1644 
L 87.209518 145.505562 
L 87.209518 145.846724 
L 87.209518 146.187886 
L 87.209518 146.529048 
L 87.209518 146.87021 
L 87.209518 147.211372 
L 87.209518 147.552534 
L 87.209518 147.893696 
L 87.209518 148.234858 
L 87.209518 148.57602 
L 87.209518 148.917182 
L 87.209518 149.258344 
L 87.55068 149.258344 
L 87.891842 149.258344 
L 88.233004 149.258344 
L 88.574166 149.258344 
L 88.915328 149.258344 
L 89.256489 149.258344 
L 89.597651 149.258344 
L 89.938813 149.258344 
L 90.279975 149.258344 
L 90.621137 149.258344 
L 90.962299 149.258344 
L 91.303461 149.258344 
L 91.644623 149.258344 
L 91.985785 149.258344 
L 92.326947 149.258344 
L 92.668109 149.258344 
L 93.009271 149.258344 
L 93.350433 149.258344 
L 93.691595 149.258344 
L 94.032756 149.258344 
L 94.373918 149.258344 
L 94.71508 149.258344 
L 95.056242 149.258344 
L 95.397404 149.258344 
L 95.738566 149.258344 
L 96.079728 149.258344 
L 96.42089 149.258344 
L 96.762052 149.258344 
L 97.103214 149.258344 
L 97.444376 149.258344 
L 97.785538 149.258344 
L 98.1267 149.258344 
L 98.467862 149.258344 
L 98.809023 149.258344 
L 99.150185 149.258344 
L 99.491347 149.258344 
L 99.832509 149.258344 
L 100.173671 149.258344 
L 100.514833 149.258344 
L 100.855995 149.258344 
L 101.197157 149.258344 
L 101.538319 149.258344 
L 101.879481 149.258344 
L 102.220643 149.258344 
L 102.561805 149.258344 
L 102.902967 149.258344 
L 103.244129 149.258344 
L 103.58529 149.258344 
L 103.926452 149.258344 
L 104.267614 149.258344 
L 104.608776 149.258344 
L 104.949938 149.258344 
L 105.2911 149.258344 
L 105.632262 149.258344 
L 105.973424 149.258344 
L 106.314586 149.258344 
L 106.655748 149.258344 
L 106.99691 149.258344 
L 107.338072 149.258344 
L 107.679234 149.258344 
L 108.020396 149.258344 
L 108.361557 149.258344 
L 108.702719 149.258344 
L 109.043881 149.258344 
L 109.385043 149.258344 
L 109.726205 149.258344 
L 110.067367 149.258344 
L 110.408529 149.258344 
L 110.749691 149.258344 
L 111.090853 149.258344 
L 111.432015 149.258344 
L 111.773177 149.258344 
L 112.114339 149.258344 
L 112.455501 149.258344 
L 112.796663 149.258344 
L 113.137824 149.258344 
L 113.478986 149.258344 
L 113.820148 149.258344 
L 114.16131 149.258344 
L 114.502472 149.258344 
L 114.843634 149.258344 
L 115.184796 149.258344 
L 115.525958 149.258344 
L 115.86712 149.258344 
L 116.208282 149.258344 
L 116.549444 149.258344 
L 116.890606 149.258344 
L 117.231768 149.258344 
L 117.57293 149.258344 
L 117.914091 149.258344 
L 118.255253 149.258344 
L 118.596415 149.258344 
L 118.937577 149.258344 
L 119.278739 149.258344 
L 119.619901 149.258344 
L 119.961063 149.258344 
L 120.302225 149.258344 
L 120.643387 149.258344 
L 120.984549 149.258344 
L 121.325711 149.258344 
L 121.666873 149.258344 
L 122.008035 149.258344 
L 122.349197 149.258344 
L 122.690358 149.258344 
L 123.03152 149.258344 
L 123.372682 149.258344 
L 123.713844 149.258344 
L 124.055006 149.258344 
L 124.396168 149.258344 
L 124.73733 149.258344 
L 125.078492 149.258344 
L 125.419654 149.258344 
L 125.760816 149.258344 
L 126.101978 149.258344 
L 126.44314 149.258344 
L 126.784302 149.258344 
L 127.125464 149.258344 
L 127.466625 149.258344 
L 127.807787 149.258344 
L 128.148949 149.258344 
L 128.490111 149.258344 
L 128.831273 149.258344 
L 129.172435 149.258344 
L 129.513597 149.258344 
L 129.854759 149.258344 
L 130.195921 149.258344 
L 130.537083 149.258344 
L 130.878245 149.258344 
L 131.219407 149.258344 
L 131.560569 149.258344 
L 131.901731 149.258344 
L 132.242892 149.258344 
L 132.584054 149.258344 
L 132.925216 149.258344 
L 133.266378 149.258344 
L 133.60754 149.258344 
L 133.948702 149.258344 
L 134.289864 149.258344 
L 134.631026 149.258344 
L 134.972188 149.258344 
L 135.31335 149.258344 
L 135.654512 149.258344 
L 135.995674 149.258344 
L 136.336836 149.258344 
L 136.677998 149.258344 
L 137.019159 149.258344 
L 137.360321 149.258344 
L 137.701483 149.258344 
L 138.042645 149.258344 
L 138.383807 149.258344 
L 138.724969 149.258344 
L 139.066131 149.258344 
L 139.407293 149.258344 
L 139.748455 149.258344 
L 140.089617 149.258344 
L 140.430779 149.258344 
L 140.771941 149.258344 
L 141.113103 149.258344 
L 141.454265 149.258344 
L 141.795426 149.258344 
L 142.136588 149.258344 
L 142.47775 149.258344 
L 142.818912 149.258344 
L 143.160074 149.258344 
L 143.501236 149.258344 
L 143.842398 149.258344 
L 144.18356 149.258344 
L 144.524722 149.258344 
L 144.865884 149.258344 
L 145.207046 149.258344 
L 145.548208 149.258344 
L 145.88937 149.258344 
L 146.230532 149.258344 
L 146.571693 149.258344 
L 146.912855 149.258344 
L 147.254017 149.258344 
L 147.595179 149.258344 
L 147.936341 149.258344 
L 148.277503 149.258344 
L 148.618665 149.258344 
L 148.959827 149.258344 
L 149.300989 149.258344 
L 149.642151 149.258344 
L 149.983313 149.258344 
L 150.324475 149.258344 
L 150.665637 149.258344 
L 151.006799 149.258344 
L 151.34796 149.258344 
L 151.689122 149.258344 
L 152.030284 149.258344 
L 152.371446 149.258344 
L 152.712608 149.258344 
L 153.05377 149.258344 
L 153.394932 149.258344 
L 153.736094 149.258344 
L 154.077256 149.258344 
L 154.418418 149.258344 
L 154.75958 149.258344 
L 155.100742 149.258344 
L 155.441904 149.258344 
L 155.783066 149.258344 
L 156.124227 149.258344 
L 156.465389 149.258344 
L 156.806551 149.258344 
L 157.147713 149.258344 
L 157.488875 149.258344 
L 157.830037 149.258344 
L 158.171199 149.258344 
L 158.512361 149.258344 
L 158.853523 149.258344 
L 159.194685 149.258344 
L 159.535847 149.258344 
L 159.877009 149.258344 
L 160.218171 149.258344 
L 160.559333 149.258344 
L 160.900494 149.258344 
L 161.241656 149.258344 
L 161.582818 149.258344 
L 161.92398 149.258344 
L 162.265142 149.258344 
L 162.606304 149.258344 
L 162.947466 149.258344 
L 163.288628 149.258344 
L 163.62979 149.258344 
L 163.970952 149.258344 
L 164.312114 149.258344 
L 164.653276 149.258344 
L 164.994438 149.258344 
L 165.3356 149.258344 
L 165.676761 149.258344 
L 166.017923 149.258344 
L 166.359085 149.258344 
L 166.700247 149.258344 
L 167.041409 149.258344 
L 167.382571 149.258344 
L 167.723733 149.258344 
L 168.064895 149.258344 
L 168.406057 149.258344 
L 168.747219 149.258344 
L 169.088381 149.258344 
L 169.429543 149.258344 
L 169.770705 149.258344 
L 170.111867 149.258344 
L 170.453028 149.258344 
L 170.79419 149.258344 
L 171.135352 149.258344 
L 171.476514 149.258344 
L 171.817676 149.258344 
L 172.158838 149.258344 
" style="fill:#ffffff;stroke:#cccccc;stroke-linejoin:miter;"/>
   </g>
   <g id="patch_4">
    <path clip-path="url(#p8ff558eff4)" d="M 279.113103 106.613103 
L 278.991943 103.400773 
L 278.629154 100.206696 
L 278.026795 97.049022 
L 277.18829 93.945693 
L 276.118404 90.914342 
L 274.823215 87.972195 
L 273.310084 85.13597 
L 271.587608 82.421782 
L 269.665574 79.845053 
L 267.554904 77.420426 
L 265.267592 75.161678 
L 262.816634 73.081643 
L 260.215956 71.19214 
L 257.480338 69.503907 
L 254.625322 68.026535 
L 251.667132 66.76842 
L 248.622577 65.73671 
L 245.508956 64.937268 
L 242.343962 64.374636 
L 239.145578 64.052012 
L 235.93198 63.971229 
L 232.721426 64.132745 
L 229.53216 64.535643 
L 226.382305 65.177633 
L 223.289757 66.055068 
L 220.27209 67.162962 
L 217.346451 68.49502 
L 214.529464 70.043672 
L 211.837134 71.800118 
L 209.284762 73.75438 
L 206.886849 75.895351 
L 204.657022 78.210866 
L 202.60795 80.687769 
L 200.751276 83.311984 
L 199.097552 86.068601 
L 197.656173 88.941956 
L 196.43533 91.915722 
L 195.44196 94.973002 
L 194.681707 98.096422 
L 194.158891 101.268237 
L 193.876483 104.470422 
L 193.836088 107.684782 
L 194.037936 110.893052 
L 194.480878 114.077003 
L 195.162399 117.218543 
L 196.078626 120.29982 
L 197.224353 123.303327 
L 198.593069 126.211997 
L 200.176997 129.009301 
L 201.967137 131.679346 
L 203.953317 134.20696 
L 206.124251 136.57778 
L 208.467604 138.778335 
L 210.970059 140.79612 
L 213.617399 142.61967 
L 216.394579 144.238625 
L 219.285819 145.643783 
L 222.274692 146.827161 
L 225.344213 147.782035 
L 228.47694 148.502979 
L 231.655074 148.985896 
L 234.860555 149.228043 
L 238.075168 149.228043 
L 241.280649 148.985896 
L 244.458783 148.502979 
L 247.59151 147.782035 
L 250.661031 146.827161 
L 253.649904 145.643783 
L 256.541144 144.238625 
L 259.318324 142.61967 
L 261.965664 140.79612 
L 264.468119 138.778335 
L 266.811472 136.57778 
L 268.982406 134.20696 
L 270.968586 131.679346 
L 272.758726 129.009301 
L 274.342654 126.211997 
L 275.71137 123.303327 
L 276.857097 120.29982 
L 277.773324 117.218543 
L 278.454845 114.077003 
L 278.897787 110.893052 
L 279.099635 107.684782 
L 279.113103 106.613103 
L 279.113103 106.613103 
" style="fill:none;stroke:#000000;stroke-linejoin:miter;"/>
   </g>
   <g id="patch_5">
    <path clip-path="url(#p8ff558eff4)" d="M 240.732385 60.982693 
L 232.203337 63.967863 
L 240.732387 66.953027 
z
" style="stroke:#000000;stroke-linejoin:miter;"/>
   </g>
   <g id="patch_6">
    <path clip-path="url(#p8ff558eff4)" d="M 232.203338 152.243512 
L 240.732386 149.258342 
L 232.203337 146.273178 
z
" style="stroke:#000000;stroke-linejoin:miter;"/>
   </g>
   <g id="line2d_1">
    <defs>
     <path d="M -3 0 
L 3 0 
M 0 3 
L 0 -3 
" id="ma07dd782de" style="stroke:#000000;"/>
    </defs>
    <g clip-path="url(#p8ff558eff4)">
     <use style="stroke:#000000;" x="236.467862" xlink:href="#ma07dd782de" y="106.613103"/>
    </g>
   </g>
   <g id="line2d_2">
    <g clip-path="url(#p8ff558eff4)">
     <use style="stroke:#000000;" x="215.145241" xlink:href="#ma07dd782de" y="127.935723"/>
    </g>
   </g>
   <g id="line2d_3">
    <path clip-path="url(#p8ff558eff4)" d="M 236.467862 106.613103 
L 279.113103 106.613103 
" style="fill:none;stroke:#000000;stroke-linecap:square;stroke-width:0.5;"/>
   </g>
   <g id="text_1">
    <!-- $\Omega$ -->
    <defs>
     <path d="M 63.09375 14.609375 
L 61.296875 14.609375 
C 60.40625 10.015625 60.09375 8.796875 59.59375 7.203125 
C 59.09375 5.703125 58.796875 4.90625 53 4.90625 
L 44.90625 4.90625 
C 46 10.71875 48.40625 15.015625 52.59375 21.734375 
C 57.796875 30.234375 62.09375 37.140625 62.09375 45.46875 
C 62.09375 58.984375 49.296875 70 33.40625 70 
C 17.09375 70 4.59375 58.875 4.59375 45.46875 
C 4.59375 37.140625 9 30.03125 13.90625 22.125 
C 18.296875 15.015625 20.703125 10.71875 21.796875 4.90625 
L 13.703125 4.90625 
C 8 4.90625 7.703125 5.703125 7.203125 7.09375 
C 6.59375 8.703125 6.40625 10.015625 5.40625 14.609375 
L 3.59375 14.609375 
L 6.5 0 
L 21.59375 0 
C 23.703125 0 23.796875 0.09375 23.796875 1.59375 
C 23.796875 8.71875 20.09375 18.03125 18.40625 22.328125 
C 15.203125 30.140625 12.203125 37.75 12.203125 45.5625 
C 12.203125 60.484375 22.90625 68.390625 33.296875 68.390625 
C 44.203125 68.390625 54.5 60.171875 54.5 45.5625 
C 54.5 37.84375 51.796875 30.953125 48.09375 21.828125 
C 46.5 17.734375 42.90625 8.609375 42.90625 1.59375 
C 42.90625 0 43 0 45.09375 0 
L 60.203125 0 
z
" id="CMR17-10"/>
    </defs>
    <g transform="translate(126.257136 51.532687)scale(0.1 -0.1)">
     <use transform="scale(0.996264)" xlink:href="#CMR17-10"/>
    </g>
   </g>
   <g id="text_2">
    <!-- $\gamma$ -->
    <defs>
     <path d="M 37.796875 11.875 
C 37.59375 16.734375 37.40625 24.390625 33.59375 33.328125 
C 31.59375 38.3125 28.203125 43.5625 20.90625 43.5625 
C 8.59375 43.5625 1.90625 27.96875 1.90625 25.390625 
C 1.90625 24.484375 2.59375 24.484375 2.90625 24.484375 
C 3.796875 24.484375 3.796875 24.6875 4.296875 25.984375 
C 6.40625 32.140625 12.796875 37 19.703125 37 
C 33.59375 37 35.59375 21.609375 35.59375 11.78125 
C 35.59375 5.5 34.90625 3.4375 34.296875 1.4375 
C 32.40625 -4.71875 29.09375 -17.03125 29.09375 -19.8125 
C 29.09375 -20.609375 29.40625 -21.5 30.203125 -21.5 
C 31.703125 -21.5 32.59375 -18.21875 33.703125 -14.25 
C 36.09375 -5.515625 36.703125 -1.140625 37.203125 2.828125 
C 37.5 5.21875 43.203125 21.625 51.09375 37.21875 
C 51.796875 38.796875 53.203125 41.484375 53.203125 41.78125 
C 53.203125 41.875 53.09375 42.578125 52.203125 42.578125 
C 52 42.578125 51.5 42.578125 51.296875 42.171875 
C 51.09375 41.984375 47.59375 35.21875 44.59375 28.46875 
C 43.09375 25.09375 41.09375 20.625 37.796875 11.875 
z
" id="CMMI12-13"/>
    </defs>
    <g transform="translate(233.888879 55.797211)scale(0.1 -0.1)">
     <use transform="scale(0.996264)" xlink:href="#CMMI12-13"/>
    </g>
   </g>
   <g id="text_3">
    <!-- $c$ -->
    <defs>
     <path d="M 39.09375 37.984375 
C 37.203125 37.984375 36.296875 37.984375 34.90625 36.796875 
C 34.296875 36.296875 33.203125 34.796875 33.203125 33.203125 
C 33.203125 31.203125 34.703125 30 36.59375 30 
C 39 30 41.703125 31.9375 41.703125 35.8125 
C 41.703125 40.4375 37.09375 44 30.203125 44 
C 17.09375 44 4 29.734375 4 15.5625 
C 4 6.890625 9.40625 -1 19.59375 -1 
C 33.203125 -1 41.796875 9.71875 41.796875 11.03125 
C 41.796875 11.625 41.203125 12.125 40.796875 12.125 
C 40.5 12.125 40.40625 12.03125 39.5 11.140625 
C 33.09375 2.53125 23.59375 1 19.796875 1 
C 12.90625 1 10.703125 6.96875 10.703125 11.9375 
C 10.703125 15.4375 12.40625 25.078125 16 31.859375 
C 18.59375 36.53125 24 41.90625 30.296875 41.90625 
C 31.59375 41.90625 37.09375 41.90625 39.09375 37.984375 
z
" id="CMMI12-99"/>
    </defs>
    <g transform="translate(234.312165 98.442452)scale(0.1 -0.1)">
     <use transform="scale(0.996264)" xlink:href="#CMMI12-99"/>
    </g>
   </g>
   <g id="text_4">
    <!-- $r$ -->
    <defs>
     <path d="M 38.90625 40.8125 
C 35.796875 40.21875 34.203125 38.015625 34.203125 35.828125 
C 34.203125 33.421875 36.09375 32.625 37.5 32.625 
C 40.296875 32.625 42.59375 35.03125 42.59375 38.015625 
C 42.59375 41.21875 39.5 44 34.5 44 
C 30.5 44 25.90625 42.203125 21.703125 36.125 
C 21 41.40625 17 44 13 44 
C 9.09375 44 7.09375 41.015625 5.90625 38.8125 
C 4.203125 35.21875 2.703125 29.234375 2.703125 28.734375 
C 2.703125 28.34375 3.09375 27.84375 3.796875 27.84375 
C 4.59375 27.84375 4.703125 27.9375 5.296875 30.234375 
C 6.796875 36.21875 8.703125 42.015625 12.703125 42.015625 
C 15.09375 42.015625 15.796875 40.3125 15.796875 37.421875 
C 15.796875 35.21875 14.796875 31.328125 14.09375 28.234375 
L 11.296875 17.46875 
C 10.90625 15.5625 9.796875 11.078125 9.296875 9.28125 
C 8.59375 6.6875 7.5 2 7.5 1.5 
C 7.5 0.09375 8.59375 -1 10.09375 -1 
C 11.203125 -1 13.09375 -0.296875 13.703125 1.703125 
C 14 2.5 17.703125 17.5625 18.296875 19.859375 
C 18.796875 22.046875 19.40625 24.15625 19.90625 26.34375 
C 20.296875 27.734375 20.703125 29.34375 21 30.640625 
C 21.296875 31.53125 24 36.421875 26.5 38.625 
C 27.703125 39.71875 30.296875 42.015625 34.40625 42.015625 
C 36 42.015625 37.59375 41.71875 38.90625 40.8125 
z
" id="CMMI12-114"/>
    </defs>
    <g transform="translate(255.543119 98.442452)scale(0.1 -0.1)">
     <use transform="scale(0.996264)" xlink:href="#CMMI12-114"/>
    </g>
   </g>
   <g id="text_5">
    <!-- $z$ -->
    <defs>
     <path d="M 12.703125 7.59375 
C 17 12.546875 20.5 15.6875 25.5 20.25 
C 31.5 25.5 34.09375 28.015625 35.5 29.546875 
C 42.5 36.53125 46 42.390625 46 43.1875 
C 46 44 45.203125 44 45 44 
C 44.296875 44 44.09375 43.640625 43.59375 42.96875 
C 41.09375 38.96875 38.703125 36.984375 36.09375 36.984375 
C 34 36.984375 32.90625 37.828125 31 40.078125 
C 28.90625 42.421875 27.203125 44 24.296875 44 
C 17 44 12.59375 35.265625 12.59375 33.25 
C 12.59375 32.9375 12.703125 32.3125 13.59375 32.3125 
C 14.40625 32.3125 14.5 32.671875 14.796875 33.328125 
C 16.5 37.0625 21.296875 37.71875 23.203125 37.71875 
C 25.296875 37.71875 27.296875 37.125 29.40625 36.359375 
C 33.203125 35 34.796875 35 35.796875 35 
C 36.5 35 36.90625 35 37.40625 35.09375 
C 34.09375 31.15625 28.703125 26.296875 24.203125 22.15625 
L 14.09375 12.75 
C 8 6.484375 4.296875 0.515625 4.296875 -0.1875 
C 4.296875 -0.796875 4.796875 -1 5.40625 -1 
C 6 -1 6.09375 -0.890625 6.796875 0.21875 
C 8.40625 2.546875 11.59375 6 15.296875 6 
C 17.40625 6 18.40625 5.34375 20.40625 3.015625 
C 22.296875 0.953125 24 -1 27.203125 -1 
C 37 -1 42.59375 11.4375 42.59375 13.6875 
C 42.59375 14.109375 42.5 14.71875 41.5 14.71875 
C 40.703125 14.71875 40.59375 14.328125 40.296875 13.359375 
C 38.09375 7.625 32.203125 5.28125 28.296875 5.28125 
C 26.203125 5.28125 24.203125 5.875 22.09375 6.640625 
C 18.09375 8 17 8 15.703125 8 
C 14.703125 8 13.59375 8 12.703125 7.59375 
z
" id="CMMI12-122"/>
    </defs>
    <g transform="translate(212.828679 119.765073)scale(0.1 -0.1)">
     <use transform="scale(0.996264)" xlink:href="#CMMI12-122"/>
    </g>
   </g>
  </g>
 </g>
 <defs>
  <clipPath id="p8ff558eff4">
   <rect height="170.580964" width="276" x="34.5" y="21.322621"/>
  </clipPath>
 </defs>
</svg>
