<?xml version="1.0" encoding="utf-8" standalone="no"?>
<!DOCTYPE svg PUBLIC "-//W3C//DTD SVG 1.1//EN"
  "http://www.w3.org/Graphics/SVG/1.1/DTD/svg11.dtd">
<!-- Created with matplotlib (http://matplotlib.org/) -->
<svg height="213pt" version="1.1" viewBox="0 0 345 213" width="345pt" xmlns="http://www.w3.org/2000/svg" xmlns:xlink="http://www.w3.org/1999/xlink">
 <defs>
  <style type="text/css">
*{stroke-linecap:butt;stroke-linejoin:round;}
  </style>
 </defs>
 <g id="figure_1">
  <g id="patch_1">
   <path d="M 0 213.226205 
L 345 213.226205 
L 345 0 
L 0 0 
z
" style="fill:#ffffff;"/>
  </g>
  <g id="axes_1">
   <g id="patch_2">
    <path clip-path="url(#p7d2e7dae5d)" d="M 209.945116 178.696518 
L 209.945116 122.54675 
L 208.04577 122.047935 
L 206.220486 121.323595 
L 204.495933 120.384314 
L 202.89731 119.243817 
L 201.447975 117.918767 
L 200.169104 116.428526 
L 199.079383 114.794867 
L 198.194735 113.041662 
L 197.528086 111.194527 
L 197.089177 109.28045 
L 196.88442 107.3274 
L 196.916807 105.363913 
L 197.185866 103.418678 
L 197.687664 101.520119 
L 198.41487 99.695975 
L 199.356859 97.9729 
L 200.499866 96.37607 
L 201.827191 94.928818 
L 203.319439 93.652289 
L 204.954807 92.565136 
L 206.709399 91.683243 
L 208.55758 91.019496 
L 209.945116 90.679455 
L 209.945116 34.529688 
L 206.354912 32.775441 
L 202.682783 31.199874 
L 198.937614 29.806801 
L 195.128468 28.599592 
L 191.264563 27.581169 
L 187.35525 26.753996 
L 183.409989 26.120075 
L 179.438326 25.680939 
L 175.449873 25.437653 
L 171.454282 25.390803 
L 167.461221 25.540505 
L 163.480354 25.886395 
L 159.521313 26.427636 
L 155.59368 27.162919 
L 151.706958 28.090464 
L 147.870554 29.208027 
L 144.093751 30.512903 
L 140.385688 32.001935 
L 136.755339 33.671519 
L 133.211489 35.517615 
L 129.762714 37.535756 
L 126.417359 39.721058 
L 123.18352 42.068233 
L 120.069022 44.5716 
L 117.081403 47.225103 
L 114.227892 50.022319 
L 111.515394 52.956479 
L 108.950473 56.020484 
L 106.539336 59.206919 
L 104.287819 62.508072 
L 102.201368 65.915955 
L 100.285034 69.422322 
L 98.543454 73.018687 
L 96.980842 76.696348 
L 95.60098 80.446405 
L 94.407206 84.259782 
L 93.40241 88.127253 
L 92.589023 92.039458 
L 91.969013 95.986929 
L 91.543881 99.960115 
L 91.314656 103.949401 
L 91.281892 107.945133 
L 91.445668 111.937641 
L 91.805589 115.917264 
L 92.360783 119.874372 
L 93.109906 123.799389 
L 94.051147 127.682817 
L 95.182227 131.515258 
L 96.500408 135.287437 
L 98.002502 138.990228 
L 99.684874 142.614669 
L 101.543451 146.151989 
L 103.573737 149.593629 
L 105.770818 152.93126 
L 108.129378 156.156804 
L 110.643709 159.262458 
L 113.307726 162.240705 
L 116.114984 165.084338 
L 119.058688 167.786476 
L 122.131716 170.34058 
L 125.32663 172.740469 
L 128.6357 174.980336 
L 132.050917 177.05476 
L 135.564017 178.958721 
L 139.166499 180.687613 
L 142.849645 182.237251 
L 146.604543 183.603886 
L 150.422105 184.78421 
L 154.293094 185.775366 
L 158.208141 186.574957 
L 162.157774 187.181048 
L 166.132434 187.592171 
L 170.122503 187.807332 
L 174.118325 187.826011 
L 178.110231 187.648161 
L 182.088561 187.274214 
L 186.043687 186.705074 
L 189.966039 185.942119 
L 193.846125 184.987195 
L 197.674555 183.842612 
L 201.442064 182.511142 
L 205.139537 180.996004 
L 208.758025 179.300867 
L 209.945116 178.696518 
L 209.945116 178.696518 
" style="fill:none;stroke:#000000;stroke-linejoin:miter;"/>
   </g>
   <g id="patch_3">
    <path clip-path="url(#p7d2e7dae5d)" d="M 211.935227 153.46465 
L 209.945116 147.778618 
L 207.955004 153.46465 
z
"/>
   </g>
   <g id="patch_4">
    <path clip-path="url(#p7d2e7dae5d)" d="M 198.858819 109.45612 
L 196.868711 103.770087 
L 194.878596 109.456118 
z
"/>
   </g>
   <g id="patch_5">
    <path clip-path="url(#p7d2e7dae5d)" d="M 211.935227 65.447587 
L 209.945116 59.761555 
L 207.955004 65.447587 
z
"/>
   </g>
   <g id="patch_6">
    <path clip-path="url(#p7d2e7dae5d)" d="M 89.280856 103.770088 
L 91.270972 109.456119 
L 93.261078 103.770085 
z
"/>
   </g>
   <g id="patch_7">
    <path clip-path="url(#p7d2e7dae5d)" d="M 216.283915 38.194361 
L 216.283915 90.679455 
L 218.18326 91.178271 
L 220.008544 91.90261 
L 221.733097 92.841891 
L 223.33172 93.982389 
L 224.781056 95.307438 
L 226.059927 96.797679 
L 227.149648 98.431338 
L 228.034295 100.184543 
L 228.700944 102.031678 
L 229.139854 103.945755 
L 229.344611 105.898805 
L 229.312223 107.862292 
L 229.043165 109.807527 
L 228.541366 111.706086 
L 227.81416 113.53023 
L 226.872172 115.253306 
L 225.729165 116.850135 
L 224.40184 118.297388 
L 222.909592 119.573916 
L 221.274224 120.661069 
L 219.519631 121.542962 
L 217.671451 122.206709 
L 216.283915 122.54675 
L 216.283915 175.031844 
L 220.050353 172.469912 
L 223.667257 169.700877 
L 227.123253 166.733446 
L 230.407472 163.576952 
L 233.509587 160.24132 
L 236.419841 156.737042 
L 239.129084 153.075136 
L 241.628795 149.267118 
L 243.911113 145.324965 
L 245.968862 141.261072 
L 247.795568 137.08822 
L 249.385489 132.819531 
L 250.733625 128.46843 
L 251.835735 124.048599 
L 252.688354 119.573938 
L 253.288801 115.058518 
L 253.635187 110.51654 
L 253.726423 105.962286 
L 253.562223 101.410079 
L 253.143102 96.874234 
L 252.470378 92.369015 
L 251.546168 87.908591 
L 250.373377 83.506987 
L 248.955694 79.178047 
L 247.297577 74.935383 
L 245.40424 70.792337 
L 243.281637 66.761939 
L 240.936444 62.856862 
L 238.376035 59.089389 
L 235.608463 55.471365 
L 232.64243 52.014169 
L 229.487264 48.728674 
L 226.152888 45.62521 
L 222.649787 42.713538 
L 218.988977 40.002815 
L 216.283915 38.194361 
L 216.283915 38.194361 
" style="fill:none;stroke:#000000;stroke-linejoin:miter;"/>
   </g>
   <g id="patch_8">
    <path clip-path="url(#p7d2e7dae5d)" d="M 214.293804 61.593892 
L 216.283915 67.279924 
L 218.274026 61.593892 
z
"/>
   </g>
   <g id="patch_9">
    <path clip-path="url(#p7d2e7dae5d)" d="M 227.370212 103.770085 
L 229.36032 109.456119 
L 231.350434 103.770088 
z
"/>
   </g>
   <g id="patch_10">
    <path clip-path="url(#p7d2e7dae5d)" d="M 214.293804 145.946281 
L 216.283915 151.632313 
L 218.274026 145.946281 
z
"/>
   </g>
   <g id="patch_11">
    <path clip-path="url(#p7d2e7dae5d)" d="M 255.719143 109.456118 
L 253.729029 103.770087 
L 251.73892 109.456119 
z
"/>
   </g>
   <g id="line2d_1">
    <defs>
     <path d="M -3 0 
L 3 0 
M 0 3 
L 0 -3 
" id="mf3050341b5" style="stroke:#000000;"/>
    </defs>
    <g clip-path="url(#p7d2e7dae5d)">
     <use style="stroke:#000000;" x="172.5" xlink:href="#mf3050341b5" y="106.613103"/>
    </g>
   </g>
   <g id="line2d_2">
    <g clip-path="url(#p7d2e7dae5d)">
     <use style="stroke:#000000;" x="213.114515" xlink:href="#mf3050341b5" y="106.613103"/>
    </g>
   </g>
   <g id="text_1">
    <!-- $c$ -->
    <defs>
     <path d="M 39.09375 37.984375 
C 37.203125 37.984375 36.296875 37.984375 34.90625 36.796875 
C 34.296875 36.296875 33.203125 34.796875 33.203125 33.203125 
C 33.203125 31.203125 34.703125 30 36.59375 30 
C 39 30 41.703125 31.9375 41.703125 35.8125 
C 41.703125 40.4375 37.09375 44 30.203125 44 
C 17.09375 44 4 29.734375 4 15.5625 
C 4 6.890625 9.40625 -1 19.59375 -1 
C 33.203125 -1 41.796875 9.71875 41.796875 11.03125 
C 41.796875 11.625 41.203125 12.125 40.796875 12.125 
C 40.5 12.125 40.40625 12.03125 39.5 11.140625 
C 33.09375 2.53125 23.59375 1 19.796875 1 
C 12.90625 1 10.703125 6.96875 10.703125 11.9375 
C 10.703125 15.4375 12.40625 25.078125 16 31.859375 
C 18.59375 36.53125 24 41.90625 30.296875 41.90625 
C 31.59375 41.90625 37.09375 41.90625 39.09375 37.984375 
z
" id="CMMI12-99"/>
    </defs>
    <g transform="translate(170.344304 98.950134)scale(0.1 -0.1)">
     <use transform="scale(0.996264)" xlink:href="#CMMI12-99"/>
    </g>
   </g>
   <g id="text_2">
    <!-- $z$ -->
    <defs>
     <path d="M 12.703125 7.59375 
C 17 12.546875 20.5 15.6875 25.5 20.25 
C 31.5 25.5 34.09375 28.015625 35.5 29.546875 
C 42.5 36.53125 46 42.390625 46 43.1875 
C 46 44 45.203125 44 45 44 
C 44.296875 44 44.09375 43.640625 43.59375 42.96875 
C 41.09375 38.96875 38.703125 36.984375 36.09375 36.984375 
C 34 36.984375 32.90625 37.828125 31 40.078125 
C 28.90625 42.421875 27.203125 44 24.296875 44 
C 17 44 12.59375 35.265625 12.59375 33.25 
C 12.59375 32.9375 12.703125 32.3125 13.59375 32.3125 
C 14.40625 32.3125 14.5 32.671875 14.796875 33.328125 
C 16.5 37.0625 21.296875 37.71875 23.203125 37.71875 
C 25.296875 37.71875 27.296875 37.125 29.40625 36.359375 
C 33.203125 35 34.796875 35 35.796875 35 
C 36.5 35 36.90625 35 37.40625 35.09375 
C 34.09375 31.15625 28.703125 26.296875 24.203125 22.15625 
L 14.09375 12.75 
C 8 6.484375 4.296875 0.515625 4.296875 -0.1875 
C 4.296875 -0.796875 4.796875 -1 5.40625 -1 
C 6 -1 6.09375 -0.890625 6.796875 0.21875 
C 8.40625 2.546875 11.59375 6 15.296875 6 
C 17.40625 6 18.40625 5.34375 20.40625 3.015625 
C 22.296875 0.953125 24 -1 27.203125 -1 
C 37 -1 42.59375 11.4375 42.59375 13.6875 
C 42.59375 14.109375 42.5 14.71875 41.5 14.71875 
C 40.703125 14.71875 40.59375 14.328125 40.296875 13.359375 
C 38.09375 7.625 32.203125 5.28125 28.296875 5.28125 
C 26.203125 5.28125 24.203125 5.875 22.09375 6.640625 
C 18.09375 8 17 8 15.703125 8 
C 14.703125 8 13.59375 8 12.703125 7.59375 
z
" id="CMMI12-122"/>
    </defs>
    <g transform="translate(210.797954 98.950134)scale(0.1 -0.1)">
     <use transform="scale(0.996264)" xlink:href="#CMMI12-122"/>
    </g>
   </g>
   <g id="text_3">
    <!-- $\mu$ -->
    <defs>
     <path d="M 14.40625 2.1875 
C 16.90625 -0.09375 20.59375 -1 24 -1 
C 30.40625 -1 34.796875 3.25 37.09375 6.328125 
C 38.09375 1.078125 42.296875 -1 45.796875 -1 
C 48.796875 -1 51.203125 0.78125 53 4.328125 
C 54.59375 7.703125 56 13.734375 56 14.109375 
C 56 14.609375 55.59375 15 55 15 
C 54.09375 15 54 14.5 53.59375 13.03125 
C 52.09375 7.203125 50.203125 1 46.09375 1 
C 43.203125 1 43 3.578125 43 5.59375 
C 43 7.875 43.90625 11.46875 44.59375 14.46875 
L 47.40625 25.234375 
C 47.796875 27.140625 48.90625 31.609375 49.40625 33.421875 
C 50 35.8125 51.09375 40.109375 51.09375 40.5 
C 51.09375 42 49.90625 43 48.40625 43 
C 47.5 43 45.40625 42.59375 44.59375 39.609375 
L 37.59375 11.875 
C 37.09375 9.875 37.09375 9.671875 35.796875 8.078125 
C 34.59375 6.390625 30.703125 1 24.40625 1 
C 18.796875 1 17 5.09375 17 9.765625 
C 17 12.671875 17.90625 16.15625 18.296875 17.859375 
L 22.796875 35.828125 
C 23.296875 37.71875 24.09375 40.90625 24.09375 41.515625 
C 24.09375 43.109375 22.796875 44 21.5 44 
C 20.59375 44 18.40625 43.703125 17.59375 40.5 
L 3.09375 -17.296875 
C 3 -17.796875 2.796875 -18.390625 2.796875 -19 
C 2.796875 -20.5 4 -21.5 5.5 -21.5 
C 8.40625 -21.5 9 -19.1875 9.703125 -16.40625 
z
" id="CMMI12-22"/>
    </defs>
    <g transform="translate(96.392387 109.103763)scale(0.1 -0.1)">
     <use transform="scale(0.996264)" xlink:href="#CMMI12-22"/>
    </g>
   </g>
   <g id="text_4">
    <!-- $\nu$ -->
    <defs>
     <path d="M 22 43.015625 
C 22 43.40625 21.703125 44 20.90625 44 
C 20.203125 44 10.796875 42.984375 9.296875 42.984375 
C 8.203125 42.875 7.203125 42.78125 7.203125 40.984375 
C 7.203125 40 8 40 9.40625 40 
C 14.09375 40 14.40625 39.296875 14.40625 38.203125 
C 14.40625 37.796875 14.203125 36.609375 14.09375 36.21875 
L 5.296875 1 
C 5.296875 0.59375 5.59375 0 6.296875 0 
L 8.40625 0 
C 9.796875 0 25 3.59375 36.703125 15.5625 
C 49.59375 28.84375 51.40625 41.125 51.40625 41.515625 
C 51.40625 43.109375 50.09375 44 48.796875 44 
C 45.90625 44 45.203125 41.3125 45 40.625 
C 39.09375 19.75 25.40625 7.390625 12.09375 3 
z
" id="CMMI12-23"/>
    </defs>
    <g transform="translate(243.145445 109.103763)scale(0.1 -0.1)">
     <use transform="scale(0.996264)" xlink:href="#CMMI12-23"/>
    </g>
   </g>
  </g>
 </g>
 <defs>
  <clipPath id="p7d2e7dae5d">
   <rect height="170.580964" width="276" x="34.5" y="21.322621"/>
  </clipPath>
 </defs>
</svg>
