<?xml version="1.0" encoding="utf-8" standalone="no"?>
<!DOCTYPE svg PUBLIC "-//W3C//DTD SVG 1.1//EN"
  "http://www.w3.org/Graphics/SVG/1.1/DTD/svg11.dtd">
<!-- Created with matplotlib (http://matplotlib.org/) -->
<svg height="133pt" version="1.1" viewBox="0 0 345 133" width="345pt" xmlns="http://www.w3.org/2000/svg" xmlns:xlink="http://www.w3.org/1999/xlink">
 <defs>
  <style type="text/css">
*{stroke-linecap:butt;stroke-linejoin:round;}
  </style>
 </defs>
 <g id="figure_1">
  <g id="patch_1">
   <path d="
M0 133.266
L345 133.266
L345 0
L0 0
z
" style="fill:#ffffff;"/>
  </g>
  <g id="axes_1">
   <g id="patch_2">
    <path d="
M51.75 99.9498
L310.5 99.9498
L310.5 19.99
L51.75 19.99
z
" style="fill:#ffffff;"/>
   </g>
   <g id="line2d_1">
    <defs>
     <path d="
M-1.5 0
L1.5 0
M0 1.5
L0 -1.5" id="mcd8559154f" style="stroke:#000000;stroke-width:0.5;"/>
    </defs>
    <g clip-path="url(#pddf8300a96)">
     <use style="stroke:#000000;stroke-width:0.5;" x="51.75" xlink:href="#mcd8559154f" y="27.6122930129"/>
     <use style="stroke:#000000;stroke-width:0.5;" x="53.7874015748" xlink:href="#mcd8559154f" y="27.6122930129"/>
     <use style="stroke:#000000;stroke-width:0.5;" x="55.8248031496" xlink:href="#mcd8559154f" y="27.6122930129"/>
     <use style="stroke:#000000;stroke-width:0.5;" x="57.8622047244" xlink:href="#mcd8559154f" y="27.6122930129"/>
     <use style="stroke:#000000;stroke-width:0.5;" x="59.8996062992" xlink:href="#mcd8559154f" y="27.6122930129"/>
     <use style="stroke:#000000;stroke-width:0.5;" x="61.937007874" xlink:href="#mcd8559154f" y="27.6122930129"/>
     <use style="stroke:#000000;stroke-width:0.5;" x="63.9744094488" xlink:href="#mcd8559154f" y="27.6122930129"/>
     <use style="stroke:#000000;stroke-width:0.5;" x="66.0118110236" xlink:href="#mcd8559154f" y="27.6122930129"/>
     <use style="stroke:#000000;stroke-width:0.5;" x="68.0492125984" xlink:href="#mcd8559154f" y="27.6122930129"/>
     <use style="stroke:#000000;stroke-width:0.5;" x="70.0866141732" xlink:href="#mcd8559154f" y="27.6122930129"/>
     <use style="stroke:#000000;stroke-width:0.5;" x="72.124015748" xlink:href="#mcd8559154f" y="27.6122930129"/>
     <use style="stroke:#000000;stroke-width:0.5;" x="74.1614173228" xlink:href="#mcd8559154f" y="27.6122930129"/>
     <use style="stroke:#000000;stroke-width:0.5;" x="76.1988188976" xlink:href="#mcd8559154f" y="27.6122930129"/>
     <use style="stroke:#000000;stroke-width:0.5;" x="78.2362204724" xlink:href="#mcd8559154f" y="93.1154639864"/>
     <use style="stroke:#000000;stroke-width:0.5;" x="80.2736220472" xlink:href="#mcd8559154f" y="93.1154639864"/>
     <use style="stroke:#000000;stroke-width:0.5;" x="82.311023622" xlink:href="#mcd8559154f" y="93.1154639864"/>
     <use style="stroke:#000000;stroke-width:0.5;" x="84.3484251969" xlink:href="#mcd8559154f" y="93.1154639864"/>
     <use style="stroke:#000000;stroke-width:0.5;" x="86.3858267717" xlink:href="#mcd8559154f" y="93.1154639864"/>
     <use style="stroke:#000000;stroke-width:0.5;" x="88.4232283465" xlink:href="#mcd8559154f" y="93.1154639864"/>
     <use style="stroke:#000000;stroke-width:0.5;" x="90.4606299213" xlink:href="#mcd8559154f" y="93.1154639864"/>
     <use style="stroke:#000000;stroke-width:0.5;" x="92.4980314961" xlink:href="#mcd8559154f" y="93.1154639864"/>
     <use style="stroke:#000000;stroke-width:0.5;" x="94.5354330709" xlink:href="#mcd8559154f" y="93.1154639864"/>
     <use style="stroke:#000000;stroke-width:0.5;" x="96.5728346457" xlink:href="#mcd8559154f" y="93.1154639864"/>
     <use style="stroke:#000000;stroke-width:0.5;" x="98.6102362205" xlink:href="#mcd8559154f" y="93.1154639864"/>
     <use style="stroke:#000000;stroke-width:0.5;" x="100.647637795" xlink:href="#mcd8559154f" y="93.1154639864"/>
     <use style="stroke:#000000;stroke-width:0.5;" x="102.68503937" xlink:href="#mcd8559154f" y="93.1154639864"/>
     <use style="stroke:#000000;stroke-width:0.5;" x="104.722440945" xlink:href="#mcd8559154f" y="27.6122930129"/>
     <use style="stroke:#000000;stroke-width:0.5;" x="106.75984252" xlink:href="#mcd8559154f" y="27.6122930129"/>
     <use style="stroke:#000000;stroke-width:0.5;" x="108.797244094" xlink:href="#mcd8559154f" y="27.6122930129"/>
     <use style="stroke:#000000;stroke-width:0.5;" x="110.834645669" xlink:href="#mcd8559154f" y="27.6122930129"/>
     <use style="stroke:#000000;stroke-width:0.5;" x="112.872047244" xlink:href="#mcd8559154f" y="27.6122930129"/>
     <use style="stroke:#000000;stroke-width:0.5;" x="114.909448819" xlink:href="#mcd8559154f" y="27.6122930129"/>
     <use style="stroke:#000000;stroke-width:0.5;" x="116.946850394" xlink:href="#mcd8559154f" y="27.6122930129"/>
     <use style="stroke:#000000;stroke-width:0.5;" x="118.984251969" xlink:href="#mcd8559154f" y="27.6122930129"/>
     <use style="stroke:#000000;stroke-width:0.5;" x="121.021653543" xlink:href="#mcd8559154f" y="27.6122930129"/>
     <use style="stroke:#000000;stroke-width:0.5;" x="123.059055118" xlink:href="#mcd8559154f" y="27.6122930129"/>
     <use style="stroke:#000000;stroke-width:0.5;" x="125.096456693" xlink:href="#mcd8559154f" y="27.6122930129"/>
     <use style="stroke:#000000;stroke-width:0.5;" x="127.133858268" xlink:href="#mcd8559154f" y="27.6122930129"/>
     <use style="stroke:#000000;stroke-width:0.5;" x="129.171259843" xlink:href="#mcd8559154f" y="27.6122930129"/>
     <use style="stroke:#000000;stroke-width:0.5;" x="131.208661417" xlink:href="#mcd8559154f" y="93.1154639864"/>
     <use style="stroke:#000000;stroke-width:0.5;" x="133.246062992" xlink:href="#mcd8559154f" y="93.1154639864"/>
     <use style="stroke:#000000;stroke-width:0.5;" x="135.283464567" xlink:href="#mcd8559154f" y="93.1154639864"/>
     <use style="stroke:#000000;stroke-width:0.5;" x="137.320866142" xlink:href="#mcd8559154f" y="93.1154639864"/>
     <use style="stroke:#000000;stroke-width:0.5;" x="139.358267717" xlink:href="#mcd8559154f" y="93.1154639864"/>
     <use style="stroke:#000000;stroke-width:0.5;" x="141.395669291" xlink:href="#mcd8559154f" y="93.1154639864"/>
     <use style="stroke:#000000;stroke-width:0.5;" x="143.433070866" xlink:href="#mcd8559154f" y="93.1154639864"/>
     <use style="stroke:#000000;stroke-width:0.5;" x="145.470472441" xlink:href="#mcd8559154f" y="93.1154639864"/>
     <use style="stroke:#000000;stroke-width:0.5;" x="147.507874016" xlink:href="#mcd8559154f" y="93.1154639864"/>
     <use style="stroke:#000000;stroke-width:0.5;" x="149.545275591" xlink:href="#mcd8559154f" y="93.1154639864"/>
     <use style="stroke:#000000;stroke-width:0.5;" x="151.582677165" xlink:href="#mcd8559154f" y="93.1154639864"/>
     <use style="stroke:#000000;stroke-width:0.5;" x="153.62007874" xlink:href="#mcd8559154f" y="93.1154639864"/>
     <use style="stroke:#000000;stroke-width:0.5;" x="155.657480315" xlink:href="#mcd8559154f" y="93.1154639864"/>
     <use style="stroke:#000000;stroke-width:0.5;" x="157.69488189" xlink:href="#mcd8559154f" y="27.6122930129"/>
     <use style="stroke:#000000;stroke-width:0.5;" x="159.732283465" xlink:href="#mcd8559154f" y="27.6122930129"/>
     <use style="stroke:#000000;stroke-width:0.5;" x="161.769685039" xlink:href="#mcd8559154f" y="27.6122930129"/>
     <use style="stroke:#000000;stroke-width:0.5;" x="163.807086614" xlink:href="#mcd8559154f" y="27.6122930129"/>
     <use style="stroke:#000000;stroke-width:0.5;" x="165.844488189" xlink:href="#mcd8559154f" y="27.6122930129"/>
     <use style="stroke:#000000;stroke-width:0.5;" x="167.881889764" xlink:href="#mcd8559154f" y="27.6122930129"/>
     <use style="stroke:#000000;stroke-width:0.5;" x="169.919291339" xlink:href="#mcd8559154f" y="27.6122930129"/>
     <use style="stroke:#000000;stroke-width:0.5;" x="171.956692913" xlink:href="#mcd8559154f" y="27.6122930129"/>
     <use style="stroke:#000000;stroke-width:0.5;" x="173.994094488" xlink:href="#mcd8559154f" y="27.6122930129"/>
     <use style="stroke:#000000;stroke-width:0.5;" x="176.031496063" xlink:href="#mcd8559154f" y="27.6122930129"/>
     <use style="stroke:#000000;stroke-width:0.5;" x="178.068897638" xlink:href="#mcd8559154f" y="27.6122930129"/>
     <use style="stroke:#000000;stroke-width:0.5;" x="180.106299213" xlink:href="#mcd8559154f" y="27.6122930129"/>
     <use style="stroke:#000000;stroke-width:0.5;" x="182.143700787" xlink:href="#mcd8559154f" y="27.6122930129"/>
     <use style="stroke:#000000;stroke-width:0.5;" x="184.181102362" xlink:href="#mcd8559154f" y="93.1154639864"/>
     <use style="stroke:#000000;stroke-width:0.5;" x="186.218503937" xlink:href="#mcd8559154f" y="93.1154639864"/>
     <use style="stroke:#000000;stroke-width:0.5;" x="188.255905512" xlink:href="#mcd8559154f" y="93.1154639864"/>
     <use style="stroke:#000000;stroke-width:0.5;" x="190.293307087" xlink:href="#mcd8559154f" y="93.1154639864"/>
     <use style="stroke:#000000;stroke-width:0.5;" x="192.330708661" xlink:href="#mcd8559154f" y="93.1154639864"/>
     <use style="stroke:#000000;stroke-width:0.5;" x="194.368110236" xlink:href="#mcd8559154f" y="93.1154639864"/>
     <use style="stroke:#000000;stroke-width:0.5;" x="196.405511811" xlink:href="#mcd8559154f" y="93.1154639864"/>
     <use style="stroke:#000000;stroke-width:0.5;" x="198.442913386" xlink:href="#mcd8559154f" y="93.1154639864"/>
     <use style="stroke:#000000;stroke-width:0.5;" x="200.480314961" xlink:href="#mcd8559154f" y="93.1154639864"/>
     <use style="stroke:#000000;stroke-width:0.5;" x="202.517716535" xlink:href="#mcd8559154f" y="93.1154639864"/>
     <use style="stroke:#000000;stroke-width:0.5;" x="204.55511811" xlink:href="#mcd8559154f" y="93.1154639864"/>
     <use style="stroke:#000000;stroke-width:0.5;" x="206.592519685" xlink:href="#mcd8559154f" y="93.1154639864"/>
     <use style="stroke:#000000;stroke-width:0.5;" x="208.62992126" xlink:href="#mcd8559154f" y="93.1154639864"/>
     <use style="stroke:#000000;stroke-width:0.5;" x="210.667322835" xlink:href="#mcd8559154f" y="27.6122930129"/>
     <use style="stroke:#000000;stroke-width:0.5;" x="212.704724409" xlink:href="#mcd8559154f" y="27.6122930129"/>
     <use style="stroke:#000000;stroke-width:0.5;" x="214.742125984" xlink:href="#mcd8559154f" y="27.6122930129"/>
     <use style="stroke:#000000;stroke-width:0.5;" x="216.779527559" xlink:href="#mcd8559154f" y="27.6122930129"/>
     <use style="stroke:#000000;stroke-width:0.5;" x="218.816929134" xlink:href="#mcd8559154f" y="27.6122930129"/>
     <use style="stroke:#000000;stroke-width:0.5;" x="220.854330709" xlink:href="#mcd8559154f" y="27.6122930129"/>
     <use style="stroke:#000000;stroke-width:0.5;" x="222.891732283" xlink:href="#mcd8559154f" y="27.6122930129"/>
     <use style="stroke:#000000;stroke-width:0.5;" x="224.929133858" xlink:href="#mcd8559154f" y="27.6122930129"/>
     <use style="stroke:#000000;stroke-width:0.5;" x="226.966535433" xlink:href="#mcd8559154f" y="27.6122930129"/>
     <use style="stroke:#000000;stroke-width:0.5;" x="229.003937008" xlink:href="#mcd8559154f" y="27.6122930129"/>
     <use style="stroke:#000000;stroke-width:0.5;" x="231.041338583" xlink:href="#mcd8559154f" y="27.6122930129"/>
     <use style="stroke:#000000;stroke-width:0.5;" x="233.078740157" xlink:href="#mcd8559154f" y="27.6122930129"/>
     <use style="stroke:#000000;stroke-width:0.5;" x="235.116141732" xlink:href="#mcd8559154f" y="27.6122930129"/>
     <use style="stroke:#000000;stroke-width:0.5;" x="237.153543307" xlink:href="#mcd8559154f" y="93.1154639864"/>
     <use style="stroke:#000000;stroke-width:0.5;" x="239.190944882" xlink:href="#mcd8559154f" y="93.1154639864"/>
     <use style="stroke:#000000;stroke-width:0.5;" x="241.228346457" xlink:href="#mcd8559154f" y="93.1154639864"/>
     <use style="stroke:#000000;stroke-width:0.5;" x="243.265748031" xlink:href="#mcd8559154f" y="93.1154639864"/>
     <use style="stroke:#000000;stroke-width:0.5;" x="245.303149606" xlink:href="#mcd8559154f" y="93.1154639864"/>
     <use style="stroke:#000000;stroke-width:0.5;" x="247.340551181" xlink:href="#mcd8559154f" y="93.1154639864"/>
     <use style="stroke:#000000;stroke-width:0.5;" x="249.377952756" xlink:href="#mcd8559154f" y="93.1154639864"/>
     <use style="stroke:#000000;stroke-width:0.5;" x="251.415354331" xlink:href="#mcd8559154f" y="93.1154639864"/>
     <use style="stroke:#000000;stroke-width:0.5;" x="253.452755906" xlink:href="#mcd8559154f" y="93.1154639864"/>
     <use style="stroke:#000000;stroke-width:0.5;" x="255.49015748" xlink:href="#mcd8559154f" y="93.1154639864"/>
     <use style="stroke:#000000;stroke-width:0.5;" x="257.527559055" xlink:href="#mcd8559154f" y="93.1154639864"/>
     <use style="stroke:#000000;stroke-width:0.5;" x="259.56496063" xlink:href="#mcd8559154f" y="93.1154639864"/>
     <use style="stroke:#000000;stroke-width:0.5;" x="261.602362205" xlink:href="#mcd8559154f" y="93.1154639864"/>
     <use style="stroke:#000000;stroke-width:0.5;" x="263.63976378" xlink:href="#mcd8559154f" y="27.6122930129"/>
     <use style="stroke:#000000;stroke-width:0.5;" x="265.677165354" xlink:href="#mcd8559154f" y="27.6122930129"/>
     <use style="stroke:#000000;stroke-width:0.5;" x="267.714566929" xlink:href="#mcd8559154f" y="27.6122930129"/>
     <use style="stroke:#000000;stroke-width:0.5;" x="269.751968504" xlink:href="#mcd8559154f" y="27.6122930129"/>
     <use style="stroke:#000000;stroke-width:0.5;" x="271.789370079" xlink:href="#mcd8559154f" y="27.6122930129"/>
     <use style="stroke:#000000;stroke-width:0.5;" x="273.826771654" xlink:href="#mcd8559154f" y="27.6122930129"/>
     <use style="stroke:#000000;stroke-width:0.5;" x="275.864173228" xlink:href="#mcd8559154f" y="27.6122930129"/>
     <use style="stroke:#000000;stroke-width:0.5;" x="277.901574803" xlink:href="#mcd8559154f" y="27.6122930129"/>
     <use style="stroke:#000000;stroke-width:0.5;" x="279.938976378" xlink:href="#mcd8559154f" y="27.6122930129"/>
     <use style="stroke:#000000;stroke-width:0.5;" x="281.976377953" xlink:href="#mcd8559154f" y="27.6122930129"/>
     <use style="stroke:#000000;stroke-width:0.5;" x="284.013779528" xlink:href="#mcd8559154f" y="27.6122930129"/>
     <use style="stroke:#000000;stroke-width:0.5;" x="286.051181102" xlink:href="#mcd8559154f" y="27.6122930129"/>
     <use style="stroke:#000000;stroke-width:0.5;" x="288.088582677" xlink:href="#mcd8559154f" y="27.6122930129"/>
     <use style="stroke:#000000;stroke-width:0.5;" x="290.125984252" xlink:href="#mcd8559154f" y="93.1154639864"/>
     <use style="stroke:#000000;stroke-width:0.5;" x="292.163385827" xlink:href="#mcd8559154f" y="93.1154639864"/>
     <use style="stroke:#000000;stroke-width:0.5;" x="294.200787402" xlink:href="#mcd8559154f" y="93.1154639864"/>
     <use style="stroke:#000000;stroke-width:0.5;" x="296.238188976" xlink:href="#mcd8559154f" y="93.1154639864"/>
     <use style="stroke:#000000;stroke-width:0.5;" x="298.275590551" xlink:href="#mcd8559154f" y="93.1154639864"/>
     <use style="stroke:#000000;stroke-width:0.5;" x="300.312992126" xlink:href="#mcd8559154f" y="93.1154639864"/>
     <use style="stroke:#000000;stroke-width:0.5;" x="302.350393701" xlink:href="#mcd8559154f" y="93.1154639864"/>
     <use style="stroke:#000000;stroke-width:0.5;" x="304.387795276" xlink:href="#mcd8559154f" y="93.1154639864"/>
     <use style="stroke:#000000;stroke-width:0.5;" x="306.42519685" xlink:href="#mcd8559154f" y="93.1154639864"/>
     <use style="stroke:#000000;stroke-width:0.5;" x="308.462598425" xlink:href="#mcd8559154f" y="93.1154639864"/>
     <use style="stroke:#000000;stroke-width:0.5;" x="310.5" xlink:href="#mcd8559154f" y="93.1154639864"/>
    </g>
   </g>
   <g id="line2d_2">
    <path clip-path="url(#pddf8300a96)" d="
M51.75 31.6482
L53.7874 24.5752
L55.8248 29.6756
L57.8622 26.3855
L59.8996 27.4123
L61.937 28.9597
L63.9744 25.934
L66.0118 28.613
L68.0492 27.6419
L70.0866 27.3482
L72.124 30.3947
L74.1614 21.6061
L76.1988 36.4871
L78.2362 83.9642
L80.2736 99.5958
L82.311 89.4073
L84.3484 93.8897
L86.3858 93.51
L88.4232 91.1223
L90.4606 95.5381
L92.498 91.3178
L96.5728 95.7236
L98.6102 89.3458
L100.648 99.0585
L102.685 86.2563
L104.722 35.1349
L106.76 19.99
L108.797 32.4178
L110.835 25.7618
L112.872 26.3392
L114.909 29.7609
L116.947 24.527
L118.984 29.7097
L121.022 27.9927
L123.059 25.3561
L125.096 32.1713
L127.134 22.0101
L129.171 34.9856
L131.209 85.883
L133.246 99.5412
L135.283 87.965
L137.321 95.4229
L139.358 93.7246
L141.396 90.2217
L143.433 95.6971
L145.47 91.2479
L147.508 93.6347
L149.545 94.87
L151.583 88.3659
L153.62 99.9498
L155.657 85.8332
L157.695 34.8184
L159.732 21.6557
L161.77 32.3025
L163.807 25.6305
L165.844 27.4159
L167.882 29.3698
L169.919 24.9287
L171.957 30.1452
L173.994 26.5274
L176.031 25.2602
L178.069 32.0426
L180.106 20.7215
L182.144 35.2978
L184.181 85.6346
L186.219 99.0441
L188.256 89.4848
L190.293 95.5662
L192.331 93.2372
L194.368 91.6819
L196.406 96.1632
L198.443 90.7064
L200.48 93.8473
L202.518 94.899
L204.555 88.2364
L206.593 99.4135
L208.63 85.0898
L210.667 34.8506
L212.705 21.1871
L214.742 31.4694
L216.78 25.8185
L220.854 29.853
L222.892 25.2474
L224.929 30.1486
L226.967 27.1612
L229.004 25.7557
L231.041 32.0372
L233.079 20.9685
L235.116 34.8878
L237.154 85.2533
L239.191 99.3319
L241.228 88.6667
L243.266 94.7792
L245.303 93.6445
L247.341 91.4914
L249.378 95.8581
L251.415 90.8656
L253.453 93.635
L255.49 95.2623
L257.528 88.8966
L259.565 99.4811
L261.602 85.484
L263.64 35.1264
L265.677 21.1021
L267.715 31.8575
L269.752 25.6682
L271.789 27.187
L273.827 29.7689
L275.864 25.0603
L277.902 29.7174
L279.939 26.9866
L281.976 25.4404
L284.014 31.9953
L286.051 21.4044
L288.089 35.1846
L290.126 85.5481
L292.163 99.6494
L294.201 88.982
L296.238 95.2299
L298.276 93.4478
L300.313 90.7847
L302.35 95.8328
L304.388 91.0651
L306.425 93.337
L308.463 94.9475
L310.5 88.6946
L310.5 88.6946" style="fill:none;stroke:#000000;stroke-linecap:square;"/>
   </g>
   <g id="matplotlib.axis_1">
    <g id="xtick_1">
     <g id="line2d_3">
      <defs>
       <path d="
M0 0
L0 -4" id="m93b0483c22" style="stroke:#000000;stroke-width:0.5;"/>
      </defs>
      <g>
       <use style="stroke:#000000;stroke-width:0.5;" x="51.75" xlink:href="#m93b0483c22" y="99.9497836836"/>
      </g>
     </g>
     <g id="line2d_4">
      <defs>
       <path d="
M0 0
L0 4" id="m741efc42ff" style="stroke:#000000;stroke-width:0.5;"/>
      </defs>
      <g>
       <use style="stroke:#000000;stroke-width:0.5;" x="51.75" xlink:href="#m741efc42ff" y="19.9899567367"/>
      </g>
     </g>
     <g id="text_1">
      <!-- $0$ -->
      <defs>
       <path d="
M42 31.6406
C42 37.75 41.9062 48.125 37.7031 56.1094
C34 63.1094 28.0938 65.5938 22.9062 65.5938
C18.0938 65.5938 12 63.4062 8.20312 56.2031
C4.20312 48.7188 3.79688 39.4375 3.79688 31.6406
C3.79688 25.9531 3.90625 17.2812 7 9.67188
C11.2969 -0.609375 19 -2 22.9062 -2
C27.5 -2 34.5 -0.109375 38.5938 9.375
C41.5938 16.2812 42 24.3594 42 31.6406
M22.9062 -0.40625
C16.5 -0.40625 12.7031 5.07812 11.2969 12.6875
C10.2031 18.5625 10.2031 27.1562 10.2031 32.75
C10.2031 40.4375 10.2031 46.8281 11.5 52.9219
C13.4062 61.3906 19 64 22.9062 64
C27 64 32.2969 61.2969 34.2031 53.125
C35.5 47.4375 35.5938 40.7344 35.5938 32.75
C35.5938 26.25 35.5938 18.2656 34.4062 12.375
C32.2969 1.48438 26.4062 -0.40625 22.9062 -0.40625" id="CMR17-48"/>
      </defs>
      <g transform="translate(49.2593323742 110.868282064)scale(0.1 -0.1)">
       <use transform="scale(0.996264009963)" xlink:href="#CMR17-48"/>
      </g>
     </g>
    </g>
    <g id="xtick_2">
     <g id="line2d_5">
      <g>
       <use style="stroke:#000000;stroke-width:0.5;" x="92.4980314961" xlink:href="#m93b0483c22" y="99.9497836836"/>
      </g>
     </g>
     <g id="line2d_6">
      <g>
       <use style="stroke:#000000;stroke-width:0.5;" x="92.4980314961" xlink:href="#m741efc42ff" y="19.9899567367"/>
      </g>
     </g>
     <g id="text_2">
      <!-- $20$ -->
      <defs>
       <path d="
M41.7031 15.4531
L39.9062 15.4531
C38.9062 8.375 38.0938 7.17188 37.7031 6.5625
C37.2031 5.76562 30 5.76562 28.5938 5.76562
L9.40625 5.76562
C13 9.67188 20 16.75 28.5 24.9531
C34.5938 30.7344 41.7031 37.5312 41.7031 47.4219
C41.7031 59.2188 32.2969 66 21.7969 66
C10.7969 66 4.09375 56.3125 4.09375 47.3438
C4.09375 43.4375 7 42.9375 8.20312 42.9375
C9.20312 42.9375 12.2031 43.5469 12.2031 47.0312
C12.2031 50.1094 9.59375 51 8.20312 51
C7.59375 51 7 50.9062 6.59375 50.7031
C8.5 59.2188 14.2969 63.4062 20.4062 63.4062
C29.0938 63.4062 34.7969 56.5156 34.7969 47.4219
C34.7969 38.7344 29.7031 31.25 24 24.75
L4.09375 2.28125
L4.09375 0
L39.2969 0
z
" id="CMR17-50"/>
      </defs>
      <g transform="translate(87.5166962445 110.868282064)scale(0.1 -0.1)">
       <use transform="scale(0.996264009963)" xlink:href="#CMR17-50"/>
       <use transform="translate(45.6904771171 0.0)scale(0.996264009963)" xlink:href="#CMR17-48"/>
      </g>
     </g>
    </g>
    <g id="xtick_3">
     <g id="line2d_7">
      <g>
       <use style="stroke:#000000;stroke-width:0.5;" x="133.246062992" xlink:href="#m93b0483c22" y="99.9497836836"/>
      </g>
     </g>
     <g id="line2d_8">
      <g>
       <use style="stroke:#000000;stroke-width:0.5;" x="133.246062992" xlink:href="#m741efc42ff" y="19.9899567367"/>
      </g>
     </g>
     <g id="text_3">
      <!-- $40$ -->
      <defs>
       <path d="
M33.5938 64.3281
C33.5938 66.4062 33.5 66.5 31.7031 66.5
L2 19.5938
L2 17
L27.7969 17
L27.7969 7.14062
C27.7969 3.5 27.5938 2.5 20.5938 2.5
L18.7031 2.5
L18.7031 0
C21.9062 0 27.2969 0 30.7031 0
C34.0938 0 39.5 0 42.7031 0
L42.7031 2.5
L40.7969 2.5
C33.7969 2.5 33.5938 3.5 33.5938 7.14062
L33.5938 17
L43.7969 17
L43.7969 19.5938
L33.5938 19.5938
z

M28.0938 57.7656
L28.0938 19.5938
L4 19.5938
z
" id="CMR17-52"/>
      </defs>
      <g transform="translate(128.264727741 110.868282064)scale(0.1 -0.1)">
       <use transform="scale(0.996264009963)" xlink:href="#CMR17-52"/>
       <use transform="translate(45.6904771171 0.0)scale(0.996264009963)" xlink:href="#CMR17-48"/>
      </g>
     </g>
    </g>
    <g id="xtick_4">
     <g id="line2d_9">
      <g>
       <use style="stroke:#000000;stroke-width:0.5;" x="173.994094488" xlink:href="#m93b0483c22" y="99.9497836836"/>
      </g>
     </g>
     <g id="line2d_10">
      <g>
       <use style="stroke:#000000;stroke-width:0.5;" x="173.994094488" xlink:href="#m741efc42ff" y="19.9899567367"/>
      </g>
     </g>
     <g id="text_4">
      <!-- $60$ -->
      <defs>
       <path d="
M10.5938 34
C10.5938 57.6562 21.7969 63 28.2969 63
C30.4062 63 35.5 62.6406 37.5 59
C35.9062 59 32.9062 59 32.9062 55.5156
C32.9062 52.8281 35.0938 51.9219 36.5 51.9219
C37.4062 51.9219 40.0938 52.3125 40.0938 55.625
C40.0938 61.7812 35.0938 65.2969 28.2031 65.2969
C16.2969 65.2969 3.79688 52.9688 3.79688 31
C3.79688 3.95312 15.0938 -2 23.0938 -2
C32.7969 -2 42 6.67188 42 20.0469
C42 32.5156 33.9062 41.5938 23.7031 41.5938
C17.5938 41.5938 13.0938 37.6094 10.5938 30.625
z

M23.0938 0.390625
C10.7969 0.390625 10.7969 18.75 10.7969 22.4375
C10.7969 29.625 14.2031 40 23.5 40
C25.2031 40 30.0938 40 33.4062 33.125
C35.2031 29.2188 35.2031 25.1406 35.2031 20.1406
C35.2031 14.75 35.2031 10.7812 33.0938 6.78125
C30.9062 2.67188 27.7031 0.390625 23.0938 0.390625" id="CMR17-54"/>
      </defs>
      <g transform="translate(169.012759237 110.868282064)scale(0.1 -0.1)">
       <use transform="scale(0.996264009963)" xlink:href="#CMR17-54"/>
       <use transform="translate(45.6904771171 0.0)scale(0.996264009963)" xlink:href="#CMR17-48"/>
      </g>
     </g>
    </g>
    <g id="xtick_5">
     <g id="line2d_11">
      <g>
       <use style="stroke:#000000;stroke-width:0.5;" x="214.742125984" xlink:href="#m93b0483c22" y="99.9497836836"/>
      </g>
     </g>
     <g id="line2d_12">
      <g>
       <use style="stroke:#000000;stroke-width:0.5;" x="214.742125984" xlink:href="#m741efc42ff" y="19.9899567367"/>
      </g>
     </g>
     <g id="text_5">
      <!-- $80$ -->
      <defs>
       <path d="
M27.2031 35.375
C33.5 38.5625 39.9062 43.3281 39.9062 50.9844
C39.9062 60.0312 31.0938 65.2969 23 65.2969
C13.9062 65.2969 5.90625 58.7344 5.90625 49.6875
C5.90625 47.2031 6.5 42.9219 10.4062 39.1406
C11.4062 38.1562 15.5938 35.1719 18.2969 33.2812
C13.7969 30.9844 3.29688 25.5312 3.29688 14.5938
C3.29688 4.35938 13.0938 -2 22.7969 -2
C33.5 -2 42.5 5.65625 42.5 15.7969
C42.5 24.8438 36.4062 29.0312 32.4062 31.7031
z

M14.0938 44.125
C13.2969 44.625 9.29688 47.7031 9.29688 52.375
C9.29688 58.4375 15.5938 63 22.7969 63
C30.7031 63 36.5 57.4531 36.5 50.9844
C36.5 41.7344 26.0938 36.4688 25.5938 36.4688
C25.5 36.4688 25.4062 36.4688 24.5938 37.0781
z

M32.5 23.7344
C34 22.6406 38.7969 19.375 38.7969 13.2969
C38.7969 5.95312 31.4062 0.390625 23 0.390625
C13.9062 0.390625 7 6.84375 7 14.6875
C7 22.5469 13.0938 29.0938 20 32.1875
z
" id="CMR17-56"/>
      </defs>
      <g transform="translate(209.760790733 110.868282064)scale(0.1 -0.1)">
       <use transform="scale(0.996264009963)" xlink:href="#CMR17-56"/>
       <use transform="translate(45.6904771171 0.0)scale(0.996264009963)" xlink:href="#CMR17-48"/>
      </g>
     </g>
    </g>
    <g id="xtick_6">
     <g id="line2d_13">
      <g>
       <use style="stroke:#000000;stroke-width:0.5;" x="255.49015748" xlink:href="#m93b0483c22" y="99.9497836836"/>
      </g>
     </g>
     <g id="line2d_14">
      <g>
       <use style="stroke:#000000;stroke-width:0.5;" x="255.49015748" xlink:href="#m741efc42ff" y="19.9899567367"/>
      </g>
     </g>
     <g id="text_6">
      <!-- $100$ -->
      <defs>
       <path d="
M26.5938 63.3125
C26.5938 65.4062 26.5 65.5 25.0938 65.5
C21.2031 61.1875 15.2969 59.7969 9.70312 59.7969
C9.40625 59.7969 8.90625 59.7969 8.79688 59.6094
C8.70312 59.3906 8.70312 59.1719 8.70312 57
C11.7969 57 17 57.5938 21 59.9844
L21 7.20312
C21 3.6875 20.7969 2.5 12.2031 2.5
L9.20312 2.5
L9.20312 0
C14 0 19 0 23.7969 0
C28.5938 0 33.5938 0 38.4062 0
L38.4062 2.5
L35.4062 2.5
C26.7969 2.5 26.5938 3.59375 26.5938 7.15625
z
" id="CMR17-49"/>
      </defs>
      <g transform="translate(248.018154603 110.868282064)scale(0.1 -0.1)">
       <use transform="scale(0.996264009963)" xlink:href="#CMR17-49"/>
       <use transform="translate(45.6904771171 0.0)scale(0.996264009963)" xlink:href="#CMR17-48"/>
       <use transform="translate(91.3809542341 0.0)scale(0.996264009963)" xlink:href="#CMR17-48"/>
      </g>
     </g>
    </g>
    <g id="xtick_7">
     <g id="line2d_15">
      <g>
       <use style="stroke:#000000;stroke-width:0.5;" x="296.238188976" xlink:href="#m93b0483c22" y="99.9497836836"/>
      </g>
     </g>
     <g id="line2d_16">
      <g>
       <use style="stroke:#000000;stroke-width:0.5;" x="296.238188976" xlink:href="#m741efc42ff" y="19.9899567367"/>
      </g>
     </g>
     <g id="text_7">
      <!-- $120$ -->
      <g transform="translate(288.766186099 110.868282064)scale(0.1 -0.1)">
       <use transform="scale(0.996264009963)" xlink:href="#CMR17-49"/>
       <use transform="translate(45.6904771171 0.0)scale(0.996264009963)" xlink:href="#CMR17-50"/>
       <use transform="translate(91.3809542341 0.0)scale(0.996264009963)" xlink:href="#CMR17-48"/>
      </g>
     </g>
    </g>
    <g id="text_8">
     <!-- sample index -->
     <defs>
      <path d="
M36 25.8281
C36 32.375 36 35.8438 31.7969 39.7344
C28.0938 43 23.7969 44 20.4062 44
C12.5 44 6.79688 37.6094 6.79688 30.7969
C6.79688 27 9.79688 27 10.4062 27
C11.7031 27 14 27.7812 14 30.5312
C14 33 12.0938 34.0781 10.4062 34.0781
C10 34.0781 9.5 33.9688 9.20312 33.875
C11.2969 40.5 16.7031 42.4062 20.2031 42.4062
C25.2031 42.4062 30.7031 37.9531 30.7031 29.4531
L30.7031 25
C24.7969 25 17.7031 24.2031 12.0938 21.2031
C5.79688 17.7031 4 12.7031 4 8.90625
C4 1.20312 13 -1 18.2969 -1
C23.7969 -1 28.9062 2.17188 31.0938 7.98438
C31.2969 3.64062 34.0938 -0.28125 38.5 -0.28125
C40.5938 -0.28125 45.9062 1.09375 45.9062 8.85938
L45.9062 14.375
L44.0938 14.375
L44.0938 8.78125
C44.0938 2.78125 41.4062 2 40.0938 2
C36 2 36 7.15625 36 11.5312
z

M30.7031 13.5938
C30.7031 4.95312 24.5 0.59375 19 0.59375
C14 0.59375 10.0938 4.29688 10.0938 8.90625
C10.0938 11.8906 11.4062 17.1875 17.2031 20.3906
C22 23.0938 27.5 23.5 30.7031 23.5
z
" id="CMR17-97"/>
      <path d="
M26 23.0938
C29 26.9844 32.4062 31.3594 35.2031 34.625
C38.5 38.4062 42.2969 40 46.7031 40
L46.7031 42.5938
C45 42.5938 41.5 42.5938 39.7031 42.5938
C37 42.5938 33.9062 42.5938 31.5938 42.6875
L31.5938 40.0938
C33 39.8906 33.7969 38.8906 33.7969 37.5
C33.7969 35.7031 32.7969 34.6094 32.2969 33.9219
L24.9062 24.5781
L16.0938 36.0312
C15.2031 37.125 15.2031 37.3125 15.2031 37.8125
C15.2031 39.0156 16.2031 40 17.9062 40
L17.9062 42.6875
C15.5 42.5938 11.2031 42.5938 8.70312 42.5938
C6 42.5938 2.79688 42.5938 0.59375 42.6875
L0.59375 40
C6 40 7.20312 39.5938 9.59375 36.6094
L21.0938 21.7969
C21.2969 21.5938 21.7969 21 21.7969 20.7031
C21.7969 20.2969 13.0938 9.67188 12 8.28125
C7.5 2.89062 2.79688 2.5 0.09375 2.5
L0.09375 0
C1.79688 0 5.29688 0 7.09375 0
C9.09375 0 13.5 0 15.2969 -0.09375
L15.2969 2.5
C14.7031 2.59375 13.0938 2.79688 13.0938 5.07812
C13.0938 6.875 13.9062 7.96875 14.7969 9.15625
L23.0938 19.3125
L31.7969 8
C32.5938 6.90625 33.7969 5.40625 33.7969 4.70312
C33.7969 3.29688 32.5938 2.5 31 2.5
L31 -0.09375
C33.4062 0 37.7031 0 40.2031 0
C42.9062 0 46.0938 0 48.2969 -0.09375
L48.2969 2.5
C43.2969 2.5 41.7969 2.6875 39.4062 5.78125
z
" id="CMR17-120"/>
      <path d="
M15.5 61.0781
C15.5 63.2656 13.7031 65.1562 11.4062 65.1562
C9.20312 65.1562 7.29688 63.375 7.29688 61.0781
C7.29688 58.8906 9.09375 57 11.4062 57
C13.5938 57 15.5 58.7969 15.5 61.0781
M3.79688 42.2812
L3.79688 39.7031
C9.40625 39.7031 10.2031 39.0938 10.2031 34.3281
L10.2031 6.67188
C10.2031 2.875 9.79688 2.39062 3.40625 2.39062
L3.40625 -0.203125
C5.79688 0 10.0938 0 12.5938 0
C15 0 19.0938 0 21.4062 -0.203125
L21.4062 2.39062
C15.5 2.39062 15.2969 2.98438 15.2969 6.5625
L15.2969 43.375
z
" id="CMR17-105"/>
      <path d="
M30.9062 42.1094
C30.9062 43.9062 30.7969 44 30.2031 44
C29.7969 44 29.7031 43.9062 28.5 42.4219
C28.2031 42.0156 27.2969 41.0156 27 40.625
C23.7969 44 19.2969 44 17.5938 44
C6.5 44 2.5 38.1719 2.5 32.375
C2.5 23.3438 12.7031 21.25 15.5938 20.6406
C21.9062 19.3438 24.0938 18.9375 26.2031 17.125
C27.5 15.9375 29.7031 13.7344 29.7031 10.125
C29.7031 5.90625 27.2969 0.5 18.0938 0.5
C9.40625 0.5 6.29688 7.0625 4.5 15.8281
C4.20312 17.2188 4.20312 17.3281 3.40625 17.3281
C2.59375 17.3281 2.5 17.2188 2.5 15.2344
L2.5 0.890625
C2.5 -0.890625 2.59375 -1 3.20312 -1
C3.70312 -1 3.79688 -0.890625 4.29688 -0.09375
C4.90625 0.796875 6.40625 3.1875 7 4.1875
C9 1.54688 12.5 -1 18.0938 -1
C28 -1 33.2969 4.40625 33.2969 12.2344
C33.2969 17.3438 30.5938 20.0625 29.2969 21.25
C26.2969 24.375 22.7969 25.0625 18.5938 25.8594
C13.0938 27.0781 6.09375 28.4688 6.09375 34.5938
C6.09375 37.1875 7.5 42.7188 17.5938 42.7188
C28.2969 42.7188 28.9062 32.75 29.0938 29.5625
C29.2031 29.0781 29.7031 28.9688 30 28.9688
C30.9062 28.9688 30.9062 29.2812 30.9062 30.9688
z
" id="CMR17-115"/>
      <path d="
M22 -16.6094
C15.5938 -16.6094 15.2031 -16.2031 15.2031 -12.3281
L15.2031 6.28125
C18.0938 2.09375 22.2969 -0.59375 27.5938 -0.59375
C37.5938 -0.59375 47.7031 8.17188 47.7031 21.6875
C47.7031 34.2344 39 43.7812 28.7031 43.7812
C22.7031 43.7812 17.7969 40.5 15 36.5312
L15 43.7812
L3.09375 42.6875
L3.09375 40.1094
C9 40.1094 9.90625 39.5 9.90625 34.7344
L9.90625 -12.3281
C9.90625 -16.1094 9.5 -16.6094 3.09375 -16.6094
L3.09375 -19.1875
C5.5 -19 9.90625 -19 12.5 -19
C15.0938 -19 19.5938 -19 22 -19.1875
z

M15.2031 31.4375
C15.2031 32.8438 15.2031 34.9219 19.0938 38.6094
C19.5938 39.0156 23 42 28 42
C35.2969 42 41.2969 32.9375 41.2969 21.5938
C41.2969 10.25 34.9062 1 27 1
C23.4062 1 19.5 2.6875 16.5 7.375
C15.2031 9.5625 15.2031 10.1562 15.2031 11.75
z
" id="CMR17-112"/>
      <path d="
M29.2031 67.5938
L29.2031 65
C35.0938 65 36 64.4062 36 59.6875
L36 36.6406
C35.5938 37.1406 31.5 43.5938 23.4062 43.5938
C13.2031 43.5938 3.29688 34.5 3.29688 21.3125
C3.29688 8.20312 12.5938 -1 22.4062 -1
C30.9062 -1 35.2969 5.26562 35.7969 5.9375
L35.7969 -0.984375
L47.9062 -0.984375
L47.9062 2
C42 2 41.0938 2.59375 41.0938 7.39062
L41.0938 68.6875
z

M35.7969 11.7969
C35.7969 8.79688 34 6.09375 31.7031 4.09375
C28.2969 1.09375 24.9062 0.59375 23 0.59375
C20.0938 0.59375 9.70312 2.09375 9.70312 21.1875
C9.70312 40.8125 21.2969 42 23.9062 42
C28.5 42 32.2031 39.4062 34.5 35.7969
C35.7969 33.7031 35.7969 33.4062 35.7969 31.6094
z
" id="CMR17-100"/>
      <path d="
M41.5 30.2031
C41.5 35.2969 40.5 43.5938 28.7031 43.5938
C20.7969 43.5938 16.7031 37.5 15.2031 33.5
L15.0938 33.5
L15.0938 43.5938
L3.29688 42.5
L3.29688 39.9062
C9.20312 39.9062 10.0938 39.2969 10.0938 34.5
L10.0938 6.6875
C10.0938 2.875 9.70312 2.39062 3.29688 2.39062
L3.29688 -0.203125
C5.70312 0 10.0938 0 12.7031 0
C15.2969 0 19.7969 0 22.2031 -0.203125
L22.2031 2.39062
C15.7969 2.39062 15.4062 2.78125 15.4062 6.6875
L15.4062 25.9062
C15.4062 35.1094 21 42 28 42
C35.4062 42 36.2031 35.4062 36.2031 30.5938
L36.2031 6.6875
C36.2031 2.875 35.7969 2.39062 29.4062 2.39062
L29.4062 -0.203125
C31.7969 0 36.2031 0 38.7969 0
C41.4062 0 45.9062 0 48.2969 -0.203125
L48.2969 2.39062
C41.9062 2.39062 41.5 2.78125 41.5 6.6875
z
" id="CMR17-110"/>
      <path d="
M38.0938 23
C38.5 23.4062 38.5 23.6094 38.5 24.625
C38.5 34.9688 33.0938 44 21.7031 44
C11.0938 44 2.70312 33.8906 2.70312 21.6094
C2.70312 8.60938 12.2031 -1 22.7969 -1
C34 -1 38.4062 9.46875 38.4062 11.5469
C38.4062 12.25 37.7969 12.25 37.5938 12.25
C36.9062 12.25 36.7969 12.0469 36.4062 10.875
C34.2031 4.14062 28.7031 0.796875 23.5 0.796875
C19.2031 0.796875 14.9062 3.17188 12.2031 7.5
C9.09375 12.5469 9.09375 18.375 9.09375 23
z

M9.20312 24.5
C9.90625 39.1406 17.5938 42.4062 21.5938 42.4062
C28.4062 42.4062 33 35.8906 33.0938 24.5
z
" id="CMR17-101"/>
      <path d="
M67.5938 30.2031
C67.5938 35.1875 66.7031 43.5938 54.7969 43.5938
C48 43.5938 43.2969 39 41.5 33.5938
L41.4062 33.5938
C40.2031 41.7969 34.2969 43.5938 28.7031 43.5938
C20.7969 43.5938 16.7031 37.5625 15.2031 33.5938
L15.0938 33.5938
L15.0938 43.5938
L3.29688 42.5
L3.29688 39.9062
C9.20312 39.9062 10.0938 39.2969 10.0938 34.5
L10.0938 6.6875
C10.0938 2.875 9.70312 2.39062 3.29688 2.39062
L3.29688 -0.203125
C5.70312 0 10.0938 0 12.7031 0
C15.2969 0 19.7969 0 22.2031 -0.203125
L22.2031 2.39062
C15.7969 2.39062 15.4062 2.78125 15.4062 6.6875
L15.4062 25.9062
C15.4062 35.1094 21 42 28 42
C35.4062 42 36.2031 35.4062 36.2031 30.5938
L36.2031 6.6875
C36.2031 2.875 35.7969 2.39062 29.4062 2.39062
L29.4062 -0.203125
C31.7969 0 36.2031 0 38.7969 0
C41.4062 0 45.9062 0 48.2969 -0.203125
L48.2969 2.39062
C41.9062 2.39062 41.5 2.78125 41.5 6.6875
L41.5 25.9062
C41.5 35.1094 47.0938 42 54.0938 42
C61.5 42 62.2969 35.4062 62.2969 30.5938
L62.2969 6.6875
C62.2969 2.875 61.9062 2.39062 55.5 2.39062
L55.5 -0.203125
C57.9062 0 62.2969 0 64.9062 0
C67.5 0 72 0 74.4062 -0.203125
L74.4062 2.39062
C68 2.39062 67.5938 2.78125 67.5938 6.6875
z
" id="CMR17-109"/>
      <path d="
M15.2969 68.6875
L3.40625 67.5938
L3.40625 65
C9.29688 65 10.2031 64.4062 10.2031 59.6406
L10.2031 6.65625
C10.2031 2.875 9.79688 2.39062 3.40625 2.39062
L3.40625 -0.203125
C5.79688 0 10.2031 0 12.7031 0
C15.2969 0 19.7031 0 22.0938 -0.203125
L22.0938 2.39062
C15.7031 2.39062 15.2969 2.78125 15.2969 6.65625
z
" id="CMR17-108"/>
     </defs>
     <g transform="translate(152.731414909 124.723958774)scale(0.1 -0.1)">
      <use transform="scale(0.996264009963)" xlink:href="#CMR17-115"/>
      <use transform="translate(35.8013376352 0.0)scale(0.996264009963)" xlink:href="#CMR17-97"/>
      <use transform="translate(81.4918147523 0.0)scale(0.996264009963)" xlink:href="#CMR17-109"/>
      <use transform="translate(158.41140462 0.0)scale(0.996264009963)" xlink:href="#CMR17-112"/>
      <use transform="translate(209.306774401 0.0)scale(0.996264009963)" xlink:href="#CMR17-108"/>
      <use transform="translate(234.177832883 0.0)scale(0.996264009963)" xlink:href="#CMR17-101"/>
      <use transform="translate(304.739459692 0.0)scale(0.996264009963)" xlink:href="#CMR17-105"/>
      <use transform="translate(329.610518174 0.0)scale(0.996264009963)" xlink:href="#CMR17-110"/>
      <use transform="translate(380.505887954 0.0)scale(0.996264009963)" xlink:href="#CMR17-100"/>
      <use transform="translate(431.401257735 0.0)scale(0.996264009963)" xlink:href="#CMR17-101"/>
      <use transform="translate(471.886918197 0.0)scale(0.996264009963)" xlink:href="#CMR17-120"/>
     </g>
    </g>
   </g>
   <g id="matplotlib.axis_2">
    <g id="ytick_1">
     <g id="line2d_17">
      <defs>
       <path d="
M0 0
L4 0" id="m728421d6d4" style="stroke:#000000;stroke-width:0.5;"/>
      </defs>
      <g>
       <use style="stroke:#000000;stroke-width:0.5;" x="51.75" xlink:href="#m728421d6d4" y="93.1154639864"/>
      </g>
     </g>
     <g id="line2d_18">
      <defs>
       <path d="
M0 0
L-4 0" id="mcb0005524f" style="stroke:#000000;stroke-width:0.5;"/>
      </defs>
      <g>
       <use style="stroke:#000000;stroke-width:0.5;" x="310.5" xlink:href="#mcb0005524f" y="93.1154639864"/>
      </g>
     </g>
     <g id="text_9">
      <!-- $-1.0$ -->
      <defs>
       <path d="
M65.9062 23
C67.5938 23 69.4062 23 69.4062 25
C69.4062 27 67.5938 27 65.9062 27
L11.7969 27
C10.0938 27 8.29688 27 8.29688 25
C8.29688 23 10.0938 23 11.7969 23
z
" id="CMSY10-0"/>
       <path d="
M18.4062 4.79688
C18.4062 7.6875 16 9.67188 13.5938 9.67188
C10.7031 9.67188 8.70312 7.28125 8.70312 4.89062
C8.70312 2 11.0938 0 13.5 0
C16.4062 0 18.4062 2.39062 18.4062 4.79688" id="CMMI12-58"/>
      </defs>
      <g transform="translate(27.271177299 95.6061240113)scale(0.1 -0.1)">
       <use transform="scale(0.996264009963)" xlink:href="#CMSY10-0"/>
       <use transform="translate(77.4874676506 0.0)scale(0.996264009963)" xlink:href="#CMR17-49"/>
       <use transform="translate(123.177944768 0.0)scale(0.996264009963)" xlink:href="#CMMI12-58"/>
       <use transform="translate(150.275121857 0.0)scale(0.996264009963)" xlink:href="#CMR17-48"/>
      </g>
     </g>
    </g>
    <g id="ytick_2">
     <g id="line2d_19">
      <g>
       <use style="stroke:#000000;stroke-width:0.5;" x="51.75" xlink:href="#m728421d6d4" y="76.739671243"/>
      </g>
     </g>
     <g id="line2d_20">
      <g>
       <use style="stroke:#000000;stroke-width:0.5;" x="310.5" xlink:href="#mcb0005524f" y="76.739671243"/>
      </g>
     </g>
     <g id="text_10">
      <!-- $-0.5$ -->
      <defs>
       <path d="
M11.4062 57.6875
C12.4062 57.2812 16.5 56 20.7031 56
C30 56 35.0938 61.0156 38 63.9219
C38 64.7344 38 65.25 37.4062 65.25
C37.2969 65.25 37.0938 65.25 36.2969 64.8281
C32.7969 63.3125 28.7031 62.0781 23.7031 62.0781
C20.7031 62.0781 16.2031 62.5 11.2969 64.7344
C10.2031 65.25 10 65.25 9.90625 65.25
C9.40625 65.25 9.29688 65.1406 9.29688 63.1562
L9.29688 34.2812
C9.29688 32.5 9.29688 32 10.2969 32
C10.7969 32 11 32.2031 11.5 32.9062
C14.7031 37.4844 19.0938 39.4062 24.0938 39.4062
C27.5938 39.4062 35.0938 37.2188 35.0938 20.1406
C35.0938 16.9531 35.0938 11.1719 32.0938 6.57812
C29.5938 2.48438 25.7031 0.390625 21.4062 0.390625
C14.7969 0.390625 8.09375 5 6.29688 12.7188
C6.70312 12.6094 7.5 12.4219 7.90625 12.4219
C9.20312 12.4219 11.7031 13.125 11.7031 16.2188
C11.7031 18.9062 9.79688 20 7.90625 20
C5.59375 20 4.09375 18.5938 4.09375 15.7969
C4.09375 7.09375 11 -2 21.5938 -2
C31.9062 -2 41.7031 6.875 41.7031 19.75
C41.7031 31.7188 33.9062 41 24.2031 41
C19.0938 41 14.7969 39.0938 11.4062 35.4531
z
" id="CMR17-53"/>
      </defs>
      <g transform="translate(27.271177299 79.2303312679)scale(0.1 -0.1)">
       <use transform="scale(0.996264009963)" xlink:href="#CMSY10-0"/>
       <use transform="translate(77.4874676506 0.0)scale(0.996264009963)" xlink:href="#CMR17-48"/>
       <use transform="translate(123.177944768 0.0)scale(0.996264009963)" xlink:href="#CMMI12-58"/>
       <use transform="translate(150.275121857 0.0)scale(0.996264009963)" xlink:href="#CMR17-53"/>
      </g>
     </g>
    </g>
    <g id="ytick_3">
     <g id="line2d_21">
      <g>
       <use style="stroke:#000000;stroke-width:0.5;" x="51.75" xlink:href="#m728421d6d4" y="60.3638784996"/>
      </g>
     </g>
     <g id="line2d_22">
      <g>
       <use style="stroke:#000000;stroke-width:0.5;" x="310.5" xlink:href="#mcb0005524f" y="60.3638784996"/>
      </g>
     </g>
     <g id="text_11">
      <!-- $0.0$ -->
      <g transform="translate(35.0199210237 62.8545385245)scale(0.1 -0.1)">
       <use transform="scale(0.996264009963)" xlink:href="#CMR17-48"/>
       <use transform="translate(45.6904771171 0.0)scale(0.996264009963)" xlink:href="#CMMI12-58"/>
       <use transform="translate(72.7876542069 0.0)scale(0.996264009963)" xlink:href="#CMR17-48"/>
      </g>
     </g>
    </g>
    <g id="ytick_4">
     <g id="line2d_23">
      <g>
       <use style="stroke:#000000;stroke-width:0.5;" x="51.75" xlink:href="#m728421d6d4" y="43.9880857563"/>
      </g>
     </g>
     <g id="line2d_24">
      <g>
       <use style="stroke:#000000;stroke-width:0.5;" x="310.5" xlink:href="#mcb0005524f" y="43.9880857563"/>
      </g>
     </g>
     <g id="text_12">
      <!-- $0.5$ -->
      <g transform="translate(35.0199210237 46.4787457812)scale(0.1 -0.1)">
       <use transform="scale(0.996264009963)" xlink:href="#CMR17-48"/>
       <use transform="translate(45.6904771171 0.0)scale(0.996264009963)" xlink:href="#CMMI12-58"/>
       <use transform="translate(72.7876542069 0.0)scale(0.996264009963)" xlink:href="#CMR17-53"/>
      </g>
     </g>
    </g>
    <g id="ytick_5">
     <g id="line2d_25">
      <g>
       <use style="stroke:#000000;stroke-width:0.5;" x="51.75" xlink:href="#m728421d6d4" y="27.6122930129"/>
      </g>
     </g>
     <g id="line2d_26">
      <g>
       <use style="stroke:#000000;stroke-width:0.5;" x="310.5" xlink:href="#mcb0005524f" y="27.6122930129"/>
      </g>
     </g>
     <g id="text_13">
      <!-- $1.0$ -->
      <g transform="translate(35.0199210237 30.1029530378)scale(0.1 -0.1)">
       <use transform="scale(0.996264009963)" xlink:href="#CMR17-49"/>
       <use transform="translate(45.6904771171 0.0)scale(0.996264009963)" xlink:href="#CMMI12-58"/>
       <use transform="translate(72.7876542069 0.0)scale(0.996264009963)" xlink:href="#CMR17-48"/>
      </g>
     </g>
    </g>
    <g id="text_14">
     <!-- sample value -->
     <defs>
      <path d="
M29.4062 42.0781
L29.4062 39.5
C35.2969 39.5 36.2031 38.8906 36.2031 34.1562
L36.2031 16.125
C36.2031 7.8125 31.7031 0.59375 24.2969 0.59375
C16.0938 0.59375 15.4062 5.4375 15.4062 10.5938
L15.4062 43.1719
L3.29688 42.0781
L3.29688 39.5
C7.29688 39.5 10 39.5 10.0938 35.5312
L10.0938 16.5312
C10.0938 9.89062 10.0938 5.64062 12.7031 2.85938
C14 1.57812 16.5 -1 23.7031 -1
C32.2031 -1 35.5 6.35938 36.2969 8.5
L36.4062 8.5
L36.4062 -0.984375
L48.2969 -0.984375
L48.2969 2
C42.4062 2 41.5 2.59375 41.5 7.39062
L41.5 43.1719
z
" id="CMR17-117"/>
      <path d="
M39.0938 33.7969
C40 36 41.5938 40 47.4062 40
L47.4062 42.5938
C45.5 42.5938 43 42.5938 41.0938 42.5938
C39 42.5938 35.7031 42.5938 33.7031 42.6875
L33.7031 40.0938
C36.2031 39.8906 37.5938 38.7031 37.5938 36.1094
C37.5938 35.2031 37.5938 35 37 33.6094
L26 5.89062
L14.0938 35.7188
C13.5 37.0156 13.5 37.2031 13.5 37.6094
C13.5 40 16.7969 40 18.2969 40
L18.2969 42.6875
C15.9062 42.5938 11.5 42.5938 9 42.5938
C6.29688 42.5938 3.20312 42.5938 1 42.6875
L1 40
C4.79688 40 6.90625 40 8.09375 36.9062
L22.5938 0.6875
C23.2031 -0.796875 23.2969 -1 24.2031 -1
C25.0938 -1 25.2031 -0.796875 25.7969 0.6875
z
" id="CMR17-118"/>
     </defs>
     <g transform="translate(20.3339989687 87.8099736066)rotate(-90.0)scale(0.1 -0.1)">
      <use transform="scale(0.996264009963)" xlink:href="#CMR17-115"/>
      <use transform="translate(35.8013376352 0.0)scale(0.996264009963)" xlink:href="#CMR17-97"/>
      <use transform="translate(81.4918147523 0.0)scale(0.996264009963)" xlink:href="#CMR17-109"/>
      <use transform="translate(158.41140462 0.0)scale(0.996264009963)" xlink:href="#CMR17-112"/>
      <use transform="translate(209.306774401 0.0)scale(0.996264009963)" xlink:href="#CMR17-108"/>
      <use transform="translate(234.177832883 0.0)scale(0.996264009963)" xlink:href="#CMR17-101"/>
      <use transform="translate(304.739459692 0.0)scale(0.996264009963)" xlink:href="#CMR17-118"/>
      <use transform="translate(347.827558886 0.0)scale(0.996264009963)" xlink:href="#CMR17-97"/>
      <use transform="translate(393.518036003 0.0)scale(0.996264009963)" xlink:href="#CMR17-108"/>
      <use transform="translate(418.389094485 0.0)scale(0.996264009963)" xlink:href="#CMR17-117"/>
      <use transform="translate(469.284464265 0.0)scale(0.996264009963)" xlink:href="#CMR17-101"/>
     </g>
    </g>
   </g>
   <g id="patch_3">
    <path d="
M51.75 19.99
L310.5 19.99" style="fill:none;stroke:#000000;"/>
   </g>
   <g id="patch_4">
    <path d="
M310.5 99.9498
L310.5 19.99" style="fill:none;stroke:#000000;"/>
   </g>
   <g id="patch_5">
    <path d="
M51.75 99.9498
L310.5 99.9498" style="fill:none;stroke:#000000;"/>
   </g>
   <g id="patch_6">
    <path d="
M51.75 99.9498
L51.75 19.99" style="fill:none;stroke:#000000;"/>
   </g>
   <g id="text_15">
    <!-- Compression of a square signal (bit rate: 192 kb/s). -->
    <defs>
     <path d="
M43.0938 21.1875
C43.0938 34 33.7969 44 22.9062 44
C12 44 2.70312 34 2.70312 21.1875
C2.70312 8.60938 12 -1 22.9062 -1
C33.7969 -1 43.0938 8.60938 43.0938 21.1875
M22.9062 0.796875
C18.2031 0.796875 14.2031 3.59375 11.9062 7.5
C9.40625 11.9844 9.09375 17.5938 9.09375 22
C9.09375 26.2031 9.29688 31.4062 11.9062 35.9062
C13.9062 39.2031 17.7969 42.4062 22.9062 42.4062
C27.4062 42.4062 31.2031 39.9062 33.5938 36.4062
C36.7031 31.7031 36.7031 25.1094 36.7031 22
C36.7031 18.0938 36.5 12.1094 33.7969 7.29688
C31 2.70312 26.7031 0.796875 22.9062 0.796875" id="CMR17-111"/>
     <path d="
M15 68.6875
L3.09375 67.5938
L3.09375 65
C9 65 9.90625 64.4062 9.90625 59.6406
L9.90625 -0.203125
L11.7031 -0.203125
L14.5938 6.89062
C17.5 2.20312 21.7969 -1 27.5938 -1
C37.5938 -1 47.7031 7.8125 47.7031 21.4062
C47.7031 34.1875 38.7031 43.5938 28.5938 43.5938
C22.4062 43.5938 18 40.2969 15 36.4062
z

M15.2031 31.3125
C15.2031 33.0938 15.2031 33.4062 16.5938 35.5
C20.5 41.5156 26.0938 42 28 42
C31 42 41.2969 40.3906 41.2969 21.5
C41.2969 1.6875 29.5 0.59375 27.0938 0.59375
C24 0.59375 19.5 1.78125 16.2969 7.59375
C15.2031 9.5 15.2031 9.70312 15.2031 11.4844
z
" id="CMR17-98"/>
     <path d="
M26.0938 26.1406
C26 26.3438 25.5 26.9375 25.5 27.2344
C25.5 27.4375 32.5938 33.9219 33.5 34.7188
C39.2031 39.5 42.7969 40 45.4062 40
L45.4062 42.6875
C44.7969 42.6875 44.5938 42.6875 44.5 42.6875
L39.5938 42.6875
C36.7969 42.6875 32.5 42.6875 29.7969 42.6875
L29.7969 40.0938
C31.2031 39.9844 32.2031 39.1875 32.2031 37.7969
C32.2031 35.8125 30.2031 33.9219 30.0938 33.9219
L15 20.1562
L15 68.6875
L3.09375 67.5938
L3.09375 65
C9 65 9.90625 64.4062 9.90625 59.6406
L9.90625 6.65625
C9.90625 2.875 9.5 2.39062 3.09375 2.39062
L3.09375 -0.203125
C5.5 0 9.90625 0 12.4062 0
C14.9062 0 19.2969 0 21.7031 -0.203125
L21.7031 2.39062
C15.2969 2.39062 14.9062 2.78125 14.9062 6.6875
L14.9062 17.6562
L21.7969 23.9375
L31.9062 8.96875
C33.0938 7.17188 34.0938 5.76562 34.0938 4.46875
C34.0938 2.6875 32.2969 2.39062 31.0938 2.39062
L31.0938 -0.203125
C33.5 0 37.7969 0 40.2969 0
C42.0938 0 45.7969 0 47.5 0
L47.5 2.39062
C42.7969 2.39062 41.7031 3.28125 38.7031 7.67188
z
" id="CMR17-107"/>
     <path d="
M62.0938 67.1094
C62.0938 68.8906 62 69 61.4062 69
C61 69 60.9062 68.8906 60.2031 67.7031
L55.7969 59.3281
C50.9062 65.4531 44.9062 69 37.2031 69
C20.0938 69 4.59375 54 4.59375 33.5469
C4.59375 12.9062 20.0938 -2 37.2969 -2
C52.5938 -2 62.0938 11.4062 62.0938 22.8438
C62.0938 23.8281 62.0938 24.2344 61.2031 24.2344
C60.4062 24.2344 60.4062 23.9375 60.2969 23.0469
C59.5 9.14062 49.5 0.59375 38.7031 0.59375
C28.5 0.59375 12.2031 7.73438 12.2031 33.5938
C12.2031 59.5469 28.7969 66.5 38.5 66.5
C49.7969 66.5 58 56.75 59.9062 42.9219
C60.0938 41.7188 60.0938 41.5156 61 41.5156
C62.0938 41.5156 62.0938 41.7188 62.0938 43.5156
z
" id="CMR17-67"/>
     <path d="
M15.0938 40
L29.0938 40
L29.0938 42.5781
L15.0938 42.5781
L15.0938 61
L13.2969 61
C13.0938 50.7031 9.59375 41.6875 1.09375 41.6875
L1.09375 40
L9.79688 40
L9.79688 12.0469
C9.79688 10.1562 9.79688 -1 21.4062 -1
C27.2969 -1 30.7031 4.78125 30.7031 12.1406
L30.7031 17.8125
L28.9062 17.8125
L28.9062 12.2344
C28.9062 5.375 26.2031 0.796875 22 0.796875
C19.0938 0.796875 15.0938 2.78125 15.0938 11.8438
z
" id="CMR17-116"/>
     <path d="
M15 23.3906
C15 33 19.0938 42 26.5938 42
C27.2969 42 28 41.9062 28.7031 41.5938
C28.7031 41.5938 26.5 40.8906 26.5 38.3125
C26.5 35.9062 28.4062 34.9062 29.9062 34.9062
C31.0938 34.9062 33.2969 35.6094 33.2969 38.4062
C33.2969 41.6094 30.0938 43.5938 26.7031 43.5938
C19.0938 43.5938 15.7969 36.2031 14.7969 32.7031
L14.7031 32.7031
L14.7031 43.5938
L3.09375 42.5
L3.09375 39.9062
C9 39.9062 9.90625 39.2969 9.90625 34.5
L9.90625 6.6875
C9.90625 2.875 9.5 2.39062 3.09375 2.39062
L3.09375 -0.203125
C5.5 0 10.0938 0 12.7031 0
C15.5938 0 20.7031 0 23.4062 -0.203125
L23.4062 2.39062
C16.2031 2.39062 15 2.39062 15 6.875
z
" id="CMR17-114"/>
     <path d="
M30.5938 -24.4062
C30.5938 -24.3125 30.5938 -24.1094 30.2969 -23.8125
C25.7031 -19.1406 13.4062 -6.39062 13.4062 24.6719
C13.4062 55.75 25.5 68.3906 30.4062 73.3594
C30.4062 73.4688 30.5938 73.6719 30.5938 73.9531
C30.5938 74.25 30.2969 74.4531 29.9062 74.4531
C28.7969 74.4531 20.2969 67.0781 15.4062 56.125
C10.4062 45.0781 9 34.3281 9 24.7812
C9 17.6094 9.70312 5.46875 15.7031 -7.375
C20.5 -17.7344 28.7031 -25 29.9062 -25
C30.4062 -25 30.5938 -24.7969 30.5938 -24.4062" id="CMR17-40"/>
     <path d="
M40.7031 71.0156
C41.2031 72.2969 41.2031 72.5 41.2031 72.7031
C41.2031 73.8906 40.2969 74.5 39.5 74.5
C38.2969 74.5 37.9062 73.7031 37.5 72.5
L5.09375 -21.5156
C4.59375 -22.8125 4.59375 -23.0156 4.59375 -23.2188
C4.59375 -24.4062 5.5 -25 6.29688 -25
C7.5 -25 7.90625 -24.2031 8.29688 -23.0156
z
" id="CMR17-47"/>
     <path d="
M41.0938 43.7812
L39.5 43.7812
L36.5 33.9375
C34.2031 39.2031 30 43.7812 23.2969 43.7812
C13.0938 43.7812 3.29688 34.7344 3.29688 21.5938
C3.29688 8.5625 12.5 -0.59375 22.5 -0.59375
C30.2031 -0.59375 34.5 5.28125 35.7969 7.46875
L35.7969 -12.3281
C35.7969 -16.1094 35.4062 -16.6094 29 -16.6094
L29 -19.1875
C31.4062 -19 35.7969 -19 38.4062 -19
C41 -19 45.5 -19 47.9062 -19.1875
L47.9062 -16.6094
C41.5 -16.6094 41.0938 -16.2031 41.0938 -12.3281
z

M36 13.8438
C36 9.5625 32.4062 5.57812 32.0938 5.28125
C29 1.79688 25.4062 1 23 1
C15.5 1 9.70312 10.4531 9.70312 21.5
C9.70312 33.1406 16.2969 42 24 42
C32 42 36 32.9375 36 27.7656
z
" id="CMR17-113"/>
     <path d="
M11.0938 18.1875
C13 16.6875 16.2969 15 20.2969 15
C28.2031 15 35 21.2031 35 29.5
C35 32.0938 34.2031 36.0938 31.2031 39.2031
C34 42.0625 38.0938 43 40.4062 43
C40.7969 43 41.4062 43 41.9062 42.7656
C41.5 42.6719 40.5938 42.2812 40.5938 40.7344
C40.5938 39.4844 41.5 38.6094 42.7969 38.6094
C44.2969 38.6094 45.0938 39.5781 45.0938 40.8438
C45.0938 42.6719 43.5938 44.5938 40.4062 44.5938
C36.4062 44.5938 32.9062 42.7812 30.0938 40.3125
C27.0938 43.0156 23.5 44 20.2969 44
C12.4062 44 5.59375 37.7969 5.59375 29.5
C5.59375 23.7812 8.90625 20.1875 9.90625 19.1875
C6.90625 15.6875 6.90625 11.6094 6.90625 11.1094
C6.90625 8.51562 7.90625 4.71875 11.2969 2.625
C6.09375 1.32812 2 -2.64062 2 -7.59375
C2 -14.7344 11.5 -20 22.9062 -20
C33.9062 -20 43.7969 -14.9375 43.7969 -7.48438
C43.7969 6 29 6 21.2969 6
C19 6 14.9062 6 14.4062 6.10938
C11.2969 6.60938 9.20312 9.40625 9.20312 12.8906
C9.20312 13.7812 9.20312 16 11.0938 18.1875
M20.2969 16.6875
C11.5 16.6875 11.5 27.5 11.5 29.5156
C11.5 31.5 11.5 42.3125 20.2969 42.3125
C29.0938 42.3125 29.0938 31.5 29.0938 29.5156
C29.0938 27.5 29.0938 16.6875 20.2969 16.6875
M22.9062 -18.2969
C12.9062 -18.2969 6 -13.0469 6 -7.59375
C6 -4.51562 7.70312 -1.64062 9.90625 -0.0625
C12.4062 1.625 13.4062 1.625 20.2031 1.625
C28.4062 1.625 39.7969 1.625 39.7969 -7.59375
C39.7969 -13.0469 32.9062 -18.2969 22.9062 -18.2969" id="CMR17-103"/>
     <path d="
M15.2969 40
L26.7031 40
L26.7031 42.5781
L15.0938 42.5781
L15.0938 54.5938
C15.0938 62.8438 19.2969 68 23.5938 68
C24.9062 68 26.4062 67.6094 27.4062 66.9062
C26.5938 66.7031 24.5 66.0156 24.5 63.5312
C24.5 60.9531 26.5 60.1562 27.9062 60.1562
C29.2969 60.1562 31.2969 60.9531 31.2969 63.5469
C31.2969 67.3125 27.7031 69.5938 23.7031 69.5938
C18 69.5938 10.2031 64.9375 10.2031 54.3906
L10.2031 42.5781
L2.20312 42.5781
L2.20312 40
L10.2031 40
L10.2031 6.67188
C10.2031 2.875 9.79688 2.39062 3.40625 2.39062
L3.40625 -0.203125
C5.79688 0 10.4062 0 13 0
C15.9062 0 21 0 23.7031 -0.203125
L23.7031 2.39062
C16.5 2.39062 15.2969 2.39062 15.2969 6.85938
z
" id="CMR17-102"/>
     <path d="
M16.5938 38.9219
C16.5938 41.4062 14.5938 43 12.5 43
C10.5 43 8.40625 41.4062 8.40625 38.9219
C8.40625 36.4375 10.4062 34.8438 12.5 34.8438
C14.5 34.8438 16.5938 36.4375 16.5938 38.9219
M16.5938 4.07812
C16.5938 6.5625 14.5938 8.15625 12.5 8.15625
C10.5 8.15625 8.40625 6.5625 8.40625 4.07812
C8.40625 1.59375 10.4062 0 12.5 0
C14.5 0 16.5938 1.59375 16.5938 4.07812" id="CMR17-58"/>
     <path d="
M26.2969 24.6719
C26.2969 31.8438 25.5938 43.9844 19.5938 56.8281
C14.7969 67.1875 6.59375 74.4531 5.40625 74.4531
C5.09375 74.4531 4.70312 74.3438 4.70312 73.8594
C4.70312 73.6719 4.79688 73.5625 4.90625 73.3594
C9.70312 68.3906 21.9062 55.75 21.9062 24.7969
C21.9062 -6.28125 9.79688 -18.9219 4.90625 -23.9062
C4.79688 -24.0938 4.70312 -24.2031 4.70312 -24.3906
C4.70312 -24.8906 5.09375 -25 5.40625 -25
C6.5 -25 15 -17.625 19.9062 -6.67188
C24.9062 4.375 26.2969 15.125 26.2969 24.6719" id="CMR17-41"/>
     <path d="
M35.2031 29.125
C35.2031 7.25 26.0938 0.484375 18.5938 0.484375
C16.2969 0.484375 10.7031 0.484375 8.40625 4.59375
C11 4.1875 12.9062 5.57812 12.9062 8.09375
C12.9062 10.8125 10.7031 11.7031 9.29688 11.7031
C8.40625 11.7031 5.70312 11.2969 5.70312 7.90625
C5.70312 1.10938 11.5938 -2 18.7969 -2
C30.2969 -2 42 10.5312 42 32.3906
C42 59.6406 30.7969 65.2969 23.2031 65.2969
C13.2969 65.2969 3.79688 56.6875 3.79688 43.4062
C3.79688 31.1094 11.9062 22 22.0938 22
C30.5 22 34.2031 29.7344 35.2031 33
z

M22.2969 23.5938
C19.5938 23.5938 15.7969 24.0938 12.7031 30.0312
C10.5938 33.8906 10.5938 38.4531 10.5938 43.2969
C10.5938 49.1562 10.5938 53.2031 13.4062 57.5625
C14.7969 59.6406 17.4062 63 23.2031 63
C35 63 35 45.0781 35 41.125
C35 34.0938 31.7969 23.5938 22.2969 23.5938" id="CMR17-57"/>
     <path d="
M16.5938 4.07812
C16.5938 6.5625 14.5938 8.15625 12.5 8.15625
C10.5 8.15625 8.40625 6.5625 8.40625 4.07812
C8.40625 1.59375 10.4062 0 12.5 0
C14.5 0 16.5938 1.59375 16.5938 4.07812" id="CMR17-46"/>
    </defs>
    <g transform="translate(67.8966141982 14.9899567367)scale(0.1 -0.1)">
     <use transform="scale(0.996264009963)" xlink:href="#CMR17-67"/>
     <use transform="translate(66.5098805505 0.0)scale(0.996264009963)" xlink:href="#CMR17-111"/>
     <use transform="translate(112.200357668 0.0)scale(0.996264009963)" xlink:href="#CMR17-109"/>
     <use transform="translate(189.119947536 0.0)scale(0.996264009963)" xlink:href="#CMR17-112"/>
     <use transform="translate(240.015317316 0.0)scale(0.996264009963)" xlink:href="#CMR17-114"/>
     <use transform="translate(275.296085115 0.0)scale(0.996264009963)" xlink:href="#CMR17-101"/>
     <use transform="translate(315.781745578 0.0)scale(0.996264009963)" xlink:href="#CMR17-115"/>
     <use transform="translate(351.583083213 0.0)scale(0.996264009963)" xlink:href="#CMR17-115"/>
     <use transform="translate(387.384420849 0.0)scale(0.996264009963)" xlink:href="#CMR17-105"/>
     <use transform="translate(412.25547933 0.0)scale(0.996264009963)" xlink:href="#CMR17-111"/>
     <use transform="translate(457.945956448 0.0)scale(0.996264009963)" xlink:href="#CMR17-110"/>
     <use transform="translate(538.917292575 0.0)scale(0.996264009963)" xlink:href="#CMR17-111"/>
     <use transform="translate(584.607769692 0.0)scale(0.996264009963)" xlink:href="#CMR17-102"/>
     <use transform="translate(642.157248453 0.0)scale(0.996264009963)" xlink:href="#CMR17-97"/>
     <use transform="translate(717.923691917 0.0)scale(0.996264009963)" xlink:href="#CMR17-115"/>
     <use transform="translate(753.725029552 0.0)scale(0.996264009963)" xlink:href="#CMR17-113"/>
     <use transform="translate(802.0179454 0.0)scale(0.996264009963)" xlink:href="#CMR17-117"/>
     <use transform="translate(852.91331518 0.0)scale(0.996264009963)" xlink:href="#CMR17-97"/>
     <use transform="translate(898.603792297 0.0)scale(0.996264009963)" xlink:href="#CMR17-114"/>
     <use transform="translate(933.884560097 0.0)scale(0.996264009963)" xlink:href="#CMR17-101"/>
     <use transform="translate(1004.44618691 0.0)scale(0.996264009963)" xlink:href="#CMR17-115"/>
     <use transform="translate(1040.24752454 0.0)scale(0.996264009963)" xlink:href="#CMR17-105"/>
     <use transform="translate(1065.11858302 0.0)scale(0.996264009963)" xlink:href="#CMR17-103"/>
     <use transform="translate(1110.80906014 0.0)scale(0.996264009963)" xlink:href="#CMR17-110"/>
     <use transform="translate(1161.70442992 0.0)scale(0.996264009963)" xlink:href="#CMR17-97"/>
     <use transform="translate(1207.39490704 0.0)scale(0.996264009963)" xlink:href="#CMR17-108"/>
     <use transform="translate(1262.34193187 0.0)scale(0.996264009963)" xlink:href="#CMR17-40"/>
     <use transform="translate(1297.62269967 0.0)scale(0.996264009963)" xlink:href="#CMR17-98"/>
     <use transform="translate(1348.51806945 0.0)scale(0.996264009963)" xlink:href="#CMR17-105"/>
     <use transform="translate(1373.38912793 0.0)scale(0.996264009963)" xlink:href="#CMR17-116"/>
     <use transform="translate(1438.74586207 0.0)scale(0.996264009963)" xlink:href="#CMR17-114"/>
     <use transform="translate(1474.02662987 0.0)scale(0.996264009963)" xlink:href="#CMR17-97"/>
     <use transform="translate(1519.71710699 0.0)scale(0.996264009963)" xlink:href="#CMR17-116"/>
     <use transform="translate(1554.99787479 0.0)scale(0.996264009963)" xlink:href="#CMR17-101"/>
     <use transform="translate(1595.48353525 0.0)scale(0.996264009963)" xlink:href="#CMR17-58"/>
     <use transform="translate(1660.8402542 0.0)scale(0.996264009963)" xlink:href="#CMR17-49"/>
     <use transform="translate(1706.53073132 0.0)scale(0.996264009963)" xlink:href="#CMR17-57"/>
     <use transform="translate(1752.22120843 0.0)scale(0.996264009963)" xlink:href="#CMR17-50"/>
     <use transform="translate(1827.9876519 0.0)scale(0.996264009963)" xlink:href="#CMR17-107"/>
     <use transform="translate(1876.28056774 0.0)scale(0.996264009963)" xlink:href="#CMR17-98"/>
     <use transform="translate(1927.17593752 0.0)scale(0.996264009963)" xlink:href="#CMR17-47"/>
     <use transform="translate(1972.86641464 0.0)scale(0.996264009963)" xlink:href="#CMR17-115"/>
     <use transform="translate(2008.66775228 0.0)scale(0.996264009963)" xlink:href="#CMR17-41"/>
     <use transform="translate(2043.94852008 0.0)scale(0.996264009963)" xlink:href="#CMR17-46"/>
    </g>
   </g>
   <g id="legend_1">
    <g id="patch_7">
     <path d="
M191.265 75.407
L305.5 75.407
L305.5 44.5327
L191.265 44.5327
L191.265 75.407
z
" style="fill:#ffffff;stroke:#000000;"/>
    </g>
    <g id="line2d_27"/>
    <g id="line2d_28">
     <g>
      <use style="stroke:#000000;stroke-width:0.5;" x="198.265471158" xlink:href="#mcd8559154f" y="52.0326918799"/>
      <use style="stroke:#000000;stroke-width:0.5;" x="212.265471158" xlink:href="#mcd8559154f" y="52.0326918799"/>
     </g>
    </g>
    <g id="text_16">
     <!-- original sound -->
     <g transform="translate(223.265471158 55.5326918799)scale(0.1 -0.1)">
      <use transform="scale(0.996264009963)" xlink:href="#CMR17-111"/>
      <use transform="translate(45.6904771171 0.0)scale(0.996264009963)" xlink:href="#CMR17-114"/>
      <use transform="translate(80.9712449165 0.0)scale(0.996264009963)" xlink:href="#CMR17-105"/>
      <use transform="translate(105.842303398 0.0)scale(0.996264009963)" xlink:href="#CMR17-103"/>
      <use transform="translate(151.532780515 0.0)scale(0.996264009963)" xlink:href="#CMR17-105"/>
      <use transform="translate(176.403838997 0.0)scale(0.996264009963)" xlink:href="#CMR17-110"/>
      <use transform="translate(227.299208778 0.0)scale(0.996264009963)" xlink:href="#CMR17-97"/>
      <use transform="translate(272.989685895 0.0)scale(0.996264009963)" xlink:href="#CMR17-108"/>
      <use transform="translate(327.936710723 0.0)scale(0.996264009963)" xlink:href="#CMR17-115"/>
      <use transform="translate(363.738048359 0.0)scale(0.996264009963)" xlink:href="#CMR17-111"/>
      <use transform="translate(409.428525476 0.0)scale(0.996264009963)" xlink:href="#CMR17-117"/>
      <use transform="translate(460.323895256 0.0)scale(0.996264009963)" xlink:href="#CMR17-110"/>
      <use transform="translate(511.219265036 0.0)scale(0.996264009963)" xlink:href="#CMR17-100"/>
     </g>
    </g>
    <g id="line2d_29">
     <path d="
M198.265 65.9699
L212.265 65.9699" style="fill:none;stroke:#000000;stroke-linecap:square;"/>
    </g>
    <g id="line2d_30"/>
    <g id="text_17">
     <!-- compressed sound -->
     <defs>
      <path d="
M34.9062 35
C33 35 30.2031 35 30.2031 31.5156
C30.2031 28.7188 32.5 27.9219 33.7969 27.9219
C34.5 27.9219 37.4062 28.2344 37.4062 31.625
C37.4062 38.5469 30.5938 43.7969 22.9062 43.7969
C12.2969 43.7969 3.29688 34.0312 3.29688 21.2969
C3.29688 8.0625 12.7031 -1 22.9062 -1
C35.2969 -1 38.4062 10.5938 38.4062 11.6875
C38.4062 12.0938 38.2969 12.3906 37.5938 12.3906
C36.9062 12.3906 36.7969 12.2969 36.4062 10.9844
C33.7969 2.8125 28.0938 0.796875 23.7969 0.796875
C17.4062 0.796875 9.70312 6.67188 9.70312 21.3906
C9.70312 36.5312 17.0938 42 23 42
C26.9062 42 32.7031 40.2031 34.9062 35" id="CMR17-99"/>
     </defs>
     <g transform="translate(223.265471158 69.4698702101)scale(0.1 -0.1)">
      <use transform="scale(0.996264009963)" xlink:href="#CMR17-99"/>
      <use transform="translate(40.4856604627 0.0)scale(0.996264009963)" xlink:href="#CMR17-111"/>
      <use transform="translate(86.1761375798 0.0)scale(0.996264009963)" xlink:href="#CMR17-109"/>
      <use transform="translate(163.095727448 0.0)scale(0.996264009963)" xlink:href="#CMR17-112"/>
      <use transform="translate(213.991097228 0.0)scale(0.996264009963)" xlink:href="#CMR17-114"/>
      <use transform="translate(249.271865028 0.0)scale(0.996264009963)" xlink:href="#CMR17-101"/>
      <use transform="translate(289.75752549 0.0)scale(0.996264009963)" xlink:href="#CMR17-115"/>
      <use transform="translate(325.558863126 0.0)scale(0.996264009963)" xlink:href="#CMR17-115"/>
      <use transform="translate(361.360200761 0.0)scale(0.996264009963)" xlink:href="#CMR17-101"/>
      <use transform="translate(401.845861224 0.0)scale(0.996264009963)" xlink:href="#CMR17-100"/>
      <use transform="translate(482.817197351 0.0)scale(0.996264009963)" xlink:href="#CMR17-115"/>
      <use transform="translate(518.618534986 0.0)scale(0.996264009963)" xlink:href="#CMR17-111"/>
      <use transform="translate(564.309012103 0.0)scale(0.996264009963)" xlink:href="#CMR17-117"/>
      <use transform="translate(615.204381883 0.0)scale(0.996264009963)" xlink:href="#CMR17-110"/>
      <use transform="translate(666.099751664 0.0)scale(0.996264009963)" xlink:href="#CMR17-100"/>
     </g>
    </g>
   </g>
  </g>
 </g>
 <defs>
  <clipPath id="pddf8300a96">
   <rect height="79.9598269468" width="258.75" x="51.75" y="19.9899567367"/>
  </clipPath>
 </defs>
</svg>
