<?xml version="1.0" encoding="utf-8" standalone="no"?>
<!DOCTYPE svg PUBLIC "-//W3C//DTD SVG 1.1//EN"
  "http://www.w3.org/Graphics/SVG/1.1/DTD/svg11.dtd">
<!-- Created with matplotlib (http://matplotlib.org/) -->
<svg height="137pt" version="1.1" viewBox="0 0 345 137" width="345pt" xmlns="http://www.w3.org/2000/svg" xmlns:xlink="http://www.w3.org/1999/xlink">
 <defs>
  <style type="text/css">
*{stroke-linecap:butt;stroke-linejoin:round;}
  </style>
 </defs>
 <g id="figure_1">
  <g id="patch_1">
   <path d="
M0 137.709
L345 137.709
L345 0
L0 0
z
" style="fill:#ffffff;"/>
  </g>
  <g id="axes_1">
   <g id="patch_2">
    <path d="
M43.125 103.281
L310.5 103.281
L310.5 20.6563
L43.125 20.6563
z
" style="fill:#ffffff;"/>
   </g>
   <g id="line2d_1">
    <path clip-path="url(#pb3eda46194)" d="
M43.125 101.676
L51.0134 97.1567
L59.4365 92.5889
L68.4747 87.9421
L78.0477 83.2704
L88.1555 78.5848
L98.6911 73.9452
L108.799 69.4904
L117.997 63.5258
L127.276 57.7742
L136.609 52.2508
L144.738 47.6578
L156.102 51.5522
L167.574 55.2489
L179.232 58.7725
L190.41 61.9295
L220.065 63.1709
L252.153 64.2878
L287.557 65.2949
L310.5 65.8442
L310.5 65.8442" style="fill:none;stroke:#000000;stroke-linecap:square;"/>
   </g>
   <g id="matplotlib.axis_1">
    <g id="xtick_1">
     <g id="line2d_2">
      <path clip-path="url(#pb3eda46194)" d="
M43.125 103.281
L43.125 20.6563" style="fill:none;stroke:#000000;stroke-dasharray:1.000000,3.000000;stroke-dashoffset:0.0;stroke-width:0.5;"/>
     </g>
     <g id="line2d_3">
      <defs>
       <path d="
M0 0
L0 -4" id="m93b0483c22" style="stroke:#000000;stroke-width:0.5;"/>
      </defs>
      <g>
       <use style="stroke:#000000;stroke-width:0.5;" x="43.125" xlink:href="#m93b0483c22" y="103.28144314"/>
      </g>
     </g>
     <g id="line2d_4">
      <defs>
       <path d="
M0 0
L0 4" id="m741efc42ff" style="stroke:#000000;stroke-width:0.5;"/>
      </defs>
      <g>
       <use style="stroke:#000000;stroke-width:0.5;" x="43.125" xlink:href="#m741efc42ff" y="20.6562886279"/>
      </g>
     </g>
     <g id="text_1">
      <!-- $4000$ -->
      <defs>
       <path d="
M33.5938 64.3281
C33.5938 66.4062 33.5 66.5 31.7031 66.5
L2 19.5938
L2 17
L27.7969 17
L27.7969 7.14062
C27.7969 3.5 27.5938 2.5 20.5938 2.5
L18.7031 2.5
L18.7031 0
C21.9062 0 27.2969 0 30.7031 0
C34.0938 0 39.5 0 42.7031 0
L42.7031 2.5
L40.7969 2.5
C33.7969 2.5 33.5938 3.5 33.5938 7.14062
L33.5938 17
L43.7969 17
L43.7969 19.5938
L33.5938 19.5938
z

M28.0938 57.7656
L28.0938 19.5938
L4 19.5938
z
" id="CMR17-52"/>
       <path d="
M42 31.6406
C42 37.75 41.9062 48.125 37.7031 56.1094
C34 63.1094 28.0938 65.5938 22.9062 65.5938
C18.0938 65.5938 12 63.4062 8.20312 56.2031
C4.20312 48.7188 3.79688 39.4375 3.79688 31.6406
C3.79688 25.9531 3.90625 17.2812 7 9.67188
C11.2969 -0.609375 19 -2 22.9062 -2
C27.5 -2 34.5 -0.109375 38.5938 9.375
C41.5938 16.2812 42 24.3594 42 31.6406
M22.9062 -0.40625
C16.5 -0.40625 12.7031 5.07812 11.2969 12.6875
C10.2031 18.5625 10.2031 27.1562 10.2031 32.75
C10.2031 40.4375 10.2031 46.8281 11.5 52.9219
C13.4062 61.3906 19 64 22.9062 64
C27 64 32.2969 61.2969 34.2031 53.125
C35.5 47.4375 35.5938 40.7344 35.5938 32.75
C35.5938 26.25 35.5938 18.2656 34.4062 12.375
C32.2969 1.48438 26.4062 -0.40625 22.9062 -0.40625" id="CMR17-48"/>
      </defs>
      <g transform="translate(33.1623294968 114.19994152)scale(0.1 -0.1)">
       <use transform="scale(0.996264009963)" xlink:href="#CMR17-52"/>
       <use transform="translate(45.6904771171 0.0)scale(0.996264009963)" xlink:href="#CMR17-48"/>
       <use transform="translate(91.3809542341 0.0)scale(0.996264009963)" xlink:href="#CMR17-48"/>
       <use transform="translate(137.071431351 0.0)scale(0.996264009963)" xlink:href="#CMR17-48"/>
      </g>
     </g>
    </g>
    <g id="xtick_2">
     <g id="line2d_5">
      <path clip-path="url(#pb3eda46194)" d="
M76.5469 103.281
L76.5469 20.6563" style="fill:none;stroke:#000000;stroke-dasharray:1.000000,3.000000;stroke-dashoffset:0.0;stroke-width:0.5;"/>
     </g>
     <g id="line2d_6">
      <g>
       <use style="stroke:#000000;stroke-width:0.5;" x="76.546875" xlink:href="#m93b0483c22" y="103.28144314"/>
      </g>
     </g>
     <g id="line2d_7">
      <g>
       <use style="stroke:#000000;stroke-width:0.5;" x="76.546875" xlink:href="#m741efc42ff" y="20.6562886279"/>
      </g>
     </g>
     <g id="text_2">
      <!-- $5000$ -->
      <defs>
       <path d="
M11.4062 57.6875
C12.4062 57.2812 16.5 56 20.7031 56
C30 56 35.0938 61.0156 38 63.9219
C38 64.7344 38 65.25 37.4062 65.25
C37.2969 65.25 37.0938 65.25 36.2969 64.8281
C32.7969 63.3125 28.7031 62.0781 23.7031 62.0781
C20.7031 62.0781 16.2031 62.5 11.2969 64.7344
C10.2031 65.25 10 65.25 9.90625 65.25
C9.40625 65.25 9.29688 65.1406 9.29688 63.1562
L9.29688 34.2812
C9.29688 32.5 9.29688 32 10.2969 32
C10.7969 32 11 32.2031 11.5 32.9062
C14.7031 37.4844 19.0938 39.4062 24.0938 39.4062
C27.5938 39.4062 35.0938 37.2188 35.0938 20.1406
C35.0938 16.9531 35.0938 11.1719 32.0938 6.57812
C29.5938 2.48438 25.7031 0.390625 21.4062 0.390625
C14.7969 0.390625 8.09375 5 6.29688 12.7188
C6.70312 12.6094 7.5 12.4219 7.90625 12.4219
C9.20312 12.4219 11.7031 13.125 11.7031 16.2188
C11.7031 18.9062 9.79688 20 7.90625 20
C5.59375 20 4.09375 18.5938 4.09375 15.7969
C4.09375 7.09375 11 -2 21.5938 -2
C31.9062 -2 41.7031 6.875 41.7031 19.75
C41.7031 31.7188 33.9062 41 24.2031 41
C19.0938 41 14.7969 39.0938 11.4062 35.4531
z
" id="CMR17-53"/>
      </defs>
      <g transform="translate(66.5842044968 114.19994152)scale(0.1 -0.1)">
       <use transform="scale(0.996264009963)" xlink:href="#CMR17-53"/>
       <use transform="translate(45.6904771171 0.0)scale(0.996264009963)" xlink:href="#CMR17-48"/>
       <use transform="translate(91.3809542341 0.0)scale(0.996264009963)" xlink:href="#CMR17-48"/>
       <use transform="translate(137.071431351 0.0)scale(0.996264009963)" xlink:href="#CMR17-48"/>
      </g>
     </g>
    </g>
    <g id="xtick_3">
     <g id="line2d_8">
      <path clip-path="url(#pb3eda46194)" d="
M109.969 103.281
L109.969 20.6563" style="fill:none;stroke:#000000;stroke-dasharray:1.000000,3.000000;stroke-dashoffset:0.0;stroke-width:0.5;"/>
     </g>
     <g id="line2d_9">
      <g>
       <use style="stroke:#000000;stroke-width:0.5;" x="109.96875" xlink:href="#m93b0483c22" y="103.28144314"/>
      </g>
     </g>
     <g id="line2d_10">
      <g>
       <use style="stroke:#000000;stroke-width:0.5;" x="109.96875" xlink:href="#m741efc42ff" y="20.6562886279"/>
      </g>
     </g>
     <g id="text_3">
      <!-- $6000$ -->
      <defs>
       <path d="
M10.5938 34
C10.5938 57.6562 21.7969 63 28.2969 63
C30.4062 63 35.5 62.6406 37.5 59
C35.9062 59 32.9062 59 32.9062 55.5156
C32.9062 52.8281 35.0938 51.9219 36.5 51.9219
C37.4062 51.9219 40.0938 52.3125 40.0938 55.625
C40.0938 61.7812 35.0938 65.2969 28.2031 65.2969
C16.2969 65.2969 3.79688 52.9688 3.79688 31
C3.79688 3.95312 15.0938 -2 23.0938 -2
C32.7969 -2 42 6.67188 42 20.0469
C42 32.5156 33.9062 41.5938 23.7031 41.5938
C17.5938 41.5938 13.0938 37.6094 10.5938 30.625
z

M23.0938 0.390625
C10.7969 0.390625 10.7969 18.75 10.7969 22.4375
C10.7969 29.625 14.2031 40 23.5 40
C25.2031 40 30.0938 40 33.4062 33.125
C35.2031 29.2188 35.2031 25.1406 35.2031 20.1406
C35.2031 14.75 35.2031 10.7812 33.0938 6.78125
C30.9062 2.67188 27.7031 0.390625 23.0938 0.390625" id="CMR17-54"/>
      </defs>
      <g transform="translate(100.006079497 114.19994152)scale(0.1 -0.1)">
       <use transform="scale(0.996264009963)" xlink:href="#CMR17-54"/>
       <use transform="translate(45.6904771171 0.0)scale(0.996264009963)" xlink:href="#CMR17-48"/>
       <use transform="translate(91.3809542341 0.0)scale(0.996264009963)" xlink:href="#CMR17-48"/>
       <use transform="translate(137.071431351 0.0)scale(0.996264009963)" xlink:href="#CMR17-48"/>
      </g>
     </g>
    </g>
    <g id="xtick_4">
     <g id="line2d_11">
      <path clip-path="url(#pb3eda46194)" d="
M143.391 103.281
L143.391 20.6563" style="fill:none;stroke:#000000;stroke-dasharray:1.000000,3.000000;stroke-dashoffset:0.0;stroke-width:0.5;"/>
     </g>
     <g id="line2d_12">
      <g>
       <use style="stroke:#000000;stroke-width:0.5;" x="143.390625" xlink:href="#m93b0483c22" y="103.28144314"/>
      </g>
     </g>
     <g id="line2d_13">
      <g>
       <use style="stroke:#000000;stroke-width:0.5;" x="143.390625" xlink:href="#m741efc42ff" y="20.6562886279"/>
      </g>
     </g>
     <g id="text_4">
      <!-- $7000$ -->
      <defs>
       <path d="
M45.0938 61.5781
L45.0938 63.7656
L21.5938 63.7656
C9.90625 63.7656 9.70312 65.0781 9.29688 67
L7.5 67
L4.59375 48.3438
L6.40625 48.3438
C6.70312 50.2344 7.40625 55.3125 8.59375 57.2031
C9.20312 58 16.5938 58 18.2969 58
L40.2969 58
L29.2031 41.5781
C21.7969 30.5312 16.7031 15.6094 16.7031 2.57812
C16.7031 1.39062 16.7031 -2 20.2969 -2
C23.9062 -2 23.9062 1.39062 23.9062 2.67188
L23.9062 7.26562
C23.9062 23.5625 26.7031 34.3125 31.2969 41.1875
z
" id="CMR17-55"/>
      </defs>
      <g transform="translate(133.427954497 114.19994152)scale(0.1 -0.1)">
       <use transform="scale(0.996264009963)" xlink:href="#CMR17-55"/>
       <use transform="translate(45.6904771171 0.0)scale(0.996264009963)" xlink:href="#CMR17-48"/>
       <use transform="translate(91.3809542341 0.0)scale(0.996264009963)" xlink:href="#CMR17-48"/>
       <use transform="translate(137.071431351 0.0)scale(0.996264009963)" xlink:href="#CMR17-48"/>
      </g>
     </g>
    </g>
    <g id="xtick_5">
     <g id="line2d_14">
      <path clip-path="url(#pb3eda46194)" d="
M176.813 103.281
L176.813 20.6563" style="fill:none;stroke:#000000;stroke-dasharray:1.000000,3.000000;stroke-dashoffset:0.0;stroke-width:0.5;"/>
     </g>
     <g id="line2d_15">
      <g>
       <use style="stroke:#000000;stroke-width:0.5;" x="176.8125" xlink:href="#m93b0483c22" y="103.28144314"/>
      </g>
     </g>
     <g id="line2d_16">
      <g>
       <use style="stroke:#000000;stroke-width:0.5;" x="176.8125" xlink:href="#m741efc42ff" y="20.6562886279"/>
      </g>
     </g>
     <g id="text_5">
      <!-- $8000$ -->
      <defs>
       <path d="
M27.2031 35.375
C33.5 38.5625 39.9062 43.3281 39.9062 50.9844
C39.9062 60.0312 31.0938 65.2969 23 65.2969
C13.9062 65.2969 5.90625 58.7344 5.90625 49.6875
C5.90625 47.2031 6.5 42.9219 10.4062 39.1406
C11.4062 38.1562 15.5938 35.1719 18.2969 33.2812
C13.7969 30.9844 3.29688 25.5312 3.29688 14.5938
C3.29688 4.35938 13.0938 -2 22.7969 -2
C33.5 -2 42.5 5.65625 42.5 15.7969
C42.5 24.8438 36.4062 29.0312 32.4062 31.7031
z

M14.0938 44.125
C13.2969 44.625 9.29688 47.7031 9.29688 52.375
C9.29688 58.4375 15.5938 63 22.7969 63
C30.7031 63 36.5 57.4531 36.5 50.9844
C36.5 41.7344 26.0938 36.4688 25.5938 36.4688
C25.5 36.4688 25.4062 36.4688 24.5938 37.0781
z

M32.5 23.7344
C34 22.6406 38.7969 19.375 38.7969 13.2969
C38.7969 5.95312 31.4062 0.390625 23 0.390625
C13.9062 0.390625 7 6.84375 7 14.6875
C7 22.5469 13.0938 29.0938 20 32.1875
z
" id="CMR17-56"/>
      </defs>
      <g transform="translate(166.849829497 114.19994152)scale(0.1 -0.1)">
       <use transform="scale(0.996264009963)" xlink:href="#CMR17-56"/>
       <use transform="translate(45.6904771171 0.0)scale(0.996264009963)" xlink:href="#CMR17-48"/>
       <use transform="translate(91.3809542341 0.0)scale(0.996264009963)" xlink:href="#CMR17-48"/>
       <use transform="translate(137.071431351 0.0)scale(0.996264009963)" xlink:href="#CMR17-48"/>
      </g>
     </g>
    </g>
    <g id="xtick_6">
     <g id="line2d_17">
      <path clip-path="url(#pb3eda46194)" d="
M210.234 103.281
L210.234 20.6563" style="fill:none;stroke:#000000;stroke-dasharray:1.000000,3.000000;stroke-dashoffset:0.0;stroke-width:0.5;"/>
     </g>
     <g id="line2d_18">
      <g>
       <use style="stroke:#000000;stroke-width:0.5;" x="210.234375" xlink:href="#m93b0483c22" y="103.28144314"/>
      </g>
     </g>
     <g id="line2d_19">
      <g>
       <use style="stroke:#000000;stroke-width:0.5;" x="210.234375" xlink:href="#m741efc42ff" y="20.6562886279"/>
      </g>
     </g>
     <g id="text_6">
      <!-- $9000$ -->
      <defs>
       <path d="
M35.2031 29.125
C35.2031 7.25 26.0938 0.484375 18.5938 0.484375
C16.2969 0.484375 10.7031 0.484375 8.40625 4.59375
C11 4.1875 12.9062 5.57812 12.9062 8.09375
C12.9062 10.8125 10.7031 11.7031 9.29688 11.7031
C8.40625 11.7031 5.70312 11.2969 5.70312 7.90625
C5.70312 1.10938 11.5938 -2 18.7969 -2
C30.2969 -2 42 10.5312 42 32.3906
C42 59.6406 30.7969 65.2969 23.2031 65.2969
C13.2969 65.2969 3.79688 56.6875 3.79688 43.4062
C3.79688 31.1094 11.9062 22 22.0938 22
C30.5 22 34.2031 29.7344 35.2031 33
z

M22.2969 23.5938
C19.5938 23.5938 15.7969 24.0938 12.7031 30.0312
C10.5938 33.8906 10.5938 38.4531 10.5938 43.2969
C10.5938 49.1562 10.5938 53.2031 13.4062 57.5625
C14.7969 59.6406 17.4062 63 23.2031 63
C35 63 35 45.0781 35 41.125
C35 34.0938 31.7969 23.5938 22.2969 23.5938" id="CMR17-57"/>
      </defs>
      <g transform="translate(200.271704497 114.19994152)scale(0.1 -0.1)">
       <use transform="scale(0.996264009963)" xlink:href="#CMR17-57"/>
       <use transform="translate(45.6904771171 0.0)scale(0.996264009963)" xlink:href="#CMR17-48"/>
       <use transform="translate(91.3809542341 0.0)scale(0.996264009963)" xlink:href="#CMR17-48"/>
       <use transform="translate(137.071431351 0.0)scale(0.996264009963)" xlink:href="#CMR17-48"/>
      </g>
     </g>
    </g>
    <g id="xtick_7">
     <g id="line2d_20">
      <path clip-path="url(#pb3eda46194)" d="
M243.656 103.281
L243.656 20.6563" style="fill:none;stroke:#000000;stroke-dasharray:1.000000,3.000000;stroke-dashoffset:0.0;stroke-width:0.5;"/>
     </g>
     <g id="line2d_21">
      <g>
       <use style="stroke:#000000;stroke-width:0.5;" x="243.65625" xlink:href="#m93b0483c22" y="103.28144314"/>
      </g>
     </g>
     <g id="line2d_22">
      <g>
       <use style="stroke:#000000;stroke-width:0.5;" x="243.65625" xlink:href="#m741efc42ff" y="20.6562886279"/>
      </g>
     </g>
     <g id="text_7">
      <!-- $10000$ -->
      <defs>
       <path d="
M26.5938 63.3125
C26.5938 65.4062 26.5 65.5 25.0938 65.5
C21.2031 61.1875 15.2969 59.7969 9.70312 59.7969
C9.40625 59.7969 8.90625 59.7969 8.79688 59.6094
C8.70312 59.3906 8.70312 59.1719 8.70312 57
C11.7969 57 17 57.5938 21 59.9844
L21 7.20312
C21 3.6875 20.7969 2.5 12.2031 2.5
L9.20312 2.5
L9.20312 0
C14 0 19 0 23.7969 0
C28.5938 0 33.5938 0 38.4062 0
L38.4062 2.5
L35.4062 2.5
C26.7969 2.5 26.5938 3.59375 26.5938 7.15625
z
" id="CMR17-49"/>
      </defs>
      <g transform="translate(231.202911871 114.19994152)scale(0.1 -0.1)">
       <use transform="scale(0.996264009963)" xlink:href="#CMR17-49"/>
       <use transform="translate(45.6904771171 0.0)scale(0.996264009963)" xlink:href="#CMR17-48"/>
       <use transform="translate(91.3809542341 0.0)scale(0.996264009963)" xlink:href="#CMR17-48"/>
       <use transform="translate(137.071431351 0.0)scale(0.996264009963)" xlink:href="#CMR17-48"/>
       <use transform="translate(182.761908468 0.0)scale(0.996264009963)" xlink:href="#CMR17-48"/>
      </g>
     </g>
    </g>
    <g id="xtick_8">
     <g id="line2d_23">
      <path clip-path="url(#pb3eda46194)" d="
M277.078 103.281
L277.078 20.6563" style="fill:none;stroke:#000000;stroke-dasharray:1.000000,3.000000;stroke-dashoffset:0.0;stroke-width:0.5;"/>
     </g>
     <g id="line2d_24">
      <g>
       <use style="stroke:#000000;stroke-width:0.5;" x="277.078125" xlink:href="#m93b0483c22" y="103.28144314"/>
      </g>
     </g>
     <g id="line2d_25">
      <g>
       <use style="stroke:#000000;stroke-width:0.5;" x="277.078125" xlink:href="#m741efc42ff" y="20.6562886279"/>
      </g>
     </g>
     <g id="text_8">
      <!-- $11000$ -->
      <g transform="translate(264.624786871 114.19994152)scale(0.1 -0.1)">
       <use transform="scale(0.996264009963)" xlink:href="#CMR17-49"/>
       <use transform="translate(45.6904771171 0.0)scale(0.996264009963)" xlink:href="#CMR17-49"/>
       <use transform="translate(91.3809542341 0.0)scale(0.996264009963)" xlink:href="#CMR17-48"/>
       <use transform="translate(137.071431351 0.0)scale(0.996264009963)" xlink:href="#CMR17-48"/>
       <use transform="translate(182.761908468 0.0)scale(0.996264009963)" xlink:href="#CMR17-48"/>
      </g>
     </g>
    </g>
    <g id="xtick_9">
     <g id="line2d_26">
      <path clip-path="url(#pb3eda46194)" d="
M310.5 103.281
L310.5 20.6563" style="fill:none;stroke:#000000;stroke-dasharray:1.000000,3.000000;stroke-dashoffset:0.0;stroke-width:0.5;"/>
     </g>
     <g id="line2d_27">
      <g>
       <use style="stroke:#000000;stroke-width:0.5;" x="310.5" xlink:href="#m93b0483c22" y="103.28144314"/>
      </g>
     </g>
     <g id="line2d_28">
      <g>
       <use style="stroke:#000000;stroke-width:0.5;" x="310.5" xlink:href="#m741efc42ff" y="20.6562886279"/>
      </g>
     </g>
     <g id="text_9">
      <!-- $12000$ -->
      <defs>
       <path d="
M41.7031 15.4531
L39.9062 15.4531
C38.9062 8.375 38.0938 7.17188 37.7031 6.5625
C37.2031 5.76562 30 5.76562 28.5938 5.76562
L9.40625 5.76562
C13 9.67188 20 16.75 28.5 24.9531
C34.5938 30.7344 41.7031 37.5312 41.7031 47.4219
C41.7031 59.2188 32.2969 66 21.7969 66
C10.7969 66 4.09375 56.3125 4.09375 47.3438
C4.09375 43.4375 7 42.9375 8.20312 42.9375
C9.20312 42.9375 12.2031 43.5469 12.2031 47.0312
C12.2031 50.1094 9.59375 51 8.20312 51
C7.59375 51 7 50.9062 6.59375 50.7031
C8.5 59.2188 14.2969 63.4062 20.4062 63.4062
C29.0938 63.4062 34.7969 56.5156 34.7969 47.4219
C34.7969 38.7344 29.7031 31.25 24 24.75
L4.09375 2.28125
L4.09375 0
L39.2969 0
z
" id="CMR17-50"/>
      </defs>
      <g transform="translate(298.046661871 114.19994152)scale(0.1 -0.1)">
       <use transform="scale(0.996264009963)" xlink:href="#CMR17-49"/>
       <use transform="translate(45.6904771171 0.0)scale(0.996264009963)" xlink:href="#CMR17-50"/>
       <use transform="translate(91.3809542341 0.0)scale(0.996264009963)" xlink:href="#CMR17-48"/>
       <use transform="translate(137.071431351 0.0)scale(0.996264009963)" xlink:href="#CMR17-48"/>
       <use transform="translate(182.761908468 0.0)scale(0.996264009963)" xlink:href="#CMR17-48"/>
      </g>
     </g>
    </g>
    <g id="text_10">
     <!-- $f$ in Hz -->
     <defs>
      <path d="
M15.5 61.0781
C15.5 63.2656 13.7031 65.1562 11.4062 65.1562
C9.20312 65.1562 7.29688 63.375 7.29688 61.0781
C7.29688 58.8906 9.09375 57 11.4062 57
C13.5938 57 15.5 58.7969 15.5 61.0781
M3.79688 42.2812
L3.79688 39.7031
C9.40625 39.7031 10.2031 39.0938 10.2031 34.3281
L10.2031 6.67188
C10.2031 2.875 9.79688 2.39062 3.40625 2.39062
L3.40625 -0.203125
C5.79688 0 10.0938 0 12.5938 0
C15 0 19.0938 0 21.4062 -0.203125
L21.4062 2.39062
C15.5 2.39062 15.2969 2.98438 15.2969 6.5625
L15.2969 43.375
z
" id="CMR17-105"/>
      <path d="
M44.5938 40.0938
C46.5938 40.0938 47.4062 40.0938 47.4062 42
C47.4062 43 46.5938 43 44.7969 43
L36.7031 43
C38.5938 53.5781 40 60.8906 40.7969 64.1719
C41.4062 66.6406 43.5 69 46.0938 69
C48.2031 69 50.2969 68.0938 51.2969 67.1562
C47.4062 66.75 46.2031 63.7812 46.2031 62.0156
C46.2031 59.9531 47.7031 58.7344 49.5938 58.7344
C51.5938 58.7344 54.5938 60.4688 54.5938 64.3594
C54.5938 68.6406 50.4062 71 46 71
C41.7031 71 37.5 67.7188 35.5 63.7188
C33.7031 60.125 32.7031 56.4375 30.4062 43
L23.7031 43
C21.7969 43 20.7969 43 20.7969 41.2031
C20.7969 40.0938 21.4062 40.0938 23.4062 40.0938
L29.7969 40.0938
C28 30.875 23.9062 8.46875 21.5938 -2.14062
C19.9062 -10.7656 18.4062 -18 13.4062 -18
C13.0938 -18 10.2031 -18 8.40625 -16.1094
C13.5 -15.7031 13.5 -11.3438 13.5 -11.25
C13.5 -9.26562 12 -8.07812 10.0938 -8.07812
C8.09375 -8.07812 5.09375 -9.76562 5.09375 -13.5469
C5.09375 -17.8125 9.5 -20 13.4062 -20
C23.5938 -20 27.7969 -1.84375 28.9062 3.10938
C30.7031 10.75 35.5938 37.125 36.0938 40.0938
z
" id="CMMI12-102"/>
      <path d="
M56.0938 61.0156
C56.0938 65.5 57.2031 65.5 64.0938 65.5
L64.0938 68
C61.2031 68 55.9062 68 52.7969 68
C49.7031 68 44.4062 68 41.5 68
L41.5 65.5
C48.4062 65.5 49.5 65.5 49.5 61
L49.5 36.5781
L19.7031 36.5781
L19.7031 61
C19.7031 65.5 20.7969 65.5 27.7031 65.5
L27.7031 68
C24.7969 68 19.5 68 16.4062 68
C13.2969 68 8 68 5.09375 68
L5.09375 65.5
C12 65.5 13.0938 65.5 13.0938 61.0156
L13.0938 6.98438
C13.0938 2.5 12 2.5 5.09375 2.5
L5.09375 0
C8 0 13.2969 0 16.4062 0
C19.5 0 24.7969 0 27.7031 0
L27.7031 2.5
C20.7969 2.5 19.7031 2.5 19.7031 6.96875
L19.7031 34
L49.5 34
L49.5 6.96875
C49.5 2.5 48.4062 2.5 41.5 2.5
L41.5 0
C44.4062 0 49.7031 0 52.7969 0
C55.9062 0 61.2031 0 64.0938 0
L64.0938 2.5
C57.2031 2.5 56.0938 2.5 56.0938 6.98438
z
" id="CMR17-72"/>
      <path d="
M41.5 30.2031
C41.5 35.2969 40.5 43.5938 28.7031 43.5938
C20.7969 43.5938 16.7031 37.5 15.2031 33.5
L15.0938 33.5
L15.0938 43.5938
L3.29688 42.5
L3.29688 39.9062
C9.20312 39.9062 10.0938 39.2969 10.0938 34.5
L10.0938 6.6875
C10.0938 2.875 9.70312 2.39062 3.29688 2.39062
L3.29688 -0.203125
C5.70312 0 10.0938 0 12.7031 0
C15.2969 0 19.7969 0 22.2031 -0.203125
L22.2031 2.39062
C15.7969 2.39062 15.4062 2.78125 15.4062 6.6875
L15.4062 25.9062
C15.4062 35.1094 21 42 28 42
C35.4062 42 36.2031 35.4062 36.2031 30.5938
L36.2031 6.6875
C36.2031 2.875 35.7969 2.39062 29.4062 2.39062
L29.4062 -0.203125
C31.7969 0 36.2031 0 38.7969 0
C41.4062 0 45.9062 0 48.2969 -0.203125
L48.2969 2.39062
C41.9062 2.39062 41.5 2.78125 41.5 6.6875
z
" id="CMR17-110"/>
      <path d="
M36.0938 40.7031
C36.9062 41.7188 36.9062 41.9062 36.9062 42.1094
C36.9062 43 36.5 43 34.7031 43
L4.29688 43
L3.29688 27.5
L5.09375 27.5
C5.79688 37.2031 6.90625 41.4062 18.4062 41.4062
L30.5938 41.4062
L2 1.5
C2 0.09375 2.09375 0 4.20312 0
L35.7969 0
L37.2031 18
L35.4062 18
C34.5938 6.90625 33.2969 1.79688 21.0938 1.79688
L8.29688 1.79688
z
" id="CMR17-122"/>
     </defs>
     <g transform="translate(160.415621899 128.05561823)scale(0.1 -0.1)">
      <use transform="scale(0.996264009963)" xlink:href="#CMMI12-102"/>
      <use transform="translate(88.7962711852 0.0)scale(0.996264009963)" xlink:href="#CMR17-105"/>
      <use transform="translate(113.667329667 0.0)scale(0.996264009963)" xlink:href="#CMR17-110"/>
      <use transform="translate(194.638665794 0.0)scale(0.996264009963)" xlink:href="#CMR17-72"/>
      <use transform="translate(263.711095599 0.0)scale(0.996264009963)" xlink:href="#CMR17-122"/>
     </g>
    </g>
   </g>
   <g id="matplotlib.axis_2">
    <g id="ytick_1">
     <g id="line2d_29">
      <path clip-path="url(#pb3eda46194)" d="
M43.125 103.281
L310.5 103.281" style="fill:none;stroke:#000000;stroke-dasharray:1.000000,3.000000;stroke-dashoffset:0.0;stroke-width:0.5;"/>
     </g>
     <g id="line2d_30">
      <defs>
       <path d="
M0 0
L4 0" id="m728421d6d4" style="stroke:#000000;stroke-width:0.5;"/>
      </defs>
      <g>
       <use style="stroke:#000000;stroke-width:0.5;" x="43.125" xlink:href="#m728421d6d4" y="103.28144314"/>
      </g>
     </g>
     <g id="line2d_31">
      <defs>
       <path d="
M0 0
L-4 0" id="mcb0005524f" style="stroke:#000000;stroke-width:0.5;"/>
      </defs>
      <g>
       <use style="stroke:#000000;stroke-width:0.5;" x="310.5" xlink:href="#mcb0005524f" y="103.28144314"/>
      </g>
     </g>
     <g id="text_11">
      <!-- $0$ -->
      <g transform="translate(34.1436647484 105.772103165)scale(0.1 -0.1)">
       <use transform="scale(0.996264009963)" xlink:href="#CMR17-48"/>
      </g>
     </g>
    </g>
    <g id="ytick_2">
     <g id="line2d_32">
      <path clip-path="url(#pb3eda46194)" d="
M43.125 82.6252
L310.5 82.6252" style="fill:none;stroke:#000000;stroke-dasharray:1.000000,3.000000;stroke-dashoffset:0.0;stroke-width:0.5;"/>
     </g>
     <g id="line2d_33">
      <g>
       <use style="stroke:#000000;stroke-width:0.5;" x="43.125" xlink:href="#m728421d6d4" y="82.6251545117"/>
      </g>
     </g>
     <g id="line2d_34">
      <g>
       <use style="stroke:#000000;stroke-width:0.5;" x="310.5" xlink:href="#mcb0005524f" y="82.6251545117"/>
      </g>
     </g>
     <g id="text_12">
      <!-- $25$ -->
      <g transform="translate(29.1623294968 85.1158145366)scale(0.1 -0.1)">
       <use transform="scale(0.996264009963)" xlink:href="#CMR17-50"/>
       <use transform="translate(45.6904771171 0.0)scale(0.996264009963)" xlink:href="#CMR17-53"/>
      </g>
     </g>
    </g>
    <g id="ytick_3">
     <g id="line2d_35">
      <path clip-path="url(#pb3eda46194)" d="
M43.125 61.9689
L310.5 61.9689" style="fill:none;stroke:#000000;stroke-dasharray:1.000000,3.000000;stroke-dashoffset:0.0;stroke-width:0.5;"/>
     </g>
     <g id="line2d_36">
      <g>
       <use style="stroke:#000000;stroke-width:0.5;" x="43.125" xlink:href="#m728421d6d4" y="61.9688658838"/>
      </g>
     </g>
     <g id="line2d_37">
      <g>
       <use style="stroke:#000000;stroke-width:0.5;" x="310.5" xlink:href="#mcb0005524f" y="61.9688658838"/>
      </g>
     </g>
     <g id="text_13">
      <!-- $50$ -->
      <g transform="translate(29.1623294968 64.4595259087)scale(0.1 -0.1)">
       <use transform="scale(0.996264009963)" xlink:href="#CMR17-53"/>
       <use transform="translate(45.6904771171 0.0)scale(0.996264009963)" xlink:href="#CMR17-48"/>
      </g>
     </g>
    </g>
    <g id="ytick_4">
     <g id="line2d_38">
      <path clip-path="url(#pb3eda46194)" d="
M43.125 41.3126
L310.5 41.3126" style="fill:none;stroke:#000000;stroke-dasharray:1.000000,3.000000;stroke-dashoffset:0.0;stroke-width:0.5;"/>
     </g>
     <g id="line2d_39">
      <g>
       <use style="stroke:#000000;stroke-width:0.5;" x="43.125" xlink:href="#m728421d6d4" y="41.3125772559"/>
      </g>
     </g>
     <g id="line2d_40">
      <g>
       <use style="stroke:#000000;stroke-width:0.5;" x="310.5" xlink:href="#mcb0005524f" y="41.3125772559"/>
      </g>
     </g>
     <g id="text_14">
      <!-- $75$ -->
      <g transform="translate(29.1623294968 43.8032372808)scale(0.1 -0.1)">
       <use transform="scale(0.996264009963)" xlink:href="#CMR17-55"/>
       <use transform="translate(45.6904771171 0.0)scale(0.996264009963)" xlink:href="#CMR17-53"/>
      </g>
     </g>
    </g>
    <g id="ytick_5">
     <g id="line2d_41">
      <path clip-path="url(#pb3eda46194)" d="
M43.125 20.6563
L310.5 20.6563" style="fill:none;stroke:#000000;stroke-dasharray:1.000000,3.000000;stroke-dashoffset:0.0;stroke-width:0.5;"/>
     </g>
     <g id="line2d_42">
      <g>
       <use style="stroke:#000000;stroke-width:0.5;" x="43.125" xlink:href="#m728421d6d4" y="20.6562886279"/>
      </g>
     </g>
     <g id="line2d_43">
      <g>
       <use style="stroke:#000000;stroke-width:0.5;" x="310.5" xlink:href="#mcb0005524f" y="20.6562886279"/>
      </g>
     </g>
     <g id="text_15">
      <!-- $100$ -->
      <g transform="translate(24.1809942452 23.1469486528)scale(0.1 -0.1)">
       <use transform="scale(0.996264009963)" xlink:href="#CMR17-49"/>
       <use transform="translate(45.6904771171 0.0)scale(0.996264009963)" xlink:href="#CMR17-48"/>
       <use transform="translate(91.3809542341 0.0)scale(0.996264009963)" xlink:href="#CMR17-48"/>
      </g>
     </g>
    </g>
    <g id="text_16">
     <!-- mask level in dB -->
     <defs>
      <path d="
M36 25.8281
C36 32.375 36 35.8438 31.7969 39.7344
C28.0938 43 23.7969 44 20.4062 44
C12.5 44 6.79688 37.6094 6.79688 30.7969
C6.79688 27 9.79688 27 10.4062 27
C11.7031 27 14 27.7812 14 30.5312
C14 33 12.0938 34.0781 10.4062 34.0781
C10 34.0781 9.5 33.9688 9.20312 33.875
C11.2969 40.5 16.7031 42.4062 20.2031 42.4062
C25.2031 42.4062 30.7031 37.9531 30.7031 29.4531
L30.7031 25
C24.7969 25 17.7031 24.2031 12.0938 21.2031
C5.79688 17.7031 4 12.7031 4 8.90625
C4 1.20312 13 -1 18.2969 -1
C23.7969 -1 28.9062 2.17188 31.0938 7.98438
C31.2969 3.64062 34.0938 -0.28125 38.5 -0.28125
C40.5938 -0.28125 45.9062 1.09375 45.9062 8.85938
L45.9062 14.375
L44.0938 14.375
L44.0938 8.78125
C44.0938 2.78125 41.4062 2 40.0938 2
C36 2 36 7.15625 36 11.5312
z

M30.7031 13.5938
C30.7031 4.95312 24.5 0.59375 19 0.59375
C14 0.59375 10.0938 4.29688 10.0938 8.90625
C10.0938 11.8906 11.4062 17.1875 17.2031 20.3906
C22 23.0938 27.5 23.5 30.7031 23.5
z
" id="CMR17-97"/>
      <path d="
M5.20312 68
L5.20312 65.4062
C12.0938 65.4062 13.2031 65.4062 13.2031 60.9375
L13.2031 7.0625
C13.2031 2.59375 12.0938 2.59375 5.20312 2.59375
L5.20312 0
L39.5938 0
C52.4062 0 60.7031 9.10938 60.7031 18.1875
C60.7031 27.2031 52.5 34.8906 41.7969 34.8906
C51.4062 36.8125 58.0938 43.2969 58.0938 51
C58.0938 59.4062 49.9062 68 37 68
z

M19.5 36
L19.5 61.5156
C19.5 64.9219 19.7031 65.4062 23.7031 65.4062
L36.5 65.4062
C46.4062 65.4062 50.7969 57.4062 50.7969 51.2031
C50.7969 43.6094 44.7031 36 33.9062 36
z

M23.7031 2.59375
C19.7031 2.59375 19.5 3.07812 19.5 6.45312
L19.5 34.4062
L38 34.4062
C48.2969 34.4062 53.2969 25.3906 53.2969 18.1562
C53.2969 10.9219 47.5938 2.59375 36.7031 2.59375
z
" id="CMR17-66"/>
      <path d="
M26.0938 26.1406
C26 26.3438 25.5 26.9375 25.5 27.2344
C25.5 27.4375 32.5938 33.9219 33.5 34.7188
C39.2031 39.5 42.7969 40 45.4062 40
L45.4062 42.6875
C44.7969 42.6875 44.5938 42.6875 44.5 42.6875
L39.5938 42.6875
C36.7969 42.6875 32.5 42.6875 29.7969 42.6875
L29.7969 40.0938
C31.2031 39.9844 32.2031 39.1875 32.2031 37.7969
C32.2031 35.8125 30.2031 33.9219 30.0938 33.9219
L15 20.1562
L15 68.6875
L3.09375 67.5938
L3.09375 65
C9 65 9.90625 64.4062 9.90625 59.6406
L9.90625 6.65625
C9.90625 2.875 9.5 2.39062 3.09375 2.39062
L3.09375 -0.203125
C5.5 0 9.90625 0 12.4062 0
C14.9062 0 19.2969 0 21.7031 -0.203125
L21.7031 2.39062
C15.2969 2.39062 14.9062 2.78125 14.9062 6.6875
L14.9062 17.6562
L21.7969 23.9375
L31.9062 8.96875
C33.0938 7.17188 34.0938 5.76562 34.0938 4.46875
C34.0938 2.6875 32.2969 2.39062 31.0938 2.39062
L31.0938 -0.203125
C33.5 0 37.7969 0 40.2969 0
C42.0938 0 45.7969 0 47.5 0
L47.5 2.39062
C42.7969 2.39062 41.7031 3.28125 38.7031 7.67188
z
" id="CMR17-107"/>
      <path d="
M30.9062 42.1094
C30.9062 43.9062 30.7969 44 30.2031 44
C29.7969 44 29.7031 43.9062 28.5 42.4219
C28.2031 42.0156 27.2969 41.0156 27 40.625
C23.7969 44 19.2969 44 17.5938 44
C6.5 44 2.5 38.1719 2.5 32.375
C2.5 23.3438 12.7031 21.25 15.5938 20.6406
C21.9062 19.3438 24.0938 18.9375 26.2031 17.125
C27.5 15.9375 29.7031 13.7344 29.7031 10.125
C29.7031 5.90625 27.2969 0.5 18.0938 0.5
C9.40625 0.5 6.29688 7.0625 4.5 15.8281
C4.20312 17.2188 4.20312 17.3281 3.40625 17.3281
C2.59375 17.3281 2.5 17.2188 2.5 15.2344
L2.5 0.890625
C2.5 -0.890625 2.59375 -1 3.20312 -1
C3.70312 -1 3.79688 -0.890625 4.29688 -0.09375
C4.90625 0.796875 6.40625 3.1875 7 4.1875
C9 1.54688 12.5 -1 18.0938 -1
C28 -1 33.2969 4.40625 33.2969 12.2344
C33.2969 17.3438 30.5938 20.0625 29.2969 21.25
C26.2969 24.375 22.7969 25.0625 18.5938 25.8594
C13.0938 27.0781 6.09375 28.4688 6.09375 34.5938
C6.09375 37.1875 7.5 42.7188 17.5938 42.7188
C28.2969 42.7188 28.9062 32.75 29.0938 29.5625
C29.2031 29.0781 29.7031 28.9688 30 28.9688
C30.9062 28.9688 30.9062 29.2812 30.9062 30.9688
z
" id="CMR17-115"/>
      <path d="
M38.0938 23
C38.5 23.4062 38.5 23.6094 38.5 24.625
C38.5 34.9688 33.0938 44 21.7031 44
C11.0938 44 2.70312 33.8906 2.70312 21.6094
C2.70312 8.60938 12.2031 -1 22.7969 -1
C34 -1 38.4062 9.46875 38.4062 11.5469
C38.4062 12.25 37.7969 12.25 37.5938 12.25
C36.9062 12.25 36.7969 12.0469 36.4062 10.875
C34.2031 4.14062 28.7031 0.796875 23.5 0.796875
C19.2031 0.796875 14.9062 3.17188 12.2031 7.5
C9.09375 12.5469 9.09375 18.375 9.09375 23
z

M9.20312 24.5
C9.90625 39.1406 17.5938 42.4062 21.5938 42.4062
C28.4062 42.4062 33 35.8906 33.0938 24.5
z
" id="CMR17-101"/>
      <path d="
M29.2031 67.5938
L29.2031 65
C35.0938 65 36 64.4062 36 59.6875
L36 36.6406
C35.5938 37.1406 31.5 43.5938 23.4062 43.5938
C13.2031 43.5938 3.29688 34.5 3.29688 21.3125
C3.29688 8.20312 12.5938 -1 22.4062 -1
C30.9062 -1 35.2969 5.26562 35.7969 5.9375
L35.7969 -0.984375
L47.9062 -0.984375
L47.9062 2
C42 2 41.0938 2.59375 41.0938 7.39062
L41.0938 68.6875
z

M35.7969 11.7969
C35.7969 8.79688 34 6.09375 31.7031 4.09375
C28.2969 1.09375 24.9062 0.59375 23 0.59375
C20.0938 0.59375 9.70312 2.09375 9.70312 21.1875
C9.70312 40.8125 21.2969 42 23.9062 42
C28.5 42 32.2031 39.4062 34.5 35.7969
C35.7969 33.7031 35.7969 33.4062 35.7969 31.6094
z
" id="CMR17-100"/>
      <path d="
M67.5938 30.2031
C67.5938 35.1875 66.7031 43.5938 54.7969 43.5938
C48 43.5938 43.2969 39 41.5 33.5938
L41.4062 33.5938
C40.2031 41.7969 34.2969 43.5938 28.7031 43.5938
C20.7969 43.5938 16.7031 37.5625 15.2031 33.5938
L15.0938 33.5938
L15.0938 43.5938
L3.29688 42.5
L3.29688 39.9062
C9.20312 39.9062 10.0938 39.2969 10.0938 34.5
L10.0938 6.6875
C10.0938 2.875 9.70312 2.39062 3.29688 2.39062
L3.29688 -0.203125
C5.70312 0 10.0938 0 12.7031 0
C15.2969 0 19.7969 0 22.2031 -0.203125
L22.2031 2.39062
C15.7969 2.39062 15.4062 2.78125 15.4062 6.6875
L15.4062 25.9062
C15.4062 35.1094 21 42 28 42
C35.4062 42 36.2031 35.4062 36.2031 30.5938
L36.2031 6.6875
C36.2031 2.875 35.7969 2.39062 29.4062 2.39062
L29.4062 -0.203125
C31.7969 0 36.2031 0 38.7969 0
C41.4062 0 45.9062 0 48.2969 -0.203125
L48.2969 2.39062
C41.9062 2.39062 41.5 2.78125 41.5 6.6875
L41.5 25.9062
C41.5 35.1094 47.0938 42 54.0938 42
C61.5 42 62.2969 35.4062 62.2969 30.5938
L62.2969 6.6875
C62.2969 2.875 61.9062 2.39062 55.5 2.39062
L55.5 -0.203125
C57.9062 0 62.2969 0 64.9062 0
C67.5 0 72 0 74.4062 -0.203125
L74.4062 2.39062
C68 2.39062 67.5938 2.78125 67.5938 6.6875
z
" id="CMR17-109"/>
      <path d="
M15.2969 68.6875
L3.40625 67.5938
L3.40625 65
C9.29688 65 10.2031 64.4062 10.2031 59.6406
L10.2031 6.65625
C10.2031 2.875 9.79688 2.39062 3.40625 2.39062
L3.40625 -0.203125
C5.79688 0 10.2031 0 12.7031 0
C15.2969 0 19.7031 0 22.0938 -0.203125
L22.0938 2.39062
C15.7031 2.39062 15.2969 2.78125 15.2969 6.65625
z
" id="CMR17-108"/>
      <path d="
M39.0938 33.7969
C40 36 41.5938 40 47.4062 40
L47.4062 42.5938
C45.5 42.5938 43 42.5938 41.0938 42.5938
C39 42.5938 35.7031 42.5938 33.7031 42.6875
L33.7031 40.0938
C36.2031 39.8906 37.5938 38.7031 37.5938 36.1094
C37.5938 35.2031 37.5938 35 37 33.6094
L26 5.89062
L14.0938 35.7188
C13.5 37.0156 13.5 37.2031 13.5 37.6094
C13.5 40 16.7969 40 18.2969 40
L18.2969 42.6875
C15.9062 42.5938 11.5 42.5938 9 42.5938
C6.29688 42.5938 3.20312 42.5938 1 42.6875
L1 40
C4.79688 40 6.90625 40 8.09375 36.9062
L22.5938 0.6875
C23.2031 -0.796875 23.2969 -1 24.2031 -1
C25.0938 -1 25.2031 -0.796875 25.7969 0.6875
z
" id="CMR17-118"/>
     </defs>
     <g transform="translate(17.2438159149 98.3187370335)rotate(-90.0)scale(0.1 -0.1)">
      <use transform="scale(0.996264009963)" xlink:href="#CMR17-109"/>
      <use transform="translate(76.9195898681 0.0)scale(0.996264009963)" xlink:href="#CMR17-97"/>
      <use transform="translate(122.610066985 0.0)scale(0.996264009963)" xlink:href="#CMR17-115"/>
      <use transform="translate(158.41140462 0.0)scale(0.996264009963)" xlink:href="#CMR17-107"/>
      <use transform="translate(236.780286815 0.0)scale(0.996264009963)" xlink:href="#CMR17-108"/>
      <use transform="translate(261.651345297 0.0)scale(0.996264009963)" xlink:href="#CMR17-101"/>
      <use transform="translate(302.13700576 0.0)scale(0.996264009963)" xlink:href="#CMR17-118"/>
      <use transform="translate(347.827467675 0.0)scale(0.996264009963)" xlink:href="#CMR17-101"/>
      <use transform="translate(388.313128138 0.0)scale(0.996264009963)" xlink:href="#CMR17-108"/>
      <use transform="translate(443.260152966 0.0)scale(0.996264009963)" xlink:href="#CMR17-105"/>
      <use transform="translate(468.131211448 0.0)scale(0.996264009963)" xlink:href="#CMR17-110"/>
      <use transform="translate(549.102547575 0.0)scale(0.996264009963)" xlink:href="#CMR17-100"/>
      <use transform="translate(599.997917356 0.0)scale(0.996264009963)" xlink:href="#CMR17-66"/>
     </g>
    </g>
   </g>
   <g id="patch_3">
    <path d="
M43.125 20.6563
L310.5 20.6563" style="fill:none;stroke:#000000;"/>
   </g>
   <g id="patch_4">
    <path d="
M310.5 103.281
L310.5 20.6563" style="fill:none;stroke:#000000;"/>
   </g>
   <g id="patch_5">
    <path d="
M43.125 103.281
L310.5 103.281" style="fill:none;stroke:#000000;"/>
   </g>
   <g id="patch_6">
    <path d="
M43.125 103.281
L43.125 20.6563" style="fill:none;stroke:#000000;"/>
   </g>
   <g id="text_17">
    <!-- Mask of the tonal masker $\mbox{A}_8$ (7040 Hz) with a SPL of 96 dB -->
    <defs>
     <path d="
M54.2031 25.2344
L52.4062 25.2344
C51.5938 15.3594 50.2969 2.59375 33.2031 2.59375
L23.9062 2.59375
C19.9062 2.59375 19.7031 3.07812 19.7031 6.46875
L19.7031 60.9062
C19.7031 64.5156 19.9062 65.5 27.5 65.5
L29.7031 65.5
L29.7031 68
C25.5938 68 20.7969 68 16.7031 68
C13.5938 68 8 68 5.09375 68
L5.09375 65.5
C12 65.5 13.0938 65.5 13.0938 61.0312
L13.0938 7.0625
C13.0938 2.59375 12 2.59375 5.09375 2.59375
L5.09375 0
L51.7969 0
z
" id="CMR17-76"/>
     <path d="
M43.7969 68.1094
C43.7969 69.8906 43.7031 70 43.0938 70
C42.5 70 42.2969 69.5938 41.9062 68.7031
L38.9062 62.125
C35.0938 67.5469 29.2969 70 23 70
C12.7969 70 4.59375 61.9531 4.59375 51.7969
C4.59375 48.7344 5.29688 44.3438 8.70312 40.1719
C12.4062 35.6094 15.9062 34.8125 23.9062 32.7188
C26.9062 31.9219 31.9062 30.625 32.9062 30.2344
C38.5938 27.8438 41.5938 21.8906 41.5938 16.3125
C41.5938 9.14062 36.5 1.5 27.7969 1.5
C17.0938 1.5 7.09375 7.46875 6.40625 21.4062
C6.29688 23 6.20312 23.0938 5.5 23.0938
C4.70312 23.0938 4.59375 23 4.59375 21
L4.59375 0.890625
C4.59375 -0.890625 4.70312 -1 5.29688 -1
C6 -1 6.20312 -0.5 7.59375 2.59375
C7.70312 2.89062 7.70312 3.09375 9.59375 6.875
C14.5938 0.375 23 -1 27.7969 -1
C38.7031 -1 46.4062 8.04688 46.4062 18.5781
C46.4062 23.7344 44.5 27.7031 43.4062 29.5
C39.2031 35.8594 34.7031 37.0469 29.9062 38.2344
C29.2031 38.5469 29 38.5469 23.4062 39.9375
C18 41.3281 15.7031 42.0312 13.2031 44.7188
C10.4062 47.7969 9.40625 50.9844 9.40625 54.1719
C9.40625 60.6406 14.5938 67.7031 23.0938 67.7031
C33.7031 67.7031 40.2969 60.2344 41.7969 47.7969
C42.0938 46 42.2031 45.9062 42.9062 45.9062
C43.7969 45.9062 43.7969 46.2031 43.7969 47.8906
z
" id="CMR17-83"/>
     <path d="
M41.5 30.2031
C41.5 35.2969 40.5 43.5938 28.7031 43.5938
C20.5 43.5938 16.5 37 15.2969 33.7031
L15.2031 33.7031
L15.2031 68.6875
L3.29688 67.5938
L3.29688 65
C9.20312 65 10.0938 64.4062 10.0938 59.6406
L10.0938 6.65625
C10.0938 2.875 9.70312 2.39062 3.29688 2.39062
L3.29688 -0.203125
C5.70312 0 10.0938 0 12.7031 0
C15.2969 0 19.7969 0 22.2031 -0.203125
L22.2031 2.39062
C15.7969 2.39062 15.4062 2.78125 15.4062 6.6875
L15.4062 25.9062
C15.4062 35.1094 21 42 28 42
C35.4062 42 36.2031 35.4062 36.2031 30.5938
L36.2031 6.6875
C36.2031 2.875 35.7969 2.39062 29.4062 2.39062
L29.4062 -0.203125
C31.7969 0 36.2031 0 38.7969 0
C41.4062 0 45.9062 0 48.2969 -0.203125
L48.2969 2.39062
C41.9062 2.39062 41.5 2.78125 41.5 6.6875
z
" id="CMR17-104"/>
     <path d="
M43.0938 21.1875
C43.0938 34 33.7969 44 22.9062 44
C12 44 2.70312 34 2.70312 21.1875
C2.70312 8.60938 12 -1 22.9062 -1
C33.7969 -1 43.0938 8.60938 43.0938 21.1875
M22.9062 0.796875
C18.2031 0.796875 14.2031 3.59375 11.9062 7.5
C9.40625 11.9844 9.09375 17.5938 9.09375 22
C9.09375 26.2031 9.29688 31.4062 11.9062 35.9062
C13.9062 39.2031 17.7969 42.4062 22.9062 42.4062
C27.4062 42.4062 31.2031 39.9062 33.5938 36.4062
C36.7031 31.7031 36.7031 25.1094 36.7031 22
C36.7031 18.0938 36.5 12.1094 33.7969 7.29688
C31 2.70312 26.7031 0.796875 22.9062 0.796875" id="CMR17-111"/>
     <path d="
M36.2969 68.4062
C35.7969 69.7031 35.5938 70 34.5938 70
C33.5938 70 33.4062 69.7031 32.9062 68.4062
L11.7031 8.84375
C9.79688 3.48438 5.79688 2.39062 2.29688 2.39062
L2.29688 -0.203125
C4.09375 0 8.09375 0 10 0
C12.5 0 16.5 0 18.9062 -0.203125
L18.9062 2.39062
C14.2031 2.39062 13.5 5.64062 13.5 6.85938
C13.5 7.76562 13.7031 8.28125 13.9062 8.89062
L19.2031 24
L45.4062 24
L51.4062 6.90625
C51.9062 5.70312 51.9062 5.5 51.9062 5.10938
C51.9062 2.39062 47.5938 2.39062 45.7031 2.39062
L45.7031 0
C48.5938 0 53.7969 0 56.9062 0
C59.5 0 64.5 0 66.9062 -0.203125
L66.9062 2.39062
C61.5938 2.39062 59.7969 2.39062 58.5 6.04688
z

M32.2969 60.5312
L44.5 26.5938
L20.0938 26.5938
z
" id="CMR17-65"/>
     <path d="
M26.2969 24.6719
C26.2969 31.8438 25.5938 43.9844 19.5938 56.8281
C14.7969 67.1875 6.59375 74.4531 5.40625 74.4531
C5.09375 74.4531 4.70312 74.3438 4.70312 73.8594
C4.70312 73.6719 4.79688 73.5625 4.90625 73.3594
C9.70312 68.3906 21.9062 55.75 21.9062 24.7969
C21.9062 -6.28125 9.79688 -18.9219 4.90625 -23.9062
C4.79688 -24.0938 4.70312 -24.2031 4.70312 -24.3906
C4.70312 -24.8906 5.09375 -25 5.40625 -25
C6.5 -25 15 -17.625 19.9062 -6.67188
C24.9062 4.375 26.2969 15.125 26.2969 24.6719" id="CMR17-41"/>
     <path d="
M15.0938 40
L29.0938 40
L29.0938 42.5781
L15.0938 42.5781
L15.0938 61
L13.2969 61
C13.0938 50.7031 9.59375 41.6875 1.09375 41.6875
L1.09375 40
L9.79688 40
L9.79688 12.0469
C9.79688 10.1562 9.79688 -1 21.4062 -1
C27.2969 -1 30.7031 4.78125 30.7031 12.1406
L30.7031 17.8125
L28.9062 17.8125
L28.9062 12.2344
C28.9062 5.375 26.2031 0.796875 22 0.796875
C19.0938 0.796875 15.0938 2.78125 15.0938 11.8438
z
" id="CMR17-116"/>
     <path d="
M20.9062 66
C20.2969 67.5 20.2031 67.5938 18.0938 67.5938
L5.29688 67.5938
L5.29688 65
C12.2031 65 13.2969 65 13.2969 60.5469
L13.2969 9.53125
C13.2969 7.04688 13.2969 2.39062 5.29688 2.39062
L5.29688 -0.203125
C7.59375 0 11.7969 0 14.2969 0
C16.7969 0 21 0 23.2969 -0.203125
L23.2969 2.39062
C15.2969 2.39062 15.2969 7.04688 15.2969 9.53125
L15.2969 64.6094
L15.4062 64.6094
L38.9062 1.57812
C39.2969 0.59375 39.5 0 40.2969 0
C41.0938 0 41.2969 0.59375 41.7031 1.57812
L65.4062 65
L65.5 65
L65.5 6.84375
C65.5 2.39062 64.4062 2.39062 57.5 2.39062
L57.5 -0.203125
C60.2031 0 65.5938 0 68.5 0
C71.4062 0 76.9062 0 79.5938 -0.203125
L79.5938 2.39062
C72.7031 2.39062 71.5938 2.39062 71.5938 6.84375
L71.5938 60.5469
C71.5938 65 72.7031 65 79.5938 65
L79.5938 67.5938
L66.9062 67.5938
C64.7969 67.5938 64.7031 67.5 64.0938 66
L42.5 7.84375
z
" id="CMR17-77"/>
     <path d="
M15 23.3906
C15 33 19.0938 42 26.5938 42
C27.2969 42 28 41.9062 28.7031 41.5938
C28.7031 41.5938 26.5 40.8906 26.5 38.3125
C26.5 35.9062 28.4062 34.9062 29.9062 34.9062
C31.0938 34.9062 33.2969 35.6094 33.2969 38.4062
C33.2969 41.6094 30.0938 43.5938 26.7031 43.5938
C19.0938 43.5938 15.7969 36.2031 14.7969 32.7031
L14.7031 32.7031
L14.7031 43.5938
L3.09375 42.5
L3.09375 39.9062
C9 39.9062 9.90625 39.2969 9.90625 34.5
L9.90625 6.6875
C9.90625 2.875 9.5 2.39062 3.09375 2.39062
L3.09375 -0.203125
C5.5 0 10.0938 0 12.7031 0
C15.5938 0 20.7031 0 23.4062 -0.203125
L23.4062 2.39062
C16.2031 2.39062 15 2.39062 15 6.875
z
" id="CMR17-114"/>
     <path d="
M30.5938 -24.4062
C30.5938 -24.3125 30.5938 -24.1094 30.2969 -23.8125
C25.7031 -19.1406 13.4062 -6.39062 13.4062 24.6719
C13.4062 55.75 25.5 68.3906 30.4062 73.3594
C30.4062 73.4688 30.5938 73.6719 30.5938 73.9531
C30.5938 74.25 30.2969 74.4531 29.9062 74.4531
C28.7969 74.4531 20.2969 67.0781 15.4062 56.125
C10.4062 45.0781 9 34.3281 9 24.7812
C9 17.6094 9.70312 5.46875 15.7031 -7.375
C20.5 -17.7344 28.7031 -25 29.9062 -25
C30.4062 -25 30.5938 -24.7969 30.5938 -24.4062" id="CMR17-40"/>
     <path d="
M19.7969 31.9062
L35.7969 31.9062
C48.7031 31.9062 58.0938 40.2812 58.0938 49.75
C58.0938 59.2344 48.9062 68 35.7969 68
L5.20312 68
L5.20312 65.4062
C12.0938 65.4062 13.2031 65.4062 13.2031 60.9375
L13.2031 6.96875
C13.2031 2.5 12.0938 2.5 5.20312 2.5
L5.20312 0
C8.09375 0 13.4062 0 16.5 0
C19.5938 0 24.9062 0 27.7969 0
L27.7969 2.5
C20.9062 2.5 19.7969 2.5 19.7969 6.96875
z

M19.5938 34
L19.5938 61.5312
C19.5938 64.9219 19.7969 65.4062 23.7969 65.4062
L33.9062 65.4062
C46.7969 65.4062 50.5 58.0312 50.5 49.75
C50.5 40.6875 46.0938 34 33.9062 34
z
" id="CMR17-80"/>
     <path d="
M15.2969 40
L26.7031 40
L26.7031 42.5781
L15.0938 42.5781
L15.0938 54.5938
C15.0938 62.8438 19.2969 68 23.5938 68
C24.9062 68 26.4062 67.6094 27.4062 66.9062
C26.5938 66.7031 24.5 66.0156 24.5 63.5312
C24.5 60.9531 26.5 60.1562 27.9062 60.1562
C29.2969 60.1562 31.2969 60.9531 31.2969 63.5469
C31.2969 67.3125 27.7031 69.5938 23.7031 69.5938
C18 69.5938 10.2031 64.9375 10.2031 54.3906
L10.2031 42.5781
L2.20312 42.5781
L2.20312 40
L10.2031 40
L10.2031 6.67188
C10.2031 2.875 9.79688 2.39062 3.40625 2.39062
L3.40625 -0.203125
C5.79688 0 10.4062 0 13 0
C15.9062 0 21 0 23.7031 -0.203125
L23.7031 2.39062
C16.5 2.39062 15.2969 2.39062 15.2969 6.85938
z
" id="CMR17-102"/>
     <path d="
M58.2031 34.0781
C60.2031 40 64.2031 40 65.7031 40
L65.7031 42.6875
C63.7031 42.6875 61.7031 42.6875 59.7031 42.6875
C57.7969 42.6875 53.5 42.6875 51.7969 42.7812
L51.7969 40
C54.9062 40 56.5938 38.1875 56.5938 35.7031
C56.5938 35 56.4062 34.0938 56.2031 33.4062
L46.7969 6.20312
L36.5938 35.5156
C36.4062 36.2188 36.0938 37.0156 36.0938 37.4062
C36.0938 40 39.5 40 41.0938 40
L41.0938 42.7812
C38.7969 42.6875 34.5938 42.6875 32.2031 42.6875
C29.7031 42.6875 27.0938 42.6875 24.7969 42.7812
L24.7969 40
C30.2969 40 30.2969 39.7969 32.4062 33.7031
L23.2031 6.90625
L13.2969 35.625
C12.7969 36.9062 12.7969 37.1094 12.7969 37.4062
C12.7969 40 16.2031 40 17.7969 40
L17.7969 42.7812
C15.4062 42.6875 11.2031 42.6875 8.70312 42.6875
C6.5 42.6875 3.09375 42.6875 1 42.7812
L1 40
C5.40625 40 6.5 39.7031 7.59375 36.4062
L19.9062 0.59375
C20.2969 -0.703125 20.5938 -1 21.4062 -1
C22.0938 -1 22.5 -0.796875 23 0.703125
L33.2969 30.9062
L43.7031 0.703125
C44.2031 -0.796875 44.5938 -1 45.2969 -1
C46.0938 -1 46.4062 -0.703125 46.7969 0.609375
z
" id="CMR17-119"/>
    </defs>
    <g transform="translate(43.8179130507 15.6562886279)scale(0.1 -0.1)">
     <use transform="translate(0.0 14.9439145441)scale(0.996264009963)" xlink:href="#CMR17-77"/>
     <use transform="translate(84.6869405744 14.9439145441)scale(0.996264009963)" xlink:href="#CMR17-97"/>
     <use transform="translate(130.377417691 14.9439145441)scale(0.996264009963)" xlink:href="#CMR17-115"/>
     <use transform="translate(166.178755327 14.9439145441)scale(0.996264009963)" xlink:href="#CMR17-107"/>
     <use transform="translate(244.547637521 14.9439145441)scale(0.996264009963)" xlink:href="#CMR17-111"/>
     <use transform="translate(290.238114638 14.9439145441)scale(0.996264009963)" xlink:href="#CMR17-102"/>
     <use transform="translate(347.7875934 14.9439145441)scale(0.996264009963)" xlink:href="#CMR17-116"/>
     <use transform="translate(383.068361199 14.9439145441)scale(0.996264009963)" xlink:href="#CMR17-104"/>
     <use transform="translate(433.96373098 14.9439145441)scale(0.996264009963)" xlink:href="#CMR17-101"/>
     <use transform="translate(504.525357789 14.9439145441)scale(0.996264009963)" xlink:href="#CMR17-116"/>
     <use transform="translate(539.806125589 14.9439145441)scale(0.996264009963)" xlink:href="#CMR17-111"/>
     <use transform="translate(585.496602706 14.9439145441)scale(0.996264009963)" xlink:href="#CMR17-110"/>
     <use transform="translate(636.391972486 14.9439145441)scale(0.996264009963)" xlink:href="#CMR17-97"/>
     <use transform="translate(682.082449603 14.9439145441)scale(0.996264009963)" xlink:href="#CMR17-108"/>
     <use transform="translate(737.029474432 14.9439145441)scale(0.996264009963)" xlink:href="#CMR17-109"/>
     <use transform="translate(813.9490643 14.9439145441)scale(0.996264009963)" xlink:href="#CMR17-97"/>
     <use transform="translate(859.639541417 14.9439145441)scale(0.996264009963)" xlink:href="#CMR17-115"/>
     <use transform="translate(895.440879052 14.9439145441)scale(0.996264009963)" xlink:href="#CMR17-107"/>
     <use transform="translate(941.131340967 14.9439145441)scale(0.996264009963)" xlink:href="#CMR17-101"/>
     <use transform="translate(981.61700143 14.9439145441)scale(0.996264009963)" xlink:href="#CMR17-114"/>
     <use transform="translate(1046.97373558 14.9439145441)scale(0.996264009963)" xlink:href="#CMR17-65"/>
     <use transform="translate(1116.04616538 0.0)scale(0.697381766617)" xlink:href="#CMR17-56"/>
     <use transform="translate(1178.6034457 14.9439145441)scale(0.996264009963)" xlink:href="#CMR17-40"/>
     <use transform="translate(1213.8842135 14.9439145441)scale(0.996264009963)" xlink:href="#CMR17-55"/>
     <use transform="translate(1259.57469061 14.9439145441)scale(0.996264009963)" xlink:href="#CMR17-48"/>
     <use transform="translate(1305.26516773 14.9439145441)scale(0.996264009963)" xlink:href="#CMR17-52"/>
     <use transform="translate(1350.95564485 14.9439145441)scale(0.996264009963)" xlink:href="#CMR17-48"/>
     <use transform="translate(1426.72208831 14.9439145441)scale(0.996264009963)" xlink:href="#CMR17-72"/>
     <use transform="translate(1495.79451812 14.9439145441)scale(0.996264009963)" xlink:href="#CMR17-122"/>
     <use transform="translate(1536.28017858 14.9439145441)scale(0.996264009963)" xlink:href="#CMR17-41"/>
     <use transform="translate(1601.63691272 14.9439145441)scale(0.996264009963)" xlink:href="#CMR17-119"/>
     <use transform="translate(1668.14679328 14.9439145441)scale(0.996264009963)" xlink:href="#CMR17-105"/>
     <use transform="translate(1693.01785176 14.9439145441)scale(0.996264009963)" xlink:href="#CMR17-116"/>
     <use transform="translate(1728.29861956 14.9439145441)scale(0.996264009963)" xlink:href="#CMR17-104"/>
     <use transform="translate(1809.26995568 14.9439145441)scale(0.996264009963)" xlink:href="#CMR17-97"/>
     <use transform="translate(1885.03639915 14.9439145441)scale(0.996264009963)" xlink:href="#CMR17-83"/>
     <use transform="translate(1935.93176893 14.9439145441)scale(0.996264009963)" xlink:href="#CMR17-80"/>
     <use transform="translate(1998.51806945 14.9439145441)scale(0.996264009963)" xlink:href="#CMR17-76"/>
     <use transform="translate(2085.97544365 14.9439145441)scale(0.996264009963)" xlink:href="#CMR17-111"/>
     <use transform="translate(2131.66592077 14.9439145441)scale(0.996264009963)" xlink:href="#CMR17-102"/>
     <use transform="translate(2189.21539953 14.9439145441)scale(0.996264009963)" xlink:href="#CMR17-57"/>
     <use transform="translate(2234.90587664 14.9439145441)scale(0.996264009963)" xlink:href="#CMR17-54"/>
     <use transform="translate(2310.67232011 14.9439145441)scale(0.996264009963)" xlink:href="#CMR17-100"/>
     <use transform="translate(2361.56768989 14.9439145441)scale(0.996264009963)" xlink:href="#CMR17-66"/>
    </g>
   </g>
  </g>
 </g>
 <defs>
  <clipPath id="pb3eda46194">
   <rect height="82.6251545117" width="267.375" x="43.125" y="20.6562886279"/>
  </clipPath>
 </defs>
</svg>
