<?xml version="1.0" encoding="utf-8" standalone="no"?>
<!DOCTYPE svg PUBLIC "-//W3C//DTD SVG 1.1//EN"
  "http://www.w3.org/Graphics/SVG/1.1/DTD/svg11.dtd">
<!-- Created with matplotlib (http://matplotlib.org/) -->
<svg height="89pt" version="1.1" viewBox="0 0 345 89" width="345pt" xmlns="http://www.w3.org/2000/svg" xmlns:xlink="http://www.w3.org/1999/xlink">
 <defs>
  <style type="text/css">
*{stroke-linecap:butt;stroke-linejoin:round;}
  </style>
 </defs>
 <g id="figure_1">
  <g id="patch_1">
   <path d="
M0 89.0323
L345 89.0323
L345 0
L0 0
z
" style="fill:#ffffff;"/>
  </g>
  <g id="axes_1">
   <g id="patch_2">
    <path d="
M34.5 73.0065
L310.5 73.0065
L310.5 17.8065
L34.5 17.8065
z
" style="fill:#ffffff;"/>
   </g>
   <g id="matplotlib.axis_1">
    <g id="xtick_1">
     <g id="line2d_1">
      <path clip-path="url(#pa839a71ac8)" d="
M62.1 73.0065
L62.1 17.8065" style="fill:none;stroke:#000000;stroke-dasharray:1.000000,3.000000;stroke-dashoffset:0.0;stroke-width:0.5;"/>
     </g>
     <g id="line2d_2">
      <defs>
       <path d="
M0 0
L0 -4" id="m93b0483c22" style="stroke:#000000;stroke-width:0.5;"/>
      </defs>
      <g>
       <use style="stroke:#000000;stroke-width:0.5;" x="62.1" xlink:href="#m93b0483c22" y="73.0064516129"/>
      </g>
     </g>
     <g id="line2d_3">
      <defs>
       <path d="
M0 0
L0 4" id="m741efc42ff" style="stroke:#000000;stroke-width:0.5;"/>
      </defs>
      <g>
       <use style="stroke:#000000;stroke-width:0.5;" x="62.1" xlink:href="#m741efc42ff" y="17.8064516129"/>
      </g>
     </g>
     <g id="text_1">
      <!-- N/A -->
      <defs>
       <path d="
M36.2969 68.4062
C35.7969 69.7031 35.5938 70 34.5938 70
C33.5938 70 33.4062 69.7031 32.9062 68.4062
L11.7031 8.84375
C9.79688 3.48438 5.79688 2.39062 2.29688 2.39062
L2.29688 -0.203125
C4.09375 0 8.09375 0 10 0
C12.5 0 16.5 0 18.9062 -0.203125
L18.9062 2.39062
C14.2031 2.39062 13.5 5.64062 13.5 6.85938
C13.5 7.76562 13.7031 8.28125 13.9062 8.89062
L19.2031 24
L45.4062 24
L51.4062 6.90625
C51.9062 5.70312 51.9062 5.5 51.9062 5.10938
C51.9062 2.39062 47.5938 2.39062 45.7031 2.39062
L45.7031 0
C48.5938 0 53.7969 0 56.9062 0
C59.5 0 64.5 0 66.9062 -0.203125
L66.9062 2.39062
C61.5938 2.39062 59.7969 2.39062 58.5 6.04688
z

M32.2969 60.5312
L44.5 26.5938
L20.0938 26.5938
z
" id="CMR17-65"/>
       <path d="
M40.7031 71.0156
C41.2031 72.2969 41.2031 72.5 41.2031 72.7031
C41.2031 73.8906 40.2969 74.5 39.5 74.5
C38.2969 74.5 37.9062 73.7031 37.5 72.5
L5.09375 -21.5156
C4.59375 -22.8125 4.59375 -23.0156 4.59375 -23.2188
C4.59375 -24.4062 5.5 -25 6.29688 -25
C7.5 -25 7.90625 -24.2031 8.29688 -23.0156
z
" id="CMR17-47"/>
       <path d="
M20.5 66.4062
C19.7969 67.5 19.7031 67.5938 17.7969 67.5938
L5.09375 67.5938
L5.09375 65
L7 65
C11 65 12.7969 64.5156 13.0938 64.4062
L13.0938 9.53125
C13.0938 7.04688 13.0938 2.39062 5.09375 2.39062
L5.09375 -0.203125
C7.40625 0 11.5938 0 14.0938 0
C16.5938 0 20.7969 0 23.0938 -0.203125
L23.0938 2.39062
C15.0938 2.39062 15.0938 7.04688 15.0938 9.53125
L15.0938 63.0156
C15.7969 62.4219 15.7969 62.2188 16.5 61.2344
L53.5938 1.1875
C54.2969 0 54.5938 0 55.0938 0
C56.0938 0 56.0938 0.296875 56.0938 2.17188
L56.0938 57.8906
C56.0938 60.3594 56.0938 65 64.0938 65
L64.0938 67.5938
C61.7969 67.5938 57.5938 67.5938 55.0938 67.5938
C52.5938 67.5938 48.4062 67.5938 46.0938 67.5938
L46.0938 65
C54.0938 65 54.0938 60.3438 54.0938 57.8594
L54.0938 11.9219
z
" id="CMR17-78"/>
      </defs>
      <g transform="translate(53.6399344742 82.9840356727)scale(0.08 -0.08)">
       <use transform="scale(0.996264009963)" xlink:href="#CMR17-78"/>
       <use transform="translate(69.0724298042 0.0)scale(0.996264009963)" xlink:href="#CMR17-47"/>
       <use transform="translate(114.762906921 0.0)scale(0.996264009963)" xlink:href="#CMR17-65"/>
      </g>
     </g>
    </g>
    <g id="xtick_2">
     <g id="line2d_4">
      <path clip-path="url(#pa839a71ac8)" d="
M117.3 73.0065
L117.3 17.8065" style="fill:none;stroke:#000000;stroke-dasharray:1.000000,3.000000;stroke-dashoffset:0.0;stroke-width:0.5;"/>
     </g>
     <g id="line2d_5">
      <g>
       <use style="stroke:#000000;stroke-width:0.5;" x="117.3" xlink:href="#m93b0483c22" y="73.0064516129"/>
      </g>
     </g>
     <g id="line2d_6">
      <g>
       <use style="stroke:#000000;stroke-width:0.5;" x="117.3" xlink:href="#m741efc42ff" y="17.8064516129"/>
      </g>
     </g>
     <g id="text_2">
      <!-- Non (1.0) -->
      <defs>
       <path d="
M26.2969 24.6719
C26.2969 31.8438 25.5938 43.9844 19.5938 56.8281
C14.7969 67.1875 6.59375 74.4531 5.40625 74.4531
C5.09375 74.4531 4.70312 74.3438 4.70312 73.8594
C4.70312 73.6719 4.79688 73.5625 4.90625 73.3594
C9.70312 68.3906 21.9062 55.75 21.9062 24.7969
C21.9062 -6.28125 9.79688 -18.9219 4.90625 -23.9062
C4.79688 -24.0938 4.70312 -24.2031 4.70312 -24.3906
C4.70312 -24.8906 5.09375 -25 5.40625 -25
C6.5 -25 15 -17.625 19.9062 -6.67188
C24.9062 4.375 26.2969 15.125 26.2969 24.6719" id="CMR17-41"/>
       <path d="
M30.5938 -24.4062
C30.5938 -24.3125 30.5938 -24.1094 30.2969 -23.8125
C25.7031 -19.1406 13.4062 -6.39062 13.4062 24.6719
C13.4062 55.75 25.5 68.3906 30.4062 73.3594
C30.4062 73.4688 30.5938 73.6719 30.5938 73.9531
C30.5938 74.25 30.2969 74.4531 29.9062 74.4531
C28.7969 74.4531 20.2969 67.0781 15.4062 56.125
C10.4062 45.0781 9 34.3281 9 24.7812
C9 17.6094 9.70312 5.46875 15.7031 -7.375
C20.5 -17.7344 28.7031 -25 29.9062 -25
C30.4062 -25 30.5938 -24.7969 30.5938 -24.4062" id="CMR17-40"/>
       <path d="
M16.5938 4.07812
C16.5938 6.5625 14.5938 8.15625 12.5 8.15625
C10.5 8.15625 8.40625 6.5625 8.40625 4.07812
C8.40625 1.59375 10.4062 0 12.5 0
C14.5 0 16.5938 1.59375 16.5938 4.07812" id="CMR17-46"/>
       <path d="
M41.5 30.2031
C41.5 35.2969 40.5 43.5938 28.7031 43.5938
C20.7969 43.5938 16.7031 37.5 15.2031 33.5
L15.0938 33.5
L15.0938 43.5938
L3.29688 42.5
L3.29688 39.9062
C9.20312 39.9062 10.0938 39.2969 10.0938 34.5
L10.0938 6.6875
C10.0938 2.875 9.70312 2.39062 3.29688 2.39062
L3.29688 -0.203125
C5.70312 0 10.0938 0 12.7031 0
C15.2969 0 19.7969 0 22.2031 -0.203125
L22.2031 2.39062
C15.7969 2.39062 15.4062 2.78125 15.4062 6.6875
L15.4062 25.9062
C15.4062 35.1094 21 42 28 42
C35.4062 42 36.2031 35.4062 36.2031 30.5938
L36.2031 6.6875
C36.2031 2.875 35.7969 2.39062 29.4062 2.39062
L29.4062 -0.203125
C31.7969 0 36.2031 0 38.7969 0
C41.4062 0 45.9062 0 48.2969 -0.203125
L48.2969 2.39062
C41.9062 2.39062 41.5 2.78125 41.5 6.6875
z
" id="CMR17-110"/>
       <path d="
M43.0938 21.1875
C43.0938 34 33.7969 44 22.9062 44
C12 44 2.70312 34 2.70312 21.1875
C2.70312 8.60938 12 -1 22.9062 -1
C33.7969 -1 43.0938 8.60938 43.0938 21.1875
M22.9062 0.796875
C18.2031 0.796875 14.2031 3.59375 11.9062 7.5
C9.40625 11.9844 9.09375 17.5938 9.09375 22
C9.09375 26.2031 9.29688 31.4062 11.9062 35.9062
C13.9062 39.2031 17.7969 42.4062 22.9062 42.4062
C27.4062 42.4062 31.2031 39.9062 33.5938 36.4062
C36.7031 31.7031 36.7031 25.1094 36.7031 22
C36.7031 18.0938 36.5 12.1094 33.7969 7.29688
C31 2.70312 26.7031 0.796875 22.9062 0.796875" id="CMR17-111"/>
       <path d="
M26.5938 63.3125
C26.5938 65.4062 26.5 65.5 25.0938 65.5
C21.2031 61.1875 15.2969 59.7969 9.70312 59.7969
C9.40625 59.7969 8.90625 59.7969 8.79688 59.6094
C8.70312 59.3906 8.70312 59.1719 8.70312 57
C11.7969 57 17 57.5938 21 59.9844
L21 7.20312
C21 3.6875 20.7969 2.5 12.2031 2.5
L9.20312 2.5
L9.20312 0
C14 0 19 0 23.7969 0
C28.5938 0 33.5938 0 38.4062 0
L38.4062 2.5
L35.4062 2.5
C26.7969 2.5 26.5938 3.59375 26.5938 7.15625
z
" id="CMR17-49"/>
       <path d="
M42 31.6406
C42 37.75 41.9062 48.125 37.7031 56.1094
C34 63.1094 28.0938 65.5938 22.9062 65.5938
C18.0938 65.5938 12 63.4062 8.20312 56.2031
C4.20312 48.7188 3.79688 39.4375 3.79688 31.6406
C3.79688 25.9531 3.90625 17.2812 7 9.67188
C11.2969 -0.609375 19 -2 22.9062 -2
C27.5 -2 34.5 -0.109375 38.5938 9.375
C41.5938 16.2812 42 24.3594 42 31.6406
M22.9062 -0.40625
C16.5 -0.40625 12.7031 5.07812 11.2969 12.6875
C10.2031 18.5625 10.2031 27.1562 10.2031 32.75
C10.2031 40.4375 10.2031 46.8281 11.5 52.9219
C13.4062 61.3906 19 64 22.9062 64
C27 64 32.2969 61.2969 34.2031 53.125
C35.5 47.4375 35.5938 40.7344 35.5938 32.75
C35.5938 26.25 35.5938 18.2656 34.4062 12.375
C32.2969 1.48438 26.4062 -0.40625 22.9062 -0.40625" id="CMR17-48"/>
      </defs>
      <g transform="translate(99.5441053569 82.9840356727)scale(0.08 -0.08)">
       <use transform="scale(0.996264009963)" xlink:href="#CMR17-78"/>
       <use transform="translate(69.0724298042 0.0)scale(0.996264009963)" xlink:href="#CMR17-111"/>
       <use transform="translate(114.762906921 0.0)scale(0.996264009963)" xlink:href="#CMR17-110"/>
       <use transform="translate(195.734243049 0.0)scale(0.996264009963)" xlink:href="#CMR17-40"/>
       <use transform="translate(231.015010848 0.0)scale(0.996264009963)" xlink:href="#CMR17-49"/>
       <use transform="translate(276.705487965 0.0)scale(0.996264009963)" xlink:href="#CMR17-46"/>
       <use transform="translate(301.576546447 0.0)scale(0.996264009963)" xlink:href="#CMR17-48"/>
       <use transform="translate(347.267023564 0.0)scale(0.996264009963)" xlink:href="#CMR17-41"/>
      </g>
     </g>
    </g>
    <g id="xtick_3">
     <g id="line2d_7">
      <path clip-path="url(#pa839a71ac8)" d="
M172.5 73.0065
L172.5 17.8065" style="fill:none;stroke:#000000;stroke-dasharray:1.000000,3.000000;stroke-dashoffset:0.0;stroke-width:0.5;"/>
     </g>
     <g id="line2d_8">
      <g>
       <use style="stroke:#000000;stroke-width:0.5;" x="172.5" xlink:href="#m93b0483c22" y="73.0064516129"/>
      </g>
     </g>
     <g id="line2d_9">
      <g>
       <use style="stroke:#000000;stroke-width:0.5;" x="172.5" xlink:href="#m741efc42ff" y="17.8064516129"/>
      </g>
     </g>
     <g id="text_3">
      <!-- Plut\^ot Non -->
      <defs>
       <path d="
M15.0938 40
L29.0938 40
L29.0938 42.5781
L15.0938 42.5781
L15.0938 61
L13.2969 61
C13.0938 50.7031 9.59375 41.6875 1.09375 41.6875
L1.09375 40
L9.79688 40
L9.79688 12.0469
C9.79688 10.1562 9.79688 -1 21.4062 -1
C27.2969 -1 30.7031 4.78125 30.7031 12.1406
L30.7031 17.8125
L28.9062 17.8125
L28.9062 12.2344
C28.9062 5.375 26.2031 0.796875 22 0.796875
C19.0938 0.796875 15.0938 2.78125 15.0938 11.8438
z
" id="CMR17-116"/>
       <path d="
M29.4062 42.0781
L29.4062 39.5
C35.2969 39.5 36.2031 38.8906 36.2031 34.1562
L36.2031 16.125
C36.2031 7.8125 31.7031 0.59375 24.2969 0.59375
C16.0938 0.59375 15.4062 5.4375 15.4062 10.5938
L15.4062 43.1719
L3.29688 42.0781
L3.29688 39.5
C7.29688 39.5 10 39.5 10.0938 35.5312
L10.0938 16.5312
C10.0938 9.89062 10.0938 5.64062 12.7031 2.85938
C14 1.57812 16.5 -1 23.7031 -1
C32.2031 -1 35.5 6.35938 36.2969 8.5
L36.4062 8.5
L36.4062 -0.984375
L48.2969 -0.984375
L48.2969 2
C42.4062 2 41.5 2.59375 41.5 7.39062
L41.5 43.1719
z
" id="CMR17-117"/>
       <path d="
M22.9062 69.0781
L10.5938 55.5469
L11.7969 54.3438
L22.9062 65.0938
L34 54.3438
L35.2031 55.5469
z
" id="CMR17-94"/>
       <path d="
M15.2969 68.6875
L3.40625 67.5938
L3.40625 65
C9.29688 65 10.2031 64.4062 10.2031 59.6406
L10.2031 6.65625
C10.2031 2.875 9.79688 2.39062 3.40625 2.39062
L3.40625 -0.203125
C5.79688 0 10.2031 0 12.7031 0
C15.2969 0 19.7031 0 22.0938 -0.203125
L22.0938 2.39062
C15.7031 2.39062 15.2969 2.78125 15.2969 6.65625
z
" id="CMR17-108"/>
       <path d="
M19.7969 31.9062
L35.7969 31.9062
C48.7031 31.9062 58.0938 40.2812 58.0938 49.75
C58.0938 59.2344 48.9062 68 35.7969 68
L5.20312 68
L5.20312 65.4062
C12.0938 65.4062 13.2031 65.4062 13.2031 60.9375
L13.2031 6.96875
C13.2031 2.5 12.0938 2.5 5.20312 2.5
L5.20312 0
C8.09375 0 13.4062 0 16.5 0
C19.5938 0 24.9062 0 27.7969 0
L27.7969 2.5
C20.9062 2.5 19.7969 2.5 19.7969 6.96875
z

M19.5938 34
L19.5938 61.5312
C19.5938 64.9219 19.7969 65.4062 23.7969 65.4062
L33.9062 65.4062
C46.7969 65.4062 50.5 58.0312 50.5 49.75
C50.5 40.6875 46.0938 34 33.9062 34
z
" id="CMR17-80"/>
      </defs>
      <g transform="translate(151.629351358 82.5412533573)scale(0.08 -0.08)">
       <use transform="scale(0.996264009963)" xlink:href="#CMR17-80"/>
       <use transform="translate(62.5863005186 0.0)scale(0.996264009963)" xlink:href="#CMR17-108"/>
       <use transform="translate(87.4573590004 0.0)scale(0.996264009963)" xlink:href="#CMR17-117"/>
       <use transform="translate(138.352728781 0.0)scale(0.996264009963)" xlink:href="#CMR17-116"/>
       <use transform="translate(173.63349658 0.0)scale(0.996264009963)" xlink:href="#CMR17-94"/>
       <use transform="translate(173.63349658 0.0)scale(0.996264009963)" xlink:href="#CMR17-111"/>
       <use transform="translate(219.323973697 0.0)scale(0.996264009963)" xlink:href="#CMR17-116"/>
       <use transform="translate(284.680707844 0.0)scale(0.996264009963)" xlink:href="#CMR17-78"/>
       <use transform="translate(353.753137648 0.0)scale(0.996264009963)" xlink:href="#CMR17-111"/>
       <use transform="translate(399.443614765 0.0)scale(0.996264009963)" xlink:href="#CMR17-110"/>
      </g>
     </g>
    </g>
    <g id="xtick_4">
     <g id="line2d_10">
      <path clip-path="url(#pa839a71ac8)" d="
M227.7 73.0065
L227.7 17.8065" style="fill:none;stroke:#000000;stroke-dasharray:1.000000,3.000000;stroke-dashoffset:0.0;stroke-width:0.5;"/>
     </g>
     <g id="line2d_11">
      <g>
       <use style="stroke:#000000;stroke-width:0.5;" x="227.7" xlink:href="#m93b0483c22" y="73.0064516129"/>
      </g>
     </g>
     <g id="line2d_12">
      <g>
       <use style="stroke:#000000;stroke-width:0.5;" x="227.7" xlink:href="#m741efc42ff" y="17.8064516129"/>
      </g>
     </g>
     <g id="text_4">
      <!-- Plut\^ot Oui -->
      <defs>
       <path d="
M15.5 61.0781
C15.5 63.2656 13.7031 65.1562 11.4062 65.1562
C9.20312 65.1562 7.29688 63.375 7.29688 61.0781
C7.29688 58.8906 9.09375 57 11.4062 57
C13.5938 57 15.5 58.7969 15.5 61.0781
M3.79688 42.2812
L3.79688 39.7031
C9.40625 39.7031 10.2031 39.0938 10.2031 34.3281
L10.2031 6.67188
C10.2031 2.875 9.79688 2.39062 3.40625 2.39062
L3.40625 -0.203125
C5.79688 0 10.0938 0 12.5938 0
C15 0 19.0938 0 21.4062 -0.203125
L21.4062 2.39062
C15.5 2.39062 15.2969 2.98438 15.2969 6.5625
L15.2969 43.375
z
" id="CMR17-105"/>
       <path d="
M67.2969 33.3594
C67.2969 53.7031 52.5938 69 36 69
C19 69 4.59375 53.5 4.59375 33.3594
C4.59375 13.2031 19.2031 -2 35.9062 -2
C53 -2 67.2969 13.5 67.2969 33.3594
M36 -0.203125
C24.5938 -0.203125 12.2031 11.1094 12.2031 34.6406
C12.2031 58.0625 25.7969 67.2031 35.9062 67.2031
C46.5 67.2031 59.7031 57.7812 59.7031 34.6406
C59.7031 10.7188 47 -0.203125 36 -0.203125" id="CMR17-79"/>
      </defs>
      <g transform="translate(207.648514603 82.5412533573)scale(0.08 -0.08)">
       <use transform="scale(0.996264009963)" xlink:href="#CMR17-80"/>
       <use transform="translate(62.5863005186 0.0)scale(0.996264009963)" xlink:href="#CMR17-108"/>
       <use transform="translate(87.4573590004 0.0)scale(0.996264009963)" xlink:href="#CMR17-117"/>
       <use transform="translate(138.352728781 0.0)scale(0.996264009963)" xlink:href="#CMR17-116"/>
       <use transform="translate(173.63349658 0.0)scale(0.996264009963)" xlink:href="#CMR17-94"/>
       <use transform="translate(173.63349658 0.0)scale(0.996264009963)" xlink:href="#CMR17-111"/>
       <use transform="translate(219.323973697 0.0)scale(0.996264009963)" xlink:href="#CMR17-116"/>
       <use transform="translate(284.680707844 0.0)scale(0.996264009963)" xlink:href="#CMR17-79"/>
       <use transform="translate(356.395496259 0.0)scale(0.996264009963)" xlink:href="#CMR17-117"/>
       <use transform="translate(407.290866039 0.0)scale(0.996264009963)" xlink:href="#CMR17-105"/>
      </g>
     </g>
    </g>
    <g id="xtick_5">
     <g id="line2d_13">
      <path clip-path="url(#pa839a71ac8)" d="
M282.9 73.0065
L282.9 17.8065" style="fill:none;stroke:#000000;stroke-dasharray:1.000000,3.000000;stroke-dashoffset:0.0;stroke-width:0.5;"/>
     </g>
     <g id="line2d_14">
      <g>
       <use style="stroke:#000000;stroke-width:0.5;" x="282.9" xlink:href="#m93b0483c22" y="73.0064516129"/>
      </g>
     </g>
     <g id="line2d_15">
      <g>
       <use style="stroke:#000000;stroke-width:0.5;" x="282.9" xlink:href="#m741efc42ff" y="17.8064516129"/>
      </g>
     </g>
     <g id="text_5">
      <!-- Oui (4.0) -->
      <defs>
       <path d="
M33.5938 64.3281
C33.5938 66.4062 33.5 66.5 31.7031 66.5
L2 19.5938
L2 17
L27.7969 17
L27.7969 7.14062
C27.7969 3.5 27.5938 2.5 20.5938 2.5
L18.7031 2.5
L18.7031 0
C21.9062 0 27.2969 0 30.7031 0
C34.0938 0 39.5 0 42.7031 0
L42.7031 2.5
L40.7969 2.5
C33.7969 2.5 33.5938 3.5 33.5938 7.14062
L33.5938 17
L43.7969 17
L43.7969 19.5938
L33.5938 19.5938
z

M28.0938 57.7656
L28.0938 19.5938
L4 19.5938
z
" id="CMR17-52"/>
      </defs>
      <g transform="translate(265.963268602 82.9840356727)scale(0.08 -0.08)">
       <use transform="scale(0.996264009963)" xlink:href="#CMR17-79"/>
       <use transform="translate(71.7147884155 0.0)scale(0.996264009963)" xlink:href="#CMR17-117"/>
       <use transform="translate(122.610158196 0.0)scale(0.996264009963)" xlink:href="#CMR17-105"/>
       <use transform="translate(177.557183025 0.0)scale(0.996264009963)" xlink:href="#CMR17-40"/>
       <use transform="translate(212.837950824 0.0)scale(0.996264009963)" xlink:href="#CMR17-52"/>
       <use transform="translate(258.528427941 0.0)scale(0.996264009963)" xlink:href="#CMR17-46"/>
       <use transform="translate(283.399486423 0.0)scale(0.996264009963)" xlink:href="#CMR17-48"/>
       <use transform="translate(329.08996354 0.0)scale(0.996264009963)" xlink:href="#CMR17-41"/>
      </g>
     </g>
    </g>
   </g>
   <g id="matplotlib.axis_2">
    <g id="ytick_1">
     <g id="line2d_16">
      <path clip-path="url(#pa839a71ac8)" d="
M34.5 73.0065
L310.5 73.0065" style="fill:none;stroke:#000000;stroke-dasharray:1.000000,3.000000;stroke-dashoffset:0.0;stroke-width:0.5;"/>
     </g>
     <g id="line2d_17">
      <defs>
       <path d="
M0 0
L4 0" id="m728421d6d4" style="stroke:#000000;stroke-width:0.5;"/>
      </defs>
      <g>
       <use style="stroke:#000000;stroke-width:0.5;" x="34.5" xlink:href="#m728421d6d4" y="73.0064516129"/>
      </g>
     </g>
     <g id="line2d_18">
      <defs>
       <path d="
M0 0
L-4 0" id="mcb0005524f" style="stroke:#000000;stroke-width:0.5;"/>
      </defs>
      <g>
       <use style="stroke:#000000;stroke-width:0.5;" x="310.5" xlink:href="#mcb0005524f" y="73.0064516129"/>
      </g>
     </g>
     <g id="text_6">
      <!-- 0\% -->
      <defs>
       <path d="
M72.5 15
C72.5 26.5312 66.7969 35 60.0938 35
C53.2969 35 46.4062 27.125 46.4062 15
C46.4062 2.85938 53.2031 -5 60.0938 -5
C66.7969 -5 72.5 3.35938 72.5 15
M60.2031 -3.40625
C57.5938 -3.40625 51.0938 -1.03125 51.0938 15
C51.0938 31.1094 57.5938 33.4062 60.2031 33.4062
C65.7031 33.4062 70.7031 25.5312 70.7031 15
C70.7031 4.45312 65.7031 -3.40625 60.2031 -3.40625
M63.7969 71.5156
C64.5 72.6094 64.5938 72.7031 64.5938 73.2031
C64.5938 74.3906 63.7031 75 62.9062 75
C61.9062 75 61.5 74.3125 60.7969 73.5312
C55 65.4688 47 64.5938 42.9062 64.5938
C32.9062 64.5938 26.7969 70.2188 24.9062 71.9844
C23.5938 73.1562 21.7031 75 18.2969 75
C11.5 75 4.59375 67.125 4.59375 55
C4.59375 42.8594 11.4062 35 18.2969 35
C25 35 30.7031 43.4062 30.7031 55.1094
C30.7031 62.0156 28.5938 66.7188 28.2969 67.3125
C34.4062 63.5 40.4062 63 43 63
C49.4062 63 54 65.3594 56.5 67.0156
L56.5938 66.9219
L13.4062 -1.3125
C12.5 -2.71875 12.5 -2.92188 12.5 -3.21875
C12.5 -4.3125 13.4062 -5 14.2969 -5
C15.2031 -5 15.5 -4.51562 16.2031 -3.40625
z

M18.4062 36.5938
C15.7969 36.5938 9.29688 38.9688 9.29688 55
C9.29688 71.1094 15.7969 73.4062 18.4062 73.4062
C23.9062 73.4062 28.9062 65.5312 28.9062 55
C28.9062 44.4531 23.9062 36.5938 18.4062 36.5938" id="CMR17-37"/>
      </defs>
      <g transform="translate(19.2088457347 74.9989796328)scale(0.08 -0.08)">
       <use transform="scale(0.996264009963)" xlink:href="#CMR17-48"/>
       <use transform="translate(45.6904771171 0.0)scale(0.996264009963)" xlink:href="#CMR17-37"/>
      </g>
     </g>
    </g>
    <g id="ytick_2">
     <g id="line2d_19">
      <path clip-path="url(#pa839a71ac8)" d="
M34.5 59.2065
L310.5 59.2065" style="fill:none;stroke:#000000;stroke-dasharray:1.000000,3.000000;stroke-dashoffset:0.0;stroke-width:0.5;"/>
     </g>
     <g id="line2d_20">
      <g>
       <use style="stroke:#000000;stroke-width:0.5;" x="34.5" xlink:href="#m728421d6d4" y="59.2064516129"/>
      </g>
     </g>
     <g id="line2d_21">
      <g>
       <use style="stroke:#000000;stroke-width:0.5;" x="310.5" xlink:href="#mcb0005524f" y="59.2064516129"/>
      </g>
     </g>
     <g id="text_7">
      <!-- 25\% -->
      <defs>
       <path d="
M41.7031 15.4531
L39.9062 15.4531
C38.9062 8.375 38.0938 7.17188 37.7031 6.5625
C37.2031 5.76562 30 5.76562 28.5938 5.76562
L9.40625 5.76562
C13 9.67188 20 16.75 28.5 24.9531
C34.5938 30.7344 41.7031 37.5312 41.7031 47.4219
C41.7031 59.2188 32.2969 66 21.7969 66
C10.7969 66 4.09375 56.3125 4.09375 47.3438
C4.09375 43.4375 7 42.9375 8.20312 42.9375
C9.20312 42.9375 12.2031 43.5469 12.2031 47.0312
C12.2031 50.1094 9.59375 51 8.20312 51
C7.59375 51 7 50.9062 6.59375 50.7031
C8.5 59.2188 14.2969 63.4062 20.4062 63.4062
C29.0938 63.4062 34.7969 56.5156 34.7969 47.4219
C34.7969 38.7344 29.7031 31.25 24 24.75
L4.09375 2.28125
L4.09375 0
L39.2969 0
z
" id="CMR17-50"/>
       <path d="
M11.4062 57.6875
C12.4062 57.2812 16.5 56 20.7031 56
C30 56 35.0938 61.0156 38 63.9219
C38 64.7344 38 65.25 37.4062 65.25
C37.2969 65.25 37.0938 65.25 36.2969 64.8281
C32.7969 63.3125 28.7031 62.0781 23.7031 62.0781
C20.7031 62.0781 16.2031 62.5 11.2969 64.7344
C10.2031 65.25 10 65.25 9.90625 65.25
C9.40625 65.25 9.29688 65.1406 9.29688 63.1562
L9.29688 34.2812
C9.29688 32.5 9.29688 32 10.2969 32
C10.7969 32 11 32.2031 11.5 32.9062
C14.7031 37.4844 19.0938 39.4062 24.0938 39.4062
C27.5938 39.4062 35.0938 37.2188 35.0938 20.1406
C35.0938 16.9531 35.0938 11.1719 32.0938 6.57812
C29.5938 2.48438 25.7031 0.390625 21.4062 0.390625
C14.7969 0.390625 8.09375 5 6.29688 12.7188
C6.70312 12.6094 7.5 12.4219 7.90625 12.4219
C9.20312 12.4219 11.7031 13.125 11.7031 16.2188
C11.7031 18.9062 9.79688 20 7.90625 20
C5.59375 20 4.09375 18.5938 4.09375 15.7969
C4.09375 7.09375 11 -2 21.5938 -2
C31.9062 -2 41.7031 6.875 41.7031 19.75
C41.7031 31.7188 33.9062 41 24.2031 41
C19.0938 41 14.7969 39.0938 11.4062 35.4531
z
" id="CMR17-53"/>
      </defs>
      <g transform="translate(14.9746628853 61.1989796328)scale(0.08 -0.08)">
       <use transform="scale(0.996264009963)" xlink:href="#CMR17-50"/>
       <use transform="translate(45.6904771171 0.0)scale(0.996264009963)" xlink:href="#CMR17-53"/>
       <use transform="translate(91.3809542341 0.0)scale(0.996264009963)" xlink:href="#CMR17-37"/>
      </g>
     </g>
    </g>
    <g id="ytick_3">
     <g id="line2d_22">
      <path clip-path="url(#pa839a71ac8)" d="
M34.5 45.4065
L310.5 45.4065" style="fill:none;stroke:#000000;stroke-dasharray:1.000000,3.000000;stroke-dashoffset:0.0;stroke-width:0.5;"/>
     </g>
     <g id="line2d_23">
      <g>
       <use style="stroke:#000000;stroke-width:0.5;" x="34.5" xlink:href="#m728421d6d4" y="45.4064516129"/>
      </g>
     </g>
     <g id="line2d_24">
      <g>
       <use style="stroke:#000000;stroke-width:0.5;" x="310.5" xlink:href="#mcb0005524f" y="45.4064516129"/>
      </g>
     </g>
     <g id="text_8">
      <!-- 50\% -->
      <g transform="translate(14.9746628853 47.3989796328)scale(0.08 -0.08)">
       <use transform="scale(0.996264009963)" xlink:href="#CMR17-53"/>
       <use transform="translate(45.6904771171 0.0)scale(0.996264009963)" xlink:href="#CMR17-48"/>
       <use transform="translate(91.3809542341 0.0)scale(0.996264009963)" xlink:href="#CMR17-37"/>
      </g>
     </g>
    </g>
    <g id="ytick_4">
     <g id="line2d_25">
      <path clip-path="url(#pa839a71ac8)" d="
M34.5 31.6065
L310.5 31.6065" style="fill:none;stroke:#000000;stroke-dasharray:1.000000,3.000000;stroke-dashoffset:0.0;stroke-width:0.5;"/>
     </g>
     <g id="line2d_26">
      <g>
       <use style="stroke:#000000;stroke-width:0.5;" x="34.5" xlink:href="#m728421d6d4" y="31.6064516129"/>
      </g>
     </g>
     <g id="line2d_27">
      <g>
       <use style="stroke:#000000;stroke-width:0.5;" x="310.5" xlink:href="#mcb0005524f" y="31.6064516129"/>
      </g>
     </g>
     <g id="text_9">
      <!-- 75\% -->
      <defs>
       <path d="
M45.0938 61.5781
L45.0938 63.7656
L21.5938 63.7656
C9.90625 63.7656 9.70312 65.0781 9.29688 67
L7.5 67
L4.59375 48.3438
L6.40625 48.3438
C6.70312 50.2344 7.40625 55.3125 8.59375 57.2031
C9.20312 58 16.5938 58 18.2969 58
L40.2969 58
L29.2031 41.5781
C21.7969 30.5312 16.7031 15.6094 16.7031 2.57812
C16.7031 1.39062 16.7031 -2 20.2969 -2
C23.9062 -2 23.9062 1.39062 23.9062 2.67188
L23.9062 7.26562
C23.9062 23.5625 26.7031 34.3125 31.2969 41.1875
z
" id="CMR17-55"/>
      </defs>
      <g transform="translate(14.9746628853 33.5989796328)scale(0.08 -0.08)">
       <use transform="scale(0.996264009963)" xlink:href="#CMR17-55"/>
       <use transform="translate(45.6904771171 0.0)scale(0.996264009963)" xlink:href="#CMR17-53"/>
       <use transform="translate(91.3809542341 0.0)scale(0.996264009963)" xlink:href="#CMR17-37"/>
      </g>
     </g>
    </g>
    <g id="ytick_5">
     <g id="line2d_28">
      <path clip-path="url(#pa839a71ac8)" d="
M34.5 17.8065
L310.5 17.8065" style="fill:none;stroke:#000000;stroke-dasharray:1.000000,3.000000;stroke-dashoffset:0.0;stroke-width:0.5;"/>
     </g>
     <g id="line2d_29">
      <g>
       <use style="stroke:#000000;stroke-width:0.5;" x="34.5" xlink:href="#m728421d6d4" y="17.8064516129"/>
      </g>
     </g>
     <g id="line2d_30">
      <g>
       <use style="stroke:#000000;stroke-width:0.5;" x="310.5" xlink:href="#mcb0005524f" y="17.8064516129"/>
      </g>
     </g>
     <g id="text_10">
      <!-- 100\% -->
      <g transform="translate(10.7404800358 19.7989796328)scale(0.08 -0.08)">
       <use transform="scale(0.996264009963)" xlink:href="#CMR17-49"/>
       <use transform="translate(45.6904771171 0.0)scale(0.996264009963)" xlink:href="#CMR17-48"/>
       <use transform="translate(91.3809542341 0.0)scale(0.996264009963)" xlink:href="#CMR17-48"/>
       <use transform="translate(137.071431351 0.0)scale(0.996264009963)" xlink:href="#CMR17-37"/>
      </g>
     </g>
    </g>
   </g>
   <g id="patch_3">
    <path clip-path="url(#pa839a71ac8)" d="
M48.3 73.0065
L75.9 73.0065
L75.9 71.1246
L48.3 71.1246
z
" style="fill:#d3d3d3;stroke:#000000;"/>
   </g>
   <g id="patch_4">
    <path clip-path="url(#pa839a71ac8)" d="
M103.5 73.0065
L131.1 73.0065
L131.1 73.0065
L103.5 73.0065
z
" style="fill:#d3d3d3;stroke:#000000;"/>
   </g>
   <g id="patch_5">
    <path clip-path="url(#pa839a71ac8)" d="
M158.7 73.0065
L186.3 73.0065
L186.3 72.3792
L158.7 72.3792
z
" style="fill:#d3d3d3;stroke:#000000;"/>
   </g>
   <g id="patch_6">
    <path clip-path="url(#pa839a71ac8)" d="
M213.9 73.0065
L241.5 73.0065
L241.5 71.1246
L213.9 71.1246
z
" style="fill:#d3d3d3;stroke:#000000;"/>
   </g>
   <g id="patch_7">
    <path clip-path="url(#pa839a71ac8)" d="
M269.1 73.0065
L296.7 73.0065
L296.7 22.1974
L269.1 22.1974
z
" style="fill:#d3d3d3;stroke:#000000;"/>
   </g>
   <g id="line2d_31">
    <path clip-path="url(#pa839a71ac8)" d="
M279.653 73.0065
L279.653 17.8065" style="fill:none;stroke:#000000;stroke-linecap:square;"/>
   </g>
   <g id="patch_8">
    <path d="
M34.5 17.8065
L310.5 17.8065" style="fill:none;stroke:#000000;"/>
   </g>
   <g id="patch_9">
    <path d="
M310.5 73.0065
L310.5 17.8065" style="fill:none;stroke:#000000;"/>
   </g>
   <g id="patch_10">
    <path d="
M34.5 73.0065
L310.5 73.0065" style="fill:none;stroke:#000000;"/>
   </g>
   <g id="patch_11">
    <path d="
M34.5 73.0065
L34.5 17.8065" style="fill:none;stroke:#000000;"/>
   </g>
   <g id="text_11">
    <!-- 3.94 -->
    <defs>
     <path d="
M22.0938 33.7031
C31 33.7031 34.9062 25.9688 34.9062 17.0312
C34.9062 5 28.5 0.390625 22.7031 0.390625
C17.4062 0.390625 8.79688 3.03125 6.09375 10.8281
C6.59375 10.625 7.09375 10.625 7.59375 10.625
C10 10.625 11.7969 12.2188 11.7969 14.8125
C11.7969 17.7031 9.59375 19 7.59375 19
C5.90625 19 3.29688 18.2031 3.29688 14.4688
C3.29688 5.23438 12.2969 -2 22.9062 -2
C34 -2 42.5 6.71875 42.5 16.9531
C42.5 26.6719 34.5 33.6875 25 34.7969
C32.5938 36.375 39.9062 43.0625 39.9062 52.0156
C39.9062 59.6875 32 65.2969 23 65.2969
C13.9062 65.2969 5.90625 59.8281 5.90625 52.0156
C5.90625 48.5938 8.5 48 9.79688 48
C11.9062 48 13.7031 49.2969 13.7031 51.8906
C13.7031 54.4688 11.9062 55.7656 9.79688 55.7656
C9.40625 55.7656 8.90625 55.7656 8.5 55.5625
C11.4062 61.8594 19.2969 63 22.7969 63
C26.2969 63 32.9062 61.3281 32.9062 51.875
C32.9062 49.1094 32.5 44.1875 29.0938 39.8438
C26.0938 36 22.7031 36 19.4062 35.5938
C18.9062 35.5938 16.5938 35.5938 16.2031 35.5938
C15.5 35.4844 15.0938 35.3906 15.0938 34.5938
C15.0938 33.8125 15.2031 33.7031 17.2031 33.7031
z
" id="CMR17-51"/>
     <path d="
M35.2031 29.125
C35.2031 7.25 26.0938 0.484375 18.5938 0.484375
C16.2969 0.484375 10.7031 0.484375 8.40625 4.59375
C11 4.1875 12.9062 5.57812 12.9062 8.09375
C12.9062 10.8125 10.7031 11.7031 9.29688 11.7031
C8.40625 11.7031 5.70312 11.2969 5.70312 7.90625
C5.70312 1.10938 11.5938 -2 18.7969 -2
C30.2969 -2 42 10.5312 42 32.3906
C42 59.6406 30.7969 65.2969 23.2031 65.2969
C13.2969 65.2969 3.79688 56.6875 3.79688 43.4062
C3.79688 31.1094 11.9062 22 22.0938 22
C30.5 22 34.2031 29.7344 35.2031 33
z

M22.2969 23.5938
C19.5938 23.5938 15.7969 24.0938 12.7031 30.0312
C10.5938 33.8906 10.5938 38.4531 10.5938 43.2969
C10.5938 49.1562 10.5938 53.2031 13.4062 57.5625
C14.7969 59.6406 17.4062 63 23.2031 63
C35 63 35 45.0781 35 41.125
C35 34.0938 31.7969 23.5938 22.2969 23.5938" id="CMR17-57"/>
    </defs>
    <g transform="translate(273.028941176 15.0464516129)scale(0.08 -0.08)">
     <use transform="scale(0.996264009963)" xlink:href="#CMR17-51"/>
     <use transform="translate(45.6904771171 0.0)scale(0.996264009963)" xlink:href="#CMR17-46"/>
     <use transform="translate(70.5615355989 0.0)scale(0.996264009963)" xlink:href="#CMR17-57"/>
     <use transform="translate(116.252012716 0.0)scale(0.996264009963)" xlink:href="#CMR17-52"/>
    </g>
   </g>
  </g>
 </g>
 <defs>
  <clipPath id="pa839a71ac8">
   <rect height="55.2" width="276.0" x="34.5" y="17.8064516129"/>
  </clipPath>
 </defs>
</svg>
