<?xml version="1.0" standalone="no"?>
<!DOCTYPE svg PUBLIC "-//W3C//DTD SVG 1.1//EN"
  "http://www.w3.org/Graphics/SVG/1.1/DTD/svg11.dtd">
<!-- Created with matplotlib (http://matplotlib.sourceforge.net/) -->
<svg width="340pt" height="97pt" viewBox="0 0 340 97"
   xmlns="http://www.w3.org/2000/svg"
   xmlns:xlink="http://www.w3.org/1999/xlink"
   version="1.1"
   id="svg1">
<g id="figure1">
<g id="patch1">
<path style="fill: #ffffff; stroke: #ffffff; stroke-width: 1.000000; stroke-linejoin: round; stroke-linecap: square;  opacity: 1.000000"  d="M0.000000 97.187852L340.157480 97.187852L340.157480 0.000000
L0.000000 0.000000L0.000000 97.187852"/>
</g>
<g id="axes1">
<g id="patch2">
<path style="fill: #ffffff; opacity: 1.000000"  d="M42.519685 82.609674L306.141732 82.609674L306.141732 9.718785
L42.519685 9.718785L42.519685 82.609674"/>
</g>
<g id="line2d1">
<defs>
  <clipPath id="p9b30d19e720d6e98315914cbc2273476">
<rect x="42.519685" y="9.718785" width="263.622047" height="72.890889"/>
  </clipPath>
</defs><path style="fill: none; stroke: #000000; stroke-width: 0.750000; stroke-linejoin: round; stroke-linecap: square;  opacity: 1.000000" clip-path="url(#p9b30d19e720d6e98315914cbc2273476)" d="M42.519685 46.164229L44.496850 19.359699L45.485433 13.439920
L45.814961 13.032007L45.979724 13.134143L46.474016 14.653614
L47.297835 20.970290L48.615945 38.429666L51.252165 74.414093
L52.075984 78.888539L52.405512 79.296452L52.570276 79.194316
L53.064567 77.674845L53.888386 71.358169L55.206496 53.898793
L57.842717 17.914366L58.666535 13.439920L58.996063 13.032007
L59.160827 13.134143L59.655118 14.653614L60.478937 20.970290
L61.797047 38.429666L64.433268 74.414093L65.257087 78.888539
L65.586614 79.296452L65.751378 79.194316L66.245669 77.674845
L67.069488 71.358169L68.387598 53.898793L71.023819 17.914366
L71.847638 13.439920L72.177165 13.032007L72.341929 13.134143
L72.836220 14.653614L73.660039 20.970290L74.978150 38.429666
L77.614370 74.414093L78.438189 78.888539L78.767717 79.296452
L78.932480 79.194316L79.426772 77.674845L80.250591 71.358169
L81.568701 53.898793L84.204921 17.914366L85.028740 13.439920
L85.358268 13.032007L85.523031 13.134143L86.017323 14.653614
L86.841142 20.970290L88.159252 38.429666L90.795472 74.414093
L91.619291 78.888539L91.948819 79.296452L92.113583 79.194316
L92.607874 77.674845L93.431693 71.358169L94.749803 53.898793
L97.386024 17.914366L98.209843 13.439920L98.539370 13.032007
L98.704134 13.134143L99.198425 14.653614L100.022244 20.970290
L101.340354 38.429666L103.976575 74.414093L104.800394 78.888539
L105.129921 79.296452L105.294685 79.194316L105.788976 77.674845
L106.612795 71.358169L107.930906 53.898793L110.567126 17.914366
L111.390945 13.439920L111.720472 13.032007L111.885236 13.134143
L112.379528 14.653614L113.203346 20.970290L114.521457 38.429666
L117.157677 74.414093L117.981496 78.888539L118.311024 79.296452
L118.475787 79.194316L118.970079 77.674845L119.793898 71.358169
L121.112008 53.898793L123.748228 17.914366L124.572047 13.439920
L124.901575 13.032007L125.066339 13.134143L125.560630 14.653614
L126.384449 20.970290L127.702559 38.429666L130.338780 74.414093
L131.162598 78.888539L131.492126 79.296452L131.656890 79.194316
L132.151181 77.674845L132.975000 71.358169L134.293110 53.898793
L136.929331 17.914366L137.753150 13.439920L138.082677 13.032007
L138.247441 13.134143L138.741732 14.653614L139.565551 20.970290
L140.883661 38.429666L143.519882 74.414093L144.343701 78.888539
L144.673228 79.296452L144.837992 79.194316L145.332283 77.674845
L146.156102 71.358169L147.474213 53.898793L150.110433 17.914366
L150.934252 13.439920L151.263780 13.032007L151.428543 13.134143
L151.922835 14.653614L152.746654 20.970290L154.064764 38.429666
L156.700984 74.414093L157.524803 78.888539L157.854331 79.296452
L158.019094 79.194316L158.513386 77.674845L159.337205 71.358169
L160.655315 53.898793L163.291535 17.914366L164.115354 13.439920
L164.444882 13.032007L164.609646 13.134143L165.103937 14.653614
L165.927756 20.970290L167.245866 38.429666L169.882087 74.414093
L170.705906 78.888539L171.035433 79.296452L171.200197 79.194316
L171.694488 77.674845L172.518307 71.358169L173.836417 53.898793
L176.472638 17.914366L177.296457 13.439920L177.625984 13.032007
L177.790748 13.134143L178.285039 14.653614L179.108858 20.970290
L180.426969 38.429666L183.063189 74.414093L183.887008 78.888539
L184.216535 79.296452L184.381299 79.194316L184.875591 77.674845
L185.699409 71.358169L187.017520 53.898793L189.653740 17.914366
L190.477559 13.439920L190.807087 13.032007L190.971850 13.134143
L191.466142 14.653614L192.289961 20.970290L193.608071 38.429666
L196.244291 74.414093L197.068110 78.888539L197.397638 79.296452
L197.562402 79.194316L198.056693 77.674845L198.880512 71.358169
L200.198622 53.898793L202.834843 17.914366L203.658661 13.439920
L203.988189 13.032007L204.152953 13.134143L204.647244 14.653614
L205.471063 20.970290L206.789173 38.429666L209.425394 74.414093
L210.249213 78.888539L210.578740 79.296452L210.743504 79.194316
L211.237795 77.674845L212.061614 71.358169L213.379724 53.898793
L216.015945 17.914366L216.839764 13.439920L217.169291 13.032007
L217.334055 13.134143L217.828346 14.653614L218.652165 20.970290
L219.970276 38.429666L222.606496 74.414093L223.430315 78.888539
L223.759843 79.296452L223.924606 79.194316L224.418898 77.674845
L225.242717 71.358169L226.560827 53.898793L229.197047 17.914366
L230.020866 13.439920L230.350394 13.032007L230.515157 13.134143
L231.009449 14.653614L231.833268 20.970290L233.151378 38.429666
L235.787598 74.414093L236.611417 78.888539L236.940945 79.296452
L237.105709 79.194316L237.600000 77.674845L238.423819 71.358169
L239.741929 53.898793L242.378150 17.914366L243.201969 13.439920
L243.531496 13.032007L243.696260 13.134143L244.190551 14.653614
L245.014370 20.970290L246.332480 38.429666L248.968701 74.414093
L249.792520 78.888539L250.122047 79.296452L250.286811 79.194316
L250.781102 77.674845L251.604921 71.358169L252.923031 53.898793
L255.559252 17.914366L256.383071 13.439920L256.712598 13.032007
L256.877362 13.134143L257.371654 14.653614L258.195472 20.970290
L259.513583 38.429666L262.149803 74.414093L262.973622 78.888539
L263.303150 79.296452L263.467913 79.194316L263.962205 77.674845
L264.786024 71.358169L266.104134 53.898793L268.740354 17.914366
L269.564173 13.439920L269.893701 13.032007L270.058465 13.134143
L270.552756 14.653614L271.376575 20.970290L272.694685 38.429666
L275.330906 74.414093L276.154724 78.888539L276.484252 79.296452
L276.649016 79.194316L277.143307 77.674845L277.967126 71.358169
L279.285236 53.898793L281.921457 17.914366L282.745276 13.439920
L283.074803 13.032007L283.239567 13.134143L283.733858 14.653614
L284.557677 20.970290L285.875787 38.429666L288.512008 74.414093
L289.335827 78.888539L289.665354 79.296452L289.830118 79.194316
L290.324409 77.674845L291.148228 71.358169L292.466339 53.898793
L295.102559 17.914366L295.926378 13.439920L296.255906 13.032007
L296.420669 13.134143L296.914961 14.653614L297.738780 20.970290
L299.056890 38.429666L301.693110 74.414093L302.516929 78.888539
L302.846457 79.296452L303.011220 79.194316L303.505512 77.674845
L304.329331 71.358169L305.647441 53.898793L305.976969 48.763754
L305.976969 48.763754"/>
</g>
<g id="line2d2">
<defs><path id="m0305eeba35459913353b7b808f2b84a1" d="M0.000000 1.500000C0.397805 1.500000 0.779370 1.341951 1.060660 1.060660
C1.341951 0.779370 1.500000 0.397805 1.500000 0.000000
C1.500000 -0.397805 1.341951 -0.779370 1.060660 -1.060660
C0.779370 -1.341951 0.397805 -1.500000 0.000000 -1.500000
C-0.397805 -1.500000 -0.779370 -1.341951 -1.060660 -1.060660
C-1.341951 -0.779370 -1.500000 -0.397805 -1.500000 0.000000
C-1.500000 0.397805 -1.341951 0.779370 -1.060660 1.060660
C-0.779370 1.341951 -0.397805 1.500000 0.000000 1.500000z"/></defs>
<g clip-path="url(#p9b30d19e720d6e98315914cbc2273476)"><use style="fill: #000000; stroke: #000000; stroke-width: 0.500000; stroke-linejoin: round; stroke-linecap: butt;  opacity: 1.000000" xlink:href="#m0305eeba35459913353b7b808f2b84a1" x="42.519685" y="46.164229"/>
<use style="fill: #000000; stroke: #000000; stroke-width: 0.500000; stroke-linejoin: round; stroke-linecap: butt;  opacity: 1.000000" xlink:href="#m0305eeba35459913353b7b808f2b84a1" x="58.996063" y="13.032007"/>
<use style="fill: #000000; stroke: #000000; stroke-width: 0.500000; stroke-linejoin: round; stroke-linecap: butt;  opacity: 1.000000" xlink:href="#m0305eeba35459913353b7b808f2b84a1" x="75.472441" y="46.164229"/>
<use style="fill: #000000; stroke: #000000; stroke-width: 0.500000; stroke-linejoin: round; stroke-linecap: butt;  opacity: 1.000000" xlink:href="#m0305eeba35459913353b7b808f2b84a1" x="91.948819" y="79.296452"/>
<use style="fill: #000000; stroke: #000000; stroke-width: 0.500000; stroke-linejoin: round; stroke-linecap: butt;  opacity: 1.000000" xlink:href="#m0305eeba35459913353b7b808f2b84a1" x="108.425197" y="46.164229"/>
<use style="fill: #000000; stroke: #000000; stroke-width: 0.500000; stroke-linejoin: round; stroke-linecap: butt;  opacity: 1.000000" xlink:href="#m0305eeba35459913353b7b808f2b84a1" x="124.901575" y="13.032007"/>
<use style="fill: #000000; stroke: #000000; stroke-width: 0.500000; stroke-linejoin: round; stroke-linecap: butt;  opacity: 1.000000" xlink:href="#m0305eeba35459913353b7b808f2b84a1" x="141.377953" y="46.164229"/>
<use style="fill: #000000; stroke: #000000; stroke-width: 0.500000; stroke-linejoin: round; stroke-linecap: butt;  opacity: 1.000000" xlink:href="#m0305eeba35459913353b7b808f2b84a1" x="157.854331" y="79.296452"/>
<use style="fill: #000000; stroke: #000000; stroke-width: 0.500000; stroke-linejoin: round; stroke-linecap: butt;  opacity: 1.000000" xlink:href="#m0305eeba35459913353b7b808f2b84a1" x="174.330709" y="46.164229"/>
<use style="fill: #000000; stroke: #000000; stroke-width: 0.500000; stroke-linejoin: round; stroke-linecap: butt;  opacity: 1.000000" xlink:href="#m0305eeba35459913353b7b808f2b84a1" x="190.807087" y="13.032007"/>
<use style="fill: #000000; stroke: #000000; stroke-width: 0.500000; stroke-linejoin: round; stroke-linecap: butt;  opacity: 1.000000" xlink:href="#m0305eeba35459913353b7b808f2b84a1" x="207.283465" y="46.164229"/>
<use style="fill: #000000; stroke: #000000; stroke-width: 0.500000; stroke-linejoin: round; stroke-linecap: butt;  opacity: 1.000000" xlink:href="#m0305eeba35459913353b7b808f2b84a1" x="223.759843" y="79.296452"/>
<use style="fill: #000000; stroke: #000000; stroke-width: 0.500000; stroke-linejoin: round; stroke-linecap: butt;  opacity: 1.000000" xlink:href="#m0305eeba35459913353b7b808f2b84a1" x="240.236220" y="46.164229"/>
<use style="fill: #000000; stroke: #000000; stroke-width: 0.500000; stroke-linejoin: round; stroke-linecap: butt;  opacity: 1.000000" xlink:href="#m0305eeba35459913353b7b808f2b84a1" x="256.712598" y="13.032007"/>
<use style="fill: #000000; stroke: #000000; stroke-width: 0.500000; stroke-linejoin: round; stroke-linecap: butt;  opacity: 1.000000" xlink:href="#m0305eeba35459913353b7b808f2b84a1" x="273.188976" y="46.164229"/>
<use style="fill: #000000; stroke: #000000; stroke-width: 0.500000; stroke-linejoin: round; stroke-linecap: butt;  opacity: 1.000000" xlink:href="#m0305eeba35459913353b7b808f2b84a1" x="289.665354" y="79.296452"/>
</g></g>
<g id="matplotlib.axis1">
<g id="xtick1">
<g id="line2d3">
<defs><path id="m30e32995789d870ad79a2e54c91cf9c6" d="M0.000000 0.000000L0.000000 -4.000000"/></defs>
<g ><use style="fill: none; stroke: #000000; stroke-width: 0.500000; stroke-linejoin: round; stroke-linecap: butt;  opacity: 1.000000" xlink:href="#m30e32995789d870ad79a2e54c91cf9c6" x="42.519685" y="82.609674"/>
</g></g>
<g id="line2d4">
<defs><path id="m9281cae24120827b11d5ea8a7ad3e96b" d="M0.000000 0.000000L0.000000 4.000000"/></defs>
<g ><use style="fill: none; stroke: #000000; stroke-width: 0.500000; stroke-linejoin: round; stroke-linecap: butt;  opacity: 1.000000" xlink:href="#m9281cae24120827b11d5ea8a7ad3e96b" x="42.519685" y="9.718785"/>
</g></g>
<g id="text1">
<defs>
<path id="c_7a2040fe3b94fcd41d0a72c84e93b115" d="M31.781250 -66.406250q-7.609375 0.000000 -11.453125 7.500000q-3.828125 7.484375 -3.828125 22.531250q0.000000 14.984375 3.828125 22.484375q3.843750 7.500000 11.453125 7.500000q7.671875 0.000000 11.500000 -7.500000q3.843750 -7.500000 3.843750 -22.484375q0.000000 -15.046875 -3.843750 -22.531250q-3.828125 -7.500000 -11.500000 -7.500000M31.781250 -74.218750q12.265625 0.000000 18.734375 9.703125q6.468750 9.687500 6.468750 28.140625q0.000000 18.406250 -6.468750 28.109375q-6.468750 9.687500 -18.734375 9.687500q-12.250000 0.000000 -18.718750 -9.687500q-6.468750 -9.703125 -6.468750 -28.109375q0.000000 -18.453125 6.468750 -28.140625q6.468750 -9.703125 18.718750 -9.703125"/>
<path id="c_ed3e21196fb739f392806f09ca0594ef" d="M10.687500 -12.406250l10.312500 0.000000l0.000000 12.406250l-10.312500 0.000000z"/>
</defs>
<g style="fill: #000000; opacity: 1.000000" transform="translate(22.308748,95.515924)scale(0.120000)">
<use xlink:href="#c_7a2040fe3b94fcd41d0a72c84e93b115"/>
<use xlink:href="#c_ed3e21196fb739f392806f09ca0594ef" x="63.623047"/>
<use xlink:href="#c_7a2040fe3b94fcd41d0a72c84e93b115" x="95.410156"/>
<use xlink:href="#c_7a2040fe3b94fcd41d0a72c84e93b115" x="159.033203"/>
<use xlink:href="#c_7a2040fe3b94fcd41d0a72c84e93b115" x="222.656250"/>
<use xlink:href="#c_7a2040fe3b94fcd41d0a72c84e93b115" x="286.279297"/>
</g>
</g>
</g>
<g id="xtick2">
<g id="line2d5">
<g ><use style="fill: none; stroke: #000000; stroke-width: 0.500000; stroke-linejoin: round; stroke-linecap: butt;  opacity: 1.000000" xlink:href="#m30e32995789d870ad79a2e54c91cf9c6" x="108.425197" y="82.609674"/>
</g></g>
<g id="line2d6">
<g ><use style="fill: none; stroke: #000000; stroke-width: 0.500000; stroke-linejoin: round; stroke-linecap: butt;  opacity: 1.000000" xlink:href="#m9281cae24120827b11d5ea8a7ad3e96b" x="108.425197" y="9.718785"/>
</g></g>
<g id="text2">
<defs>
<path id="c_1260a2df50f305f3db244e29828f968e" d="M10.796875 -72.906250l38.718750 0.000000l0.000000 8.312500l-29.687500 0.000000l0.000000 17.859375q2.140625 -0.734375 4.281250 -1.093750q2.156250 -0.359375 4.312500 -0.359375q12.203125 0.000000 19.328125 6.687500q7.140625 6.687500 7.140625 18.109375q0.000000 11.765625 -7.328125 18.296875q-7.328125 6.515625 -20.656250 6.515625q-4.593750 0.000000 -9.359375 -0.781250q-4.750000 -0.781250 -9.828125 -2.343750l0.000000 -9.921875q4.390625 2.390625 9.078125 3.562500q4.687500 1.171875 9.906250 1.171875q8.453125 0.000000 13.375000 -4.437500q4.937500 -4.437500 4.937500 -12.062500q0.000000 -7.609375 -4.937500 -12.046875q-4.921875 -4.453125 -13.375000 -4.453125q-3.953125 0.000000 -7.890625 0.875000q-3.921875 0.875000 -8.015625 2.734375z"/>
</defs>
<g style="fill: #000000; opacity: 1.000000" transform="translate(88.339259,95.515924)scale(0.120000)">
<use xlink:href="#c_7a2040fe3b94fcd41d0a72c84e93b115"/>
<use xlink:href="#c_ed3e21196fb739f392806f09ca0594ef" x="63.623047"/>
<use xlink:href="#c_7a2040fe3b94fcd41d0a72c84e93b115" x="95.410156"/>
<use xlink:href="#c_7a2040fe3b94fcd41d0a72c84e93b115" x="159.033203"/>
<use xlink:href="#c_7a2040fe3b94fcd41d0a72c84e93b115" x="222.656250"/>
<use xlink:href="#c_1260a2df50f305f3db244e29828f968e" x="286.279297"/>
</g>
</g>
</g>
<g id="xtick3">
<g id="line2d7">
<g ><use style="fill: none; stroke: #000000; stroke-width: 0.500000; stroke-linejoin: round; stroke-linecap: butt;  opacity: 1.000000" xlink:href="#m30e32995789d870ad79a2e54c91cf9c6" x="174.330709" y="82.609674"/>
</g></g>
<g id="line2d8">
<g ><use style="fill: none; stroke: #000000; stroke-width: 0.500000; stroke-linejoin: round; stroke-linecap: butt;  opacity: 1.000000" xlink:href="#m9281cae24120827b11d5ea8a7ad3e96b" x="174.330709" y="9.718785"/>
</g></g>
<g id="text3">
<defs>
<path id="c_42baa63129a918535c52adb20d687ea7" d="M12.406250 -8.296875l16.109375 0.000000l0.000000 -55.625000l-17.531250 3.515625l0.000000 -8.984375l17.437500 -3.515625l9.859375 0.000000l0.000000 64.609375l16.109375 0.000000l0.000000 8.296875l-41.984375 0.000000z"/>
</defs>
<g style="fill: #000000; opacity: 1.000000" transform="translate(154.119771,95.515924)scale(0.120000)">
<use xlink:href="#c_7a2040fe3b94fcd41d0a72c84e93b115"/>
<use xlink:href="#c_ed3e21196fb739f392806f09ca0594ef" x="63.623047"/>
<use xlink:href="#c_7a2040fe3b94fcd41d0a72c84e93b115" x="95.410156"/>
<use xlink:href="#c_7a2040fe3b94fcd41d0a72c84e93b115" x="159.033203"/>
<use xlink:href="#c_42baa63129a918535c52adb20d687ea7" x="222.656250"/>
<use xlink:href="#c_7a2040fe3b94fcd41d0a72c84e93b115" x="286.279297"/>
</g>
</g>
</g>
<g id="xtick4">
<g id="line2d9">
<g ><use style="fill: none; stroke: #000000; stroke-width: 0.500000; stroke-linejoin: round; stroke-linecap: butt;  opacity: 1.000000" xlink:href="#m30e32995789d870ad79a2e54c91cf9c6" x="240.236220" y="82.609674"/>
</g></g>
<g id="line2d10">
<g ><use style="fill: none; stroke: #000000; stroke-width: 0.500000; stroke-linejoin: round; stroke-linecap: butt;  opacity: 1.000000" xlink:href="#m9281cae24120827b11d5ea8a7ad3e96b" x="240.236220" y="9.718785"/>
</g></g>
<g id="text4">
<g style="fill: #000000; opacity: 1.000000" transform="translate(220.150283,95.515924)scale(0.120000)">
<use xlink:href="#c_7a2040fe3b94fcd41d0a72c84e93b115"/>
<use xlink:href="#c_ed3e21196fb739f392806f09ca0594ef" x="63.623047"/>
<use xlink:href="#c_7a2040fe3b94fcd41d0a72c84e93b115" x="95.410156"/>
<use xlink:href="#c_7a2040fe3b94fcd41d0a72c84e93b115" x="159.033203"/>
<use xlink:href="#c_42baa63129a918535c52adb20d687ea7" x="222.656250"/>
<use xlink:href="#c_1260a2df50f305f3db244e29828f968e" x="286.279297"/>
</g>
</g>
</g>
<g id="xtick5">
<g id="line2d11">
<g ><use style="fill: none; stroke: #000000; stroke-width: 0.500000; stroke-linejoin: round; stroke-linecap: butt;  opacity: 1.000000" xlink:href="#m30e32995789d870ad79a2e54c91cf9c6" x="306.141732" y="82.609674"/>
</g></g>
<g id="line2d12">
<g ><use style="fill: none; stroke: #000000; stroke-width: 0.500000; stroke-linejoin: round; stroke-linecap: butt;  opacity: 1.000000" xlink:href="#m9281cae24120827b11d5ea8a7ad3e96b" x="306.141732" y="9.718785"/>
</g></g>
<g id="text5">
<defs>
<path id="c_ed3f3ed3ebfbd18bcb9c012009a68ad1" d="M19.187500 -8.296875l34.421875 0.000000l0.000000 8.296875l-46.281250 0.000000l0.000000 -8.296875q5.609375 -5.812500 15.296875 -15.593750q9.703125 -9.796875 12.187500 -12.640625q4.734375 -5.312500 6.609375 -9.000000q1.890625 -3.687500 1.890625 -7.250000q0.000000 -5.812500 -4.078125 -9.468750q-4.078125 -3.671875 -10.625000 -3.671875q-4.640625 0.000000 -9.796875 1.609375q-5.140625 1.609375 -11.000000 4.890625l0.000000 -9.968750q5.953125 -2.390625 11.125000 -3.609375q5.187500 -1.218750 9.484375 -1.218750q11.328125 0.000000 18.062500 5.671875q6.734375 5.656250 6.734375 15.125000q0.000000 4.500000 -1.687500 8.531250q-1.671875 4.015625 -6.125000 9.484375q-1.218750 1.421875 -7.765625 8.187500q-6.531250 6.765625 -18.453125 18.921875"/>
</defs>
<g style="fill: #000000; opacity: 1.000000" transform="translate(285.930795,95.515924)scale(0.120000)">
<use xlink:href="#c_7a2040fe3b94fcd41d0a72c84e93b115"/>
<use xlink:href="#c_ed3e21196fb739f392806f09ca0594ef" x="63.623047"/>
<use xlink:href="#c_7a2040fe3b94fcd41d0a72c84e93b115" x="95.410156"/>
<use xlink:href="#c_7a2040fe3b94fcd41d0a72c84e93b115" x="159.033203"/>
<use xlink:href="#c_ed3f3ed3ebfbd18bcb9c012009a68ad1" x="222.656250"/>
<use xlink:href="#c_7a2040fe3b94fcd41d0a72c84e93b115" x="286.279297"/>
</g>
</g>
</g>
</g>
<g id="matplotlib.axis2">
<g id="ytick1">
<g id="line2d13">
<defs><path id="m3400efa6b1638b3fea9e19e898273957" d="M0.000000 0.000000L4.000000 0.000000"/></defs>
<g ><use style="fill: none; stroke: #000000; stroke-width: 0.500000; stroke-linejoin: round; stroke-linecap: butt;  opacity: 1.000000" xlink:href="#m3400efa6b1638b3fea9e19e898273957" x="42.519685" y="79.296452"/>
</g></g>
<g id="line2d14">
<defs><path id="m20b58b2501143cb5e0a5e8f1ef6f1643" d="M0.000000 0.000000L-4.000000 0.000000"/></defs>
<g ><use style="fill: none; stroke: #000000; stroke-width: 0.500000; stroke-linejoin: round; stroke-linecap: butt;  opacity: 1.000000" xlink:href="#m20b58b2501143cb5e0a5e8f1ef6f1643" x="306.141732" y="79.296452"/>
</g></g>
<g id="text6">
<defs>
<path id="c_6a8d56c819c37117ab4cf023bec22a5a" d="M10.593750 -35.500000l62.593750 0.000000l0.000000 8.296875l-62.593750 0.000000z"/>
</defs>
<g style="fill: #000000; opacity: 1.000000" transform="translate(23.191560,83.671452)scale(0.120000)">
<use xlink:href="#c_6a8d56c819c37117ab4cf023bec22a5a"/>
<use xlink:href="#c_42baa63129a918535c52adb20d687ea7" x="83.789062"/>
</g>
</g>
</g>
<g id="ytick2">
<g id="line2d15">
<g ><use style="fill: none; stroke: #000000; stroke-width: 0.500000; stroke-linejoin: round; stroke-linecap: butt;  opacity: 1.000000" xlink:href="#m3400efa6b1638b3fea9e19e898273957" x="42.519685" y="46.164229"/>
</g></g>
<g id="line2d16">
<g ><use style="fill: none; stroke: #000000; stroke-width: 0.500000; stroke-linejoin: round; stroke-linecap: butt;  opacity: 1.000000" xlink:href="#m20b58b2501143cb5e0a5e8f1ef6f1643" x="306.141732" y="46.164229"/>
</g></g>
<g id="text7">
<g style="fill: #000000; opacity: 1.000000" transform="translate(32.472810,50.531417)scale(0.120000)">
<use xlink:href="#c_7a2040fe3b94fcd41d0a72c84e93b115"/>
</g>
</g>
</g>
<g id="ytick3">
<g id="line2d17">
<g ><use style="fill: none; stroke: #000000; stroke-width: 0.500000; stroke-linejoin: round; stroke-linecap: butt;  opacity: 1.000000" xlink:href="#m3400efa6b1638b3fea9e19e898273957" x="42.519685" y="13.032007"/>
</g></g>
<g id="line2d18">
<g ><use style="fill: none; stroke: #000000; stroke-width: 0.500000; stroke-linejoin: round; stroke-linecap: butt;  opacity: 1.000000" xlink:href="#m20b58b2501143cb5e0a5e8f1ef6f1643" x="306.141732" y="13.032007"/>
</g></g>
<g id="text8">
<g style="fill: #000000; opacity: 1.000000" transform="translate(33.300935,17.407007)scale(0.120000)">
<use xlink:href="#c_42baa63129a918535c52adb20d687ea7"/>
</g>
</g>
</g>
</g>
<g id="patch3">
<path style="fill: none; stroke: #000000; stroke-width: 1.000000; stroke-linejoin: round; stroke-linecap: square;  opacity: 1.000000"  d="M42.519685 9.718785L306.141732 9.718785"/>
</g>
<g id="patch4">
<path style="fill: none; stroke: #000000; stroke-width: 1.000000; stroke-linejoin: round; stroke-linecap: square;  opacity: 1.000000"  d="M306.141732 82.609674L306.141732 9.718785"/>
</g>
<g id="patch5">
<path style="fill: none; stroke: #000000; stroke-width: 1.000000; stroke-linejoin: round; stroke-linecap: square;  opacity: 1.000000"  d="M42.519685 82.609674L306.141732 82.609674"/>
</g>
<g id="patch6">
<path style="fill: none; stroke: #000000; stroke-width: 1.000000; stroke-linejoin: round; stroke-linecap: square;  opacity: 1.000000"  d="M42.519685 82.609674L42.519685 9.718785"/>
</g>
</g>
</g>
</svg>
