<?xml version="1.0" standalone="no"?>
<!DOCTYPE svg PUBLIC "-//W3C//DTD SVG 1.1//EN"
  "http://www.w3.org/Graphics/SVG/1.1/DTD/svg11.dtd">
<!-- Created with matplotlib (http://matplotlib.sourceforge.net/) -->
<svg width="340pt" height="113pt" viewBox="0 0 340 113"
   xmlns="http://www.w3.org/2000/svg"
   xmlns:xlink="http://www.w3.org/1999/xlink"
   version="1.1"
   id="svg1">
<filter id="colorAdd"><feComposite in="SourceGraphic" in2="BackgroundImage" operator="arithmetic" k2="1" k3="1"/></filter>
<g id="figure1">
<g id="patch1">
<path style="fill: #ffffff; stroke: #ffffff; stroke-width: 1.000000; stroke-linejoin: round; stroke-linecap: square;  opacity: 1.000000"  d="M0.000000 113.385827L340.157480 113.385827L340.157480 0.000000
L0.000000 0.000000z"/>
</g>
<g id="axes1">
<g id="patch2">
<path style="fill: #ffffff; opacity: 1.000000"  d="M42.519685 102.047244L306.141732 102.047244L306.141732 22.677165
L42.519685 22.677165z"/>
</g>
<g id="line2d1">
<defs>
  <clipPath id="p7f0184d124636edd2d883bc9eab6e771">
<rect x="42.519685" y="22.677165" width="263.622047" height="79.370079"/>
  </clipPath>
</defs><path style="fill: none; stroke: #000000; stroke-width: 0.750000; stroke-linejoin: round; stroke-linecap: square;  opacity: 1.000000" clip-path="url(#p7f0184d124636edd2d883bc9eab6e771)" d="M42.519685 34.729209L45.269484 34.613893L48.497509 34.235089
L55.670898 33.301736L58.301141 33.238700L60.931384 33.403586
L64.039852 33.841901L70.974128 34.919323L73.365258 35.017120
L75.636831 34.895515L78.147517 34.528111L81.495099 33.784748
L85.799132 32.860660L88.070705 32.610981L90.103166 32.614133
L92.016069 32.834483L94.048530 33.287546L96.559216 34.083363
L102.058814 35.905959L103.971718 36.246127L105.645509 36.308121
L107.199743 36.136411L108.753977 35.733247L110.427768 35.051521
L112.340672 34.008870L115.329584 32.070713L117.840270 30.536785
L119.394504 29.831967L120.709626 29.479290L121.785634 29.404219
L122.861642 29.555963L123.818094 29.904581L124.774546 30.472483
L125.850554 31.390891L126.926563 32.619074L128.122128 34.356612
L129.317692 36.487402L130.632814 39.273315L132.187048 43.123445
L133.980395 48.220832L136.251969 55.439415L143.903583 80.495054
L145.696931 85.269185L147.251165 88.774044L148.207617 90.606923
L148.327173 90.599358L149.522738 88.714120L150.718303 87.241198
L151.794311 86.264455L152.750763 85.664773L153.707215 85.305212
L154.663667 85.169679L155.739675 85.260590L156.815684 85.578172
L158.130805 86.221821L159.685039 87.254009L162.076169 89.152966
L163.989073 90.698148L164.945525 90.003577L166.738872 88.849011
L168.293106 88.107006L169.727784 87.671158L171.042905 87.492342
L172.477583 87.533254L173.912261 87.800410L175.586052 88.352396
L177.618512 89.270757L180.487868 90.664098L183.118110 89.439542
L185.031014 88.790529L186.704805 88.451495L188.378596 88.348141
L190.052386 88.477913L191.845734 88.848026L193.997750 89.533577
L197.225775 90.622728L200.214687 89.558709L202.247148 89.057818
L204.160051 88.818542L205.953399 88.817836L207.866302 89.046332
L210.018319 89.539155L213.126788 90.513600L213.844127 90.664899
L217.191708 89.664536L219.463281 89.220685L221.495742 89.056654
L223.408645 89.119650L225.560662 89.424521L228.071348 90.019248
L230.701591 90.640850L234.288285 89.706782L236.559859 89.337674
L238.711875 89.217898L240.744336 89.323528L243.015909 89.668357
L246.004821 90.374100L247.439499 90.660604L251.265306 89.750838
L253.656436 89.411782L255.808453 89.326582L257.960469 89.461091
L260.351599 89.837298L263.699180 90.615293L264.296963 90.651818
L268.242327 89.774150L270.633457 89.464752L272.905030 89.398041
L275.176603 89.562688L277.687289 89.975103L281.273984 90.617083
L285.219348 89.780036L287.730034 89.482822L290.001607 89.441579
L292.273180 89.623984L294.903423 90.069280L298.011891 90.640760
L302.076812 89.788787L304.587498 89.494736L306.022176 89.442229
L306.022176 89.442229"/>
</g>
<g id="line2d2">
<path style="fill: none; stroke: #000000; stroke-width: 0.750000; stroke-linejoin: round; stroke-linecap: square;  opacity: 1.000000" clip-path="url(#p7f0184d124636edd2d883bc9eab6e771)" d="M42.519685 34.015748L138.164872 34.015748L138.164872 90.708661
L306.141732 90.708661"/>
</g>
<g id="matplotlib.axis1">
<g id="xtick1">
<g id="line2d3">
<path style="fill: none; stroke: #000000; stroke-width: 0.500000; stroke-linejoin: round; stroke-linecap: butt; stroke-dasharray: 1.000000,3.000000; stroke-dashoffset: 0.000000; opacity: 1.000000" clip-path="url(#p7f0184d124636edd2d883bc9eab6e771)" d="M42.519685 102.047244L42.519685 22.677165"/>
</g>
<g id="line2d4">
<defs><path id="m30e32995789d870ad79a2e54c91cf9c6" d="M0.000000 0.000000L0.000000 -4.000000"/></defs>
<g ><use style="fill: none; stroke: #000000; stroke-width: 0.500000; stroke-linejoin: round; stroke-linecap: butt;  opacity: 1.000000" xlink:href="#m30e32995789d870ad79a2e54c91cf9c6" x="42.519685" y="102.047244"/>
</g></g>
<g id="line2d5">
<defs><path id="m9281cae24120827b11d5ea8a7ad3e96b" d="M0.000000 0.000000L0.000000 4.000000"/></defs>
<g ><use style="fill: none; stroke: #000000; stroke-width: 0.500000; stroke-linejoin: round; stroke-linecap: butt;  opacity: 1.000000" xlink:href="#m9281cae24120827b11d5ea8a7ad3e96b" x="42.519685" y="22.677165"/>
</g></g>
<g id="text1">
<defs>
<path id="CMR17-48" d="M21.000000 16.875000
C21.000000 19.921875 20.953125 25.140625 18.843750 29.140625
C17.000000 32.656250 14.046875 33.890625 11.453125 33.890625
C9.046875 33.890625 6.000000 32.796875 4.093750 29.187500
C2.093750 25.437500 1.906250 20.765625 1.906250 16.875000
C1.906250 14.015625 1.953125 9.656250 3.500000 5.859375
C5.656250 0.703125 9.500000 0.000000 11.453125 0.000000
C13.750000 0.000000 17.250000 0.953125 19.296875 5.703125
C20.796875 9.156250 21.000000 13.218750 21.000000 16.875000
M11.453125 0.796875C8.250000 0.796875 6.343750 3.546875 5.656250 7.359375
C5.093750 10.312500 5.093750 14.625000 5.093750 17.437500
C5.093750 21.281250 5.093750 24.500000 5.750000 27.562500
C6.703125 31.796875 9.500000 33.109375 11.453125 33.109375
C13.500000 33.109375 16.156250 31.750000 17.093750 27.656250
C17.750000 24.796875 17.796875 21.437500 17.796875 17.437500
C17.796875 14.171875 17.796875 10.171875 17.203125 7.218750
C16.156250 1.750000 13.203125 0.796875 11.453125 0.796875"/>
</defs>
<g style="fill: #000000; opacity: 1.000000" transform="translate(40.402594,111.183546)scale(0.160000,-0.160000)">
<use xlink:href="#CMR17-48" x="0.000000" y="0.000000" transform="scale(0.996264)"/>
</g><!-- style -->
</g>
</g>
<g id="xtick2">
<g id="line2d6">
<path style="fill: none; stroke: #000000; stroke-width: 0.500000; stroke-linejoin: round; stroke-linecap: butt; stroke-dasharray: 1.000000,3.000000; stroke-dashoffset: 0.000000; opacity: 1.000000" clip-path="url(#p7f0184d124636edd2d883bc9eab6e771)" d="M102.297927 102.047244L102.297927 22.677165"/>
</g>
<g id="line2d7">
<g ><use style="fill: none; stroke: #000000; stroke-width: 0.500000; stroke-linejoin: round; stroke-linecap: butt;  opacity: 1.000000" xlink:href="#m30e32995789d870ad79a2e54c91cf9c6" x="102.297927" y="102.047244"/>
</g></g>
<g id="line2d8">
<g ><use style="fill: none; stroke: #000000; stroke-width: 0.500000; stroke-linejoin: round; stroke-linecap: butt;  opacity: 1.000000" xlink:href="#m9281cae24120827b11d5ea8a7ad3e96b" x="102.297927" y="22.677165"/>
</g></g>
<g id="text2">
<defs>
<path id="CMR17-48" d="M21.000000 16.875000
C21.000000 19.921875 20.953125 25.140625 18.843750 29.140625
C17.000000 32.656250 14.046875 33.890625 11.453125 33.890625
C9.046875 33.890625 6.000000 32.796875 4.093750 29.187500
C2.093750 25.437500 1.906250 20.765625 1.906250 16.875000
C1.906250 14.015625 1.953125 9.656250 3.500000 5.859375
C5.656250 0.703125 9.500000 0.000000 11.453125 0.000000
C13.750000 0.000000 17.250000 0.953125 19.296875 5.703125
C20.796875 9.156250 21.000000 13.218750 21.000000 16.875000
M11.453125 0.796875C8.250000 0.796875 6.343750 3.546875 5.656250 7.359375
C5.093750 10.312500 5.093750 14.625000 5.093750 17.437500
C5.093750 21.281250 5.093750 24.500000 5.750000 27.562500
C6.703125 31.796875 9.500000 33.109375 11.453125 33.109375
C13.500000 33.109375 16.156250 31.750000 17.093750 27.656250
C17.750000 24.796875 17.796875 21.437500 17.796875 17.437500
C17.796875 14.171875 17.796875 10.171875 17.203125 7.218750
C16.156250 1.750000 13.203125 0.796875 11.453125 0.796875"/>
<path id="CMR17-53" d="M5.703125 29.843750
C6.203125 29.640625 8.250000 29.000000 10.343750 29.000000
C15.000000 29.000000 17.546875 31.500000 19.000000 32.953125
C19.000000 33.359375 19.000000 33.625000 18.703125 33.625000
C18.656250 33.625000 18.546875 33.625000 18.156250 33.421875
C16.406250 32.640625 14.343750 32.031250 11.843750 32.031250
C10.343750 32.031250 8.093750 32.234375 5.656250 33.375000
C5.093750 33.625000 5.000000 33.625000 4.953125 33.625000
C4.703125 33.625000 4.656250 33.578125 4.656250 32.578125
L4.656250 18.140625
C4.656250 17.250000 4.656250 17.000000 5.156250 17.000000
C5.406250 17.000000 5.500000 17.109375 5.750000 17.500000
C7.343750 20.046875 9.546875 21.109375 12.046875 21.109375
C13.796875 21.109375 17.546875 19.984375 17.546875 11.281250
C17.546875 9.640625 17.546875 6.703125 16.046875 4.359375
C14.796875 2.265625 12.843750 1.187500 10.703125 1.187500
C7.406250 1.187500 4.046875 3.515625 3.156250 7.375000
C3.343750 7.328125 3.750000 7.218750 3.953125 7.218750
C4.593750 7.218750 5.843750 7.562500 5.843750 9.109375
C5.843750 10.453125 4.906250 11.000000 3.953125 11.000000
C2.796875 11.000000 2.046875 10.296875 2.046875 8.890625
C2.046875 4.546875 5.500000 0.000000 10.796875 0.000000
C15.953125 0.000000 20.843750 4.531250 20.843750 11.078125
C20.843750 17.171875 16.953125 21.890625 12.093750 21.890625
C9.546875 21.890625 7.406250 20.875000 5.703125 18.906250z"/>
</defs>
<g style="fill: #000000; opacity: 1.000000" transform="translate(93.829561,111.183546)scale(0.160000,-0.160000)">
<use xlink:href="#CMR17-53" x="0.000000" y="0.000000" transform="scale(0.996264)"/>
<use xlink:href="#CMR17-48" x="22.930908" y="0.000000" transform="scale(0.996264)"/>
<use xlink:href="#CMR17-48" x="45.861816" y="0.000000" transform="scale(0.996264)"/>
<use xlink:href="#CMR17-48" x="68.792725" y="0.000000" transform="scale(0.996264)"/>
</g><!-- style -->
</g>
</g>
<g id="xtick3">
<g id="line2d9">
<path style="fill: none; stroke: #000000; stroke-width: 0.500000; stroke-linejoin: round; stroke-linecap: butt; stroke-dasharray: 1.000000,3.000000; stroke-dashoffset: 0.000000; opacity: 1.000000" clip-path="url(#p7f0184d124636edd2d883bc9eab6e771)" d="M162.076169 102.047244L162.076169 22.677165"/>
</g>
<g id="line2d10">
<g ><use style="fill: none; stroke: #000000; stroke-width: 0.500000; stroke-linejoin: round; stroke-linecap: butt;  opacity: 1.000000" xlink:href="#m30e32995789d870ad79a2e54c91cf9c6" x="162.076169" y="102.047244"/>
</g></g>
<g id="line2d11">
<g ><use style="fill: none; stroke: #000000; stroke-width: 0.500000; stroke-linejoin: round; stroke-linecap: butt;  opacity: 1.000000" xlink:href="#m9281cae24120827b11d5ea8a7ad3e96b" x="162.076169" y="22.677165"/>
</g></g>
<g id="text3">
<defs>
<path id="CMR17-49" d="M13.296875 31.906250
C13.296875 32.953125 13.250000 33.000000 12.546875 33.000000
C10.593750 30.781250 7.656250 30.093750 4.843750 30.093750
C4.703125 30.093750 4.453125 30.093750 4.406250 29.953125
C4.343750 29.859375 4.343750 29.750000 4.343750 28.718750
C5.906250 28.718750 8.500000 29.015625 10.500000 30.187500
L10.500000 3.625000C10.500000 1.843750 10.406250 1.250000 6.093750 1.250000
L4.593750 1.250000L4.593750 0.000000
C7.000000 0.000000 9.500000 0.000000 11.906250 0.000000
C14.296875 0.000000 16.796875 0.000000 19.203125 0.000000
L19.203125 1.250000L17.703125 1.250000
C13.406250 1.250000 13.296875 1.796875 13.296875 3.609375z"/>
<path id="CMR17-48" d="M21.000000 16.875000
C21.000000 19.921875 20.953125 25.140625 18.843750 29.140625
C17.000000 32.656250 14.046875 33.890625 11.453125 33.890625
C9.046875 33.890625 6.000000 32.796875 4.093750 29.187500
C2.093750 25.437500 1.906250 20.765625 1.906250 16.875000
C1.906250 14.015625 1.953125 9.656250 3.500000 5.859375
C5.656250 0.703125 9.500000 0.000000 11.453125 0.000000
C13.750000 0.000000 17.250000 0.953125 19.296875 5.703125
C20.796875 9.156250 21.000000 13.218750 21.000000 16.875000
M11.453125 0.796875C8.250000 0.796875 6.343750 3.546875 5.656250 7.359375
C5.093750 10.312500 5.093750 14.625000 5.093750 17.437500
C5.093750 21.281250 5.093750 24.500000 5.750000 27.562500
C6.703125 31.796875 9.500000 33.109375 11.453125 33.109375
C13.500000 33.109375 16.156250 31.750000 17.093750 27.656250
C17.750000 24.796875 17.796875 21.437500 17.796875 17.437500
C17.796875 14.171875 17.796875 10.171875 17.203125 7.218750
C16.156250 1.750000 13.203125 0.796875 11.453125 0.796875"/>
<path id="CMR17-53" d="M5.703125 29.843750
C6.203125 29.640625 8.250000 29.000000 10.343750 29.000000
C15.000000 29.000000 17.546875 31.500000 19.000000 32.953125
C19.000000 33.359375 19.000000 33.625000 18.703125 33.625000
C18.656250 33.625000 18.546875 33.625000 18.156250 33.421875
C16.406250 32.640625 14.343750 32.031250 11.843750 32.031250
C10.343750 32.031250 8.093750 32.234375 5.656250 33.375000
C5.093750 33.625000 5.000000 33.625000 4.953125 33.625000
C4.703125 33.625000 4.656250 33.578125 4.656250 32.578125
L4.656250 18.140625
C4.656250 17.250000 4.656250 17.000000 5.156250 17.000000
C5.406250 17.000000 5.500000 17.109375 5.750000 17.500000
C7.343750 20.046875 9.546875 21.109375 12.046875 21.109375
C13.796875 21.109375 17.546875 19.984375 17.546875 11.281250
C17.546875 9.640625 17.546875 6.703125 16.046875 4.359375
C14.796875 2.265625 12.843750 1.187500 10.703125 1.187500
C7.406250 1.187500 4.046875 3.515625 3.156250 7.375000
C3.343750 7.328125 3.750000 7.218750 3.953125 7.218750
C4.593750 7.218750 5.843750 7.562500 5.843750 9.109375
C5.843750 10.453125 4.906250 11.000000 3.953125 11.000000
C2.796875 11.000000 2.046875 10.296875 2.046875 8.890625
C2.046875 4.546875 5.500000 0.000000 10.796875 0.000000
C15.953125 0.000000 20.843750 4.531250 20.843750 11.078125
C20.843750 17.171875 16.953125 21.890625 12.093750 21.890625
C9.546875 21.890625 7.406250 20.875000 5.703125 18.906250z"/>
</defs>
<g style="fill: #000000; opacity: 1.000000" transform="translate(151.490712,111.183546)scale(0.160000,-0.160000)">
<use xlink:href="#CMR17-49" x="0.000000" y="0.000000" transform="scale(0.996264)"/>
<use xlink:href="#CMR17-48" x="22.930908" y="0.000000" transform="scale(0.996264)"/>
<use xlink:href="#CMR17-48" x="45.861816" y="0.000000" transform="scale(0.996264)"/>
<use xlink:href="#CMR17-48" x="68.792725" y="0.000000" transform="scale(0.996264)"/>
<use xlink:href="#CMR17-48" x="91.723633" y="0.000000" transform="scale(0.996264)"/>
</g><!-- style -->
</g>
</g>
<g id="xtick4">
<g id="line2d12">
<path style="fill: none; stroke: #000000; stroke-width: 0.500000; stroke-linejoin: round; stroke-linecap: butt; stroke-dasharray: 1.000000,3.000000; stroke-dashoffset: 0.000000; opacity: 1.000000" clip-path="url(#p7f0184d124636edd2d883bc9eab6e771)" d="M221.854411 102.047244L221.854411 22.677165"/>
</g>
<g id="line2d13">
<g ><use style="fill: none; stroke: #000000; stroke-width: 0.500000; stroke-linejoin: round; stroke-linecap: butt;  opacity: 1.000000" xlink:href="#m30e32995789d870ad79a2e54c91cf9c6" x="221.854411" y="102.047244"/>
</g></g>
<g id="line2d14">
<g ><use style="fill: none; stroke: #000000; stroke-width: 0.500000; stroke-linejoin: round; stroke-linecap: butt;  opacity: 1.000000" xlink:href="#m9281cae24120827b11d5ea8a7ad3e96b" x="221.854411" y="22.677165"/>
</g></g>
<g id="text4">
<defs>
<path id="CMR17-49" d="M13.296875 31.906250
C13.296875 32.953125 13.250000 33.000000 12.546875 33.000000
C10.593750 30.781250 7.656250 30.093750 4.843750 30.093750
C4.703125 30.093750 4.453125 30.093750 4.406250 29.953125
C4.343750 29.859375 4.343750 29.750000 4.343750 28.718750
C5.906250 28.718750 8.500000 29.015625 10.500000 30.187500
L10.500000 3.625000C10.500000 1.843750 10.406250 1.250000 6.093750 1.250000
L4.593750 1.250000L4.593750 0.000000
C7.000000 0.000000 9.500000 0.000000 11.906250 0.000000
C14.296875 0.000000 16.796875 0.000000 19.203125 0.000000
L19.203125 1.250000L17.703125 1.250000
C13.406250 1.250000 13.296875 1.796875 13.296875 3.609375z"/>
<path id="CMR17-48" d="M21.000000 16.875000
C21.000000 19.921875 20.953125 25.140625 18.843750 29.140625
C17.000000 32.656250 14.046875 33.890625 11.453125 33.890625
C9.046875 33.890625 6.000000 32.796875 4.093750 29.187500
C2.093750 25.437500 1.906250 20.765625 1.906250 16.875000
C1.906250 14.015625 1.953125 9.656250 3.500000 5.859375
C5.656250 0.703125 9.500000 0.000000 11.453125 0.000000
C13.750000 0.000000 17.250000 0.953125 19.296875 5.703125
C20.796875 9.156250 21.000000 13.218750 21.000000 16.875000
M11.453125 0.796875C8.250000 0.796875 6.343750 3.546875 5.656250 7.359375
C5.093750 10.312500 5.093750 14.625000 5.093750 17.437500
C5.093750 21.281250 5.093750 24.500000 5.750000 27.562500
C6.703125 31.796875 9.500000 33.109375 11.453125 33.109375
C13.500000 33.109375 16.156250 31.750000 17.093750 27.656250
C17.750000 24.796875 17.796875 21.437500 17.796875 17.437500
C17.796875 14.171875 17.796875 10.171875 17.203125 7.218750
C16.156250 1.750000 13.203125 0.796875 11.453125 0.796875"/>
<path id="CMR17-53" d="M5.703125 29.843750
C6.203125 29.640625 8.250000 29.000000 10.343750 29.000000
C15.000000 29.000000 17.546875 31.500000 19.000000 32.953125
C19.000000 33.359375 19.000000 33.625000 18.703125 33.625000
C18.656250 33.625000 18.546875 33.625000 18.156250 33.421875
C16.406250 32.640625 14.343750 32.031250 11.843750 32.031250
C10.343750 32.031250 8.093750 32.234375 5.656250 33.375000
C5.093750 33.625000 5.000000 33.625000 4.953125 33.625000
C4.703125 33.625000 4.656250 33.578125 4.656250 32.578125
L4.656250 18.140625
C4.656250 17.250000 4.656250 17.000000 5.156250 17.000000
C5.406250 17.000000 5.500000 17.109375 5.750000 17.500000
C7.343750 20.046875 9.546875 21.109375 12.046875 21.109375
C13.796875 21.109375 17.546875 19.984375 17.546875 11.281250
C17.546875 9.640625 17.546875 6.703125 16.046875 4.359375
C14.796875 2.265625 12.843750 1.187500 10.703125 1.187500
C7.406250 1.187500 4.046875 3.515625 3.156250 7.375000
C3.343750 7.328125 3.750000 7.218750 3.953125 7.218750
C4.593750 7.218750 5.843750 7.562500 5.843750 9.109375
C5.843750 10.453125 4.906250 11.000000 3.953125 11.000000
C2.796875 11.000000 2.046875 10.296875 2.046875 8.890625
C2.046875 4.546875 5.500000 0.000000 10.796875 0.000000
C15.953125 0.000000 20.843750 4.531250 20.843750 11.078125
C20.843750 17.171875 16.953125 21.890625 12.093750 21.890625
C9.546875 21.890625 7.406250 20.875000 5.703125 18.906250z"/>
</defs>
<g style="fill: #000000; opacity: 1.000000" transform="translate(211.268954,111.183546)scale(0.160000,-0.160000)">
<use xlink:href="#CMR17-49" x="0.000000" y="0.000000" transform="scale(0.996264)"/>
<use xlink:href="#CMR17-53" x="22.930908" y="0.000000" transform="scale(0.996264)"/>
<use xlink:href="#CMR17-48" x="45.861816" y="0.000000" transform="scale(0.996264)"/>
<use xlink:href="#CMR17-48" x="68.792725" y="0.000000" transform="scale(0.996264)"/>
<use xlink:href="#CMR17-48" x="91.723633" y="0.000000" transform="scale(0.996264)"/>
</g><!-- style -->
</g>
</g>
<g id="xtick5">
<g id="line2d15">
<path style="fill: none; stroke: #000000; stroke-width: 0.500000; stroke-linejoin: round; stroke-linecap: butt; stroke-dasharray: 1.000000,3.000000; stroke-dashoffset: 0.000000; opacity: 1.000000" clip-path="url(#p7f0184d124636edd2d883bc9eab6e771)" d="M281.632653 102.047244L281.632653 22.677165"/>
</g>
<g id="line2d16">
<g ><use style="fill: none; stroke: #000000; stroke-width: 0.500000; stroke-linejoin: round; stroke-linecap: butt;  opacity: 1.000000" xlink:href="#m30e32995789d870ad79a2e54c91cf9c6" x="281.632653" y="102.047244"/>
</g></g>
<g id="line2d17">
<g ><use style="fill: none; stroke: #000000; stroke-width: 0.500000; stroke-linejoin: round; stroke-linecap: butt;  opacity: 1.000000" xlink:href="#m9281cae24120827b11d5ea8a7ad3e96b" x="281.632653" y="22.677165"/>
</g></g>
<g id="text5">
<defs>
<path id="CMR17-50" d="M20.843750 7.609375L19.953125 7.609375
C19.453125 4.156250 19.046875 3.562500 18.843750 3.265625
C18.593750 2.890625 15.000000 2.890625 14.296875 2.890625L4.703125 2.890625
C6.500000 4.843750 10.000000 8.390625 14.250000 12.500000
C17.296875 15.390625 20.843750 18.796875 20.843750 23.750000
C20.843750 29.656250 16.156250 33.046875 10.906250 33.046875
C5.406250 33.046875 2.046875 27.984375 2.046875 23.296875
C2.046875 21.265625 3.500000 21.000000 4.093750 21.000000
C4.593750 21.000000 6.093750 21.296875 6.093750 23.046875
C6.093750 24.593750 4.796875 25.031250 4.093750 25.031250
C3.796875 25.031250 3.500000 24.984375 3.296875 24.875000
C4.250000 29.500000 7.156250 31.765625 10.203125 31.765625
C14.546875 31.765625 17.406250 28.328125 17.406250 23.765625
C17.406250 19.406250 14.843750 15.656250 12.000000 12.406250
L2.046875 1.140625L2.046875 0.000000L19.656250 0.000000z"/>
<path id="CMR17-49" d="M13.296875 31.906250
C13.296875 32.953125 13.250000 33.000000 12.546875 33.000000
C10.593750 30.781250 7.656250 30.093750 4.843750 30.093750
C4.703125 30.093750 4.453125 30.093750 4.406250 29.953125
C4.343750 29.859375 4.343750 29.750000 4.343750 28.718750
C5.906250 28.718750 8.500000 29.015625 10.500000 30.187500
L10.500000 3.625000C10.500000 1.843750 10.406250 1.250000 6.093750 1.250000
L4.593750 1.250000L4.593750 0.000000
C7.000000 0.000000 9.500000 0.000000 11.906250 0.000000
C14.296875 0.000000 16.796875 0.000000 19.203125 0.000000
L19.203125 1.250000L17.703125 1.250000
C13.406250 1.250000 13.296875 1.796875 13.296875 3.609375z"/>
<path id="CMR17-48" d="M21.000000 16.875000
C21.000000 19.921875 20.953125 25.140625 18.843750 29.140625
C17.000000 32.656250 14.046875 33.890625 11.453125 33.890625
C9.046875 33.890625 6.000000 32.796875 4.093750 29.187500
C2.093750 25.437500 1.906250 20.765625 1.906250 16.875000
C1.906250 14.015625 1.953125 9.656250 3.500000 5.859375
C5.656250 0.703125 9.500000 0.000000 11.453125 0.000000
C13.750000 0.000000 17.250000 0.953125 19.296875 5.703125
C20.796875 9.156250 21.000000 13.218750 21.000000 16.875000
M11.453125 0.796875C8.250000 0.796875 6.343750 3.546875 5.656250 7.359375
C5.093750 10.312500 5.093750 14.625000 5.093750 17.437500
C5.093750 21.281250 5.093750 24.500000 5.750000 27.562500
C6.703125 31.796875 9.500000 33.109375 11.453125 33.109375
C13.500000 33.109375 16.156250 31.750000 17.093750 27.656250
C17.750000 24.796875 17.796875 21.437500 17.796875 17.437500
C17.796875 14.171875 17.796875 10.171875 17.203125 7.218750
C16.156250 1.750000 13.203125 0.796875 11.453125 0.796875"/>
<path id="CMR17-53" d="M5.703125 29.843750
C6.203125 29.640625 8.250000 29.000000 10.343750 29.000000
C15.000000 29.000000 17.546875 31.500000 19.000000 32.953125
C19.000000 33.359375 19.000000 33.625000 18.703125 33.625000
C18.656250 33.625000 18.546875 33.625000 18.156250 33.421875
C16.406250 32.640625 14.343750 32.031250 11.843750 32.031250
C10.343750 32.031250 8.093750 32.234375 5.656250 33.375000
C5.093750 33.625000 5.000000 33.625000 4.953125 33.625000
C4.703125 33.625000 4.656250 33.578125 4.656250 32.578125
L4.656250 18.140625
C4.656250 17.250000 4.656250 17.000000 5.156250 17.000000
C5.406250 17.000000 5.500000 17.109375 5.750000 17.500000
C7.343750 20.046875 9.546875 21.109375 12.046875 21.109375
C13.796875 21.109375 17.546875 19.984375 17.546875 11.281250
C17.546875 9.640625 17.546875 6.703125 16.046875 4.359375
C14.796875 2.265625 12.843750 1.187500 10.703125 1.187500
C7.406250 1.187500 4.046875 3.515625 3.156250 7.375000
C3.343750 7.328125 3.750000 7.218750 3.953125 7.218750
C4.593750 7.218750 5.843750 7.562500 5.843750 9.109375
C5.843750 10.453125 4.906250 11.000000 3.953125 11.000000
C2.796875 11.000000 2.046875 10.296875 2.046875 8.890625
C2.046875 4.546875 5.500000 0.000000 10.796875 0.000000
C15.953125 0.000000 20.843750 4.531250 20.843750 11.078125
C20.843750 17.171875 16.953125 21.890625 12.093750 21.890625
C9.546875 21.890625 7.406250 20.875000 5.703125 18.906250z"/>
</defs>
<g style="fill: #000000; opacity: 1.000000" transform="translate(271.047196,111.183546)scale(0.160000,-0.160000)">
<use xlink:href="#CMR17-50" x="0.000000" y="0.000000" transform="scale(0.996264)"/>
<use xlink:href="#CMR17-48" x="22.930908" y="0.000000" transform="scale(0.996264)"/>
<use xlink:href="#CMR17-48" x="45.861816" y="0.000000" transform="scale(0.996264)"/>
<use xlink:href="#CMR17-48" x="68.792725" y="0.000000" transform="scale(0.996264)"/>
<use xlink:href="#CMR17-48" x="91.723633" y="0.000000" transform="scale(0.996264)"/>
</g><!-- style -->
</g>
</g>
</g>
<g id="matplotlib.axis2">
<g id="ytick1">
<g id="line2d18">
<path style="fill: none; stroke: #000000; stroke-width: 0.500000; stroke-linejoin: round; stroke-linecap: butt; stroke-dasharray: 1.000000,3.000000; stroke-dashoffset: 0.000000; opacity: 1.000000" clip-path="url(#p7f0184d124636edd2d883bc9eab6e771)" d="M42.519685 90.708661L306.141732 90.708661"/>
</g>
<g id="line2d19">
<defs><path id="m3400efa6b1638b3fea9e19e898273957" d="M0.000000 0.000000L4.000000 0.000000"/></defs>
<g ><use style="fill: none; stroke: #000000; stroke-width: 0.500000; stroke-linejoin: round; stroke-linecap: butt;  opacity: 1.000000" xlink:href="#m3400efa6b1638b3fea9e19e898273957" x="42.519685" y="90.708661"/>
</g></g>
<g id="line2d20">
<defs><path id="m20b58b2501143cb5e0a5e8f1ef6f1643" d="M0.000000 0.000000L-4.000000 0.000000"/></defs>
<g ><use style="fill: none; stroke: #000000; stroke-width: 0.500000; stroke-linejoin: round; stroke-linecap: butt;  opacity: 1.000000" xlink:href="#m20b58b2501143cb5e0a5e8f1ef6f1643" x="306.141732" y="90.708661"/>
</g></g>
<g id="text6">
<defs>
<path id="CMR17-50" d="M20.843750 7.609375L19.953125 7.609375
C19.453125 4.156250 19.046875 3.562500 18.843750 3.265625
C18.593750 2.890625 15.000000 2.890625 14.296875 2.890625L4.703125 2.890625
C6.500000 4.843750 10.000000 8.390625 14.250000 12.500000
C17.296875 15.390625 20.843750 18.796875 20.843750 23.750000
C20.843750 29.656250 16.156250 33.046875 10.906250 33.046875
C5.406250 33.046875 2.046875 27.984375 2.046875 23.296875
C2.046875 21.265625 3.500000 21.000000 4.093750 21.000000
C4.593750 21.000000 6.093750 21.296875 6.093750 23.046875
C6.093750 24.593750 4.796875 25.031250 4.093750 25.031250
C3.796875 25.031250 3.500000 24.984375 3.296875 24.875000
C4.250000 29.500000 7.156250 31.765625 10.203125 31.765625
C14.546875 31.765625 17.406250 28.328125 17.406250 23.765625
C17.406250 19.406250 14.843750 15.656250 12.000000 12.406250
L2.046875 1.140625L2.046875 0.000000L19.656250 0.000000z"/>
<path id="CMR17-49" d="M13.296875 31.906250
C13.296875 32.953125 13.250000 33.000000 12.546875 33.000000
C10.593750 30.781250 7.656250 30.093750 4.843750 30.093750
C4.703125 30.093750 4.453125 30.093750 4.406250 29.953125
C4.343750 29.859375 4.343750 29.750000 4.343750 28.718750
C5.906250 28.718750 8.500000 29.015625 10.500000 30.187500
L10.500000 3.625000C10.500000 1.843750 10.406250 1.250000 6.093750 1.250000
L4.593750 1.250000L4.593750 0.000000
C7.000000 0.000000 9.500000 0.000000 11.906250 0.000000
C14.296875 0.000000 16.796875 0.000000 19.203125 0.000000
L19.203125 1.250000L17.703125 1.250000
C13.406250 1.250000 13.296875 1.796875 13.296875 3.609375z"/>
<path id="CMR17-48" d="M21.000000 16.875000
C21.000000 19.921875 20.953125 25.140625 18.843750 29.140625
C17.000000 32.656250 14.046875 33.890625 11.453125 33.890625
C9.046875 33.890625 6.000000 32.796875 4.093750 29.187500
C2.093750 25.437500 1.906250 20.765625 1.906250 16.875000
C1.906250 14.015625 1.953125 9.656250 3.500000 5.859375
C5.656250 0.703125 9.500000 0.000000 11.453125 0.000000
C13.750000 0.000000 17.250000 0.953125 19.296875 5.703125
C20.796875 9.156250 21.000000 13.218750 21.000000 16.875000
M11.453125 0.796875C8.250000 0.796875 6.343750 3.546875 5.656250 7.359375
C5.093750 10.312500 5.093750 14.625000 5.093750 17.437500
C5.093750 21.281250 5.093750 24.500000 5.750000 27.562500
C6.703125 31.796875 9.500000 33.109375 11.453125 33.109375
C13.500000 33.109375 16.156250 31.750000 17.093750 27.656250
C17.750000 24.796875 17.796875 21.437500 17.796875 17.437500
C17.796875 14.171875 17.796875 10.171875 17.203125 7.218750
C16.156250 1.750000 13.203125 0.796875 11.453125 0.796875"/>
<path id="CMR17-53" d="M5.703125 29.843750
C6.203125 29.640625 8.250000 29.000000 10.343750 29.000000
C15.000000 29.000000 17.546875 31.500000 19.000000 32.953125
C19.000000 33.359375 19.000000 33.625000 18.703125 33.625000
C18.656250 33.625000 18.546875 33.625000 18.156250 33.421875
C16.406250 32.640625 14.343750 32.031250 11.843750 32.031250
C10.343750 32.031250 8.093750 32.234375 5.656250 33.375000
C5.093750 33.625000 5.000000 33.625000 4.953125 33.625000
C4.703125 33.625000 4.656250 33.578125 4.656250 32.578125
L4.656250 18.140625
C4.656250 17.250000 4.656250 17.000000 5.156250 17.000000
C5.406250 17.000000 5.500000 17.109375 5.750000 17.500000
C7.343750 20.046875 9.546875 21.109375 12.046875 21.109375
C13.796875 21.109375 17.546875 19.984375 17.546875 11.281250
C17.546875 9.640625 17.546875 6.703125 16.046875 4.359375
C14.796875 2.265625 12.843750 1.187500 10.703125 1.187500
C7.406250 1.187500 4.046875 3.515625 3.156250 7.375000
C3.343750 7.328125 3.750000 7.218750 3.953125 7.218750
C4.593750 7.218750 5.843750 7.562500 5.843750 9.109375
C5.843750 10.453125 4.906250 11.000000 3.953125 11.000000
C2.796875 11.000000 2.046875 10.296875 2.046875 8.890625
C2.046875 4.546875 5.500000 0.000000 10.796875 0.000000
C15.953125 0.000000 20.843750 4.531250 20.843750 11.078125
C20.843750 17.171875 16.953125 21.890625 12.093750 21.890625
C9.546875 21.890625 7.406250 20.875000 5.703125 18.906250z"/>
<path id="CMMI12-58" d="M9.203125 2.390625C9.203125 3.843750 8.000000 4.843750 6.796875 4.843750
C5.343750 4.843750 4.343750 3.640625 4.343750 2.437500
C4.343750 1.000000 5.546875 0.000000 6.750000 0.000000
C8.203125 0.000000 9.203125 1.203125 9.203125 2.390625"/>
</defs>
<g style="fill: #000000; opacity: 1.000000" transform="translate(27.698996,93.276813)scale(0.160000,-0.160000)">
<use xlink:href="#CMR17-48" x="0.000000" y="0.000000" transform="scale(0.996264)"/>
<use xlink:href="#CMMI12-58" x="22.930908" y="0.000000" transform="scale(0.996264)"/>
<use xlink:href="#CMR17-48" x="36.530304" y="0.000000" transform="scale(0.996264)"/>
</g><!-- style -->
</g>
</g>
<g id="ytick2">
<g id="line2d21">
<path style="fill: none; stroke: #000000; stroke-width: 0.500000; stroke-linejoin: round; stroke-linecap: butt; stroke-dasharray: 1.000000,3.000000; stroke-dashoffset: 0.000000; opacity: 1.000000" clip-path="url(#p7f0184d124636edd2d883bc9eab6e771)" d="M42.519685 62.362205L306.141732 62.362205"/>
</g>
<g id="line2d22">
<g ><use style="fill: none; stroke: #000000; stroke-width: 0.500000; stroke-linejoin: round; stroke-linecap: butt;  opacity: 1.000000" xlink:href="#m3400efa6b1638b3fea9e19e898273957" x="42.519685" y="62.362205"/>
</g></g>
<g id="line2d23">
<g ><use style="fill: none; stroke: #000000; stroke-width: 0.500000; stroke-linejoin: round; stroke-linecap: butt;  opacity: 1.000000" xlink:href="#m20b58b2501143cb5e0a5e8f1ef6f1643" x="306.141732" y="62.362205"/>
</g></g>
<g id="text7">
<defs>
<path id="CMR17-50" d="M20.843750 7.609375L19.953125 7.609375
C19.453125 4.156250 19.046875 3.562500 18.843750 3.265625
C18.593750 2.890625 15.000000 2.890625 14.296875 2.890625L4.703125 2.890625
C6.500000 4.843750 10.000000 8.390625 14.250000 12.500000
C17.296875 15.390625 20.843750 18.796875 20.843750 23.750000
C20.843750 29.656250 16.156250 33.046875 10.906250 33.046875
C5.406250 33.046875 2.046875 27.984375 2.046875 23.296875
C2.046875 21.265625 3.500000 21.000000 4.093750 21.000000
C4.593750 21.000000 6.093750 21.296875 6.093750 23.046875
C6.093750 24.593750 4.796875 25.031250 4.093750 25.031250
C3.796875 25.031250 3.500000 24.984375 3.296875 24.875000
C4.250000 29.500000 7.156250 31.765625 10.203125 31.765625
C14.546875 31.765625 17.406250 28.328125 17.406250 23.765625
C17.406250 19.406250 14.843750 15.656250 12.000000 12.406250
L2.046875 1.140625L2.046875 0.000000L19.656250 0.000000z"/>
<path id="CMR17-49" d="M13.296875 31.906250
C13.296875 32.953125 13.250000 33.000000 12.546875 33.000000
C10.593750 30.781250 7.656250 30.093750 4.843750 30.093750
C4.703125 30.093750 4.453125 30.093750 4.406250 29.953125
C4.343750 29.859375 4.343750 29.750000 4.343750 28.718750
C5.906250 28.718750 8.500000 29.015625 10.500000 30.187500
L10.500000 3.625000C10.500000 1.843750 10.406250 1.250000 6.093750 1.250000
L4.593750 1.250000L4.593750 0.000000
C7.000000 0.000000 9.500000 0.000000 11.906250 0.000000
C14.296875 0.000000 16.796875 0.000000 19.203125 0.000000
L19.203125 1.250000L17.703125 1.250000
C13.406250 1.250000 13.296875 1.796875 13.296875 3.609375z"/>
<path id="CMR17-48" d="M21.000000 16.875000
C21.000000 19.921875 20.953125 25.140625 18.843750 29.140625
C17.000000 32.656250 14.046875 33.890625 11.453125 33.890625
C9.046875 33.890625 6.000000 32.796875 4.093750 29.187500
C2.093750 25.437500 1.906250 20.765625 1.906250 16.875000
C1.906250 14.015625 1.953125 9.656250 3.500000 5.859375
C5.656250 0.703125 9.500000 0.000000 11.453125 0.000000
C13.750000 0.000000 17.250000 0.953125 19.296875 5.703125
C20.796875 9.156250 21.000000 13.218750 21.000000 16.875000
M11.453125 0.796875C8.250000 0.796875 6.343750 3.546875 5.656250 7.359375
C5.093750 10.312500 5.093750 14.625000 5.093750 17.437500
C5.093750 21.281250 5.093750 24.500000 5.750000 27.562500
C6.703125 31.796875 9.500000 33.109375 11.453125 33.109375
C13.500000 33.109375 16.156250 31.750000 17.093750 27.656250
C17.750000 24.796875 17.796875 21.437500 17.796875 17.437500
C17.796875 14.171875 17.796875 10.171875 17.203125 7.218750
C16.156250 1.750000 13.203125 0.796875 11.453125 0.796875"/>
<path id="CMR17-53" d="M5.703125 29.843750
C6.203125 29.640625 8.250000 29.000000 10.343750 29.000000
C15.000000 29.000000 17.546875 31.500000 19.000000 32.953125
C19.000000 33.359375 19.000000 33.625000 18.703125 33.625000
C18.656250 33.625000 18.546875 33.625000 18.156250 33.421875
C16.406250 32.640625 14.343750 32.031250 11.843750 32.031250
C10.343750 32.031250 8.093750 32.234375 5.656250 33.375000
C5.093750 33.625000 5.000000 33.625000 4.953125 33.625000
C4.703125 33.625000 4.656250 33.578125 4.656250 32.578125
L4.656250 18.140625
C4.656250 17.250000 4.656250 17.000000 5.156250 17.000000
C5.406250 17.000000 5.500000 17.109375 5.750000 17.500000
C7.343750 20.046875 9.546875 21.109375 12.046875 21.109375
C13.796875 21.109375 17.546875 19.984375 17.546875 11.281250
C17.546875 9.640625 17.546875 6.703125 16.046875 4.359375
C14.796875 2.265625 12.843750 1.187500 10.703125 1.187500
C7.406250 1.187500 4.046875 3.515625 3.156250 7.375000
C3.343750 7.328125 3.750000 7.218750 3.953125 7.218750
C4.593750 7.218750 5.843750 7.562500 5.843750 9.109375
C5.843750 10.453125 4.906250 11.000000 3.953125 11.000000
C2.796875 11.000000 2.046875 10.296875 2.046875 8.890625
C2.046875 4.546875 5.500000 0.000000 10.796875 0.000000
C15.953125 0.000000 20.843750 4.531250 20.843750 11.078125
C20.843750 17.171875 16.953125 21.890625 12.093750 21.890625
C9.546875 21.890625 7.406250 20.875000 5.703125 18.906250z"/>
<path id="CMMI12-58" d="M9.203125 2.390625C9.203125 3.843750 8.000000 4.843750 6.796875 4.843750
C5.343750 4.843750 4.343750 3.640625 4.343750 2.437500
C4.343750 1.000000 5.546875 0.000000 6.750000 0.000000
C8.203125 0.000000 9.203125 1.203125 9.203125 2.390625"/>
</defs>
<g style="fill: #000000; opacity: 1.000000" transform="translate(27.698996,64.930356)scale(0.160000,-0.160000)">
<use xlink:href="#CMR17-48" x="0.000000" y="0.000000" transform="scale(0.996264)"/>
<use xlink:href="#CMMI12-58" x="22.930908" y="0.000000" transform="scale(0.996264)"/>
<use xlink:href="#CMR17-53" x="36.530304" y="0.000000" transform="scale(0.996264)"/>
</g><!-- style -->
</g>
</g>
<g id="ytick3">
<g id="line2d24">
<path style="fill: none; stroke: #000000; stroke-width: 0.500000; stroke-linejoin: round; stroke-linecap: butt; stroke-dasharray: 1.000000,3.000000; stroke-dashoffset: 0.000000; opacity: 1.000000" clip-path="url(#p7f0184d124636edd2d883bc9eab6e771)" d="M42.519685 34.015748L306.141732 34.015748"/>
</g>
<g id="line2d25">
<g ><use style="fill: none; stroke: #000000; stroke-width: 0.500000; stroke-linejoin: round; stroke-linecap: butt;  opacity: 1.000000" xlink:href="#m3400efa6b1638b3fea9e19e898273957" x="42.519685" y="34.015748"/>
</g></g>
<g id="line2d26">
<g ><use style="fill: none; stroke: #000000; stroke-width: 0.500000; stroke-linejoin: round; stroke-linecap: butt;  opacity: 1.000000" xlink:href="#m20b58b2501143cb5e0a5e8f1ef6f1643" x="306.141732" y="34.015748"/>
</g></g>
<g id="text8">
<defs>
<path id="CMR17-50" d="M20.843750 7.609375L19.953125 7.609375
C19.453125 4.156250 19.046875 3.562500 18.843750 3.265625
C18.593750 2.890625 15.000000 2.890625 14.296875 2.890625L4.703125 2.890625
C6.500000 4.843750 10.000000 8.390625 14.250000 12.500000
C17.296875 15.390625 20.843750 18.796875 20.843750 23.750000
C20.843750 29.656250 16.156250 33.046875 10.906250 33.046875
C5.406250 33.046875 2.046875 27.984375 2.046875 23.296875
C2.046875 21.265625 3.500000 21.000000 4.093750 21.000000
C4.593750 21.000000 6.093750 21.296875 6.093750 23.046875
C6.093750 24.593750 4.796875 25.031250 4.093750 25.031250
C3.796875 25.031250 3.500000 24.984375 3.296875 24.875000
C4.250000 29.500000 7.156250 31.765625 10.203125 31.765625
C14.546875 31.765625 17.406250 28.328125 17.406250 23.765625
C17.406250 19.406250 14.843750 15.656250 12.000000 12.406250
L2.046875 1.140625L2.046875 0.000000L19.656250 0.000000z"/>
<path id="CMR17-49" d="M13.296875 31.906250
C13.296875 32.953125 13.250000 33.000000 12.546875 33.000000
C10.593750 30.781250 7.656250 30.093750 4.843750 30.093750
C4.703125 30.093750 4.453125 30.093750 4.406250 29.953125
C4.343750 29.859375 4.343750 29.750000 4.343750 28.718750
C5.906250 28.718750 8.500000 29.015625 10.500000 30.187500
L10.500000 3.625000C10.500000 1.843750 10.406250 1.250000 6.093750 1.250000
L4.593750 1.250000L4.593750 0.000000
C7.000000 0.000000 9.500000 0.000000 11.906250 0.000000
C14.296875 0.000000 16.796875 0.000000 19.203125 0.000000
L19.203125 1.250000L17.703125 1.250000
C13.406250 1.250000 13.296875 1.796875 13.296875 3.609375z"/>
<path id="CMR17-48" d="M21.000000 16.875000
C21.000000 19.921875 20.953125 25.140625 18.843750 29.140625
C17.000000 32.656250 14.046875 33.890625 11.453125 33.890625
C9.046875 33.890625 6.000000 32.796875 4.093750 29.187500
C2.093750 25.437500 1.906250 20.765625 1.906250 16.875000
C1.906250 14.015625 1.953125 9.656250 3.500000 5.859375
C5.656250 0.703125 9.500000 0.000000 11.453125 0.000000
C13.750000 0.000000 17.250000 0.953125 19.296875 5.703125
C20.796875 9.156250 21.000000 13.218750 21.000000 16.875000
M11.453125 0.796875C8.250000 0.796875 6.343750 3.546875 5.656250 7.359375
C5.093750 10.312500 5.093750 14.625000 5.093750 17.437500
C5.093750 21.281250 5.093750 24.500000 5.750000 27.562500
C6.703125 31.796875 9.500000 33.109375 11.453125 33.109375
C13.500000 33.109375 16.156250 31.750000 17.093750 27.656250
C17.750000 24.796875 17.796875 21.437500 17.796875 17.437500
C17.796875 14.171875 17.796875 10.171875 17.203125 7.218750
C16.156250 1.750000 13.203125 0.796875 11.453125 0.796875"/>
<path id="CMR17-53" d="M5.703125 29.843750
C6.203125 29.640625 8.250000 29.000000 10.343750 29.000000
C15.000000 29.000000 17.546875 31.500000 19.000000 32.953125
C19.000000 33.359375 19.000000 33.625000 18.703125 33.625000
C18.656250 33.625000 18.546875 33.625000 18.156250 33.421875
C16.406250 32.640625 14.343750 32.031250 11.843750 32.031250
C10.343750 32.031250 8.093750 32.234375 5.656250 33.375000
C5.093750 33.625000 5.000000 33.625000 4.953125 33.625000
C4.703125 33.625000 4.656250 33.578125 4.656250 32.578125
L4.656250 18.140625
C4.656250 17.250000 4.656250 17.000000 5.156250 17.000000
C5.406250 17.000000 5.500000 17.109375 5.750000 17.500000
C7.343750 20.046875 9.546875 21.109375 12.046875 21.109375
C13.796875 21.109375 17.546875 19.984375 17.546875 11.281250
C17.546875 9.640625 17.546875 6.703125 16.046875 4.359375
C14.796875 2.265625 12.843750 1.187500 10.703125 1.187500
C7.406250 1.187500 4.046875 3.515625 3.156250 7.375000
C3.343750 7.328125 3.750000 7.218750 3.953125 7.218750
C4.593750 7.218750 5.843750 7.562500 5.843750 9.109375
C5.843750 10.453125 4.906250 11.000000 3.953125 11.000000
C2.796875 11.000000 2.046875 10.296875 2.046875 8.890625
C2.046875 4.546875 5.500000 0.000000 10.796875 0.000000
C15.953125 0.000000 20.843750 4.531250 20.843750 11.078125
C20.843750 17.171875 16.953125 21.890625 12.093750 21.890625
C9.546875 21.890625 7.406250 20.875000 5.703125 18.906250z"/>
<path id="CMMI12-58" d="M9.203125 2.390625C9.203125 3.843750 8.000000 4.843750 6.796875 4.843750
C5.343750 4.843750 4.343750 3.640625 4.343750 2.437500
C4.343750 1.000000 5.546875 0.000000 6.750000 0.000000
C8.203125 0.000000 9.203125 1.203125 9.203125 2.390625"/>
</defs>
<g style="fill: #000000; opacity: 1.000000" transform="translate(27.698996,36.583899)scale(0.160000,-0.160000)">
<use xlink:href="#CMR17-49" x="0.000000" y="0.000000" transform="scale(0.996264)"/>
<use xlink:href="#CMMI12-58" x="22.930908" y="0.000000" transform="scale(0.996264)"/>
<use xlink:href="#CMR17-48" x="36.530304" y="0.000000" transform="scale(0.996264)"/>
</g><!-- style -->
</g>
</g>
</g>
<g id="patch3">
<path style="fill: none; stroke: #000000; stroke-width: 1.000000; stroke-linejoin: round; stroke-linecap: square;  opacity: 1.000000"  d="M42.519685 22.677165L306.141732 22.677165"/>
</g>
<g id="patch4">
<path style="fill: none; stroke: #000000; stroke-width: 1.000000; stroke-linejoin: round; stroke-linecap: square;  opacity: 1.000000"  d="M306.141732 102.047244L306.141732 22.677165"/>
</g>
<g id="patch5">
<path style="fill: none; stroke: #000000; stroke-width: 1.000000; stroke-linejoin: round; stroke-linecap: square;  opacity: 1.000000"  d="M42.519685 102.047244L306.141732 102.047244"/>
</g>
<g id="patch6">
<path style="fill: none; stroke: #000000; stroke-width: 1.000000; stroke-linejoin: round; stroke-linecap: square;  opacity: 1.000000"  d="M42.519685 102.047244L42.519685 22.677165"/>
</g>
<g id="text9">
<defs>
<path id="Century_Schoolbook_L_Roman-72" d="M29.203125 17.296875L29.203125 6.140625L29.203125 4.687500
C29.203125 2.593750 28.750000 2.343750 24.703125 2.343750
L23.796875 2.343750L23.796875 0.000000L40.203125 0.000000
L40.203125 2.343750L39.296875 2.343750
C35.250000 2.343750 34.796875 2.593750 34.796875 4.687500
L34.796875 6.140625L34.796875 29.859375L34.796875 31.312500
C34.796875 33.406250 35.250000 33.656250 39.296875 33.656250
L40.203125 33.656250L40.203125 36.000000L24.000000 36.000000
L24.000000 33.656250L24.703125 33.656250
C28.750000 33.656250 29.203125 33.406250 29.203125 31.312500
L29.203125 29.859375L29.203125 20.000000L12.453125 20.000000
L12.453125 29.859375L12.453125 31.312500
C12.453125 33.406250 12.906250 33.656250 16.953125 33.656250
L17.906250 33.656250L17.906250 36.000000L1.453125 36.000000
L1.453125 33.656250L2.343750 33.656250
C6.406250 33.656250 6.843750 33.406250 6.843750 31.312500
L6.843750 29.859375L6.843750 6.140625L6.843750 4.687500
C6.843750 2.593750 6.406250 2.343750 2.343750 2.343750L1.453125 2.343750
L1.453125 0.000000L17.906250 0.000000L17.906250 2.343750L16.953125 2.343750
C12.906250 2.343750 12.453125 2.593750 12.453125 4.687500
L12.453125 6.140625L12.453125 17.296875z"/>
<path id="CMMI12-102" d="M22.296875 19.687500
C23.296875 19.687500 23.703125 19.687500 23.703125 20.625000
C23.703125 21.125000 23.296875 21.125000 22.406250 21.125000
L18.343750 21.125000
C19.296875 26.375000 20.000000 29.984375 20.406250 31.609375
C20.703125 32.843750 21.750000 34.000000 23.046875 34.000000
C24.093750 34.000000 25.156250 33.531250 25.656250 33.093750
C23.703125 32.890625 23.093750 31.406250 23.093750 30.546875
C23.093750 29.531250 23.843750 28.921875 24.796875 28.921875
C25.796875 28.921875 27.296875 29.781250 27.296875 31.703125
C27.296875 33.843750 25.203125 35.000000 23.000000 35.000000
C20.843750 35.000000 18.750000 33.375000 17.750000 31.390625
C16.843750 29.625000 16.343750 27.796875 15.203125 21.125000
L11.843750 21.125000
C10.906250 21.125000 10.406250 21.125000 10.406250 20.234375
C10.406250 19.687500 10.703125 19.687500 11.703125 19.687500
L14.906250 19.687500
C14.000000 15.046875 11.953125 3.796875 10.796875 -1.546875
C9.953125 -5.859375 9.203125 -9.515625 6.703125 -9.515625
C6.546875 -9.515625 5.093750 -9.515625 4.203125 -8.562500
C6.750000 -8.359375 6.750000 -6.187500 6.750000 -6.125000
C6.750000 -5.140625 6.000000 -4.531250 5.046875 -4.531250
C4.046875 -4.531250 2.546875 -5.390625 2.546875 -7.281250
C2.546875 -9.406250 4.750000 -10.500000 6.703125 -10.500000
C11.796875 -10.500000 13.906250 -1.390625 14.453125 1.109375
C15.343750 4.921875 17.796875 18.187500 18.046875 19.687500z"/>
<path id="Century_Schoolbook_L_Roman-40" d="M13.953125 36.734375
C10.953125 34.875000 9.343750 33.578125 7.656250 31.593750
C3.843750 27.093750 1.796875 21.359375 1.796875 15.312500
C1.796875 9.625000 3.593750 4.296875 6.953125 -0.156250
C8.843750 -2.546875 10.546875 -4.046875 13.953125 -6.140625
L13.953125 -4.296875C8.953125 0.093750 6.953125 5.734375 6.953125 15.312500
C6.953125 24.906250 8.953125 30.484375 13.953125 34.875000z"/>
<path id="CMR17-50" d="M20.843750 7.609375L19.953125 7.609375
C19.453125 4.156250 19.046875 3.562500 18.843750 3.265625
C18.593750 2.890625 15.000000 2.890625 14.296875 2.890625L4.703125 2.890625
C6.500000 4.843750 10.000000 8.390625 14.250000 12.500000
C17.296875 15.390625 20.843750 18.796875 20.843750 23.750000
C20.843750 29.656250 16.156250 33.046875 10.906250 33.046875
C5.406250 33.046875 2.046875 27.984375 2.046875 23.296875
C2.046875 21.265625 3.500000 21.000000 4.093750 21.000000
C4.593750 21.000000 6.093750 21.296875 6.093750 23.046875
C6.093750 24.593750 4.796875 25.031250 4.093750 25.031250
C3.796875 25.031250 3.500000 24.984375 3.296875 24.875000
C4.250000 29.500000 7.156250 31.765625 10.203125 31.765625
C14.546875 31.765625 17.406250 28.328125 17.406250 23.765625
C17.406250 19.406250 14.843750 15.656250 12.000000 12.406250
L2.046875 1.140625L2.046875 0.000000L19.656250 0.000000z"/>
<path id="CMR17-53" d="M5.703125 29.843750
C6.203125 29.640625 8.250000 29.000000 10.343750 29.000000
C15.000000 29.000000 17.546875 31.500000 19.000000 32.953125
C19.000000 33.359375 19.000000 33.625000 18.703125 33.625000
C18.656250 33.625000 18.546875 33.625000 18.156250 33.421875
C16.406250 32.640625 14.343750 32.031250 11.843750 32.031250
C10.343750 32.031250 8.093750 32.234375 5.656250 33.375000
C5.093750 33.625000 5.000000 33.625000 4.953125 33.625000
C4.703125 33.625000 4.656250 33.578125 4.656250 32.578125
L4.656250 18.140625
C4.656250 17.250000 4.656250 17.000000 5.156250 17.000000
C5.406250 17.000000 5.500000 17.109375 5.750000 17.500000
C7.343750 20.046875 9.546875 21.109375 12.046875 21.109375
C13.796875 21.109375 17.546875 19.984375 17.546875 11.281250
C17.546875 9.640625 17.546875 6.703125 16.046875 4.359375
C14.796875 2.265625 12.843750 1.187500 10.703125 1.187500
C7.406250 1.187500 4.046875 3.515625 3.156250 7.375000
C3.343750 7.328125 3.750000 7.218750 3.953125 7.218750
C4.593750 7.218750 5.843750 7.562500 5.843750 9.109375
C5.843750 10.453125 4.906250 11.000000 3.953125 11.000000
C2.796875 11.000000 2.046875 10.296875 2.046875 8.890625
C2.046875 4.546875 5.500000 0.000000 10.796875 0.000000
C15.953125 0.000000 20.843750 4.531250 20.843750 11.078125
C20.843750 17.171875 16.953125 21.890625 12.093750 21.890625
C9.546875 21.890625 7.406250 20.875000 5.703125 18.906250z"/>
<path id="Century_Schoolbook_L_Roman-122" d="M21.406250 23.000000L3.343750 23.000000L2.906250 14.656250
L4.906250 14.656250
C5.343750 19.078125 7.156250 20.859375 11.250000 20.859375
L15.593750 20.859375L1.953125 1.796875L1.953125 0.000000L21.406250 0.000000
L21.750000 8.843750L19.750000 8.843750
C19.250000 3.968750 17.343750 2.140625 12.843750 2.140625L7.750000 2.140625
L21.406250 21.203125z"/>
<path id="CMR17-49" d="M13.296875 31.906250
C13.296875 32.953125 13.250000 33.000000 12.546875 33.000000
C10.593750 30.781250 7.656250 30.093750 4.843750 30.093750
C4.703125 30.093750 4.453125 30.093750 4.406250 29.953125
C4.343750 29.859375 4.343750 29.750000 4.343750 28.718750
C5.906250 28.718750 8.500000 29.015625 10.500000 30.187500
L10.500000 3.625000C10.500000 1.843750 10.406250 1.250000 6.093750 1.250000
L4.593750 1.250000L4.593750 0.000000
C7.000000 0.000000 9.500000 0.000000 11.906250 0.000000
C14.296875 0.000000 16.796875 0.000000 19.203125 0.000000
L19.203125 1.250000L17.703125 1.250000
C13.406250 1.250000 13.296875 1.796875 13.296875 3.609375z"/>
<path id="CMR17-48" d="M21.000000 16.875000
C21.000000 19.921875 20.953125 25.140625 18.843750 29.140625
C17.000000 32.656250 14.046875 33.890625 11.453125 33.890625
C9.046875 33.890625 6.000000 32.796875 4.093750 29.187500
C2.093750 25.437500 1.906250 20.765625 1.906250 16.875000
C1.906250 14.015625 1.953125 9.656250 3.500000 5.859375
C5.656250 0.703125 9.500000 0.000000 11.453125 0.000000
C13.750000 0.000000 17.250000 0.953125 19.296875 5.703125
C20.796875 9.156250 21.000000 13.218750 21.000000 16.875000
M11.453125 0.796875C8.250000 0.796875 6.343750 3.546875 5.656250 7.359375
C5.093750 10.312500 5.093750 14.625000 5.093750 17.437500
C5.093750 21.281250 5.093750 24.500000 5.750000 27.562500
C6.703125 31.796875 9.500000 33.109375 11.453125 33.109375
C13.500000 33.109375 16.156250 31.750000 17.093750 27.656250
C17.750000 24.796875 17.796875 21.437500 17.796875 17.437500
C17.796875 14.171875 17.796875 10.171875 17.203125 7.218750
C16.156250 1.750000 13.203125 0.796875 11.453125 0.796875"/>
<path id="Century_Schoolbook_L_Roman-41" d="M2.703125 -6.140625
C5.703125 -4.296875 7.296875 -3.000000 9.000000 -0.953125
C12.796875 3.500000 14.843750 9.281250 14.843750 15.312500
C14.843750 21.015625 13.046875 26.343750 9.703125 30.734375
C7.796875 33.187500 6.093750 34.687500 2.703125 36.734375
L2.703125 34.875000
C7.703125 30.484375 9.703125 24.906250 9.703125 15.312500
C9.703125 5.687500 7.703125 0.093750 2.703125 -4.296875z"/>
<path id="CMMI12-58" d="M9.203125 2.390625C9.203125 3.843750 8.000000 4.843750 6.796875 4.843750
C5.343750 4.843750 4.343750 3.640625 4.343750 2.437500
C4.343750 1.000000 5.546875 0.000000 6.750000 0.000000
C8.203125 0.000000 9.203125 1.203125 9.203125 2.390625"/>
</defs>
<g style="fill: #000000; opacity: 1.000000" transform="translate(281.632653,100.762344)scale(0.160000,-0.160000)">
<use xlink:href="#CMMI12-102" x="0.000000" y="9.722183" transform="scale(0.996264)"/>
<use xlink:href="#Century_Schoolbook_L_Roman-40" x="43.369751" y="9.722183" transform="scale(0.996264)"/>
<use xlink:href="#Century_Schoolbook_L_Roman-72" x="60.019562" y="9.722183" transform="scale(0.996264)"/>
<use xlink:href="#Century_Schoolbook_L_Roman-122" x="101.669373" y="9.722183" transform="scale(0.996264)"/>
<use xlink:href="#Century_Schoolbook_L_Roman-41" x="125.719070" y="9.722183" transform="scale(0.996264)"/>
</g><!-- style -->
</g>
<g id="text10">
<defs>
<path id="Century_Schoolbook_L_Roman-72" d="M29.203125 17.296875L29.203125 6.140625L29.203125 4.687500
C29.203125 2.593750 28.750000 2.343750 24.703125 2.343750
L23.796875 2.343750L23.796875 0.000000L40.203125 0.000000
L40.203125 2.343750L39.296875 2.343750
C35.250000 2.343750 34.796875 2.593750 34.796875 4.687500
L34.796875 6.140625L34.796875 29.859375L34.796875 31.312500
C34.796875 33.406250 35.250000 33.656250 39.296875 33.656250
L40.203125 33.656250L40.203125 36.000000L24.000000 36.000000
L24.000000 33.656250L24.703125 33.656250
C28.750000 33.656250 29.203125 33.406250 29.203125 31.312500
L29.203125 29.859375L29.203125 20.000000L12.453125 20.000000
L12.453125 29.859375L12.453125 31.312500
C12.453125 33.406250 12.906250 33.656250 16.953125 33.656250
L17.906250 33.656250L17.906250 36.000000L1.453125 36.000000
L1.453125 33.656250L2.343750 33.656250
C6.406250 33.656250 6.843750 33.406250 6.843750 31.312500
L6.843750 29.859375L6.843750 6.140625L6.843750 4.687500
C6.843750 2.593750 6.406250 2.343750 2.343750 2.343750L1.453125 2.343750
L1.453125 0.000000L17.906250 0.000000L17.906250 2.343750L16.953125 2.343750
C12.906250 2.343750 12.453125 2.593750 12.453125 4.687500
L12.453125 6.140625L12.453125 17.296875z"/>
<path id="CMMI12-102" d="M22.296875 19.687500
C23.296875 19.687500 23.703125 19.687500 23.703125 20.625000
C23.703125 21.125000 23.296875 21.125000 22.406250 21.125000
L18.343750 21.125000
C19.296875 26.375000 20.000000 29.984375 20.406250 31.609375
C20.703125 32.843750 21.750000 34.000000 23.046875 34.000000
C24.093750 34.000000 25.156250 33.531250 25.656250 33.093750
C23.703125 32.890625 23.093750 31.406250 23.093750 30.546875
C23.093750 29.531250 23.843750 28.921875 24.796875 28.921875
C25.796875 28.921875 27.296875 29.781250 27.296875 31.703125
C27.296875 33.843750 25.203125 35.000000 23.000000 35.000000
C20.843750 35.000000 18.750000 33.375000 17.750000 31.390625
C16.843750 29.625000 16.343750 27.796875 15.203125 21.125000
L11.843750 21.125000
C10.906250 21.125000 10.406250 21.125000 10.406250 20.234375
C10.406250 19.687500 10.703125 19.687500 11.703125 19.687500
L14.906250 19.687500
C14.000000 15.046875 11.953125 3.796875 10.796875 -1.546875
C9.953125 -5.859375 9.203125 -9.515625 6.703125 -9.515625
C6.546875 -9.515625 5.093750 -9.515625 4.203125 -8.562500
C6.750000 -8.359375 6.750000 -6.187500 6.750000 -6.125000
C6.750000 -5.140625 6.000000 -4.531250 5.046875 -4.531250
C4.046875 -4.531250 2.546875 -5.390625 2.546875 -7.281250
C2.546875 -9.406250 4.750000 -10.500000 6.703125 -10.500000
C11.796875 -10.500000 13.906250 -1.390625 14.453125 1.109375
C15.343750 4.921875 17.796875 18.187500 18.046875 19.687500z"/>
<path id="Century_Schoolbook_L_Roman-40" d="M13.953125 36.734375
C10.953125 34.875000 9.343750 33.578125 7.656250 31.593750
C3.843750 27.093750 1.796875 21.359375 1.796875 15.312500
C1.796875 9.625000 3.593750 4.296875 6.953125 -0.156250
C8.843750 -2.546875 10.546875 -4.046875 13.953125 -6.140625
L13.953125 -4.296875C8.953125 0.093750 6.953125 5.734375 6.953125 15.312500
C6.953125 24.906250 8.953125 30.484375 13.953125 34.875000z"/>
<path id="CMSY10-70" d="M41.500000 31.859375
C41.500000 34.140625 37.656250 33.796875 36.093750 33.796875
L17.250000 33.796875
C14.750000 33.796875 10.296875 32.359375 9.500000 29.671875
C9.593750 29.375000 9.703125 29.328125 10.000000 29.328125
C11.093750 29.328125 12.593750 30.234375 13.296875 31.000000
C14.843750 31.000000 16.343750 31.000000 17.906250 31.000000
L21.000000 31.000000
C21.000000 31.000000 20.796875 30.156250 20.796875 30.109375
C18.843750 20.953125 15.906250 13.187500 13.703125 8.296875
C13.406250 7.640625 10.703125 1.390625 10.000000 0.796875
C7.796875 0.796875 6.156250 2.015625 5.250000 3.984375
C5.093750 4.296875 5.093750 4.484375 4.750000 4.484375
C3.593750 4.484375 0.843750 2.875000 0.843750 2.031250
C0.843750 1.921875 0.906250 1.828125 0.953125 1.718750
C1.843750 -0.640625 4.093750 -2.000000 6.546875 -2.000000
C9.093750 -2.000000 12.046875 -0.140625 13.656250 1.734375
C15.296875 3.656250 18.593750 11.968750 19.906250 15.000000
L29.546875 15.000000
C29.500000 14.953125 29.453125 14.890625 29.453125 14.843750
C29.453125 14.640625 29.750000 14.500000 29.953125 14.500000
C31.046875 14.500000 33.906250 15.890625 33.906250 17.453125
C33.906250 17.796875 33.546875 17.750000 32.953125 17.750000
L20.953125 17.750000
C22.250000 22.171875 23.953125 26.468750 24.843750 31.000000
L31.453125 31.000000
C32.703125 31.000000 36.203125 31.250000 37.093750 30.187500
C37.203125 29.906250 37.046875 29.421875 37.203125 29.187500
C37.296875 29.078125 37.453125 29.031250 37.593750 29.031250
C38.796875 29.031250 41.500000 30.515625 41.500000 31.859375"/>
<path id="CMMI12-104" d="M14.046875 33.718750
C14.093750 33.937500 14.203125 34.234375 14.203125 34.484375
C14.203125 35.000000 13.703125 35.000000 13.593750 35.000000
C13.546875 35.000000 11.093750 35.000000 10.843750 35.000000
C10.000000 35.000000 9.250000 35.000000 8.343750 35.000000
C7.093750 34.890625 6.750000 34.843750 6.750000 33.843750
C6.750000 33.296875 7.156250 33.296875 7.843750 33.296875
C10.296875 33.296875 10.343750 32.859375 10.343750 32.359375
C10.343750 32.062500 10.250000 31.640625 10.203125 31.484375
L2.953125 2.468750C2.750000 1.718750 2.750000 1.609375 2.750000 1.296875
C2.750000 0.203125 3.593750 0.000000 4.093750 0.000000
C4.953125 0.000000 5.593750 0.640625 5.843750 1.171875L8.093750 10.000000
C8.343750 11.062500 8.656250 12.093750 8.906250 13.156250
C9.453125 15.203125 9.453125 15.265625 10.406250 16.671875
C11.343750 18.078125 13.593750 21.000000 17.453125 21.000000
C19.453125 21.000000 20.156250 19.546875 20.156250 17.593750
C20.156250 14.859375 18.203125 9.546875 17.093750 6.625000
C16.656250 5.468750 16.406250 4.828125 16.406250 3.953125
C16.406250 1.750000 17.953125 0.000000 20.343750 0.000000
C25.000000 0.000000 26.750000 7.171875 26.750000 7.484375
C26.750000 7.718750 26.546875 7.906250 26.250000 7.906250
C25.796875 7.906250 25.750000 7.765625 25.500000 6.953125
C24.343750 3.046875 22.500000 1.000000 20.500000 1.000000
C20.000000 1.000000 19.203125 1.000000 19.203125 2.562500
C19.203125 3.828125 19.796875 5.406250 20.000000 5.937500
C20.906250 8.281250 23.156250 14.046875 23.156250 16.875000
C23.156250 19.812500 21.406250 22.000000 17.593750 22.000000
C14.750000 22.000000 12.250000 20.671875 10.203125 18.125000z"/>
<path id="CMSY10-106" d="M7.953125 36.203125
C7.953125 37.093750 7.953125 38.000000 6.953125 38.000000
C5.953125 38.000000 5.953125 37.093750 5.953125 36.203125
L5.953125 -10.203125
C5.953125 -11.093750 5.953125 -12.000000 6.953125 -12.000000
C7.953125 -12.000000 7.953125 -11.093750 7.953125 -10.203125z"/>
<path id="CMR17-50" d="M20.843750 7.609375L19.953125 7.609375
C19.453125 4.156250 19.046875 3.562500 18.843750 3.265625
C18.593750 2.890625 15.000000 2.890625 14.296875 2.890625L4.703125 2.890625
C6.500000 4.843750 10.000000 8.390625 14.250000 12.500000
C17.296875 15.390625 20.843750 18.796875 20.843750 23.750000
C20.843750 29.656250 16.156250 33.046875 10.906250 33.046875
C5.406250 33.046875 2.046875 27.984375 2.046875 23.296875
C2.046875 21.265625 3.500000 21.000000 4.093750 21.000000
C4.593750 21.000000 6.093750 21.296875 6.093750 23.046875
C6.093750 24.593750 4.796875 25.031250 4.093750 25.031250
C3.796875 25.031250 3.500000 24.984375 3.296875 24.875000
C4.250000 29.500000 7.156250 31.765625 10.203125 31.765625
C14.546875 31.765625 17.406250 28.328125 17.406250 23.765625
C17.406250 19.406250 14.843750 15.656250 12.000000 12.406250
L2.046875 1.140625L2.046875 0.000000L19.656250 0.000000z"/>
<path id="CMR17-51" d="M11.046875 17.828125
C15.500000 17.828125 17.453125 13.968750 17.453125 9.500000
C17.453125 3.500000 14.250000 1.187500 11.343750 1.187500
C8.703125 1.187500 4.406250 2.421875 3.046875 6.093750
C3.296875 6.000000 3.546875 6.000000 3.796875 6.000000
C5.000000 6.000000 5.906250 6.796875 5.906250 8.093750
C5.906250 9.546875 4.796875 10.187500 3.796875 10.187500
C2.953125 10.187500 1.656250 9.796875 1.656250 8.000000
C1.656250 3.500000 6.156250 0.000000 11.453125 0.000000
C17.000000 0.000000 21.250000 4.359375 21.250000 9.468750
C21.250000 14.312500 17.250000 17.828125 12.500000 18.375000
C16.296875 19.187500 19.953125 22.609375 19.953125 27.187500
C19.953125 31.109375 16.000000 33.968750 11.500000 33.968750
C6.953125 33.968750 2.953125 31.140625 2.953125 27.078125
C2.953125 25.296875 4.250000 25.000000 4.906250 25.000000
C5.953125 25.000000 6.843750 25.656250 6.843750 26.937500
C6.843750 28.234375 5.953125 28.890625 4.906250 28.890625
C4.703125 28.890625 4.453125 28.890625 4.250000 28.796875
C5.703125 32.218750 9.656250 32.843750 11.406250 32.843750
C13.156250 32.843750 16.453125 31.984375 16.453125 27.125000
C16.453125 25.718750 16.250000 23.171875 14.546875 20.953125
C13.046875 18.984375 11.343750 18.984375 9.703125 18.781250
C9.453125 18.781250 8.296875 18.781250 8.093750 18.781250
C7.750000 18.718750 7.546875 18.656250 7.546875 18.281250
C7.546875 17.890625 7.593750 17.828125 8.593750 17.828125z"/>
<path id="CMR17-41" d="M13.156250 12.843750
C13.156250 16.437500 12.796875 22.515625 9.796875 28.937500
C7.406250 34.109375 3.296875 37.750000 2.703125 37.750000
C2.546875 37.750000 2.343750 37.687500 2.343750 37.453125
C2.343750 37.343750 2.406250 37.296875 2.453125 37.203125
C4.843750 34.703125 10.953125 28.390625 10.953125 12.906250
C10.953125 -2.640625 4.906250 -8.953125 2.453125 -11.453125
C2.406250 -11.546875 2.343750 -11.593750 2.343750 -11.687500
C2.343750 -11.937500 2.546875 -12.000000 2.703125 -12.000000
C3.250000 -12.000000 7.500000 -8.312500 9.953125 -2.828125
C12.453125 2.687500 13.156250 8.078125 13.156250 12.843750"/>
<path id="CMR17-53" d="M5.703125 29.843750
C6.203125 29.640625 8.250000 29.000000 10.343750 29.000000
C15.000000 29.000000 17.546875 31.500000 19.000000 32.953125
C19.000000 33.359375 19.000000 33.625000 18.703125 33.625000
C18.656250 33.625000 18.546875 33.625000 18.156250 33.421875
C16.406250 32.640625 14.343750 32.031250 11.843750 32.031250
C10.343750 32.031250 8.093750 32.234375 5.656250 33.375000
C5.093750 33.625000 5.000000 33.625000 4.953125 33.625000
C4.703125 33.625000 4.656250 33.578125 4.656250 32.578125
L4.656250 18.140625
C4.656250 17.250000 4.656250 17.000000 5.156250 17.000000
C5.406250 17.000000 5.500000 17.109375 5.750000 17.500000
C7.343750 20.046875 9.546875 21.109375 12.046875 21.109375
C13.796875 21.109375 17.546875 19.984375 17.546875 11.281250
C17.546875 9.640625 17.546875 6.703125 16.046875 4.359375
C14.796875 2.265625 12.843750 1.187500 10.703125 1.187500
C7.406250 1.187500 4.046875 3.515625 3.156250 7.375000
C3.343750 7.328125 3.750000 7.218750 3.953125 7.218750
C4.593750 7.218750 5.843750 7.562500 5.843750 9.109375
C5.843750 10.453125 4.906250 11.000000 3.953125 11.000000
C2.796875 11.000000 2.046875 10.296875 2.046875 8.890625
C2.046875 4.546875 5.500000 0.000000 10.796875 0.000000
C15.953125 0.000000 20.843750 4.531250 20.843750 11.078125
C20.843750 17.171875 16.953125 21.890625 12.093750 21.890625
C9.546875 21.890625 7.406250 20.875000 5.703125 18.906250z"/>
<path id="CMR17-40" d="M15.296875 -11.687500
C15.296875 -11.640625 15.296875 -11.546875 15.156250 -11.390625
C12.843750 -9.062500 6.703125 -2.687500 6.703125 12.843750
C6.703125 28.390625 12.750000 34.703125 15.203125 37.203125
C15.203125 37.250000 15.296875 37.343750 15.296875 37.500000
C15.296875 37.640625 15.156250 37.750000 14.953125 37.750000
C14.406250 37.750000 10.156250 34.062500 7.703125 28.578125
C5.203125 23.062500 4.500000 17.687500 4.500000 12.906250
C4.500000 9.312500 4.843750 3.234375 7.843750 -3.187500
C10.250000 -8.359375 14.343750 -12.000000 14.953125 -12.000000
C15.203125 -12.000000 15.296875 -11.890625 15.296875 -11.687500"/>
<path id="Century_Schoolbook_L_Roman-122" d="M21.406250 23.000000L3.343750 23.000000L2.906250 14.656250
L4.906250 14.656250
C5.343750 19.078125 7.156250 20.859375 11.250000 20.859375
L15.593750 20.859375L1.953125 1.796875L1.953125 0.000000L21.406250 0.000000
L21.750000 8.843750L19.750000 8.843750
C19.250000 3.968750 17.343750 2.140625 12.843750 2.140625L7.750000 2.140625
L21.406250 21.203125z"/>
<path id="CMR17-49" d="M13.296875 31.906250
C13.296875 32.953125 13.250000 33.000000 12.546875 33.000000
C10.593750 30.781250 7.656250 30.093750 4.843750 30.093750
C4.703125 30.093750 4.453125 30.093750 4.406250 29.953125
C4.343750 29.859375 4.343750 29.750000 4.343750 28.718750
C5.906250 28.718750 8.500000 29.015625 10.500000 30.187500
L10.500000 3.625000C10.500000 1.843750 10.406250 1.250000 6.093750 1.250000
L4.593750 1.250000L4.593750 0.000000
C7.000000 0.000000 9.500000 0.000000 11.906250 0.000000
C14.296875 0.000000 16.796875 0.000000 19.203125 0.000000
L19.203125 1.250000L17.703125 1.250000
C13.406250 1.250000 13.296875 1.796875 13.296875 3.609375z"/>
<path id="CMR17-48" d="M21.000000 16.875000
C21.000000 19.921875 20.953125 25.140625 18.843750 29.140625
C17.000000 32.656250 14.046875 33.890625 11.453125 33.890625
C9.046875 33.890625 6.000000 32.796875 4.093750 29.187500
C2.093750 25.437500 1.906250 20.765625 1.906250 16.875000
C1.906250 14.015625 1.953125 9.656250 3.500000 5.859375
C5.656250 0.703125 9.500000 0.000000 11.453125 0.000000
C13.750000 0.000000 17.250000 0.953125 19.296875 5.703125
C20.796875 9.156250 21.000000 13.218750 21.000000 16.875000
M11.453125 0.796875C8.250000 0.796875 6.343750 3.546875 5.656250 7.359375
C5.093750 10.312500 5.093750 14.625000 5.093750 17.437500
C5.093750 21.281250 5.093750 24.500000 5.750000 27.562500
C6.703125 31.796875 9.500000 33.109375 11.453125 33.109375
C13.500000 33.109375 16.156250 31.750000 17.093750 27.656250
C17.750000 24.796875 17.796875 21.437500 17.796875 17.437500
C17.796875 14.171875 17.796875 10.171875 17.203125 7.218750
C16.156250 1.750000 13.203125 0.796875 11.453125 0.796875"/>
<path id="Century_Schoolbook_L_Roman-41" d="M2.703125 -6.140625
C5.703125 -4.296875 7.296875 -3.000000 9.000000 -0.953125
C12.796875 3.500000 14.843750 9.281250 14.843750 15.312500
C14.843750 21.015625 13.046875 26.343750 9.703125 30.734375
C7.796875 33.187500 6.093750 34.687500 2.703125 36.734375
L2.703125 34.875000
C7.703125 30.484375 9.703125 24.906250 9.703125 15.312500
C9.703125 5.687500 7.703125 0.093750 2.703125 -4.296875z"/>
<path id="CMMI12-58" d="M9.203125 2.390625C9.203125 3.843750 8.000000 4.843750 6.796875 4.843750
C5.343750 4.843750 4.343750 3.640625 4.343750 2.437500
C4.343750 1.000000 5.546875 0.000000 6.750000 0.000000
C8.203125 0.000000 9.203125 1.203125 9.203125 2.390625"/>
</defs>
<g style="fill: #000000; opacity: 1.000000" transform="translate(174.031817,53.016150)scale(0.160000,-0.160000)">
<use xlink:href="#CMSY10-106" x="0.000000" y="12.500000" transform="scale(0.996264)"/>
<use xlink:href="#CMSY10-70" x="13.888931" y="12.500000" transform="scale(0.996264)"/>
<use xlink:href="#CMR17-40" x="54.791626" y="12.500000" transform="scale(0.996264)"/>
<use xlink:href="#CMMI12-104" x="72.498154" y="12.500000" transform="scale(0.996264)"/>
<use xlink:href="#CMR17-51" x="143.830278" y="43.778202" transform="scale(0.697382)"/>
<use xlink:href="#CMR17-49" x="166.761177" y="43.778202" transform="scale(0.697382)"/>
<use xlink:href="#CMR17-41" x="133.283875" y="12.500000" transform="scale(0.996264)"/>
<use xlink:href="#CMR17-40" x="150.990402" y="12.500000" transform="scale(0.996264)"/>
<use xlink:href="#CMMI12-102" x="168.696930" y="12.500000" transform="scale(0.996264)"/>
<use xlink:href="#CMR17-41" x="198.167175" y="12.500000" transform="scale(0.996264)"/>
<use xlink:href="#CMSY10-106" x="215.873703" y="12.500000" transform="scale(0.996264)"/>
</g><!-- style -->
</g>
</g>
</g>
</svg>
