<?xml version="1.0" standalone="no"?>
<!DOCTYPE svg PUBLIC "-//W3C//DTD SVG 1.1//EN"
  "http://www.w3.org/Graphics/SVG/1.1/DTD/svg11.dtd">
<!-- Created with matplotlib (http://matplotlib.sourceforge.net/) -->
<svg width="340pt" height="210pt" viewBox="0 0 340 210"
   xmlns="http://www.w3.org/2000/svg"
   xmlns:xlink="http://www.w3.org/1999/xlink"
   version="1.1"
   id="svg1">
<filter id="colorAdd"><feComposite in="SourceGraphic" in2="BackgroundImage" operator="arithmetic" k2="1" k3="1"/></filter>
<g id="figure1">
<g id="patch1">
<path style="fill: #ffffff; stroke: #ffffff; stroke-width: 1.000000; stroke-linejoin: round; stroke-linecap: square;  opacity: 1.000000"  d="M0.000000 210.233301L340.157480 210.233301L340.157480 0.000000
L0.000000 0.000000z"/>
</g>
<g id="axes1">
<g id="patch2">
<path style="fill: #ffffff; opacity: 1.000000"  d="M42.519685 168.186640L306.141732 168.186640L306.141732 21.023330
L42.519685 21.023330z"/>
</g>
<g id="line2d1">
<defs>
  <clipPath id="p92c4cb1587840fe43c9a69ca7f348748">
<rect x="42.519685" y="21.023330" width="263.622047" height="147.163310"/>
  </clipPath>
</defs><path style="fill: none; stroke: #000000; stroke-width: 0.750000; stroke-linejoin: round; stroke-linecap: square;  opacity: 1.000000" clip-path="url(#p92c4cb1587840fe43c9a69ca7f348748)" d="M42.519685 138.753978L68.778912 138.929412L80.621309 139.055722
L85.255290 138.870464L89.374385 138.477497L93.493479 137.848747
L104.820989 135.902151L107.395423 135.834785L109.454970 136.014427
L111.514518 136.446693L113.574065 137.166666L115.633612 138.189787
L117.693159 139.518863L119.752707 141.128629L122.327141 143.456968
L129.535556 150.274970L131.080217 151.382300L132.624877 152.206129
L133.654651 152.561205L134.684424 152.731023L135.714198 152.697340
L136.743971 152.437700L137.773745 151.931052L138.803519 151.160552
L139.833292 150.110765L140.863066 148.766252L141.892840 147.117190
L142.922613 145.155153L144.467274 141.612823L146.011934 137.353328
L147.556594 132.392100L149.101255 126.768442L151.160802 118.336461
L153.735236 106.574075L157.339444 88.734711L161.458538 68.388769
L163.518086 59.068401L165.577633 50.779575L167.122293 45.432396
L168.666954 40.962381L169.696727 38.518958L170.726501 36.533066
L171.756275 35.027152L172.786048 34.013856L173.815822 33.505804
L174.330709 33.441244L174.845595 33.505804L175.360482 33.696675
L176.390256 34.458752L177.420030 35.719058L178.449803 37.467767
L179.479577 39.683829L180.509350 42.347594L182.054011 47.122160
L183.598671 52.737397L185.658219 61.313934L188.232653 73.328944
L197.500615 118.336461L199.560162 126.768442L201.619710 134.122564
L203.164370 138.852222L204.709031 142.873129L206.253691 146.175468
L207.283465 147.980314L208.313238 149.476403L209.343012 150.672149
L210.372785 151.580188L211.402559 152.215954L212.432333 152.596292
L213.462106 152.740847L214.491880 152.670674L215.521654 152.405421
L217.066314 151.692465L218.610974 150.670745L220.670522 148.958527
L223.759843 145.986001L227.878937 142.024038L230.453371 139.896392
L232.512918 138.494338L234.572466 137.392624L236.632013 136.599669
L238.691560 136.097230L240.751107 135.858643L242.810655 135.841802
L245.385089 136.060740L248.989296 136.651597L258.772146 138.411535
L262.891240 138.833976L267.010335 139.034669L272.674090 139.059934
L303.052411 138.755382L306.141732 138.753978L306.141732 138.753978"/>
</g>
<g id="matplotlib.axis1">
<g id="xtick1">
<g id="line2d2">
<defs><path id="m30e32995789d870ad79a2e54c91cf9c6" d="M0.000000 0.000000L0.000000 -4.000000"/></defs>
<g ><use style="fill: none; stroke: #000000; stroke-width: 0.500000; stroke-linejoin: round; stroke-linecap: butt;  opacity: 1.000000" xlink:href="#m30e32995789d870ad79a2e54c91cf9c6" x="42.519685" y="168.186640"/>
</g></g>
<g id="line2d3">
<defs><path id="m9281cae24120827b11d5ea8a7ad3e96b" d="M0.000000 0.000000L0.000000 4.000000"/></defs>
<g ><use style="fill: none; stroke: #000000; stroke-width: 0.500000; stroke-linejoin: round; stroke-linecap: butt;  opacity: 1.000000" xlink:href="#m9281cae24120827b11d5ea8a7ad3e96b" x="42.519685" y="21.023330"/>
</g></g>
<g id="text1">
<defs>
<path id="CMR17-48" d="M21.000000 16.875000
C21.000000 19.921875 20.953125 25.140625 18.843750 29.140625
C17.000000 32.656250 14.046875 33.890625 11.453125 33.890625
C9.046875 33.890625 6.000000 32.796875 4.093750 29.187500
C2.093750 25.437500 1.906250 20.765625 1.906250 16.875000
C1.906250 14.015625 1.953125 9.656250 3.500000 5.859375
C5.656250 0.703125 9.500000 0.000000 11.453125 0.000000
C13.750000 0.000000 17.250000 0.953125 19.296875 5.703125
C20.796875 9.156250 21.000000 13.218750 21.000000 16.875000
M11.453125 0.796875C8.250000 0.796875 6.343750 3.546875 5.656250 7.359375
C5.093750 10.312500 5.093750 14.625000 5.093750 17.437500
C5.093750 21.281250 5.093750 24.500000 5.750000 27.562500
C6.703125 31.796875 9.500000 33.109375 11.453125 33.109375
C13.500000 33.109375 16.156250 31.750000 17.093750 27.656250
C17.750000 24.796875 17.796875 21.437500 17.796875 17.437500
C17.796875 14.171875 17.796875 10.171875 17.203125 7.218750
C16.156250 1.750000 13.203125 0.796875 11.453125 0.796875"/>
</defs>
<g style="fill: #000000; opacity: 1.000000" transform="translate(40.402594,177.322943)scale(0.160000,-0.160000)">
<use xlink:href="#CMR17-48" x="0.000000" y="0.000000" transform="scale(0.996264)"/>
</g><!-- style -->
</g>
</g>
<g id="xtick2">
<g id="line2d4">
<g ><use style="fill: none; stroke: #000000; stroke-width: 0.500000; stroke-linejoin: round; stroke-linecap: butt;  opacity: 1.000000" xlink:href="#m30e32995789d870ad79a2e54c91cf9c6" x="94.008366" y="168.186640"/>
</g></g>
<g id="line2d5">
<g ><use style="fill: none; stroke: #000000; stroke-width: 0.500000; stroke-linejoin: round; stroke-linecap: butt;  opacity: 1.000000" xlink:href="#m9281cae24120827b11d5ea8a7ad3e96b" x="94.008366" y="21.023330"/>
</g></g>
<g id="text2">
<defs>
<path id="CMR17-49" d="M13.296875 31.906250
C13.296875 32.953125 13.250000 33.000000 12.546875 33.000000
C10.593750 30.781250 7.656250 30.093750 4.843750 30.093750
C4.703125 30.093750 4.453125 30.093750 4.406250 29.953125
C4.343750 29.859375 4.343750 29.750000 4.343750 28.718750
C5.906250 28.718750 8.500000 29.015625 10.500000 30.187500
L10.500000 3.625000C10.500000 1.843750 10.406250 1.250000 6.093750 1.250000
L4.593750 1.250000L4.593750 0.000000
C7.000000 0.000000 9.500000 0.000000 11.906250 0.000000
C14.296875 0.000000 16.796875 0.000000 19.203125 0.000000
L19.203125 1.250000L17.703125 1.250000
C13.406250 1.250000 13.296875 1.796875 13.296875 3.609375z"/>
<path id="CMR17-48" d="M21.000000 16.875000
C21.000000 19.921875 20.953125 25.140625 18.843750 29.140625
C17.000000 32.656250 14.046875 33.890625 11.453125 33.890625
C9.046875 33.890625 6.000000 32.796875 4.093750 29.187500
C2.093750 25.437500 1.906250 20.765625 1.906250 16.875000
C1.906250 14.015625 1.953125 9.656250 3.500000 5.859375
C5.656250 0.703125 9.500000 0.000000 11.453125 0.000000
C13.750000 0.000000 17.250000 0.953125 19.296875 5.703125
C20.796875 9.156250 21.000000 13.218750 21.000000 16.875000
M11.453125 0.796875C8.250000 0.796875 6.343750 3.546875 5.656250 7.359375
C5.093750 10.312500 5.093750 14.625000 5.093750 17.437500
C5.093750 21.281250 5.093750 24.500000 5.750000 27.562500
C6.703125 31.796875 9.500000 33.109375 11.453125 33.109375
C13.500000 33.109375 16.156250 31.750000 17.093750 27.656250
C17.750000 24.796875 17.796875 21.437500 17.796875 17.437500
C17.796875 14.171875 17.796875 10.171875 17.203125 7.218750
C16.156250 1.750000 13.203125 0.796875 11.453125 0.796875"/>
</defs>
<g style="fill: #000000; opacity: 1.000000" transform="translate(87.657092,177.322943)scale(0.160000,-0.160000)">
<use xlink:href="#CMR17-49" x="0.000000" y="0.000000" transform="scale(0.996264)"/>
<use xlink:href="#CMR17-48" x="22.930908" y="0.000000" transform="scale(0.996264)"/>
<use xlink:href="#CMR17-48" x="45.861816" y="0.000000" transform="scale(0.996264)"/>
</g><!-- style -->
</g>
</g>
<g id="xtick3">
<g id="line2d6">
<g ><use style="fill: none; stroke: #000000; stroke-width: 0.500000; stroke-linejoin: round; stroke-linecap: butt;  opacity: 1.000000" xlink:href="#m30e32995789d870ad79a2e54c91cf9c6" x="145.497047" y="168.186640"/>
</g></g>
<g id="line2d7">
<g ><use style="fill: none; stroke: #000000; stroke-width: 0.500000; stroke-linejoin: round; stroke-linecap: butt;  opacity: 1.000000" xlink:href="#m9281cae24120827b11d5ea8a7ad3e96b" x="145.497047" y="21.023330"/>
</g></g>
<g id="text3">
<defs>
<path id="CMR17-50" d="M20.843750 7.609375L19.953125 7.609375
C19.453125 4.156250 19.046875 3.562500 18.843750 3.265625
C18.593750 2.890625 15.000000 2.890625 14.296875 2.890625L4.703125 2.890625
C6.500000 4.843750 10.000000 8.390625 14.250000 12.500000
C17.296875 15.390625 20.843750 18.796875 20.843750 23.750000
C20.843750 29.656250 16.156250 33.046875 10.906250 33.046875
C5.406250 33.046875 2.046875 27.984375 2.046875 23.296875
C2.046875 21.265625 3.500000 21.000000 4.093750 21.000000
C4.593750 21.000000 6.093750 21.296875 6.093750 23.046875
C6.093750 24.593750 4.796875 25.031250 4.093750 25.031250
C3.796875 25.031250 3.500000 24.984375 3.296875 24.875000
C4.250000 29.500000 7.156250 31.765625 10.203125 31.765625
C14.546875 31.765625 17.406250 28.328125 17.406250 23.765625
C17.406250 19.406250 14.843750 15.656250 12.000000 12.406250
L2.046875 1.140625L2.046875 0.000000L19.656250 0.000000z"/>
<path id="CMR17-49" d="M13.296875 31.906250
C13.296875 32.953125 13.250000 33.000000 12.546875 33.000000
C10.593750 30.781250 7.656250 30.093750 4.843750 30.093750
C4.703125 30.093750 4.453125 30.093750 4.406250 29.953125
C4.343750 29.859375 4.343750 29.750000 4.343750 28.718750
C5.906250 28.718750 8.500000 29.015625 10.500000 30.187500
L10.500000 3.625000C10.500000 1.843750 10.406250 1.250000 6.093750 1.250000
L4.593750 1.250000L4.593750 0.000000
C7.000000 0.000000 9.500000 0.000000 11.906250 0.000000
C14.296875 0.000000 16.796875 0.000000 19.203125 0.000000
L19.203125 1.250000L17.703125 1.250000
C13.406250 1.250000 13.296875 1.796875 13.296875 3.609375z"/>
<path id="CMR17-48" d="M21.000000 16.875000
C21.000000 19.921875 20.953125 25.140625 18.843750 29.140625
C17.000000 32.656250 14.046875 33.890625 11.453125 33.890625
C9.046875 33.890625 6.000000 32.796875 4.093750 29.187500
C2.093750 25.437500 1.906250 20.765625 1.906250 16.875000
C1.906250 14.015625 1.953125 9.656250 3.500000 5.859375
C5.656250 0.703125 9.500000 0.000000 11.453125 0.000000
C13.750000 0.000000 17.250000 0.953125 19.296875 5.703125
C20.796875 9.156250 21.000000 13.218750 21.000000 16.875000
M11.453125 0.796875C8.250000 0.796875 6.343750 3.546875 5.656250 7.359375
C5.093750 10.312500 5.093750 14.625000 5.093750 17.437500
C5.093750 21.281250 5.093750 24.500000 5.750000 27.562500
C6.703125 31.796875 9.500000 33.109375 11.453125 33.109375
C13.500000 33.109375 16.156250 31.750000 17.093750 27.656250
C17.750000 24.796875 17.796875 21.437500 17.796875 17.437500
C17.796875 14.171875 17.796875 10.171875 17.203125 7.218750
C16.156250 1.750000 13.203125 0.796875 11.453125 0.796875"/>
</defs>
<g style="fill: #000000; opacity: 1.000000" transform="translate(139.145773,177.322943)scale(0.160000,-0.160000)">
<use xlink:href="#CMR17-50" x="0.000000" y="0.000000" transform="scale(0.996264)"/>
<use xlink:href="#CMR17-48" x="22.930908" y="0.000000" transform="scale(0.996264)"/>
<use xlink:href="#CMR17-48" x="45.861816" y="0.000000" transform="scale(0.996264)"/>
</g><!-- style -->
</g>
</g>
<g id="xtick4">
<g id="line2d8">
<g ><use style="fill: none; stroke: #000000; stroke-width: 0.500000; stroke-linejoin: round; stroke-linecap: butt;  opacity: 1.000000" xlink:href="#m30e32995789d870ad79a2e54c91cf9c6" x="196.985728" y="168.186640"/>
</g></g>
<g id="line2d9">
<g ><use style="fill: none; stroke: #000000; stroke-width: 0.500000; stroke-linejoin: round; stroke-linecap: butt;  opacity: 1.000000" xlink:href="#m9281cae24120827b11d5ea8a7ad3e96b" x="196.985728" y="21.023330"/>
</g></g>
<g id="text4">
<defs>
<path id="CMR17-50" d="M20.843750 7.609375L19.953125 7.609375
C19.453125 4.156250 19.046875 3.562500 18.843750 3.265625
C18.593750 2.890625 15.000000 2.890625 14.296875 2.890625L4.703125 2.890625
C6.500000 4.843750 10.000000 8.390625 14.250000 12.500000
C17.296875 15.390625 20.843750 18.796875 20.843750 23.750000
C20.843750 29.656250 16.156250 33.046875 10.906250 33.046875
C5.406250 33.046875 2.046875 27.984375 2.046875 23.296875
C2.046875 21.265625 3.500000 21.000000 4.093750 21.000000
C4.593750 21.000000 6.093750 21.296875 6.093750 23.046875
C6.093750 24.593750 4.796875 25.031250 4.093750 25.031250
C3.796875 25.031250 3.500000 24.984375 3.296875 24.875000
C4.250000 29.500000 7.156250 31.765625 10.203125 31.765625
C14.546875 31.765625 17.406250 28.328125 17.406250 23.765625
C17.406250 19.406250 14.843750 15.656250 12.000000 12.406250
L2.046875 1.140625L2.046875 0.000000L19.656250 0.000000z"/>
<path id="CMR17-51" d="M11.046875 17.828125
C15.500000 17.828125 17.453125 13.968750 17.453125 9.500000
C17.453125 3.500000 14.250000 1.187500 11.343750 1.187500
C8.703125 1.187500 4.406250 2.421875 3.046875 6.093750
C3.296875 6.000000 3.546875 6.000000 3.796875 6.000000
C5.000000 6.000000 5.906250 6.796875 5.906250 8.093750
C5.906250 9.546875 4.796875 10.187500 3.796875 10.187500
C2.953125 10.187500 1.656250 9.796875 1.656250 8.000000
C1.656250 3.500000 6.156250 0.000000 11.453125 0.000000
C17.000000 0.000000 21.250000 4.359375 21.250000 9.468750
C21.250000 14.312500 17.250000 17.828125 12.500000 18.375000
C16.296875 19.187500 19.953125 22.609375 19.953125 27.187500
C19.953125 31.109375 16.000000 33.968750 11.500000 33.968750
C6.953125 33.968750 2.953125 31.140625 2.953125 27.078125
C2.953125 25.296875 4.250000 25.000000 4.906250 25.000000
C5.953125 25.000000 6.843750 25.656250 6.843750 26.937500
C6.843750 28.234375 5.953125 28.890625 4.906250 28.890625
C4.703125 28.890625 4.453125 28.890625 4.250000 28.796875
C5.703125 32.218750 9.656250 32.843750 11.406250 32.843750
C13.156250 32.843750 16.453125 31.984375 16.453125 27.125000
C16.453125 25.718750 16.250000 23.171875 14.546875 20.953125
C13.046875 18.984375 11.343750 18.984375 9.703125 18.781250
C9.453125 18.781250 8.296875 18.781250 8.093750 18.781250
C7.750000 18.718750 7.546875 18.656250 7.546875 18.281250
C7.546875 17.890625 7.593750 17.828125 8.593750 17.828125z"/>
<path id="CMR17-49" d="M13.296875 31.906250
C13.296875 32.953125 13.250000 33.000000 12.546875 33.000000
C10.593750 30.781250 7.656250 30.093750 4.843750 30.093750
C4.703125 30.093750 4.453125 30.093750 4.406250 29.953125
C4.343750 29.859375 4.343750 29.750000 4.343750 28.718750
C5.906250 28.718750 8.500000 29.015625 10.500000 30.187500
L10.500000 3.625000C10.500000 1.843750 10.406250 1.250000 6.093750 1.250000
L4.593750 1.250000L4.593750 0.000000
C7.000000 0.000000 9.500000 0.000000 11.906250 0.000000
C14.296875 0.000000 16.796875 0.000000 19.203125 0.000000
L19.203125 1.250000L17.703125 1.250000
C13.406250 1.250000 13.296875 1.796875 13.296875 3.609375z"/>
<path id="CMR17-48" d="M21.000000 16.875000
C21.000000 19.921875 20.953125 25.140625 18.843750 29.140625
C17.000000 32.656250 14.046875 33.890625 11.453125 33.890625
C9.046875 33.890625 6.000000 32.796875 4.093750 29.187500
C2.093750 25.437500 1.906250 20.765625 1.906250 16.875000
C1.906250 14.015625 1.953125 9.656250 3.500000 5.859375
C5.656250 0.703125 9.500000 0.000000 11.453125 0.000000
C13.750000 0.000000 17.250000 0.953125 19.296875 5.703125
C20.796875 9.156250 21.000000 13.218750 21.000000 16.875000
M11.453125 0.796875C8.250000 0.796875 6.343750 3.546875 5.656250 7.359375
C5.093750 10.312500 5.093750 14.625000 5.093750 17.437500
C5.093750 21.281250 5.093750 24.500000 5.750000 27.562500
C6.703125 31.796875 9.500000 33.109375 11.453125 33.109375
C13.500000 33.109375 16.156250 31.750000 17.093750 27.656250
C17.750000 24.796875 17.796875 21.437500 17.796875 17.437500
C17.796875 14.171875 17.796875 10.171875 17.203125 7.218750
C16.156250 1.750000 13.203125 0.796875 11.453125 0.796875"/>
</defs>
<g style="fill: #000000; opacity: 1.000000" transform="translate(190.634454,177.322943)scale(0.160000,-0.160000)">
<use xlink:href="#CMR17-51" x="0.000000" y="0.000000" transform="scale(0.996264)"/>
<use xlink:href="#CMR17-48" x="22.930908" y="0.000000" transform="scale(0.996264)"/>
<use xlink:href="#CMR17-48" x="45.861816" y="0.000000" transform="scale(0.996264)"/>
</g><!-- style -->
</g>
</g>
<g id="xtick5">
<g id="line2d10">
<g ><use style="fill: none; stroke: #000000; stroke-width: 0.500000; stroke-linejoin: round; stroke-linecap: butt;  opacity: 1.000000" xlink:href="#m30e32995789d870ad79a2e54c91cf9c6" x="248.474409" y="168.186640"/>
</g></g>
<g id="line2d11">
<g ><use style="fill: none; stroke: #000000; stroke-width: 0.500000; stroke-linejoin: round; stroke-linecap: butt;  opacity: 1.000000" xlink:href="#m9281cae24120827b11d5ea8a7ad3e96b" x="248.474409" y="21.023330"/>
</g></g>
<g id="text5">
<defs>
<path id="CMR17-50" d="M20.843750 7.609375L19.953125 7.609375
C19.453125 4.156250 19.046875 3.562500 18.843750 3.265625
C18.593750 2.890625 15.000000 2.890625 14.296875 2.890625L4.703125 2.890625
C6.500000 4.843750 10.000000 8.390625 14.250000 12.500000
C17.296875 15.390625 20.843750 18.796875 20.843750 23.750000
C20.843750 29.656250 16.156250 33.046875 10.906250 33.046875
C5.406250 33.046875 2.046875 27.984375 2.046875 23.296875
C2.046875 21.265625 3.500000 21.000000 4.093750 21.000000
C4.593750 21.000000 6.093750 21.296875 6.093750 23.046875
C6.093750 24.593750 4.796875 25.031250 4.093750 25.031250
C3.796875 25.031250 3.500000 24.984375 3.296875 24.875000
C4.250000 29.500000 7.156250 31.765625 10.203125 31.765625
C14.546875 31.765625 17.406250 28.328125 17.406250 23.765625
C17.406250 19.406250 14.843750 15.656250 12.000000 12.406250
L2.046875 1.140625L2.046875 0.000000L19.656250 0.000000z"/>
<path id="CMR17-51" d="M11.046875 17.828125
C15.500000 17.828125 17.453125 13.968750 17.453125 9.500000
C17.453125 3.500000 14.250000 1.187500 11.343750 1.187500
C8.703125 1.187500 4.406250 2.421875 3.046875 6.093750
C3.296875 6.000000 3.546875 6.000000 3.796875 6.000000
C5.000000 6.000000 5.906250 6.796875 5.906250 8.093750
C5.906250 9.546875 4.796875 10.187500 3.796875 10.187500
C2.953125 10.187500 1.656250 9.796875 1.656250 8.000000
C1.656250 3.500000 6.156250 0.000000 11.453125 0.000000
C17.000000 0.000000 21.250000 4.359375 21.250000 9.468750
C21.250000 14.312500 17.250000 17.828125 12.500000 18.375000
C16.296875 19.187500 19.953125 22.609375 19.953125 27.187500
C19.953125 31.109375 16.000000 33.968750 11.500000 33.968750
C6.953125 33.968750 2.953125 31.140625 2.953125 27.078125
C2.953125 25.296875 4.250000 25.000000 4.906250 25.000000
C5.953125 25.000000 6.843750 25.656250 6.843750 26.937500
C6.843750 28.234375 5.953125 28.890625 4.906250 28.890625
C4.703125 28.890625 4.453125 28.890625 4.250000 28.796875
C5.703125 32.218750 9.656250 32.843750 11.406250 32.843750
C13.156250 32.843750 16.453125 31.984375 16.453125 27.125000
C16.453125 25.718750 16.250000 23.171875 14.546875 20.953125
C13.046875 18.984375 11.343750 18.984375 9.703125 18.781250
C9.453125 18.781250 8.296875 18.781250 8.093750 18.781250
C7.750000 18.718750 7.546875 18.656250 7.546875 18.281250
C7.546875 17.890625 7.593750 17.828125 8.593750 17.828125z"/>
<path id="CMR17-49" d="M13.296875 31.906250
C13.296875 32.953125 13.250000 33.000000 12.546875 33.000000
C10.593750 30.781250 7.656250 30.093750 4.843750 30.093750
C4.703125 30.093750 4.453125 30.093750 4.406250 29.953125
C4.343750 29.859375 4.343750 29.750000 4.343750 28.718750
C5.906250 28.718750 8.500000 29.015625 10.500000 30.187500
L10.500000 3.625000C10.500000 1.843750 10.406250 1.250000 6.093750 1.250000
L4.593750 1.250000L4.593750 0.000000
C7.000000 0.000000 9.500000 0.000000 11.906250 0.000000
C14.296875 0.000000 16.796875 0.000000 19.203125 0.000000
L19.203125 1.250000L17.703125 1.250000
C13.406250 1.250000 13.296875 1.796875 13.296875 3.609375z"/>
<path id="CMR17-48" d="M21.000000 16.875000
C21.000000 19.921875 20.953125 25.140625 18.843750 29.140625
C17.000000 32.656250 14.046875 33.890625 11.453125 33.890625
C9.046875 33.890625 6.000000 32.796875 4.093750 29.187500
C2.093750 25.437500 1.906250 20.765625 1.906250 16.875000
C1.906250 14.015625 1.953125 9.656250 3.500000 5.859375
C5.656250 0.703125 9.500000 0.000000 11.453125 0.000000
C13.750000 0.000000 17.250000 0.953125 19.296875 5.703125
C20.796875 9.156250 21.000000 13.218750 21.000000 16.875000
M11.453125 0.796875C8.250000 0.796875 6.343750 3.546875 5.656250 7.359375
C5.093750 10.312500 5.093750 14.625000 5.093750 17.437500
C5.093750 21.281250 5.093750 24.500000 5.750000 27.562500
C6.703125 31.796875 9.500000 33.109375 11.453125 33.109375
C13.500000 33.109375 16.156250 31.750000 17.093750 27.656250
C17.750000 24.796875 17.796875 21.437500 17.796875 17.437500
C17.796875 14.171875 17.796875 10.171875 17.203125 7.218750
C16.156250 1.750000 13.203125 0.796875 11.453125 0.796875"/>
<path id="CMR17-52" d="M16.796875 32.890625
C16.796875 33.953125 16.750000 34.000000 15.843750 34.000000
L1.000000 10.046875L1.000000 8.765625L13.906250 8.765625L13.906250 3.640625
C13.906250 1.781250 13.796875 1.250000 10.296875 1.250000L9.343750 1.250000
L9.343750 0.000000C10.953125 0.000000 13.656250 0.000000 15.343750 0.000000
C17.046875 0.000000 19.750000 0.000000 21.343750 0.000000
L21.343750 1.250000L20.406250 1.250000
C16.906250 1.250000 16.796875 1.781250 16.796875 3.640625
L16.796875 8.765625L21.906250 8.765625L21.906250 10.046875
L16.796875 10.046875zM14.046875 29.546875L14.046875 10.046875
L2.000000 10.046875z"/>
</defs>
<g style="fill: #000000; opacity: 1.000000" transform="translate(242.123135,177.322943)scale(0.160000,-0.160000)">
<use xlink:href="#CMR17-52" x="0.000000" y="0.000000" transform="scale(0.996264)"/>
<use xlink:href="#CMR17-48" x="22.930908" y="0.000000" transform="scale(0.996264)"/>
<use xlink:href="#CMR17-48" x="45.861816" y="0.000000" transform="scale(0.996264)"/>
</g><!-- style -->
</g>
</g>
<g id="xtick6">
<g id="line2d12">
<g ><use style="fill: none; stroke: #000000; stroke-width: 0.500000; stroke-linejoin: round; stroke-linecap: butt;  opacity: 1.000000" xlink:href="#m30e32995789d870ad79a2e54c91cf9c6" x="299.963091" y="168.186640"/>
</g></g>
<g id="line2d13">
<g ><use style="fill: none; stroke: #000000; stroke-width: 0.500000; stroke-linejoin: round; stroke-linecap: butt;  opacity: 1.000000" xlink:href="#m9281cae24120827b11d5ea8a7ad3e96b" x="299.963091" y="21.023330"/>
</g></g>
<g id="text6">
<defs>
<path id="CMR17-50" d="M20.843750 7.609375L19.953125 7.609375
C19.453125 4.156250 19.046875 3.562500 18.843750 3.265625
C18.593750 2.890625 15.000000 2.890625 14.296875 2.890625L4.703125 2.890625
C6.500000 4.843750 10.000000 8.390625 14.250000 12.500000
C17.296875 15.390625 20.843750 18.796875 20.843750 23.750000
C20.843750 29.656250 16.156250 33.046875 10.906250 33.046875
C5.406250 33.046875 2.046875 27.984375 2.046875 23.296875
C2.046875 21.265625 3.500000 21.000000 4.093750 21.000000
C4.593750 21.000000 6.093750 21.296875 6.093750 23.046875
C6.093750 24.593750 4.796875 25.031250 4.093750 25.031250
C3.796875 25.031250 3.500000 24.984375 3.296875 24.875000
C4.250000 29.500000 7.156250 31.765625 10.203125 31.765625
C14.546875 31.765625 17.406250 28.328125 17.406250 23.765625
C17.406250 19.406250 14.843750 15.656250 12.000000 12.406250
L2.046875 1.140625L2.046875 0.000000L19.656250 0.000000z"/>
<path id="CMR17-51" d="M11.046875 17.828125
C15.500000 17.828125 17.453125 13.968750 17.453125 9.500000
C17.453125 3.500000 14.250000 1.187500 11.343750 1.187500
C8.703125 1.187500 4.406250 2.421875 3.046875 6.093750
C3.296875 6.000000 3.546875 6.000000 3.796875 6.000000
C5.000000 6.000000 5.906250 6.796875 5.906250 8.093750
C5.906250 9.546875 4.796875 10.187500 3.796875 10.187500
C2.953125 10.187500 1.656250 9.796875 1.656250 8.000000
C1.656250 3.500000 6.156250 0.000000 11.453125 0.000000
C17.000000 0.000000 21.250000 4.359375 21.250000 9.468750
C21.250000 14.312500 17.250000 17.828125 12.500000 18.375000
C16.296875 19.187500 19.953125 22.609375 19.953125 27.187500
C19.953125 31.109375 16.000000 33.968750 11.500000 33.968750
C6.953125 33.968750 2.953125 31.140625 2.953125 27.078125
C2.953125 25.296875 4.250000 25.000000 4.906250 25.000000
C5.953125 25.000000 6.843750 25.656250 6.843750 26.937500
C6.843750 28.234375 5.953125 28.890625 4.906250 28.890625
C4.703125 28.890625 4.453125 28.890625 4.250000 28.796875
C5.703125 32.218750 9.656250 32.843750 11.406250 32.843750
C13.156250 32.843750 16.453125 31.984375 16.453125 27.125000
C16.453125 25.718750 16.250000 23.171875 14.546875 20.953125
C13.046875 18.984375 11.343750 18.984375 9.703125 18.781250
C9.453125 18.781250 8.296875 18.781250 8.093750 18.781250
C7.750000 18.718750 7.546875 18.656250 7.546875 18.281250
C7.546875 17.890625 7.593750 17.828125 8.593750 17.828125z"/>
<path id="CMR17-52" d="M16.796875 32.890625
C16.796875 33.953125 16.750000 34.000000 15.843750 34.000000
L1.000000 10.046875L1.000000 8.765625L13.906250 8.765625L13.906250 3.640625
C13.906250 1.781250 13.796875 1.250000 10.296875 1.250000L9.343750 1.250000
L9.343750 0.000000C10.953125 0.000000 13.656250 0.000000 15.343750 0.000000
C17.046875 0.000000 19.750000 0.000000 21.343750 0.000000
L21.343750 1.250000L20.406250 1.250000
C16.906250 1.250000 16.796875 1.781250 16.796875 3.640625
L16.796875 8.765625L21.906250 8.765625L21.906250 10.046875
L16.796875 10.046875zM14.046875 29.546875L14.046875 10.046875
L2.000000 10.046875z"/>
<path id="CMR17-53" d="M5.703125 29.843750
C6.203125 29.640625 8.250000 29.000000 10.343750 29.000000
C15.000000 29.000000 17.546875 31.500000 19.000000 32.953125
C19.000000 33.359375 19.000000 33.625000 18.703125 33.625000
C18.656250 33.625000 18.546875 33.625000 18.156250 33.421875
C16.406250 32.640625 14.343750 32.031250 11.843750 32.031250
C10.343750 32.031250 8.093750 32.234375 5.656250 33.375000
C5.093750 33.625000 5.000000 33.625000 4.953125 33.625000
C4.703125 33.625000 4.656250 33.578125 4.656250 32.578125
L4.656250 18.140625
C4.656250 17.250000 4.656250 17.000000 5.156250 17.000000
C5.406250 17.000000 5.500000 17.109375 5.750000 17.500000
C7.343750 20.046875 9.546875 21.109375 12.046875 21.109375
C13.796875 21.109375 17.546875 19.984375 17.546875 11.281250
C17.546875 9.640625 17.546875 6.703125 16.046875 4.359375
C14.796875 2.265625 12.843750 1.187500 10.703125 1.187500
C7.406250 1.187500 4.046875 3.515625 3.156250 7.375000
C3.343750 7.328125 3.750000 7.218750 3.953125 7.218750
C4.593750 7.218750 5.843750 7.562500 5.843750 9.109375
C5.843750 10.453125 4.906250 11.000000 3.953125 11.000000
C2.796875 11.000000 2.046875 10.296875 2.046875 8.890625
C2.046875 4.546875 5.500000 0.000000 10.796875 0.000000
C15.953125 0.000000 20.843750 4.531250 20.843750 11.078125
C20.843750 17.171875 16.953125 21.890625 12.093750 21.890625
C9.546875 21.890625 7.406250 20.875000 5.703125 18.906250z"/>
<path id="CMR17-49" d="M13.296875 31.906250
C13.296875 32.953125 13.250000 33.000000 12.546875 33.000000
C10.593750 30.781250 7.656250 30.093750 4.843750 30.093750
C4.703125 30.093750 4.453125 30.093750 4.406250 29.953125
C4.343750 29.859375 4.343750 29.750000 4.343750 28.718750
C5.906250 28.718750 8.500000 29.015625 10.500000 30.187500
L10.500000 3.625000C10.500000 1.843750 10.406250 1.250000 6.093750 1.250000
L4.593750 1.250000L4.593750 0.000000
C7.000000 0.000000 9.500000 0.000000 11.906250 0.000000
C14.296875 0.000000 16.796875 0.000000 19.203125 0.000000
L19.203125 1.250000L17.703125 1.250000
C13.406250 1.250000 13.296875 1.796875 13.296875 3.609375z"/>
<path id="CMR17-48" d="M21.000000 16.875000
C21.000000 19.921875 20.953125 25.140625 18.843750 29.140625
C17.000000 32.656250 14.046875 33.890625 11.453125 33.890625
C9.046875 33.890625 6.000000 32.796875 4.093750 29.187500
C2.093750 25.437500 1.906250 20.765625 1.906250 16.875000
C1.906250 14.015625 1.953125 9.656250 3.500000 5.859375
C5.656250 0.703125 9.500000 0.000000 11.453125 0.000000
C13.750000 0.000000 17.250000 0.953125 19.296875 5.703125
C20.796875 9.156250 21.000000 13.218750 21.000000 16.875000
M11.453125 0.796875C8.250000 0.796875 6.343750 3.546875 5.656250 7.359375
C5.093750 10.312500 5.093750 14.625000 5.093750 17.437500
C5.093750 21.281250 5.093750 24.500000 5.750000 27.562500
C6.703125 31.796875 9.500000 33.109375 11.453125 33.109375
C13.500000 33.109375 16.156250 31.750000 17.093750 27.656250
C17.750000 24.796875 17.796875 21.437500 17.796875 17.437500
C17.796875 14.171875 17.796875 10.171875 17.203125 7.218750
C16.156250 1.750000 13.203125 0.796875 11.453125 0.796875"/>
</defs>
<g style="fill: #000000; opacity: 1.000000" transform="translate(293.611816,177.322943)scale(0.160000,-0.160000)">
<use xlink:href="#CMR17-53" x="0.000000" y="0.000000" transform="scale(0.996264)"/>
<use xlink:href="#CMR17-48" x="22.930908" y="0.000000" transform="scale(0.996264)"/>
<use xlink:href="#CMR17-48" x="45.861816" y="0.000000" transform="scale(0.996264)"/>
</g><!-- style -->
</g>
</g>
</g>
<g id="matplotlib.axis2">
<g id="ytick1">
<g id="line2d14">
<defs><path id="m3400efa6b1638b3fea9e19e898273957" d="M0.000000 0.000000L4.000000 0.000000"/></defs>
<g ><use style="fill: none; stroke: #000000; stroke-width: 0.500000; stroke-linejoin: round; stroke-linecap: butt;  opacity: 1.000000" xlink:href="#m3400efa6b1638b3fea9e19e898273957" x="42.519685" y="168.186640"/>
</g></g>
<g id="line2d15">
<defs><path id="m20b58b2501143cb5e0a5e8f1ef6f1643" d="M0.000000 0.000000L-4.000000 0.000000"/></defs>
<g ><use style="fill: none; stroke: #000000; stroke-width: 0.500000; stroke-linejoin: round; stroke-linecap: butt;  opacity: 1.000000" xlink:href="#m20b58b2501143cb5e0a5e8f1ef6f1643" x="306.141732" y="168.186640"/>
</g></g>
<g id="text7">
<defs>
<path id="CMSY10-0" d="M32.953125 11.281250
C33.796875 11.281250 34.703125 11.281250 34.703125 12.281250
C34.703125 13.281250 33.796875 13.281250 32.953125 13.281250
L5.906250 13.281250
C5.046875 13.281250 4.156250 13.281250 4.156250 12.281250
C4.156250 11.281250 5.046875 11.281250 5.906250 11.281250z"/>
<path id="CMR17-50" d="M20.843750 7.609375L19.953125 7.609375
C19.453125 4.156250 19.046875 3.562500 18.843750 3.265625
C18.593750 2.890625 15.000000 2.890625 14.296875 2.890625L4.703125 2.890625
C6.500000 4.843750 10.000000 8.390625 14.250000 12.500000
C17.296875 15.390625 20.843750 18.796875 20.843750 23.750000
C20.843750 29.656250 16.156250 33.046875 10.906250 33.046875
C5.406250 33.046875 2.046875 27.984375 2.046875 23.296875
C2.046875 21.265625 3.500000 21.000000 4.093750 21.000000
C4.593750 21.000000 6.093750 21.296875 6.093750 23.046875
C6.093750 24.593750 4.796875 25.031250 4.093750 25.031250
C3.796875 25.031250 3.500000 24.984375 3.296875 24.875000
C4.250000 29.500000 7.156250 31.765625 10.203125 31.765625
C14.546875 31.765625 17.406250 28.328125 17.406250 23.765625
C17.406250 19.406250 14.843750 15.656250 12.000000 12.406250
L2.046875 1.140625L2.046875 0.000000L19.656250 0.000000z"/>
<path id="CMR17-51" d="M11.046875 17.828125
C15.500000 17.828125 17.453125 13.968750 17.453125 9.500000
C17.453125 3.500000 14.250000 1.187500 11.343750 1.187500
C8.703125 1.187500 4.406250 2.421875 3.046875 6.093750
C3.296875 6.000000 3.546875 6.000000 3.796875 6.000000
C5.000000 6.000000 5.906250 6.796875 5.906250 8.093750
C5.906250 9.546875 4.796875 10.187500 3.796875 10.187500
C2.953125 10.187500 1.656250 9.796875 1.656250 8.000000
C1.656250 3.500000 6.156250 0.000000 11.453125 0.000000
C17.000000 0.000000 21.250000 4.359375 21.250000 9.468750
C21.250000 14.312500 17.250000 17.828125 12.500000 18.375000
C16.296875 19.187500 19.953125 22.609375 19.953125 27.187500
C19.953125 31.109375 16.000000 33.968750 11.500000 33.968750
C6.953125 33.968750 2.953125 31.140625 2.953125 27.078125
C2.953125 25.296875 4.250000 25.000000 4.906250 25.000000
C5.953125 25.000000 6.843750 25.656250 6.843750 26.937500
C6.843750 28.234375 5.953125 28.890625 4.906250 28.890625
C4.703125 28.890625 4.453125 28.890625 4.250000 28.796875
C5.703125 32.218750 9.656250 32.843750 11.406250 32.843750
C13.156250 32.843750 16.453125 31.984375 16.453125 27.125000
C16.453125 25.718750 16.250000 23.171875 14.546875 20.953125
C13.046875 18.984375 11.343750 18.984375 9.703125 18.781250
C9.453125 18.781250 8.296875 18.781250 8.093750 18.781250
C7.750000 18.718750 7.546875 18.656250 7.546875 18.281250
C7.546875 17.890625 7.593750 17.828125 8.593750 17.828125z"/>
<path id="CMR17-52" d="M16.796875 32.890625
C16.796875 33.953125 16.750000 34.000000 15.843750 34.000000
L1.000000 10.046875L1.000000 8.765625L13.906250 8.765625L13.906250 3.640625
C13.906250 1.781250 13.796875 1.250000 10.296875 1.250000L9.343750 1.250000
L9.343750 0.000000C10.953125 0.000000 13.656250 0.000000 15.343750 0.000000
C17.046875 0.000000 19.750000 0.000000 21.343750 0.000000
L21.343750 1.250000L20.406250 1.250000
C16.906250 1.250000 16.796875 1.781250 16.796875 3.640625
L16.796875 8.765625L21.906250 8.765625L21.906250 10.046875
L16.796875 10.046875zM14.046875 29.546875L14.046875 10.046875
L2.000000 10.046875z"/>
<path id="CMR17-53" d="M5.703125 29.843750
C6.203125 29.640625 8.250000 29.000000 10.343750 29.000000
C15.000000 29.000000 17.546875 31.500000 19.000000 32.953125
C19.000000 33.359375 19.000000 33.625000 18.703125 33.625000
C18.656250 33.625000 18.546875 33.625000 18.156250 33.421875
C16.406250 32.640625 14.343750 32.031250 11.843750 32.031250
C10.343750 32.031250 8.093750 32.234375 5.656250 33.375000
C5.093750 33.625000 5.000000 33.625000 4.953125 33.625000
C4.703125 33.625000 4.656250 33.578125 4.656250 32.578125
L4.656250 18.140625
C4.656250 17.250000 4.656250 17.000000 5.156250 17.000000
C5.406250 17.000000 5.500000 17.109375 5.750000 17.500000
C7.343750 20.046875 9.546875 21.109375 12.046875 21.109375
C13.796875 21.109375 17.546875 19.984375 17.546875 11.281250
C17.546875 9.640625 17.546875 6.703125 16.046875 4.359375
C14.796875 2.265625 12.843750 1.187500 10.703125 1.187500
C7.406250 1.187500 4.046875 3.515625 3.156250 7.375000
C3.343750 7.328125 3.750000 7.218750 3.953125 7.218750
C4.593750 7.218750 5.843750 7.562500 5.843750 9.109375
C5.843750 10.453125 4.906250 11.000000 3.953125 11.000000
C2.796875 11.000000 2.046875 10.296875 2.046875 8.890625
C2.046875 4.546875 5.500000 0.000000 10.796875 0.000000
C15.953125 0.000000 20.843750 4.531250 20.843750 11.078125
C20.843750 17.171875 16.953125 21.890625 12.093750 21.890625
C9.546875 21.890625 7.406250 20.875000 5.703125 18.906250z"/>
<path id="CMR17-49" d="M13.296875 31.906250
C13.296875 32.953125 13.250000 33.000000 12.546875 33.000000
C10.593750 30.781250 7.656250 30.093750 4.843750 30.093750
C4.703125 30.093750 4.453125 30.093750 4.406250 29.953125
C4.343750 29.859375 4.343750 29.750000 4.343750 28.718750
C5.906250 28.718750 8.500000 29.015625 10.500000 30.187500
L10.500000 3.625000C10.500000 1.843750 10.406250 1.250000 6.093750 1.250000
L4.593750 1.250000L4.593750 0.000000
C7.000000 0.000000 9.500000 0.000000 11.906250 0.000000
C14.296875 0.000000 16.796875 0.000000 19.203125 0.000000
L19.203125 1.250000L17.703125 1.250000
C13.406250 1.250000 13.296875 1.796875 13.296875 3.609375z"/>
<path id="CMR17-48" d="M21.000000 16.875000
C21.000000 19.921875 20.953125 25.140625 18.843750 29.140625
C17.000000 32.656250 14.046875 33.890625 11.453125 33.890625
C9.046875 33.890625 6.000000 32.796875 4.093750 29.187500
C2.093750 25.437500 1.906250 20.765625 1.906250 16.875000
C1.906250 14.015625 1.953125 9.656250 3.500000 5.859375
C5.656250 0.703125 9.500000 0.000000 11.453125 0.000000
C13.750000 0.000000 17.250000 0.953125 19.296875 5.703125
C20.796875 9.156250 21.000000 13.218750 21.000000 16.875000
M11.453125 0.796875C8.250000 0.796875 6.343750 3.546875 5.656250 7.359375
C5.093750 10.312500 5.093750 14.625000 5.093750 17.437500
C5.093750 21.281250 5.093750 24.500000 5.750000 27.562500
C6.703125 31.796875 9.500000 33.109375 11.453125 33.109375
C13.500000 33.109375 16.156250 31.750000 17.093750 27.656250
C17.750000 24.796875 17.796875 21.437500 17.796875 17.437500
C17.796875 14.171875 17.796875 10.171875 17.203125 7.218750
C16.156250 1.750000 13.203125 0.796875 11.453125 0.796875"/>
<path id="CMMI12-58" d="M9.203125 2.390625C9.203125 3.843750 8.000000 4.843750 6.796875 4.843750
C5.343750 4.843750 4.343750 3.640625 4.343750 2.437500
C4.343750 1.000000 5.546875 0.000000 6.750000 0.000000
C8.203125 0.000000 9.203125 1.203125 9.203125 2.390625"/>
</defs>
<g style="fill: #000000; opacity: 1.000000" transform="translate(16.878306,171.169922)scale(0.160000,-0.160000)">
<use xlink:href="#CMSY10-0" x="0.000000" y="4.166687" transform="scale(0.996264)"/>
<use xlink:href="#CMR17-48" x="38.889023" y="4.166687" transform="scale(0.996264)"/>
<use xlink:href="#CMMI12-58" x="61.819931" y="4.166687" transform="scale(0.996264)"/>
<use xlink:href="#CMR17-48" x="75.419327" y="4.166687" transform="scale(0.996264)"/>
<use xlink:href="#CMR17-49" x="98.350235" y="4.166687" transform="scale(0.996264)"/>
</g><!-- style -->
</g>
</g>
<g id="ytick2">
<g id="line2d16">
<g ><use style="fill: none; stroke: #000000; stroke-width: 0.500000; stroke-linejoin: round; stroke-linecap: butt;  opacity: 1.000000" xlink:href="#m3400efa6b1638b3fea9e19e898273957" x="42.519685" y="138.753978"/>
</g></g>
<g id="line2d17">
<g ><use style="fill: none; stroke: #000000; stroke-width: 0.500000; stroke-linejoin: round; stroke-linecap: butt;  opacity: 1.000000" xlink:href="#m20b58b2501143cb5e0a5e8f1ef6f1643" x="306.141732" y="138.753978"/>
</g></g>
<g id="text8">
<defs>
<path id="CMSY10-0" d="M32.953125 11.281250
C33.796875 11.281250 34.703125 11.281250 34.703125 12.281250
C34.703125 13.281250 33.796875 13.281250 32.953125 13.281250
L5.906250 13.281250
C5.046875 13.281250 4.156250 13.281250 4.156250 12.281250
C4.156250 11.281250 5.046875 11.281250 5.906250 11.281250z"/>
<path id="CMR17-50" d="M20.843750 7.609375L19.953125 7.609375
C19.453125 4.156250 19.046875 3.562500 18.843750 3.265625
C18.593750 2.890625 15.000000 2.890625 14.296875 2.890625L4.703125 2.890625
C6.500000 4.843750 10.000000 8.390625 14.250000 12.500000
C17.296875 15.390625 20.843750 18.796875 20.843750 23.750000
C20.843750 29.656250 16.156250 33.046875 10.906250 33.046875
C5.406250 33.046875 2.046875 27.984375 2.046875 23.296875
C2.046875 21.265625 3.500000 21.000000 4.093750 21.000000
C4.593750 21.000000 6.093750 21.296875 6.093750 23.046875
C6.093750 24.593750 4.796875 25.031250 4.093750 25.031250
C3.796875 25.031250 3.500000 24.984375 3.296875 24.875000
C4.250000 29.500000 7.156250 31.765625 10.203125 31.765625
C14.546875 31.765625 17.406250 28.328125 17.406250 23.765625
C17.406250 19.406250 14.843750 15.656250 12.000000 12.406250
L2.046875 1.140625L2.046875 0.000000L19.656250 0.000000z"/>
<path id="CMR17-51" d="M11.046875 17.828125
C15.500000 17.828125 17.453125 13.968750 17.453125 9.500000
C17.453125 3.500000 14.250000 1.187500 11.343750 1.187500
C8.703125 1.187500 4.406250 2.421875 3.046875 6.093750
C3.296875 6.000000 3.546875 6.000000 3.796875 6.000000
C5.000000 6.000000 5.906250 6.796875 5.906250 8.093750
C5.906250 9.546875 4.796875 10.187500 3.796875 10.187500
C2.953125 10.187500 1.656250 9.796875 1.656250 8.000000
C1.656250 3.500000 6.156250 0.000000 11.453125 0.000000
C17.000000 0.000000 21.250000 4.359375 21.250000 9.468750
C21.250000 14.312500 17.250000 17.828125 12.500000 18.375000
C16.296875 19.187500 19.953125 22.609375 19.953125 27.187500
C19.953125 31.109375 16.000000 33.968750 11.500000 33.968750
C6.953125 33.968750 2.953125 31.140625 2.953125 27.078125
C2.953125 25.296875 4.250000 25.000000 4.906250 25.000000
C5.953125 25.000000 6.843750 25.656250 6.843750 26.937500
C6.843750 28.234375 5.953125 28.890625 4.906250 28.890625
C4.703125 28.890625 4.453125 28.890625 4.250000 28.796875
C5.703125 32.218750 9.656250 32.843750 11.406250 32.843750
C13.156250 32.843750 16.453125 31.984375 16.453125 27.125000
C16.453125 25.718750 16.250000 23.171875 14.546875 20.953125
C13.046875 18.984375 11.343750 18.984375 9.703125 18.781250
C9.453125 18.781250 8.296875 18.781250 8.093750 18.781250
C7.750000 18.718750 7.546875 18.656250 7.546875 18.281250
C7.546875 17.890625 7.593750 17.828125 8.593750 17.828125z"/>
<path id="CMR17-52" d="M16.796875 32.890625
C16.796875 33.953125 16.750000 34.000000 15.843750 34.000000
L1.000000 10.046875L1.000000 8.765625L13.906250 8.765625L13.906250 3.640625
C13.906250 1.781250 13.796875 1.250000 10.296875 1.250000L9.343750 1.250000
L9.343750 0.000000C10.953125 0.000000 13.656250 0.000000 15.343750 0.000000
C17.046875 0.000000 19.750000 0.000000 21.343750 0.000000
L21.343750 1.250000L20.406250 1.250000
C16.906250 1.250000 16.796875 1.781250 16.796875 3.640625
L16.796875 8.765625L21.906250 8.765625L21.906250 10.046875
L16.796875 10.046875zM14.046875 29.546875L14.046875 10.046875
L2.000000 10.046875z"/>
<path id="CMR17-53" d="M5.703125 29.843750
C6.203125 29.640625 8.250000 29.000000 10.343750 29.000000
C15.000000 29.000000 17.546875 31.500000 19.000000 32.953125
C19.000000 33.359375 19.000000 33.625000 18.703125 33.625000
C18.656250 33.625000 18.546875 33.625000 18.156250 33.421875
C16.406250 32.640625 14.343750 32.031250 11.843750 32.031250
C10.343750 32.031250 8.093750 32.234375 5.656250 33.375000
C5.093750 33.625000 5.000000 33.625000 4.953125 33.625000
C4.703125 33.625000 4.656250 33.578125 4.656250 32.578125
L4.656250 18.140625
C4.656250 17.250000 4.656250 17.000000 5.156250 17.000000
C5.406250 17.000000 5.500000 17.109375 5.750000 17.500000
C7.343750 20.046875 9.546875 21.109375 12.046875 21.109375
C13.796875 21.109375 17.546875 19.984375 17.546875 11.281250
C17.546875 9.640625 17.546875 6.703125 16.046875 4.359375
C14.796875 2.265625 12.843750 1.187500 10.703125 1.187500
C7.406250 1.187500 4.046875 3.515625 3.156250 7.375000
C3.343750 7.328125 3.750000 7.218750 3.953125 7.218750
C4.593750 7.218750 5.843750 7.562500 5.843750 9.109375
C5.843750 10.453125 4.906250 11.000000 3.953125 11.000000
C2.796875 11.000000 2.046875 10.296875 2.046875 8.890625
C2.046875 4.546875 5.500000 0.000000 10.796875 0.000000
C15.953125 0.000000 20.843750 4.531250 20.843750 11.078125
C20.843750 17.171875 16.953125 21.890625 12.093750 21.890625
C9.546875 21.890625 7.406250 20.875000 5.703125 18.906250z"/>
<path id="CMR17-49" d="M13.296875 31.906250
C13.296875 32.953125 13.250000 33.000000 12.546875 33.000000
C10.593750 30.781250 7.656250 30.093750 4.843750 30.093750
C4.703125 30.093750 4.453125 30.093750 4.406250 29.953125
C4.343750 29.859375 4.343750 29.750000 4.343750 28.718750
C5.906250 28.718750 8.500000 29.015625 10.500000 30.187500
L10.500000 3.625000C10.500000 1.843750 10.406250 1.250000 6.093750 1.250000
L4.593750 1.250000L4.593750 0.000000
C7.000000 0.000000 9.500000 0.000000 11.906250 0.000000
C14.296875 0.000000 16.796875 0.000000 19.203125 0.000000
L19.203125 1.250000L17.703125 1.250000
C13.406250 1.250000 13.296875 1.796875 13.296875 3.609375z"/>
<path id="CMR17-48" d="M21.000000 16.875000
C21.000000 19.921875 20.953125 25.140625 18.843750 29.140625
C17.000000 32.656250 14.046875 33.890625 11.453125 33.890625
C9.046875 33.890625 6.000000 32.796875 4.093750 29.187500
C2.093750 25.437500 1.906250 20.765625 1.906250 16.875000
C1.906250 14.015625 1.953125 9.656250 3.500000 5.859375
C5.656250 0.703125 9.500000 0.000000 11.453125 0.000000
C13.750000 0.000000 17.250000 0.953125 19.296875 5.703125
C20.796875 9.156250 21.000000 13.218750 21.000000 16.875000
M11.453125 0.796875C8.250000 0.796875 6.343750 3.546875 5.656250 7.359375
C5.093750 10.312500 5.093750 14.625000 5.093750 17.437500
C5.093750 21.281250 5.093750 24.500000 5.750000 27.562500
C6.703125 31.796875 9.500000 33.109375 11.453125 33.109375
C13.500000 33.109375 16.156250 31.750000 17.093750 27.656250
C17.750000 24.796875 17.796875 21.437500 17.796875 17.437500
C17.796875 14.171875 17.796875 10.171875 17.203125 7.218750
C16.156250 1.750000 13.203125 0.796875 11.453125 0.796875"/>
<path id="CMMI12-58" d="M9.203125 2.390625C9.203125 3.843750 8.000000 4.843750 6.796875 4.843750
C5.343750 4.843750 4.343750 3.640625 4.343750 2.437500
C4.343750 1.000000 5.546875 0.000000 6.750000 0.000000
C8.203125 0.000000 9.203125 1.203125 9.203125 2.390625"/>
</defs>
<g style="fill: #000000; opacity: 1.000000" transform="translate(23.464813,141.322129)scale(0.160000,-0.160000)">
<use xlink:href="#CMR17-48" x="0.000000" y="0.000000" transform="scale(0.996264)"/>
<use xlink:href="#CMMI12-58" x="22.930908" y="0.000000" transform="scale(0.996264)"/>
<use xlink:href="#CMR17-48" x="36.530304" y="0.000000" transform="scale(0.996264)"/>
<use xlink:href="#CMR17-48" x="59.461212" y="0.000000" transform="scale(0.996264)"/>
</g><!-- style -->
</g>
</g>
<g id="ytick3">
<g id="line2d18">
<g ><use style="fill: none; stroke: #000000; stroke-width: 0.500000; stroke-linejoin: round; stroke-linecap: butt;  opacity: 1.000000" xlink:href="#m3400efa6b1638b3fea9e19e898273957" x="42.519685" y="109.321316"/>
</g></g>
<g id="line2d19">
<g ><use style="fill: none; stroke: #000000; stroke-width: 0.500000; stroke-linejoin: round; stroke-linecap: butt;  opacity: 1.000000" xlink:href="#m20b58b2501143cb5e0a5e8f1ef6f1643" x="306.141732" y="109.321316"/>
</g></g>
<g id="text9">
<defs>
<path id="CMSY10-0" d="M32.953125 11.281250
C33.796875 11.281250 34.703125 11.281250 34.703125 12.281250
C34.703125 13.281250 33.796875 13.281250 32.953125 13.281250
L5.906250 13.281250
C5.046875 13.281250 4.156250 13.281250 4.156250 12.281250
C4.156250 11.281250 5.046875 11.281250 5.906250 11.281250z"/>
<path id="CMR17-50" d="M20.843750 7.609375L19.953125 7.609375
C19.453125 4.156250 19.046875 3.562500 18.843750 3.265625
C18.593750 2.890625 15.000000 2.890625 14.296875 2.890625L4.703125 2.890625
C6.500000 4.843750 10.000000 8.390625 14.250000 12.500000
C17.296875 15.390625 20.843750 18.796875 20.843750 23.750000
C20.843750 29.656250 16.156250 33.046875 10.906250 33.046875
C5.406250 33.046875 2.046875 27.984375 2.046875 23.296875
C2.046875 21.265625 3.500000 21.000000 4.093750 21.000000
C4.593750 21.000000 6.093750 21.296875 6.093750 23.046875
C6.093750 24.593750 4.796875 25.031250 4.093750 25.031250
C3.796875 25.031250 3.500000 24.984375 3.296875 24.875000
C4.250000 29.500000 7.156250 31.765625 10.203125 31.765625
C14.546875 31.765625 17.406250 28.328125 17.406250 23.765625
C17.406250 19.406250 14.843750 15.656250 12.000000 12.406250
L2.046875 1.140625L2.046875 0.000000L19.656250 0.000000z"/>
<path id="CMR17-51" d="M11.046875 17.828125
C15.500000 17.828125 17.453125 13.968750 17.453125 9.500000
C17.453125 3.500000 14.250000 1.187500 11.343750 1.187500
C8.703125 1.187500 4.406250 2.421875 3.046875 6.093750
C3.296875 6.000000 3.546875 6.000000 3.796875 6.000000
C5.000000 6.000000 5.906250 6.796875 5.906250 8.093750
C5.906250 9.546875 4.796875 10.187500 3.796875 10.187500
C2.953125 10.187500 1.656250 9.796875 1.656250 8.000000
C1.656250 3.500000 6.156250 0.000000 11.453125 0.000000
C17.000000 0.000000 21.250000 4.359375 21.250000 9.468750
C21.250000 14.312500 17.250000 17.828125 12.500000 18.375000
C16.296875 19.187500 19.953125 22.609375 19.953125 27.187500
C19.953125 31.109375 16.000000 33.968750 11.500000 33.968750
C6.953125 33.968750 2.953125 31.140625 2.953125 27.078125
C2.953125 25.296875 4.250000 25.000000 4.906250 25.000000
C5.953125 25.000000 6.843750 25.656250 6.843750 26.937500
C6.843750 28.234375 5.953125 28.890625 4.906250 28.890625
C4.703125 28.890625 4.453125 28.890625 4.250000 28.796875
C5.703125 32.218750 9.656250 32.843750 11.406250 32.843750
C13.156250 32.843750 16.453125 31.984375 16.453125 27.125000
C16.453125 25.718750 16.250000 23.171875 14.546875 20.953125
C13.046875 18.984375 11.343750 18.984375 9.703125 18.781250
C9.453125 18.781250 8.296875 18.781250 8.093750 18.781250
C7.750000 18.718750 7.546875 18.656250 7.546875 18.281250
C7.546875 17.890625 7.593750 17.828125 8.593750 17.828125z"/>
<path id="CMR17-52" d="M16.796875 32.890625
C16.796875 33.953125 16.750000 34.000000 15.843750 34.000000
L1.000000 10.046875L1.000000 8.765625L13.906250 8.765625L13.906250 3.640625
C13.906250 1.781250 13.796875 1.250000 10.296875 1.250000L9.343750 1.250000
L9.343750 0.000000C10.953125 0.000000 13.656250 0.000000 15.343750 0.000000
C17.046875 0.000000 19.750000 0.000000 21.343750 0.000000
L21.343750 1.250000L20.406250 1.250000
C16.906250 1.250000 16.796875 1.781250 16.796875 3.640625
L16.796875 8.765625L21.906250 8.765625L21.906250 10.046875
L16.796875 10.046875zM14.046875 29.546875L14.046875 10.046875
L2.000000 10.046875z"/>
<path id="CMR17-53" d="M5.703125 29.843750
C6.203125 29.640625 8.250000 29.000000 10.343750 29.000000
C15.000000 29.000000 17.546875 31.500000 19.000000 32.953125
C19.000000 33.359375 19.000000 33.625000 18.703125 33.625000
C18.656250 33.625000 18.546875 33.625000 18.156250 33.421875
C16.406250 32.640625 14.343750 32.031250 11.843750 32.031250
C10.343750 32.031250 8.093750 32.234375 5.656250 33.375000
C5.093750 33.625000 5.000000 33.625000 4.953125 33.625000
C4.703125 33.625000 4.656250 33.578125 4.656250 32.578125
L4.656250 18.140625
C4.656250 17.250000 4.656250 17.000000 5.156250 17.000000
C5.406250 17.000000 5.500000 17.109375 5.750000 17.500000
C7.343750 20.046875 9.546875 21.109375 12.046875 21.109375
C13.796875 21.109375 17.546875 19.984375 17.546875 11.281250
C17.546875 9.640625 17.546875 6.703125 16.046875 4.359375
C14.796875 2.265625 12.843750 1.187500 10.703125 1.187500
C7.406250 1.187500 4.046875 3.515625 3.156250 7.375000
C3.343750 7.328125 3.750000 7.218750 3.953125 7.218750
C4.593750 7.218750 5.843750 7.562500 5.843750 9.109375
C5.843750 10.453125 4.906250 11.000000 3.953125 11.000000
C2.796875 11.000000 2.046875 10.296875 2.046875 8.890625
C2.046875 4.546875 5.500000 0.000000 10.796875 0.000000
C15.953125 0.000000 20.843750 4.531250 20.843750 11.078125
C20.843750 17.171875 16.953125 21.890625 12.093750 21.890625
C9.546875 21.890625 7.406250 20.875000 5.703125 18.906250z"/>
<path id="CMR17-49" d="M13.296875 31.906250
C13.296875 32.953125 13.250000 33.000000 12.546875 33.000000
C10.593750 30.781250 7.656250 30.093750 4.843750 30.093750
C4.703125 30.093750 4.453125 30.093750 4.406250 29.953125
C4.343750 29.859375 4.343750 29.750000 4.343750 28.718750
C5.906250 28.718750 8.500000 29.015625 10.500000 30.187500
L10.500000 3.625000C10.500000 1.843750 10.406250 1.250000 6.093750 1.250000
L4.593750 1.250000L4.593750 0.000000
C7.000000 0.000000 9.500000 0.000000 11.906250 0.000000
C14.296875 0.000000 16.796875 0.000000 19.203125 0.000000
L19.203125 1.250000L17.703125 1.250000
C13.406250 1.250000 13.296875 1.796875 13.296875 3.609375z"/>
<path id="CMR17-48" d="M21.000000 16.875000
C21.000000 19.921875 20.953125 25.140625 18.843750 29.140625
C17.000000 32.656250 14.046875 33.890625 11.453125 33.890625
C9.046875 33.890625 6.000000 32.796875 4.093750 29.187500
C2.093750 25.437500 1.906250 20.765625 1.906250 16.875000
C1.906250 14.015625 1.953125 9.656250 3.500000 5.859375
C5.656250 0.703125 9.500000 0.000000 11.453125 0.000000
C13.750000 0.000000 17.250000 0.953125 19.296875 5.703125
C20.796875 9.156250 21.000000 13.218750 21.000000 16.875000
M11.453125 0.796875C8.250000 0.796875 6.343750 3.546875 5.656250 7.359375
C5.093750 10.312500 5.093750 14.625000 5.093750 17.437500
C5.093750 21.281250 5.093750 24.500000 5.750000 27.562500
C6.703125 31.796875 9.500000 33.109375 11.453125 33.109375
C13.500000 33.109375 16.156250 31.750000 17.093750 27.656250
C17.750000 24.796875 17.796875 21.437500 17.796875 17.437500
C17.796875 14.171875 17.796875 10.171875 17.203125 7.218750
C16.156250 1.750000 13.203125 0.796875 11.453125 0.796875"/>
<path id="CMMI12-58" d="M9.203125 2.390625C9.203125 3.843750 8.000000 4.843750 6.796875 4.843750
C5.343750 4.843750 4.343750 3.640625 4.343750 2.437500
C4.343750 1.000000 5.546875 0.000000 6.750000 0.000000
C8.203125 0.000000 9.203125 1.203125 9.203125 2.390625"/>
</defs>
<g style="fill: #000000; opacity: 1.000000" transform="translate(23.464813,111.889467)scale(0.160000,-0.160000)">
<use xlink:href="#CMR17-48" x="0.000000" y="0.000000" transform="scale(0.996264)"/>
<use xlink:href="#CMMI12-58" x="22.930908" y="0.000000" transform="scale(0.996264)"/>
<use xlink:href="#CMR17-48" x="36.530304" y="0.000000" transform="scale(0.996264)"/>
<use xlink:href="#CMR17-49" x="59.461212" y="0.000000" transform="scale(0.996264)"/>
</g><!-- style -->
</g>
</g>
<g id="ytick4">
<g id="line2d20">
<g ><use style="fill: none; stroke: #000000; stroke-width: 0.500000; stroke-linejoin: round; stroke-linecap: butt;  opacity: 1.000000" xlink:href="#m3400efa6b1638b3fea9e19e898273957" x="42.519685" y="79.888654"/>
</g></g>
<g id="line2d21">
<g ><use style="fill: none; stroke: #000000; stroke-width: 0.500000; stroke-linejoin: round; stroke-linecap: butt;  opacity: 1.000000" xlink:href="#m20b58b2501143cb5e0a5e8f1ef6f1643" x="306.141732" y="79.888654"/>
</g></g>
<g id="text10">
<defs>
<path id="CMSY10-0" d="M32.953125 11.281250
C33.796875 11.281250 34.703125 11.281250 34.703125 12.281250
C34.703125 13.281250 33.796875 13.281250 32.953125 13.281250
L5.906250 13.281250
C5.046875 13.281250 4.156250 13.281250 4.156250 12.281250
C4.156250 11.281250 5.046875 11.281250 5.906250 11.281250z"/>
<path id="CMR17-50" d="M20.843750 7.609375L19.953125 7.609375
C19.453125 4.156250 19.046875 3.562500 18.843750 3.265625
C18.593750 2.890625 15.000000 2.890625 14.296875 2.890625L4.703125 2.890625
C6.500000 4.843750 10.000000 8.390625 14.250000 12.500000
C17.296875 15.390625 20.843750 18.796875 20.843750 23.750000
C20.843750 29.656250 16.156250 33.046875 10.906250 33.046875
C5.406250 33.046875 2.046875 27.984375 2.046875 23.296875
C2.046875 21.265625 3.500000 21.000000 4.093750 21.000000
C4.593750 21.000000 6.093750 21.296875 6.093750 23.046875
C6.093750 24.593750 4.796875 25.031250 4.093750 25.031250
C3.796875 25.031250 3.500000 24.984375 3.296875 24.875000
C4.250000 29.500000 7.156250 31.765625 10.203125 31.765625
C14.546875 31.765625 17.406250 28.328125 17.406250 23.765625
C17.406250 19.406250 14.843750 15.656250 12.000000 12.406250
L2.046875 1.140625L2.046875 0.000000L19.656250 0.000000z"/>
<path id="CMR17-51" d="M11.046875 17.828125
C15.500000 17.828125 17.453125 13.968750 17.453125 9.500000
C17.453125 3.500000 14.250000 1.187500 11.343750 1.187500
C8.703125 1.187500 4.406250 2.421875 3.046875 6.093750
C3.296875 6.000000 3.546875 6.000000 3.796875 6.000000
C5.000000 6.000000 5.906250 6.796875 5.906250 8.093750
C5.906250 9.546875 4.796875 10.187500 3.796875 10.187500
C2.953125 10.187500 1.656250 9.796875 1.656250 8.000000
C1.656250 3.500000 6.156250 0.000000 11.453125 0.000000
C17.000000 0.000000 21.250000 4.359375 21.250000 9.468750
C21.250000 14.312500 17.250000 17.828125 12.500000 18.375000
C16.296875 19.187500 19.953125 22.609375 19.953125 27.187500
C19.953125 31.109375 16.000000 33.968750 11.500000 33.968750
C6.953125 33.968750 2.953125 31.140625 2.953125 27.078125
C2.953125 25.296875 4.250000 25.000000 4.906250 25.000000
C5.953125 25.000000 6.843750 25.656250 6.843750 26.937500
C6.843750 28.234375 5.953125 28.890625 4.906250 28.890625
C4.703125 28.890625 4.453125 28.890625 4.250000 28.796875
C5.703125 32.218750 9.656250 32.843750 11.406250 32.843750
C13.156250 32.843750 16.453125 31.984375 16.453125 27.125000
C16.453125 25.718750 16.250000 23.171875 14.546875 20.953125
C13.046875 18.984375 11.343750 18.984375 9.703125 18.781250
C9.453125 18.781250 8.296875 18.781250 8.093750 18.781250
C7.750000 18.718750 7.546875 18.656250 7.546875 18.281250
C7.546875 17.890625 7.593750 17.828125 8.593750 17.828125z"/>
<path id="CMR17-52" d="M16.796875 32.890625
C16.796875 33.953125 16.750000 34.000000 15.843750 34.000000
L1.000000 10.046875L1.000000 8.765625L13.906250 8.765625L13.906250 3.640625
C13.906250 1.781250 13.796875 1.250000 10.296875 1.250000L9.343750 1.250000
L9.343750 0.000000C10.953125 0.000000 13.656250 0.000000 15.343750 0.000000
C17.046875 0.000000 19.750000 0.000000 21.343750 0.000000
L21.343750 1.250000L20.406250 1.250000
C16.906250 1.250000 16.796875 1.781250 16.796875 3.640625
L16.796875 8.765625L21.906250 8.765625L21.906250 10.046875
L16.796875 10.046875zM14.046875 29.546875L14.046875 10.046875
L2.000000 10.046875z"/>
<path id="CMR17-53" d="M5.703125 29.843750
C6.203125 29.640625 8.250000 29.000000 10.343750 29.000000
C15.000000 29.000000 17.546875 31.500000 19.000000 32.953125
C19.000000 33.359375 19.000000 33.625000 18.703125 33.625000
C18.656250 33.625000 18.546875 33.625000 18.156250 33.421875
C16.406250 32.640625 14.343750 32.031250 11.843750 32.031250
C10.343750 32.031250 8.093750 32.234375 5.656250 33.375000
C5.093750 33.625000 5.000000 33.625000 4.953125 33.625000
C4.703125 33.625000 4.656250 33.578125 4.656250 32.578125
L4.656250 18.140625
C4.656250 17.250000 4.656250 17.000000 5.156250 17.000000
C5.406250 17.000000 5.500000 17.109375 5.750000 17.500000
C7.343750 20.046875 9.546875 21.109375 12.046875 21.109375
C13.796875 21.109375 17.546875 19.984375 17.546875 11.281250
C17.546875 9.640625 17.546875 6.703125 16.046875 4.359375
C14.796875 2.265625 12.843750 1.187500 10.703125 1.187500
C7.406250 1.187500 4.046875 3.515625 3.156250 7.375000
C3.343750 7.328125 3.750000 7.218750 3.953125 7.218750
C4.593750 7.218750 5.843750 7.562500 5.843750 9.109375
C5.843750 10.453125 4.906250 11.000000 3.953125 11.000000
C2.796875 11.000000 2.046875 10.296875 2.046875 8.890625
C2.046875 4.546875 5.500000 0.000000 10.796875 0.000000
C15.953125 0.000000 20.843750 4.531250 20.843750 11.078125
C20.843750 17.171875 16.953125 21.890625 12.093750 21.890625
C9.546875 21.890625 7.406250 20.875000 5.703125 18.906250z"/>
<path id="CMR17-49" d="M13.296875 31.906250
C13.296875 32.953125 13.250000 33.000000 12.546875 33.000000
C10.593750 30.781250 7.656250 30.093750 4.843750 30.093750
C4.703125 30.093750 4.453125 30.093750 4.406250 29.953125
C4.343750 29.859375 4.343750 29.750000 4.343750 28.718750
C5.906250 28.718750 8.500000 29.015625 10.500000 30.187500
L10.500000 3.625000C10.500000 1.843750 10.406250 1.250000 6.093750 1.250000
L4.593750 1.250000L4.593750 0.000000
C7.000000 0.000000 9.500000 0.000000 11.906250 0.000000
C14.296875 0.000000 16.796875 0.000000 19.203125 0.000000
L19.203125 1.250000L17.703125 1.250000
C13.406250 1.250000 13.296875 1.796875 13.296875 3.609375z"/>
<path id="CMR17-48" d="M21.000000 16.875000
C21.000000 19.921875 20.953125 25.140625 18.843750 29.140625
C17.000000 32.656250 14.046875 33.890625 11.453125 33.890625
C9.046875 33.890625 6.000000 32.796875 4.093750 29.187500
C2.093750 25.437500 1.906250 20.765625 1.906250 16.875000
C1.906250 14.015625 1.953125 9.656250 3.500000 5.859375
C5.656250 0.703125 9.500000 0.000000 11.453125 0.000000
C13.750000 0.000000 17.250000 0.953125 19.296875 5.703125
C20.796875 9.156250 21.000000 13.218750 21.000000 16.875000
M11.453125 0.796875C8.250000 0.796875 6.343750 3.546875 5.656250 7.359375
C5.093750 10.312500 5.093750 14.625000 5.093750 17.437500
C5.093750 21.281250 5.093750 24.500000 5.750000 27.562500
C6.703125 31.796875 9.500000 33.109375 11.453125 33.109375
C13.500000 33.109375 16.156250 31.750000 17.093750 27.656250
C17.750000 24.796875 17.796875 21.437500 17.796875 17.437500
C17.796875 14.171875 17.796875 10.171875 17.203125 7.218750
C16.156250 1.750000 13.203125 0.796875 11.453125 0.796875"/>
<path id="CMMI12-58" d="M9.203125 2.390625C9.203125 3.843750 8.000000 4.843750 6.796875 4.843750
C5.343750 4.843750 4.343750 3.640625 4.343750 2.437500
C4.343750 1.000000 5.546875 0.000000 6.750000 0.000000
C8.203125 0.000000 9.203125 1.203125 9.203125 2.390625"/>
</defs>
<g style="fill: #000000; opacity: 1.000000" transform="translate(23.464813,82.456805)scale(0.160000,-0.160000)">
<use xlink:href="#CMR17-48" x="0.000000" y="0.000000" transform="scale(0.996264)"/>
<use xlink:href="#CMMI12-58" x="22.930908" y="0.000000" transform="scale(0.996264)"/>
<use xlink:href="#CMR17-48" x="36.530304" y="0.000000" transform="scale(0.996264)"/>
<use xlink:href="#CMR17-50" x="59.461212" y="0.000000" transform="scale(0.996264)"/>
</g><!-- style -->
</g>
</g>
<g id="ytick5">
<g id="line2d22">
<g ><use style="fill: none; stroke: #000000; stroke-width: 0.500000; stroke-linejoin: round; stroke-linecap: butt;  opacity: 1.000000" xlink:href="#m3400efa6b1638b3fea9e19e898273957" x="42.519685" y="50.455992"/>
</g></g>
<g id="line2d23">
<g ><use style="fill: none; stroke: #000000; stroke-width: 0.500000; stroke-linejoin: round; stroke-linecap: butt;  opacity: 1.000000" xlink:href="#m20b58b2501143cb5e0a5e8f1ef6f1643" x="306.141732" y="50.455992"/>
</g></g>
<g id="text11">
<defs>
<path id="CMSY10-0" d="M32.953125 11.281250
C33.796875 11.281250 34.703125 11.281250 34.703125 12.281250
C34.703125 13.281250 33.796875 13.281250 32.953125 13.281250
L5.906250 13.281250
C5.046875 13.281250 4.156250 13.281250 4.156250 12.281250
C4.156250 11.281250 5.046875 11.281250 5.906250 11.281250z"/>
<path id="CMR17-50" d="M20.843750 7.609375L19.953125 7.609375
C19.453125 4.156250 19.046875 3.562500 18.843750 3.265625
C18.593750 2.890625 15.000000 2.890625 14.296875 2.890625L4.703125 2.890625
C6.500000 4.843750 10.000000 8.390625 14.250000 12.500000
C17.296875 15.390625 20.843750 18.796875 20.843750 23.750000
C20.843750 29.656250 16.156250 33.046875 10.906250 33.046875
C5.406250 33.046875 2.046875 27.984375 2.046875 23.296875
C2.046875 21.265625 3.500000 21.000000 4.093750 21.000000
C4.593750 21.000000 6.093750 21.296875 6.093750 23.046875
C6.093750 24.593750 4.796875 25.031250 4.093750 25.031250
C3.796875 25.031250 3.500000 24.984375 3.296875 24.875000
C4.250000 29.500000 7.156250 31.765625 10.203125 31.765625
C14.546875 31.765625 17.406250 28.328125 17.406250 23.765625
C17.406250 19.406250 14.843750 15.656250 12.000000 12.406250
L2.046875 1.140625L2.046875 0.000000L19.656250 0.000000z"/>
<path id="CMR17-51" d="M11.046875 17.828125
C15.500000 17.828125 17.453125 13.968750 17.453125 9.500000
C17.453125 3.500000 14.250000 1.187500 11.343750 1.187500
C8.703125 1.187500 4.406250 2.421875 3.046875 6.093750
C3.296875 6.000000 3.546875 6.000000 3.796875 6.000000
C5.000000 6.000000 5.906250 6.796875 5.906250 8.093750
C5.906250 9.546875 4.796875 10.187500 3.796875 10.187500
C2.953125 10.187500 1.656250 9.796875 1.656250 8.000000
C1.656250 3.500000 6.156250 0.000000 11.453125 0.000000
C17.000000 0.000000 21.250000 4.359375 21.250000 9.468750
C21.250000 14.312500 17.250000 17.828125 12.500000 18.375000
C16.296875 19.187500 19.953125 22.609375 19.953125 27.187500
C19.953125 31.109375 16.000000 33.968750 11.500000 33.968750
C6.953125 33.968750 2.953125 31.140625 2.953125 27.078125
C2.953125 25.296875 4.250000 25.000000 4.906250 25.000000
C5.953125 25.000000 6.843750 25.656250 6.843750 26.937500
C6.843750 28.234375 5.953125 28.890625 4.906250 28.890625
C4.703125 28.890625 4.453125 28.890625 4.250000 28.796875
C5.703125 32.218750 9.656250 32.843750 11.406250 32.843750
C13.156250 32.843750 16.453125 31.984375 16.453125 27.125000
C16.453125 25.718750 16.250000 23.171875 14.546875 20.953125
C13.046875 18.984375 11.343750 18.984375 9.703125 18.781250
C9.453125 18.781250 8.296875 18.781250 8.093750 18.781250
C7.750000 18.718750 7.546875 18.656250 7.546875 18.281250
C7.546875 17.890625 7.593750 17.828125 8.593750 17.828125z"/>
<path id="CMR17-52" d="M16.796875 32.890625
C16.796875 33.953125 16.750000 34.000000 15.843750 34.000000
L1.000000 10.046875L1.000000 8.765625L13.906250 8.765625L13.906250 3.640625
C13.906250 1.781250 13.796875 1.250000 10.296875 1.250000L9.343750 1.250000
L9.343750 0.000000C10.953125 0.000000 13.656250 0.000000 15.343750 0.000000
C17.046875 0.000000 19.750000 0.000000 21.343750 0.000000
L21.343750 1.250000L20.406250 1.250000
C16.906250 1.250000 16.796875 1.781250 16.796875 3.640625
L16.796875 8.765625L21.906250 8.765625L21.906250 10.046875
L16.796875 10.046875zM14.046875 29.546875L14.046875 10.046875
L2.000000 10.046875z"/>
<path id="CMR17-53" d="M5.703125 29.843750
C6.203125 29.640625 8.250000 29.000000 10.343750 29.000000
C15.000000 29.000000 17.546875 31.500000 19.000000 32.953125
C19.000000 33.359375 19.000000 33.625000 18.703125 33.625000
C18.656250 33.625000 18.546875 33.625000 18.156250 33.421875
C16.406250 32.640625 14.343750 32.031250 11.843750 32.031250
C10.343750 32.031250 8.093750 32.234375 5.656250 33.375000
C5.093750 33.625000 5.000000 33.625000 4.953125 33.625000
C4.703125 33.625000 4.656250 33.578125 4.656250 32.578125
L4.656250 18.140625
C4.656250 17.250000 4.656250 17.000000 5.156250 17.000000
C5.406250 17.000000 5.500000 17.109375 5.750000 17.500000
C7.343750 20.046875 9.546875 21.109375 12.046875 21.109375
C13.796875 21.109375 17.546875 19.984375 17.546875 11.281250
C17.546875 9.640625 17.546875 6.703125 16.046875 4.359375
C14.796875 2.265625 12.843750 1.187500 10.703125 1.187500
C7.406250 1.187500 4.046875 3.515625 3.156250 7.375000
C3.343750 7.328125 3.750000 7.218750 3.953125 7.218750
C4.593750 7.218750 5.843750 7.562500 5.843750 9.109375
C5.843750 10.453125 4.906250 11.000000 3.953125 11.000000
C2.796875 11.000000 2.046875 10.296875 2.046875 8.890625
C2.046875 4.546875 5.500000 0.000000 10.796875 0.000000
C15.953125 0.000000 20.843750 4.531250 20.843750 11.078125
C20.843750 17.171875 16.953125 21.890625 12.093750 21.890625
C9.546875 21.890625 7.406250 20.875000 5.703125 18.906250z"/>
<path id="CMR17-49" d="M13.296875 31.906250
C13.296875 32.953125 13.250000 33.000000 12.546875 33.000000
C10.593750 30.781250 7.656250 30.093750 4.843750 30.093750
C4.703125 30.093750 4.453125 30.093750 4.406250 29.953125
C4.343750 29.859375 4.343750 29.750000 4.343750 28.718750
C5.906250 28.718750 8.500000 29.015625 10.500000 30.187500
L10.500000 3.625000C10.500000 1.843750 10.406250 1.250000 6.093750 1.250000
L4.593750 1.250000L4.593750 0.000000
C7.000000 0.000000 9.500000 0.000000 11.906250 0.000000
C14.296875 0.000000 16.796875 0.000000 19.203125 0.000000
L19.203125 1.250000L17.703125 1.250000
C13.406250 1.250000 13.296875 1.796875 13.296875 3.609375z"/>
<path id="CMR17-48" d="M21.000000 16.875000
C21.000000 19.921875 20.953125 25.140625 18.843750 29.140625
C17.000000 32.656250 14.046875 33.890625 11.453125 33.890625
C9.046875 33.890625 6.000000 32.796875 4.093750 29.187500
C2.093750 25.437500 1.906250 20.765625 1.906250 16.875000
C1.906250 14.015625 1.953125 9.656250 3.500000 5.859375
C5.656250 0.703125 9.500000 0.000000 11.453125 0.000000
C13.750000 0.000000 17.250000 0.953125 19.296875 5.703125
C20.796875 9.156250 21.000000 13.218750 21.000000 16.875000
M11.453125 0.796875C8.250000 0.796875 6.343750 3.546875 5.656250 7.359375
C5.093750 10.312500 5.093750 14.625000 5.093750 17.437500
C5.093750 21.281250 5.093750 24.500000 5.750000 27.562500
C6.703125 31.796875 9.500000 33.109375 11.453125 33.109375
C13.500000 33.109375 16.156250 31.750000 17.093750 27.656250
C17.750000 24.796875 17.796875 21.437500 17.796875 17.437500
C17.796875 14.171875 17.796875 10.171875 17.203125 7.218750
C16.156250 1.750000 13.203125 0.796875 11.453125 0.796875"/>
<path id="CMMI12-58" d="M9.203125 2.390625C9.203125 3.843750 8.000000 4.843750 6.796875 4.843750
C5.343750 4.843750 4.343750 3.640625 4.343750 2.437500
C4.343750 1.000000 5.546875 0.000000 6.750000 0.000000
C8.203125 0.000000 9.203125 1.203125 9.203125 2.390625"/>
</defs>
<g style="fill: #000000; opacity: 1.000000" transform="translate(23.464813,53.024143)scale(0.160000,-0.160000)">
<use xlink:href="#CMR17-48" x="0.000000" y="0.000000" transform="scale(0.996264)"/>
<use xlink:href="#CMMI12-58" x="22.930908" y="0.000000" transform="scale(0.996264)"/>
<use xlink:href="#CMR17-48" x="36.530304" y="0.000000" transform="scale(0.996264)"/>
<use xlink:href="#CMR17-51" x="59.461212" y="0.000000" transform="scale(0.996264)"/>
</g><!-- style -->
</g>
</g>
<g id="ytick6">
<g id="line2d24">
<g ><use style="fill: none; stroke: #000000; stroke-width: 0.500000; stroke-linejoin: round; stroke-linecap: butt;  opacity: 1.000000" xlink:href="#m3400efa6b1638b3fea9e19e898273957" x="42.519685" y="21.023330"/>
</g></g>
<g id="line2d25">
<g ><use style="fill: none; stroke: #000000; stroke-width: 0.500000; stroke-linejoin: round; stroke-linecap: butt;  opacity: 1.000000" xlink:href="#m20b58b2501143cb5e0a5e8f1ef6f1643" x="306.141732" y="21.023330"/>
</g></g>
<g id="text12">
<defs>
<path id="CMSY10-0" d="M32.953125 11.281250
C33.796875 11.281250 34.703125 11.281250 34.703125 12.281250
C34.703125 13.281250 33.796875 13.281250 32.953125 13.281250
L5.906250 13.281250
C5.046875 13.281250 4.156250 13.281250 4.156250 12.281250
C4.156250 11.281250 5.046875 11.281250 5.906250 11.281250z"/>
<path id="CMR17-50" d="M20.843750 7.609375L19.953125 7.609375
C19.453125 4.156250 19.046875 3.562500 18.843750 3.265625
C18.593750 2.890625 15.000000 2.890625 14.296875 2.890625L4.703125 2.890625
C6.500000 4.843750 10.000000 8.390625 14.250000 12.500000
C17.296875 15.390625 20.843750 18.796875 20.843750 23.750000
C20.843750 29.656250 16.156250 33.046875 10.906250 33.046875
C5.406250 33.046875 2.046875 27.984375 2.046875 23.296875
C2.046875 21.265625 3.500000 21.000000 4.093750 21.000000
C4.593750 21.000000 6.093750 21.296875 6.093750 23.046875
C6.093750 24.593750 4.796875 25.031250 4.093750 25.031250
C3.796875 25.031250 3.500000 24.984375 3.296875 24.875000
C4.250000 29.500000 7.156250 31.765625 10.203125 31.765625
C14.546875 31.765625 17.406250 28.328125 17.406250 23.765625
C17.406250 19.406250 14.843750 15.656250 12.000000 12.406250
L2.046875 1.140625L2.046875 0.000000L19.656250 0.000000z"/>
<path id="CMR17-51" d="M11.046875 17.828125
C15.500000 17.828125 17.453125 13.968750 17.453125 9.500000
C17.453125 3.500000 14.250000 1.187500 11.343750 1.187500
C8.703125 1.187500 4.406250 2.421875 3.046875 6.093750
C3.296875 6.000000 3.546875 6.000000 3.796875 6.000000
C5.000000 6.000000 5.906250 6.796875 5.906250 8.093750
C5.906250 9.546875 4.796875 10.187500 3.796875 10.187500
C2.953125 10.187500 1.656250 9.796875 1.656250 8.000000
C1.656250 3.500000 6.156250 0.000000 11.453125 0.000000
C17.000000 0.000000 21.250000 4.359375 21.250000 9.468750
C21.250000 14.312500 17.250000 17.828125 12.500000 18.375000
C16.296875 19.187500 19.953125 22.609375 19.953125 27.187500
C19.953125 31.109375 16.000000 33.968750 11.500000 33.968750
C6.953125 33.968750 2.953125 31.140625 2.953125 27.078125
C2.953125 25.296875 4.250000 25.000000 4.906250 25.000000
C5.953125 25.000000 6.843750 25.656250 6.843750 26.937500
C6.843750 28.234375 5.953125 28.890625 4.906250 28.890625
C4.703125 28.890625 4.453125 28.890625 4.250000 28.796875
C5.703125 32.218750 9.656250 32.843750 11.406250 32.843750
C13.156250 32.843750 16.453125 31.984375 16.453125 27.125000
C16.453125 25.718750 16.250000 23.171875 14.546875 20.953125
C13.046875 18.984375 11.343750 18.984375 9.703125 18.781250
C9.453125 18.781250 8.296875 18.781250 8.093750 18.781250
C7.750000 18.718750 7.546875 18.656250 7.546875 18.281250
C7.546875 17.890625 7.593750 17.828125 8.593750 17.828125z"/>
<path id="CMR17-52" d="M16.796875 32.890625
C16.796875 33.953125 16.750000 34.000000 15.843750 34.000000
L1.000000 10.046875L1.000000 8.765625L13.906250 8.765625L13.906250 3.640625
C13.906250 1.781250 13.796875 1.250000 10.296875 1.250000L9.343750 1.250000
L9.343750 0.000000C10.953125 0.000000 13.656250 0.000000 15.343750 0.000000
C17.046875 0.000000 19.750000 0.000000 21.343750 0.000000
L21.343750 1.250000L20.406250 1.250000
C16.906250 1.250000 16.796875 1.781250 16.796875 3.640625
L16.796875 8.765625L21.906250 8.765625L21.906250 10.046875
L16.796875 10.046875zM14.046875 29.546875L14.046875 10.046875
L2.000000 10.046875z"/>
<path id="CMR17-53" d="M5.703125 29.843750
C6.203125 29.640625 8.250000 29.000000 10.343750 29.000000
C15.000000 29.000000 17.546875 31.500000 19.000000 32.953125
C19.000000 33.359375 19.000000 33.625000 18.703125 33.625000
C18.656250 33.625000 18.546875 33.625000 18.156250 33.421875
C16.406250 32.640625 14.343750 32.031250 11.843750 32.031250
C10.343750 32.031250 8.093750 32.234375 5.656250 33.375000
C5.093750 33.625000 5.000000 33.625000 4.953125 33.625000
C4.703125 33.625000 4.656250 33.578125 4.656250 32.578125
L4.656250 18.140625
C4.656250 17.250000 4.656250 17.000000 5.156250 17.000000
C5.406250 17.000000 5.500000 17.109375 5.750000 17.500000
C7.343750 20.046875 9.546875 21.109375 12.046875 21.109375
C13.796875 21.109375 17.546875 19.984375 17.546875 11.281250
C17.546875 9.640625 17.546875 6.703125 16.046875 4.359375
C14.796875 2.265625 12.843750 1.187500 10.703125 1.187500
C7.406250 1.187500 4.046875 3.515625 3.156250 7.375000
C3.343750 7.328125 3.750000 7.218750 3.953125 7.218750
C4.593750 7.218750 5.843750 7.562500 5.843750 9.109375
C5.843750 10.453125 4.906250 11.000000 3.953125 11.000000
C2.796875 11.000000 2.046875 10.296875 2.046875 8.890625
C2.046875 4.546875 5.500000 0.000000 10.796875 0.000000
C15.953125 0.000000 20.843750 4.531250 20.843750 11.078125
C20.843750 17.171875 16.953125 21.890625 12.093750 21.890625
C9.546875 21.890625 7.406250 20.875000 5.703125 18.906250z"/>
<path id="CMR17-49" d="M13.296875 31.906250
C13.296875 32.953125 13.250000 33.000000 12.546875 33.000000
C10.593750 30.781250 7.656250 30.093750 4.843750 30.093750
C4.703125 30.093750 4.453125 30.093750 4.406250 29.953125
C4.343750 29.859375 4.343750 29.750000 4.343750 28.718750
C5.906250 28.718750 8.500000 29.015625 10.500000 30.187500
L10.500000 3.625000C10.500000 1.843750 10.406250 1.250000 6.093750 1.250000
L4.593750 1.250000L4.593750 0.000000
C7.000000 0.000000 9.500000 0.000000 11.906250 0.000000
C14.296875 0.000000 16.796875 0.000000 19.203125 0.000000
L19.203125 1.250000L17.703125 1.250000
C13.406250 1.250000 13.296875 1.796875 13.296875 3.609375z"/>
<path id="CMR17-48" d="M21.000000 16.875000
C21.000000 19.921875 20.953125 25.140625 18.843750 29.140625
C17.000000 32.656250 14.046875 33.890625 11.453125 33.890625
C9.046875 33.890625 6.000000 32.796875 4.093750 29.187500
C2.093750 25.437500 1.906250 20.765625 1.906250 16.875000
C1.906250 14.015625 1.953125 9.656250 3.500000 5.859375
C5.656250 0.703125 9.500000 0.000000 11.453125 0.000000
C13.750000 0.000000 17.250000 0.953125 19.296875 5.703125
C20.796875 9.156250 21.000000 13.218750 21.000000 16.875000
M11.453125 0.796875C8.250000 0.796875 6.343750 3.546875 5.656250 7.359375
C5.093750 10.312500 5.093750 14.625000 5.093750 17.437500
C5.093750 21.281250 5.093750 24.500000 5.750000 27.562500
C6.703125 31.796875 9.500000 33.109375 11.453125 33.109375
C13.500000 33.109375 16.156250 31.750000 17.093750 27.656250
C17.750000 24.796875 17.796875 21.437500 17.796875 17.437500
C17.796875 14.171875 17.796875 10.171875 17.203125 7.218750
C16.156250 1.750000 13.203125 0.796875 11.453125 0.796875"/>
<path id="CMMI12-58" d="M9.203125 2.390625C9.203125 3.843750 8.000000 4.843750 6.796875 4.843750
C5.343750 4.843750 4.343750 3.640625 4.343750 2.437500
C4.343750 1.000000 5.546875 0.000000 6.750000 0.000000
C8.203125 0.000000 9.203125 1.203125 9.203125 2.390625"/>
</defs>
<g style="fill: #000000; opacity: 1.000000" transform="translate(23.464813,23.591481)scale(0.160000,-0.160000)">
<use xlink:href="#CMR17-48" x="0.000000" y="0.000000" transform="scale(0.996264)"/>
<use xlink:href="#CMMI12-58" x="22.930908" y="0.000000" transform="scale(0.996264)"/>
<use xlink:href="#CMR17-48" x="36.530304" y="0.000000" transform="scale(0.996264)"/>
<use xlink:href="#CMR17-52" x="59.461212" y="0.000000" transform="scale(0.996264)"/>
</g><!-- style -->
</g>
</g>
</g>
<g id="patch3">
<path style="fill: none; stroke: #000000; stroke-width: 1.000000; stroke-linejoin: round; stroke-linecap: square;  opacity: 1.000000"  d="M42.519685 21.023330L306.141732 21.023330"/>
</g>
<g id="patch4">
<path style="fill: none; stroke: #000000; stroke-width: 1.000000; stroke-linejoin: round; stroke-linecap: square;  opacity: 1.000000"  d="M306.141732 168.186640L306.141732 21.023330"/>
</g>
<g id="patch5">
<path style="fill: none; stroke: #000000; stroke-width: 1.000000; stroke-linejoin: round; stroke-linecap: square;  opacity: 1.000000"  d="M42.519685 168.186640L306.141732 168.186640"/>
</g>
<g id="patch6">
<path style="fill: none; stroke: #000000; stroke-width: 1.000000; stroke-linejoin: round; stroke-linecap: square;  opacity: 1.000000"  d="M42.519685 168.186640L42.519685 21.023330"/>
</g>
</g>
</g>
</svg>
