<?xml version="1.0" encoding="utf-8" standalone="no"?>
<!DOCTYPE svg PUBLIC "-//W3C//DTD SVG 1.1//EN"
  "http://www.w3.org/Graphics/SVG/1.1/DTD/svg11.dtd">
<!-- Created with matplotlib (http://matplotlib.sourceforge.net/) -->
<svg height="113pt" version="1.1" viewBox="0 0 340 113" width="340pt" xmlns="http://www.w3.org/2000/svg" xmlns:xlink="http://www.w3.org/1999/xlink">
 <defs>
  <style type="text/css">
*{stroke-linecap:square;stroke-linejoin:round;}
  </style>
 </defs>
 <g id="figure_1">
  <g id="patch_1">
   <path d="
M0 113.386
L340.157 113.386
L340.157 0
L0 0
z
" style="fill:#ffffff;"/>
  </g>
  <g id="axes_1">
   <g id="patch_2">
    <path d="
M42.5197 102.047
L306.142 102.047
L306.142 11.3386
L42.5197 11.3386
z
" style="fill:#ffffff;"/>
   </g>
   <g id="patch_3">
    <path clip-path="url(#p814608433f)" d="
M54.5025 9.56193e+06
L174.331 9.56193e+06
L174.331 -9.56173e+06
L54.5025 -9.56173e+06
z
" style="fill:#bbbbbb;"/>
   </g>
   <g id="LineCollection_1">
    <defs>
     <path d="
M114.417 -11.3386
L114.417 -76.1305" id="C0_0_da35b87f47"/>
     <path d="
M126.399 -11.3386
L126.399 -45.0712" id="C0_1_acb19181d7"/>
     <path d="
M138.382 -11.3386
L138.382 -23.6507" id="C0_2_edd3a00db6"/>
     <path d="
M150.365 -11.3386
L150.365 -28.3355" id="C0_3_40178920fb"/>
     <path d="
M162.348 -11.3386
L162.348 -23.401" id="C0_4_d99c0b17c1"/>
     <path d="
M174.331 -11.3386
L174.331 -34.1178" id="C0_5_88b87087fd"/>
     <path d="
M186.314 -11.3386
L186.314 -23.401" id="C0_6_e026072d2a"/>
     <path d="
M198.296 -11.3386
L198.296 -28.3355" id="C0_7_4b7ceef107"/>
     <path d="
M210.279 -11.3386
L210.279 -23.6507" id="C0_8_28f60958c1"/>
     <path d="
M222.262 -11.3386
L222.262 -45.0712" id="C0_9_76c3f78fc6"/>
    </defs>
    <g clip-path="url(#p814608433f)">
     <use style="fill:none;stroke:#000000;stroke-linecap:butt;stroke-width:0.5;" x="0" xlink:href="#C0_0_da35b87f47" y="113.385826772"/>
    </g>
    <g clip-path="url(#p814608433f)">
     <use style="fill:none;stroke:#000000;stroke-linecap:butt;stroke-width:0.5;" x="0" xlink:href="#C0_1_acb19181d7" y="113.385826772"/>
    </g>
    <g clip-path="url(#p814608433f)">
     <use style="fill:none;stroke:#000000;stroke-linecap:butt;stroke-width:0.5;" x="0" xlink:href="#C0_2_edd3a00db6" y="113.385826772"/>
    </g>
    <g clip-path="url(#p814608433f)">
     <use style="fill:none;stroke:#000000;stroke-linecap:butt;stroke-width:0.5;" x="0" xlink:href="#C0_3_40178920fb" y="113.385826772"/>
    </g>
    <g clip-path="url(#p814608433f)">
     <use style="fill:none;stroke:#000000;stroke-linecap:butt;stroke-width:0.5;" x="0" xlink:href="#C0_4_d99c0b17c1" y="113.385826772"/>
    </g>
    <g clip-path="url(#p814608433f)">
     <use style="fill:none;stroke:#000000;stroke-linecap:butt;stroke-width:0.5;" x="0" xlink:href="#C0_5_88b87087fd" y="113.385826772"/>
    </g>
    <g clip-path="url(#p814608433f)">
     <use style="fill:none;stroke:#000000;stroke-linecap:butt;stroke-width:0.5;" x="0" xlink:href="#C0_6_e026072d2a" y="113.385826772"/>
    </g>
    <g clip-path="url(#p814608433f)">
     <use style="fill:none;stroke:#000000;stroke-linecap:butt;stroke-width:0.5;" x="0" xlink:href="#C0_7_4b7ceef107" y="113.385826772"/>
    </g>
    <g clip-path="url(#p814608433f)">
     <use style="fill:none;stroke:#000000;stroke-linecap:butt;stroke-width:0.5;" x="0" xlink:href="#C0_8_28f60958c1" y="113.385826772"/>
    </g>
    <g clip-path="url(#p814608433f)">
     <use style="fill:none;stroke:#000000;stroke-linecap:butt;stroke-width:0.5;" x="0" xlink:href="#C0_9_76c3f78fc6" y="113.385826772"/>
    </g>
   </g>
   <g id="line2d_1">
    <defs>
     <path d="
M0 1.5
C0.397805 1.5 0.77937 1.34195 1.06066 1.06066
C1.34195 0.77937 1.5 0.397805 1.5 0
C1.5 -0.397805 1.34195 -0.77937 1.06066 -1.06066
C0.77937 -1.34195 0.397805 -1.5 0 -1.5
C-0.397805 -1.5 -0.77937 -1.34195 -1.06066 -1.06066
C-1.34195 -0.77937 -1.5 -0.397805 -1.5 0
C-1.5 0.397805 -1.34195 0.77937 -1.06066 1.06066
C-0.77937 1.34195 -0.397805 1.5 0 1.5
z
" id="m37a92066f2" style="stroke:#000000;stroke-linecap:butt;stroke-width:0.5;"/>
    </defs>
    <g clip-path="url(#p814608433f)">
     <use style="stroke:#000000;stroke-linecap:butt;stroke-width:0.5;" x="114.416607015" xlink:href="#m37a92066f2" y="37.2553421757"/>
     <use style="stroke:#000000;stroke-linecap:butt;stroke-width:0.5;" x="126.399427344" xlink:href="#m37a92066f2" y="68.3146213256"/>
     <use style="stroke:#000000;stroke-linecap:butt;stroke-width:0.5;" x="138.382247674" xlink:href="#m37a92066f2" y="89.7350993783"/>
     <use style="stroke:#000000;stroke-linecap:butt;stroke-width:0.5;" x="150.365068003" xlink:href="#m37a92066f2" y="85.0503093989"/>
     <use style="stroke:#000000;stroke-linecap:butt;stroke-width:0.5;" x="162.347888332" xlink:href="#m37a92066f2" y="89.9848626598"/>
     <use style="stroke:#000000;stroke-linecap:butt;stroke-width:0.5;" x="174.330708661" xlink:href="#m37a92066f2" y="79.2680491159"/>
     <use style="stroke:#000000;stroke-linecap:butt;stroke-width:0.5;" x="186.313528991" xlink:href="#m37a92066f2" y="89.9848626598"/>
     <use style="stroke:#000000;stroke-linecap:butt;stroke-width:0.5;" x="198.29634932" xlink:href="#m37a92066f2" y="85.0503093989"/>
     <use style="stroke:#000000;stroke-linecap:butt;stroke-width:0.5;" x="210.279169649" xlink:href="#m37a92066f2" y="89.7350993783"/>
     <use style="stroke:#000000;stroke-linecap:butt;stroke-width:0.5;" x="222.261989979" xlink:href="#m37a92066f2" y="68.3146213256"/>
    </g>
   </g>
   <g id="line2d_2">
    <path clip-path="url(#p814608433f)" d="
M42.5197 89.9849
L44.1973 87.8586
L47.5525 83.551
L49.1102 81.9083
L50.5482 80.7094
L51.7465 79.9741
L52.9447 79.4948
L54.0232 79.2896
L55.1016 79.3017
L56.1801 79.5309
L57.2586 79.9741
L58.4568 80.7094
L59.7749 81.796
L61.2129 83.2777
L63.0103 85.4706
L67.2043 90.7697
L68.2827 91.6905
L69.1215 92.1214
L69.8405 92.2556
L70.5595 92.1649
L71.3983 91.7954
L72.3569 91.0908
L73.675 89.8057
L77.7492 85.6193
L79.0673 84.6393
L80.2656 84.0066
L81.344 83.6688
L82.4225 83.5613
L83.5009 83.6894
L84.5794 84.0544
L85.6578 84.6535
L86.8561 85.5848
L88.1742 86.9081
L89.8518 88.9513
L92.2484 91.9133
L93.0872 92.5761
L93.6863 92.768
L94.1656 92.701
L94.645 92.4136
L95.2441 91.7366
L95.9631 90.4878
L96.8019 88.5228
L97.8803 85.3836
L99.3183 80.4593
L101.475 72.1629
L106.268 53.4432
L107.946 47.8608
L109.384 43.8386
L110.582 41.1409
L111.541 39.4631
L112.38 38.3702
L113.218 37.6427
L113.937 37.3174
L114.536 37.2592
L115.136 37.395
L115.855 37.8127
L116.574 38.5042
L117.412 39.6483
L118.371 41.3815
L119.449 43.8386
L120.648 47.1365
L122.086 51.7647
L123.883 58.3308
L127.118 71.205
L129.755 81.3247
L131.312 86.494
L132.391 89.4244
L133.23 91.1681
L133.949 92.1847
L134.548 92.6503
L135.027 92.771
L135.506 92.6862
L136.106 92.3389
L136.944 91.5319
L138.382 89.7351
L140.659 86.9081
L142.097 85.4795
L143.295 84.5755
L144.493 83.9529
L145.572 83.6405
L146.65 83.5649
L147.729 83.7242
L148.807 84.1121
L150.006 84.7965
L151.324 85.826
L152.881 87.3389
L156.956 91.4752
L157.914 92.039
L158.633 92.2379
L159.352 92.2167
L160.071 91.9713
L160.91 91.4244
L161.869 90.5206
L163.307 88.8027
L168.219 82.6259
L169.657 81.2676
L170.976 80.3105
L172.174 79.7018
L173.372 79.354
L174.451 79.2694
L175.529 79.4023
L176.607 79.751
L177.806 80.3853
L179.004 81.2676
L180.442 82.6259
L182.12 84.5571
L184.756 88.0179
L186.673 90.3911
L187.751 91.4244
L188.59 91.9713
L189.309 92.2167
L190.028 92.2379
L190.747 92.039
L191.586 91.5618
L192.664 90.655
L194.342 88.897
L196.978 86.1505
L198.416 84.9633
L199.614 84.2282
L200.813 83.7562
L201.891 83.5711
L202.97 83.6204
L204.048 83.9065
L205.127 84.4281
L206.325 85.2769
L207.643 86.5185
L209.201 88.3371
L212.316 92.1398
L213.035 92.6364
L213.634 92.771
L214.114 92.6503
L214.593 92.3062
L215.192 91.5601
L215.911 90.238
L216.75 88.2044
L217.828 85.0011
L219.386 79.5795
L221.663 70.7247
L225.857 54.3042
L227.654 48.2304
L229.092 44.1427
L230.29 41.3815
L231.369 39.4631
L232.208 38.3702
L233.047 37.6427
L233.765 37.3174
L234.365 37.2592
L234.964 37.395
L235.683 37.8127
L236.402 38.5042
L237.241 39.6483
L238.199 41.3815
L239.278 43.8386
L240.476 47.1365
L241.914 51.7647
L243.711 58.3308
L246.947 71.205
L249.583 81.3247
L251.141 86.494
L252.219 89.4244
L253.058 91.1681
L253.777 92.1847
L254.376 92.6503
L254.855 92.771
L255.335 92.6862
L255.934 92.3389
L256.773 91.5319
L258.21 89.7351
L260.487 86.9081
L261.925 85.4795
L263.123 84.5755
L264.322 83.9529
L265.4 83.6405
L266.479 83.5649
L267.557 83.7242
L268.636 84.1121
L269.834 84.7965
L271.152 85.826
L272.71 87.3389
L276.784 91.4752
L277.742 92.039
L278.461 92.2379
L279.18 92.2167
L279.899 91.9713
L280.738 91.4244
L281.697 90.5206
L283.135 88.8027
L288.048 82.6259
L289.486 81.2676
L290.804 80.3105
L292.002 79.7018
L293.2 79.354
L294.279 79.2694
L295.357 79.4023
L296.436 79.751
L297.634 80.3853
L298.832 81.2676
L300.27 82.6259
L301.948 84.5571
L304.584 88.0179
L306.022 89.8442
L306.022 89.8442" style="fill:none;stroke:#000000;stroke-width:0.75;"/>
   </g>
   <g id="line2d_3">
    <path clip-path="url(#p814608433f)" d="
M114.417 102.047
L114.417 -1" style="fill:none;stroke:#000000;stroke-dasharray:1.000000,3.000000;stroke-dashoffset:0.0;stroke-linecap:butt;stroke-width:0.5;"/>
   </g>
   <g id="line2d_4">
    <path clip-path="url(#p814608433f)" d="
M234.245 102.047
L234.245 -1" style="fill:none;stroke:#000000;stroke-dasharray:1.000000,3.000000;stroke-dashoffset:0.0;stroke-linecap:butt;stroke-width:0.5;"/>
   </g>
   <g id="line2d_5">
    <defs>
     <path d="
M-1.75 1.75
L1.75 -1.75
M-1.75 -1.75
L1.75 1.75" id="mc10189ced2" style="stroke:#000000;stroke-linecap:butt;stroke-width:0.5;"/>
    </defs>
    <g clip-path="url(#p814608433f)">
     <use style="stroke:#000000;stroke-linecap:butt;stroke-width:0.5;" x="114.416607015" xlink:href="#mc10189ced2" y="37.2553421757"/>
     <use style="stroke:#000000;stroke-linecap:butt;stroke-width:0.5;" x="121.905869721" xlink:href="#mc10189ced2" y="51.151322168"/>
     <use style="stroke:#000000;stroke-linecap:butt;stroke-width:0.5;" x="129.395132427" xlink:href="#mc10189ced2" y="80.0211532787"/>
     <use style="stroke:#000000;stroke-linecap:butt;stroke-width:0.5;" x="136.884395132" xlink:href="#mc10189ced2" y="91.598484836"/>
     <use style="stroke:#000000;stroke-linecap:butt;stroke-width:0.5;" x="144.373657838" xlink:href="#mc10189ced2" y="84.0021820206"/>
     <use style="stroke:#000000;stroke-linecap:butt;stroke-width:0.5;" x="151.862920544" xlink:href="#mc10189ced2" y="86.3188582195"/>
     <use style="stroke:#000000;stroke-linecap:butt;stroke-width:0.5;" x="159.35218325" xlink:href="#mc10189ced2" y="92.216715352"/>
     <use style="stroke:#000000;stroke-linecap:butt;stroke-width:0.5;" x="166.841445956" xlink:href="#mc10189ced2" y="84.1894778491"/>
     <use style="stroke:#000000;stroke-linecap:butt;stroke-width:0.5;" x="174.330708661" xlink:href="#mc10189ced2" y="79.2680491159"/>
     <use style="stroke:#000000;stroke-linecap:butt;stroke-width:0.5;" x="181.819971367" xlink:href="#mc10189ced2" y="84.1894778491"/>
     <use style="stroke:#000000;stroke-linecap:butt;stroke-width:0.5;" x="189.309234073" xlink:href="#mc10189ced2" y="92.216715352"/>
     <use style="stroke:#000000;stroke-linecap:butt;stroke-width:0.5;" x="196.798496779" xlink:href="#mc10189ced2" y="86.3188582195"/>
     <use style="stroke:#000000;stroke-linecap:butt;stroke-width:0.5;" x="204.287759485" xlink:href="#mc10189ced2" y="84.0021820206"/>
     <use style="stroke:#000000;stroke-linecap:butt;stroke-width:0.5;" x="211.77702219" xlink:href="#mc10189ced2" y="91.598484836"/>
     <use style="stroke:#000000;stroke-linecap:butt;stroke-width:0.5;" x="219.266284896" xlink:href="#mc10189ced2" y="80.0211532787"/>
     <use style="stroke:#000000;stroke-linecap:butt;stroke-width:0.5;" x="226.755547602" xlink:href="#mc10189ced2" y="51.151322168"/>
    </g>
   </g>
   <g id="matplotlib.axis_1">
    <g id="xtick_1">
     <g id="line2d_6">
      <defs>
       <path d="
M0 0
L0 -4" id="m0012dd4eef" style="stroke:#000000;stroke-linecap:butt;stroke-width:0.5;"/>
      </defs>
      <g>
       <use style="stroke:#000000;stroke-linecap:butt;stroke-width:0.5;" x="54.5025053686" xlink:href="#m0012dd4eef" y="102.047244094"/>
      </g>
     </g>
     <g id="line2d_7">
      <defs>
       <path d="
M0 0
L0 4" id="m476344969c" style="stroke:#000000;stroke-linecap:butt;stroke-width:0.5;"/>
      </defs>
      <g>
       <use style="stroke:#000000;stroke-linecap:butt;stroke-width:0.5;" x="54.5025053686" xlink:href="#m476344969c" y="11.3385826772"/>
      </g>
     </g>
     <g id="text_1">
      <!-- -4000 -->
      <defs>
       <path d="
M36.7969 70.5
L2.79688 23
L2.79688 17.4062
L30.9062 17.4062
L30.9062 12.25
L30.9062 9.35938
C30.9062 5.1875 30 4.6875 21.9062 4.6875
L20.7969 4.6875
L20.7969 0
L50 0
L50 4.6875
L49.5938 4.6875
C41.5 4.6875 40.5938 5.1875 40.5938 9.35938
L40.5938 12.25
L40.5938 17.4062
L52.7031 17.4062
L52.7031 23
L40.5938 23
L40.5938 50.4062
C40.5938 62.9688 40.5938 62.9688 41.0938 70.5
z

M30.9062 23
L8.90625 23
L30.9062 53.4219
z
" id="Century_Schoolbook_L_Roman-52"/>
       <path d="
M28.4062 71
C14.4062 71 4.20312 55.6875 4.20312 34.75
C4.20312 14.125 14.0938 -1 27.5938 -1
C41.5938 -1 51.4062 13.625 51.4062 34.4375
C51.4062 45.0625 49.2031 53.875 45 60.7812
C41.0938 67.0938 34.7031 71 28.4062 71
M27.7031 66.7031
C31 66.7031 34.2031 64.5 36.5938 60.5
C39.2969 55.875 40.2031 49.9688 40.2031 36.25
C40.2031 22.2188 39.5 15.625 37.5 11.2031
C35.2031 6.29688 31.5938 3.29688 27.7969 3.29688
C24.5 3.29688 21.2969 5.5 18.9062 9.5
C16.0938 14.2188 15.2969 20.5312 15.2969 36.8594
C15.2969 48.4844 16 54.375 18 58.6875
C20.2969 63.7969 23.9062 66.7031 27.7031 66.7031" id="Century_Schoolbook_L_Roman-48"/>
       <path d="
M4.20312 27.2812
L4.20312 19
L29.0938 19
L29.0938 27.2812
z
" id="Century_Schoolbook_L_Roman-45"/>
      </defs>
      <g transform="translate(44.3128266492 111.80158998)scale(0.08 -0.08)">
       <use transform="translate(0.0 1.84245602428)scale(0.996264009963)" xlink:href="#Century_Schoolbook_L_Roman-45"/>
       <use transform="translate(33.1752297293 1.84245602428)scale(0.996264009963)" xlink:href="#Century_Schoolbook_L_Roman-52"/>
       <use transform="translate(88.5669066927 1.84245602428)scale(0.996264009963)" xlink:href="#Century_Schoolbook_L_Roman-48"/>
       <use transform="translate(143.958583656 1.84245602428)scale(0.996264009963)" xlink:href="#Century_Schoolbook_L_Roman-48"/>
       <use transform="translate(199.350260619 1.84245602428)scale(0.996264009963)" xlink:href="#Century_Schoolbook_L_Roman-48"/>
      </g>
     </g>
    </g>
    <g id="xtick_2">
     <g id="line2d_8">
      <g>
       <use style="stroke:#000000;stroke-linecap:butt;stroke-width:0.5;" x="114.416607015" xlink:href="#m0012dd4eef" y="102.047244094"/>
      </g>
     </g>
     <g id="line2d_9">
      <g>
       <use style="stroke:#000000;stroke-linecap:butt;stroke-width:0.5;" x="114.416607015" xlink:href="#m476344969c" y="11.3385826772"/>
      </g>
     </g>
     <g id="text_2">
      <!-- 0 -->
      <g transform="translate(112.200939632 111.80158998)scale(0.08 -0.08)">
       <use transform="translate(0.0 1.84245602428)scale(0.996264009963)" xlink:href="#Century_Schoolbook_L_Roman-48"/>
      </g>
     </g>
    </g>
    <g id="xtick_3">
     <g id="line2d_10">
      <g>
       <use style="stroke:#000000;stroke-linecap:butt;stroke-width:0.5;" x="174.330708661" xlink:href="#m0012dd4eef" y="102.047244094"/>
      </g>
     </g>
     <g id="line2d_11">
      <g>
       <use style="stroke:#000000;stroke-linecap:butt;stroke-width:0.5;" x="174.330708661" xlink:href="#m476344969c" y="11.3385826772"/>
      </g>
     </g>
     <g id="text_3">
      <!-- 4000 -->
      <g transform="translate(165.468039131 111.80158998)scale(0.08 -0.08)">
       <use transform="translate(0.0 1.84245602428)scale(0.996264009963)" xlink:href="#Century_Schoolbook_L_Roman-52"/>
       <use transform="translate(55.3916769633 1.84245602428)scale(0.996264009963)" xlink:href="#Century_Schoolbook_L_Roman-48"/>
       <use transform="translate(110.783353927 1.84245602428)scale(0.996264009963)" xlink:href="#Century_Schoolbook_L_Roman-48"/>
       <use transform="translate(166.17503089 1.84245602428)scale(0.996264009963)" xlink:href="#Century_Schoolbook_L_Roman-48"/>
      </g>
     </g>
    </g>
    <g id="xtick_4">
     <g id="line2d_12">
      <g>
       <use style="stroke:#000000;stroke-linecap:butt;stroke-width:0.5;" x="234.244810308" xlink:href="#m0012dd4eef" y="102.047244094"/>
      </g>
     </g>
     <g id="line2d_13">
      <g>
       <use style="stroke:#000000;stroke-linecap:butt;stroke-width:0.5;" x="234.244810308" xlink:href="#m476344969c" y="11.3385826772"/>
      </g>
     </g>
     <g id="text_4">
      <!-- 8000 -->
      <defs>
       <path d="
M37.4062 39.5625
C44.9062 43.6719 48.4062 48.5781 48.4062 55.0781
C48.4062 64.2969 40 71 28.5 71
C16.2969 71 7.40625 62.875 7.40625 51.875
C7.40625 47.5625 9 43.0781 11.7969 39.9688
C13.5 37.9688 15.0938 36.8594 18.7031 34.9531
C14.2969 33.2656 12.4062 32.25 10.2031 30.4531
C6.29688 27.2344 4.09375 22.4375 4.09375 17.3281
C4.09375 11.9219 6.79688 6.51562 11 3.3125
C14.9062 0.5 20.2969 -1 26.7031 -1
C34.0938 -1 40.2969 1 44.4062 4.70312
C48.7031 8.42188 51.2969 14.5156 51.2969 20.6406
C51.2969 26.3438 49.0938 31.4531 45 35.0625
C43 36.75 41.2031 37.875 37.4062 39.5625
M26.7031 43.4688
C18.5938 46.4688 15.0938 50.2812 15.0938 56.0938
C15.0938 62.3906 20.2969 66.7031 28.2031 66.7031
C35.9062 66.7031 41 61.7969 41 54.4844
C41 49.2812 39 45.875 33.2969 41.0625
z

M32.5 29.6406
C40.0938 26.9375 43.2969 23.0312 43.2969 16.4219
C43.2969 8.40625 37 3.29688 27.2031 3.29688
C17.9062 3.29688 12.4062 8.5 12.4062 17.3125
C12.4062 24.8281 15.5 29.3438 23.2969 32.9531
z
" id="Century_Schoolbook_L_Roman-56"/>
      </defs>
      <g transform="translate(225.382140778 111.80158998)scale(0.08 -0.08)">
       <use transform="translate(0.0 1.84245602428)scale(0.996264009963)" xlink:href="#Century_Schoolbook_L_Roman-56"/>
       <use transform="translate(55.3916769633 1.84245602428)scale(0.996264009963)" xlink:href="#Century_Schoolbook_L_Roman-48"/>
       <use transform="translate(110.783353927 1.84245602428)scale(0.996264009963)" xlink:href="#Century_Schoolbook_L_Roman-48"/>
       <use transform="translate(166.17503089 1.84245602428)scale(0.996264009963)" xlink:href="#Century_Schoolbook_L_Roman-48"/>
      </g>
     </g>
    </g>
   </g>
   <g id="matplotlib.axis_2">
    <g id="ytick_1">
     <g id="line2d_14">
      <defs>
       <path d="
M0 0
L4 0" id="me8a85f7bf6" style="stroke:#000000;stroke-linecap:butt;stroke-width:0.5;"/>
      </defs>
      <g>
       <use style="stroke:#000000;stroke-linecap:butt;stroke-width:0.5;" x="42.5196850394" xlink:href="#me8a85f7bf6" y="102.047244094"/>
      </g>
     </g>
     <g id="line2d_15">
      <defs>
       <path d="
M0 0
L-4 0" id="m1a32005dea" style="stroke:#000000;stroke-linecap:butt;stroke-width:0.5;"/>
      </defs>
      <g>
       <use style="stroke:#000000;stroke-linecap:butt;stroke-width:0.5;" x="306.141732283" xlink:href="#m1a32005dea" y="102.047244094"/>
      </g>
     </g>
     <g id="text_5">
      <!-- 0.00000 -->
      <defs>
       <path d="
M13.7031 11.4688
C10.2031 11.4688 7.40625 8.67188 7.40625 5.28125
C7.40625 1.78125 10.2031 -1 13.5938 -1
C17.0938 -1 19.9062 1.78125 19.9062 5.28125
C19.9062 8.67188 17.0938 11.4688 13.7031 11.4688" id="Century_Schoolbook_L_Roman-46"/>
      </defs>
      <g transform="translate(9.71606227221 104.924417037)scale(0.08 -0.08)">
       <use transform="translate(0.0 1.84245602428)scale(0.996264009963)" xlink:href="#Century_Schoolbook_L_Roman-48"/>
       <use transform="translate(55.3916769633 1.84245602428)scale(0.996264009963)" xlink:href="#Century_Schoolbook_L_Roman-46"/>
       <use transform="translate(83.0868465666 1.84245602428)scale(0.996264009963)" xlink:href="#Century_Schoolbook_L_Roman-48"/>
       <use transform="translate(138.47852353 1.84245602428)scale(0.996264009963)" xlink:href="#Century_Schoolbook_L_Roman-48"/>
       <use transform="translate(193.870200493 1.84245602428)scale(0.996264009963)" xlink:href="#Century_Schoolbook_L_Roman-48"/>
       <use transform="translate(249.261877457 1.84245602428)scale(0.996264009963)" xlink:href="#Century_Schoolbook_L_Roman-48"/>
       <use transform="translate(304.65355442 1.84245602428)scale(0.996264009963)" xlink:href="#Century_Schoolbook_L_Roman-48"/>
      </g>
     </g>
    </g>
    <g id="ytick_2">
     <g id="line2d_16">
      <g>
       <use style="stroke:#000000;stroke-linecap:butt;stroke-width:0.5;" x="42.5196850394" xlink:href="#me8a85f7bf6" y="86.1108629273"/>
      </g>
     </g>
     <g id="line2d_17">
      <g>
       <use style="stroke:#000000;stroke-linecap:butt;stroke-width:0.5;" x="306.141732283" xlink:href="#m1a32005dea" y="86.1108629273"/>
      </g>
     </g>
     <g id="text_6">
      <!-- 0.00005 -->
      <defs>
       <path d="
M16.4062 59.7031
C21.7969 58.4062 24.5938 58 28.5 58
C37 58 43.2031 61 46.5 66.5
C47.5938 68.4062 48 69.2969 48 70.0938
C48 70.7031 47.7031 71 47.2031 71
C46.9062 71 46.4062 70.8906 45.9062 70.5938
C41 68.4844 38.2969 67.9844 32.5938 67.9844
C26.2031 67.9844 22.5 68.4844 12 71
C11.5938 62.6406 10.7031 52 9.29688 39.6562
C7.20312 37.4688 6.5 36.1719 6.5 34.5781
C6.5 32.5938 7.79688 31.2031 9.70312 31.2031
C12.2031 31.2031 13.7969 33.3281 14.2031 37.3594
C17.7031 39.8906 21 41 25 41
C33.9062 41 39.2969 34.0312 39.2969 22.5
C39.2969 15.7344 37.5938 9.95312 34.5938 6.82812
C32.5938 4.70312 28.5 3.29688 24.4062 3.29688
C18.4062 3.29688 12.2031 6.4375 12.2031 9.5625
C12.2031 10.2812 12.7969 11.0781 14 11.7812
C17.0938 13.7188 18 15.0312 18 17.75
C18 21.2969 15.2969 24.0156 11.7031 24.0156
C7.70312 24.0156 4.5 20.2812 4.5 15.5469
C4.5 10.5 7.40625 5.45312 11.9062 2.32812
C15.2969 0.109375 19.4062 -1 24.5938 -1
C40.2969 -1 50.2031 8.28125 50.2031 23.1094
C50.2031 36.8281 41.0938 46 27.5938 46
C23.4062 46 20.2031 45.2969 14.7031 43
z
" id="Century_Schoolbook_L_Roman-53"/>
      </defs>
      <g transform="translate(9.71606227221 88.9880358701)scale(0.08 -0.08)">
       <use transform="translate(0.0 1.84245602428)scale(0.996264009963)" xlink:href="#Century_Schoolbook_L_Roman-48"/>
       <use transform="translate(55.3916769633 1.84245602428)scale(0.996264009963)" xlink:href="#Century_Schoolbook_L_Roman-46"/>
       <use transform="translate(83.0868465666 1.84245602428)scale(0.996264009963)" xlink:href="#Century_Schoolbook_L_Roman-48"/>
       <use transform="translate(138.47852353 1.84245602428)scale(0.996264009963)" xlink:href="#Century_Schoolbook_L_Roman-48"/>
       <use transform="translate(193.870200493 1.84245602428)scale(0.996264009963)" xlink:href="#Century_Schoolbook_L_Roman-48"/>
       <use transform="translate(249.261877457 1.84245602428)scale(0.996264009963)" xlink:href="#Century_Schoolbook_L_Roman-48"/>
       <use transform="translate(304.65355442 1.84245602428)scale(0.996264009963)" xlink:href="#Century_Schoolbook_L_Roman-53"/>
      </g>
     </g>
    </g>
    <g id="ytick_3">
     <g id="line2d_18">
      <g>
       <use style="stroke:#000000;stroke-linecap:butt;stroke-width:0.5;" x="42.5196850394" xlink:href="#me8a85f7bf6" y="70.1744817601"/>
      </g>
     </g>
     <g id="line2d_19">
      <g>
       <use style="stroke:#000000;stroke-linecap:butt;stroke-width:0.5;" x="306.141732283" xlink:href="#m1a32005dea" y="70.1744817601"/>
      </g>
     </g>
     <g id="text_7">
      <!-- 0.00010 -->
      <defs>
       <path d="
M32.2031 70.5
C28.7969 66.2344 19.5938 63 10.4062 63
L10.4062 58.5938
L19.2031 58.5938
C25 58.5938 25.4062 58.2031 25.4062 52.3125
L25.4062 12.2812
L25.4062 9.375
C25.4062 5.1875 24.5 4.6875 16.5 4.6875
L10 4.6875
L10 0
L49.5938 0
L49.5938 4.6875
L44.0938 4.6875
C38.7969 4.6875 36.5938 5.09375 35.7969 6.09375
C35.0938 6.78125 35.0938 6.78125 35.0938 12.3125
L35.0938 53.6719
C35.0938 58.5781 35.2969 63.375 35.7969 70.5
z
" id="Century_Schoolbook_L_Roman-49"/>
      </defs>
      <g transform="translate(9.71606227221 73.0516547029)scale(0.08 -0.08)">
       <use transform="translate(0.0 1.84245602428)scale(0.996264009963)" xlink:href="#Century_Schoolbook_L_Roman-48"/>
       <use transform="translate(55.3916769633 1.84245602428)scale(0.996264009963)" xlink:href="#Century_Schoolbook_L_Roman-46"/>
       <use transform="translate(83.0868465666 1.84245602428)scale(0.996264009963)" xlink:href="#Century_Schoolbook_L_Roman-48"/>
       <use transform="translate(138.47852353 1.84245602428)scale(0.996264009963)" xlink:href="#Century_Schoolbook_L_Roman-48"/>
       <use transform="translate(193.870200493 1.84245602428)scale(0.996264009963)" xlink:href="#Century_Schoolbook_L_Roman-48"/>
       <use transform="translate(249.261877457 1.84245602428)scale(0.996264009963)" xlink:href="#Century_Schoolbook_L_Roman-49"/>
       <use transform="translate(304.65355442 1.84245602428)scale(0.996264009963)" xlink:href="#Century_Schoolbook_L_Roman-48"/>
      </g>
     </g>
    </g>
    <g id="ytick_4">
     <g id="line2d_20">
      <g>
       <use style="stroke:#000000;stroke-linecap:butt;stroke-width:0.5;" x="42.5196850394" xlink:href="#me8a85f7bf6" y="54.2381005929"/>
      </g>
     </g>
     <g id="line2d_21">
      <g>
       <use style="stroke:#000000;stroke-linecap:butt;stroke-width:0.5;" x="306.141732283" xlink:href="#m1a32005dea" y="54.2381005929"/>
      </g>
     </g>
     <g id="text_8">
      <!-- 0.00015 -->
      <g transform="translate(9.71606227221 57.1152735357)scale(0.08 -0.08)">
       <use transform="translate(0.0 1.84245602428)scale(0.996264009963)" xlink:href="#Century_Schoolbook_L_Roman-48"/>
       <use transform="translate(55.3916769633 1.84245602428)scale(0.996264009963)" xlink:href="#Century_Schoolbook_L_Roman-46"/>
       <use transform="translate(83.0868465666 1.84245602428)scale(0.996264009963)" xlink:href="#Century_Schoolbook_L_Roman-48"/>
       <use transform="translate(138.47852353 1.84245602428)scale(0.996264009963)" xlink:href="#Century_Schoolbook_L_Roman-48"/>
       <use transform="translate(193.870200493 1.84245602428)scale(0.996264009963)" xlink:href="#Century_Schoolbook_L_Roman-48"/>
       <use transform="translate(249.261877457 1.84245602428)scale(0.996264009963)" xlink:href="#Century_Schoolbook_L_Roman-49"/>
       <use transform="translate(304.65355442 1.84245602428)scale(0.996264009963)" xlink:href="#Century_Schoolbook_L_Roman-53"/>
      </g>
     </g>
    </g>
    <g id="ytick_5">
     <g id="line2d_22">
      <g>
       <use style="stroke:#000000;stroke-linecap:butt;stroke-width:0.5;" x="42.5196850394" xlink:href="#me8a85f7bf6" y="38.3017194257"/>
      </g>
     </g>
     <g id="line2d_23">
      <g>
       <use style="stroke:#000000;stroke-linecap:butt;stroke-width:0.5;" x="306.141732283" xlink:href="#m1a32005dea" y="38.3017194257"/>
      </g>
     </g>
     <g id="text_9">
      <!-- 0.00020 -->
      <defs>
       <path d="
M50.5 21.5625
L46.0938 21.5625
L45.0938 16.4688
C43.7969 10.0781 43 9.375 36.7969 9.375
L14.4062 9.375
C21.2969 16.5625 23.5938 18.6562 30 23.6562
C39.0938 30.6562 43 34.1562 45.2969 37.1406
C48.5 41.5312 50.0938 46.0312 50.0938 50.8125
C50.0938 62.1094 40.5938 70.2969 27.5938 70.2969
C14.9062 70.2969 5.09375 62.1094 5.09375 51.5156
C5.09375 45.2344 8.29688 40.9375 13.0938 40.9375
C16.7969 40.9375 19.2969 43.4375 19.2969 47.0312
C19.2969 49.5156 17.9062 51.8125 15.7031 52.7188
C12 54.3281 11.7969 54.4219 11.7969 55.7188
C11.7969 57.2188 12.7969 59.5156 14.2031 61.2188
C16.7031 64.2031 20.9062 66 25.5938 66
C33.7969 66 38.7969 60.9062 38.7969 52.5312
C38.7969 45.125 35.2969 38.4375 27 29.6562
L21.0938 23.4688
C17.5938 19.7812 15 16.9688 13.2969 15.0781
C9.70312 10.875 7.90625 8.57812 3.5 2.79688
L3.5 0
L48.5938 0
z
" id="Century_Schoolbook_L_Roman-50"/>
      </defs>
      <g transform="translate(9.71606227221 41.1788923685)scale(0.08 -0.08)">
       <use transform="translate(0.0 1.84245602428)scale(0.996264009963)" xlink:href="#Century_Schoolbook_L_Roman-48"/>
       <use transform="translate(55.3916769633 1.84245602428)scale(0.996264009963)" xlink:href="#Century_Schoolbook_L_Roman-46"/>
       <use transform="translate(83.0868465666 1.84245602428)scale(0.996264009963)" xlink:href="#Century_Schoolbook_L_Roman-48"/>
       <use transform="translate(138.47852353 1.84245602428)scale(0.996264009963)" xlink:href="#Century_Schoolbook_L_Roman-48"/>
       <use transform="translate(193.870200493 1.84245602428)scale(0.996264009963)" xlink:href="#Century_Schoolbook_L_Roman-48"/>
       <use transform="translate(249.261877457 1.84245602428)scale(0.996264009963)" xlink:href="#Century_Schoolbook_L_Roman-50"/>
       <use transform="translate(304.65355442 1.84245602428)scale(0.996264009963)" xlink:href="#Century_Schoolbook_L_Roman-48"/>
      </g>
     </g>
    </g>
    <g id="ytick_6">
     <g id="line2d_24">
      <g>
       <use style="stroke:#000000;stroke-linecap:butt;stroke-width:0.5;" x="42.5196850394" xlink:href="#me8a85f7bf6" y="22.3653382585"/>
      </g>
     </g>
     <g id="line2d_25">
      <g>
       <use style="stroke:#000000;stroke-linecap:butt;stroke-width:0.5;" x="306.141732283" xlink:href="#m1a32005dea" y="22.3653382585"/>
      </g>
     </g>
     <g id="text_10">
      <!-- 0.00025 -->
      <g transform="translate(9.71606227221 25.2425112013)scale(0.08 -0.08)">
       <use transform="translate(0.0 1.84245602428)scale(0.996264009963)" xlink:href="#Century_Schoolbook_L_Roman-48"/>
       <use transform="translate(55.3916769633 1.84245602428)scale(0.996264009963)" xlink:href="#Century_Schoolbook_L_Roman-46"/>
       <use transform="translate(83.0868465666 1.84245602428)scale(0.996264009963)" xlink:href="#Century_Schoolbook_L_Roman-48"/>
       <use transform="translate(138.47852353 1.84245602428)scale(0.996264009963)" xlink:href="#Century_Schoolbook_L_Roman-48"/>
       <use transform="translate(193.870200493 1.84245602428)scale(0.996264009963)" xlink:href="#Century_Schoolbook_L_Roman-48"/>
       <use transform="translate(249.261877457 1.84245602428)scale(0.996264009963)" xlink:href="#Century_Schoolbook_L_Roman-50"/>
       <use transform="translate(304.65355442 1.84245602428)scale(0.996264009963)" xlink:href="#Century_Schoolbook_L_Roman-53"/>
      </g>
     </g>
    </g>
   </g>
   <g id="patch_4">
    <path d="
M42.5197 11.3386
L306.142 11.3386" style="fill:none;stroke:#000000;"/>
   </g>
   <g id="patch_5">
    <path d="
M306.142 102.047
L306.142 11.3386" style="fill:none;stroke:#000000;"/>
   </g>
   <g id="patch_6">
    <path d="
M42.5197 102.047
L306.142 102.047" style="fill:none;stroke:#000000;"/>
   </g>
   <g id="patch_7">
    <path d="
M42.5197 102.047
L42.5197 11.3386" style="fill:none;stroke:#000000;"/>
   </g>
   <g id="patch_8">
    <path d="
M84.4297 56.2061
Q84.4436 69.1049 84.4574 82.0037" style="fill:none;stroke:#000000;stroke-linecap:round;stroke-width:0.25;"/>
   </g>
   <g id="text_11">
    <!-- $|\mathcal{F}(x)(f)|$ -->
    <defs>
     <path d="
M44.5938 40.0938
C46.5938 40.0938 47.4062 40.0938 47.4062 42
C47.4062 43 46.5938 43 44.7969 43
L36.7031 43
C38.5938 53.5781 40 60.8906 40.7969 64.1719
C41.4062 66.6406 43.5 69 46.0938 69
C48.2031 69 50.2969 68.0938 51.2969 67.1562
C47.4062 66.75 46.2031 63.7812 46.2031 62.0156
C46.2031 59.9531 47.7031 58.7344 49.5938 58.7344
C51.5938 58.7344 54.5938 60.4688 54.5938 64.3594
C54.5938 68.6406 50.4062 71 46 71
C41.7031 71 37.5 67.7188 35.5 63.7188
C33.7031 60.125 32.7031 56.4375 30.4062 43
L23.7031 43
C21.7969 43 20.7969 43 20.7969 41.2031
C20.7969 40.0938 21.4062 40.0938 23.4062 40.0938
L29.7969 40.0938
C28 30.875 23.9062 8.46875 21.5938 -2.14062
C19.9062 -10.7656 18.4062 -18 13.4062 -18
C13.0938 -18 10.2031 -18 8.40625 -16.1094
C13.5 -15.7031 13.5 -11.3438 13.5 -11.25
C13.5 -9.26562 12 -8.07812 10.0938 -8.07812
C8.09375 -8.07812 5.09375 -9.76562 5.09375 -13.5469
C5.09375 -17.8125 9.5 -20 13.4062 -20
C23.5938 -20 27.7969 -1.84375 28.9062 3.10938
C30.7031 10.75 35.5938 37.125 36.0938 40.0938
z
" id="CMMI12-102"/>
     <path d="
M83 64.7031
C83 69.2969 75.2969 68.6094 72.2031 68.6094
L34.5 68.6094
C29.5 68.6094 20.5938 65.7031 19 60.2969
C19.2031 59.6875 19.4062 59.5938 20 59.5938
C22.2031 59.5938 25.2031 61.4531 26.5938 63
C29.7031 63 32.7031 63 35.7969 63
L42 63
C42 63 41.5938 61.2969 41.5938 61.2031
C37.7031 42.9062 31.7969 27.4062 27.4062 17.6094
C26.7969 16.2969 21.4062 3.79688 20 2.60938
C15.5938 2.60938 12.2969 4.98438 10.5 8.875
C10.2031 9.46875 10.2031 9.875 9.5 9.875
C7.20312 9.875 1.70312 6.67188 1.70312 4.98438
C1.70312 4.78125 1.79688 4.59375 1.90625 4.39062
C3.70312 -0.296875 8.20312 -3 13.0938 -3
C18.2031 -3 24.0938 0.6875 27.2969 4.375
C30.5938 8.17188 37.2031 24.5156 39.7969 30.5
L59.0938 30.5
C59 30.3906 58.9062 30.2969 58.9062 30.1875
C58.9062 29.7969 59.5 29.5 59.9062 29.5
C62.0938 29.5 67.7969 32.2969 67.7969 35.3906
C67.7969 36.0938 67.0938 36 65.9062 36
L41.9062 36
C44.5 45 47.9062 53.7969 49.7031 63
L62.9062 63
C65.4062 63 72.4062 63.5 74.2031 61.3438
C74.4062 60.75 74.0938 59.7812 74.4062 59.2969
C74.5938 59.0938 74.9062 58.9844 75.2031 58.9844
C77.5938 58.9844 83 61.9844 83 64.7031" id="CMSY10-70"/>
     <path d="
M47.4062 40.7188
C44.2031 40.1094 43 37.7188 43 35.8281
C43 33.4219 44.9062 32.625 46.2969 32.625
C49.2969 32.625 51.4062 35.2188 51.4062 37.9219
C51.4062 42.1094 46.5938 44 42.4062 44
C36.2969 44 32.9062 38.0156 32 36.125
C29.7031 44 23.5 44 21.7031 44
C11.5 44 6.09375 30.9375 6.09375 28.7344
C6.09375 28.3438 6.5 27.8438 7.20312 27.8438
C8 27.8438 8.20312 28.4375 8.40625 28.8438
C11.7969 39.9219 18.5 42.0156 21.4062 42.0156
C25.9062 42.0156 26.7969 37.8125 26.7969 35.4219
C26.7969 33.2344 26.2031 30.9375 25 26.1406
L21.5938 12.4688
C20.0938 6.48438 17.2031 1 11.9062 1
C11.4062 1 8.90625 1 6.79688 2.29688
C10.4062 3 11.2031 5.98438 11.2031 7.1875
C11.2031 9.1875 9.70312 10.375 7.79688 10.375
C5.40625 10.375 2.79688 8.28125 2.79688 5.09375
C2.79688 0.890625 7.5 -1 11.7969 -1
C16.5938 -1 20 2.79688 22.0938 6.89062
C23.7031 1 28.7031 -1 32.4062 -1
C42.5938 -1 48 12.0781 48 14.2656
C48 14.7656 47.5938 15.1719 47 15.1719
C46.0938 15.1719 46 14.6719 45.7031 13.875
C43 5.09375 37.2031 1 32.7031 1
C29.2031 1 27.2969 3.59375 27.2969 7.6875
C27.2969 9.875 27.7031 11.4688 29.2969 18.0625
L32.7969 31.625
C34.2969 37.625 37.7031 42.0156 42.2969 42.0156
C42.5 42.0156 45.2969 42.0156 47.4062 40.7188" id="CMMI12-120"/>
     <path d="
M15.9062 71.4062
C15.9062 73.2031 15.9062 75 13.9062 75
C11.9062 75 11.9062 73.2031 11.9062 71.4062
L11.9062 -21.4062
C11.9062 -23.2031 11.9062 -25 13.9062 -25
C15.9062 -25 15.9062 -23.2031 15.9062 -21.4062
z
" id="CMSY10-106"/>
     <path d="
M26.2969 24.6719
C26.2969 31.8438 25.5938 43.9844 19.5938 56.8281
C14.7969 67.1875 6.59375 74.4531 5.40625 74.4531
C5.09375 74.4531 4.70312 74.3438 4.70312 73.8438
C4.70312 73.6562 4.79688 73.5469 4.90625 73.3438
C9.70312 68.375 21.9062 55.7344 21.9062 24.7812
C21.9062 -6.28125 9.79688 -18.9219 4.90625 -23.9062
C4.79688 -24.0938 4.70312 -24.2031 4.70312 -24.3906
C4.70312 -24.8906 5.09375 -25 5.40625 -25
C6.5 -25 15 -17.625 19.9062 -6.67188
C24.9062 4.375 26.2969 15.125 26.2969 24.6719" id="CMR17-41"/>
     <path d="
M30.5938 -24.3906
C30.5938 -24.2969 30.5938 -24.0938 30.2969 -23.7969
C25.7031 -19.125 13.4062 -6.375 13.4062 24.6875
C13.4062 55.75 25.5 68.3906 30.4062 73.3594
C30.4062 73.4688 30.5938 73.6719 30.5938 73.9531
C30.5938 74.25 30.2969 74.4531 29.9062 74.4531
C28.7969 74.4531 20.2969 67.0781 15.4062 56.125
C10.4062 45.0781 9 34.3281 9 24.7812
C9 17.6094 9.70312 5.46875 15.7031 -7.375
C20.5 -17.7344 28.7031 -25 29.9062 -25
C30.4062 -25 30.5938 -24.7969 30.5938 -24.3906" id="CMR17-40"/>
    </defs>
    <g transform="translate(67.2042949177 52.2062513045)scale(0.08 -0.08)">
     <use transform="translate(0.0 24.9066002491)scale(0.996264009963)" xlink:href="#CMSY10-106"/>
     <use transform="translate(27.6740847311 24.9066002491)scale(0.996264009963)" xlink:href="#CMSY10-70"/>
     <use transform="translate(109.173865217 24.9066002491)scale(0.996264009963)" xlink:href="#CMR17-40"/>
     <use transform="translate(144.454633017 24.9066002491)scale(0.996264009963)" xlink:href="#CMMI12-120"/>
     <use transform="translate(199.888692549 24.9066002491)scale(0.996264009963)" xlink:href="#CMR17-41"/>
     <use transform="translate(235.169460349 24.9066002491)scale(0.996264009963)" xlink:href="#CMR17-40"/>
     <use transform="translate(270.450228148 24.9066002491)scale(0.996264009963)" xlink:href="#CMMI12-102"/>
     <use transform="translate(329.170532987 24.9066002491)scale(0.996264009963)" xlink:href="#CMR17-41"/>
     <use transform="translate(364.451300786 24.9066002491)scale(0.996264009963)" xlink:href="#CMSY10-106"/>
    </g>
   </g>
   <g id="text_12">
    <!-- $f$ (Hz) -->
    <defs>
     <path d="
M58.4062 34.6094
L58.4062 12.2812
L58.4062 9.375
C58.4062 5.1875 57.5 4.6875 49.4062 4.6875
L47.5938 4.6875
L47.5938 0
L80.4062 0
L80.4062 4.6875
L78.5938 4.6875
C70.5 4.6875 69.5938 5.1875 69.5938 9.375
L69.5938 12.2812
L69.5938 59.7188
L69.5938 62.6094
C69.5938 66.8125 70.5 67.3125 78.5938 67.3125
L80.4062 67.3125
L80.4062 72
L48 72
L48 67.3125
L49.4062 67.3125
C57.5 67.3125 58.4062 66.8125 58.4062 62.625
L58.4062 59.7344
L58.4062 40
L24.9062 40
L24.9062 59.7344
L24.9062 62.625
C24.9062 66.8125 25.7969 67.3125 33.9062 67.3125
L35.7969 67.3125
L35.7969 72
L2.90625 72
L2.90625 67.3125
L4.70312 67.3125
C12.7969 67.3125 13.7031 66.8125 13.7031 62.6094
L13.7031 59.7188
L13.7031 12.2812
L13.7031 9.375
C13.7031 5.1875 12.7969 4.6875 4.70312 4.6875
L2.90625 4.6875
L2.90625 0
L35.7969 0
L35.7969 4.6875
L33.9062 4.6875
C25.7969 4.6875 24.9062 5.1875 24.9062 9.375
L24.9062 12.2812
L24.9062 34.6094
z
" id="Century_Schoolbook_L_Roman-72"/>
     <path d="
M42.7969 46.2969
L6.70312 46.2969
L5.79688 29.5
L9.79688 29.5
C10.7031 38.4219 14.2969 42 22.5 42
L31.2031 42
L3.90625 3.59375
L3.90625 0
L42.7969 0
L43.5 17.7812
L39.5 17.7812
C38.5 7.96875 34.7031 4.29688 25.7031 4.29688
L15.5 4.29688
L42.7969 42.7031
z
" id="Century_Schoolbook_L_Roman-122"/>
     <path d="
M5.40625 -12.2812
C11.4062 -8.57812 14.5938 -5.98438 18 -1.89062
C25.5938 6.98438 29.7031 18.5625 29.7031 30.6406
C29.7031 42.0156 26.0938 52.7031 19.4062 61.4844
C15.5938 66.375 12.2031 69.3594 5.40625 73.4531
L5.40625 69.7656
C15.4062 60.9844 19.4062 49.7969 19.4062 30.6406
C19.4062 11.375 15.4062 0.203125 5.40625 -8.57812
z
" id="Century_Schoolbook_L_Roman-41"/>
     <path d="
M27.9062 73.4531
C21.9062 69.7656 18.7031 67.1719 15.2969 63.1719
C7.70312 54.1875 3.59375 42.7188 3.59375 30.6406
C3.59375 19.2656 7.20312 8.57812 13.9062 -0.296875
C17.7031 -5.09375 21.0938 -8.07812 27.9062 -12.2812
L27.9062 -8.57812
C17.9062 0.203125 13.9062 11.4844 13.9062 30.6406
C13.9062 49.7969 17.9062 60.9844 27.9062 69.7656
z
" id="Century_Schoolbook_L_Roman-40"/>
    </defs>
    <g transform="translate(282.176091625 101.005313759)scale(0.08 -0.08)">
     <use transform="translate(0.0 19.3717224957)scale(0.996264009963)" xlink:href="#CMMI12-102"/>
     <use transform="translate(86.4154744415 19.3717224957)scale(0.996264009963)" xlink:href="#Century_Schoolbook_L_Roman-40"/>
     <use transform="translate(119.590704171 19.3717224957)scale(0.996264009963)" xlink:href="#Century_Schoolbook_L_Roman-72"/>
     <use transform="translate(202.579134398 19.3717224957)scale(0.996264009963)" xlink:href="#Century_Schoolbook_L_Roman-122"/>
     <use transform="translate(250.498846489 19.3717224957)scale(0.996264009963)" xlink:href="#Century_Schoolbook_L_Roman-41"/>
    </g>
   </g>
   <g id="patch_9">
    <path d="
M248.215 27.9059
Q242.228 27.6088 236.24 27.3116" style="fill:none;stroke:#000000;stroke-linecap:round;stroke-width:0.25;"/>
   </g>
   <g id="text_13">
    <!-- $f=\Delta f$ -->
    <defs>
     <path d="
M64.2969 31.5156
C65.7969 31.5156 67.2969 31.5156 67.2969 33.2031
C67.2969 35 65.5938 35 63.9062 35
L8 35
C6.29688 35 4.59375 35 4.59375 33.2031
C4.59375 31.5156 6.09375 31.5156 7.59375 31.5156
z

M63.9062 14
C65.5938 14 67.2969 14 67.2969 15.7969
C67.2969 17.4844 65.7969 17.4844 64.2969 17.4844
L7.59375 17.4844
C6.09375 17.4844 4.59375 17.4844 4.59375 15.7969
C4.59375 14 6.29688 14 8 14
z
" id="CMR17-61"/>
     <path d="
M40.5938 68.8125
C39.7969 70.5 39.4062 70.5 38.5938 70.5
C37.4062 70.5 37.2969 70.2969 36.5938 68.9062
L4.20312 1.6875
C4.09375 1.5 3.70312 0.59375 3.70312 0.5
C3.70312 0.09375 3.79688 0 5.59375 0
L71.5 0
C73.2969 0 73.4062 0.09375 73.4062 0.5
C73.4062 0.59375 73 1.5 72.9062 1.6875
z

M36.0938 62.9219
L63.7969 5.57812
L8.29688 5.57812
z
" id="CMR17-1"/>
    </defs>
    <g transform="translate(252.219040802 32.3258986855)scale(0.08 -0.08)">
     <use transform="translate(0.0 19.3717224957)scale(0.996264009963)" xlink:href="#CMMI12-102"/>
     <use transform="translate(86.3943135605 19.3717224957)scale(0.996264009963)" xlink:href="#CMR17-61"/>
     <use transform="translate(185.783110698 19.3717224957)scale(0.996264009963)" xlink:href="#CMR17-1"/>
     <use transform="translate(262.702700566 19.3717224957)scale(0.996264009963)" xlink:href="#CMMI12-102"/>
    </g>
   </g>
   <g id="patch_10">
    <path d="
M160.43 41.8449
L160.43 48.6669
L128.132 67.3145" style="fill:none;stroke:#000000;stroke-linecap:round;stroke-width:0.25;"/>
   </g>
   <g id="text_14">
    <!-- $\Delta t \times|\hat{x}_k|$ -->
    <defs>
     <path d="
M22.9062 69.0781
L10.5938 55.5469
L11.7969 54.3438
L22.9062 65.0938
L34 54.3438
L35.2031 55.5469
z
" id="CMR17-94"/>
     <path d="
M20.0938 40.0938
L29.2969 40.0938
C31.2031 40.0938 32.2031 40.0938 32.2031 41.8906
C32.2031 43 31.5938 43 29.5938 43
L20.7969 43
L24.5 57.6875
C24.9062 59.0781 24.9062 59.2812 24.9062 60
C24.9062 61.6094 23.5938 62.5 22.2969 62.5
C21.5 62.5 19.2031 62.2031 18.4062 58.9844
L14.5 43
L5.09375 43
C3.09375 43 2.20312 43 2.20312 41.0938
C2.20312 40.0938 2.90625 40.0938 4.79688 40.0938
L13.7031 40.0938
L7.09375 13.7656
C6.29688 10.2812 6 9.28125 6 7.98438
C6 3.29688 9.29688 -1 14.9062 -1
C25 -1 30.4062 13.5781 30.4062 14.2656
C30.4062 14.875 30 15.1719 29.4062 15.1719
C29.2031 15.1719 28.7969 15.1719 28.5938 14.7656
C28.5 14.6719 28.4062 14.5625 27.7031 12.9688
C25.5938 7.98438 21 1 15.2031 1
C12.2031 1 12 3.5 12 5.6875
C12 5.78125 12 7.6875 12.2969 8.875
z
" id="CMMI12-116"/>
     <path d="
M28.0938 66.5156
C28.2031 66.9219 28.4062 67.5156 28.4062 68
C28.4062 69 27.4062 69 27.2031 69
C27.0938 69 23.5 68.6406 21.7031 68.3906
C20 68.3906 18.5 68.0938 16.7031 68.0938
C14.2969 67.8906 13.5938 67.7969 13.5938 66
C13.5938 65 14.5938 65 15.5938 65
C20.7031 65 20.7031 64.0938 20.7031 63.0938
C20.7031 62.7188 20.7031 62.5156 20.2031 60.7188
L5.90625 3.875
C5.5 2.375 5.5 2.1875 5.5 1.57812
C5.5 -0.59375 7.20312 -1 8.20312 -1
C11 -1 11.5938 1.20312 12.4062 4.29688
L17.0938 22.9531
C24.2969 22.1562 28.5938 19.1562 28.5938 14.375
C28.5938 13.7656 28.5938 13.375 28.2969 11.875
C27.9062 10.375 27.9062 9.1875 27.9062 8.6875
C27.9062 2.89062 31.7031 -1 36.7969 -1
C41.4062 -1 43.7969 3.1875 44.5938 4.59375
C46.7031 8.28125 48 13.875 48 14.2656
C48 14.7656 47.5938 15.1719 47 15.1719
C46.0938 15.1719 46 14.7656 45.5938 13.1719
C44.2031 7.98438 42.0938 1 37 1
C35 1 33.7031 2 33.7031 5.78125
C33.7031 7.6875 34.0938 9.875 34.5 11.375
C34.9062 13.1719 34.9062 13.2656 34.9062 14.4688
C34.9062 20.3594 29.5938 23.6562 20.4062 24.8438
C24 27.0469 27.5938 30.9375 29 32.4375
C34.7031 38.8125 38.5938 42.0156 43.2031 42.0156
C45.5 42.0156 46.0938 41.4062 46.7969 40.8125
C43.0938 40.4062 41.7031 37.8125 41.7031 35.8281
C41.7031 33.4219 43.5938 32.625 45 32.625
C47.7031 32.625 50.0938 34.9219 50.0938 38.125
C50.0938 41.0156 47.7969 44 43.2969 44
C37.7969 44 33.2969 40.1094 26.2031 32.125
C25.2031 30.9375 21.5 27.1406 17.7969 25.75
z
" id="CMMI12-107"/>
     <path d="
M38.9062 27.8906
L18.9062 47.7969
C17.7031 49 17.5 49.1875 16.7031 49.1875
C15.7031 49.1875 14.7031 48.2969 14.7031 47.1875
C14.7031 46.5 14.9062 46.2969 16 45.1875
L36 25.0938
L16 5
C14.9062 3.89062 14.7031 3.6875 14.7031 3
C14.7031 1.89062 15.7031 1 16.7031 1
C17.5 1 17.7031 1.1875 18.9062 2.39062
L38.7969 22.2969
L59.5 1.59375
C59.7031 1.5 60.4062 1 61 1
C62.2031 1 63 1.89062 63 3
C63 3.1875 63 3.59375 62.7031 4.09375
C62.5938 4.29688 46.7031 20 41.7031 25.0938
L60 43.3906
C60.5 44 62 45.2969 62.5 45.8906
C62.5938 46.0938 63 46.5 63 47.1875
C63 48.2969 62.2031 49.1875 61 49.1875
C60.2031 49.1875 59.7969 48.7969 58.7031 47.6875
z
" id="CMSY10-2"/>
    </defs>
    <g transform="translate(143.175375805 37.8420254695)scale(0.08 -0.08)">
     <use transform="translate(0.0 24.9066002491)scale(0.996264009963)" xlink:href="#CMR17-1"/>
     <use transform="translate(76.9195898681 24.9066002491)scale(0.996264009963)" xlink:href="#CMMI12-116"/>
     <use transform="translate(134.285127063 24.9066002491)scale(0.996264009963)" xlink:href="#CMSY10-2"/>
     <use transform="translate(233.911801691 24.9066002491)scale(0.996264009963)" xlink:href="#CMSY10-106"/>
     <use transform="translate(269.167395339 24.9130610066)scale(0.996264009963)" xlink:href="#CMR17-94"/>
     <use transform="translate(261.585886422 24.9066002491)scale(0.996264009963)" xlink:href="#CMMI12-120"/>
     <use transform="translate(317.019945955 9.96268570497)scale(0.697381766617)" xlink:href="#CMMI12-107"/>
     <use transform="translate(355.373328412 24.9066002491)scale(0.996264009963)" xlink:href="#CMSY10-106"/>
    </g>
   </g>
  </g>
 </g>
 <defs>
  <clipPath id="p814608433f">
   <rect height="90.7086614173" width="263.622047244" x="42.5196850394" y="11.3385826772"/>
  </clipPath>
 </defs>
</svg>
