<?xml version="1.0" encoding="utf-8" standalone="no"?>
<!DOCTYPE svg PUBLIC "-//W3C//DTD SVG 1.1//EN"
  "http://www.w3.org/Graphics/SVG/1.1/DTD/svg11.dtd">
<!-- Created with matplotlib (http://matplotlib.org/) -->
<svg height="492pt" version="1.1" viewBox="0 0 345 492" width="345pt" xmlns="http://www.w3.org/2000/svg" xmlns:xlink="http://www.w3.org/1999/xlink">
 <defs>
  <style type="text/css">
*{stroke-linecap:butt;stroke-linejoin:round;stroke-miterlimit:100000;}
  </style>
 </defs>
 <g id="figure_1">
  <g id="patch_1">
   <path d="M 0 492.857143 
L 345 492.857143 
L 345 0 
L 0 0 
z
" style="fill:#ffffff;"/>
  </g>
  <g id="axes_1">
   <g id="patch_2">
    <path d="M 34.5 418.928571 
L 310.5 418.928571 
L 310.5 73.928571 
L 34.5 73.928571 
z
" style="fill:#ffffff;"/>
   </g>
   <g id="matplotlib.axis_1">
    <g id="xtick_1">
     <g id="line2d_1">
      <path clip-path="url(#p2b9ef8e72a)" d="M 34.5 418.928571 
L 34.5 73.928571 
" style="fill:none;stroke:#000000;stroke-dasharray:1.000000,3.000000;stroke-dashoffset:0.0;stroke-width:0.5;"/>
     </g>
     <g id="line2d_2">
      <defs>
       <path d="M 0 0 
L 0 -4 
" id="m7e92011d3b" style="stroke:#000000;stroke-width:0.5;"/>
      </defs>
      <g>
       <use style="stroke:#000000;stroke-width:0.5;" x="34.5" xlink:href="#m7e92011d3b" y="418.928571429"/>
      </g>
     </g>
     <g id="line2d_3">
      <defs>
       <path d="M 0 0 
L 0 4 
" id="ma5a115c77a" style="stroke:#000000;stroke-width:0.5;"/>
      </defs>
      <g>
       <use style="stroke:#000000;stroke-width:0.5;" x="34.5" xlink:href="#ma5a115c77a" y="73.9285714286"/>
      </g>
     </g>
     <g id="text_1">
      <!-- $0$ -->
      <defs>
       <path d="M 42 31.640625 
C 42 37.75 41.90625 48.125 37.703125 56.109375 
C 34 63.109375 28.09375 65.59375 22.90625 65.59375 
C 18.09375 65.59375 12 63.40625 8.203125 56.203125 
C 4.203125 48.71875 3.796875 39.4375 3.796875 31.640625 
C 3.796875 25.953125 3.90625 17.28125 7 9.671875 
C 11.296875 -0.609375 19 -2 22.90625 -2 
C 27.5 -2 34.5 -0.109375 38.59375 9.375 
C 41.59375 16.28125 42 24.359375 42 31.640625 
M 22.90625 -0.40625 
C 16.5 -0.40625 12.703125 5.078125 11.296875 12.6875 
C 10.203125 18.5625 10.203125 27.15625 10.203125 32.75 
C 10.203125 40.4375 10.203125 46.828125 11.5 52.921875 
C 13.40625 61.390625 19 64 22.90625 64 
C 27 64 32.296875 61.296875 34.203125 53.125 
C 35.5 47.4375 35.59375 40.734375 35.59375 32.75 
C 35.59375 26.25 35.59375 18.265625 34.40625 12.375 
C 32.296875 1.484375 26.40625 -0.40625 22.90625 -0.40625 
" id="CMR17-48"/>
      </defs>
      <g transform="translate(32.3829085753 428.463373173)scale(0.08 -0.08)">
       <use transform="scale(0.996264009963)" xlink:href="#CMR17-48"/>
      </g>
     </g>
    </g>
    <g id="xtick_2">
     <g id="line2d_4">
      <path clip-path="url(#p2b9ef8e72a)" d="M 62.1 418.928571 
L 62.1 73.928571 
" style="fill:none;stroke:#000000;stroke-dasharray:1.000000,3.000000;stroke-dashoffset:0.0;stroke-width:0.5;"/>
     </g>
     <g id="line2d_5">
      <g>
       <use style="stroke:#000000;stroke-width:0.5;" x="62.1" xlink:href="#m7e92011d3b" y="418.928571429"/>
      </g>
     </g>
     <g id="line2d_6">
      <g>
       <use style="stroke:#000000;stroke-width:0.5;" x="62.1" xlink:href="#ma5a115c77a" y="73.9285714286"/>
      </g>
     </g>
     <g id="text_2">
      <!-- $10$ -->
      <defs>
       <path d="M 26.59375 63.40625 
C 26.59375 65.5 26.5 65.5 25.09375 65.5 
C 21.203125 61.1875 15.296875 59.796875 9.703125 59.796875 
C 9.40625 59.796875 8.90625 59.796875 8.796875 59.5 
C 8.703125 59.296875 8.703125 59.09375 8.703125 57 
C 11.796875 57 17 57.59375 21 59.984375 
L 21 7.203125 
C 21 3.6875 20.796875 2.5 12.203125 2.5 
L 9.203125 2.5 
L 9.203125 0 
C 14 0 19 0 23.796875 0 
C 28.59375 0 33.59375 0 38.40625 0 
L 38.40625 2.5 
L 35.40625 2.5 
C 26.796875 2.5 26.59375 3.59375 26.59375 7.15625 
z
" id="CMR17-49"/>
      </defs>
      <g transform="translate(57.8658171505 428.463373173)scale(0.08 -0.08)">
       <use transform="scale(0.996264009963)" xlink:href="#CMR17-49"/>
       <use transform="translate(45.6904771171 0.0)scale(0.996264009963)" xlink:href="#CMR17-48"/>
      </g>
     </g>
    </g>
    <g id="xtick_3">
     <g id="line2d_7">
      <path clip-path="url(#p2b9ef8e72a)" d="M 89.7 418.928571 
L 89.7 73.928571 
" style="fill:none;stroke:#000000;stroke-dasharray:1.000000,3.000000;stroke-dashoffset:0.0;stroke-width:0.5;"/>
     </g>
     <g id="line2d_8">
      <g>
       <use style="stroke:#000000;stroke-width:0.5;" x="89.7" xlink:href="#m7e92011d3b" y="418.928571429"/>
      </g>
     </g>
     <g id="line2d_9">
      <g>
       <use style="stroke:#000000;stroke-width:0.5;" x="89.7" xlink:href="#ma5a115c77a" y="73.9285714286"/>
      </g>
     </g>
     <g id="text_3">
      <!-- $20$ -->
      <defs>
       <path d="M 41.703125 15.453125 
L 39.90625 15.453125 
C 38.90625 8.375 38.09375 7.171875 37.703125 6.5625 
C 37.203125 5.765625 30 5.765625 28.59375 5.765625 
L 9.40625 5.765625 
C 13 9.671875 20 16.75 28.5 24.953125 
C 34.59375 30.734375 41.703125 37.53125 41.703125 47.421875 
C 41.703125 59.21875 32.296875 66 21.796875 66 
C 10.796875 66 4.09375 56.3125 4.09375 47.34375 
C 4.09375 43.4375 7 42.9375 8.203125 42.9375 
C 9.203125 42.9375 12.203125 43.546875 12.203125 47.03125 
C 12.203125 50.109375 9.59375 51 8.203125 51 
C 7.59375 51 7 50.90625 6.59375 50.703125 
C 8.5 59.21875 14.296875 63.40625 20.40625 63.40625 
C 29.09375 63.40625 34.796875 56.515625 34.796875 47.421875 
C 34.796875 38.734375 29.703125 31.25 24 24.75 
L 4.09375 2.28125 
L 4.09375 0 
L 39.296875 0 
z
" id="CMR17-50"/>
      </defs>
      <g transform="translate(85.4658171505 428.463373173)scale(0.08 -0.08)">
       <use transform="scale(0.996264009963)" xlink:href="#CMR17-50"/>
       <use transform="translate(45.6904771171 0.0)scale(0.996264009963)" xlink:href="#CMR17-48"/>
      </g>
     </g>
    </g>
    <g id="xtick_4">
     <g id="line2d_10">
      <path clip-path="url(#p2b9ef8e72a)" d="M 117.3 418.928571 
L 117.3 73.928571 
" style="fill:none;stroke:#000000;stroke-dasharray:1.000000,3.000000;stroke-dashoffset:0.0;stroke-width:0.5;"/>
     </g>
     <g id="line2d_11">
      <g>
       <use style="stroke:#000000;stroke-width:0.5;" x="117.3" xlink:href="#m7e92011d3b" y="418.928571429"/>
      </g>
     </g>
     <g id="line2d_12">
      <g>
       <use style="stroke:#000000;stroke-width:0.5;" x="117.3" xlink:href="#ma5a115c77a" y="73.9285714286"/>
      </g>
     </g>
     <g id="text_4">
      <!-- $30$ -->
      <defs>
       <path d="M 22.09375 33.703125 
C 31 33.703125 34.90625 25.96875 34.90625 17.03125 
C 34.90625 5 28.5 0.390625 22.703125 0.390625 
C 17.40625 0.390625 8.796875 3.03125 6.09375 10.828125 
C 6.59375 10.625 7.09375 10.625 7.59375 10.625 
C 10 10.625 11.796875 12.21875 11.796875 14.8125 
C 11.796875 17.703125 9.59375 19 7.59375 19 
C 5.90625 19 3.296875 18.203125 3.296875 14.46875 
C 3.296875 5.234375 12.296875 -2 22.90625 -2 
C 34 -2 42.5 6.71875 42.5 16.953125 
C 42.5 26.671875 34.5 33.703125 25 34.796875 
C 32.59375 36.375 39.90625 43.0625 39.90625 52.015625 
C 39.90625 59.6875 32 65.296875 23 65.296875 
C 13.90625 65.296875 5.90625 59.828125 5.90625 52.015625 
C 5.90625 48.59375 8.5 48 9.796875 48 
C 11.90625 48 13.703125 49.296875 13.703125 51.890625 
C 13.703125 54.46875 11.90625 55.765625 9.796875 55.765625 
C 9.40625 55.765625 8.90625 55.765625 8.5 55.578125 
C 11.40625 61.859375 19.296875 63 22.796875 63 
C 26.296875 63 32.90625 61.328125 32.90625 51.875 
C 32.90625 49.109375 32.5 44.1875 29.09375 39.84375 
C 26.09375 36 22.703125 36 19.40625 35.6875 
C 18.90625 35.6875 16.59375 35.453125 16.203125 35.453125 
C 15.5 35.359375 15.09375 35.265625 15.09375 34.5 
C 15.09375 33.796875 15.203125 33.703125 17.203125 33.703125 
z
" id="CMR17-51"/>
      </defs>
      <g transform="translate(113.065817151 428.463373173)scale(0.08 -0.08)">
       <use transform="scale(0.996264009963)" xlink:href="#CMR17-51"/>
       <use transform="translate(45.6904771171 0.0)scale(0.996264009963)" xlink:href="#CMR17-48"/>
      </g>
     </g>
    </g>
    <g id="xtick_5">
     <g id="line2d_13">
      <path clip-path="url(#p2b9ef8e72a)" d="M 144.9 418.928571 
L 144.9 73.928571 
" style="fill:none;stroke:#000000;stroke-dasharray:1.000000,3.000000;stroke-dashoffset:0.0;stroke-width:0.5;"/>
     </g>
     <g id="line2d_14">
      <g>
       <use style="stroke:#000000;stroke-width:0.5;" x="144.9" xlink:href="#m7e92011d3b" y="418.928571429"/>
      </g>
     </g>
     <g id="line2d_15">
      <g>
       <use style="stroke:#000000;stroke-width:0.5;" x="144.9" xlink:href="#ma5a115c77a" y="73.9285714286"/>
      </g>
     </g>
     <g id="text_5">
      <!-- $40$ -->
      <defs>
       <path d="M 33.59375 64.40625 
C 33.59375 66.5 33.5 66.5 31.703125 66.5 
L 2 19.59375 
L 2 17 
L 27.796875 17 
L 27.796875 7.140625 
C 27.796875 3.5 27.59375 2.5 20.59375 2.5 
L 18.703125 2.5 
L 18.703125 0 
C 21.90625 0 27.296875 0 30.703125 0 
C 34.09375 0 39.5 0 42.703125 0 
L 42.703125 2.5 
L 40.796875 2.5 
C 33.796875 2.5 33.59375 3.5 33.59375 7.140625 
L 33.59375 17 
L 43.796875 17 
L 43.796875 19.59375 
L 33.59375 19.59375 
z
M 28.09375 57.859375 
L 28.09375 19.59375 
L 4 19.59375 
z
" id="CMR17-52"/>
      </defs>
      <g transform="translate(140.665817151 428.463373173)scale(0.08 -0.08)">
       <use transform="scale(0.996264009963)" xlink:href="#CMR17-52"/>
       <use transform="translate(45.6904771171 0.0)scale(0.996264009963)" xlink:href="#CMR17-48"/>
      </g>
     </g>
    </g>
    <g id="xtick_6">
     <g id="line2d_16">
      <path clip-path="url(#p2b9ef8e72a)" d="M 172.5 418.928571 
L 172.5 73.928571 
" style="fill:none;stroke:#000000;stroke-dasharray:1.000000,3.000000;stroke-dashoffset:0.0;stroke-width:0.5;"/>
     </g>
     <g id="line2d_17">
      <g>
       <use style="stroke:#000000;stroke-width:0.5;" x="172.5" xlink:href="#m7e92011d3b" y="418.928571429"/>
      </g>
     </g>
     <g id="line2d_18">
      <g>
       <use style="stroke:#000000;stroke-width:0.5;" x="172.5" xlink:href="#ma5a115c77a" y="73.9285714286"/>
      </g>
     </g>
     <g id="text_6">
      <!-- $50$ -->
      <defs>
       <path d="M 11.40625 57.6875 
C 12.40625 57.28125 16.5 56 20.703125 56 
C 30 56 35.09375 61.109375 38 64.0625 
C 38 64.953125 38 65.5 37.40625 65.5 
C 37.296875 65.5 37.09375 65.5 36.296875 65.046875 
C 32.796875 63.40625 28.703125 62.078125 23.703125 62.078125 
C 20.703125 62.078125 16.203125 62.484375 11.296875 64.671875 
C 10.203125 65.171875 10 65.171875 9.90625 65.171875 
C 9.40625 65.171875 9.296875 65.0625 9.296875 63.078125 
L 9.296875 34.421875 
C 9.296875 32.640625 9.296875 32.140625 10.296875 32.140625 
C 10.796875 32.140625 11 32.34375 11.5 33.03125 
C 14.703125 37.515625 19.09375 39.40625 24.09375 39.40625 
C 27.59375 39.40625 35.09375 37.21875 35.09375 20.140625 
C 35.09375 16.953125 35.09375 11.171875 32.09375 6.578125 
C 29.59375 2.484375 25.703125 0.390625 21.40625 0.390625 
C 14.796875 0.390625 8.09375 5 6.296875 12.71875 
C 6.703125 12.609375 7.5 12.421875 7.90625 12.421875 
C 9.203125 12.421875 11.703125 13.125 11.703125 16.21875 
C 11.703125 18.90625 9.796875 20 7.90625 20 
C 5.59375 20 4.09375 18.59375 4.09375 15.796875 
C 4.09375 7.09375 11 -2 21.59375 -2 
C 31.90625 -2 41.703125 6.875 41.703125 19.75 
C 41.703125 31.71875 33.90625 41 24.203125 41 
C 19.09375 41 14.796875 39.109375 11.40625 35.53125 
z
" id="CMR17-53"/>
      </defs>
      <g transform="translate(168.265817151 428.463373173)scale(0.08 -0.08)">
       <use transform="scale(0.996264009963)" xlink:href="#CMR17-53"/>
       <use transform="translate(45.6904771171 0.0)scale(0.996264009963)" xlink:href="#CMR17-48"/>
      </g>
     </g>
    </g>
    <g id="xtick_7">
     <g id="line2d_19">
      <path clip-path="url(#p2b9ef8e72a)" d="M 200.1 418.928571 
L 200.1 73.928571 
" style="fill:none;stroke:#000000;stroke-dasharray:1.000000,3.000000;stroke-dashoffset:0.0;stroke-width:0.5;"/>
     </g>
     <g id="line2d_20">
      <g>
       <use style="stroke:#000000;stroke-width:0.5;" x="200.1" xlink:href="#m7e92011d3b" y="418.928571429"/>
      </g>
     </g>
     <g id="line2d_21">
      <g>
       <use style="stroke:#000000;stroke-width:0.5;" x="200.1" xlink:href="#ma5a115c77a" y="73.9285714286"/>
      </g>
     </g>
     <g id="text_7">
      <!-- $60$ -->
      <defs>
       <path d="M 10.59375 34 
C 10.59375 57.65625 21.796875 63 28.296875 63 
C 30.40625 63 35.5 62.640625 37.5 59 
C 35.90625 59 32.90625 59 32.90625 55.515625 
C 32.90625 52.828125 35.09375 51.921875 36.5 51.921875 
C 37.40625 51.921875 40.09375 52.3125 40.09375 55.625 
C 40.09375 61.78125 35.09375 65.296875 28.203125 65.296875 
C 16.296875 65.296875 3.796875 52.96875 3.796875 31 
C 3.796875 3.953125 15.09375 -2 23.09375 -2 
C 32.796875 -2 42 6.671875 42 20.046875 
C 42 32.515625 33.90625 41.59375 23.703125 41.59375 
C 17.59375 41.59375 13.09375 37.609375 10.59375 30.625 
z
M 23.09375 0.390625 
C 10.796875 0.390625 10.796875 18.75 10.796875 22.4375 
C 10.796875 29.625 14.203125 40 23.5 40 
C 25.203125 40 30.09375 40 33.40625 33.125 
C 35.203125 29.21875 35.203125 25.140625 35.203125 20.140625 
C 35.203125 14.75 35.203125 10.78125 33.09375 6.78125 
C 30.90625 2.671875 27.703125 0.390625 23.09375 0.390625 
" id="CMR17-54"/>
      </defs>
      <g transform="translate(195.865817151 428.463373173)scale(0.08 -0.08)">
       <use transform="scale(0.996264009963)" xlink:href="#CMR17-54"/>
       <use transform="translate(45.6904771171 0.0)scale(0.996264009963)" xlink:href="#CMR17-48"/>
      </g>
     </g>
    </g>
    <g id="xtick_8">
     <g id="line2d_22">
      <path clip-path="url(#p2b9ef8e72a)" d="M 227.7 418.928571 
L 227.7 73.928571 
" style="fill:none;stroke:#000000;stroke-dasharray:1.000000,3.000000;stroke-dashoffset:0.0;stroke-width:0.5;"/>
     </g>
     <g id="line2d_23">
      <g>
       <use style="stroke:#000000;stroke-width:0.5;" x="227.7" xlink:href="#m7e92011d3b" y="418.928571429"/>
      </g>
     </g>
     <g id="line2d_24">
      <g>
       <use style="stroke:#000000;stroke-width:0.5;" x="227.7" xlink:href="#ma5a115c77a" y="73.9285714286"/>
      </g>
     </g>
     <g id="text_8">
      <!-- $70$ -->
      <defs>
       <path d="M 45.09375 61.578125 
L 45.09375 63.765625 
L 21.59375 63.765625 
C 9.90625 63.765625 9.703125 65.078125 9.296875 67 
L 7.5 67 
L 4.59375 48.34375 
L 6.40625 48.34375 
C 6.703125 50.234375 7.40625 55.3125 8.59375 57.203125 
C 9.203125 58 16.59375 58 18.296875 58 
L 40.296875 58 
L 29.203125 41.578125 
C 21.796875 30.53125 16.703125 15.609375 16.703125 2.578125 
C 16.703125 1.390625 16.703125 -2 20.296875 -2 
C 23.90625 -2 23.90625 1.390625 23.90625 2.671875 
L 23.90625 7.265625 
C 23.90625 23.5625 26.703125 34.3125 31.296875 41.1875 
z
" id="CMR17-55"/>
      </defs>
      <g transform="translate(223.465817151 428.463373173)scale(0.08 -0.08)">
       <use transform="scale(0.996264009963)" xlink:href="#CMR17-55"/>
       <use transform="translate(45.6904771171 0.0)scale(0.996264009963)" xlink:href="#CMR17-48"/>
      </g>
     </g>
    </g>
    <g id="xtick_9">
     <g id="line2d_25">
      <path clip-path="url(#p2b9ef8e72a)" d="M 255.3 418.928571 
L 255.3 73.928571 
" style="fill:none;stroke:#000000;stroke-dasharray:1.000000,3.000000;stroke-dashoffset:0.0;stroke-width:0.5;"/>
     </g>
     <g id="line2d_26">
      <g>
       <use style="stroke:#000000;stroke-width:0.5;" x="255.3" xlink:href="#m7e92011d3b" y="418.928571429"/>
      </g>
     </g>
     <g id="line2d_27">
      <g>
       <use style="stroke:#000000;stroke-width:0.5;" x="255.3" xlink:href="#ma5a115c77a" y="73.9285714286"/>
      </g>
     </g>
     <g id="text_9">
      <!-- $80$ -->
      <defs>
       <path d="M 27.203125 35.375 
C 33.5 38.546875 39.90625 43.328125 39.90625 50.984375 
C 39.90625 60.015625 31.09375 65.296875 23 65.296875 
C 13.90625 65.296875 5.90625 58.734375 5.90625 49.6875 
C 5.90625 47.203125 6.5 42.921875 10.40625 39.140625 
C 11.40625 38.15625 15.59375 35.171875 18.296875 33.28125 
C 13.796875 30.984375 3.296875 25.53125 3.296875 14.59375 
C 3.296875 4.359375 13.09375 -2 22.796875 -2 
C 33.5 -2 42.5 5.65625 42.5 15.78125 
C 42.5 24.84375 36.40625 29.015625 32.40625 31.703125 
z
M 14.09375 44.09375 
C 13.296875 44.59375 9.296875 47.671875 9.296875 52.359375 
C 9.296875 58.421875 15.59375 63 22.796875 63 
C 30.703125 63 36.5 57.4375 36.5 50.96875 
C 36.5 41.703125 26.09375 36.421875 25.59375 36.421875 
C 25.5 36.421875 25.40625 36.421875 24.59375 37.03125 
z
M 32.5 23.734375 
C 34 22.640625 38.796875 19.375 38.796875 13.296875 
C 38.796875 5.953125 31.40625 0.390625 23 0.390625 
C 13.90625 0.390625 7 6.84375 7 14.6875 
C 7 22.546875 13.09375 29.09375 20 32.1875 
z
" id="CMR17-56"/>
      </defs>
      <g transform="translate(251.065817151 428.463373173)scale(0.08 -0.08)">
       <use transform="scale(0.996264009963)" xlink:href="#CMR17-56"/>
       <use transform="translate(45.6904771171 0.0)scale(0.996264009963)" xlink:href="#CMR17-48"/>
      </g>
     </g>
    </g>
    <g id="xtick_10">
     <g id="line2d_28">
      <path clip-path="url(#p2b9ef8e72a)" d="M 282.9 418.928571 
L 282.9 73.928571 
" style="fill:none;stroke:#000000;stroke-dasharray:1.000000,3.000000;stroke-dashoffset:0.0;stroke-width:0.5;"/>
     </g>
     <g id="line2d_29">
      <g>
       <use style="stroke:#000000;stroke-width:0.5;" x="282.9" xlink:href="#m7e92011d3b" y="418.928571429"/>
      </g>
     </g>
     <g id="line2d_30">
      <g>
       <use style="stroke:#000000;stroke-width:0.5;" x="282.9" xlink:href="#ma5a115c77a" y="73.9285714286"/>
      </g>
     </g>
     <g id="text_10">
      <!-- $90$ -->
      <defs>
       <path d="M 35.203125 29.125 
C 35.203125 7.25 26.09375 0.484375 18.59375 0.484375 
C 16.296875 0.484375 10.703125 0.484375 8.40625 4.59375 
C 11 4.1875 12.90625 5.578125 12.90625 8.09375 
C 12.90625 10.8125 10.703125 11.703125 9.296875 11.703125 
C 8.40625 11.703125 5.703125 11.296875 5.703125 7.90625 
C 5.703125 1.109375 11.59375 -2 18.796875 -2 
C 30.296875 -2 42 10.53125 42 32.390625 
C 42 59.640625 30.796875 65.296875 23.203125 65.296875 
C 13.296875 65.296875 3.796875 56.6875 3.796875 43.40625 
C 3.796875 31.109375 11.90625 22 22.09375 22 
C 30.5 22 34.203125 29.734375 35.203125 33 
z
M 22.296875 23.59375 
C 19.59375 23.59375 15.796875 24.09375 12.703125 30.03125 
C 10.59375 33.890625 10.59375 38.453125 10.59375 43.296875 
C 10.59375 49.15625 10.59375 53.203125 13.40625 57.5625 
C 14.796875 59.640625 17.40625 63 23.203125 63 
C 35 63 35 45.078125 35 41.125 
C 35 34.09375 31.796875 23.59375 22.296875 23.59375 
" id="CMR17-57"/>
      </defs>
      <g transform="translate(278.665817151 428.463373173)scale(0.08 -0.08)">
       <use transform="scale(0.996264009963)" xlink:href="#CMR17-57"/>
       <use transform="translate(45.6904771171 0.0)scale(0.996264009963)" xlink:href="#CMR17-48"/>
      </g>
     </g>
    </g>
    <g id="xtick_11">
     <g id="line2d_31">
      <path clip-path="url(#p2b9ef8e72a)" d="M 310.5 418.928571 
L 310.5 73.928571 
" style="fill:none;stroke:#000000;stroke-dasharray:1.000000,3.000000;stroke-dashoffset:0.0;stroke-width:0.5;"/>
     </g>
     <g id="line2d_32">
      <g>
       <use style="stroke:#000000;stroke-width:0.5;" x="310.5" xlink:href="#m7e92011d3b" y="418.928571429"/>
      </g>
     </g>
     <g id="line2d_33">
      <g>
       <use style="stroke:#000000;stroke-width:0.5;" x="310.5" xlink:href="#ma5a115c77a" y="73.9285714286"/>
      </g>
     </g>
     <g id="text_11">
      <!-- $100$ -->
      <g transform="translate(304.148725726 428.463373173)scale(0.08 -0.08)">
       <use transform="scale(0.996264009963)" xlink:href="#CMR17-49"/>
       <use transform="translate(45.6904771171 0.0)scale(0.996264009963)" xlink:href="#CMR17-48"/>
       <use transform="translate(91.3809542341 0.0)scale(0.996264009963)" xlink:href="#CMR17-48"/>
      </g>
     </g>
    </g>
    <g id="text_12">
     <!-- Pourcentage de r\'eponses positives -->
     <defs>
      <path d="M 15.5 61.078125 
C 15.5 63.265625 13.703125 65.15625 11.40625 65.15625 
C 9.203125 65.15625 7.296875 63.375 7.296875 61.078125 
C 7.296875 58.890625 9.09375 57 11.40625 57 
C 13.59375 57 15.5 58.796875 15.5 61.078125 
M 3.796875 42.28125 
L 3.796875 39.703125 
C 9.40625 39.703125 10.203125 39.09375 10.203125 34.328125 
L 10.203125 6.671875 
C 10.203125 2.875 9.796875 2.390625 3.40625 2.390625 
L 3.40625 -0.203125 
C 5.796875 0 10.09375 0 12.59375 0 
C 15 0 19.09375 0 21.40625 -0.203125 
L 21.40625 2.390625 
C 15.5 2.390625 15.296875 2.984375 15.296875 6.5625 
L 15.296875 43.375 
z
" id="CMR17-105"/>
      <path d="M 36 25.828125 
C 36 32.375 36 35.84375 31.796875 39.734375 
C 28.09375 43 23.796875 44 20.40625 44 
C 12.5 44 6.796875 37.609375 6.796875 30.796875 
C 6.796875 27 9.796875 27 10.40625 27 
C 11.703125 27 14 27.78125 14 30.53125 
C 14 33 12.09375 34.078125 10.40625 34.078125 
C 10 34.078125 9.5 33.96875 9.203125 33.875 
C 11.296875 40.5 16.703125 42.40625 20.203125 42.40625 
C 25.203125 42.40625 30.703125 37.953125 30.703125 29.453125 
L 30.703125 25 
C 24.796875 25 17.703125 24.203125 12.09375 21.203125 
C 5.796875 17.703125 4 12.703125 4 8.90625 
C 4 1.203125 13 -1 18.296875 -1 
C 23.796875 -1 28.90625 2.171875 31.09375 7.984375 
C 31.296875 3.640625 34.09375 -0.28125 38.5 -0.28125 
C 40.59375 -0.28125 45.90625 1.09375 45.90625 8.859375 
L 45.90625 14.375 
L 44.09375 14.375 
L 44.09375 8.78125 
C 44.09375 2.78125 41.40625 2 40.09375 2 
C 36 2 36 7.15625 36 11.53125 
z
M 30.703125 13.59375 
C 30.703125 4.953125 24.5 0.59375 19 0.59375 
C 14 0.59375 10.09375 4.296875 10.09375 8.90625 
C 10.09375 11.890625 11.40625 17.1875 17.203125 20.390625 
C 22 23.09375 27.5 23.5 30.703125 23.5 
z
" id="CMR17-97"/>
      <path d="M 11.09375 18.1875 
C 13 16.6875 16.296875 15 20.296875 15 
C 28.203125 15 35 21.203125 35 29.5 
C 35 32.09375 34.203125 36.09375 31.203125 39.203125 
C 34 42.0625 38.09375 43 40.40625 43 
C 40.796875 43 41.40625 43 41.90625 42.71875 
C 41.5 42.625 40.59375 42.234375 40.59375 40.703125 
C 40.59375 39.484375 41.5 38.609375 42.796875 38.609375 
C 44.296875 38.609375 45.09375 39.578125 45.09375 40.84375 
C 45.09375 42.671875 43.59375 44.59375 40.40625 44.59375 
C 36.40625 44.59375 32.90625 42.78125 30.09375 40.3125 
C 27.09375 43.015625 23.5 44 20.296875 44 
C 12.40625 44 5.59375 37.796875 5.59375 29.5 
C 5.59375 23.78125 8.90625 20.1875 9.90625 19.1875 
C 6.90625 15.6875 6.90625 11.609375 6.90625 11.109375 
C 6.90625 8.515625 7.90625 4.71875 11.296875 2.625 
C 6.09375 1.328125 2 -2.640625 2 -7.59375 
C 2 -14.734375 11.5 -20 22.90625 -20 
C 33.90625 -20 43.796875 -14.9375 43.796875 -7.484375 
C 43.796875 6 29 6 21.296875 6 
C 19 6 14.90625 6 14.40625 6.109375 
C 11.296875 6.609375 9.203125 9.40625 9.203125 12.90625 
C 9.203125 13.796875 9.203125 16 11.09375 18.1875 
M 20.296875 16.6875 
C 11.5 16.6875 11.5 27.5 11.5 29.515625 
C 11.5 31.5 11.5 42.3125 20.296875 42.3125 
C 29.09375 42.3125 29.09375 31.5 29.09375 29.515625 
C 29.09375 27.5 29.09375 16.6875 20.296875 16.6875 
M 22.90625 -18.296875 
C 12.90625 -18.296875 6 -13.046875 6 -7.59375 
C 6 -4.515625 7.703125 -1.640625 9.90625 -0.0625 
C 12.40625 1.625 13.40625 1.625 20.203125 1.625 
C 28.40625 1.625 39.796875 1.625 39.796875 -7.59375 
C 39.796875 -13.046875 32.90625 -18.296875 22.90625 -18.296875 
" id="CMR17-103"/>
      <path d="M 19.796875 31.90625 
L 35.796875 31.90625 
C 48.703125 31.90625 58.09375 40.28125 58.09375 49.75 
C 58.09375 59.234375 48.90625 68 35.796875 68 
L 5.203125 68 
L 5.203125 65.40625 
C 12.09375 65.40625 13.203125 65.40625 13.203125 60.921875 
L 13.203125 6.96875 
C 13.203125 2.5 12.09375 2.5 5.203125 2.5 
L 5.203125 0 
C 8.09375 0 13.40625 0 16.5 0 
C 19.59375 0 24.90625 0 27.796875 0 
L 27.796875 2.5 
C 20.90625 2.5 19.796875 2.5 19.796875 6.96875 
z
M 19.59375 34 
L 19.59375 61.53125 
C 19.59375 64.921875 19.796875 65.40625 23.796875 65.40625 
L 33.90625 65.40625 
C 46.796875 65.40625 50.5 58.03125 50.5 49.75 
C 50.5 40.6875 46.09375 34 33.90625 34 
z
" id="CMR17-80"/>
      <path d="M 34.90625 35 
C 33 35 30.203125 35 30.203125 31.515625 
C 30.203125 28.71875 32.5 27.921875 33.796875 27.921875 
C 34.5 27.921875 37.40625 28.234375 37.40625 31.625 
C 37.40625 38.546875 30.59375 43.796875 22.90625 43.796875 
C 12.296875 43.796875 3.296875 34.03125 3.296875 21.296875 
C 3.296875 8.0625 12.703125 -1 22.90625 -1 
C 35.296875 -1 38.40625 10.578125 38.40625 11.6875 
C 38.40625 12.09375 38.296875 12.390625 37.59375 12.390625 
C 36.90625 12.390625 36.796875 12.296875 36.40625 10.984375 
C 33.796875 2.8125 28.09375 0.796875 23.796875 0.796875 
C 17.40625 0.796875 9.703125 6.671875 9.703125 21.390625 
C 9.703125 36.53125 17.09375 42 23 42 
C 26.90625 42 32.703125 40.203125 34.90625 35 
" id="CMR17-99"/>
      <path d="M 15.09375 40 
L 29.09375 40 
L 29.09375 42.578125 
L 15.09375 42.578125 
L 15.09375 61 
L 13.296875 61 
C 13.09375 50.703125 9.59375 41.6875 1.09375 41.6875 
L 1.09375 40 
L 9.796875 40 
L 9.796875 12.046875 
C 9.796875 10.15625 9.796875 -1 21.40625 -1 
C 27.296875 -1 30.703125 4.78125 30.703125 12.140625 
L 30.703125 17.8125 
L 28.90625 17.8125 
L 28.90625 12.234375 
C 28.90625 5.375 26.203125 0.796875 22 0.796875 
C 19.09375 0.796875 15.09375 2.78125 15.09375 11.84375 
z
" id="CMR17-116"/>
      <path d="M 29.40625 42.078125 
L 29.40625 39.5 
C 35.296875 39.5 36.203125 38.890625 36.203125 34.15625 
L 36.203125 16.125 
C 36.203125 7.8125 31.703125 0.59375 24.296875 0.59375 
C 16.09375 0.59375 15.40625 5.4375 15.40625 10.59375 
L 15.40625 43.171875 
L 3.296875 42.078125 
L 3.296875 39.5 
C 7.296875 39.5 10 39.5 10.09375 35.53125 
L 10.09375 16.53125 
C 10.09375 9.890625 10.09375 5.640625 12.703125 2.859375 
C 14 1.578125 16.5 -1 23.703125 -1 
C 32.203125 -1 35.5 5.890625 36.296875 7.90625 
L 36.40625 7.90625 
L 36.40625 -0.984375 
L 48.296875 -0.984375 
L 48.296875 2 
C 42.40625 2 41.5 2.59375 41.5 7.390625 
L 41.5 43.171875 
z
" id="CMR17-117"/>
      <path d="M 15 23.390625 
C 15 33 19.09375 42 26.59375 42 
C 27.296875 42 28 41.90625 28.703125 41.59375 
C 28.703125 41.59375 26.5 40.890625 26.5 38.3125 
C 26.5 35.90625 28.40625 34.90625 29.90625 34.90625 
C 31.09375 34.90625 33.296875 35.609375 33.296875 38.40625 
C 33.296875 41.609375 30.09375 43.59375 26.703125 43.59375 
C 19.09375 43.59375 15.796875 36.203125 14.796875 32.703125 
L 14.703125 32.703125 
L 14.703125 43.59375 
L 3.09375 42.5 
L 3.09375 39.90625 
C 9 39.90625 9.90625 39.296875 9.90625 34.5 
L 9.90625 6.6875 
C 9.90625 2.875 9.5 2.390625 3.09375 2.390625 
L 3.09375 -0.203125 
C 5.5 0 10.09375 0 12.703125 0 
C 15.59375 0 20.703125 0 23.40625 -0.203125 
L 23.40625 2.390625 
C 16.203125 2.390625 15 2.390625 15 6.875 
z
" id="CMR17-114"/>
      <path d="M 30.90625 42.140625 
C 30.90625 43.953125 30.796875 44.046875 30.203125 44.046875 
C 29.796875 44.046875 29.703125 43.953125 28.5 42.453125 
C 28.203125 42.046875 27.296875 41.03125 27 40.640625 
C 23.796875 44.046875 19.296875 44.046875 17.59375 44.046875 
C 6.5 44.046875 2.5 38.234375 2.5 32.4375 
C 2.5 23.40625 12.703125 21.328125 15.59375 20.703125 
C 21.90625 19.421875 24.09375 19.015625 26.203125 17.203125 
C 27.5 16.015625 29.703125 13.8125 29.703125 10.21875 
C 29.703125 6 27.296875 0.59375 18.09375 0.59375 
C 9.40625 0.59375 6.296875 7.1875 4.5 15.953125 
C 4.203125 17.34375 4.203125 17.453125 3.40625 17.453125 
C 2.59375 17.453125 2.5 17.34375 2.5 15.359375 
L 2.5 0.984375 
C 2.5 -0.796875 2.59375 -0.90625 3.203125 -0.90625 
C 3.703125 -0.90625 3.796875 -0.796875 4.296875 0 
C 4.90625 0.890625 6.40625 3.296875 7 4.3125 
C 9 1.609375 12.5 -1 18.09375 -1 
C 28 -1 33.296875 4.421875 33.296875 12.25 
C 33.296875 17.375 30.59375 20.078125 29.296875 21.28125 
C 26.296875 24.390625 22.796875 25.09375 18.59375 25.890625 
C 13.09375 27.109375 6.09375 28.515625 6.09375 34.640625 
C 6.09375 37.234375 7.5 42.765625 17.59375 42.765625 
C 28.296875 42.765625 28.90625 32.71875 29.09375 29.5 
C 29.203125 29 29.703125 28.890625 30 28.890625 
C 30.90625 28.890625 30.90625 29.203125 30.90625 30.90625 
z
" id="CMR17-115"/>
      <path d="M 38.09375 23 
C 38.5 23.40625 38.5 23.609375 38.5 24.625 
C 38.5 34.96875 33.09375 44 21.703125 44 
C 11.09375 44 2.703125 33.890625 2.703125 21.609375 
C 2.703125 8.609375 12.203125 -1 22.796875 -1 
C 34 -1 38.40625 9.484375 38.40625 11.5625 
C 38.40625 12.25 37.796875 12.25 37.59375 12.25 
C 36.90625 12.25 36.796875 12.046875 36.40625 10.875 
C 34.203125 4.140625 28.703125 0.796875 23.5 0.796875 
C 19.203125 0.796875 14.90625 3.171875 12.203125 7.5 
C 9.09375 12.546875 9.09375 18.375 9.09375 23 
z
M 9.203125 24.5 
C 9.90625 39.140625 17.59375 42.40625 21.59375 42.40625 
C 28.40625 42.40625 33 35.890625 33.09375 24.5 
z
" id="CMR17-101"/>
      <path d="M 29.203125 67.59375 
L 29.203125 65 
C 35.09375 65 36 64.40625 36 59.6875 
L 36 36.640625 
C 35.59375 37.140625 31.5 43.59375 23.40625 43.59375 
C 13.203125 43.59375 3.296875 34.5 3.296875 21.3125 
C 3.296875 8.203125 12.59375 -1 22.40625 -1 
C 30.90625 -1 35.296875 5.265625 35.796875 5.9375 
L 35.796875 -0.984375 
L 47.90625 -0.984375 
L 47.90625 2 
C 42 2 41.09375 2.59375 41.09375 7.390625 
L 41.09375 68.6875 
z
M 35.796875 11.796875 
C 35.796875 8.796875 34 6.09375 31.703125 4.09375 
C 28.296875 1.09375 24.90625 0.59375 23 0.59375 
C 20.09375 0.59375 9.703125 2.09375 9.703125 21.1875 
C 9.703125 40.8125 21.296875 42 23.90625 42 
C 28.5 42 32.203125 39.40625 34.5 35.796875 
C 35.796875 33.703125 35.796875 33.40625 35.796875 31.609375 
z
" id="CMR17-100"/>
      <path d="M 41.5 30.203125 
C 41.5 35.296875 40.5 43.59375 28.703125 43.59375 
C 20.796875 43.59375 16.703125 37.5 15.203125 33.5 
L 15.09375 33.5 
L 15.09375 43.59375 
L 3.296875 42.5 
L 3.296875 39.90625 
C 9.203125 39.90625 10.09375 39.296875 10.09375 34.5 
L 10.09375 6.6875 
C 10.09375 2.875 9.703125 2.390625 3.296875 2.390625 
L 3.296875 -0.203125 
C 5.703125 0 10.09375 0 12.703125 0 
C 15.296875 0 19.796875 0 22.203125 -0.203125 
L 22.203125 2.390625 
C 15.796875 2.390625 15.40625 2.78125 15.40625 6.6875 
L 15.40625 25.90625 
C 15.40625 35.109375 21 42 28 42 
C 35.40625 42 36.203125 35.40625 36.203125 30.59375 
L 36.203125 6.6875 
C 36.203125 2.875 35.796875 2.390625 29.40625 2.390625 
L 29.40625 -0.203125 
C 31.796875 0 36.203125 0 38.796875 0 
C 41.40625 0 45.90625 0 48.296875 -0.203125 
L 48.296875 2.390625 
C 41.90625 2.390625 41.5 2.78125 41.5 6.6875 
z
" id="CMR17-110"/>
      <path d="M 43.09375 21.1875 
C 43.09375 34 33.796875 44 22.90625 44 
C 12 44 2.703125 34 2.703125 21.1875 
C 2.703125 8.609375 12 -1 22.90625 -1 
C 33.796875 -1 43.09375 8.609375 43.09375 21.1875 
M 22.90625 0.796875 
C 18.203125 0.796875 14.203125 3.59375 11.90625 7.5 
C 9.40625 11.984375 9.09375 17.59375 9.09375 22 
C 9.09375 26.203125 9.296875 31.40625 11.90625 35.90625 
C 13.90625 39.203125 17.796875 42.40625 22.90625 42.40625 
C 27.40625 42.40625 31.203125 39.90625 33.59375 36.40625 
C 36.703125 31.703125 36.703125 25.109375 36.703125 22 
C 36.703125 18.09375 36.5 12.109375 33.796875 7.296875 
C 31 2.703125 26.703125 0.796875 22.90625 0.796875 
" id="CMR17-111"/>
      <path d="M 22 -16.609375 
C 15.59375 -16.609375 15.203125 -16.203125 15.203125 -12.328125 
L 15.203125 6.28125 
C 18.09375 2.09375 22.296875 -0.59375 27.59375 -0.59375 
C 37.59375 -0.59375 47.703125 8.171875 47.703125 21.6875 
C 47.703125 34.234375 39 43.78125 28.703125 43.78125 
C 22.703125 43.78125 17.796875 40.5 15 36.53125 
L 15 43.78125 
L 3.09375 42.6875 
L 3.09375 40.109375 
C 9 40.109375 9.90625 39.5 9.90625 34.734375 
L 9.90625 -12.328125 
C 9.90625 -16.109375 9.5 -16.609375 3.09375 -16.609375 
L 3.09375 -19.1875 
C 5.5 -19 9.90625 -19 12.5 -19 
C 15.09375 -19 19.59375 -19 22 -19.1875 
z
M 15.203125 31.4375 
C 15.203125 32.84375 15.203125 34.921875 19.09375 38.609375 
C 19.59375 39.015625 23 42 28 42 
C 35.296875 42 41.296875 32.9375 41.296875 21.59375 
C 41.296875 10.25 34.90625 1 27 1 
C 23.40625 1 19.5 2.6875 16.5 7.375 
C 15.203125 9.5625 15.203125 10.15625 15.203125 11.75 
z
" id="CMR17-112"/>
      <path d="M 39.09375 33.796875 
C 40 36 41.59375 40 47.40625 40 
L 47.40625 42.59375 
C 45.5 42.59375 43 42.59375 41.09375 42.59375 
C 39 42.59375 35.703125 42.59375 33.703125 42.6875 
L 33.703125 40.09375 
C 36.203125 39.890625 37.59375 38.703125 37.59375 36.109375 
C 37.59375 35.203125 37.59375 35 37 33.609375 
L 26 5.890625 
L 14.09375 35.71875 
C 13.5 37.015625 13.5 37.203125 13.5 37.609375 
C 13.5 40 16.796875 40 18.296875 40 
L 18.296875 42.6875 
C 15.90625 42.59375 11.5 42.59375 9 42.59375 
C 6.296875 42.59375 3.203125 42.59375 1 42.6875 
L 1 40 
C 4.796875 40 6.90625 40 8.09375 36.90625 
L 22.59375 0.6875 
C 23.203125 -0.796875 23.296875 -1 24.203125 -1 
C 25.09375 -1 25.203125 -0.796875 25.796875 0.6875 
z
" id="CMR17-118"/>
      <path d="M 34.703125 63.921875 
C 35.90625 65.015625 36.203125 65.21875 36.203125 66.3125 
C 36.203125 67.796875 34.90625 69 33.5 69 
C 32.296875 69 31.90625 68.5 30.90625 67.3125 
L 19.59375 52.96875 
C 18.90625 52.078125 18.90625 51.984375 18.90625 51.875 
C 18.90625 51.78125 19.796875 50.875 20 50.6875 
z
" id="CMR17-19"/>
     </defs>
     <g transform="translate(98.679491093 441.931617258)scale(0.1 -0.1)">
      <use transform="scale(0.996264009963)" xlink:href="#CMR17-80"/>
      <use transform="translate(59.983846586 0.0)scale(0.996264009963)" xlink:href="#CMR17-111"/>
      <use transform="translate(105.674323703 0.0)scale(0.996264009963)" xlink:href="#CMR17-117"/>
      <use transform="translate(156.569693483 0.0)scale(0.996264009963)" xlink:href="#CMR17-114"/>
      <use transform="translate(191.850461283 0.0)scale(0.996264009963)" xlink:href="#CMR17-99"/>
      <use transform="translate(232.336121746 0.0)scale(0.996264009963)" xlink:href="#CMR17-101"/>
      <use transform="translate(272.821782208 0.0)scale(0.996264009963)" xlink:href="#CMR17-110"/>
      <use transform="translate(321.114698056 0.0)scale(0.996264009963)" xlink:href="#CMR17-116"/>
      <use transform="translate(356.395465856 0.0)scale(0.996264009963)" xlink:href="#CMR17-97"/>
      <use transform="translate(402.085942973 0.0)scale(0.996264009963)" xlink:href="#CMR17-103"/>
      <use transform="translate(447.77642009 0.0)scale(0.996264009963)" xlink:href="#CMR17-101"/>
      <use transform="translate(518.338046899 0.0)scale(0.996264009963)" xlink:href="#CMR17-100"/>
      <use transform="translate(569.23341668 0.0)scale(0.996264009963)" xlink:href="#CMR17-101"/>
      <use transform="translate(639.795043489 0.0)scale(0.996264009963)" xlink:href="#CMR17-114"/>
      <use transform="translate(672.473402962 0.0)scale(0.996264009963)" xlink:href="#CMR17-19"/>
      <use transform="translate(675.075811289 0.0)scale(0.996264009963)" xlink:href="#CMR17-101"/>
      <use transform="translate(715.561471751 0.0)scale(0.996264009963)" xlink:href="#CMR17-112"/>
      <use transform="translate(769.059280262 0.0)scale(0.996264009963)" xlink:href="#CMR17-111"/>
      <use transform="translate(814.74975738 0.0)scale(0.996264009963)" xlink:href="#CMR17-110"/>
      <use transform="translate(865.64512716 0.0)scale(0.996264009963)" xlink:href="#CMR17-115"/>
      <use transform="translate(901.446464795 0.0)scale(0.996264009963)" xlink:href="#CMR17-101"/>
      <use transform="translate(941.932125258 0.0)scale(0.996264009963)" xlink:href="#CMR17-115"/>
      <use transform="translate(1007.80942924 0.0)scale(0.996264009963)" xlink:href="#CMR17-112"/>
      <use transform="translate(1061.30723775 0.0)scale(0.996264009963)" xlink:href="#CMR17-111"/>
      <use transform="translate(1106.99771487 0.0)scale(0.996264009963)" xlink:href="#CMR17-115"/>
      <use transform="translate(1142.7990525 0.0)scale(0.996264009963)" xlink:href="#CMR17-105"/>
      <use transform="translate(1167.67011099 0.0)scale(0.996264009963)" xlink:href="#CMR17-116"/>
      <use transform="translate(1202.95087878 0.0)scale(0.996264009963)" xlink:href="#CMR17-105"/>
      <use transform="translate(1227.82193727 0.0)scale(0.996264009963)" xlink:href="#CMR17-118"/>
      <use transform="translate(1273.51239918 0.0)scale(0.996264009963)" xlink:href="#CMR17-101"/>
      <use transform="translate(1313.99805964 0.0)scale(0.996264009963)" xlink:href="#CMR17-115"/>
     </g>
    </g>
   </g>
   <g id="matplotlib.axis_2">
    <g id="ytick_1">
     <g id="line2d_34">
      <path clip-path="url(#p2b9ef8e72a)" d="M 34.5 105.292208 
L 310.5 105.292208 
" style="fill:none;stroke:#000000;stroke-dasharray:1.000000,3.000000;stroke-dashoffset:0.0;stroke-width:0.5;"/>
     </g>
     <g id="line2d_35">
      <defs>
       <path d="M 0 0 
L 4 0 
" id="m9fafe63028" style="stroke:#000000;stroke-width:0.5;"/>
      </defs>
      <g>
       <use style="stroke:#000000;stroke-width:0.5;" x="34.5" xlink:href="#m9fafe63028" y="105.292207792"/>
      </g>
     </g>
     <g id="line2d_36">
      <defs>
       <path d="M 0 0 
L -4 0 
" id="m95e3c4317a" style="stroke:#000000;stroke-width:0.5;"/>
      </defs>
      <g>
       <use style="stroke:#000000;stroke-width:0.5;" x="310.5" xlink:href="#m95e3c4317a" y="105.292207792"/>
      </g>
     </g>
     <g id="text_13">
      <!-- 1 -->
      <g transform="translate(26.2658171505 107.284735812)scale(0.08 -0.08)">
       <use transform="scale(0.996264009963)" xlink:href="#CMR17-49"/>
      </g>
     </g>
    </g>
    <g id="ytick_2">
     <g id="line2d_37">
      <path clip-path="url(#p2b9ef8e72a)" d="M 34.5 136.655844 
L 310.5 136.655844 
" style="fill:none;stroke:#000000;stroke-dasharray:1.000000,3.000000;stroke-dashoffset:0.0;stroke-width:0.5;"/>
     </g>
     <g id="line2d_38">
      <g>
       <use style="stroke:#000000;stroke-width:0.5;" x="34.5" xlink:href="#m9fafe63028" y="136.655844156"/>
      </g>
     </g>
     <g id="line2d_39">
      <g>
       <use style="stroke:#000000;stroke-width:0.5;" x="310.5" xlink:href="#m95e3c4317a" y="136.655844156"/>
      </g>
     </g>
     <g id="text_14">
      <!-- 2 -->
      <g transform="translate(26.2658171505 138.648372176)scale(0.08 -0.08)">
       <use transform="scale(0.996264009963)" xlink:href="#CMR17-50"/>
      </g>
     </g>
    </g>
    <g id="ytick_3">
     <g id="line2d_40">
      <path clip-path="url(#p2b9ef8e72a)" d="M 34.5 168.019481 
L 310.5 168.019481 
" style="fill:none;stroke:#000000;stroke-dasharray:1.000000,3.000000;stroke-dashoffset:0.0;stroke-width:0.5;"/>
     </g>
     <g id="line2d_41">
      <g>
       <use style="stroke:#000000;stroke-width:0.5;" x="34.5" xlink:href="#m9fafe63028" y="168.019480519"/>
      </g>
     </g>
     <g id="line2d_42">
      <g>
       <use style="stroke:#000000;stroke-width:0.5;" x="310.5" xlink:href="#m95e3c4317a" y="168.019480519"/>
      </g>
     </g>
     <g id="text_15">
      <!-- 3 -->
      <g transform="translate(26.2658171505 170.012008539)scale(0.08 -0.08)">
       <use transform="scale(0.996264009963)" xlink:href="#CMR17-51"/>
      </g>
     </g>
    </g>
    <g id="ytick_4">
     <g id="line2d_43">
      <path clip-path="url(#p2b9ef8e72a)" d="M 34.5 199.383117 
L 310.5 199.383117 
" style="fill:none;stroke:#000000;stroke-dasharray:1.000000,3.000000;stroke-dashoffset:0.0;stroke-width:0.5;"/>
     </g>
     <g id="line2d_44">
      <g>
       <use style="stroke:#000000;stroke-width:0.5;" x="34.5" xlink:href="#m9fafe63028" y="199.383116883"/>
      </g>
     </g>
     <g id="line2d_45">
      <g>
       <use style="stroke:#000000;stroke-width:0.5;" x="310.5" xlink:href="#m95e3c4317a" y="199.383116883"/>
      </g>
     </g>
     <g id="text_16">
      <!-- 4 -->
      <g transform="translate(26.2658171505 201.375644903)scale(0.08 -0.08)">
       <use transform="scale(0.996264009963)" xlink:href="#CMR17-52"/>
      </g>
     </g>
    </g>
    <g id="ytick_5">
     <g id="line2d_46">
      <path clip-path="url(#p2b9ef8e72a)" d="M 34.5 230.746753 
L 310.5 230.746753 
" style="fill:none;stroke:#000000;stroke-dasharray:1.000000,3.000000;stroke-dashoffset:0.0;stroke-width:0.5;"/>
     </g>
     <g id="line2d_47">
      <g>
       <use style="stroke:#000000;stroke-width:0.5;" x="34.5" xlink:href="#m9fafe63028" y="230.746753247"/>
      </g>
     </g>
     <g id="line2d_48">
      <g>
       <use style="stroke:#000000;stroke-width:0.5;" x="310.5" xlink:href="#m95e3c4317a" y="230.746753247"/>
      </g>
     </g>
     <g id="text_17">
      <!-- 5 -->
      <g transform="translate(26.2658171505 232.739281267)scale(0.08 -0.08)">
       <use transform="scale(0.996264009963)" xlink:href="#CMR17-53"/>
      </g>
     </g>
    </g>
    <g id="ytick_6">
     <g id="line2d_49">
      <path clip-path="url(#p2b9ef8e72a)" d="M 34.5 262.11039 
L 310.5 262.11039 
" style="fill:none;stroke:#000000;stroke-dasharray:1.000000,3.000000;stroke-dashoffset:0.0;stroke-width:0.5;"/>
     </g>
     <g id="line2d_50">
      <g>
       <use style="stroke:#000000;stroke-width:0.5;" x="34.5" xlink:href="#m9fafe63028" y="262.11038961"/>
      </g>
     </g>
     <g id="line2d_51">
      <g>
       <use style="stroke:#000000;stroke-width:0.5;" x="310.5" xlink:href="#m95e3c4317a" y="262.11038961"/>
      </g>
     </g>
     <g id="text_18">
      <!-- 6 -->
      <g transform="translate(26.2658171505 264.10291763)scale(0.08 -0.08)">
       <use transform="scale(0.996264009963)" xlink:href="#CMR17-54"/>
      </g>
     </g>
    </g>
    <g id="ytick_7">
     <g id="line2d_52">
      <path clip-path="url(#p2b9ef8e72a)" d="M 34.5 293.474026 
L 310.5 293.474026 
" style="fill:none;stroke:#000000;stroke-dasharray:1.000000,3.000000;stroke-dashoffset:0.0;stroke-width:0.5;"/>
     </g>
     <g id="line2d_53">
      <g>
       <use style="stroke:#000000;stroke-width:0.5;" x="34.5" xlink:href="#m9fafe63028" y="293.474025974"/>
      </g>
     </g>
     <g id="line2d_54">
      <g>
       <use style="stroke:#000000;stroke-width:0.5;" x="310.5" xlink:href="#m95e3c4317a" y="293.474025974"/>
      </g>
     </g>
     <g id="text_19">
      <!-- 7 -->
      <g transform="translate(26.2658171505 295.466553994)scale(0.08 -0.08)">
       <use transform="scale(0.996264009963)" xlink:href="#CMR17-55"/>
      </g>
     </g>
    </g>
    <g id="ytick_8">
     <g id="line2d_55">
      <path clip-path="url(#p2b9ef8e72a)" d="M 34.5 324.837662 
L 310.5 324.837662 
" style="fill:none;stroke:#000000;stroke-dasharray:1.000000,3.000000;stroke-dashoffset:0.0;stroke-width:0.5;"/>
     </g>
     <g id="line2d_56">
      <g>
       <use style="stroke:#000000;stroke-width:0.5;" x="34.5" xlink:href="#m9fafe63028" y="324.837662338"/>
      </g>
     </g>
     <g id="line2d_57">
      <g>
       <use style="stroke:#000000;stroke-width:0.5;" x="310.5" xlink:href="#m95e3c4317a" y="324.837662338"/>
      </g>
     </g>
     <g id="text_20">
      <!-- 8 -->
      <g transform="translate(26.2658171505 326.830190358)scale(0.08 -0.08)">
       <use transform="scale(0.996264009963)" xlink:href="#CMR17-56"/>
      </g>
     </g>
    </g>
    <g id="ytick_9">
     <g id="line2d_58">
      <path clip-path="url(#p2b9ef8e72a)" d="M 34.5 356.201299 
L 310.5 356.201299 
" style="fill:none;stroke:#000000;stroke-dasharray:1.000000,3.000000;stroke-dashoffset:0.0;stroke-width:0.5;"/>
     </g>
     <g id="line2d_59">
      <g>
       <use style="stroke:#000000;stroke-width:0.5;" x="34.5" xlink:href="#m9fafe63028" y="356.201298701"/>
      </g>
     </g>
     <g id="line2d_60">
      <g>
       <use style="stroke:#000000;stroke-width:0.5;" x="310.5" xlink:href="#m95e3c4317a" y="356.201298701"/>
      </g>
     </g>
     <g id="text_21">
      <!-- 9 -->
      <g transform="translate(26.2658171505 358.193826721)scale(0.08 -0.08)">
       <use transform="scale(0.996264009963)" xlink:href="#CMR17-57"/>
      </g>
     </g>
    </g>
    <g id="ytick_10">
     <g id="line2d_61">
      <path clip-path="url(#p2b9ef8e72a)" d="M 34.5 387.564935 
L 310.5 387.564935 
" style="fill:none;stroke:#000000;stroke-dasharray:1.000000,3.000000;stroke-dashoffset:0.0;stroke-width:0.5;"/>
     </g>
     <g id="line2d_62">
      <g>
       <use style="stroke:#000000;stroke-width:0.5;" x="34.5" xlink:href="#m9fafe63028" y="387.564935065"/>
      </g>
     </g>
     <g id="line2d_63">
      <g>
       <use style="stroke:#000000;stroke-width:0.5;" x="310.5" xlink:href="#m95e3c4317a" y="387.564935065"/>
      </g>
     </g>
     <g id="text_22">
      <!-- 10 -->
      <g transform="translate(22.0316343011 389.557463085)scale(0.08 -0.08)">
       <use transform="scale(0.996264009963)" xlink:href="#CMR17-49"/>
       <use transform="translate(45.6904771171 0.0)scale(0.996264009963)" xlink:href="#CMR17-48"/>
      </g>
     </g>
    </g>
   </g>
   <g id="patch_3">
    <path clip-path="url(#p2b9ef8e72a)" d="M 34.5 114.701299 
L 310.5 114.701299 
L 310.5 95.883117 
L 34.5 95.883117 
z
" style="fill:#ffffff;stroke:#000000;stroke-linejoin:miter;"/>
   </g>
   <g id="patch_4">
    <path clip-path="url(#p2b9ef8e72a)" d="M 34.5 146.064935 
L 310.5 146.064935 
L 310.5 127.246753 
L 34.5 127.246753 
z
" style="fill:#ffffff;stroke:#000000;stroke-linejoin:miter;"/>
   </g>
   <g id="patch_5">
    <path clip-path="url(#p2b9ef8e72a)" d="M 34.5 177.428571 
L 310.5 177.428571 
L 310.5 158.61039 
L 34.5 158.61039 
z
" style="fill:#ffffff;stroke:#000000;stroke-linejoin:miter;"/>
   </g>
   <g id="patch_6">
    <path clip-path="url(#p2b9ef8e72a)" d="M 34.5 208.792208 
L 310.5 208.792208 
L 310.5 189.974026 
L 34.5 189.974026 
z
" style="fill:#ffffff;stroke:#000000;stroke-linejoin:miter;"/>
   </g>
   <g id="patch_7">
    <path clip-path="url(#p2b9ef8e72a)" d="M 34.5 240.155844 
L 310.5 240.155844 
L 310.5 221.337662 
L 34.5 221.337662 
z
" style="fill:#ffffff;stroke:#000000;stroke-linejoin:miter;"/>
   </g>
   <g id="patch_8">
    <path clip-path="url(#p2b9ef8e72a)" d="M 34.5 271.519481 
L 310.5 271.519481 
L 310.5 252.701299 
L 34.5 252.701299 
z
" style="fill:#ffffff;stroke:#000000;stroke-linejoin:miter;"/>
   </g>
   <g id="patch_9">
    <path clip-path="url(#p2b9ef8e72a)" d="M 34.5 302.883117 
L 310.5 302.883117 
L 310.5 284.064935 
L 34.5 284.064935 
z
" style="fill:#ffffff;stroke:#000000;stroke-linejoin:miter;"/>
   </g>
   <g id="patch_10">
    <path clip-path="url(#p2b9ef8e72a)" d="M 34.5 334.246753 
L 310.5 334.246753 
L 310.5 315.428571 
L 34.5 315.428571 
z
" style="fill:#ffffff;stroke:#000000;stroke-linejoin:miter;"/>
   </g>
   <g id="patch_11">
    <path clip-path="url(#p2b9ef8e72a)" d="M 34.5 365.61039 
L 310.5 365.61039 
L 310.5 346.792208 
L 34.5 346.792208 
z
" style="fill:#ffffff;stroke:#000000;stroke-linejoin:miter;"/>
   </g>
   <g id="patch_12">
    <path clip-path="url(#p2b9ef8e72a)" d="M 34.5 396.974026 
L 310.5 396.974026 
L 310.5 378.155844 
L 34.5 378.155844 
z
" style="fill:#ffffff;stroke:#000000;stroke-linejoin:miter;"/>
   </g>
   <g id="patch_13">
    <path clip-path="url(#p2b9ef8e72a)" d="M 34.5 114.701299 
L 65.511236 114.701299 
L 65.511236 95.883117 
L 34.5 95.883117 
z
" style="fill:#d3d3d3;stroke:#000000;stroke-linejoin:miter;"/>
   </g>
   <g id="patch_14">
    <path clip-path="url(#p2b9ef8e72a)" d="M 34.5 146.064935 
L 40.702247 146.064935 
L 40.702247 127.246753 
L 34.5 127.246753 
z
" style="fill:#d3d3d3;stroke:#000000;stroke-linejoin:miter;"/>
   </g>
   <g id="patch_15">
    <path clip-path="url(#p2b9ef8e72a)" d="M 34.5 177.428571 
L 56.207865 177.428571 
L 56.207865 158.61039 
L 34.5 158.61039 
z
" style="fill:#d3d3d3;stroke:#000000;stroke-linejoin:miter;"/>
   </g>
   <g id="patch_16">
    <path clip-path="url(#p2b9ef8e72a)" d="M 34.5 208.792208 
L 68.61236 208.792208 
L 68.61236 189.974026 
L 34.5 189.974026 
z
" style="fill:#d3d3d3;stroke:#000000;stroke-linejoin:miter;"/>
   </g>
   <g id="patch_17">
    <path clip-path="url(#p2b9ef8e72a)" d="M 34.5 240.155844 
L 62.410112 240.155844 
L 62.410112 221.337662 
L 34.5 221.337662 
z
" style="fill:#d3d3d3;stroke:#000000;stroke-linejoin:miter;"/>
   </g>
   <g id="patch_18">
    <path clip-path="url(#p2b9ef8e72a)" d="M 34.5 271.519481 
L 62.410112 271.519481 
L 62.410112 252.701299 
L 34.5 252.701299 
z
" style="fill:#d3d3d3;stroke:#000000;stroke-linejoin:miter;"/>
   </g>
   <g id="patch_19">
    <path clip-path="url(#p2b9ef8e72a)" d="M 34.5 302.883117 
L 53.106742 302.883117 
L 53.106742 284.064935 
L 34.5 284.064935 
z
" style="fill:#d3d3d3;stroke:#000000;stroke-linejoin:miter;"/>
   </g>
   <g id="patch_20">
    <path clip-path="url(#p2b9ef8e72a)" d="M 34.5 334.246753 
L 43.803371 334.246753 
L 43.803371 315.428571 
L 34.5 315.428571 
z
" style="fill:#d3d3d3;stroke:#000000;stroke-linejoin:miter;"/>
   </g>
   <g id="patch_21">
    <path clip-path="url(#p2b9ef8e72a)" d="M 34.5 365.61039 
L 99.623596 365.61039 
L 99.623596 346.792208 
L 34.5 346.792208 
z
" style="fill:#d3d3d3;stroke:#000000;stroke-linejoin:miter;"/>
   </g>
   <g id="patch_22">
    <path clip-path="url(#p2b9ef8e72a)" d="M 34.5 396.974026 
L 93.421348 396.974026 
L 93.421348 378.155844 
L 34.5 378.155844 
z
" style="fill:#d3d3d3;stroke:#000000;stroke-linejoin:miter;"/>
   </g>
   <g id="patch_23">
    <path d="M 34.5 73.928571 
L 310.5 73.928571 
" style="fill:none;stroke:#000000;stroke-linecap:square;stroke-linejoin:miter;"/>
   </g>
   <g id="patch_24">
    <path d="M 310.5 418.928571 
L 310.5 73.928571 
" style="fill:none;stroke:#000000;stroke-linecap:square;stroke-linejoin:miter;"/>
   </g>
   <g id="patch_25">
    <path d="M 34.5 418.928571 
L 310.5 418.928571 
" style="fill:none;stroke:#000000;stroke-linecap:square;stroke-linejoin:miter;"/>
   </g>
   <g id="patch_26">
    <path d="M 34.5 418.928571 
L 34.5 73.928571 
" style="fill:none;stroke:#000000;stroke-linecap:square;stroke-linejoin:miter;"/>
   </g>
   <g id="text_23">
    <!-- Complex-Differentiability -->
    <defs>
     <path d="M 5.203125 68 
L 5.203125 65.40625 
C 12.09375 65.40625 13.203125 65.40625 13.203125 60.9375 
L 13.203125 7.0625 
C 13.203125 2.59375 12.09375 2.59375 5.203125 2.59375 
L 5.203125 0 
L 37 0 
C 53.09375 0 66 14.734375 66 33.453125 
C 66 52.28125 53.296875 68 37 68 
z
M 23.796875 2.59375 
C 19.796875 2.59375 19.59375 3.078125 19.59375 6.46875 
L 19.59375 61.53125 
C 19.59375 64.921875 19.796875 65.40625 23.796875 65.40625 
L 35 65.40625 
C 43.296875 65.40625 58.59375 60.53125 58.59375 33.453125 
C 58.59375 19.40625 54.5 13.734375 52.59375 11.046875 
C 50.203125 7.96875 44.5 2.59375 35 2.59375 
z
" id="CMR17-68"/>
     <path d="M 39 34.328125 
C 41.5 40.40625 46 40.40625 47.40625 40.40625 
L 47.40625 43 
C 45.5 43 43 43 41.09375 43 
C 39 43 35.703125 43 33.703125 43.09375 
L 33.703125 40.5 
C 37.5 40.203125 37.59375 37.40625 37.59375 36.609375 
C 37.59375 35.625 37.40625 35.125 36.90625 33.921875 
L 26 7.015625 
L 14.09375 36.03125 
C 13.59375 37.21875 13.59375 37.90625 13.59375 38.015625 
C 13.59375 40.203125 15.90625 40.40625 18.296875 40.40625 
L 18.296875 43.09375 
C 15.90625 43 11.59375 43 9.09375 43 
C 6.40625 43 3.203125 43 1 43.09375 
L 1 40.40625 
C 6.40625 40.40625 7 39.90625 8.296875 36.71875 
L 23.203125 0.234375 
C 18.703125 -11.53125 16.09375 -18.40625 9.796875 -18.40625 
C 8.703125 -18.40625 6.203125 -18.109375 4.40625 -16.3125 
C 6.703125 -16.109375 7.703125 -14.71875 7.703125 -13.015625 
C 7.703125 -11.328125 6.5 -9.828125 4.5 -9.828125 
C 2.296875 -9.828125 1.203125 -11.328125 1.203125 -13.125 
C 1.203125 -17.109375 5.296875 -20 9.796875 -20 
C 15.59375 -20 19.203125 -14.40625 21.203125 -9.4375 
z
" id="CMR17-121"/>
     <path d="M 26 23.078125 
C 29 26.96875 32.40625 31.34375 35.203125 34.625 
C 38.5 38.40625 42.296875 40 46.703125 40 
L 46.703125 42.59375 
C 45 42.59375 41.5 42.59375 39.703125 42.59375 
C 37 42.59375 33.90625 42.59375 31.59375 42.6875 
L 31.59375 40.09375 
C 33 39.890625 33.796875 38.890625 33.796875 37.5 
C 33.796875 35.703125 32.796875 34.609375 32.296875 33.921875 
L 24.90625 24.578125 
L 16.09375 36.03125 
C 15.203125 37.125 15.203125 37.3125 15.203125 37.8125 
C 15.203125 39.015625 16.203125 40 17.90625 40 
L 17.90625 42.6875 
C 15.5 42.59375 11.203125 42.59375 8.703125 42.59375 
C 6 42.59375 2.796875 42.59375 0.59375 42.6875 
L 0.59375 40 
C 6 40 7.203125 39.59375 9.59375 36.609375 
L 21.09375 21.796875 
C 21.296875 21.59375 21.796875 21 21.796875 20.703125 
C 21.796875 20.296875 13.09375 9.671875 12 8.28125 
C 7.5 2.890625 2.796875 2.5 0.09375 2.5 
L 0.09375 0 
C 1.796875 0 5.296875 0 7.09375 0 
C 9.09375 0 13.5 0 15.296875 -0.09375 
L 15.296875 2.5 
C 14.703125 2.59375 13.09375 2.796875 13.09375 5.078125 
C 13.09375 6.875 13.90625 7.96875 14.796875 9.15625 
L 23.09375 19.3125 
L 31.796875 8 
C 32.59375 6.90625 33.796875 5.40625 33.796875 4.703125 
C 33.796875 3.296875 32.59375 2.5 31 2.5 
L 31 -0.09375 
C 33.40625 0 37.703125 0 40.203125 0 
C 42.90625 0 46.09375 0 48.296875 -0.09375 
L 48.296875 2.5 
C 43.296875 2.5 41.796875 2.6875 39.40625 5.78125 
z
" id="CMR17-120"/>
     <path d="M 15 68.6875 
L 3.09375 67.59375 
L 3.09375 65 
C 9 65 9.90625 64.40625 9.90625 59.640625 
L 9.90625 -0.203125 
L 11.703125 -0.203125 
L 14.59375 6.890625 
C 17.5 2.203125 21.796875 -1 27.59375 -1 
C 37.59375 -1 47.703125 7.8125 47.703125 21.40625 
C 47.703125 34.1875 38.703125 43.59375 28.59375 43.59375 
C 22.40625 43.59375 18 40.296875 15 36.40625 
z
M 15.203125 31.3125 
C 15.203125 33.09375 15.203125 33.40625 16.59375 35.5 
C 20.5 41.515625 26.09375 42 28 42 
C 31 42 41.296875 40.390625 41.296875 21.5 
C 41.296875 1.6875 29.5 0.59375 27.09375 0.59375 
C 24 0.59375 19.5 1.78125 16.296875 7.59375 
C 15.203125 9.5 15.203125 9.703125 15.203125 11.484375 
z
" id="CMR17-98"/>
     <path d="M 39.90625 40 
L 51.296875 40 
L 51.296875 42.578125 
L 39.703125 42.578125 
L 39.703125 54.59375 
C 39.703125 62.84375 43.90625 68 48.203125 68 
C 49.5 68 51 67.609375 52 66.90625 
C 51.203125 66.703125 49.09375 66.015625 49.09375 63.546875 
C 49.09375 60.953125 51.09375 60.15625 52.5 60.15625 
C 53.90625 60.15625 55.90625 60.953125 55.90625 63.546875 
C 55.90625 67.3125 52.296875 69.59375 48.296875 69.59375 
C 44.40625 69.59375 41.203125 67.703125 38.703125 65.328125 
C 36.40625 68.59375 32.59375 69.59375 28.703125 69.59375 
C 20.90625 69.59375 9.90625 65.125 9.90625 54.203125 
L 9.90625 42.578125 
L 1.90625 42.578125 
L 1.90625 40 
L 9.90625 40 
L 9.90625 6.671875 
C 9.90625 2.875 9.5 2.390625 3.09375 2.390625 
L 3.09375 -0.203125 
C 5.5 0 9.90625 0 12.40625 0 
C 15 0 19.40625 0 21.796875 -0.203125 
L 21.796875 2.390625 
C 15.40625 2.390625 15 2.78125 15 6.671875 
L 15 40 
L 34.796875 40 
L 34.796875 6.671875 
C 34.796875 2.875 34.40625 2.390625 28 2.390625 
L 28 -0.203125 
C 30.40625 0 35 0 37.59375 0 
C 40.5 0 45.59375 0 48.296875 -0.203125 
L 48.296875 2.390625 
C 41.09375 2.390625 39.90625 2.390625 39.90625 6.859375 
z
M 14.796875 42.578125 
L 14.796875 54.203125 
C 14.796875 63.234375 21.796875 68 28.5 68 
C 30 68 33.90625 67.6875 36.296875 65.421875 
C 34.5 65.421875 32.796875 64.625 32.796875 62.140625 
C 32.796875 59.5625 35.09375 58.859375 35.296875 58.859375 
C 34.796875 57.0625 34.796875 55.09375 34.796875 54.390625 
L 34.796875 42.578125 
z
" id="CMR17-11"/>
     <path d="M 62.09375 67.015625 
C 62.09375 68.796875 62 68.90625 61.40625 68.90625 
C 61 68.90625 60.90625 68.796875 60.203125 67.609375 
L 55.796875 59.25 
C 50.90625 65.421875 44.90625 69 37.203125 69 
C 20.09375 69 4.59375 54 4.59375 33.5625 
C 4.59375 12.90625 20.09375 -2 37.296875 -2 
C 52.59375 -2 62.09375 11.40625 62.09375 22.828125 
C 62.09375 23.8125 62.09375 24.21875 61.203125 24.21875 
C 60.40625 24.21875 60.40625 23.921875 60.296875 23.03125 
C 59.5 9.140625 49.5 0.59375 38.703125 0.59375 
C 28.5 0.59375 12.203125 7.734375 12.203125 33.546875 
C 12.203125 59.453125 28.796875 66.40625 38.5 66.40625 
C 49.796875 66.40625 58 56.6875 59.90625 42.890625 
C 60.09375 41.6875 60.09375 41.484375 61 41.484375 
C 62.09375 41.484375 62.09375 41.6875 62.09375 43.484375 
z
" id="CMR17-67"/>
     <path d="M 25.5 19 
L 25.5 23.375 
L 0.40625 23.375 
L 0.40625 19 
z
" id="CMR17-45"/>
     <path d="M 67.59375 30.203125 
C 67.59375 35.1875 66.703125 43.59375 54.796875 43.59375 
C 48 43.59375 43.296875 39 41.5 33.609375 
L 41.40625 33.609375 
C 40.203125 41.8125 34.296875 43.59375 28.703125 43.59375 
C 20.796875 43.59375 16.703125 37.5 15.203125 33.5 
L 15.09375 33.5 
L 15.09375 43.59375 
L 3.296875 42.5 
L 3.296875 39.90625 
C 9.203125 39.90625 10.09375 39.296875 10.09375 34.5 
L 10.09375 6.6875 
C 10.09375 2.875 9.703125 2.390625 3.296875 2.390625 
L 3.296875 -0.203125 
C 5.703125 0 10.09375 0 12.703125 0 
C 15.296875 0 19.796875 0 22.203125 -0.203125 
L 22.203125 2.390625 
C 15.796875 2.390625 15.40625 2.78125 15.40625 6.6875 
L 15.40625 25.90625 
C 15.40625 35.109375 21 42 28 42 
C 35.40625 42 36.203125 35.40625 36.203125 30.59375 
L 36.203125 6.6875 
C 36.203125 2.875 35.796875 2.390625 29.40625 2.390625 
L 29.40625 -0.203125 
C 31.796875 0 36.203125 0 38.796875 0 
C 41.40625 0 45.90625 0 48.296875 -0.203125 
L 48.296875 2.390625 
C 41.90625 2.390625 41.5 2.78125 41.5 6.6875 
L 41.5 25.90625 
C 41.5 35.109375 47.09375 42 54.09375 42 
C 61.5 42 62.296875 35.40625 62.296875 30.59375 
L 62.296875 6.6875 
C 62.296875 2.875 61.90625 2.390625 55.5 2.390625 
L 55.5 -0.203125 
C 57.90625 0 62.296875 0 64.90625 0 
C 67.5 0 72 0 74.40625 -0.203125 
L 74.40625 2.390625 
C 68 2.390625 67.59375 2.78125 67.59375 6.6875 
z
" id="CMR17-109"/>
     <path d="M 15.296875 68.6875 
L 3.40625 67.59375 
L 3.40625 65 
C 9.296875 65 10.203125 64.40625 10.203125 59.640625 
L 10.203125 6.65625 
C 10.203125 2.875 9.796875 2.390625 3.40625 2.390625 
L 3.40625 -0.203125 
C 5.796875 0 10.203125 0 12.703125 0 
C 15.296875 0 19.703125 0 22.09375 -0.203125 
L 22.09375 2.390625 
C 15.703125 2.390625 15.296875 2.78125 15.296875 6.65625 
z
" id="CMR17-108"/>
    </defs>
    <g transform="translate(186.391184912 108.428571429)scale(0.1 -0.1)">
     <use transform="scale(0.996264009963)" xlink:href="#CMR17-67"/>
     <use transform="translate(66.5098805505 0.0)scale(0.996264009963)" xlink:href="#CMR17-111"/>
     <use transform="translate(112.200357668 0.0)scale(0.996264009963)" xlink:href="#CMR17-109"/>
     <use transform="translate(189.119947536 0.0)scale(0.996264009963)" xlink:href="#CMR17-112"/>
     <use transform="translate(240.015317316 0.0)scale(0.996264009963)" xlink:href="#CMR17-108"/>
     <use transform="translate(264.886375798 0.0)scale(0.996264009963)" xlink:href="#CMR17-101"/>
     <use transform="translate(305.372036261 0.0)scale(0.996264009963)" xlink:href="#CMR17-120"/>
     <use transform="translate(353.664952108 0.0)scale(0.996264009963)" xlink:href="#CMR17-45"/>
     <use transform="translate(383.740918455 0.0)scale(0.996264009963)" xlink:href="#CMR17-68"/>
     <use transform="translate(454.134474359 0.0)scale(0.996264009963)" xlink:href="#CMR17-105"/>
     <use transform="translate(479.005532841 0.0)scale(0.996264009963)" xlink:href="#CMR17-11"/>
     <use transform="translate(531.350210149 0.0)scale(0.996264009963)" xlink:href="#CMR17-101"/>
     <use transform="translate(571.835870612 0.0)scale(0.996264009963)" xlink:href="#CMR17-114"/>
     <use transform="translate(607.116638412 0.0)scale(0.996264009963)" xlink:href="#CMR17-101"/>
     <use transform="translate(647.602298874 0.0)scale(0.996264009963)" xlink:href="#CMR17-110"/>
     <use transform="translate(695.895214722 0.0)scale(0.996264009963)" xlink:href="#CMR17-116"/>
     <use transform="translate(731.175982522 0.0)scale(0.996264009963)" xlink:href="#CMR17-105"/>
     <use transform="translate(756.047041003 0.0)scale(0.996264009963)" xlink:href="#CMR17-97"/>
     <use transform="translate(801.737518121 0.0)scale(0.996264009963)" xlink:href="#CMR17-98"/>
     <use transform="translate(852.632887901 0.0)scale(0.996264009963)" xlink:href="#CMR17-105"/>
     <use transform="translate(877.503946383 0.0)scale(0.996264009963)" xlink:href="#CMR17-108"/>
     <use transform="translate(902.375004865 0.0)scale(0.996264009963)" xlink:href="#CMR17-105"/>
     <use transform="translate(927.246063346 0.0)scale(0.996264009963)" xlink:href="#CMR17-116"/>
     <use transform="translate(959.924377213 0.0)scale(0.996264009963)" xlink:href="#CMR17-121"/>
    </g>
   </g>
   <g id="text_24">
    <!-- Line Integrals \&amp; Primitives -->
    <defs>
     <path d="M 54.203125 25.234375 
L 52.40625 25.234375 
C 51.59375 15.359375 50.296875 2.59375 33.203125 2.59375 
L 23.90625 2.59375 
C 19.90625 2.59375 19.703125 3.078125 19.703125 6.46875 
L 19.703125 60.90625 
C 19.703125 64.515625 19.90625 65.5 27.5 65.5 
L 29.703125 65.5 
L 29.703125 68 
C 25.59375 68 20.796875 68 16.703125 68 
C 13.59375 68 8 68 5.09375 68 
L 5.09375 65.5 
C 12 65.5 13.09375 65.5 13.09375 61.015625 
L 13.09375 7.0625 
C 13.09375 2.59375 12 2.59375 5.09375 2.59375 
L 5.09375 0 
L 51.796875 0 
z
" id="CMR17-76"/>
     <path d="M 6.703125 20.734375 
C 4.5 18.265625 3.296875 15.5 3.296875 12.21875 
C 3.296875 4.125 11 -2 20.40625 -2 
C 29.796875 -2 35.796875 3.75 37.796875 5.640625 
C 40.5 3.15625 46 -2 54 -2 
C 61.09375 -2 67.09375 3.34375 67.296875 11.5625 
L 65.5 11.5625 
C 65.296875 3.859375 58.796875 0.59375 54.40625 0.59375 
C 48.5 0.59375 43.59375 6.421875 41.203125 9.1875 
C 43.09375 11.453125 46.296875 15.3125 52.90625 27.0625 
C 54.796875 30.328125 57.59375 35.265625 59.09375 36.546875 
C 60.5 37.734375 62.796875 39.40625 67.796875 39.40625 
L 67.796875 42.09375 
C 65.90625 42 61.703125 42 59.703125 42 
C 56.703125 42 52 42 49.09375 42 
L 49.09375 39.40625 
C 52.40625 39.40625 55.09375 38.03125 55.09375 35.375 
C 55.09375 33.796875 52.796875 29.953125 48.5 22.859375 
C 47 20.3125 43.5 14.5 40 10.671875 
C 38.5 12.546875 28.59375 25.09375 23.703125 37.828125 
C 34 50.171875 35.09375 54.671875 35.09375 57.859375 
C 35.09375 61.84375 33.796875 70 27.296875 70 
C 21.40625 70 15.296875 64.625 15.296875 54.96875 
C 15.296875 49.890625 16.09375 43.625 19.09375 34.96875 
z
M 23.09375 39.734375 
C 21.203125 44.921875 20.09375 51.484375 20.09375 56.859375 
C 20.09375 65.625 24.203125 68.40625 27.40625 68.40625 
C 33 68.40625 33.296875 59.453125 33.296875 57.953125 
C 33.296875 54.46875 31.5 49.5 23.09375 39.734375 
M 19.796875 33.484375 
C 24.703125 22.4375 31.796875 12.390625 36.5 7.015625 
C 31.59375 2.46875 26.203125 0.59375 21.296875 0.59375 
C 13.203125 0.59375 9.703125 8.796875 9.703125 15.28125 
C 9.703125 19.359375 11 23.4375 13.59375 26.421875 
z
" id="CMR17-38"/>
     <path d="M 19.703125 61.015625 
C 19.703125 65.5 20.90625 65.5 28.09375 65.5 
L 28.09375 68 
C 24.90625 68 19.796875 68 16.40625 68 
C 13 68 7.90625 68 4.703125 68 
L 4.703125 65.5 
C 11.90625 65.5 13.09375 65.5 13.09375 61.015625 
L 13.09375 6.984375 
C 13.09375 2.5 11.90625 2.5 4.703125 2.5 
L 4.703125 0 
C 7.90625 0 13 0 16.40625 0 
C 19.796875 0 24.90625 0 28.09375 0 
L 28.09375 2.5 
C 20.90625 2.5 19.703125 2.5 19.703125 6.984375 
z
" id="CMR17-73"/>
    </defs>
    <g transform="translate(177.812287053 139.792207792)scale(0.1 -0.1)">
     <use transform="scale(0.996264009963)" xlink:href="#CMR17-76"/>
     <use transform="translate(57.3814078553 0.0)scale(0.996264009963)" xlink:href="#CMR17-105"/>
     <use transform="translate(82.2524663372 0.0)scale(0.996264009963)" xlink:href="#CMR17-110"/>
     <use transform="translate(133.147836117 0.0)scale(0.996264009963)" xlink:href="#CMR17-101"/>
     <use transform="translate(203.709462927 0.0)scale(0.996264009963)" xlink:href="#CMR17-73"/>
     <use transform="translate(236.347872115 0.0)scale(0.996264009963)" xlink:href="#CMR17-110"/>
     <use transform="translate(284.640787963 0.0)scale(0.996264009963)" xlink:href="#CMR17-116"/>
     <use transform="translate(319.921555763 0.0)scale(0.996264009963)" xlink:href="#CMR17-101"/>
     <use transform="translate(360.407216225 0.0)scale(0.996264009963)" xlink:href="#CMR17-103"/>
     <use transform="translate(406.097693342 0.0)scale(0.996264009963)" xlink:href="#CMR17-114"/>
     <use transform="translate(441.378461142 0.0)scale(0.996264009963)" xlink:href="#CMR17-97"/>
     <use transform="translate(487.068938259 0.0)scale(0.996264009963)" xlink:href="#CMR17-108"/>
     <use transform="translate(511.939996741 0.0)scale(0.996264009963)" xlink:href="#CMR17-115"/>
     <use transform="translate(577.817300723 0.0)scale(0.996264009963)" xlink:href="#CMR17-38"/>
     <use transform="translate(679.608055485 0.0)scale(0.996264009963)" xlink:href="#CMR17-80"/>
     <use transform="translate(742.194356004 0.0)scale(0.996264009963)" xlink:href="#CMR17-114"/>
     <use transform="translate(777.475123803 0.0)scale(0.996264009963)" xlink:href="#CMR17-105"/>
     <use transform="translate(802.346182285 0.0)scale(0.996264009963)" xlink:href="#CMR17-109"/>
     <use transform="translate(879.265772153 0.0)scale(0.996264009963)" xlink:href="#CMR17-105"/>
     <use transform="translate(904.136830635 0.0)scale(0.996264009963)" xlink:href="#CMR17-116"/>
     <use transform="translate(939.417598435 0.0)scale(0.996264009963)" xlink:href="#CMR17-105"/>
     <use transform="translate(964.288656916 0.0)scale(0.996264009963)" xlink:href="#CMR17-118"/>
     <use transform="translate(1009.97911883 0.0)scale(0.996264009963)" xlink:href="#CMR17-101"/>
     <use transform="translate(1050.46477929 0.0)scale(0.996264009963)" xlink:href="#CMR17-115"/>
    </g>
   </g>
   <g id="text_25">
    <!-- Connected Sets -->
    <defs>
     <path d="M 43.796875 67.03125 
C 43.796875 68.8125 43.703125 68.921875 43.09375 68.921875 
C 42.5 68.921875 42.296875 68.515625 41.90625 67.625 
L 38.90625 61.046875 
C 35.09375 66.515625 29.296875 69 23 69 
C 12.796875 69 4.59375 60.953125 4.59375 50.828125 
C 4.59375 47.75 5.296875 43.375 8.703125 39.21875 
C 12.40625 34.65625 15.90625 33.859375 23.90625 31.765625 
C 26.90625 30.96875 31.90625 29.671875 32.90625 29.28125 
C 38.59375 26.90625 41.59375 20.953125 41.59375 15.390625 
C 41.59375 8.234375 36.5 0.59375 27.796875 0.59375 
C 17.09375 0.59375 7.09375 6.546875 6.40625 20.484375 
C 6.296875 22.078125 6.203125 22.171875 5.5 22.171875 
C 4.703125 22.171875 4.59375 22.078125 4.59375 20.078125 
L 4.59375 -0.015625 
C 4.59375 -1.796875 4.703125 -1.90625 5.296875 -1.90625 
C 6 -1.90625 6.203125 -1.40625 7.59375 1.6875 
C 7.703125 1.984375 7.703125 2.1875 9.59375 5.953125 
C 14.59375 -0.609375 23 -2 27.796875 -2 
C 38.703125 -2 46.40625 7.046875 46.40625 17.5625 
C 46.40625 22.71875 44.5 26.6875 43.40625 28.484375 
C 39.203125 34.84375 34.703125 36.03125 29.90625 37.21875 
C 29.203125 37.53125 29 37.53125 23.40625 38.90625 
C 18 40.296875 15.703125 41 13.203125 43.6875 
C 10.40625 46.75 9.40625 49.9375 9.40625 53.109375 
C 9.40625 59.5625 14.59375 66.609375 23.09375 66.609375 
C 33.703125 66.609375 40.296875 59.15625 41.796875 46.765625 
C 42.09375 44.96875 42.203125 44.875 42.90625 44.875 
C 43.796875 44.875 43.796875 45.171875 43.796875 46.859375 
z
" id="CMR17-83"/>
    </defs>
    <g transform="translate(229.673471674 171.155844156)scale(0.1 -0.1)">
     <use transform="scale(0.996264009963)" xlink:href="#CMR17-67"/>
     <use transform="translate(66.5098805505 0.0)scale(0.996264009963)" xlink:href="#CMR17-111"/>
     <use transform="translate(112.200357668 0.0)scale(0.996264009963)" xlink:href="#CMR17-110"/>
     <use transform="translate(163.095727448 0.0)scale(0.996264009963)" xlink:href="#CMR17-110"/>
     <use transform="translate(213.991097228 0.0)scale(0.996264009963)" xlink:href="#CMR17-101"/>
     <use transform="translate(254.476757691 0.0)scale(0.996264009963)" xlink:href="#CMR17-99"/>
     <use transform="translate(294.962418154 0.0)scale(0.996264009963)" xlink:href="#CMR17-116"/>
     <use transform="translate(330.243185953 0.0)scale(0.996264009963)" xlink:href="#CMR17-101"/>
     <use transform="translate(370.728846416 0.0)scale(0.996264009963)" xlink:href="#CMR17-100"/>
     <use transform="translate(451.700182543 0.0)scale(0.996264009963)" xlink:href="#CMR17-83"/>
     <use transform="translate(502.595552323 0.0)scale(0.996264009963)" xlink:href="#CMR17-101"/>
     <use transform="translate(543.081212786 0.0)scale(0.996264009963)" xlink:href="#CMR17-116"/>
     <use transform="translate(578.361980585 0.0)scale(0.996264009963)" xlink:href="#CMR17-115"/>
    </g>
   </g>
   <g id="text_26">
    <!-- Cauchy's Integral Theorem (Local Version) -->
    <defs>
     <path d="M 59 58.515625 
C 59.90625 60.71875 61.5 65 68.203125 65 
L 68.203125 67.6875 
C 65.90625 67.484375 63.296875 67.484375 60.796875 67.484375 
C 58.40625 67.484375 54.296875 67.484375 52 67.6875 
L 52 65 
C 57 65 57.203125 61.5 57.203125 60.90625 
C 57.203125 59.796875 56.90625 59.109375 56.59375 58.3125 
L 36.90625 6.96875 
L 16.296875 60.71875 
C 16 61.421875 15.796875 61.921875 15.796875 62.40625 
C 15.796875 65 19.796875 65 21.90625 65 
L 21.90625 67.484375 
C 18.703125 67.484375 14 67.484375 10.703125 67.484375 
C 8.09375 67.484375 3.40625 67.484375 1 67.6875 
L 1 65 
C 6.796875 65 7.90625 64.609375 9.09375 61.421875 
L 32.90625 -0.40625 
C 33.40625 -1.796875 33.5 -2 34.59375 -2 
C 35.703125 -2 35.796875 -1.796875 36.296875 -0.40625 
z
" id="CMR17-86"/>
     <path d="M 62.203125 67.59375 
L 4.5 67.59375 
L 2.796875 45.59375 
L 4.59375 45.59375 
C 5.90625 62.125 7.296875 65 22.703125 65 
C 24.5 65 27.40625 65 28.203125 64.90625 
C 30.09375 64.609375 30.09375 63.40625 30.09375 61.125 
L 30.09375 7.171875 
C 30.09375 3.59375 29.796875 2.5 21.5 2.5 
L 18.703125 2.5 
L 18.703125 0 
C 23.5 0 28.5 0 33.40625 0 
C 38.296875 0 43.296875 0 48.09375 0 
L 48.09375 2.5 
L 45.296875 2.5 
C 37 2.5 36.703125 3.59375 36.703125 7.171875 
L 36.703125 61.125 
C 36.703125 63.3125 36.703125 64.515625 38.5 64.90625 
C 39.296875 65 42.203125 65 44 65 
C 59.296875 65 60.796875 62.125 62.09375 45.59375 
L 63.90625 45.59375 
z
" id="CMR17-84"/>
     <path d="M 16 62.890625 
C 16.203125 61.796875 16.296875 61.390625 16.296875 59.6875 
C 16.296875 53.359375 13.796875 47.53125 9.90625 43.40625 
C 9.5 43 9.296875 42.703125 9.296875 42.296875 
C 9.296875 41.890625 9.703125 41.5 10.09375 41.5 
C 10.796875 41.5 17.90625 48.515625 17.90625 59.546875 
C 17.90625 61.75 17.703125 69.15625 12.5 69.15625 
C 10.296875 69.15625 8.40625 67.671875 8.40625 65.078125 
C 8.40625 62.484375 10.296875 61 12.5 61 
C 13.40625 61 15.09375 61.296875 16 62.890625 
" id="CMR17-39"/>
     <path d="M 41.5 30.203125 
C 41.5 35.296875 40.5 43.59375 28.703125 43.59375 
C 20.5 43.59375 16.5 37 15.296875 33.703125 
L 15.203125 33.703125 
L 15.203125 68.6875 
L 3.296875 67.59375 
L 3.296875 65 
C 9.203125 65 10.09375 64.40625 10.09375 59.640625 
L 10.09375 6.65625 
C 10.09375 2.875 9.703125 2.390625 3.296875 2.390625 
L 3.296875 -0.203125 
C 5.703125 0 10.09375 0 12.703125 0 
C 15.296875 0 19.796875 0 22.203125 -0.203125 
L 22.203125 2.390625 
C 15.796875 2.390625 15.40625 2.78125 15.40625 6.6875 
L 15.40625 25.90625 
C 15.40625 35.109375 21 42 28 42 
C 35.40625 42 36.203125 35.40625 36.203125 30.59375 
L 36.203125 6.6875 
C 36.203125 2.875 35.796875 2.390625 29.40625 2.390625 
L 29.40625 -0.203125 
C 31.796875 0 36.203125 0 38.796875 0 
C 41.40625 0 45.90625 0 48.296875 -0.203125 
L 48.296875 2.390625 
C 41.90625 2.390625 41.5 2.78125 41.5 6.6875 
z
" id="CMR17-104"/>
     <path d="M 26.296875 24.703125 
C 26.296875 31.875 25.59375 44.015625 19.59375 56.859375 
C 14.796875 67.234375 6.59375 74.5 5.40625 74.5 
C 5.09375 74.5 4.703125 74.390625 4.703125 73.890625 
C 4.703125 73.703125 4.796875 73.59375 4.90625 73.390625 
C 9.703125 68.40625 21.90625 55.75 21.90625 24.75 
C 21.90625 -6.359375 9.796875 -19.015625 4.90625 -24.015625 
C 4.796875 -24.203125 4.703125 -24.3125 4.703125 -24.5 
C 4.703125 -25 5.09375 -25 5.40625 -25 
C 6.5 -25 15 -17.625 19.90625 -6.65625 
C 24.90625 4.390625 26.296875 15.140625 26.296875 24.703125 
" id="CMR17-41"/>
     <path d="M 30.59375 -24.390625 
C 30.59375 -24.296875 30.59375 -24.09375 30.296875 -23.796875 
C 25.703125 -19.125 13.40625 -6.359375 13.40625 24.703125 
C 13.40625 55.765625 25.5 68.421875 30.40625 73.390625 
C 30.40625 73.5 30.59375 73.703125 30.59375 74 
C 30.59375 74.296875 30.296875 74.5 29.90625 74.5 
C 28.796875 74.5 20.296875 67.125 15.40625 56.15625 
C 10.40625 45.109375 9 34.359375 9 24.8125 
C 9 17.625 9.703125 5.484375 15.703125 -7.359375 
C 20.5 -17.734375 28.703125 -25 29.90625 -25 
C 30.40625 -25 30.59375 -24.796875 30.59375 -24.390625 
" id="CMR17-40"/>
    </defs>
    <g transform="translate(108.184399323 202.519480519)scale(0.1 -0.1)">
     <use transform="scale(0.996264009963)" xlink:href="#CMR17-67"/>
     <use transform="translate(66.5098805505 0.0)scale(0.996264009963)" xlink:href="#CMR17-97"/>
     <use transform="translate(112.200357668 0.0)scale(0.996264009963)" xlink:href="#CMR17-117"/>
     <use transform="translate(163.095727448 0.0)scale(0.996264009963)" xlink:href="#CMR17-99"/>
     <use transform="translate(200.978933978 0.0)scale(0.996264009963)" xlink:href="#CMR17-104"/>
     <use transform="translate(249.271849826 0.0)scale(0.996264009963)" xlink:href="#CMR17-121"/>
     <use transform="translate(297.564765674 0.0)scale(0.996264009963)" xlink:href="#CMR17-39"/>
     <use transform="translate(322.435824156 0.0)scale(0.996264009963)" xlink:href="#CMR17-115"/>
     <use transform="translate(388.313128138 0.0)scale(0.996264009963)" xlink:href="#CMR17-73"/>
     <use transform="translate(420.951537326 0.0)scale(0.996264009963)" xlink:href="#CMR17-110"/>
     <use transform="translate(469.244453174 0.0)scale(0.996264009963)" xlink:href="#CMR17-116"/>
     <use transform="translate(504.525220973 0.0)scale(0.996264009963)" xlink:href="#CMR17-101"/>
     <use transform="translate(545.010881436 0.0)scale(0.996264009963)" xlink:href="#CMR17-103"/>
     <use transform="translate(590.701358553 0.0)scale(0.996264009963)" xlink:href="#CMR17-114"/>
     <use transform="translate(625.982126352 0.0)scale(0.996264009963)" xlink:href="#CMR17-97"/>
     <use transform="translate(671.672603469 0.0)scale(0.996264009963)" xlink:href="#CMR17-108"/>
     <use transform="translate(726.619628298 0.0)scale(0.996264009963)" xlink:href="#CMR17-84"/>
     <use transform="translate(793.129508849 0.0)scale(0.996264009963)" xlink:href="#CMR17-104"/>
     <use transform="translate(844.024878629 0.0)scale(0.996264009963)" xlink:href="#CMR17-101"/>
     <use transform="translate(884.510539092 0.0)scale(0.996264009963)" xlink:href="#CMR17-111"/>
     <use transform="translate(930.201016209 0.0)scale(0.996264009963)" xlink:href="#CMR17-114"/>
     <use transform="translate(965.481784008 0.0)scale(0.996264009963)" xlink:href="#CMR17-101"/>
     <use transform="translate(1005.96744447 0.0)scale(0.996264009963)" xlink:href="#CMR17-109"/>
     <use transform="translate(1112.96300069 0.0)scale(0.996264009963)" xlink:href="#CMR17-40"/>
     <use transform="translate(1148.24376849 0.0)scale(0.996264009963)" xlink:href="#CMR17-76"/>
     <use transform="translate(1205.62517634 0.0)scale(0.996264009963)" xlink:href="#CMR17-111"/>
     <use transform="translate(1253.91809219 0.0)scale(0.996264009963)" xlink:href="#CMR17-99"/>
     <use transform="translate(1294.40375265 0.0)scale(0.996264009963)" xlink:href="#CMR17-97"/>
     <use transform="translate(1340.09422977 0.0)scale(0.996264009963)" xlink:href="#CMR17-108"/>
     <use transform="translate(1395.0412546 0.0)scale(0.996264009963)" xlink:href="#CMR17-86"/>
     <use transform="translate(1456.30642902 0.0)scale(0.996264009963)" xlink:href="#CMR17-101"/>
     <use transform="translate(1496.79208948 0.0)scale(0.996264009963)" xlink:href="#CMR17-114"/>
     <use transform="translate(1532.07285728 0.0)scale(0.996264009963)" xlink:href="#CMR17-115"/>
     <use transform="translate(1567.87419491 0.0)scale(0.996264009963)" xlink:href="#CMR17-105"/>
     <use transform="translate(1592.7452534 0.0)scale(0.996264009963)" xlink:href="#CMR17-111"/>
     <use transform="translate(1638.43573051 0.0)scale(0.996264009963)" xlink:href="#CMR17-110"/>
     <use transform="translate(1689.33110029 0.0)scale(0.996264009963)" xlink:href="#CMR17-41"/>
    </g>
   </g>
   <g id="text_27">
    <!-- The Winding Number -->
    <defs>
     <path d="M 86.296875 58.8125 
C 87.203125 61.5 88.703125 65 94.5 65 
L 94.5 67.59375 
C 92.796875 67.59375 89.296875 67.59375 87.5 67.59375 
C 85 67.59375 80.59375 67.59375 78.203125 67.6875 
L 78.203125 65 
C 82.703125 65 84.59375 62.5 84.59375 60.109375 
C 84.59375 59.40625 84.5 59.015625 84.09375 57.921875 
L 68.59375 8.671875 
L 52.296875 60.515625 
C 52 61.515625 51.90625 61.921875 51.90625 62.3125 
C 51.90625 65 56.296875 65 58.203125 65 
L 58.203125 67.59375 
C 55.296875 67.59375 50.296875 67.59375 47.203125 67.59375 
C 44.703125 67.59375 40.203125 67.59375 37.90625 67.6875 
L 37.90625 65 
C 42.5 65 43.703125 64.703125 44.703125 62.921875 
C 45.09375 62.015625 46.703125 56.84375 46.703125 56.546875 
C 46.703125 56.140625 46.5 55.546875 46.40625 55.25 
L 31.703125 8.765625 
L 15.40625 60.421875 
C 14.90625 61.828125 14.90625 62.015625 14.90625 62.21875 
C 14.90625 65 19.296875 65 21.296875 65 
L 21.296875 67.59375 
C 18.40625 67.59375 13.40625 67.59375 10.296875 67.59375 
C 7.703125 67.59375 3.296875 67.59375 0.90625 67.6875 
L 0.90625 65 
C 6.90625 65 7.296875 64.40625 8.296875 61.21875 
L 27.796875 -0.3125 
C 28.296875 -1.796875 28.296875 -2 29.203125 -2 
C 30 -2 30.296875 -1.796875 30.703125 -0.40625 
L 47.703125 53.640625 
L 64.703125 -0.40625 
C 65.09375 -1.796875 65.40625 -2 66.203125 -2 
C 67.09375 -2 67.09375 -1.796875 67.59375 -0.3125 
z
" id="CMR17-87"/>
     <path d="M 20.5 66.40625 
C 19.796875 67.5 19.703125 67.5 17.796875 67.5 
L 5.09375 67.5 
L 5.09375 65 
L 7 65 
C 11 65 12.796875 64.515625 13.09375 64.40625 
L 13.09375 9.53125 
C 13.09375 7.046875 13.09375 2.390625 5.09375 2.390625 
L 5.09375 -0.203125 
C 7.40625 0 11.59375 0 14.09375 0 
C 16.59375 0 20.796875 0 23.09375 -0.203125 
L 23.09375 2.390625 
C 15.09375 2.390625 15.09375 7.046875 15.09375 9.53125 
L 15.09375 63.015625 
C 15.796875 62.421875 15.796875 62.21875 16.5 61.234375 
L 53.59375 1.1875 
C 54.296875 0 54.59375 0 55.09375 0 
C 56.09375 0 56.09375 0.296875 56.09375 2.171875 
L 56.09375 57.890625 
C 56.09375 60.359375 56.09375 65 64.09375 65 
L 64.09375 67.59375 
C 61.796875 67.5 57.59375 67.5 55.09375 67.5 
C 52.59375 67.5 48.40625 67.5 46.09375 67.59375 
L 46.09375 65 
C 54.09375 65 54.09375 60.34375 54.09375 57.859375 
L 54.09375 11.921875 
z
" id="CMR17-78"/>
    </defs>
    <g transform="translate(200.366609103 233.883116883)scale(0.1 -0.1)">
     <use transform="scale(0.996264009963)" xlink:href="#CMR17-84"/>
     <use transform="translate(66.5098805505 0.0)scale(0.996264009963)" xlink:href="#CMR17-104"/>
     <use transform="translate(117.405250331 0.0)scale(0.996264009963)" xlink:href="#CMR17-101"/>
     <use transform="translate(187.96687714 0.0)scale(0.996264009963)" xlink:href="#CMR17-87"/>
     <use transform="translate(283.063527032 0.0)scale(0.996264009963)" xlink:href="#CMR17-105"/>
     <use transform="translate(307.934585514 0.0)scale(0.996264009963)" xlink:href="#CMR17-110"/>
     <use transform="translate(358.829955295 0.0)scale(0.996264009963)" xlink:href="#CMR17-100"/>
     <use transform="translate(409.725325075 0.0)scale(0.996264009963)" xlink:href="#CMR17-105"/>
     <use transform="translate(434.596383557 0.0)scale(0.996264009963)" xlink:href="#CMR17-110"/>
     <use transform="translate(485.491753337 0.0)scale(0.996264009963)" xlink:href="#CMR17-103"/>
     <use transform="translate(561.258196801 0.0)scale(0.996264009963)" xlink:href="#CMR17-78"/>
     <use transform="translate(630.330626605 0.0)scale(0.996264009963)" xlink:href="#CMR17-117"/>
     <use transform="translate(681.225996386 0.0)scale(0.996264009963)" xlink:href="#CMR17-109"/>
     <use transform="translate(755.543132321 0.0)scale(0.996264009963)" xlink:href="#CMR17-98"/>
     <use transform="translate(809.040940832 0.0)scale(0.996264009963)" xlink:href="#CMR17-101"/>
     <use transform="translate(849.526601295 0.0)scale(0.996264009963)" xlink:href="#CMR17-114"/>
    </g>
   </g>
   <g id="text_28">
    <!-- Cauchy's Integral Theorem (Global Version) -->
    <defs>
     <path d="M 62.09375 19.265625 
C 62.09375 23.015625 62.40625 23.515625 68.59375 23.515625 
L 68.59375 26.09375 
C 66.203125 26 60.796875 26 58.09375 26 
C 55.296875 26 47.5 26 43.703125 26 
L 43.703125 23.515625 
L 46.703125 23.515625 
C 55.296875 23.515625 55.5 22.40625 55.5 18.765625 
L 55.5 12.09375 
C 55.5 0.984375 42.5 0.984375 39.40625 0.984375 
C 29.09375 0.984375 12.203125 7.984375 12.203125 33.75 
C 12.203125 59.5 28.796875 66.40625 38.5 66.40625 
C 49.796875 66.40625 58 56.65625 59.90625 42.828125 
C 60.09375 41.625 60.09375 41.421875 61 41.421875 
C 62.09375 41.421875 62.09375 41.625 62.09375 43.421875 
L 62.09375 67 
C 62.09375 68.78125 62 68.890625 61.40625 68.890625 
C 61 68.890625 60.90625 68.78125 60.203125 67.59375 
L 55.796875 59.234375 
C 50.90625 65.421875 44.90625 69 37.203125 69 
C 20.09375 69 4.59375 54 4.59375 33.5625 
C 4.59375 13.203125 19.796875 -2 37.40625 -2 
C 45.5 -2 53.40625 0.875 56.5 6.515625 
C 58.203125 2.46875 61 -0.3125 61.5 -0.3125 
C 62 -0.3125 62.09375 -0.203125 62.09375 1.5625 
z
" id="CMR17-71"/>
    </defs>
    <g transform="translate(102.995514136 265.246753247)scale(0.1 -0.1)">
     <use transform="scale(0.996264009963)" xlink:href="#CMR17-67"/>
     <use transform="translate(66.5098805505 0.0)scale(0.996264009963)" xlink:href="#CMR17-97"/>
     <use transform="translate(112.200357668 0.0)scale(0.996264009963)" xlink:href="#CMR17-117"/>
     <use transform="translate(163.095727448 0.0)scale(0.996264009963)" xlink:href="#CMR17-99"/>
     <use transform="translate(200.978933978 0.0)scale(0.996264009963)" xlink:href="#CMR17-104"/>
     <use transform="translate(249.271849826 0.0)scale(0.996264009963)" xlink:href="#CMR17-121"/>
     <use transform="translate(297.564765674 0.0)scale(0.996264009963)" xlink:href="#CMR17-39"/>
     <use transform="translate(322.435824156 0.0)scale(0.996264009963)" xlink:href="#CMR17-115"/>
     <use transform="translate(388.313128138 0.0)scale(0.996264009963)" xlink:href="#CMR17-73"/>
     <use transform="translate(420.951537326 0.0)scale(0.996264009963)" xlink:href="#CMR17-110"/>
     <use transform="translate(469.244453174 0.0)scale(0.996264009963)" xlink:href="#CMR17-116"/>
     <use transform="translate(504.525220973 0.0)scale(0.996264009963)" xlink:href="#CMR17-101"/>
     <use transform="translate(545.010881436 0.0)scale(0.996264009963)" xlink:href="#CMR17-103"/>
     <use transform="translate(590.701358553 0.0)scale(0.996264009963)" xlink:href="#CMR17-114"/>
     <use transform="translate(625.982126352 0.0)scale(0.996264009963)" xlink:href="#CMR17-97"/>
     <use transform="translate(671.672603469 0.0)scale(0.996264009963)" xlink:href="#CMR17-108"/>
     <use transform="translate(726.619628298 0.0)scale(0.996264009963)" xlink:href="#CMR17-84"/>
     <use transform="translate(793.129508849 0.0)scale(0.996264009963)" xlink:href="#CMR17-104"/>
     <use transform="translate(844.024878629 0.0)scale(0.996264009963)" xlink:href="#CMR17-101"/>
     <use transform="translate(884.510539092 0.0)scale(0.996264009963)" xlink:href="#CMR17-111"/>
     <use transform="translate(930.201016209 0.0)scale(0.996264009963)" xlink:href="#CMR17-114"/>
     <use transform="translate(965.481784008 0.0)scale(0.996264009963)" xlink:href="#CMR17-101"/>
     <use transform="translate(1005.96744447 0.0)scale(0.996264009963)" xlink:href="#CMR17-109"/>
     <use transform="translate(1112.96300069 0.0)scale(0.996264009963)" xlink:href="#CMR17-40"/>
     <use transform="translate(1148.24376849 0.0)scale(0.996264009963)" xlink:href="#CMR17-71"/>
     <use transform="translate(1220.5991144 0.0)scale(0.996264009963)" xlink:href="#CMR17-108"/>
     <use transform="translate(1245.47017289 0.0)scale(0.996264009963)" xlink:href="#CMR17-111"/>
     <use transform="translate(1291.16065 0.0)scale(0.996264009963)" xlink:href="#CMR17-98"/>
     <use transform="translate(1342.05601978 0.0)scale(0.996264009963)" xlink:href="#CMR17-97"/>
     <use transform="translate(1387.7464969 0.0)scale(0.996264009963)" xlink:href="#CMR17-108"/>
     <use transform="translate(1442.69352173 0.0)scale(0.996264009963)" xlink:href="#CMR17-86"/>
     <use transform="translate(1503.95869615 0.0)scale(0.996264009963)" xlink:href="#CMR17-101"/>
     <use transform="translate(1544.44435661 0.0)scale(0.996264009963)" xlink:href="#CMR17-114"/>
     <use transform="translate(1579.72512441 0.0)scale(0.996264009963)" xlink:href="#CMR17-115"/>
     <use transform="translate(1615.52646205 0.0)scale(0.996264009963)" xlink:href="#CMR17-105"/>
     <use transform="translate(1640.39752053 0.0)scale(0.996264009963)" xlink:href="#CMR17-111"/>
     <use transform="translate(1686.08799765 0.0)scale(0.996264009963)" xlink:href="#CMR17-110"/>
     <use transform="translate(1736.98336743 0.0)scale(0.996264009963)" xlink:href="#CMR17-41"/>
    </g>
   </g>
   <g id="text_29">
    <!-- Power Series -->
    <defs>
     <path d="M 58.203125 34.109375 
C 60.203125 40 64.203125 40 65.703125 40 
L 65.703125 42.6875 
C 63.703125 42.6875 61.703125 42.6875 59.703125 42.6875 
C 57.796875 42.6875 53.5 42.6875 51.796875 42.78125 
L 51.796875 40 
C 54.90625 40 56.59375 38.203125 56.59375 35.71875 
C 56.59375 35.015625 56.40625 34.125 56.203125 33.4375 
L 46.796875 6.359375 
L 36.59375 35.546875 
C 36.40625 36.234375 36.09375 37.03125 36.09375 37.421875 
C 36.09375 40 39.5 40 41.09375 40 
L 41.09375 42.78125 
C 38.796875 42.6875 34.59375 42.6875 32.203125 42.6875 
C 29.703125 42.6875 27.09375 42.6875 24.796875 42.78125 
L 24.796875 40 
C 30.296875 40 30.296875 39.796875 32.40625 33.578125 
L 23.203125 7.046875 
L 13.296875 35.640625 
C 12.796875 36.921875 12.796875 37.125 12.796875 37.421875 
C 12.796875 40 16.203125 40 17.796875 40 
L 17.796875 42.78125 
C 15.40625 42.6875 11.203125 42.6875 8.703125 42.6875 
C 6.5 42.6875 3.09375 42.6875 1 42.78125 
L 1 40 
C 5.40625 40 6.5 39.703125 7.59375 36.421875 
L 19.90625 0.765625 
C 20.296875 -0.515625 20.59375 -0.8125 21.40625 -0.8125 
C 22.09375 -0.8125 22.5 -0.609375 23 0.875 
L 33.296875 30.9375 
L 43.703125 0.875 
C 44.203125 -0.609375 44.59375 -0.8125 45.296875 -0.8125 
C 46.09375 -0.8125 46.40625 -0.515625 46.796875 0.78125 
z
" id="CMR17-119"/>
    </defs>
    <g transform="translate(241.933116292 296.61038961)scale(0.1 -0.1)">
     <use transform="scale(0.996264009963)" xlink:href="#CMR17-80"/>
     <use transform="translate(59.983846586 0.0)scale(0.996264009963)" xlink:href="#CMR17-111"/>
     <use transform="translate(103.071869771 0.0)scale(0.996264009963)" xlink:href="#CMR17-119"/>
     <use transform="translate(166.979296389 0.0)scale(0.996264009963)" xlink:href="#CMR17-101"/>
     <use transform="translate(207.464956851 0.0)scale(0.996264009963)" xlink:href="#CMR17-114"/>
     <use transform="translate(272.821690998 0.0)scale(0.996264009963)" xlink:href="#CMR17-83"/>
     <use transform="translate(323.717060778 0.0)scale(0.996264009963)" xlink:href="#CMR17-101"/>
     <use transform="translate(364.202721241 0.0)scale(0.996264009963)" xlink:href="#CMR17-114"/>
     <use transform="translate(399.48348904 0.0)scale(0.996264009963)" xlink:href="#CMR17-105"/>
     <use transform="translate(424.354547522 0.0)scale(0.996264009963)" xlink:href="#CMR17-101"/>
     <use transform="translate(464.840207985 0.0)scale(0.996264009963)" xlink:href="#CMR17-115"/>
    </g>
   </g>
   <g id="text_30">
    <!-- Zeros \&amp; Poles -->
    <defs>
     <path d="M 51.59375 66.09375 
C 51.59375 68 51.5 68 49.40625 68 
L 6.90625 68 
L 5.90625 46.0625 
L 7.703125 46.0625 
C 8.296875 57.421875 11.296875 65.5 27.5 65.5 
L 44 65.5 
L 5.296875 3.1875 
C 4.59375 2.09375 4.59375 1.984375 4.59375 1.296875 
C 4.59375 0 4.796875 0 6.796875 0 
L 50.703125 0 
L 52.09375 26.03125 
L 50.296875 26.03125 
C 49.40625 12.953125 48.703125 2.78125 29.59375 2.78125 
L 12.203125 2.78125 
z
" id="CMR17-90"/>
    </defs>
    <g transform="translate(236.3706169 327.974025974)scale(0.1 -0.1)">
     <use transform="scale(0.996264009963)" xlink:href="#CMR17-90"/>
     <use transform="translate(56.1001712329 0.0)scale(0.996264009963)" xlink:href="#CMR17-101"/>
     <use transform="translate(96.5858316956 0.0)scale(0.996264009963)" xlink:href="#CMR17-114"/>
     <use transform="translate(131.866599495 0.0)scale(0.996264009963)" xlink:href="#CMR17-111"/>
     <use transform="translate(177.557076612 0.0)scale(0.996264009963)" xlink:href="#CMR17-115"/>
     <use transform="translate(243.434380594 0.0)scale(0.996264009963)" xlink:href="#CMR17-38"/>
     <use transform="translate(345.225135357 0.0)scale(0.996264009963)" xlink:href="#CMR17-80"/>
     <use transform="translate(405.208981943 0.0)scale(0.996264009963)" xlink:href="#CMR17-111"/>
     <use transform="translate(450.89945906 0.0)scale(0.996264009963)" xlink:href="#CMR17-108"/>
     <use transform="translate(475.770517542 0.0)scale(0.996264009963)" xlink:href="#CMR17-101"/>
     <use transform="translate(516.256178004 0.0)scale(0.996264009963)" xlink:href="#CMR17-115"/>
    </g>
   </g>
   <g id="text_31">
    <!-- Analytic Functions -->
    <defs>
     <path d="M 36.296875 68.40625 
C 35.796875 69.703125 35.59375 70 34.59375 70 
C 33.59375 70 33.40625 69.703125 32.90625 68.40625 
L 11.703125 8.84375 
C 9.796875 3.484375 5.796875 2.390625 2.296875 2.390625 
L 2.296875 -0.203125 
C 4.09375 0 8.09375 0 10 0 
C 12.5 0 16.5 0 18.90625 -0.203125 
L 18.90625 2.390625 
C 14.203125 2.390625 13.5 5.640625 13.5 6.859375 
C 13.5 7.765625 13.703125 8.28125 13.90625 8.890625 
L 19.203125 24 
L 45.40625 24 
L 51.40625 6.90625 
C 51.90625 5.703125 51.90625 5.5 51.90625 5.109375 
C 51.90625 2.390625 47.59375 2.390625 45.703125 2.390625 
L 45.703125 0 
C 48.59375 0 53.796875 0 56.90625 0 
C 59.5 0 64.5 0 66.90625 -0.203125 
L 66.90625 2.390625 
C 61.59375 2.390625 59.796875 2.390625 58.5 6.046875 
z
M 32.296875 60.828125 
L 44.5 26.59375 
L 20.09375 26.59375 
z
" id="CMR17-65"/>
     <path d="M 54.40625 67.578125 
L 5.09375 67.578125 
L 5.09375 65 
C 12 65 13.09375 65 13.09375 60.53125 
L 13.09375 6.96875 
C 13.09375 2.5 12 2.5 5.09375 2.5 
L 5.09375 0 
C 8 0 13.59375 0 16.703125 0 
C 20.796875 0 25.59375 0 29.703125 0 
L 29.703125 2.5 
L 27.5 2.5 
C 19.90625 2.5 19.703125 3.484375 19.703125 7.0625 
L 19.703125 32.421875 
L 28.703125 32.421875 
C 38 32.421875 38.90625 29.140625 38.90625 20.8125 
L 40.703125 20.8125 
L 40.703125 46.671875 
L 38.90625 46.671875 
C 38.90625 38.28125 38 35 28.703125 35 
L 19.703125 35 
L 19.703125 61.109375 
C 19.703125 64.5 19.90625 65 23.90625 65 
L 36.796875 65 
C 51.90625 65 53.59375 58.828125 55 45.5625 
L 56.796875 45.5625 
z
" id="CMR17-70"/>
    </defs>
    <g transform="translate(214.037571996 359.337662338)scale(0.1 -0.1)">
     <use transform="scale(0.996264009963)" xlink:href="#CMR17-65"/>
     <use transform="translate(69.0724298042 0.0)scale(0.996264009963)" xlink:href="#CMR17-110"/>
     <use transform="translate(119.967799585 0.0)scale(0.996264009963)" xlink:href="#CMR17-97"/>
     <use transform="translate(165.658276702 0.0)scale(0.996264009963)" xlink:href="#CMR17-108"/>
     <use transform="translate(190.529335183 0.0)scale(0.996264009963)" xlink:href="#CMR17-121"/>
     <use transform="translate(238.822251031 0.0)scale(0.996264009963)" xlink:href="#CMR17-116"/>
     <use transform="translate(274.103018831 0.0)scale(0.996264009963)" xlink:href="#CMR17-105"/>
     <use transform="translate(298.974077313 0.0)scale(0.996264009963)" xlink:href="#CMR17-99"/>
     <use transform="translate(369.535704122 0.0)scale(0.996264009963)" xlink:href="#CMR17-70"/>
     <use transform="translate(421.712295323 0.0)scale(0.996264009963)" xlink:href="#CMR17-117"/>
     <use transform="translate(472.607665104 0.0)scale(0.996264009963)" xlink:href="#CMR17-110"/>
     <use transform="translate(523.503034884 0.0)scale(0.996264009963)" xlink:href="#CMR17-99"/>
     <use transform="translate(563.988695347 0.0)scale(0.996264009963)" xlink:href="#CMR17-116"/>
     <use transform="translate(599.269463146 0.0)scale(0.996264009963)" xlink:href="#CMR17-105"/>
     <use transform="translate(624.140521628 0.0)scale(0.996264009963)" xlink:href="#CMR17-111"/>
     <use transform="translate(669.830998745 0.0)scale(0.996264009963)" xlink:href="#CMR17-110"/>
     <use transform="translate(720.726368525 0.0)scale(0.996264009963)" xlink:href="#CMR17-115"/>
    </g>
   </g>
   <g id="text_32">
    <!-- Integral Representations -->
    <defs>
     <path d="M 39.203125 33.53125 
C 48.703125 35.4375 56.703125 41.8125 56.703125 49.78125 
C 56.703125 59.140625 46.09375 67.59375 32.09375 67.59375 
L 5.203125 67.59375 
L 5.203125 65 
C 12.09375 65 13.203125 65 13.203125 60.515625 
L 13.203125 6.484375 
C 13.203125 2 12.09375 2 5.203125 2 
L 5.203125 -0.40625 
C 8.09375 -0.40625 13.296875 -0.40625 16.40625 -0.40625 
C 19.5 -0.40625 24.703125 -0.40625 27.59375 -0.40625 
L 27.59375 2 
C 20.703125 2 19.59375 2 19.59375 6.515625 
L 19.59375 33 
L 31.296875 33 
C 37 33 40.203125 30.6875 41.59375 29.390625 
C 45.59375 25.5 45.59375 22.796875 45.59375 16 
C 45.59375 9.296875 45.59375 5.890625 48.59375 2.5 
C 52.40625 -1.59375 57.5 -2 59.703125 -2 
C 67.09375 -2 68.203125 6.1875 68.203125 7.859375 
C 68.203125 8.4375 68.203125 9.140625 67.296875 9.140625 
C 66.5 9.140625 66.40625 8.546875 66.40625 8.15625 
C 65.90625 1.75 63 -0.40625 59.90625 -0.40625 
C 54.40625 -0.40625 53.796875 5.859375 53.203125 11.9375 
C 52.90625 14.03125 52.703125 15.515625 52.5 17.703125 
C 51.90625 22.6875 51.09375 29.953125 39.203125 33.53125 
M 31 34.59375 
L 19.59375 34.59375 
L 19.59375 61.140625 
C 19.59375 64.515625 19.796875 65 23.796875 65 
L 31.09375 65 
C 39.40625 65 49.09375 62.140625 49.09375 49.84375 
C 49.09375 37.0625 38.5 34.59375 31 34.59375 
" id="CMR17-82"/>
    </defs>
    <g transform="translate(190.403999407 390.701298701)scale(0.1 -0.1)">
     <use transform="scale(0.996264009963)" xlink:href="#CMR17-73"/>
     <use transform="translate(32.6384091882 0.0)scale(0.996264009963)" xlink:href="#CMR17-110"/>
     <use transform="translate(80.931325036 0.0)scale(0.996264009963)" xlink:href="#CMR17-116"/>
     <use transform="translate(116.212092835 0.0)scale(0.996264009963)" xlink:href="#CMR17-101"/>
     <use transform="translate(156.697753298 0.0)scale(0.996264009963)" xlink:href="#CMR17-103"/>
     <use transform="translate(202.388230415 0.0)scale(0.996264009963)" xlink:href="#CMR17-114"/>
     <use transform="translate(237.668998215 0.0)scale(0.996264009963)" xlink:href="#CMR17-97"/>
     <use transform="translate(283.359475332 0.0)scale(0.996264009963)" xlink:href="#CMR17-108"/>
     <use transform="translate(338.306500161 0.0)scale(0.996264009963)" xlink:href="#CMR17-82"/>
     <use transform="translate(406.097602132 0.0)scale(0.996264009963)" xlink:href="#CMR17-101"/>
     <use transform="translate(446.583262594 0.0)scale(0.996264009963)" xlink:href="#CMR17-112"/>
     <use transform="translate(497.478632375 0.0)scale(0.996264009963)" xlink:href="#CMR17-114"/>
     <use transform="translate(532.759400174 0.0)scale(0.996264009963)" xlink:href="#CMR17-101"/>
     <use transform="translate(573.245060637 0.0)scale(0.996264009963)" xlink:href="#CMR17-115"/>
     <use transform="translate(609.046398272 0.0)scale(0.996264009963)" xlink:href="#CMR17-101"/>
     <use transform="translate(649.532058735 0.0)scale(0.996264009963)" xlink:href="#CMR17-110"/>
     <use transform="translate(697.824974583 0.0)scale(0.996264009963)" xlink:href="#CMR17-116"/>
     <use transform="translate(733.105742382 0.0)scale(0.996264009963)" xlink:href="#CMR17-97"/>
     <use transform="translate(778.796219499 0.0)scale(0.996264009963)" xlink:href="#CMR17-116"/>
     <use transform="translate(814.076987299 0.0)scale(0.996264009963)" xlink:href="#CMR17-105"/>
     <use transform="translate(838.94804578 0.0)scale(0.996264009963)" xlink:href="#CMR17-111"/>
     <use transform="translate(884.638522898 0.0)scale(0.996264009963)" xlink:href="#CMR17-110"/>
     <use transform="translate(935.533892678 0.0)scale(0.996264009963)" xlink:href="#CMR17-115"/>
    </g>
   </g>
   <g id="text_33">
    <!-- Sessions posant probl\`eme -->
    <defs>
     <path d="M 25.796875 50.6875 
C 26.09375 50.984375 26.796875 51.78125 27 51.875 
L 15.703125 66.3125 
C 13.59375 68.90625 13.5 69 12.296875 69 
C 10.90625 69 9.59375 67.703125 9.59375 66.3125 
C 9.59375 65.3125 10.203125 64.71875 10.296875 64.515625 
C 10.5 64.421875 14.703125 60.53125 18.203125 57.359375 
z
" id="CMR17-18"/>
    </defs>
    <g transform="translate(107.661874659 68.9285714286)scale(0.12 -0.12)">
     <use transform="scale(0.996264009963)" xlink:href="#CMR17-83"/>
     <use transform="translate(50.8953697803 0.0)scale(0.996264009963)" xlink:href="#CMR17-101"/>
     <use transform="translate(91.381030243 0.0)scale(0.996264009963)" xlink:href="#CMR17-115"/>
     <use transform="translate(127.182367878 0.0)scale(0.996264009963)" xlink:href="#CMR17-115"/>
     <use transform="translate(162.983705514 0.0)scale(0.996264009963)" xlink:href="#CMR17-105"/>
     <use transform="translate(187.854763995 0.0)scale(0.996264009963)" xlink:href="#CMR17-111"/>
     <use transform="translate(233.545241112 0.0)scale(0.996264009963)" xlink:href="#CMR17-110"/>
     <use transform="translate(284.440610893 0.0)scale(0.996264009963)" xlink:href="#CMR17-115"/>
     <use transform="translate(350.317914875 0.0)scale(0.996264009963)" xlink:href="#CMR17-112"/>
     <use transform="translate(403.815723386 0.0)scale(0.996264009963)" xlink:href="#CMR17-111"/>
     <use transform="translate(449.506200503 0.0)scale(0.996264009963)" xlink:href="#CMR17-115"/>
     <use transform="translate(485.307538138 0.0)scale(0.996264009963)" xlink:href="#CMR17-97"/>
     <use transform="translate(530.998015255 0.0)scale(0.996264009963)" xlink:href="#CMR17-110"/>
     <use transform="translate(579.290931103 0.0)scale(0.996264009963)" xlink:href="#CMR17-116"/>
     <use transform="translate(644.647665249 0.0)scale(0.996264009963)" xlink:href="#CMR17-112"/>
     <use transform="translate(695.54303503 0.0)scale(0.996264009963)" xlink:href="#CMR17-114"/>
     <use transform="translate(730.823802829 0.0)scale(0.996264009963)" xlink:href="#CMR17-111"/>
     <use transform="translate(776.514279946 0.0)scale(0.996264009963)" xlink:href="#CMR17-98"/>
     <use transform="translate(827.409649727 0.0)scale(0.996264009963)" xlink:href="#CMR17-108"/>
     <use transform="translate(849.678299881 0.0)scale(0.996264009963)" xlink:href="#CMR17-18"/>
     <use transform="translate(852.280708208 0.0)scale(0.996264009963)" xlink:href="#CMR17-101"/>
     <use transform="translate(892.766368671 0.0)scale(0.996264009963)" xlink:href="#CMR17-109"/>
     <use transform="translate(969.685958539 0.0)scale(0.996264009963)" xlink:href="#CMR17-101"/>
    </g>
   </g>
  </g>
 </g>
 <defs>
  <clipPath id="p2b9ef8e72a">
   <rect height="345.0" width="276.0" x="34.5" y="73.9285714286"/>
  </clipPath>
 </defs>
</svg>
