<?xml version="1.0" encoding="utf-8" standalone="no"?>
<!DOCTYPE svg PUBLIC "-//W3C//DTD SVG 1.1//EN"
  "http://www.w3.org/Graphics/SVG/1.1/DTD/svg11.dtd">
<!-- Created with matplotlib (http://matplotlib.org/) -->
<svg height="213.226205pt" version="1.1" viewBox="0 0 345 213.226205" width="345pt" xmlns="http://www.w3.org/2000/svg" xmlns:xlink="http://www.w3.org/1999/xlink">
 <defs>
  <style type="text/css">
*{stroke-linecap:butt;stroke-linejoin:round;}
  </style>
 </defs>
 <g id="figure_1">
  <g id="patch_1">
   <path d="M 0 213.226205 
L 345 213.226205 
L 345 0 
L 0 0 
z
" style="fill:#ffffff;"/>
  </g>
  <g id="axes_1">
   <g id="patch_2">
    <path d="M 34.5 191.903585 
L 310.5 191.903585 
L 310.5 21.322621 
L 34.5 21.322621 
z
" style="fill:#ffffff;"/>
   </g>
   <g id="patch_3">
    <path clip-path="url(#pa16a748378)" d="M 246.015074 76.162161 
L 241.909259 71.568454 
L 242.254255 77.719945 
z
" style="stroke:#000000;stroke-linejoin:miter;"/>
   </g>
   <g id="patch_4">
    <path clip-path="url(#pa16a748378)" d="M 202.95094 33.098028 
L 196.799449 32.753036 
L 201.393159 36.858848 
z
" style="stroke:#000000;stroke-linejoin:miter;"/>
   </g>
   <g id="patch_5">
    <path clip-path="url(#pa16a748378)" d="M 142.049059 33.098029 
L 137.455351 37.203844 
L 143.606842 36.858848 
z
" style="stroke:#000000;stroke-linejoin:miter;"/>
   </g>
   <g id="patch_6">
    <path clip-path="url(#pa16a748378)" d="M 98.984926 76.162162 
L 98.639934 82.313654 
L 102.745746 77.719944 
z
" style="stroke:#000000;stroke-linejoin:miter;"/>
   </g>
   <g id="patch_7">
    <path clip-path="url(#pa16a748378)" d="M 98.984926 137.064044 
L 103.090741 141.657751 
L 102.745745 135.50626 
z
" style="stroke:#000000;stroke-linejoin:miter;"/>
   </g>
   <g id="patch_8">
    <path clip-path="url(#pa16a748378)" d="M 142.04906 180.128177 
L 148.200551 180.473169 
L 143.606841 176.367357 
z
" style="stroke:#000000;stroke-linejoin:miter;"/>
   </g>
   <g id="patch_9">
    <path clip-path="url(#pa16a748378)" d="M 202.950941 180.128177 
L 207.544649 176.022361 
L 201.393158 176.367357 
z
" style="stroke:#000000;stroke-linejoin:miter;"/>
   </g>
   <g id="patch_10">
    <path clip-path="url(#pa16a748378)" d="M 246.015074 137.064043 
L 246.360066 130.912552 
L 242.254254 135.506261 
z
" style="stroke:#000000;stroke-linejoin:miter;"/>
   </g>
   <g id="patch_11">
    <path clip-path="url(#pa16a748378)" d="M 232.091805 85.789699 
L 226.540592 83.116892 
L 229.213398 88.668106 
z
" style="stroke:#000000;stroke-linejoin:miter;"/>
   </g>
   <g id="patch_12">
    <path clip-path="url(#pa16a748378)" d="M 193.323404 47.021298 
L 187.772191 44.348491 
L 190.444997 49.899705 
z
" style="stroke:#000000;stroke-linejoin:miter;"/>
   </g>
   <g id="patch_13">
    <path clip-path="url(#pa16a748378)" d="M 151.676596 47.021298 
L 149.00379 52.572511 
L 154.555003 49.899705 
z
" style="stroke:#000000;stroke-linejoin:miter;"/>
   </g>
   <g id="patch_14">
    <path clip-path="url(#pa16a748378)" d="M 112.908195 85.789699 
L 110.235389 91.340912 
L 115.786602 88.668106 
z
" style="stroke:#000000;stroke-linejoin:miter;"/>
   </g>
   <g id="patch_15">
    <path clip-path="url(#pa16a748378)" d="M 112.908195 127.436507 
L 118.459408 130.109313 
L 115.786602 124.5581 
z
" style="stroke:#000000;stroke-linejoin:miter;"/>
   </g>
   <g id="patch_16">
    <path clip-path="url(#pa16a748378)" d="M 151.676596 166.204907 
L 157.227809 168.877714 
L 154.555003 163.326501 
z
" style="stroke:#000000;stroke-linejoin:miter;"/>
   </g>
   <g id="patch_17">
    <path clip-path="url(#pa16a748378)" d="M 193.323404 166.204907 
L 195.99621 160.653694 
L 190.444997 163.326501 
z
" style="stroke:#000000;stroke-linejoin:miter;"/>
   </g>
   <g id="patch_18">
    <path clip-path="url(#pa16a748378)" d="M 232.091805 127.436507 
L 234.764611 121.885293 
L 229.213398 124.5581 
z
" style="stroke:#000000;stroke-linejoin:miter;"/>
   </g>
   <g id="patch_19">
    <path clip-path="url(#pa16a748378)" d="M 158.064854 116.058431 
L 156.610736 119.624046 
L 159.97102 117.743472 
z
" style="fill:#808080;stroke:#808080;stroke-linejoin:miter;"/>
   </g>
   <g id="patch_20">
    <path clip-path="url(#pa16a748378)" d="M 163.054672 121.048248 
L 164.935244 117.687962 
L 161.36963 119.142083 
z
" style="fill:#808080;stroke:#808080;stroke-linejoin:miter;"/>
   </g>
   <g id="patch_21">
    <path clip-path="url(#pa16a748378)" d="M 181.945328 121.048249 
L 185.510944 122.502367 
L 183.63037 119.142082 
z
" style="fill:#808080;stroke:#808080;stroke-linejoin:miter;"/>
   </g>
   <g id="patch_22">
    <path clip-path="url(#pa16a748378)" d="M 186.935145 116.05843 
L 183.574859 114.177859 
L 185.02898 117.743473 
z
" style="fill:#808080;stroke:#808080;stroke-linejoin:miter;"/>
   </g>
   <g id="patch_23">
    <path clip-path="url(#pa16a748378)" d="M 186.935146 97.167774 
L 188.389264 93.602159 
L 185.02898 95.482733 
z
" style="fill:#808080;stroke:#808080;stroke-linejoin:miter;"/>
   </g>
   <g id="patch_24">
    <path clip-path="url(#pa16a748378)" d="M 181.945328 92.177957 
L 180.064756 95.538243 
L 183.63037 94.084122 
z
" style="fill:#808080;stroke:#808080;stroke-linejoin:miter;"/>
   </g>
   <g id="patch_25">
    <path clip-path="url(#pa16a748378)" d="M 163.054672 92.177957 
L 159.489056 90.723838 
L 161.36963 94.084123 
z
" style="fill:#808080;stroke:#808080;stroke-linejoin:miter;"/>
   </g>
   <g id="patch_26">
    <path clip-path="url(#pa16a748378)" d="M 158.064855 97.167775 
L 161.425141 99.048346 
L 159.97102 95.482732 
z
" style="fill:#808080;stroke:#808080;stroke-linejoin:miter;"/>
   </g>
   <g id="matplotlib.axis_1">
    <g id="xtick_1">
     <g id="line2d_1">
      <path clip-path="url(#pa16a748378)" d="M 56.194797 191.903585 
L 56.194797 21.322621 
" style="fill:none;stroke:#b0b0b0;stroke-linecap:square;stroke-width:0.8;"/>
     </g>
     <g id="line2d_2">
      <defs>
       <path d="M 0 0 
L 0 3.5 
" id="m729bd26788" style="stroke:#000000;stroke-width:0.8;"/>
      </defs>
      <g>
       <use style="stroke:#000000;stroke-width:0.8;" x="56.194797" xlink:href="#m729bd26788" y="191.903585"/>
      </g>
     </g>
     <g id="text_1">
      <!-- $-1.5$ -->
      <defs>
       <path d="M 65.90625 23 
C 67.59375 23 69.40625 23 69.40625 25 
C 69.40625 27 67.59375 27 65.90625 27 
L 11.796875 27 
C 10.09375 27 8.296875 27 8.296875 25 
C 8.296875 23 10.09375 23 11.796875 23 
z
" id="CMSY10-0"/>
       <path d="M 26.59375 63.40625 
C 26.59375 65.5 26.5 65.5 25.09375 65.5 
C 21.203125 61.1875 15.296875 59.796875 9.703125 59.796875 
C 9.40625 59.796875 8.90625 59.796875 8.796875 59.5 
C 8.703125 59.296875 8.703125 59.09375 8.703125 57 
C 11.796875 57 17 57.59375 21 59.984375 
L 21 7.203125 
C 21 3.6875 20.796875 2.5 12.203125 2.5 
L 9.203125 2.5 
L 9.203125 0 
C 14 0 19 0 23.796875 0 
C 28.59375 0 33.59375 0 38.40625 0 
L 38.40625 2.5 
L 35.40625 2.5 
C 26.796875 2.5 26.59375 3.59375 26.59375 7.15625 
z
" id="CMR17-49"/>
       <path d="M 18.40625 4.796875 
C 18.40625 7.6875 16 9.671875 13.59375 9.671875 
C 10.703125 9.671875 8.703125 7.28125 8.703125 4.890625 
C 8.703125 2 11.09375 0 13.5 0 
C 16.40625 0 18.40625 2.390625 18.40625 4.796875 
z
" id="CMMI12-58"/>
       <path d="M 11.40625 57.6875 
C 12.40625 57.28125 16.5 56 20.703125 56 
C 30 56 35.09375 61.109375 38 64.0625 
C 38 64.953125 38 65.5 37.40625 65.5 
C 37.296875 65.5 37.09375 65.5 36.296875 65.046875 
C 32.796875 63.40625 28.703125 62.078125 23.703125 62.078125 
C 20.703125 62.078125 16.203125 62.484375 11.296875 64.671875 
C 10.203125 65.171875 10 65.171875 9.90625 65.171875 
C 9.40625 65.171875 9.296875 65.0625 9.296875 63.078125 
L 9.296875 34.421875 
C 9.296875 32.640625 9.296875 32.140625 10.296875 32.140625 
C 10.796875 32.140625 11 32.34375 11.5 33.03125 
C 14.703125 37.515625 19.09375 39.40625 24.09375 39.40625 
C 27.59375 39.40625 35.09375 37.21875 35.09375 20.140625 
C 35.09375 16.953125 35.09375 11.171875 32.09375 6.578125 
C 29.59375 2.484375 25.703125 0.390625 21.40625 0.390625 
C 14.796875 0.390625 8.09375 5 6.296875 12.71875 
C 6.703125 12.609375 7.5 12.421875 7.90625 12.421875 
C 9.203125 12.421875 11.703125 13.125 11.703125 16.21875 
C 11.703125 18.90625 9.796875 20 7.90625 20 
C 5.59375 20 4.09375 18.59375 4.09375 15.796875 
C 4.09375 7.09375 11 -2 21.59375 -2 
C 31.90625 -2 41.703125 6.875 41.703125 19.75 
C 41.703125 31.71875 33.90625 41 24.203125 41 
C 19.09375 41 14.796875 39.109375 11.40625 35.53125 
z
" id="CMR17-53"/>
      </defs>
      <g transform="translate(45.955386 205.822083)scale(0.1 -0.1)">
       <use transform="scale(0.996264)" xlink:href="#CMSY10-0"/>
       <use transform="translate(77.487468 0)scale(0.996264)" xlink:href="#CMR17-49"/>
       <use transform="translate(123.177945 0)scale(0.996264)" xlink:href="#CMMI12-58"/>
       <use transform="translate(150.275122 0)scale(0.996264)" xlink:href="#CMR17-53"/>
      </g>
     </g>
    </g>
    <g id="xtick_2">
     <g id="line2d_3">
      <path clip-path="url(#pa16a748378)" d="M 94.963198 191.903585 
L 94.963198 21.322621 
" style="fill:none;stroke:#b0b0b0;stroke-linecap:square;stroke-width:0.8;"/>
     </g>
     <g id="line2d_4">
      <g>
       <use style="stroke:#000000;stroke-width:0.8;" x="94.963198" xlink:href="#m729bd26788" y="191.903585"/>
      </g>
     </g>
     <g id="text_2">
      <!-- $-1.0$ -->
      <defs>
       <path d="M 42 31.640625 
C 42 37.75 41.90625 48.125 37.703125 56.109375 
C 34 63.109375 28.09375 65.59375 22.90625 65.59375 
C 18.09375 65.59375 12 63.40625 8.203125 56.203125 
C 4.203125 48.71875 3.796875 39.4375 3.796875 31.640625 
C 3.796875 25.953125 3.90625 17.28125 7 9.671875 
C 11.296875 -0.609375 19 -2 22.90625 -2 
C 27.5 -2 34.5 -0.109375 38.59375 9.375 
C 41.59375 16.28125 42 24.359375 42 31.640625 
z
M 22.90625 -0.40625 
C 16.5 -0.40625 12.703125 5.078125 11.296875 12.6875 
C 10.203125 18.5625 10.203125 27.15625 10.203125 32.75 
C 10.203125 40.4375 10.203125 46.828125 11.5 52.921875 
C 13.40625 61.390625 19 64 22.90625 64 
C 27 64 32.296875 61.296875 34.203125 53.125 
C 35.5 47.4375 35.59375 40.734375 35.59375 32.75 
C 35.59375 26.25 35.59375 18.265625 34.40625 12.375 
C 32.296875 1.484375 26.40625 -0.40625 22.90625 -0.40625 
z
" id="CMR17-48"/>
      </defs>
      <g transform="translate(84.723787 205.822083)scale(0.1 -0.1)">
       <use transform="scale(0.996264)" xlink:href="#CMSY10-0"/>
       <use transform="translate(77.487468 0)scale(0.996264)" xlink:href="#CMR17-49"/>
       <use transform="translate(123.177945 0)scale(0.996264)" xlink:href="#CMMI12-58"/>
       <use transform="translate(150.275122 0)scale(0.996264)" xlink:href="#CMR17-48"/>
      </g>
     </g>
    </g>
    <g id="xtick_3">
     <g id="line2d_5">
      <path clip-path="url(#pa16a748378)" d="M 133.731599 191.903585 
L 133.731599 21.322621 
" style="fill:none;stroke:#b0b0b0;stroke-linecap:square;stroke-width:0.8;"/>
     </g>
     <g id="line2d_6">
      <g>
       <use style="stroke:#000000;stroke-width:0.8;" x="133.731599" xlink:href="#m729bd26788" y="191.903585"/>
      </g>
     </g>
     <g id="text_3">
      <!-- $-0.5$ -->
      <g transform="translate(123.492188 205.822083)scale(0.1 -0.1)">
       <use transform="scale(0.996264)" xlink:href="#CMSY10-0"/>
       <use transform="translate(77.487468 0)scale(0.996264)" xlink:href="#CMR17-48"/>
       <use transform="translate(123.177945 0)scale(0.996264)" xlink:href="#CMMI12-58"/>
       <use transform="translate(150.275122 0)scale(0.996264)" xlink:href="#CMR17-53"/>
      </g>
     </g>
    </g>
    <g id="xtick_4">
     <g id="line2d_7">
      <path clip-path="url(#pa16a748378)" d="M 172.5 191.903585 
L 172.5 21.322621 
" style="fill:none;stroke:#b0b0b0;stroke-linecap:square;stroke-width:0.8;"/>
     </g>
     <g id="line2d_8">
      <g>
       <use style="stroke:#000000;stroke-width:0.8;" x="172.5" xlink:href="#m729bd26788" y="191.903585"/>
      </g>
     </g>
     <g id="text_4">
      <!-- $0.0$ -->
      <g transform="translate(166.134961 205.822083)scale(0.1 -0.1)">
       <use transform="scale(0.996264)" xlink:href="#CMR17-48"/>
       <use transform="translate(45.690477 0)scale(0.996264)" xlink:href="#CMMI12-58"/>
       <use transform="translate(72.787654 0)scale(0.996264)" xlink:href="#CMR17-48"/>
      </g>
     </g>
    </g>
    <g id="xtick_5">
     <g id="line2d_9">
      <path clip-path="url(#pa16a748378)" d="M 211.268401 191.903585 
L 211.268401 21.322621 
" style="fill:none;stroke:#b0b0b0;stroke-linecap:square;stroke-width:0.8;"/>
     </g>
     <g id="line2d_10">
      <g>
       <use style="stroke:#000000;stroke-width:0.8;" x="211.268401" xlink:href="#m729bd26788" y="191.903585"/>
      </g>
     </g>
     <g id="text_5">
      <!-- $0.5$ -->
      <g transform="translate(204.903361 205.822083)scale(0.1 -0.1)">
       <use transform="scale(0.996264)" xlink:href="#CMR17-48"/>
       <use transform="translate(45.690477 0)scale(0.996264)" xlink:href="#CMMI12-58"/>
       <use transform="translate(72.787654 0)scale(0.996264)" xlink:href="#CMR17-53"/>
      </g>
     </g>
    </g>
    <g id="xtick_6">
     <g id="line2d_11">
      <path clip-path="url(#pa16a748378)" d="M 250.036802 191.903585 
L 250.036802 21.322621 
" style="fill:none;stroke:#b0b0b0;stroke-linecap:square;stroke-width:0.8;"/>
     </g>
     <g id="line2d_12">
      <g>
       <use style="stroke:#000000;stroke-width:0.8;" x="250.036802" xlink:href="#m729bd26788" y="191.903585"/>
      </g>
     </g>
     <g id="text_6">
      <!-- $1.0$ -->
      <g transform="translate(243.671762 205.822083)scale(0.1 -0.1)">
       <use transform="scale(0.996264)" xlink:href="#CMR17-49"/>
       <use transform="translate(45.690477 0)scale(0.996264)" xlink:href="#CMMI12-58"/>
       <use transform="translate(72.787654 0)scale(0.996264)" xlink:href="#CMR17-48"/>
      </g>
     </g>
    </g>
    <g id="xtick_7">
     <g id="line2d_13">
      <path clip-path="url(#pa16a748378)" d="M 288.805203 191.903585 
L 288.805203 21.322621 
" style="fill:none;stroke:#b0b0b0;stroke-linecap:square;stroke-width:0.8;"/>
     </g>
     <g id="line2d_14">
      <g>
       <use style="stroke:#000000;stroke-width:0.8;" x="288.805203" xlink:href="#m729bd26788" y="191.903585"/>
      </g>
     </g>
     <g id="text_7">
      <!-- $1.5$ -->
      <g transform="translate(282.440163 205.822083)scale(0.1 -0.1)">
       <use transform="scale(0.996264)" xlink:href="#CMR17-49"/>
       <use transform="translate(45.690477 0)scale(0.996264)" xlink:href="#CMMI12-58"/>
       <use transform="translate(72.787654 0)scale(0.996264)" xlink:href="#CMR17-53"/>
      </g>
     </g>
    </g>
   </g>
   <g id="matplotlib.axis_2">
    <g id="ytick_1">
     <g id="line2d_15">
      <path clip-path="url(#pa16a748378)" d="M 34.5 184.149904 
L 310.5 184.149904 
" style="fill:none;stroke:#b0b0b0;stroke-linecap:square;stroke-width:0.8;"/>
     </g>
     <g id="line2d_16">
      <defs>
       <path d="M 0 0 
L -3.5 0 
" id="m9525988bc5" style="stroke:#000000;stroke-width:0.8;"/>
      </defs>
      <g>
       <use style="stroke:#000000;stroke-width:0.8;" x="34.5" xlink:href="#m9525988bc5" y="184.149904"/>
      </g>
     </g>
     <g id="text_8">
      <!-- $-1.0$ -->
      <g transform="translate(7.021177 187.609154)scale(0.1 -0.1)">
       <use transform="scale(0.996264)" xlink:href="#CMSY10-0"/>
       <use transform="translate(77.487468 0)scale(0.996264)" xlink:href="#CMR17-49"/>
       <use transform="translate(123.177945 0)scale(0.996264)" xlink:href="#CMMI12-58"/>
       <use transform="translate(150.275122 0)scale(0.996264)" xlink:href="#CMR17-48"/>
      </g>
     </g>
    </g>
    <g id="ytick_2">
     <g id="line2d_17">
      <path clip-path="url(#pa16a748378)" d="M 34.5 145.381504 
L 310.5 145.381504 
" style="fill:none;stroke:#b0b0b0;stroke-linecap:square;stroke-width:0.8;"/>
     </g>
     <g id="line2d_18">
      <g>
       <use style="stroke:#000000;stroke-width:0.8;" x="34.5" xlink:href="#m9525988bc5" y="145.381504"/>
      </g>
     </g>
     <g id="text_9">
      <!-- $-0.5$ -->
      <g transform="translate(7.021177 148.840753)scale(0.1 -0.1)">
       <use transform="scale(0.996264)" xlink:href="#CMSY10-0"/>
       <use transform="translate(77.487468 0)scale(0.996264)" xlink:href="#CMR17-48"/>
       <use transform="translate(123.177945 0)scale(0.996264)" xlink:href="#CMMI12-58"/>
       <use transform="translate(150.275122 0)scale(0.996264)" xlink:href="#CMR17-53"/>
      </g>
     </g>
    </g>
    <g id="ytick_3">
     <g id="line2d_19">
      <path clip-path="url(#pa16a748378)" d="M 34.5 106.613103 
L 310.5 106.613103 
" style="fill:none;stroke:#b0b0b0;stroke-linecap:square;stroke-width:0.8;"/>
     </g>
     <g id="line2d_20">
      <g>
       <use style="stroke:#000000;stroke-width:0.8;" x="34.5" xlink:href="#m9525988bc5" y="106.613103"/>
      </g>
     </g>
     <g id="text_10">
      <!-- $0.0$ -->
      <g transform="translate(14.769921 110.072352)scale(0.1 -0.1)">
       <use transform="scale(0.996264)" xlink:href="#CMR17-48"/>
       <use transform="translate(45.690477 0)scale(0.996264)" xlink:href="#CMMI12-58"/>
       <use transform="translate(72.787654 0)scale(0.996264)" xlink:href="#CMR17-48"/>
      </g>
     </g>
    </g>
    <g id="ytick_4">
     <g id="line2d_21">
      <path clip-path="url(#pa16a748378)" d="M 34.5 67.844702 
L 310.5 67.844702 
" style="fill:none;stroke:#b0b0b0;stroke-linecap:square;stroke-width:0.8;"/>
     </g>
     <g id="line2d_22">
      <g>
       <use style="stroke:#000000;stroke-width:0.8;" x="34.5" xlink:href="#m9525988bc5" y="67.844702"/>
      </g>
     </g>
     <g id="text_11">
      <!-- $0.5$ -->
      <g transform="translate(14.769921 71.303951)scale(0.1 -0.1)">
       <use transform="scale(0.996264)" xlink:href="#CMR17-48"/>
       <use transform="translate(45.690477 0)scale(0.996264)" xlink:href="#CMMI12-58"/>
       <use transform="translate(72.787654 0)scale(0.996264)" xlink:href="#CMR17-53"/>
      </g>
     </g>
    </g>
    <g id="ytick_5">
     <g id="line2d_23">
      <path clip-path="url(#pa16a748378)" d="M 34.5 29.076301 
L 310.5 29.076301 
" style="fill:none;stroke:#b0b0b0;stroke-linecap:square;stroke-width:0.8;"/>
     </g>
     <g id="line2d_24">
      <g>
       <use style="stroke:#000000;stroke-width:0.8;" x="34.5" xlink:href="#m9525988bc5" y="29.076301"/>
      </g>
     </g>
     <g id="text_12">
      <!-- $1.0$ -->
      <g transform="translate(14.769921 32.53555)scale(0.1 -0.1)">
       <use transform="scale(0.996264)" xlink:href="#CMR17-49"/>
       <use transform="translate(45.690477 0)scale(0.996264)" xlink:href="#CMMI12-58"/>
       <use transform="translate(72.787654 0)scale(0.996264)" xlink:href="#CMR17-48"/>
      </g>
     </g>
    </g>
   </g>
   <g id="line2d_25">
    <path clip-path="url(#pa16a748378)" d="M 250.036802 106.613103 
L 249.912615 102.226454 
L 249.540452 97.853858 
L 248.921506 93.509319 
L 248.057758 89.206757 
L 246.951976 84.959952 
L 245.607702 80.782508 
L 244.029242 76.687808 
L 242.221652 72.688968 
L 240.190722 68.798796 
L 237.942959 65.029756 
L 235.485563 61.393919 
L 232.826404 57.902933 
L 229.974002 54.567981 
L 226.937493 51.399744 
L 223.726605 48.408373 
L 220.351623 45.603449 
L 216.823357 42.993957 
L 213.15311 40.588257 
L 209.352639 38.394054 
L 205.434118 36.418377 
L 201.410099 34.667555 
L 197.293472 33.147196 
L 193.097424 31.862171 
L 188.835397 30.816596 
L 184.521042 30.013819 
L 180.16818 29.456414 
L 175.790755 29.146164 
L 171.402789 29.084064 
L 167.018337 29.270314 
L 162.651444 29.704315 
L 158.3161 30.384679 
L 154.026191 31.309225 
L 149.795459 32.474992 
L 145.637456 33.878246 
L 141.565503 35.514491 
L 137.592641 37.378487 
L 133.731599 39.464262 
L 129.994744 41.765136 
L 126.394045 44.273736 
L 122.941038 46.982029 
L 119.646783 49.881338 
L 116.521833 52.962376 
L 113.576198 56.215273 
L 110.819314 59.62961 
L 108.260011 63.194449 
L 105.906489 66.898371 
L 103.766286 70.729511 
L 101.846257 74.675597 
L 100.152554 78.723989 
L 98.690601 82.861718 
L 97.465082 87.07553 
L 96.479923 91.351926 
L 95.738279 95.677209 
L 95.242525 100.037522 
L 94.994251 104.4189 
L 94.994251 108.807306 
L 95.242525 113.188683 
L 95.738279 117.548996 
L 96.479923 121.874279 
L 97.465082 126.150676 
L 98.690601 130.364487 
L 100.152554 134.502216 
L 101.846257 138.550608 
L 103.766286 142.496694 
L 105.906489 146.327835 
L 108.260011 150.031757 
L 110.819314 153.596596 
L 113.576198 157.010932 
L 116.521833 160.26383 
L 119.646783 163.344867 
L 122.941038 166.244176 
L 126.394045 168.952469 
L 129.994744 171.46107 
L 133.731599 173.761943 
L 137.592641 175.847718 
L 141.565503 177.711714 
L 145.637456 179.347959 
L 149.795459 180.751213 
L 154.026191 181.91698 
L 158.3161 182.841527 
L 162.651444 183.52189 
L 167.018337 183.955892 
L 171.402789 184.142141 
L 175.790755 184.080041 
L 180.16818 183.769792 
L 184.521042 183.212386 
L 188.835397 182.409609 
L 193.097424 181.364034 
L 197.293472 180.079009 
L 201.410099 178.55865 
L 205.434118 176.807828 
L 209.352639 174.832152 
L 213.15311 172.637949 
L 216.823357 170.232248 
L 220.351623 167.622756 
L 223.726605 164.817832 
L 226.937493 161.826461 
L 229.974002 158.658225 
L 232.826404 155.323272 
L 235.485563 151.832286 
L 237.942959 148.196449 
L 240.190722 144.427409 
L 242.221652 140.537238 
L 244.029242 136.538397 
L 245.607702 132.443697 
L 246.951976 128.266253 
L 248.057758 124.019448 
L 248.921506 119.716886 
L 249.540452 115.372348 
L 249.912615 110.999751 
L 250.036802 106.613103 
L 250.036802 106.613103 
" style="fill:none;stroke:#000000;stroke-linecap:square;stroke-width:1.5;"/>
   </g>
   <g id="line2d_26">
    <path clip-path="url(#pa16a748378)" d="M 250.036802 106.613103 
L 172.5 29.076301 
L 94.963198 106.613103 
L 172.5 184.149904 
L 250.036802 106.613103 
" style="fill:none;stroke:#000000;stroke-dasharray:7.5,1.5;stroke-dashoffset:0;stroke-width:1.5;"/>
   </g>
   <g id="line2d_27">
    <path clip-path="url(#pa16a748378)" d="M 172.5 106.613103 
L 168.995239 108.734046 
L 165.695073 110.99313 
L 162.906578 113.171092 
L 160.621419 115.226413 
L 158.827898 117.118393 
L 157.511031 118.807426 
L 156.652653 120.25526 
L 156.248933 121.345923 
L 156.190063 122.114267 
L 156.351794 122.563765 
L 156.692299 122.840842 
L 157.201536 122.935658 
L 157.952363 122.816012 
L 158.985553 122.397274 
L 160.336004 121.581134 
L 161.891375 120.373975 
L 163.772712 118.608391 
L 165.819706 116.351946 
L 167.821138 113.823058 
L 169.896494 110.858943 
L 172.012745 107.455264 
L 172.544302 106.690621 
L 174.664891 110.18619 
L 176.922811 113.476458 
L 179.098804 116.255184 
L 181.151364 118.530768 
L 183.039811 120.314971 
L 184.724561 121.622839 
L 186.167392 122.472599 
L 187.252826 122.86875 
L 188.015887 122.921046 
L 188.460735 122.754219 
L 188.732878 122.408889 
L 188.822497 121.895114 
L 188.696785 121.139598 
L 188.271049 120.101702 
L 187.446924 118.746683 
L 186.231458 117.187358 
L 184.456568 115.302459 
L 182.190555 113.252674 
L 179.652662 111.249368 
L 176.679424 109.172822 
L 173.266559 107.056073 
L 172.654845 106.701706 
L 172.654845 106.524499 
L 176.141222 104.404279 
L 179.421595 102.147539 
L 182.190555 99.973531 
L 184.456568 97.923746 
L 186.231458 96.038847 
L 187.530335 94.358394 
L 188.371484 92.920579 
L 188.760074 91.840386 
L 188.805806 91.082617 
L 188.633889 90.64243 
L 188.283742 90.375226 
L 187.765436 90.290813 
L 187.005241 90.422598 
L 185.96265 90.855339 
L 184.603076 91.687456 
L 183.039811 92.911234 
L 181.151364 94.695437 
L 179.098804 96.971021 
L 177.093637 99.517924 
L 175.015916 102.500285 
L 172.898682 105.922336 
L 172.544302 106.535584 
L 172.367095 106.381122 
L 170.247259 102.903937 
L 167.991714 99.633457 
L 165.819706 96.87426 
L 163.772712 94.617814 
L 161.891375 92.85223 
L 160.215233 91.562339 
L 158.782449 90.729793 
L 157.707508 90.348754 
L 156.955042 90.30958 
L 156.519522 90.486579 
L 156.257266 90.841535 
L 156.178065 91.364363 
L 156.31593 92.129228 
L 156.755685 93.176502 
L 157.595801 94.54062 
L 158.827898 96.107812 
L 160.621419 97.999792 
L 162.906578 100.055113 
L 165.462493 102.062126 
L 168.45398 104.141008 
L 171.885219 106.258712 
L 172.5 106.613103 
L 172.5 106.613103 
" style="fill:none;stroke:#808080;stroke-linecap:square;stroke-width:1.5;"/>
   </g>
   <g id="patch_27">
    <path d="M 34.5 191.903585 
L 34.5 21.322621 
" style="fill:none;stroke:#000000;stroke-linecap:square;stroke-linejoin:miter;stroke-width:0.8;"/>
   </g>
   <g id="patch_28">
    <path d="M 310.5 191.903585 
L 310.5 21.322621 
" style="fill:none;stroke:#000000;stroke-linecap:square;stroke-linejoin:miter;stroke-width:0.8;"/>
   </g>
   <g id="patch_29">
    <path d="M 34.5 191.903585 
L 310.5 191.903585 
" style="fill:none;stroke:#000000;stroke-linecap:square;stroke-linejoin:miter;stroke-width:0.8;"/>
   </g>
   <g id="patch_30">
    <path d="M 34.5 21.322621 
L 310.5 21.322621 
" style="fill:none;stroke:#000000;stroke-linecap:square;stroke-linejoin:miter;stroke-width:0.8;"/>
   </g>
   <g id="legend_1">
    <g id="patch_31">
     <path d="M 248.162589 71.134156 
L 303.5 71.134156 
Q 305.5 71.134156 305.5 69.134156 
L 305.5 28.322621 
Q 305.5 26.322621 303.5 26.322621 
L 248.162589 26.322621 
Q 246.162589 26.322621 246.162589 28.322621 
L 246.162589 69.134156 
Q 246.162589 71.134156 248.162589 71.134156 
z
" style="fill:#ffffff;opacity:0.8;stroke:#cccccc;stroke-linejoin:miter;"/>
    </g>
    <g id="line2d_28">
     <path d="M 250.162589 33.822621 
L 270.162589 33.822621 
" style="fill:none;stroke:#000000;stroke-linecap:square;stroke-width:1.5;"/>
    </g>
    <g id="line2d_29"/>
    <g id="text_13">
     <!-- $\gamma$ -->
     <defs>
      <path d="M 37.796875 11.875 
C 37.59375 16.734375 37.40625 24.390625 33.59375 33.328125 
C 31.59375 38.3125 28.203125 43.5625 20.90625 43.5625 
C 8.59375 43.5625 1.90625 27.96875 1.90625 25.390625 
C 1.90625 24.484375 2.59375 24.484375 2.90625 24.484375 
C 3.796875 24.484375 3.796875 24.6875 4.296875 25.984375 
C 6.40625 32.140625 12.796875 37 19.703125 37 
C 33.59375 37 35.59375 21.609375 35.59375 11.78125 
C 35.59375 5.5 34.90625 3.4375 34.296875 1.4375 
C 32.40625 -4.71875 29.09375 -17.03125 29.09375 -19.8125 
C 29.09375 -20.609375 29.40625 -21.5 30.203125 -21.5 
C 31.703125 -21.5 32.59375 -18.21875 33.703125 -14.25 
C 36.09375 -5.515625 36.703125 -1.140625 37.203125 2.828125 
C 37.5 5.21875 43.203125 21.625 51.09375 37.21875 
C 51.796875 38.796875 53.203125 41.484375 53.203125 41.78125 
C 53.203125 41.875 53.09375 42.578125 52.203125 42.578125 
C 52 42.578125 51.5 42.578125 51.296875 42.171875 
C 51.09375 41.984375 47.59375 35.21875 44.59375 28.46875 
C 43.09375 25.09375 41.09375 20.625 37.796875 11.875 
z
" id="CMMI12-13"/>
     </defs>
     <g transform="translate(278.162589 37.322621)scale(0.1 -0.1)">
      <use transform="scale(0.996264)" xlink:href="#CMMI12-13"/>
     </g>
    </g>
    <g id="line2d_30">
     <path d="M 250.162589 47.759799 
L 270.162589 47.759799 
" style="fill:none;stroke:#000000;stroke-dasharray:7.5,1.5;stroke-dashoffset:0;stroke-width:1.5;"/>
    </g>
    <g id="line2d_31"/>
    <g id="text_14">
     <!-- $\mu$ -->
     <defs>
      <path d="M 14.40625 2.1875 
C 16.90625 -0.09375 20.59375 -1 24 -1 
C 30.40625 -1 34.796875 3.25 37.09375 6.328125 
C 38.09375 1.078125 42.296875 -1 45.796875 -1 
C 48.796875 -1 51.203125 0.78125 53 4.328125 
C 54.59375 7.703125 56 13.734375 56 14.109375 
C 56 14.609375 55.59375 15 55 15 
C 54.09375 15 54 14.5 53.59375 13.03125 
C 52.09375 7.203125 50.203125 1 46.09375 1 
C 43.203125 1 43 3.578125 43 5.59375 
C 43 7.875 43.90625 11.484375 44.59375 14.46875 
L 47.40625 25.234375 
C 47.796875 27.140625 48.90625 31.609375 49.40625 33.421875 
C 50 35.8125 51.09375 40.109375 51.09375 40.5 
C 51.09375 42 49.90625 43 48.40625 43 
C 47.5 43 45.40625 42.59375 44.59375 39.609375 
L 37.59375 11.875 
C 37.09375 9.875 37.09375 9.671875 35.796875 8.078125 
C 34.59375 6.390625 30.703125 1 24.40625 1 
C 18.796875 1 17 5.09375 17 9.765625 
C 17 12.671875 17.90625 16.15625 18.296875 17.859375 
L 22.796875 35.828125 
C 23.296875 37.71875 24.09375 40.90625 24.09375 41.515625 
C 24.09375 43.109375 22.796875 44 21.5 44 
C 20.59375 44 18.40625 43.703125 17.59375 40.5 
L 3.09375 -17.296875 
C 3 -17.796875 2.796875 -18.390625 2.796875 -19 
C 2.796875 -20.5 4 -21.5 5.5 -21.5 
C 8.40625 -21.5 9 -19.1875 9.703125 -16.40625 
z
" id="CMMI12-22"/>
     </defs>
     <g transform="translate(278.162589 51.259799)scale(0.1 -0.1)">
      <use transform="scale(0.996264)" xlink:href="#CMMI12-22"/>
     </g>
    </g>
    <g id="line2d_32">
     <path d="M 250.162589 61.696977 
L 270.162589 61.696977 
" style="fill:none;stroke:#808080;stroke-linecap:square;stroke-width:1.5;"/>
    </g>
    <g id="line2d_33"/>
    <g id="text_15">
     <!-- $\mu - \gamma$ -->
     <g transform="translate(278.162589 65.196977)scale(0.1 -0.1)">
      <use transform="scale(0.996264)" xlink:href="#CMMI12-22"/>
      <use transform="translate(80.830628 0)scale(0.996264)" xlink:href="#CMSY10-0"/>
      <use transform="translate(180.457303 0)scale(0.996264)" xlink:href="#CMMI12-13"/>
     </g>
    </g>
   </g>
  </g>
 </g>
 <defs>
  <clipPath id="pa16a748378">
   <rect height="170.580964" width="276" x="34.5" y="21.322621"/>
  </clipPath>
 </defs>
</svg>
