<?xml version="1.0" encoding="utf-8" standalone="no"?>
<!DOCTYPE svg PUBLIC "-//W3C//DTD SVG 1.1//EN"
  "http://www.w3.org/Graphics/SVG/1.1/DTD/svg11.dtd">
<!-- Created with matplotlib (http://matplotlib.org/) -->
<svg height="213.226205pt" version="1.1" viewBox="0 0 345 213.226205" width="345pt" xmlns="http://www.w3.org/2000/svg" xmlns:xlink="http://www.w3.org/1999/xlink">
 <defs>
  <style type="text/css">
*{stroke-linecap:butt;stroke-linejoin:round;}
  </style>
 </defs>
 <g id="figure_1">
  <g id="patch_1">
   <path d="M 0 213.226205 
L 345 213.226205 
L 345 0 
L 0 0 
z
" style="fill:#ffffff;"/>
  </g>
  <g id="axes_1">
   <g id="patch_2">
    <path d="M 34.5 191.903585 
L 310.5 191.903585 
L 310.5 21.322621 
L 34.5 21.322621 
z
" style="fill:#ffffff;"/>
   </g>
   <g id="patch_3">
    <path clip-path="url(#pa4361a27c4)" d="M 248.177413 82.023958 
L 244.444673 77.122273 
L 244.305965 83.281869 
z
" style="stroke:#000000;stroke-linejoin:miter;"/>
   </g>
   <g id="patch_4">
    <path clip-path="url(#pa4361a27c4)" d="M 219.27114 42.237886 
L 213.370152 40.46639 
L 216.878454 45.531138 
z
" style="stroke:#000000;stroke-linejoin:miter;"/>
   </g>
   <g id="patch_5">
    <path clip-path="url(#pa4361a27c4)" d="M 172.499808 27.04096 
L 166.684548 29.076303 
L 172.499809 31.111642 
z
" style="stroke:#000000;stroke-linejoin:miter;"/>
   </g>
   <g id="patch_6">
    <path clip-path="url(#pa4361a27c4)" d="M 125.728476 42.237887 
L 122.220176 47.302638 
L 128.121164 45.531137 
z
" style="stroke:#000000;stroke-linejoin:miter;"/>
   </g>
   <g id="patch_7">
    <path clip-path="url(#pa4361a27c4)" d="M 96.822203 82.023959 
L 96.960915 88.183555 
L 100.693652 83.281867 
z
" style="stroke:#000000;stroke-linejoin:miter;"/>
   </g>
   <g id="patch_8">
    <path clip-path="url(#pa4361a27c4)" d="M 96.822203 131.202248 
L 100.554944 136.103933 
L 100.693652 129.944336 
z
" style="stroke:#000000;stroke-linejoin:miter;"/>
   </g>
   <g id="patch_9">
    <path clip-path="url(#pa4361a27c4)" d="M 125.728477 170.988319 
L 131.629465 172.759816 
L 128.121163 167.695067 
z
" style="stroke:#000000;stroke-linejoin:miter;"/>
   </g>
   <g id="patch_10">
    <path clip-path="url(#pa4361a27c4)" d="M 172.499809 186.185246 
L 178.315068 184.149903 
L 172.499808 182.114563 
z
" style="stroke:#000000;stroke-linejoin:miter;"/>
   </g>
   <g id="patch_11">
    <path clip-path="url(#pa4361a27c4)" d="M 219.271141 170.988318 
L 222.77944 165.923567 
L 216.878453 167.695068 
z
" style="stroke:#000000;stroke-linejoin:miter;"/>
   </g>
   <g id="patch_12">
    <path clip-path="url(#pa4361a27c4)" d="M 248.177414 131.202246 
L 248.038701 125.04265 
L 244.305964 129.944338 
z
" style="stroke:#000000;stroke-linejoin:miter;"/>
   </g>
   <g id="patch_13">
    <path clip-path="url(#pa4361a27c4)" d="M 238.289083 86.981289 
L 233.224333 83.472988 
L 234.995832 89.373976 
z
" style="stroke:#000000;stroke-linejoin:miter;"/>
   </g>
   <g id="patch_14">
    <path clip-path="url(#pa4361a27c4)" d="M 211.500776 50.110349 
L 206.436027 46.602048 
L 208.207525 52.503036 
z
" style="stroke:#000000;stroke-linejoin:miter;"/>
   </g>
   <g id="patch_15">
    <path clip-path="url(#pa4361a27c4)" d="M 174.158848 37.977221 
L 169.257162 41.709959 
L 175.416758 41.848669 
z
" style="stroke:#000000;stroke-linejoin:miter;"/>
   </g>
   <g id="patch_16">
    <path clip-path="url(#pa4361a27c4)" d="M 130.814458 52.060667 
L 125.912772 55.793405 
L 132.072368 55.932115 
z
" style="stroke:#000000;stroke-linejoin:miter;"/>
   </g>
   <g id="patch_17">
    <path clip-path="url(#pa4361a27c4)" d="M 107.735877 83.825608 
L 109.771218 89.640868 
L 111.806559 83.825608 
z
" style="stroke:#000000;stroke-linejoin:miter;"/>
   </g>
   <g id="patch_18">
    <path clip-path="url(#pa4361a27c4)" d="M 107.735877 129.400597 
L 109.771218 135.215857 
L 111.806559 129.400597 
z
" style="stroke:#000000;stroke-linejoin:miter;"/>
   </g>
   <g id="patch_19">
    <path clip-path="url(#pa4361a27c4)" d="M 130.814458 161.165539 
L 136.974054 161.026828 
L 132.072368 157.29409 
z
" style="stroke:#000000;stroke-linejoin:miter;"/>
   </g>
   <g id="patch_20">
    <path clip-path="url(#pa4361a27c4)" d="M 174.158848 175.248985 
L 180.318444 175.110274 
L 175.416758 171.377536 
z
" style="stroke:#000000;stroke-linejoin:miter;"/>
   </g>
   <g id="patch_21">
    <path clip-path="url(#pa4361a27c4)" d="M 211.500776 163.115857 
L 213.272275 157.214869 
L 208.207525 160.72317 
z
" style="stroke:#000000;stroke-linejoin:miter;"/>
   </g>
   <g id="patch_22">
    <path clip-path="url(#pa4361a27c4)" d="M 238.289083 126.244916 
L 240.060581 120.343928 
L 234.995832 123.852229 
z
" style="stroke:#000000;stroke-linejoin:miter;"/>
   </g>
   <g id="patch_23">
    <path clip-path="url(#pa4361a27c4)" d="M 162.261739 111.345648 
L 160.637222 113.963072 
L 163.539414 112.929996 
z
" style="fill:#808080;stroke:#808080;stroke-linejoin:miter;"/>
   </g>
   <g id="patch_24">
    <path clip-path="url(#pa4361a27c4)" d="M 164.835153 114.887648 
L 166.714492 112.446736 
L 163.723171 113.182917 
z
" style="fill:#808080;stroke:#808080;stroke-linejoin:miter;"/>
   </g>
   <g id="patch_25">
    <path clip-path="url(#pa4361a27c4)" d="M 173.836989 117.812522 
L 175.824304 120.166358 
L 175.738617 117.086971 
z
" style="fill:#808080;stroke:#808080;stroke-linejoin:miter;"/>
   </g>
   <g id="patch_26">
    <path clip-path="url(#pa4361a27c4)" d="M 178.00086 116.459598 
L 176.260162 113.917957 
L 176.035943 116.990365 
z
" style="fill:#808080;stroke:#808080;stroke-linejoin:miter;"/>
   </g>
   <g id="patch_27">
    <path clip-path="url(#pa4361a27c4)" d="M 183.564301 108.802179 
L 186.417046 107.639506 
L 183.461896 106.769416 
z
" style="fill:#808080;stroke:#808080;stroke-linejoin:miter;"/>
   </g>
   <g id="patch_28">
    <path clip-path="url(#pa4361a27c4)" d="M 183.5643 104.424026 
L 180.609151 105.294117 
L 183.461897 106.456789 
z
" style="fill:#808080;stroke:#808080;stroke-linejoin:miter;"/>
   </g>
   <g id="patch_29">
    <path clip-path="url(#pa4361a27c4)" d="M 178.00086 96.766607 
L 177.776639 93.694199 
L 176.035943 96.235841 
z
" style="fill:#808080;stroke:#808080;stroke-linejoin:miter;"/>
   </g>
   <g id="patch_30">
    <path clip-path="url(#pa4361a27c4)" d="M 173.836989 95.413684 
L 173.751304 98.493071 
L 175.738617 96.139233 
z
" style="fill:#808080;stroke:#808080;stroke-linejoin:miter;"/>
   </g>
   <g id="patch_31">
    <path clip-path="url(#pa4361a27c4)" d="M 164.835153 98.338557 
L 161.843831 97.602378 
L 163.723172 100.043289 
z
" style="fill:#808080;stroke:#808080;stroke-linejoin:miter;"/>
   </g>
   <g id="patch_32">
    <path clip-path="url(#pa4361a27c4)" d="M 162.261739 101.880558 
L 165.163932 102.913632 
L 163.539413 100.296209 
z
" style="fill:#808080;stroke:#808080;stroke-linejoin:miter;"/>
   </g>
   <g id="matplotlib.axis_1">
    <g id="xtick_1">
     <g id="line2d_1">
      <path clip-path="url(#pa4361a27c4)" d="M 56.194605 191.903585 
L 56.194605 21.322621 
" style="fill:none;stroke:#b0b0b0;stroke-linecap:square;stroke-width:0.8;"/>
     </g>
     <g id="line2d_2">
      <defs>
       <path d="M 0 0 
L 0 3.5 
" id="m444839c974" style="stroke:#000000;stroke-width:0.8;"/>
      </defs>
      <g>
       <use style="stroke:#000000;stroke-width:0.8;" x="56.194605" xlink:href="#m444839c974" y="191.903585"/>
      </g>
     </g>
     <g id="text_1">
      <!-- $-1.5$ -->
      <defs>
       <path d="M 65.90625 23 
C 67.59375 23 69.40625 23 69.40625 25 
C 69.40625 27 67.59375 27 65.90625 27 
L 11.796875 27 
C 10.09375 27 8.296875 27 8.296875 25 
C 8.296875 23 10.09375 23 11.796875 23 
z
" id="CMSY10-0"/>
       <path d="M 26.59375 63.40625 
C 26.59375 65.5 26.5 65.5 25.09375 65.5 
C 21.203125 61.1875 15.296875 59.796875 9.703125 59.796875 
C 9.40625 59.796875 8.90625 59.796875 8.796875 59.5 
C 8.703125 59.296875 8.703125 59.09375 8.703125 57 
C 11.796875 57 17 57.59375 21 59.984375 
L 21 7.203125 
C 21 3.6875 20.796875 2.5 12.203125 2.5 
L 9.203125 2.5 
L 9.203125 0 
C 14 0 19 0 23.796875 0 
C 28.59375 0 33.59375 0 38.40625 0 
L 38.40625 2.5 
L 35.40625 2.5 
C 26.796875 2.5 26.59375 3.59375 26.59375 7.15625 
z
" id="CMR17-49"/>
       <path d="M 18.40625 4.796875 
C 18.40625 7.6875 16 9.671875 13.59375 9.671875 
C 10.703125 9.671875 8.703125 7.28125 8.703125 4.890625 
C 8.703125 2 11.09375 0 13.5 0 
C 16.40625 0 18.40625 2.390625 18.40625 4.796875 
z
" id="CMMI12-58"/>
       <path d="M 11.40625 57.6875 
C 12.40625 57.28125 16.5 56 20.703125 56 
C 30 56 35.09375 61.109375 38 64.0625 
C 38 64.953125 38 65.5 37.40625 65.5 
C 37.296875 65.5 37.09375 65.5 36.296875 65.046875 
C 32.796875 63.40625 28.703125 62.078125 23.703125 62.078125 
C 20.703125 62.078125 16.203125 62.484375 11.296875 64.671875 
C 10.203125 65.171875 10 65.171875 9.90625 65.171875 
C 9.40625 65.171875 9.296875 65.0625 9.296875 63.078125 
L 9.296875 34.421875 
C 9.296875 32.640625 9.296875 32.140625 10.296875 32.140625 
C 10.796875 32.140625 11 32.34375 11.5 33.03125 
C 14.703125 37.515625 19.09375 39.40625 24.09375 39.40625 
C 27.59375 39.40625 35.09375 37.21875 35.09375 20.140625 
C 35.09375 16.953125 35.09375 11.171875 32.09375 6.578125 
C 29.59375 2.484375 25.703125 0.390625 21.40625 0.390625 
C 14.796875 0.390625 8.09375 5 6.296875 12.71875 
C 6.703125 12.609375 7.5 12.421875 7.90625 12.421875 
C 9.203125 12.421875 11.703125 13.125 11.703125 16.21875 
C 11.703125 18.90625 9.796875 20 7.90625 20 
C 5.59375 20 4.09375 18.59375 4.09375 15.796875 
C 4.09375 7.09375 11 -2 21.59375 -2 
C 31.90625 -2 41.703125 6.875 41.703125 19.75 
C 41.703125 31.71875 33.90625 41 24.203125 41 
C 19.09375 41 14.796875 39.109375 11.40625 35.53125 
z
" id="CMR17-53"/>
      </defs>
      <g transform="translate(45.955194 205.822083)scale(0.1 -0.1)">
       <use transform="scale(0.996264)" xlink:href="#CMSY10-0"/>
       <use transform="translate(77.487468 0)scale(0.996264)" xlink:href="#CMR17-49"/>
       <use transform="translate(123.177945 0)scale(0.996264)" xlink:href="#CMMI12-58"/>
       <use transform="translate(150.275122 0)scale(0.996264)" xlink:href="#CMR17-53"/>
      </g>
     </g>
    </g>
    <g id="xtick_2">
     <g id="line2d_3">
      <path clip-path="url(#pa4361a27c4)" d="M 94.963006 191.903585 
L 94.963006 21.322621 
" style="fill:none;stroke:#b0b0b0;stroke-linecap:square;stroke-width:0.8;"/>
     </g>
     <g id="line2d_4">
      <g>
       <use style="stroke:#000000;stroke-width:0.8;" x="94.963006" xlink:href="#m444839c974" y="191.903585"/>
      </g>
     </g>
     <g id="text_2">
      <!-- $-1.0$ -->
      <defs>
       <path d="M 42 31.640625 
C 42 37.75 41.90625 48.125 37.703125 56.109375 
C 34 63.109375 28.09375 65.59375 22.90625 65.59375 
C 18.09375 65.59375 12 63.40625 8.203125 56.203125 
C 4.203125 48.71875 3.796875 39.4375 3.796875 31.640625 
C 3.796875 25.953125 3.90625 17.28125 7 9.671875 
C 11.296875 -0.609375 19 -2 22.90625 -2 
C 27.5 -2 34.5 -0.109375 38.59375 9.375 
C 41.59375 16.28125 42 24.359375 42 31.640625 
z
M 22.90625 -0.40625 
C 16.5 -0.40625 12.703125 5.078125 11.296875 12.6875 
C 10.203125 18.5625 10.203125 27.15625 10.203125 32.75 
C 10.203125 40.4375 10.203125 46.828125 11.5 52.921875 
C 13.40625 61.390625 19 64 22.90625 64 
C 27 64 32.296875 61.296875 34.203125 53.125 
C 35.5 47.4375 35.59375 40.734375 35.59375 32.75 
C 35.59375 26.25 35.59375 18.265625 34.40625 12.375 
C 32.296875 1.484375 26.40625 -0.40625 22.90625 -0.40625 
z
" id="CMR17-48"/>
      </defs>
      <g transform="translate(84.723595 205.822083)scale(0.1 -0.1)">
       <use transform="scale(0.996264)" xlink:href="#CMSY10-0"/>
       <use transform="translate(77.487468 0)scale(0.996264)" xlink:href="#CMR17-49"/>
       <use transform="translate(123.177945 0)scale(0.996264)" xlink:href="#CMMI12-58"/>
       <use transform="translate(150.275122 0)scale(0.996264)" xlink:href="#CMR17-48"/>
      </g>
     </g>
    </g>
    <g id="xtick_3">
     <g id="line2d_5">
      <path clip-path="url(#pa4361a27c4)" d="M 133.731407 191.903585 
L 133.731407 21.322621 
" style="fill:none;stroke:#b0b0b0;stroke-linecap:square;stroke-width:0.8;"/>
     </g>
     <g id="line2d_6">
      <g>
       <use style="stroke:#000000;stroke-width:0.8;" x="133.731407" xlink:href="#m444839c974" y="191.903585"/>
      </g>
     </g>
     <g id="text_3">
      <!-- $-0.5$ -->
      <g transform="translate(123.491996 205.822083)scale(0.1 -0.1)">
       <use transform="scale(0.996264)" xlink:href="#CMSY10-0"/>
       <use transform="translate(77.487468 0)scale(0.996264)" xlink:href="#CMR17-48"/>
       <use transform="translate(123.177945 0)scale(0.996264)" xlink:href="#CMMI12-58"/>
       <use transform="translate(150.275122 0)scale(0.996264)" xlink:href="#CMR17-53"/>
      </g>
     </g>
    </g>
    <g id="xtick_4">
     <g id="line2d_7">
      <path clip-path="url(#pa4361a27c4)" d="M 172.499808 191.903585 
L 172.499808 21.322621 
" style="fill:none;stroke:#b0b0b0;stroke-linecap:square;stroke-width:0.8;"/>
     </g>
     <g id="line2d_8">
      <g>
       <use style="stroke:#000000;stroke-width:0.8;" x="172.499808" xlink:href="#m444839c974" y="191.903585"/>
      </g>
     </g>
     <g id="text_4">
      <!-- $0.0$ -->
      <g transform="translate(166.134769 205.822083)scale(0.1 -0.1)">
       <use transform="scale(0.996264)" xlink:href="#CMR17-48"/>
       <use transform="translate(45.690477 0)scale(0.996264)" xlink:href="#CMMI12-58"/>
       <use transform="translate(72.787654 0)scale(0.996264)" xlink:href="#CMR17-48"/>
      </g>
     </g>
    </g>
    <g id="xtick_5">
     <g id="line2d_9">
      <path clip-path="url(#pa4361a27c4)" d="M 211.268209 191.903585 
L 211.268209 21.322621 
" style="fill:none;stroke:#b0b0b0;stroke-linecap:square;stroke-width:0.8;"/>
     </g>
     <g id="line2d_10">
      <g>
       <use style="stroke:#000000;stroke-width:0.8;" x="211.268209" xlink:href="#m444839c974" y="191.903585"/>
      </g>
     </g>
     <g id="text_5">
      <!-- $0.5$ -->
      <g transform="translate(204.90317 205.822083)scale(0.1 -0.1)">
       <use transform="scale(0.996264)" xlink:href="#CMR17-48"/>
       <use transform="translate(45.690477 0)scale(0.996264)" xlink:href="#CMMI12-58"/>
       <use transform="translate(72.787654 0)scale(0.996264)" xlink:href="#CMR17-53"/>
      </g>
     </g>
    </g>
    <g id="xtick_6">
     <g id="line2d_11">
      <path clip-path="url(#pa4361a27c4)" d="M 250.03661 191.903585 
L 250.03661 21.322621 
" style="fill:none;stroke:#b0b0b0;stroke-linecap:square;stroke-width:0.8;"/>
     </g>
     <g id="line2d_12">
      <g>
       <use style="stroke:#000000;stroke-width:0.8;" x="250.03661" xlink:href="#m444839c974" y="191.903585"/>
      </g>
     </g>
     <g id="text_6">
      <!-- $1.0$ -->
      <g transform="translate(243.671571 205.822083)scale(0.1 -0.1)">
       <use transform="scale(0.996264)" xlink:href="#CMR17-49"/>
       <use transform="translate(45.690477 0)scale(0.996264)" xlink:href="#CMMI12-58"/>
       <use transform="translate(72.787654 0)scale(0.996264)" xlink:href="#CMR17-48"/>
      </g>
     </g>
    </g>
    <g id="xtick_7">
     <g id="line2d_13">
      <path clip-path="url(#pa4361a27c4)" d="M 288.805011 191.903585 
L 288.805011 21.322621 
" style="fill:none;stroke:#b0b0b0;stroke-linecap:square;stroke-width:0.8;"/>
     </g>
     <g id="line2d_14">
      <g>
       <use style="stroke:#000000;stroke-width:0.8;" x="288.805011" xlink:href="#m444839c974" y="191.903585"/>
      </g>
     </g>
     <g id="text_7">
      <!-- $1.5$ -->
      <g transform="translate(282.439972 205.822083)scale(0.1 -0.1)">
       <use transform="scale(0.996264)" xlink:href="#CMR17-49"/>
       <use transform="translate(45.690477 0)scale(0.996264)" xlink:href="#CMMI12-58"/>
       <use transform="translate(72.787654 0)scale(0.996264)" xlink:href="#CMR17-53"/>
      </g>
     </g>
    </g>
   </g>
   <g id="matplotlib.axis_2">
    <g id="ytick_1">
     <g id="line2d_15">
      <path clip-path="url(#pa4361a27c4)" d="M 34.5 184.149904 
L 310.5 184.149904 
" style="fill:none;stroke:#b0b0b0;stroke-linecap:square;stroke-width:0.8;"/>
     </g>
     <g id="line2d_16">
      <defs>
       <path d="M 0 0 
L -3.5 0 
" id="m58ee762291" style="stroke:#000000;stroke-width:0.8;"/>
      </defs>
      <g>
       <use style="stroke:#000000;stroke-width:0.8;" x="34.5" xlink:href="#m58ee762291" y="184.149904"/>
      </g>
     </g>
     <g id="text_8">
      <!-- $-1.0$ -->
      <g transform="translate(7.021177 187.609154)scale(0.1 -0.1)">
       <use transform="scale(0.996264)" xlink:href="#CMSY10-0"/>
       <use transform="translate(77.487468 0)scale(0.996264)" xlink:href="#CMR17-49"/>
       <use transform="translate(123.177945 0)scale(0.996264)" xlink:href="#CMMI12-58"/>
       <use transform="translate(150.275122 0)scale(0.996264)" xlink:href="#CMR17-48"/>
      </g>
     </g>
    </g>
    <g id="ytick_2">
     <g id="line2d_17">
      <path clip-path="url(#pa4361a27c4)" d="M 34.5 145.381504 
L 310.5 145.381504 
" style="fill:none;stroke:#b0b0b0;stroke-linecap:square;stroke-width:0.8;"/>
     </g>
     <g id="line2d_18">
      <g>
       <use style="stroke:#000000;stroke-width:0.8;" x="34.5" xlink:href="#m58ee762291" y="145.381504"/>
      </g>
     </g>
     <g id="text_9">
      <!-- $-0.5$ -->
      <g transform="translate(7.021177 148.840753)scale(0.1 -0.1)">
       <use transform="scale(0.996264)" xlink:href="#CMSY10-0"/>
       <use transform="translate(77.487468 0)scale(0.996264)" xlink:href="#CMR17-48"/>
       <use transform="translate(123.177945 0)scale(0.996264)" xlink:href="#CMMI12-58"/>
       <use transform="translate(150.275122 0)scale(0.996264)" xlink:href="#CMR17-53"/>
      </g>
     </g>
    </g>
    <g id="ytick_3">
     <g id="line2d_19">
      <path clip-path="url(#pa4361a27c4)" d="M 34.5 106.613103 
L 310.5 106.613103 
" style="fill:none;stroke:#b0b0b0;stroke-linecap:square;stroke-width:0.8;"/>
     </g>
     <g id="line2d_20">
      <g>
       <use style="stroke:#000000;stroke-width:0.8;" x="34.5" xlink:href="#m58ee762291" y="106.613103"/>
      </g>
     </g>
     <g id="text_10">
      <!-- $0.0$ -->
      <g transform="translate(14.769921 110.072352)scale(0.1 -0.1)">
       <use transform="scale(0.996264)" xlink:href="#CMR17-48"/>
       <use transform="translate(45.690477 0)scale(0.996264)" xlink:href="#CMMI12-58"/>
       <use transform="translate(72.787654 0)scale(0.996264)" xlink:href="#CMR17-48"/>
      </g>
     </g>
    </g>
    <g id="ytick_4">
     <g id="line2d_21">
      <path clip-path="url(#pa4361a27c4)" d="M 34.5 67.844702 
L 310.5 67.844702 
" style="fill:none;stroke:#b0b0b0;stroke-linecap:square;stroke-width:0.8;"/>
     </g>
     <g id="line2d_22">
      <g>
       <use style="stroke:#000000;stroke-width:0.8;" x="34.5" xlink:href="#m58ee762291" y="67.844702"/>
      </g>
     </g>
     <g id="text_11">
      <!-- $0.5$ -->
      <g transform="translate(14.769921 71.303951)scale(0.1 -0.1)">
       <use transform="scale(0.996264)" xlink:href="#CMR17-48"/>
       <use transform="translate(45.690477 0)scale(0.996264)" xlink:href="#CMMI12-58"/>
       <use transform="translate(72.787654 0)scale(0.996264)" xlink:href="#CMR17-53"/>
      </g>
     </g>
    </g>
    <g id="ytick_5">
     <g id="line2d_23">
      <path clip-path="url(#pa4361a27c4)" d="M 34.5 29.076301 
L 310.5 29.076301 
" style="fill:none;stroke:#b0b0b0;stroke-linecap:square;stroke-width:0.8;"/>
     </g>
     <g id="line2d_24">
      <g>
       <use style="stroke:#000000;stroke-width:0.8;" x="34.5" xlink:href="#m58ee762291" y="29.076301"/>
      </g>
     </g>
     <g id="text_12">
      <!-- $1.0$ -->
      <g transform="translate(14.769921 32.53555)scale(0.1 -0.1)">
       <use transform="scale(0.996264)" xlink:href="#CMR17-49"/>
       <use transform="translate(45.690477 0)scale(0.996264)" xlink:href="#CMMI12-58"/>
       <use transform="translate(72.787654 0)scale(0.996264)" xlink:href="#CMR17-48"/>
      </g>
     </g>
    </g>
   </g>
   <g id="line2d_25">
    <path clip-path="url(#pa4361a27c4)" d="M 250.03661 106.613103 
L 249.912423 102.226454 
L 249.54026 97.853858 
L 248.921314 93.509319 
L 248.057566 89.206757 
L 246.951784 84.959952 
L 245.60751 80.782508 
L 244.02905 76.687808 
L 242.22146 72.688968 
L 240.190531 68.798796 
L 237.942768 65.029756 
L 235.485371 61.393919 
L 232.826212 57.902933 
L 229.97381 54.567981 
L 226.937302 51.399744 
L 223.726413 48.408373 
L 220.351431 45.603449 
L 216.823165 42.993957 
L 213.152918 40.588257 
L 209.352447 38.394054 
L 205.433926 36.418377 
L 201.409907 34.667555 
L 197.29328 33.147196 
L 193.097233 31.862171 
L 188.835205 30.816596 
L 184.52085 30.013819 
L 180.167989 29.456414 
L 175.790563 29.146164 
L 171.402597 29.084064 
L 167.018145 29.270314 
L 162.651253 29.704315 
L 158.315908 30.384679 
L 154.025999 31.309225 
L 149.795267 32.474992 
L 145.637265 33.878246 
L 141.565311 35.514491 
L 137.59245 37.378487 
L 133.731407 39.464262 
L 129.994552 41.765136 
L 126.393854 44.273736 
L 122.940846 46.982029 
L 119.646592 49.881338 
L 116.521642 52.962376 
L 113.576007 56.215273 
L 110.819122 59.62961 
L 108.25982 63.194449 
L 105.906297 66.898371 
L 103.766094 70.729511 
L 101.846065 74.675597 
L 100.152362 78.723989 
L 98.690409 82.861718 
L 97.464891 87.07553 
L 96.479731 91.351926 
L 95.738087 95.677209 
L 95.242334 100.037522 
L 94.994059 104.4189 
L 94.994059 108.807306 
L 95.242334 113.188683 
L 95.738087 117.548996 
L 96.479731 121.874279 
L 97.464891 126.150676 
L 98.690409 130.364487 
L 100.152362 134.502216 
L 101.846065 138.550608 
L 103.766094 142.496694 
L 105.906297 146.327835 
L 108.25982 150.031757 
L 110.819122 153.596596 
L 113.576007 157.010932 
L 116.521642 160.26383 
L 119.646592 163.344867 
L 122.940846 166.244176 
L 126.393854 168.952469 
L 129.994552 171.46107 
L 133.731407 173.761943 
L 137.59245 175.847718 
L 141.565311 177.711714 
L 145.637265 179.347959 
L 149.795267 180.751213 
L 154.025999 181.91698 
L 158.315908 182.841527 
L 162.651253 183.52189 
L 167.018145 183.955892 
L 171.402597 184.142141 
L 175.790563 184.080041 
L 180.167989 183.769792 
L 184.52085 183.212386 
L 188.835205 182.409609 
L 193.097233 181.364034 
L 197.29328 180.079009 
L 201.409907 178.55865 
L 205.433926 176.807828 
L 209.352447 174.832152 
L 213.152918 172.637949 
L 216.823165 170.232248 
L 220.351431 167.622756 
L 223.726413 164.817832 
L 226.937302 161.826461 
L 229.97381 158.658225 
L 232.826212 155.323272 
L 235.485371 151.832286 
L 237.942768 148.196449 
L 240.190531 144.427409 
L 242.22146 140.537238 
L 244.02905 136.538397 
L 245.60751 132.443697 
L 246.951784 128.266253 
L 248.057566 124.019448 
L 248.921314 119.716886 
L 249.54026 115.372348 
L 249.912423 110.999751 
L 250.03661 106.613103 
L 250.03661 106.613103 
" style="fill:none;stroke:#000000;stroke-linecap:square;stroke-width:1.5;"/>
   </g>
   <g id="line2d_26">
    <path clip-path="url(#pa4361a27c4)" d="M 250.03661 106.613103 
L 196.459998 32.871222 
L 109.771218 61.038114 
L 109.771218 152.188091 
L 196.459998 180.354983 
L 250.03661 106.613103 
" style="fill:none;stroke:#000000;stroke-dasharray:7.5,1.5;stroke-dashoffset:0;stroke-width:1.5;"/>
   </g>
   <g id="line2d_27">
    <path clip-path="url(#pa4361a27c4)" d="M 172.499808 106.613103 
L 169.046079 108.264506 
L 166.190798 109.863077 
L 163.787656 111.457663 
L 162.049048 112.868013 
L 160.954663 114.032347 
L 160.507316 114.796308 
L 160.476568 115.235825 
L 160.678243 115.438277 
L 161.07511 115.487138 
L 161.812064 115.322572 
L 162.912423 114.841149 
L 164.425686 113.938838 
L 166.391497 112.495261 
L 168.662591 110.534255 
L 171.192283 108.030977 
L 172.505811 106.671379 
L 173.011414 110.458107 
L 173.650964 113.659182 
L 174.425723 116.428299 
L 175.229749 118.508438 
L 175.998008 119.899906 
L 176.584862 120.5536 
L 176.991619 120.712145 
L 177.244722 120.57767 
L 177.411775 120.210203 
L 177.480095 119.452373 
L 177.358628 118.250704 
L 176.963633 116.526074 
L 176.192779 114.203712 
L 175.023592 111.431615 
L 173.418066 108.246554 
L 172.614267 106.637629 
L 176.364729 107.322214 
L 179.599207 107.699078 
L 182.463747 107.814335 
L 184.681771 107.689663 
L 186.233553 107.387034 
L 187.028693 107.029901 
L 187.298435 106.691702 
L 187.243235 106.409498 
L 186.939869 106.137445 
L 186.233553 105.839171 
L 185.045955 105.584845 
L 183.276018 105.42979 
L 180.821101 105.448349 
L 177.815671 105.707463 
L 174.283015 106.25461 
L 172.614267 106.588576 
L 172.587703 106.461295 
L 174.391038 103.11131 
L 175.742765 100.157533 
L 176.731534 97.475749 
L 177.293014 95.335233 
L 177.480095 93.773832 
L 177.382761 92.914464 
L 177.142069 92.55972 
L 176.854983 92.530284 
L 176.501165 92.74009 
L 175.998008 93.3263 
L 175.335668 94.492526 
L 174.639953 96.175738 
L 173.901955 98.567664 
L 173.227131 101.557035 
L 172.702798 104.861029 
L 172.505811 106.554826 
L 172.149198 106.224736 
L 169.538856 103.522564 
L 167.169935 101.370527 
L 164.953563 99.648628 
L 163.124247 98.497462 
L 161.812064 97.903633 
L 160.9705 97.736091 
L 160.564 97.859606 
L 160.451803 98.126724 
L 160.546689 98.530978 
L 160.954663 99.193858 
L 161.866419 100.187408 
L 163.259784 101.371851 
L 165.314901 102.815016 
L 167.957899 104.381981 
L 170.946103 105.902273 
L 172.499808 106.613103 
L 172.499808 106.613103 
" style="fill:none;stroke:#808080;stroke-linecap:square;stroke-width:1.5;"/>
   </g>
   <g id="patch_33">
    <path d="M 34.5 191.903585 
L 34.5 21.322621 
" style="fill:none;stroke:#000000;stroke-linecap:square;stroke-linejoin:miter;stroke-width:0.8;"/>
   </g>
   <g id="patch_34">
    <path d="M 310.5 191.903585 
L 310.5 21.322621 
" style="fill:none;stroke:#000000;stroke-linecap:square;stroke-linejoin:miter;stroke-width:0.8;"/>
   </g>
   <g id="patch_35">
    <path d="M 34.5 191.903585 
L 310.5 191.903585 
" style="fill:none;stroke:#000000;stroke-linecap:square;stroke-linejoin:miter;stroke-width:0.8;"/>
   </g>
   <g id="patch_36">
    <path d="M 34.5 21.322621 
L 310.5 21.322621 
" style="fill:none;stroke:#000000;stroke-linecap:square;stroke-linejoin:miter;stroke-width:0.8;"/>
   </g>
   <g id="legend_1">
    <g id="patch_37">
     <path d="M 248.162589 71.134156 
L 303.5 71.134156 
Q 305.5 71.134156 305.5 69.134156 
L 305.5 28.322621 
Q 305.5 26.322621 303.5 26.322621 
L 248.162589 26.322621 
Q 246.162589 26.322621 246.162589 28.322621 
L 246.162589 69.134156 
Q 246.162589 71.134156 248.162589 71.134156 
z
" style="fill:#ffffff;opacity:0.8;stroke:#cccccc;stroke-linejoin:miter;"/>
    </g>
    <g id="line2d_28">
     <path d="M 250.162589 33.822621 
L 270.162589 33.822621 
" style="fill:none;stroke:#000000;stroke-linecap:square;stroke-width:1.5;"/>
    </g>
    <g id="line2d_29"/>
    <g id="text_13">
     <!-- $\gamma$ -->
     <defs>
      <path d="M 37.796875 11.875 
C 37.59375 16.734375 37.40625 24.390625 33.59375 33.328125 
C 31.59375 38.3125 28.203125 43.5625 20.90625 43.5625 
C 8.59375 43.5625 1.90625 27.96875 1.90625 25.390625 
C 1.90625 24.484375 2.59375 24.484375 2.90625 24.484375 
C 3.796875 24.484375 3.796875 24.6875 4.296875 25.984375 
C 6.40625 32.140625 12.796875 37 19.703125 37 
C 33.59375 37 35.59375 21.609375 35.59375 11.78125 
C 35.59375 5.5 34.90625 3.4375 34.296875 1.4375 
C 32.40625 -4.71875 29.09375 -17.03125 29.09375 -19.8125 
C 29.09375 -20.609375 29.40625 -21.5 30.203125 -21.5 
C 31.703125 -21.5 32.59375 -18.21875 33.703125 -14.25 
C 36.09375 -5.515625 36.703125 -1.140625 37.203125 2.828125 
C 37.5 5.21875 43.203125 21.625 51.09375 37.21875 
C 51.796875 38.796875 53.203125 41.484375 53.203125 41.78125 
C 53.203125 41.875 53.09375 42.578125 52.203125 42.578125 
C 52 42.578125 51.5 42.578125 51.296875 42.171875 
C 51.09375 41.984375 47.59375 35.21875 44.59375 28.46875 
C 43.09375 25.09375 41.09375 20.625 37.796875 11.875 
z
" id="CMMI12-13"/>
     </defs>
     <g transform="translate(278.162589 37.322621)scale(0.1 -0.1)">
      <use transform="scale(0.996264)" xlink:href="#CMMI12-13"/>
     </g>
    </g>
    <g id="line2d_30">
     <path d="M 250.162589 47.759799 
L 270.162589 47.759799 
" style="fill:none;stroke:#000000;stroke-dasharray:7.5,1.5;stroke-dashoffset:0;stroke-width:1.5;"/>
    </g>
    <g id="line2d_31"/>
    <g id="text_14">
     <!-- $\mu$ -->
     <defs>
      <path d="M 14.40625 2.1875 
C 16.90625 -0.09375 20.59375 -1 24 -1 
C 30.40625 -1 34.796875 3.25 37.09375 6.328125 
C 38.09375 1.078125 42.296875 -1 45.796875 -1 
C 48.796875 -1 51.203125 0.78125 53 4.328125 
C 54.59375 7.703125 56 13.734375 56 14.109375 
C 56 14.609375 55.59375 15 55 15 
C 54.09375 15 54 14.5 53.59375 13.03125 
C 52.09375 7.203125 50.203125 1 46.09375 1 
C 43.203125 1 43 3.578125 43 5.59375 
C 43 7.875 43.90625 11.484375 44.59375 14.46875 
L 47.40625 25.234375 
C 47.796875 27.140625 48.90625 31.609375 49.40625 33.421875 
C 50 35.8125 51.09375 40.109375 51.09375 40.5 
C 51.09375 42 49.90625 43 48.40625 43 
C 47.5 43 45.40625 42.59375 44.59375 39.609375 
L 37.59375 11.875 
C 37.09375 9.875 37.09375 9.671875 35.796875 8.078125 
C 34.59375 6.390625 30.703125 1 24.40625 1 
C 18.796875 1 17 5.09375 17 9.765625 
C 17 12.671875 17.90625 16.15625 18.296875 17.859375 
L 22.796875 35.828125 
C 23.296875 37.71875 24.09375 40.90625 24.09375 41.515625 
C 24.09375 43.109375 22.796875 44 21.5 44 
C 20.59375 44 18.40625 43.703125 17.59375 40.5 
L 3.09375 -17.296875 
C 3 -17.796875 2.796875 -18.390625 2.796875 -19 
C 2.796875 -20.5 4 -21.5 5.5 -21.5 
C 8.40625 -21.5 9 -19.1875 9.703125 -16.40625 
z
" id="CMMI12-22"/>
     </defs>
     <g transform="translate(278.162589 51.259799)scale(0.1 -0.1)">
      <use transform="scale(0.996264)" xlink:href="#CMMI12-22"/>
     </g>
    </g>
    <g id="line2d_32">
     <path d="M 250.162589 61.696977 
L 270.162589 61.696977 
" style="fill:none;stroke:#808080;stroke-linecap:square;stroke-width:1.5;"/>
    </g>
    <g id="line2d_33"/>
    <g id="text_15">
     <!-- $\mu - \gamma$ -->
     <g transform="translate(278.162589 65.196977)scale(0.1 -0.1)">
      <use transform="scale(0.996264)" xlink:href="#CMMI12-22"/>
      <use transform="translate(80.830628 0)scale(0.996264)" xlink:href="#CMSY10-0"/>
      <use transform="translate(180.457303 0)scale(0.996264)" xlink:href="#CMMI12-13"/>
     </g>
    </g>
   </g>
  </g>
 </g>
 <defs>
  <clipPath id="pa4361a27c4">
   <rect height="170.580964" width="276" x="34.5" y="21.322621"/>
  </clipPath>
 </defs>
</svg>
