<?xml version="1.0" encoding="utf-8" standalone="no"?>
<!DOCTYPE svg PUBLIC "-//W3C//DTD SVG 1.1//EN"
  "http://www.w3.org/Graphics/SVG/1.1/DTD/svg11.dtd">
<!-- Created with matplotlib (http://matplotlib.org/) -->
<svg height="198pt" version="1.1" viewBox="0 0 309 198" width="309pt" xmlns="http://www.w3.org/2000/svg" xmlns:xlink="http://www.w3.org/1999/xlink">
 <defs>
  <style type="text/css">
*{stroke-linecap:butt;stroke-linejoin:round;stroke-miterlimit:100000;}
  </style>
 </defs>
 <g id="figure_1">
  <g id="patch_1">
   <path d="M 0 198.943604 
L 309.344006 198.943604 
L 309.344006 0 
L 0 0 
z
" style="fill:#ffffff;"/>
  </g>
  <g id="axes_1">
   <g id="patch_2">
    <path d="M 26.144006 177.780964 
L 302.144006 177.780964 
L 302.144006 7.2 
L 26.144006 7.2 
z
" style="fill:#ffffff;"/>
   </g>
   <g id="patch_3">
    <path clip-path="url(#p78683f1458)" d="M 119.775879 136.858609 
L 117.765563 140.879241 
L 116.810662 139.924341 
L 93.118862 163.616142 
L 93.018346 163.515626 
L 116.710147 139.823825 
L 115.755247 138.868925 
z
" style="stroke:#000000;stroke-linejoin:miter;"/>
   </g>
   <g id="patch_4">
    <path clip-path="url(#p78683f1458)" d="M 113.744931 89.475008 
L 117.765563 91.485324 
L 116.810662 92.440224 
L 140.502463 116.132025 
L 140.401947 116.232541 
L 116.710147 92.54074 
L 115.755247 93.49564 
z
" style="stroke:#000000;stroke-linejoin:miter;"/>
   </g>
   <g id="patch_5">
    <path clip-path="url(#p78683f1458)" d="M 119.775879 42.091407 
L 117.765563 46.112039 
L 116.810662 45.157139 
L 93.118862 68.848939 
L 93.018346 68.748424 
L 116.710147 45.056623 
L 115.755247 44.101723 
z
" style="stroke:#000000;stroke-linejoin:miter;"/>
   </g>
   <g id="patch_6">
    <path clip-path="url(#p78683f1458)" d="M 167.15948 48.122355 
L 163.138848 46.112039 
L 164.093748 45.157139 
L 140.401947 21.465338 
L 140.502463 21.364822 
L 164.194264 45.056623 
L 165.149164 44.101723 
z
" style="stroke:#000000;stroke-linejoin:miter;"/>
   </g>
   <g id="patch_7">
    <path clip-path="url(#p78683f1458)" d="M 161.128532 95.505956 
L 163.138848 91.485324 
L 164.093748 92.440224 
L 187.785548 68.748424 
L 187.886064 68.848939 
L 164.194264 92.54074 
L 165.149164 93.49564 
z
" style="stroke:#000000;stroke-linejoin:miter;"/>
   </g>
   <g id="patch_8">
    <path clip-path="url(#p78683f1458)" d="M 167.15948 142.889557 
L 163.138848 140.879241 
L 164.093748 139.924341 
L 140.401947 116.232541 
L 140.502463 116.132025 
L 164.194264 139.823825 
L 165.149164 138.868925 
z
" style="stroke:#000000;stroke-linejoin:miter;"/>
   </g>
   <g id="patch_9">
    <path clip-path="url(#p78683f1458)" d="M 214.543081 136.858609 
L 212.532765 140.879241 
L 211.577865 139.924341 
L 187.886064 163.616142 
L 187.785548 163.515626 
L 211.477349 139.823825 
L 210.522449 138.868925 
z
" style="stroke:#000000;stroke-linejoin:miter;"/>
   </g>
   <g id="patch_10">
    <path clip-path="url(#p78683f1458)" d="M 208.512133 89.475008 
L 212.532765 91.485324 
L 211.577865 92.440224 
L 235.269665 116.132025 
L 235.16915 116.232541 
L 211.477349 92.54074 
L 210.522449 93.49564 
z
" style="stroke:#000000;stroke-linejoin:miter;"/>
   </g>
   <g id="patch_11">
    <path clip-path="url(#p78683f1458)" d="M 214.543081 42.091407 
L 212.532765 46.112039 
L 211.577865 45.157139 
L 187.886064 68.848939 
L 187.785548 68.748424 
L 211.477349 45.056623 
L 210.522449 44.101723 
z
" style="stroke:#000000;stroke-linejoin:miter;"/>
   </g>
   <g id="line2d_1">
    <path clip-path="url(#p78683f1458)" d="M 93.068604 163.565884 
L 140.452205 116.182283 
" style="fill:none;stroke:#000000;stroke-linecap:square;"/>
    <defs>
     <path d="M 0 1.5 
C 0.397805 1.5 0.77937 1.341951 1.06066 1.06066 
C 1.341951 0.77937 1.5 0.397805 1.5 0 
C 1.5 -0.397805 1.341951 -0.77937 1.06066 -1.06066 
C 0.77937 -1.341951 0.397805 -1.5 0 -1.5 
C -0.397805 -1.5 -0.77937 -1.341951 -1.06066 -1.06066 
C -1.341951 -0.77937 -1.5 -0.397805 -1.5 0 
C -1.5 0.397805 -1.341951 0.77937 -1.06066 1.06066 
C -0.77937 1.341951 -0.397805 1.5 0 1.5 
z
" id="mcd1ce55b02" style="stroke:#000000;"/>
    </defs>
    <g clip-path="url(#p78683f1458)">
     <use style="stroke:#000000;" x="93.0686040243" xlink:href="#mcd1ce55b02" y="163.565883807"/>
     <use style="stroke:#000000;" x="140.452205178" xlink:href="#mcd1ce55b02" y="116.182282653"/>
    </g>
   </g>
   <g id="line2d_2">
    <path clip-path="url(#p78683f1458)" d="M 140.452205 116.182283 
L 93.068604 68.798681 
" style="fill:none;stroke:#000000;stroke-linecap:square;"/>
    <g clip-path="url(#p78683f1458)">
     <use style="stroke:#000000;" x="140.452205178" xlink:href="#mcd1ce55b02" y="116.182282653"/>
     <use style="stroke:#000000;" x="93.0686040243" xlink:href="#mcd1ce55b02" y="68.7986814998"/>
    </g>
   </g>
   <g id="line2d_3">
    <path clip-path="url(#p78683f1458)" d="M 93.068604 68.798681 
L 140.452205 21.41508 
" style="fill:none;stroke:#000000;stroke-linecap:square;"/>
    <g clip-path="url(#p78683f1458)">
     <use style="stroke:#000000;" x="93.0686040243" xlink:href="#mcd1ce55b02" y="68.7986814998"/>
     <use style="stroke:#000000;" x="140.452205178" xlink:href="#mcd1ce55b02" y="21.4150803461"/>
    </g>
   </g>
   <g id="line2d_4">
    <path clip-path="url(#p78683f1458)" d="M 140.452205 21.41508 
L 187.835806 68.798681 
" style="fill:none;stroke:#000000;stroke-linecap:square;"/>
    <g clip-path="url(#p78683f1458)">
     <use style="stroke:#000000;" x="140.452205178" xlink:href="#mcd1ce55b02" y="21.4150803461"/>
     <use style="stroke:#000000;" x="187.835806332" xlink:href="#mcd1ce55b02" y="68.7986814998"/>
    </g>
   </g>
   <g id="line2d_5">
    <path clip-path="url(#p78683f1458)" d="M 187.835806 68.798681 
L 140.452205 116.182283 
" style="fill:none;stroke:#000000;stroke-linecap:square;"/>
    <g clip-path="url(#p78683f1458)">
     <use style="stroke:#000000;" x="187.835806332" xlink:href="#mcd1ce55b02" y="68.7986814998"/>
     <use style="stroke:#000000;" x="140.452205178" xlink:href="#mcd1ce55b02" y="116.182282653"/>
    </g>
   </g>
   <g id="line2d_6">
    <path clip-path="url(#p78683f1458)" d="M 140.452205 116.182283 
L 187.835806 163.565884 
" style="fill:none;stroke:#000000;stroke-linecap:square;"/>
    <g clip-path="url(#p78683f1458)">
     <use style="stroke:#000000;" x="140.452205178" xlink:href="#mcd1ce55b02" y="116.182282653"/>
     <use style="stroke:#000000;" x="187.835806332" xlink:href="#mcd1ce55b02" y="163.565883807"/>
    </g>
   </g>
   <g id="line2d_7">
    <path clip-path="url(#p78683f1458)" d="M 187.835806 163.565884 
L 235.219407 116.182283 
" style="fill:none;stroke:#000000;stroke-linecap:square;"/>
    <g clip-path="url(#p78683f1458)">
     <use style="stroke:#000000;" x="187.835806332" xlink:href="#mcd1ce55b02" y="163.565883807"/>
     <use style="stroke:#000000;" x="235.219407485" xlink:href="#mcd1ce55b02" y="116.182282653"/>
    </g>
   </g>
   <g id="line2d_8">
    <path clip-path="url(#p78683f1458)" d="M 235.219407 116.182283 
L 187.835806 68.798681 
" style="fill:none;stroke:#000000;stroke-linecap:square;"/>
    <g clip-path="url(#p78683f1458)">
     <use style="stroke:#000000;" x="235.219407485" xlink:href="#mcd1ce55b02" y="116.182282653"/>
     <use style="stroke:#000000;" x="187.835806332" xlink:href="#mcd1ce55b02" y="68.7986814998"/>
    </g>
   </g>
   <g id="line2d_9">
    <path clip-path="url(#p78683f1458)" d="M 187.835806 68.798681 
L 235.219407 21.41508 
" style="fill:none;stroke:#000000;stroke-linecap:square;"/>
    <g clip-path="url(#p78683f1458)">
     <use style="stroke:#000000;" x="187.835806332" xlink:href="#mcd1ce55b02" y="68.7986814998"/>
     <use style="stroke:#000000;" x="235.219407485" xlink:href="#mcd1ce55b02" y="21.4150803461"/>
    </g>
   </g>
   <g id="patch_12">
    <path d="M 26.144006 7.2 
L 302.144006 7.2 
" style="fill:none;stroke:#000000;stroke-linecap:square;stroke-linejoin:miter;"/>
   </g>
   <g id="patch_13">
    <path d="M 302.144006 177.780964 
L 302.144006 7.2 
" style="fill:none;stroke:#000000;stroke-linecap:square;stroke-linejoin:miter;"/>
   </g>
   <g id="patch_14">
    <path d="M 26.144006 177.780964 
L 302.144006 177.780964 
" style="fill:none;stroke:#000000;stroke-linecap:square;stroke-linejoin:miter;"/>
   </g>
   <g id="patch_15">
    <path d="M 26.144006 177.780964 
L 26.144006 7.2 
" style="fill:none;stroke:#000000;stroke-linecap:square;stroke-linejoin:miter;"/>
   </g>
   <g id="matplotlib.axis_1">
    <g id="xtick_1">
     <g id="line2d_10">
      <path clip-path="url(#p78683f1458)" d="M 93.068604 177.780964 
L 93.068604 7.2 
" style="fill:none;stroke:#000000;stroke-dasharray:1.000000,3.000000;stroke-dashoffset:0.0;stroke-width:0.5;"/>
     </g>
     <g id="line2d_11">
      <defs>
       <path d="M 0 0 
L 0 -4 
" id="m1a09549b1e" style="stroke:#000000;stroke-width:0.5;"/>
      </defs>
      <g>
       <use style="stroke:#000000;stroke-width:0.5;" x="93.0686040243" xlink:href="#m1a09549b1e" y="177.780964153"/>
      </g>
     </g>
     <g id="line2d_12">
      <defs>
       <path d="M 0 0 
L 0 4 
" id="me180a2a95e" style="stroke:#000000;stroke-width:0.5;"/>
      </defs>
      <g>
       <use style="stroke:#000000;stroke-width:0.5;" x="93.0686040243" xlink:href="#me180a2a95e" y="7.2"/>
      </g>
     </g>
     <g id="text_1">
      <!-- 0 -->
      <defs>
       <path d="M 42 31.640625 
C 42 37.75 41.90625 48.125 37.703125 56.109375 
C 34 63.109375 28.09375 65.59375 22.90625 65.59375 
C 18.09375 65.59375 12 63.40625 8.203125 56.203125 
C 4.203125 48.71875 3.796875 39.4375 3.796875 31.640625 
C 3.796875 25.953125 3.90625 17.28125 7 9.671875 
C 11.296875 -0.609375 19 -2 22.90625 -2 
C 27.5 -2 34.5 -0.109375 38.59375 9.375 
C 41.59375 16.28125 42 24.359375 42 31.640625 
M 22.90625 -0.40625 
C 16.5 -0.40625 12.703125 5.078125 11.296875 12.6875 
C 10.203125 18.5625 10.203125 27.15625 10.203125 32.75 
C 10.203125 40.4375 10.203125 46.828125 11.5 52.921875 
C 13.40625 61.390625 19 64 22.90625 64 
C 27 64 32.296875 61.296875 34.203125 53.125 
C 35.5 47.4375 35.59375 40.734375 35.59375 32.75 
C 35.59375 26.25 35.59375 18.265625 34.40625 12.375 
C 32.296875 1.484375 26.40625 -0.40625 22.90625 -0.40625 
" id="CMR17-48"/>
      </defs>
      <g transform="translate(90.5779363985 188.699462533)scale(0.1 -0.1)">
       <use transform="scale(0.996264009963)" xlink:href="#CMR17-48"/>
      </g>
     </g>
    </g>
    <g id="xtick_2">
     <g id="line2d_13">
      <path clip-path="url(#p78683f1458)" d="M 140.452205 177.780964 
L 140.452205 7.2 
" style="fill:none;stroke:#000000;stroke-dasharray:1.000000,3.000000;stroke-dashoffset:0.0;stroke-width:0.5;"/>
     </g>
     <g id="line2d_14">
      <g>
       <use style="stroke:#000000;stroke-width:0.5;" x="140.452205178" xlink:href="#m1a09549b1e" y="177.780964153"/>
      </g>
     </g>
     <g id="line2d_15">
      <g>
       <use style="stroke:#000000;stroke-width:0.5;" x="140.452205178" xlink:href="#me180a2a95e" y="7.2"/>
      </g>
     </g>
     <g id="text_2">
      <!-- 1/3 -->
      <defs>
       <path d="M 22.09375 33.703125 
C 31 33.703125 34.90625 25.96875 34.90625 17.03125 
C 34.90625 5 28.5 0.390625 22.703125 0.390625 
C 17.40625 0.390625 8.796875 3.03125 6.09375 10.828125 
C 6.59375 10.625 7.09375 10.625 7.59375 10.625 
C 10 10.625 11.796875 12.21875 11.796875 14.8125 
C 11.796875 17.703125 9.59375 19 7.59375 19 
C 5.90625 19 3.296875 18.203125 3.296875 14.46875 
C 3.296875 5.234375 12.296875 -2 22.90625 -2 
C 34 -2 42.5 6.71875 42.5 16.953125 
C 42.5 26.671875 34.5 33.703125 25 34.796875 
C 32.59375 36.375 39.90625 43.0625 39.90625 52.015625 
C 39.90625 59.6875 32 65.296875 23 65.296875 
C 13.90625 65.296875 5.90625 59.828125 5.90625 52.015625 
C 5.90625 48.59375 8.5 48 9.796875 48 
C 11.90625 48 13.703125 49.296875 13.703125 51.890625 
C 13.703125 54.46875 11.90625 55.765625 9.796875 55.765625 
C 9.40625 55.765625 8.90625 55.765625 8.5 55.578125 
C 11.40625 61.859375 19.296875 63 22.796875 63 
C 26.296875 63 32.90625 61.328125 32.90625 51.875 
C 32.90625 49.109375 32.5 44.1875 29.09375 39.84375 
C 26.09375 36 22.703125 36 19.40625 35.6875 
C 18.90625 35.6875 16.59375 35.453125 16.203125 35.453125 
C 15.5 35.359375 15.09375 35.265625 15.09375 34.5 
C 15.09375 33.796875 15.203125 33.703125 17.203125 33.703125 
z
" id="CMR17-51"/>
       <path d="M 26.59375 63.40625 
C 26.59375 65.5 26.5 65.5 25.09375 65.5 
C 21.203125 61.1875 15.296875 59.796875 9.703125 59.796875 
C 9.40625 59.796875 8.90625 59.796875 8.796875 59.5 
C 8.703125 59.296875 8.703125 59.09375 8.703125 57 
C 11.796875 57 17 57.59375 21 59.984375 
L 21 7.203125 
C 21 3.6875 20.796875 2.5 12.203125 2.5 
L 9.203125 2.5 
L 9.203125 0 
C 14 0 19 0 23.796875 0 
C 28.59375 0 33.59375 0 38.40625 0 
L 38.40625 2.5 
L 35.40625 2.5 
C 26.796875 2.5 26.59375 3.59375 26.59375 7.15625 
z
" id="CMR17-49"/>
       <path d="M 40.703125 71.015625 
C 41.203125 72.296875 41.203125 72.5 41.203125 72.703125 
C 41.203125 73.890625 40.296875 74.5 39.5 74.5 
C 38.296875 74.5 37.90625 73.703125 37.5 72.5 
L 5.09375 -21.515625 
C 4.59375 -22.8125 4.59375 -23.015625 4.59375 -23.21875 
C 4.59375 -24.40625 5.5 -25 6.296875 -25 
C 7.5 -25 7.90625 -24.203125 8.296875 -23.015625 
z
" id="CMR17-47"/>
      </defs>
      <g transform="translate(132.980202301 189.252944228)scale(0.1 -0.1)">
       <use transform="scale(0.996264009963)" xlink:href="#CMR17-49"/>
       <use transform="translate(45.6904771171 0.0)scale(0.996264009963)" xlink:href="#CMR17-47"/>
       <use transform="translate(91.3809542341 0.0)scale(0.996264009963)" xlink:href="#CMR17-51"/>
      </g>
     </g>
    </g>
    <g id="xtick_3">
     <g id="line2d_16">
      <path clip-path="url(#p78683f1458)" d="M 187.835806 177.780964 
L 187.835806 7.2 
" style="fill:none;stroke:#000000;stroke-dasharray:1.000000,3.000000;stroke-dashoffset:0.0;stroke-width:0.5;"/>
     </g>
     <g id="line2d_17">
      <g>
       <use style="stroke:#000000;stroke-width:0.5;" x="187.835806332" xlink:href="#m1a09549b1e" y="177.780964153"/>
      </g>
     </g>
     <g id="line2d_18">
      <g>
       <use style="stroke:#000000;stroke-width:0.5;" x="187.835806332" xlink:href="#me180a2a95e" y="7.2"/>
      </g>
     </g>
     <g id="text_3">
      <!-- 2/3 -->
      <defs>
       <path d="M 41.703125 15.453125 
L 39.90625 15.453125 
C 38.90625 8.375 38.09375 7.171875 37.703125 6.5625 
C 37.203125 5.765625 30 5.765625 28.59375 5.765625 
L 9.40625 5.765625 
C 13 9.671875 20 16.75 28.5 24.953125 
C 34.59375 30.734375 41.703125 37.53125 41.703125 47.421875 
C 41.703125 59.21875 32.296875 66 21.796875 66 
C 10.796875 66 4.09375 56.3125 4.09375 47.34375 
C 4.09375 43.4375 7 42.9375 8.203125 42.9375 
C 9.203125 42.9375 12.203125 43.546875 12.203125 47.03125 
C 12.203125 50.109375 9.59375 51 8.203125 51 
C 7.59375 51 7 50.90625 6.59375 50.703125 
C 8.5 59.21875 14.296875 63.40625 20.40625 63.40625 
C 29.09375 63.40625 34.796875 56.515625 34.796875 47.421875 
C 34.796875 38.734375 29.703125 31.25 24 24.75 
L 4.09375 2.28125 
L 4.09375 0 
L 39.296875 0 
z
" id="CMR17-50"/>
      </defs>
      <g transform="translate(180.363803454 189.252944228)scale(0.1 -0.1)">
       <use transform="scale(0.996264009963)" xlink:href="#CMR17-50"/>
       <use transform="translate(45.6904771171 0.0)scale(0.996264009963)" xlink:href="#CMR17-47"/>
       <use transform="translate(91.3809542341 0.0)scale(0.996264009963)" xlink:href="#CMR17-51"/>
      </g>
     </g>
    </g>
    <g id="xtick_4">
     <g id="line2d_19">
      <path clip-path="url(#p78683f1458)" d="M 235.219407 177.780964 
L 235.219407 7.2 
" style="fill:none;stroke:#000000;stroke-dasharray:1.000000,3.000000;stroke-dashoffset:0.0;stroke-width:0.5;"/>
     </g>
     <g id="line2d_20">
      <g>
       <use style="stroke:#000000;stroke-width:0.5;" x="235.219407485" xlink:href="#m1a09549b1e" y="177.780964153"/>
      </g>
     </g>
     <g id="line2d_21">
      <g>
       <use style="stroke:#000000;stroke-width:0.5;" x="235.219407485" xlink:href="#me180a2a95e" y="7.2"/>
      </g>
     </g>
     <g id="text_4">
      <!-- 1 -->
      <g transform="translate(232.72873986 188.699462533)scale(0.1 -0.1)">
       <use transform="scale(0.996264009963)" xlink:href="#CMR17-49"/>
      </g>
     </g>
    </g>
   </g>
   <g id="matplotlib.axis_2">
    <g id="ytick_1">
     <g id="line2d_22">
      <path clip-path="url(#p78683f1458)" d="M 26.144006 163.565884 
L 302.144006 163.565884 
" style="fill:none;stroke:#000000;stroke-dasharray:1.000000,3.000000;stroke-dashoffset:0.0;stroke-width:0.5;"/>
     </g>
     <g id="line2d_23">
      <defs>
       <path d="M 0 0 
L 4 0 
" id="mba7855964b" style="stroke:#000000;stroke-width:0.5;"/>
      </defs>
      <g>
       <use style="stroke:#000000;stroke-width:0.5;" x="26.1440057548" xlink:href="#mba7855964b" y="163.565883807"/>
      </g>
     </g>
     <g id="line2d_24">
      <defs>
       <path d="M 0 0 
L -4 0 
" id="m1d335d6683" style="stroke:#000000;stroke-width:0.5;"/>
      </defs>
      <g>
       <use style="stroke:#000000;stroke-width:0.5;" x="302.144005755" xlink:href="#m1d335d6683" y="163.565883807"/>
      </g>
     </g>
     <g id="text_5">
      <!-- 0 -->
      <g transform="translate(17.1626705032 166.056543832)scale(0.1 -0.1)">
       <use transform="scale(0.996264009963)" xlink:href="#CMR17-48"/>
      </g>
     </g>
    </g>
    <g id="ytick_2">
     <g id="line2d_25">
      <path clip-path="url(#p78683f1458)" d="M 26.144006 116.182283 
L 302.144006 116.182283 
" style="fill:none;stroke:#000000;stroke-dasharray:1.000000,3.000000;stroke-dashoffset:0.0;stroke-width:0.5;"/>
     </g>
     <g id="line2d_26">
      <g>
       <use style="stroke:#000000;stroke-width:0.5;" x="26.1440057548" xlink:href="#mba7855964b" y="116.182282653"/>
      </g>
     </g>
     <g id="line2d_27">
      <g>
       <use style="stroke:#000000;stroke-width:0.5;" x="302.144005755" xlink:href="#m1d335d6683" y="116.182282653"/>
      </g>
     </g>
     <g id="text_6">
      <!-- 1/3 -->
      <g transform="translate(7.2 118.672942678)scale(0.1 -0.1)">
       <use transform="scale(0.996264009963)" xlink:href="#CMR17-49"/>
       <use transform="translate(45.6904771171 0.0)scale(0.996264009963)" xlink:href="#CMR17-47"/>
       <use transform="translate(91.3809542341 0.0)scale(0.996264009963)" xlink:href="#CMR17-51"/>
      </g>
     </g>
    </g>
    <g id="ytick_3">
     <g id="line2d_28">
      <path clip-path="url(#p78683f1458)" d="M 26.144006 68.798681 
L 302.144006 68.798681 
" style="fill:none;stroke:#000000;stroke-dasharray:1.000000,3.000000;stroke-dashoffset:0.0;stroke-width:0.5;"/>
     </g>
     <g id="line2d_29">
      <g>
       <use style="stroke:#000000;stroke-width:0.5;" x="26.1440057548" xlink:href="#mba7855964b" y="68.7986814998"/>
      </g>
     </g>
     <g id="line2d_30">
      <g>
       <use style="stroke:#000000;stroke-width:0.5;" x="302.144005755" xlink:href="#m1d335d6683" y="68.7986814998"/>
      </g>
     </g>
     <g id="text_7">
      <!-- 2/3 -->
      <g transform="translate(7.2 71.2893415247)scale(0.1 -0.1)">
       <use transform="scale(0.996264009963)" xlink:href="#CMR17-50"/>
       <use transform="translate(45.6904771171 0.0)scale(0.996264009963)" xlink:href="#CMR17-47"/>
       <use transform="translate(91.3809542341 0.0)scale(0.996264009963)" xlink:href="#CMR17-51"/>
      </g>
     </g>
    </g>
    <g id="ytick_4">
     <g id="line2d_31">
      <path clip-path="url(#p78683f1458)" d="M 26.144006 21.41508 
L 302.144006 21.41508 
" style="fill:none;stroke:#000000;stroke-dasharray:1.000000,3.000000;stroke-dashoffset:0.0;stroke-width:0.5;"/>
     </g>
     <g id="line2d_32">
      <g>
       <use style="stroke:#000000;stroke-width:0.5;" x="26.1440057548" xlink:href="#mba7855964b" y="21.4150803461"/>
      </g>
     </g>
     <g id="line2d_33">
      <g>
       <use style="stroke:#000000;stroke-width:0.5;" x="302.144005755" xlink:href="#m1d335d6683" y="21.4150803461"/>
      </g>
     </g>
     <g id="text_8">
      <!-- 1 -->
      <g transform="translate(17.1626705032 23.905740371)scale(0.1 -0.1)">
       <use transform="scale(0.996264009963)" xlink:href="#CMR17-49"/>
      </g>
     </g>
    </g>
   </g>
   <g id="text_9">
    <!-- 1 -->
    <g transform="translate(114.269736975 130.518842967)scale(0.1 -0.1)">
     <use transform="scale(0.996264009963)" xlink:href="#CMR17-49"/>
    </g>
   </g>
   <g id="text_10">
    <!-- 2 -->
    <g transform="translate(114.269736975 83.1352418131)scale(0.1 -0.1)">
     <use transform="scale(0.996264009963)" xlink:href="#CMR17-50"/>
    </g>
   </g>
   <g id="text_11">
    <!-- 3 -->
    <g transform="translate(114.269736975 35.7516406594)scale(0.1 -0.1)">
     <use transform="scale(0.996264009963)" xlink:href="#CMR17-51"/>
    </g>
   </g>
   <g id="text_12">
    <!-- 4 -->
    <defs>
     <path d="M 33.59375 64.40625 
C 33.59375 66.5 33.5 66.5 31.703125 66.5 
L 2 19.59375 
L 2 17 
L 27.796875 17 
L 27.796875 7.140625 
C 27.796875 3.5 27.59375 2.5 20.59375 2.5 
L 18.703125 2.5 
L 18.703125 0 
C 21.90625 0 27.296875 0 30.703125 0 
C 34.09375 0 39.5 0 42.703125 0 
L 42.703125 2.5 
L 40.796875 2.5 
C 33.796875 2.5 33.59375 3.5 33.59375 7.140625 
L 33.59375 17 
L 43.796875 17 
L 43.796875 19.59375 
L 33.59375 19.59375 
z
M 28.09375 57.859375 
L 28.09375 19.59375 
L 4 19.59375 
z
" id="CMR17-52"/>
    </defs>
    <g transform="translate(161.653338129 35.7516406594)scale(0.1 -0.1)">
     <use transform="scale(0.996264009963)" xlink:href="#CMR17-52"/>
    </g>
   </g>
   <g id="text_13">
    <!-- 5 -->
    <defs>
     <path d="M 11.40625 57.6875 
C 12.40625 57.28125 16.5 56 20.703125 56 
C 30 56 35.09375 61.109375 38 64.0625 
C 38 64.953125 38 65.5 37.40625 65.5 
C 37.296875 65.5 37.09375 65.5 36.296875 65.046875 
C 32.796875 63.40625 28.703125 62.078125 23.703125 62.078125 
C 20.703125 62.078125 16.203125 62.484375 11.296875 64.671875 
C 10.203125 65.171875 10 65.171875 9.90625 65.171875 
C 9.40625 65.171875 9.296875 65.0625 9.296875 63.078125 
L 9.296875 34.421875 
C 9.296875 32.640625 9.296875 32.140625 10.296875 32.140625 
C 10.796875 32.140625 11 32.34375 11.5 33.03125 
C 14.703125 37.515625 19.09375 39.40625 24.09375 39.40625 
C 27.59375 39.40625 35.09375 37.21875 35.09375 20.140625 
C 35.09375 16.953125 35.09375 11.171875 32.09375 6.578125 
C 29.59375 2.484375 25.703125 0.390625 21.40625 0.390625 
C 14.796875 0.390625 8.09375 5 6.296875 12.71875 
C 6.703125 12.609375 7.5 12.421875 7.90625 12.421875 
C 9.203125 12.421875 11.703125 13.125 11.703125 16.21875 
C 11.703125 18.90625 9.796875 20 7.90625 20 
C 5.59375 20 4.09375 18.59375 4.09375 15.796875 
C 4.09375 7.09375 11 -2 21.59375 -2 
C 31.90625 -2 41.703125 6.875 41.703125 19.75 
C 41.703125 31.71875 33.90625 41 24.203125 41 
C 19.09375 41 14.796875 39.109375 11.40625 35.53125 
z
" id="CMR17-53"/>
    </defs>
    <g transform="translate(161.653338129 83.1352418131)scale(0.1 -0.1)">
     <use transform="scale(0.996264009963)" xlink:href="#CMR17-53"/>
    </g>
   </g>
   <g id="text_14">
    <!-- 6 -->
    <defs>
     <path d="M 10.59375 34 
C 10.59375 57.65625 21.796875 63 28.296875 63 
C 30.40625 63 35.5 62.640625 37.5 59 
C 35.90625 59 32.90625 59 32.90625 55.515625 
C 32.90625 52.828125 35.09375 51.921875 36.5 51.921875 
C 37.40625 51.921875 40.09375 52.3125 40.09375 55.625 
C 40.09375 61.78125 35.09375 65.296875 28.203125 65.296875 
C 16.296875 65.296875 3.796875 52.96875 3.796875 31 
C 3.796875 3.953125 15.09375 -2 23.09375 -2 
C 32.796875 -2 42 6.671875 42 20.046875 
C 42 32.515625 33.90625 41.59375 23.703125 41.59375 
C 17.59375 41.59375 13.09375 37.609375 10.59375 30.625 
z
M 23.09375 0.390625 
C 10.796875 0.390625 10.796875 18.75 10.796875 22.4375 
C 10.796875 29.625 14.203125 40 23.5 40 
C 25.203125 40 30.09375 40 33.40625 33.125 
C 35.203125 29.21875 35.203125 25.140625 35.203125 20.140625 
C 35.203125 14.75 35.203125 10.78125 33.09375 6.78125 
C 30.90625 2.671875 27.703125 0.390625 23.09375 0.390625 
" id="CMR17-54"/>
    </defs>
    <g transform="translate(161.653338129 130.518842967)scale(0.1 -0.1)">
     <use transform="scale(0.996264009963)" xlink:href="#CMR17-54"/>
    </g>
   </g>
   <g id="text_15">
    <!-- 7 -->
    <defs>
     <path d="M 45.09375 61.578125 
L 45.09375 63.765625 
L 21.59375 63.765625 
C 9.90625 63.765625 9.703125 65.078125 9.296875 67 
L 7.5 67 
L 4.59375 48.34375 
L 6.40625 48.34375 
C 6.703125 50.234375 7.40625 55.3125 8.59375 57.203125 
C 9.203125 58 16.59375 58 18.296875 58 
L 40.296875 58 
L 29.203125 41.578125 
C 21.796875 30.53125 16.703125 15.609375 16.703125 2.578125 
C 16.703125 1.390625 16.703125 -2 20.296875 -2 
C 23.90625 -2 23.90625 1.390625 23.90625 2.671875 
L 23.90625 7.265625 
C 23.90625 23.5625 26.703125 34.3125 31.296875 41.1875 
z
" id="CMR17-55"/>
    </defs>
    <g transform="translate(209.036939283 130.518842967)scale(0.1 -0.1)">
     <use transform="scale(0.996264009963)" xlink:href="#CMR17-55"/>
    </g>
   </g>
   <g id="text_16">
    <!-- 8 -->
    <defs>
     <path d="M 27.203125 35.375 
C 33.5 38.546875 39.90625 43.328125 39.90625 50.984375 
C 39.90625 60.015625 31.09375 65.296875 23 65.296875 
C 13.90625 65.296875 5.90625 58.734375 5.90625 49.6875 
C 5.90625 47.203125 6.5 42.921875 10.40625 39.140625 
C 11.40625 38.15625 15.59375 35.171875 18.296875 33.28125 
C 13.796875 30.984375 3.296875 25.53125 3.296875 14.59375 
C 3.296875 4.359375 13.09375 -2 22.796875 -2 
C 33.5 -2 42.5 5.65625 42.5 15.78125 
C 42.5 24.84375 36.40625 29.015625 32.40625 31.703125 
z
M 14.09375 44.09375 
C 13.296875 44.59375 9.296875 47.671875 9.296875 52.359375 
C 9.296875 58.421875 15.59375 63 22.796875 63 
C 30.703125 63 36.5 57.4375 36.5 50.96875 
C 36.5 41.703125 26.09375 36.421875 25.59375 36.421875 
C 25.5 36.421875 25.40625 36.421875 24.59375 37.03125 
z
M 32.5 23.734375 
C 34 22.640625 38.796875 19.375 38.796875 13.296875 
C 38.796875 5.953125 31.40625 0.390625 23 0.390625 
C 13.90625 0.390625 7 6.84375 7 14.6875 
C 7 22.546875 13.09375 29.09375 20 32.1875 
z
" id="CMR17-56"/>
    </defs>
    <g transform="translate(209.036939283 83.1352418131)scale(0.1 -0.1)">
     <use transform="scale(0.996264009963)" xlink:href="#CMR17-56"/>
    </g>
   </g>
   <g id="text_17">
    <!-- 9 -->
    <defs>
     <path d="M 35.203125 29.125 
C 35.203125 7.25 26.09375 0.484375 18.59375 0.484375 
C 16.296875 0.484375 10.703125 0.484375 8.40625 4.59375 
C 11 4.1875 12.90625 5.578125 12.90625 8.09375 
C 12.90625 10.8125 10.703125 11.703125 9.296875 11.703125 
C 8.40625 11.703125 5.703125 11.296875 5.703125 7.90625 
C 5.703125 1.109375 11.59375 -2 18.796875 -2 
C 30.296875 -2 42 10.53125 42 32.390625 
C 42 59.640625 30.796875 65.296875 23.203125 65.296875 
C 13.296875 65.296875 3.796875 56.6875 3.796875 43.40625 
C 3.796875 31.109375 11.90625 22 22.09375 22 
C 30.5 22 34.203125 29.734375 35.203125 33 
z
M 22.296875 23.59375 
C 19.59375 23.59375 15.796875 24.09375 12.703125 30.03125 
C 10.59375 33.890625 10.59375 38.453125 10.59375 43.296875 
C 10.59375 49.15625 10.59375 53.203125 13.40625 57.5625 
C 14.796875 59.640625 17.40625 63 23.203125 63 
C 35 63 35 45.078125 35 41.125 
C 35 34.09375 31.796875 23.59375 22.296875 23.59375 
" id="CMR17-57"/>
    </defs>
    <g transform="translate(209.036939283 35.7516406594)scale(0.1 -0.1)">
     <use transform="scale(0.996264009963)" xlink:href="#CMR17-57"/>
    </g>
   </g>
  </g>
 </g>
 <defs>
  <clipPath id="p78683f1458">
   <rect height="170.580964153" width="276.0" x="26.1440057548" y="7.2"/>
  </clipPath>
 </defs>
</svg>
