<?xml version="1.0" encoding="utf-8" standalone="no"?>
<!DOCTYPE svg PUBLIC "-//W3C//DTD SVG 1.1//EN"
  "http://www.w3.org/Graphics/SVG/1.1/DTD/svg11.dtd">
<!-- Created with matplotlib (http://matplotlib.org/) -->
<svg height="432pt" version="1.1" viewBox="0 0 576 432" width="576pt" xmlns="http://www.w3.org/2000/svg" xmlns:xlink="http://www.w3.org/1999/xlink">
 <defs>
  <style type="text/css">
*{stroke-linecap:butt;stroke-linejoin:round;stroke-miterlimit:100000;}
  </style>
 </defs>
 <g id="figure_1">
  <g id="patch_1">
   <path d="M 0 432 
L 576 432 
L 576 0 
L 0 0 
z
" style="fill:#ffffff;"/>
  </g>
  <g id="axes_1">
   <g id="patch_2">
    <path d="M 72 388.8 
L 518.4 388.8 
L 518.4 43.2 
L 72 43.2 
z
" style="fill:#ffffff;"/>
   </g>
   <g id="line2d_1">
    <defs>
     <path d="M 0 0.1875 
C 0.049726 0.1875 0.097421 0.167744 0.132583 0.132583 
C 0.167744 0.097421 0.1875 0.049726 0.1875 0 
C 0.1875 -0.049726 0.167744 -0.097421 0.132583 -0.132583 
C 0.097421 -0.167744 0.049726 -0.1875 0 -0.1875 
C -0.049726 -0.1875 -0.097421 -0.167744 -0.132583 -0.132583 
C -0.167744 -0.097421 -0.1875 -0.049726 -0.1875 0 
C -0.1875 0.049726 -0.167744 0.097421 -0.132583 0.132583 
C -0.097421 0.167744 -0.049726 0.1875 0 0.1875 
z
" id="m6fdf9ce6bf" style="stroke:#000000;stroke-width:0.5;"/>
    </defs>
    <g clip-path="url(#p7bb1a34803)">
     <use style="stroke:#000000;stroke-width:0.5;" x="78.7893536122" xlink:href="#m6fdf9ce6bf" y="216.0"/>
     <use style="stroke:#000000;stroke-width:0.5;" x="80.4866920152" xlink:href="#m6fdf9ce6bf" y="215.85"/>
     <use style="stroke:#000000;stroke-width:0.5;" x="82.1840304183" xlink:href="#m6fdf9ce6bf" y="215.7"/>
     <use style="stroke:#000000;stroke-width:0.5;" x="83.8813688213" xlink:href="#m6fdf9ce6bf" y="215.55"/>
     <use style="stroke:#000000;stroke-width:0.5;" x="85.5787072243" xlink:href="#m6fdf9ce6bf" y="215.4"/>
     <use style="stroke:#000000;stroke-width:0.5;" x="87.2760456274" xlink:href="#m6fdf9ce6bf" y="215.25"/>
     <use style="stroke:#000000;stroke-width:0.5;" x="88.9733840304" xlink:href="#m6fdf9ce6bf" y="215.1"/>
     <use style="stroke:#000000;stroke-width:0.5;" x="90.6707224335" xlink:href="#m6fdf9ce6bf" y="214.95"/>
     <use style="stroke:#000000;stroke-width:0.5;" x="92.3680608365" xlink:href="#m6fdf9ce6bf" y="214.8"/>
     <use style="stroke:#000000;stroke-width:0.5;" x="94.0653992395" xlink:href="#m6fdf9ce6bf" y="214.65"/>
     <use style="stroke:#000000;stroke-width:0.5;" x="95.7627376426" xlink:href="#m6fdf9ce6bf" y="214.5"/>
     <use style="stroke:#000000;stroke-width:0.5;" x="97.4600760456" xlink:href="#m6fdf9ce6bf" y="214.35"/>
     <use style="stroke:#000000;stroke-width:0.5;" x="99.1574144487" xlink:href="#m6fdf9ce6bf" y="214.2"/>
     <use style="stroke:#000000;stroke-width:0.5;" x="100.854752852" xlink:href="#m6fdf9ce6bf" y="214.05"/>
     <use style="stroke:#000000;stroke-width:0.5;" x="102.552091255" xlink:href="#m6fdf9ce6bf" y="213.9"/>
     <use style="stroke:#000000;stroke-width:0.5;" x="104.249429658" xlink:href="#m6fdf9ce6bf" y="213.75"/>
     <use style="stroke:#000000;stroke-width:0.5;" x="105.946768061" xlink:href="#m6fdf9ce6bf" y="213.6"/>
     <use style="stroke:#000000;stroke-width:0.5;" x="107.644106464" xlink:href="#m6fdf9ce6bf" y="213.45"/>
     <use style="stroke:#000000;stroke-width:0.5;" x="109.341444867" xlink:href="#m6fdf9ce6bf" y="213.3"/>
     <use style="stroke:#000000;stroke-width:0.5;" x="111.03878327" xlink:href="#m6fdf9ce6bf" y="213.15"/>
     <use style="stroke:#000000;stroke-width:0.5;" x="112.736121673" xlink:href="#m6fdf9ce6bf" y="213.0"/>
     <use style="stroke:#000000;stroke-width:0.5;" x="114.433460076" xlink:href="#m6fdf9ce6bf" y="212.85"/>
     <use style="stroke:#000000;stroke-width:0.5;" x="116.130798479" xlink:href="#m6fdf9ce6bf" y="212.7"/>
     <use style="stroke:#000000;stroke-width:0.5;" x="117.828136882" xlink:href="#m6fdf9ce6bf" y="212.55"/>
     <use style="stroke:#000000;stroke-width:0.5;" x="119.525475285" xlink:href="#m6fdf9ce6bf" y="212.4"/>
     <use style="stroke:#000000;stroke-width:0.5;" x="121.222813688" xlink:href="#m6fdf9ce6bf" y="212.25"/>
     <use style="stroke:#000000;stroke-width:0.5;" x="122.920152091" xlink:href="#m6fdf9ce6bf" y="212.1"/>
     <use style="stroke:#000000;stroke-width:0.5;" x="124.617490494" xlink:href="#m6fdf9ce6bf" y="211.95"/>
     <use style="stroke:#000000;stroke-width:0.5;" x="126.314828897" xlink:href="#m6fdf9ce6bf" y="211.8"/>
     <use style="stroke:#000000;stroke-width:0.5;" x="128.0121673" xlink:href="#m6fdf9ce6bf" y="211.65"/>
     <use style="stroke:#000000;stroke-width:0.5;" x="129.709505703" xlink:href="#m6fdf9ce6bf" y="211.5"/>
     <use style="stroke:#000000;stroke-width:0.5;" x="131.406844106" xlink:href="#m6fdf9ce6bf" y="211.35"/>
     <use style="stroke:#000000;stroke-width:0.5;" x="133.10418251" xlink:href="#m6fdf9ce6bf" y="211.2"/>
     <use style="stroke:#000000;stroke-width:0.5;" x="134.801520913" xlink:href="#m6fdf9ce6bf" y="210.9"/>
     <use style="stroke:#000000;stroke-width:0.5;" x="136.498859316" xlink:href="#m6fdf9ce6bf" y="210.6"/>
     <use style="stroke:#000000;stroke-width:0.5;" x="138.196197719" xlink:href="#m6fdf9ce6bf" y="210.3"/>
     <use style="stroke:#000000;stroke-width:0.5;" x="139.893536122" xlink:href="#m6fdf9ce6bf" y="210.0"/>
     <use style="stroke:#000000;stroke-width:0.5;" x="141.590874525" xlink:href="#m6fdf9ce6bf" y="209.7"/>
     <use style="stroke:#000000;stroke-width:0.5;" x="143.288212928" xlink:href="#m6fdf9ce6bf" y="209.4"/>
     <use style="stroke:#000000;stroke-width:0.5;" x="144.985551331" xlink:href="#m6fdf9ce6bf" y="209.1"/>
     <use style="stroke:#000000;stroke-width:0.5;" x="146.682889734" xlink:href="#m6fdf9ce6bf" y="208.8"/>
     <use style="stroke:#000000;stroke-width:0.5;" x="148.380228137" xlink:href="#m6fdf9ce6bf" y="208.5"/>
     <use style="stroke:#000000;stroke-width:0.5;" x="150.07756654" xlink:href="#m6fdf9ce6bf" y="208.2"/>
     <use style="stroke:#000000;stroke-width:0.5;" x="151.774904943" xlink:href="#m6fdf9ce6bf" y="207.9"/>
     <use style="stroke:#000000;stroke-width:0.5;" x="153.472243346" xlink:href="#m6fdf9ce6bf" y="207.6"/>
     <use style="stroke:#000000;stroke-width:0.5;" x="155.169581749" xlink:href="#m6fdf9ce6bf" y="207.3"/>
     <use style="stroke:#000000;stroke-width:0.5;" x="156.866920152" xlink:href="#m6fdf9ce6bf" y="207.0"/>
     <use style="stroke:#000000;stroke-width:0.5;" x="158.564258555" xlink:href="#m6fdf9ce6bf" y="206.7"/>
     <use style="stroke:#000000;stroke-width:0.5;" x="160.261596958" xlink:href="#m6fdf9ce6bf" y="206.4"/>
     <use style="stroke:#000000;stroke-width:0.5;" x="161.958935361" xlink:href="#m6fdf9ce6bf" y="205.8"/>
     <use style="stroke:#000000;stroke-width:0.5;" x="163.656273764" xlink:href="#m6fdf9ce6bf" y="205.2"/>
     <use style="stroke:#000000;stroke-width:0.5;" x="165.353612167" xlink:href="#m6fdf9ce6bf" y="204.6"/>
     <use style="stroke:#000000;stroke-width:0.5;" x="167.05095057" xlink:href="#m6fdf9ce6bf" y="204.0"/>
     <use style="stroke:#000000;stroke-width:0.5;" x="168.748288973" xlink:href="#m6fdf9ce6bf" y="203.4"/>
     <use style="stroke:#000000;stroke-width:0.5;" x="170.445627376" xlink:href="#m6fdf9ce6bf" y="202.8"/>
     <use style="stroke:#000000;stroke-width:0.5;" x="172.142965779" xlink:href="#m6fdf9ce6bf" y="202.2"/>
     <use style="stroke:#000000;stroke-width:0.5;" x="173.840304183" xlink:href="#m6fdf9ce6bf" y="201.6"/>
     <use style="stroke:#000000;stroke-width:0.5;" x="175.537642586" xlink:href="#m6fdf9ce6bf" y="201.0"/>
     <use style="stroke:#000000;stroke-width:0.5;" x="177.234980989" xlink:href="#m6fdf9ce6bf" y="200.4"/>
     <use style="stroke:#000000;stroke-width:0.5;" x="178.932319392" xlink:href="#m6fdf9ce6bf" y="199.8"/>
     <use style="stroke:#000000;stroke-width:0.5;" x="180.629657795" xlink:href="#m6fdf9ce6bf" y="199.2"/>
     <use style="stroke:#000000;stroke-width:0.5;" x="182.326996198" xlink:href="#m6fdf9ce6bf" y="198.6"/>
     <use style="stroke:#000000;stroke-width:0.5;" x="184.024334601" xlink:href="#m6fdf9ce6bf" y="198.0"/>
     <use style="stroke:#000000;stroke-width:0.5;" x="185.721673004" xlink:href="#m6fdf9ce6bf" y="197.4"/>
     <use style="stroke:#000000;stroke-width:0.5;" x="187.419011407" xlink:href="#m6fdf9ce6bf" y="196.8"/>
     <use style="stroke:#000000;stroke-width:0.5;" x="189.11634981" xlink:href="#m6fdf9ce6bf" y="195.6"/>
     <use style="stroke:#000000;stroke-width:0.5;" x="190.813688213" xlink:href="#m6fdf9ce6bf" y="194.4"/>
     <use style="stroke:#000000;stroke-width:0.5;" x="192.511026616" xlink:href="#m6fdf9ce6bf" y="193.2"/>
     <use style="stroke:#000000;stroke-width:0.5;" x="194.208365019" xlink:href="#m6fdf9ce6bf" y="192.0"/>
     <use style="stroke:#000000;stroke-width:0.5;" x="195.905703422" xlink:href="#m6fdf9ce6bf" y="190.8"/>
     <use style="stroke:#000000;stroke-width:0.5;" x="197.603041825" xlink:href="#m6fdf9ce6bf" y="189.6"/>
     <use style="stroke:#000000;stroke-width:0.5;" x="199.300380228" xlink:href="#m6fdf9ce6bf" y="188.4"/>
     <use style="stroke:#000000;stroke-width:0.5;" x="200.997718631" xlink:href="#m6fdf9ce6bf" y="187.2"/>
     <use style="stroke:#000000;stroke-width:0.5;" x="202.695057034" xlink:href="#m6fdf9ce6bf" y="186.0"/>
     <use style="stroke:#000000;stroke-width:0.5;" x="204.392395437" xlink:href="#m6fdf9ce6bf" y="184.8"/>
     <use style="stroke:#000000;stroke-width:0.5;" x="206.08973384" xlink:href="#m6fdf9ce6bf" y="183.6"/>
     <use style="stroke:#000000;stroke-width:0.5;" x="207.787072243" xlink:href="#m6fdf9ce6bf" y="182.4"/>
     <use style="stroke:#000000;stroke-width:0.5;" x="209.484410646" xlink:href="#m6fdf9ce6bf" y="181.2"/>
     <use style="stroke:#000000;stroke-width:0.5;" x="211.181749049" xlink:href="#m6fdf9ce6bf" y="180.0"/>
     <use style="stroke:#000000;stroke-width:0.5;" x="212.879087452" xlink:href="#m6fdf9ce6bf" y="178.8"/>
     <use style="stroke:#000000;stroke-width:0.5;" x="214.576425856" xlink:href="#m6fdf9ce6bf" y="177.6"/>
     <use style="stroke:#000000;stroke-width:0.5;" x="216.273764259" xlink:href="#m6fdf9ce6bf" y="175.2"/>
     <use style="stroke:#000000;stroke-width:0.5;" x="217.971102662" xlink:href="#m6fdf9ce6bf" y="172.8"/>
     <use style="stroke:#000000;stroke-width:0.5;" x="219.668441065" xlink:href="#m6fdf9ce6bf" y="170.4"/>
     <use style="stroke:#000000;stroke-width:0.5;" x="221.365779468" xlink:href="#m6fdf9ce6bf" y="168.0"/>
     <use style="stroke:#000000;stroke-width:0.5;" x="223.063117871" xlink:href="#m6fdf9ce6bf" y="165.6"/>
     <use style="stroke:#000000;stroke-width:0.5;" x="224.760456274" xlink:href="#m6fdf9ce6bf" y="163.2"/>
     <use style="stroke:#000000;stroke-width:0.5;" x="226.457794677" xlink:href="#m6fdf9ce6bf" y="160.8"/>
     <use style="stroke:#000000;stroke-width:0.5;" x="228.15513308" xlink:href="#m6fdf9ce6bf" y="158.4"/>
     <use style="stroke:#000000;stroke-width:0.5;" x="229.852471483" xlink:href="#m6fdf9ce6bf" y="156.0"/>
     <use style="stroke:#000000;stroke-width:0.5;" x="231.549809886" xlink:href="#m6fdf9ce6bf" y="153.6"/>
     <use style="stroke:#000000;stroke-width:0.5;" x="233.247148289" xlink:href="#m6fdf9ce6bf" y="151.2"/>
     <use style="stroke:#000000;stroke-width:0.5;" x="234.944486692" xlink:href="#m6fdf9ce6bf" y="148.8"/>
     <use style="stroke:#000000;stroke-width:0.5;" x="236.641825095" xlink:href="#m6fdf9ce6bf" y="146.4"/>
     <use style="stroke:#000000;stroke-width:0.5;" x="238.339163498" xlink:href="#m6fdf9ce6bf" y="144.0"/>
     <use style="stroke:#000000;stroke-width:0.5;" x="240.036501901" xlink:href="#m6fdf9ce6bf" y="141.6"/>
     <use style="stroke:#000000;stroke-width:0.5;" x="241.733840304" xlink:href="#m6fdf9ce6bf" y="139.2"/>
     <use style="stroke:#000000;stroke-width:0.5;" x="243.431178707" xlink:href="#m6fdf9ce6bf" y="134.4"/>
     <use style="stroke:#000000;stroke-width:0.5;" x="245.12851711" xlink:href="#m6fdf9ce6bf" y="129.6"/>
     <use style="stroke:#000000;stroke-width:0.5;" x="246.825855513" xlink:href="#m6fdf9ce6bf" y="124.8"/>
     <use style="stroke:#000000;stroke-width:0.5;" x="248.523193916" xlink:href="#m6fdf9ce6bf" y="120.0"/>
     <use style="stroke:#000000;stroke-width:0.5;" x="250.220532319" xlink:href="#m6fdf9ce6bf" y="115.2"/>
     <use style="stroke:#000000;stroke-width:0.5;" x="251.917870722" xlink:href="#m6fdf9ce6bf" y="110.4"/>
     <use style="stroke:#000000;stroke-width:0.5;" x="253.615209125" xlink:href="#m6fdf9ce6bf" y="105.6"/>
     <use style="stroke:#000000;stroke-width:0.5;" x="255.312547529" xlink:href="#m6fdf9ce6bf" y="100.8"/>
     <use style="stroke:#000000;stroke-width:0.5;" x="257.009885932" xlink:href="#m6fdf9ce6bf" y="96.0"/>
     <use style="stroke:#000000;stroke-width:0.5;" x="258.707224335" xlink:href="#m6fdf9ce6bf" y="91.2"/>
     <use style="stroke:#000000;stroke-width:0.5;" x="260.404562738" xlink:href="#m6fdf9ce6bf" y="86.4"/>
     <use style="stroke:#000000;stroke-width:0.5;" x="262.101901141" xlink:href="#m6fdf9ce6bf" y="81.6"/>
     <use style="stroke:#000000;stroke-width:0.5;" x="263.799239544" xlink:href="#m6fdf9ce6bf" y="76.8"/>
     <use style="stroke:#000000;stroke-width:0.5;" x="265.496577947" xlink:href="#m6fdf9ce6bf" y="72.0"/>
     <use style="stroke:#000000;stroke-width:0.5;" x="267.19391635" xlink:href="#m6fdf9ce6bf" y="67.2"/>
    </g>
   </g>
   <g id="line2d_2">
    <g clip-path="url(#p7bb1a34803)">
     <use style="stroke:#000000;stroke-width:0.5;" x="296.048669202" xlink:href="#m6fdf9ce6bf" y="216.0"/>
     <use style="stroke:#000000;stroke-width:0.5;" x="297.746007605" xlink:href="#m6fdf9ce6bf" y="216.15"/>
     <use style="stroke:#000000;stroke-width:0.5;" x="299.443346008" xlink:href="#m6fdf9ce6bf" y="216.3"/>
     <use style="stroke:#000000;stroke-width:0.5;" x="301.140684411" xlink:href="#m6fdf9ce6bf" y="216.45"/>
     <use style="stroke:#000000;stroke-width:0.5;" x="302.838022814" xlink:href="#m6fdf9ce6bf" y="216.6"/>
     <use style="stroke:#000000;stroke-width:0.5;" x="304.535361217" xlink:href="#m6fdf9ce6bf" y="216.75"/>
     <use style="stroke:#000000;stroke-width:0.5;" x="306.23269962" xlink:href="#m6fdf9ce6bf" y="216.9"/>
     <use style="stroke:#000000;stroke-width:0.5;" x="307.930038023" xlink:href="#m6fdf9ce6bf" y="217.05"/>
     <use style="stroke:#000000;stroke-width:0.5;" x="309.627376426" xlink:href="#m6fdf9ce6bf" y="217.2"/>
     <use style="stroke:#000000;stroke-width:0.5;" x="311.324714829" xlink:href="#m6fdf9ce6bf" y="217.35"/>
     <use style="stroke:#000000;stroke-width:0.5;" x="313.022053232" xlink:href="#m6fdf9ce6bf" y="217.5"/>
     <use style="stroke:#000000;stroke-width:0.5;" x="314.719391635" xlink:href="#m6fdf9ce6bf" y="217.65"/>
     <use style="stroke:#000000;stroke-width:0.5;" x="316.416730038" xlink:href="#m6fdf9ce6bf" y="217.8"/>
     <use style="stroke:#000000;stroke-width:0.5;" x="318.114068441" xlink:href="#m6fdf9ce6bf" y="217.95"/>
     <use style="stroke:#000000;stroke-width:0.5;" x="319.811406844" xlink:href="#m6fdf9ce6bf" y="218.1"/>
     <use style="stroke:#000000;stroke-width:0.5;" x="321.508745247" xlink:href="#m6fdf9ce6bf" y="218.25"/>
     <use style="stroke:#000000;stroke-width:0.5;" x="323.20608365" xlink:href="#m6fdf9ce6bf" y="218.4"/>
     <use style="stroke:#000000;stroke-width:0.5;" x="324.903422053" xlink:href="#m6fdf9ce6bf" y="218.55"/>
     <use style="stroke:#000000;stroke-width:0.5;" x="326.600760456" xlink:href="#m6fdf9ce6bf" y="218.7"/>
     <use style="stroke:#000000;stroke-width:0.5;" x="328.298098859" xlink:href="#m6fdf9ce6bf" y="218.85"/>
     <use style="stroke:#000000;stroke-width:0.5;" x="329.995437262" xlink:href="#m6fdf9ce6bf" y="219.0"/>
     <use style="stroke:#000000;stroke-width:0.5;" x="331.692775665" xlink:href="#m6fdf9ce6bf" y="219.15"/>
     <use style="stroke:#000000;stroke-width:0.5;" x="333.390114068" xlink:href="#m6fdf9ce6bf" y="219.3"/>
     <use style="stroke:#000000;stroke-width:0.5;" x="335.087452471" xlink:href="#m6fdf9ce6bf" y="219.45"/>
     <use style="stroke:#000000;stroke-width:0.5;" x="336.784790875" xlink:href="#m6fdf9ce6bf" y="219.6"/>
     <use style="stroke:#000000;stroke-width:0.5;" x="338.482129278" xlink:href="#m6fdf9ce6bf" y="219.75"/>
     <use style="stroke:#000000;stroke-width:0.5;" x="340.179467681" xlink:href="#m6fdf9ce6bf" y="219.9"/>
     <use style="stroke:#000000;stroke-width:0.5;" x="341.876806084" xlink:href="#m6fdf9ce6bf" y="220.05"/>
     <use style="stroke:#000000;stroke-width:0.5;" x="343.574144487" xlink:href="#m6fdf9ce6bf" y="220.2"/>
     <use style="stroke:#000000;stroke-width:0.5;" x="345.27148289" xlink:href="#m6fdf9ce6bf" y="220.35"/>
     <use style="stroke:#000000;stroke-width:0.5;" x="346.968821293" xlink:href="#m6fdf9ce6bf" y="220.5"/>
     <use style="stroke:#000000;stroke-width:0.5;" x="348.666159696" xlink:href="#m6fdf9ce6bf" y="220.65"/>
     <use style="stroke:#000000;stroke-width:0.5;" x="350.363498099" xlink:href="#m6fdf9ce6bf" y="220.8"/>
     <use style="stroke:#000000;stroke-width:0.5;" x="352.060836502" xlink:href="#m6fdf9ce6bf" y="221.1"/>
     <use style="stroke:#000000;stroke-width:0.5;" x="353.758174905" xlink:href="#m6fdf9ce6bf" y="221.4"/>
     <use style="stroke:#000000;stroke-width:0.5;" x="355.455513308" xlink:href="#m6fdf9ce6bf" y="221.7"/>
     <use style="stroke:#000000;stroke-width:0.5;" x="357.152851711" xlink:href="#m6fdf9ce6bf" y="222.0"/>
     <use style="stroke:#000000;stroke-width:0.5;" x="358.850190114" xlink:href="#m6fdf9ce6bf" y="222.3"/>
     <use style="stroke:#000000;stroke-width:0.5;" x="360.547528517" xlink:href="#m6fdf9ce6bf" y="222.6"/>
     <use style="stroke:#000000;stroke-width:0.5;" x="362.24486692" xlink:href="#m6fdf9ce6bf" y="222.9"/>
     <use style="stroke:#000000;stroke-width:0.5;" x="363.942205323" xlink:href="#m6fdf9ce6bf" y="223.2"/>
     <use style="stroke:#000000;stroke-width:0.5;" x="365.639543726" xlink:href="#m6fdf9ce6bf" y="223.5"/>
     <use style="stroke:#000000;stroke-width:0.5;" x="367.336882129" xlink:href="#m6fdf9ce6bf" y="223.8"/>
     <use style="stroke:#000000;stroke-width:0.5;" x="369.034220532" xlink:href="#m6fdf9ce6bf" y="224.1"/>
     <use style="stroke:#000000;stroke-width:0.5;" x="370.731558935" xlink:href="#m6fdf9ce6bf" y="224.4"/>
     <use style="stroke:#000000;stroke-width:0.5;" x="372.428897338" xlink:href="#m6fdf9ce6bf" y="224.7"/>
     <use style="stroke:#000000;stroke-width:0.5;" x="374.126235741" xlink:href="#m6fdf9ce6bf" y="225.0"/>
     <use style="stroke:#000000;stroke-width:0.5;" x="375.823574144" xlink:href="#m6fdf9ce6bf" y="225.3"/>
     <use style="stroke:#000000;stroke-width:0.5;" x="377.520912548" xlink:href="#m6fdf9ce6bf" y="225.6"/>
     <use style="stroke:#000000;stroke-width:0.5;" x="379.218250951" xlink:href="#m6fdf9ce6bf" y="226.2"/>
     <use style="stroke:#000000;stroke-width:0.5;" x="380.915589354" xlink:href="#m6fdf9ce6bf" y="226.8"/>
     <use style="stroke:#000000;stroke-width:0.5;" x="382.612927757" xlink:href="#m6fdf9ce6bf" y="227.4"/>
     <use style="stroke:#000000;stroke-width:0.5;" x="384.31026616" xlink:href="#m6fdf9ce6bf" y="228.0"/>
     <use style="stroke:#000000;stroke-width:0.5;" x="386.007604563" xlink:href="#m6fdf9ce6bf" y="228.6"/>
     <use style="stroke:#000000;stroke-width:0.5;" x="387.704942966" xlink:href="#m6fdf9ce6bf" y="229.2"/>
     <use style="stroke:#000000;stroke-width:0.5;" x="389.402281369" xlink:href="#m6fdf9ce6bf" y="229.8"/>
     <use style="stroke:#000000;stroke-width:0.5;" x="391.099619772" xlink:href="#m6fdf9ce6bf" y="230.4"/>
     <use style="stroke:#000000;stroke-width:0.5;" x="392.796958175" xlink:href="#m6fdf9ce6bf" y="231.0"/>
     <use style="stroke:#000000;stroke-width:0.5;" x="394.494296578" xlink:href="#m6fdf9ce6bf" y="231.6"/>
     <use style="stroke:#000000;stroke-width:0.5;" x="396.191634981" xlink:href="#m6fdf9ce6bf" y="232.2"/>
     <use style="stroke:#000000;stroke-width:0.5;" x="397.888973384" xlink:href="#m6fdf9ce6bf" y="232.8"/>
     <use style="stroke:#000000;stroke-width:0.5;" x="399.586311787" xlink:href="#m6fdf9ce6bf" y="233.4"/>
     <use style="stroke:#000000;stroke-width:0.5;" x="401.28365019" xlink:href="#m6fdf9ce6bf" y="234.0"/>
     <use style="stroke:#000000;stroke-width:0.5;" x="402.980988593" xlink:href="#m6fdf9ce6bf" y="234.6"/>
     <use style="stroke:#000000;stroke-width:0.5;" x="404.678326996" xlink:href="#m6fdf9ce6bf" y="235.2"/>
     <use style="stroke:#000000;stroke-width:0.5;" x="406.375665399" xlink:href="#m6fdf9ce6bf" y="236.4"/>
     <use style="stroke:#000000;stroke-width:0.5;" x="408.073003802" xlink:href="#m6fdf9ce6bf" y="237.6"/>
     <use style="stroke:#000000;stroke-width:0.5;" x="409.770342205" xlink:href="#m6fdf9ce6bf" y="238.8"/>
     <use style="stroke:#000000;stroke-width:0.5;" x="411.467680608" xlink:href="#m6fdf9ce6bf" y="240.0"/>
     <use style="stroke:#000000;stroke-width:0.5;" x="413.165019011" xlink:href="#m6fdf9ce6bf" y="241.2"/>
     <use style="stroke:#000000;stroke-width:0.5;" x="414.862357414" xlink:href="#m6fdf9ce6bf" y="242.4"/>
     <use style="stroke:#000000;stroke-width:0.5;" x="416.559695817" xlink:href="#m6fdf9ce6bf" y="243.6"/>
     <use style="stroke:#000000;stroke-width:0.5;" x="418.257034221" xlink:href="#m6fdf9ce6bf" y="244.8"/>
     <use style="stroke:#000000;stroke-width:0.5;" x="419.954372624" xlink:href="#m6fdf9ce6bf" y="246.0"/>
     <use style="stroke:#000000;stroke-width:0.5;" x="421.651711027" xlink:href="#m6fdf9ce6bf" y="247.2"/>
     <use style="stroke:#000000;stroke-width:0.5;" x="423.34904943" xlink:href="#m6fdf9ce6bf" y="248.4"/>
     <use style="stroke:#000000;stroke-width:0.5;" x="425.046387833" xlink:href="#m6fdf9ce6bf" y="249.6"/>
     <use style="stroke:#000000;stroke-width:0.5;" x="426.743726236" xlink:href="#m6fdf9ce6bf" y="250.8"/>
     <use style="stroke:#000000;stroke-width:0.5;" x="428.441064639" xlink:href="#m6fdf9ce6bf" y="252.0"/>
     <use style="stroke:#000000;stroke-width:0.5;" x="430.138403042" xlink:href="#m6fdf9ce6bf" y="253.2"/>
     <use style="stroke:#000000;stroke-width:0.5;" x="431.835741445" xlink:href="#m6fdf9ce6bf" y="254.4"/>
     <use style="stroke:#000000;stroke-width:0.5;" x="433.533079848" xlink:href="#m6fdf9ce6bf" y="256.8"/>
     <use style="stroke:#000000;stroke-width:0.5;" x="435.230418251" xlink:href="#m6fdf9ce6bf" y="259.2"/>
     <use style="stroke:#000000;stroke-width:0.5;" x="436.927756654" xlink:href="#m6fdf9ce6bf" y="261.6"/>
     <use style="stroke:#000000;stroke-width:0.5;" x="438.625095057" xlink:href="#m6fdf9ce6bf" y="264.0"/>
     <use style="stroke:#000000;stroke-width:0.5;" x="440.32243346" xlink:href="#m6fdf9ce6bf" y="266.4"/>
     <use style="stroke:#000000;stroke-width:0.5;" x="442.019771863" xlink:href="#m6fdf9ce6bf" y="268.8"/>
     <use style="stroke:#000000;stroke-width:0.5;" x="443.717110266" xlink:href="#m6fdf9ce6bf" y="271.2"/>
     <use style="stroke:#000000;stroke-width:0.5;" x="445.414448669" xlink:href="#m6fdf9ce6bf" y="273.6"/>
     <use style="stroke:#000000;stroke-width:0.5;" x="447.111787072" xlink:href="#m6fdf9ce6bf" y="276.0"/>
     <use style="stroke:#000000;stroke-width:0.5;" x="448.809125475" xlink:href="#m6fdf9ce6bf" y="278.4"/>
     <use style="stroke:#000000;stroke-width:0.5;" x="450.506463878" xlink:href="#m6fdf9ce6bf" y="280.8"/>
     <use style="stroke:#000000;stroke-width:0.5;" x="452.203802281" xlink:href="#m6fdf9ce6bf" y="283.2"/>
     <use style="stroke:#000000;stroke-width:0.5;" x="453.901140684" xlink:href="#m6fdf9ce6bf" y="285.6"/>
     <use style="stroke:#000000;stroke-width:0.5;" x="455.598479087" xlink:href="#m6fdf9ce6bf" y="288.0"/>
     <use style="stroke:#000000;stroke-width:0.5;" x="457.29581749" xlink:href="#m6fdf9ce6bf" y="290.4"/>
     <use style="stroke:#000000;stroke-width:0.5;" x="458.993155894" xlink:href="#m6fdf9ce6bf" y="292.8"/>
     <use style="stroke:#000000;stroke-width:0.5;" x="460.690494297" xlink:href="#m6fdf9ce6bf" y="297.6"/>
     <use style="stroke:#000000;stroke-width:0.5;" x="462.3878327" xlink:href="#m6fdf9ce6bf" y="302.4"/>
     <use style="stroke:#000000;stroke-width:0.5;" x="464.085171103" xlink:href="#m6fdf9ce6bf" y="307.2"/>
     <use style="stroke:#000000;stroke-width:0.5;" x="465.782509506" xlink:href="#m6fdf9ce6bf" y="312.0"/>
     <use style="stroke:#000000;stroke-width:0.5;" x="467.479847909" xlink:href="#m6fdf9ce6bf" y="316.8"/>
     <use style="stroke:#000000;stroke-width:0.5;" x="469.177186312" xlink:href="#m6fdf9ce6bf" y="321.6"/>
     <use style="stroke:#000000;stroke-width:0.5;" x="470.874524715" xlink:href="#m6fdf9ce6bf" y="326.4"/>
     <use style="stroke:#000000;stroke-width:0.5;" x="472.571863118" xlink:href="#m6fdf9ce6bf" y="331.2"/>
     <use style="stroke:#000000;stroke-width:0.5;" x="474.269201521" xlink:href="#m6fdf9ce6bf" y="336.0"/>
     <use style="stroke:#000000;stroke-width:0.5;" x="475.966539924" xlink:href="#m6fdf9ce6bf" y="340.8"/>
     <use style="stroke:#000000;stroke-width:0.5;" x="477.663878327" xlink:href="#m6fdf9ce6bf" y="345.6"/>
     <use style="stroke:#000000;stroke-width:0.5;" x="479.36121673" xlink:href="#m6fdf9ce6bf" y="350.4"/>
     <use style="stroke:#000000;stroke-width:0.5;" x="481.058555133" xlink:href="#m6fdf9ce6bf" y="355.2"/>
     <use style="stroke:#000000;stroke-width:0.5;" x="482.755893536" xlink:href="#m6fdf9ce6bf" y="360.0"/>
     <use style="stroke:#000000;stroke-width:0.5;" x="484.453231939" xlink:href="#m6fdf9ce6bf" y="364.8"/>
    </g>
   </g>
   <g id="line2d_3">
    <defs>
     <path d="M 0 1.25 
C 0.331504 1.25 0.649475 1.118292 0.883883 0.883883 
C 1.118292 0.649475 1.25 0.331504 1.25 0 
C 1.25 -0.331504 1.118292 -0.649475 0.883883 -0.883883 
C 0.649475 -1.118292 0.331504 -1.25 0 -1.25 
C -0.331504 -1.25 -0.649475 -1.118292 -0.883883 -0.883883 
C -1.118292 -0.649475 -1.25 -0.331504 -1.25 0 
C -1.25 0.331504 -1.118292 0.649475 -0.883883 0.883883 
C -0.649475 1.118292 -0.331504 1.25 0 1.25 
z
" id="m3ec62be38b" style="stroke:#000000;stroke-width:0.5;"/>
    </defs>
    <g clip-path="url(#p7bb1a34803)">
     <use style="stroke:#000000;stroke-width:0.5;" x="78.7893536122" xlink:href="#m3ec62be38b" y="216.0"/>
    </g>
   </g>
   <g id="line2d_4">
    <g clip-path="url(#p7bb1a34803)">
     <use style="stroke:#000000;stroke-width:0.5;" x="268.891254753" xlink:href="#m3ec62be38b" y="62.4"/>
    </g>
   </g>
   <g id="line2d_5">
    <g clip-path="url(#p7bb1a34803)">
     <use style="stroke:#000000;stroke-width:0.5;" x="296.048669202" xlink:href="#m3ec62be38b" y="216.0"/>
    </g>
   </g>
   <g id="line2d_6">
    <g clip-path="url(#p7bb1a34803)">
     <use style="stroke:#000000;stroke-width:0.5;" x="486.150570342" xlink:href="#m3ec62be38b" y="369.6"/>
    </g>
   </g>
   <g id="patch_3">
    <path d="M 72 43.2 
L 518.4 43.2 
" style="fill:none;stroke:#000000;stroke-linecap:square;stroke-linejoin:miter;"/>
   </g>
   <g id="patch_4">
    <path d="M 518.4 388.8 
L 518.4 43.2 
" style="fill:none;stroke:#000000;stroke-linecap:square;stroke-linejoin:miter;"/>
   </g>
   <g id="patch_5">
    <path d="M 72 388.8 
L 518.4 388.8 
" style="fill:none;stroke:#000000;stroke-linecap:square;stroke-linejoin:miter;"/>
   </g>
   <g id="patch_6">
    <path d="M 72 388.8 
L 72 43.2 
" style="fill:none;stroke:#000000;stroke-linecap:square;stroke-linejoin:miter;"/>
   </g>
   <g id="matplotlib.axis_1">
    <g id="xtick_1">
     <g id="line2d_7">
      <path clip-path="url(#p7bb1a34803)" d="M 78.789354 388.8 
L 78.789354 43.2 
" style="fill:none;stroke:#000000;stroke-dasharray:1.000000,3.000000;stroke-dashoffset:0.0;stroke-width:0.5;"/>
     </g>
     <g id="line2d_8">
      <defs>
       <path d="M 0 0 
L 0 -4 
" id="m7c0ff78143" style="stroke:#000000;stroke-width:0.5;"/>
      </defs>
      <g>
       <use style="stroke:#000000;stroke-width:0.5;" x="78.7893536122" xlink:href="#m7c0ff78143" y="388.8"/>
      </g>
     </g>
     <g id="line2d_9">
      <defs>
       <path d="M 0 0 
L 0 4 
" id="m9ce9b8ac86" style="stroke:#000000;stroke-width:0.5;"/>
      </defs>
      <g>
       <use style="stroke:#000000;stroke-width:0.5;" x="78.7893536122" xlink:href="#m9ce9b8ac86" y="43.2"/>
      </g>
     </g>
     <g id="text_1">
      <!-- $0$ -->
      <defs>
       <path d="M 42 31.640625 
C 42 37.75 41.90625 48.125 37.703125 56.109375 
C 34 63.109375 28.09375 65.59375 22.90625 65.59375 
C 18.09375 65.59375 12 63.40625 8.203125 56.203125 
C 4.203125 48.71875 3.796875 39.4375 3.796875 31.640625 
C 3.796875 25.953125 3.90625 17.28125 7 9.671875 
C 11.296875 -0.609375 19 -2 22.90625 -2 
C 27.5 -2 34.5 -0.109375 38.59375 9.375 
C 41.59375 16.28125 42 24.359375 42 31.640625 
M 22.90625 -0.40625 
C 16.5 -0.40625 12.703125 5.078125 11.296875 12.6875 
C 10.203125 18.5625 10.203125 27.15625 10.203125 32.75 
C 10.203125 40.4375 10.203125 46.828125 11.5 52.921875 
C 13.40625 61.390625 19 64 22.90625 64 
C 27 64 32.296875 61.296875 34.203125 53.125 
C 35.5 47.4375 35.59375 40.734375 35.59375 32.75 
C 35.59375 26.25 35.59375 18.265625 34.40625 12.375 
C 32.296875 1.484375 26.40625 -0.40625 22.90625 -0.40625 
" id="CMR17-48"/>
      </defs>
      <g transform="translate(76.2986859864 399.71849838)scale(0.1 -0.1)">
       <use transform="scale(0.996264009963)" xlink:href="#CMR17-48"/>
      </g>
     </g>
    </g>
    <g id="xtick_2">
     <g id="line2d_10">
      <path clip-path="url(#p7bb1a34803)" d="M 268.891255 388.8 
L 268.891255 43.2 
" style="fill:none;stroke:#000000;stroke-dasharray:1.000000,3.000000;stroke-dashoffset:0.0;stroke-width:0.5;"/>
     </g>
     <g id="line2d_11">
      <g>
       <use style="stroke:#000000;stroke-width:0.5;" x="268.891254753" xlink:href="#m7c0ff78143" y="388.8"/>
      </g>
     </g>
     <g id="line2d_12">
      <g>
       <use style="stroke:#000000;stroke-width:0.5;" x="268.891254753" xlink:href="#m9ce9b8ac86" y="43.2"/>
      </g>
     </g>
     <g id="text_2">
      <!-- $112$ -->
      <defs>
       <path d="M 41.703125 15.453125 
L 39.90625 15.453125 
C 38.90625 8.375 38.09375 7.171875 37.703125 6.5625 
C 37.203125 5.765625 30 5.765625 28.59375 5.765625 
L 9.40625 5.765625 
C 13 9.671875 20 16.75 28.5 24.953125 
C 34.59375 30.734375 41.703125 37.53125 41.703125 47.421875 
C 41.703125 59.21875 32.296875 66 21.796875 66 
C 10.796875 66 4.09375 56.3125 4.09375 47.34375 
C 4.09375 43.4375 7 42.9375 8.203125 42.9375 
C 9.203125 42.9375 12.203125 43.546875 12.203125 47.03125 
C 12.203125 50.109375 9.59375 51 8.203125 51 
C 7.59375 51 7 50.90625 6.59375 50.703125 
C 8.5 59.21875 14.296875 63.40625 20.40625 63.40625 
C 29.09375 63.40625 34.796875 56.515625 34.796875 47.421875 
C 34.796875 38.734375 29.703125 31.25 24 24.75 
L 4.09375 2.28125 
L 4.09375 0 
L 39.296875 0 
z
" id="CMR17-50"/>
       <path d="M 26.59375 63.40625 
C 26.59375 65.5 26.5 65.5 25.09375 65.5 
C 21.203125 61.1875 15.296875 59.796875 9.703125 59.796875 
C 9.40625 59.796875 8.90625 59.796875 8.796875 59.5 
C 8.703125 59.296875 8.703125 59.09375 8.703125 57 
C 11.796875 57 17 57.59375 21 59.984375 
L 21 7.203125 
C 21 3.6875 20.796875 2.5 12.203125 2.5 
L 9.203125 2.5 
L 9.203125 0 
C 14 0 19 0 23.796875 0 
C 28.59375 0 33.59375 0 38.40625 0 
L 38.40625 2.5 
L 35.40625 2.5 
C 26.796875 2.5 26.59375 3.59375 26.59375 7.15625 
z
" id="CMR17-49"/>
      </defs>
      <g transform="translate(261.419251875 399.71849838)scale(0.1 -0.1)">
       <use transform="scale(0.996264009963)" xlink:href="#CMR17-49"/>
       <use transform="translate(45.6904771171 0.0)scale(0.996264009963)" xlink:href="#CMR17-49"/>
       <use transform="translate(91.3809542341 0.0)scale(0.996264009963)" xlink:href="#CMR17-50"/>
      </g>
     </g>
    </g>
    <g id="xtick_3">
     <g id="line2d_13">
      <path clip-path="url(#p7bb1a34803)" d="M 296.048669 388.8 
L 296.048669 43.2 
" style="fill:none;stroke:#000000;stroke-dasharray:1.000000,3.000000;stroke-dashoffset:0.0;stroke-width:0.5;"/>
     </g>
     <g id="line2d_14">
      <g>
       <use style="stroke:#000000;stroke-width:0.5;" x="296.048669202" xlink:href="#m7c0ff78143" y="388.8"/>
      </g>
     </g>
     <g id="line2d_15">
      <g>
       <use style="stroke:#000000;stroke-width:0.5;" x="296.048669202" xlink:href="#m9ce9b8ac86" y="43.2"/>
      </g>
     </g>
     <g id="text_3">
      <!-- $128$ -->
      <defs>
       <path d="M 27.203125 35.375 
C 33.5 38.546875 39.90625 43.328125 39.90625 50.984375 
C 39.90625 60.015625 31.09375 65.296875 23 65.296875 
C 13.90625 65.296875 5.90625 58.734375 5.90625 49.6875 
C 5.90625 47.203125 6.5 42.921875 10.40625 39.140625 
C 11.40625 38.15625 15.59375 35.171875 18.296875 33.28125 
C 13.796875 30.984375 3.296875 25.53125 3.296875 14.59375 
C 3.296875 4.359375 13.09375 -2 22.796875 -2 
C 33.5 -2 42.5 5.65625 42.5 15.78125 
C 42.5 24.84375 36.40625 29.015625 32.40625 31.703125 
z
M 14.09375 44.09375 
C 13.296875 44.59375 9.296875 47.671875 9.296875 52.359375 
C 9.296875 58.421875 15.59375 63 22.796875 63 
C 30.703125 63 36.5 57.4375 36.5 50.96875 
C 36.5 41.703125 26.09375 36.421875 25.59375 36.421875 
C 25.5 36.421875 25.40625 36.421875 24.59375 37.03125 
z
M 32.5 23.734375 
C 34 22.640625 38.796875 19.375 38.796875 13.296875 
C 38.796875 5.953125 31.40625 0.390625 23 0.390625 
C 13.90625 0.390625 7 6.84375 7 14.6875 
C 7 22.546875 13.09375 29.09375 20 32.1875 
z
" id="CMR17-56"/>
      </defs>
      <g transform="translate(288.576666324 399.71849838)scale(0.1 -0.1)">
       <use transform="scale(0.996264009963)" xlink:href="#CMR17-49"/>
       <use transform="translate(45.6904771171 0.0)scale(0.996264009963)" xlink:href="#CMR17-50"/>
       <use transform="translate(91.3809542341 0.0)scale(0.996264009963)" xlink:href="#CMR17-56"/>
      </g>
     </g>
    </g>
    <g id="xtick_4">
     <g id="line2d_16">
      <path clip-path="url(#p7bb1a34803)" d="M 486.15057 388.8 
L 486.15057 43.2 
" style="fill:none;stroke:#000000;stroke-dasharray:1.000000,3.000000;stroke-dashoffset:0.0;stroke-width:0.5;"/>
     </g>
     <g id="line2d_17">
      <g>
       <use style="stroke:#000000;stroke-width:0.5;" x="486.150570342" xlink:href="#m7c0ff78143" y="388.8"/>
      </g>
     </g>
     <g id="line2d_18">
      <g>
       <use style="stroke:#000000;stroke-width:0.5;" x="486.150570342" xlink:href="#m9ce9b8ac86" y="43.2"/>
      </g>
     </g>
     <g id="text_4">
      <!-- $240$ -->
      <defs>
       <path d="M 33.59375 64.40625 
C 33.59375 66.5 33.5 66.5 31.703125 66.5 
L 2 19.59375 
L 2 17 
L 27.796875 17 
L 27.796875 7.140625 
C 27.796875 3.5 27.59375 2.5 20.59375 2.5 
L 18.703125 2.5 
L 18.703125 0 
C 21.90625 0 27.296875 0 30.703125 0 
C 34.09375 0 39.5 0 42.703125 0 
L 42.703125 2.5 
L 40.796875 2.5 
C 33.796875 2.5 33.59375 3.5 33.59375 7.140625 
L 33.59375 17 
L 43.796875 17 
L 43.796875 19.59375 
L 33.59375 19.59375 
z
M 28.09375 57.859375 
L 28.09375 19.59375 
L 4 19.59375 
z
" id="CMR17-52"/>
      </defs>
      <g transform="translate(478.678567465 399.71849838)scale(0.1 -0.1)">
       <use transform="scale(0.996264009963)" xlink:href="#CMR17-50"/>
       <use transform="translate(45.6904771171 0.0)scale(0.996264009963)" xlink:href="#CMR17-52"/>
       <use transform="translate(91.3809542341 0.0)scale(0.996264009963)" xlink:href="#CMR17-48"/>
      </g>
     </g>
    </g>
    <g id="xtick_5">
     <g id="line2d_19">
      <path clip-path="url(#p7bb1a34803)" d="M 513.307985 388.8 
L 513.307985 43.2 
" style="fill:none;stroke:#000000;stroke-dasharray:1.000000,3.000000;stroke-dashoffset:0.0;stroke-width:0.5;"/>
     </g>
     <g id="line2d_20">
      <g>
       <use style="stroke:#000000;stroke-width:0.5;" x="513.307984791" xlink:href="#m7c0ff78143" y="388.8"/>
      </g>
     </g>
     <g id="line2d_21">
      <g>
       <use style="stroke:#000000;stroke-width:0.5;" x="513.307984791" xlink:href="#m9ce9b8ac86" y="43.2"/>
      </g>
     </g>
     <g id="text_5">
      <!-- $256$ -->
      <defs>
       <path d="M 11.40625 57.6875 
C 12.40625 57.28125 16.5 56 20.703125 56 
C 30 56 35.09375 61.109375 38 64.0625 
C 38 64.953125 38 65.5 37.40625 65.5 
C 37.296875 65.5 37.09375 65.5 36.296875 65.046875 
C 32.796875 63.40625 28.703125 62.078125 23.703125 62.078125 
C 20.703125 62.078125 16.203125 62.484375 11.296875 64.671875 
C 10.203125 65.171875 10 65.171875 9.90625 65.171875 
C 9.40625 65.171875 9.296875 65.0625 9.296875 63.078125 
L 9.296875 34.421875 
C 9.296875 32.640625 9.296875 32.140625 10.296875 32.140625 
C 10.796875 32.140625 11 32.34375 11.5 33.03125 
C 14.703125 37.515625 19.09375 39.40625 24.09375 39.40625 
C 27.59375 39.40625 35.09375 37.21875 35.09375 20.140625 
C 35.09375 16.953125 35.09375 11.171875 32.09375 6.578125 
C 29.59375 2.484375 25.703125 0.390625 21.40625 0.390625 
C 14.796875 0.390625 8.09375 5 6.296875 12.71875 
C 6.703125 12.609375 7.5 12.421875 7.90625 12.421875 
C 9.203125 12.421875 11.703125 13.125 11.703125 16.21875 
C 11.703125 18.90625 9.796875 20 7.90625 20 
C 5.59375 20 4.09375 18.59375 4.09375 15.796875 
C 4.09375 7.09375 11 -2 21.59375 -2 
C 31.90625 -2 41.703125 6.875 41.703125 19.75 
C 41.703125 31.71875 33.90625 41 24.203125 41 
C 19.09375 41 14.796875 39.109375 11.40625 35.53125 
z
" id="CMR17-53"/>
       <path d="M 10.59375 34 
C 10.59375 57.65625 21.796875 63 28.296875 63 
C 30.40625 63 35.5 62.640625 37.5 59 
C 35.90625 59 32.90625 59 32.90625 55.515625 
C 32.90625 52.828125 35.09375 51.921875 36.5 51.921875 
C 37.40625 51.921875 40.09375 52.3125 40.09375 55.625 
C 40.09375 61.78125 35.09375 65.296875 28.203125 65.296875 
C 16.296875 65.296875 3.796875 52.96875 3.796875 31 
C 3.796875 3.953125 15.09375 -2 23.09375 -2 
C 32.796875 -2 42 6.671875 42 20.046875 
C 42 32.515625 33.90625 41.59375 23.703125 41.59375 
C 17.59375 41.59375 13.09375 37.609375 10.59375 30.625 
z
M 23.09375 0.390625 
C 10.796875 0.390625 10.796875 18.75 10.796875 22.4375 
C 10.796875 29.625 14.203125 40 23.5 40 
C 25.203125 40 30.09375 40 33.40625 33.125 
C 35.203125 29.21875 35.203125 25.140625 35.203125 20.140625 
C 35.203125 14.75 35.203125 10.78125 33.09375 6.78125 
C 30.90625 2.671875 27.703125 0.390625 23.09375 0.390625 
" id="CMR17-54"/>
      </defs>
      <g transform="translate(505.835981913 399.71849838)scale(0.1 -0.1)">
       <use transform="scale(0.996264009963)" xlink:href="#CMR17-50"/>
       <use transform="translate(45.6904771171 0.0)scale(0.996264009963)" xlink:href="#CMR17-53"/>
       <use transform="translate(91.3809542341 0.0)scale(0.996264009963)" xlink:href="#CMR17-54"/>
      </g>
     </g>
    </g>
   </g>
   <g id="matplotlib.axis_2">
    <g id="ytick_1">
     <g id="line2d_22">
      <path clip-path="url(#p7bb1a34803)" d="M 72 369.6 
L 518.4 369.6 
" style="fill:none;stroke:#000000;stroke-dasharray:1.000000,3.000000;stroke-dashoffset:0.0;stroke-width:0.5;"/>
     </g>
     <g id="line2d_23">
      <defs>
       <path d="M 0 0 
L 4 0 
" id="md2186f2a4a" style="stroke:#000000;stroke-width:0.5;"/>
      </defs>
      <g>
       <use style="stroke:#000000;stroke-width:0.5;" x="72.0" xlink:href="#md2186f2a4a" y="369.6"/>
      </g>
     </g>
     <g id="line2d_24">
      <defs>
       <path d="M 0 0 
L -4 0 
" id="mc43a289fdb" style="stroke:#000000;stroke-width:0.5;"/>
      </defs>
      <g>
       <use style="stroke:#000000;stroke-width:0.5;" x="518.4" xlink:href="#mc43a289fdb" y="369.6"/>
      </g>
     </g>
     <g id="text_6">
      <!-- $-16$ -->
      <defs>
       <path d="M 65.90625 23 
C 67.59375 23 69.40625 23 69.40625 25 
C 69.40625 27 67.59375 27 65.90625 27 
L 11.796875 27 
C 10.09375 27 8.296875 27 8.296875 25 
C 8.296875 23 10.09375 23 11.796875 23 
z
" id="CMSY10-0"/>
      </defs>
      <g transform="translate(50.2885857721 372.090660025)scale(0.1 -0.1)">
       <use transform="scale(0.996264009963)" xlink:href="#CMSY10-0"/>
       <use transform="translate(77.4874676506 0.0)scale(0.996264009963)" xlink:href="#CMR17-49"/>
       <use transform="translate(123.177944768 0.0)scale(0.996264009963)" xlink:href="#CMR17-54"/>
      </g>
     </g>
    </g>
    <g id="ytick_2">
     <g id="line2d_25">
      <path clip-path="url(#p7bb1a34803)" d="M 72 216 
L 518.4 216 
" style="fill:none;stroke:#000000;stroke-dasharray:1.000000,3.000000;stroke-dashoffset:0.0;stroke-width:0.5;"/>
     </g>
     <g id="line2d_26">
      <g>
       <use style="stroke:#000000;stroke-width:0.5;" x="72.0" xlink:href="#md2186f2a4a" y="216.0"/>
      </g>
     </g>
     <g id="line2d_27">
      <g>
       <use style="stroke:#000000;stroke-width:0.5;" x="518.4" xlink:href="#mc43a289fdb" y="216.0"/>
      </g>
     </g>
     <g id="text_7">
      <!-- $0$ -->
      <g transform="translate(63.0186647484 218.490660025)scale(0.1 -0.1)">
       <use transform="scale(0.996264009963)" xlink:href="#CMR17-48"/>
      </g>
     </g>
    </g>
    <g id="ytick_3">
     <g id="line2d_28">
      <path clip-path="url(#p7bb1a34803)" d="M 72 62.4 
L 518.4 62.4 
" style="fill:none;stroke:#000000;stroke-dasharray:1.000000,3.000000;stroke-dashoffset:0.0;stroke-width:0.5;"/>
     </g>
     <g id="line2d_29">
      <g>
       <use style="stroke:#000000;stroke-width:0.5;" x="72.0" xlink:href="#md2186f2a4a" y="62.4"/>
      </g>
     </g>
     <g id="line2d_30">
      <g>
       <use style="stroke:#000000;stroke-width:0.5;" x="518.4" xlink:href="#mc43a289fdb" y="62.4"/>
      </g>
     </g>
     <g id="text_8">
      <!-- $16$ -->
      <g transform="translate(58.0373294968 64.8906600249)scale(0.1 -0.1)">
       <use transform="scale(0.996264009963)" xlink:href="#CMR17-49"/>
       <use transform="translate(45.6904771171 0.0)scale(0.996264009963)" xlink:href="#CMR17-54"/>
      </g>
     </g>
    </g>
   </g>
   <g id="text_9">
    <!-- $0^+$ -->
    <defs>
     <path d="M 37.703125 23 
L 64.203125 23 
C 65.59375 23 67.296875 23 67.296875 24.6875 
C 67.296875 26.484375 65.703125 26.484375 64.203125 26.484375 
L 37.703125 26.484375 
L 37.703125 52.90625 
C 37.703125 54.296875 37.703125 56 36 56 
C 34.203125 56 34.203125 54.40625 34.203125 52.90625 
L 34.203125 26.484375 
L 7.703125 26.484375 
C 6.296875 26.484375 4.59375 26.484375 4.59375 24.796875 
C 4.59375 23 6.203125 23 7.703125 23 
L 34.203125 23 
L 34.203125 -3.40625 
C 34.203125 -4.796875 34.203125 -6.5 35.90625 -6.5 
C 37.703125 -6.5 37.703125 -4.90625 37.703125 -3.40625 
z
" id="CMR17-43"/>
    </defs>
    <g transform="translate(87.2760456274 196.8)scale(0.12 -0.12)">
     <use transform="scale(0.996264009963)" xlink:href="#CMR17-48"/>
     <use transform="translate(45.6904771171 36.1536389419)scale(0.697381766617)" xlink:href="#CMR17-43"/>
    </g>
   </g>
   <g id="text_10">
    <!-- $+\infty$ -->
    <defs>
     <path d="M 50.796875 27.03125 
C 45.40625 33.84375 44.203125 35.34375 41.09375 37.84375 
C 35.5 42.34375 29.90625 44.140625 24.796875 44.140625 
C 13.09375 44.140625 5.5 33.15625 5.5 21.46875 
C 5.5 9.984375 12.90625 -1.09375 24.40625 -1.09375 
C 35.90625 -1.09375 44.203125 7.984375 49.09375 15.96875 
C 54.5 9.1875 55.703125 7.6875 58.796875 5.1875 
C 64.40625 0.703125 70 -1.09375 75.09375 -1.09375 
C 86.796875 -1.09375 94.40625 9.890625 94.40625 21.5625 
C 94.40625 33.046875 87 44.140625 75.5 44.140625 
C 64 44.140625 55.703125 35.03125 50.796875 27.03125 
M 53.40625 23.65625 
C 57.5 30.859375 64.90625 40.9375 76.203125 40.9375 
C 86.796875 40.9375 92.203125 30.546875 92.203125 21.5625 
C 92.203125 11.765625 85.5 3.6875 76.703125 3.6875 
C 70.90625 3.6875 66.40625 7.890625 64.296875 9.96875 
C 61.796875 12.671875 59.5 15.765625 53.40625 23.65625 
M 46.5 19.375 
C 42.40625 12.1875 35 2.09375 23.703125 2.09375 
C 13.09375 2.09375 7.703125 12.484375 7.703125 21.46875 
C 7.703125 31.25 14.40625 39.34375 23.203125 39.34375 
C 29 39.34375 33.5 35.140625 35.59375 33.046875 
C 38.09375 30.359375 40.40625 27.25 46.5 19.375 
" id="CMSY10-49"/>
    </defs>
    <g transform="translate(269.739923954 91.2)scale(0.12 -0.12)">
     <use transform="scale(0.996264009963)" xlink:href="#CMR17-43"/>
     <use transform="translate(71.7147884155 0.0)scale(0.996264009963)" xlink:href="#CMSY10-49"/>
    </g>
   </g>
   <g id="text_11">
    <!-- $\bot$ -->
    <defs>
     <path d="M 40.90625 63.203125 
C 40.90625 65 40.90625 66.796875 38.90625 66.796875 
C 36.90625 66.796875 36.90625 64.703125 36.90625 63.203125 
L 36.90625 4 
L 9.09375 4 
C 7.59375 4 5.5 4 5.5 2 
C 5.5 0 7.59375 0 9.09375 0 
L 68.796875 0 
C 70.5 0 72.296875 0 72.296875 2 
C 72.296875 4 70.5 4 68.796875 4 
L 40.90625 4 
z
" id="CMSY10-63"/>
    </defs>
    <g transform="translate(277.377946768 206.4)scale(0.12 -0.12)">
     <use transform="scale(0.996264009963)" xlink:href="#CMSY10-63"/>
    </g>
   </g>
   <g id="text_12">
    <!-- $0^-$ -->
    <g transform="translate(302.838022814 254.4)scale(0.12 -0.12)">
     <use transform="scale(0.996264009963)" xlink:href="#CMR17-48"/>
     <use transform="translate(45.6904771171 36.1536389419)scale(0.697381766617)" xlink:href="#CMSY10-0"/>
    </g>
   </g>
   <g id="text_13">
    <!-- $-\infty$ -->
    <g transform="translate(486.999239544 364.8)scale(0.12 -0.12)">
     <use transform="scale(0.996264009963)" xlink:href="#CMSY10-0"/>
     <use transform="translate(77.4874676506 0.0)scale(0.996264009963)" xlink:href="#CMSY10-49"/>
    </g>
   </g>
   <g id="text_14">
    <!-- $\bot$ -->
    <g transform="translate(494.637262357 206.4)scale(0.12 -0.12)">
     <use transform="scale(0.996264009963)" xlink:href="#CMSY10-63"/>
    </g>
   </g>
  </g>
 </g>
 <defs>
  <clipPath id="p7bb1a34803">
   <rect height="345.6" width="446.4" x="72.0" y="43.2"/>
  </clipPath>
 </defs>
</svg>
