<?xml version="1.0" encoding="UTF-8" standalone="no"?>
<!-- Created with Inkscape (http://www.inkscape.org/) -->

<svg
   xmlns:ns0="http://www.iki.fi/pav/software/textext/"
   xmlns:dc="http://purl.org/dc/elements/1.1/"
   xmlns:cc="http://creativecommons.org/ns#"
   xmlns:rdf="http://www.w3.org/1999/02/22-rdf-syntax-ns#"
   xmlns:svg="http://www.w3.org/2000/svg"
   xmlns="http://www.w3.org/2000/svg"
   xmlns:xlink="http://www.w3.org/1999/xlink"
   xmlns:sodipodi="http://sodipodi.sourceforge.net/DTD/sodipodi-0.dtd"
   xmlns:inkscape="http://www.inkscape.org/namespaces/inkscape"
   width="805.47314"
   height="103"
   id="svg2"
   version="1.1"
   inkscape:version="0.48.0 r9654"
   sodipodi:docname="nonlinear-quantization.svg">
  <sodipodi:namedview
     id="base"
     pagecolor="#ffffff"
     bordercolor="#666666"
     borderopacity="1.0"
     inkscape:pageopacity="0.0"
     inkscape:pageshadow="2"
     inkscape:zoom="1.7182447"
     inkscape:cx="402.73657"
     inkscape:cy="51.5"
     inkscape:document-units="px"
     inkscape:current-layer="layer1"
     showgrid="true"
     inkscape:window-width="1920"
     inkscape:window-height="1122"
     inkscape:window-x="0"
     inkscape:window-y="24"
     inkscape:window-maximized="1"
     fit-margin-top="0"
     fit-margin-left="0"
     fit-margin-right="0"
     fit-margin-bottom="0">
    <inkscape:grid
       spacingy="50px"
       spacingx="50px"
       snapvisiblegridlinesonly="true"
       enabled="true"
       visible="true"
       empspacing="5"
       id="grid3019"
       type="xygrid" />
  </sodipodi:namedview>
  <defs
     id="defs4">
    <marker
       style="overflow:visible"
       id="Arrow2Mend"
       refX="0"
       refY="0"
       orient="auto"
       inkscape:stockid="Arrow2Mend">
      <path
         transform="scale(-0.6,-0.6)"
         d="M 8.7185878,4.0337352 -2.2072895,0.01601326 8.7185884,-4.0017078 c -1.7454984,2.3720609 -1.7354408,5.6174519 -6e-7,8.035443 z"
         style="font-size:12px;fill-rule:evenodd;stroke-width:0.625;stroke-linejoin:round"
         id="path4299"
         inkscape:connector-curvature="0" />
    </marker>
    <marker
       style="overflow:visible"
       id="Arrow2Mend-1"
       refX="0"
       refY="0"
       orient="auto"
       inkscape:stockid="Arrow2Mend">
      <path
         transform="scale(-0.6,-0.6)"
         d="M 8.7185878,4.0337352 -2.2072895,0.01601326 8.7185884,-4.0017078 c -1.7454984,2.3720609 -1.7354408,5.6174519 -6e-7,8.035443 z"
         style="font-size:12px;fill-rule:evenodd;stroke-width:0.625;stroke-linejoin:round"
         id="path4299-8"
         inkscape:connector-curvature="0" />
    </marker>
    <marker
       style="overflow:visible"
       id="Arrow2Mend-5"
       refX="0"
       refY="0"
       orient="auto"
       inkscape:stockid="Arrow2Mend">
      <path
         transform="scale(-0.6,-0.6)"
         d="M 8.7185878,4.0337352 -2.2072895,0.01601326 8.7185884,-4.0017078 c -1.7454984,2.3720609 -1.7354408,5.6174519 -6e-7,8.035443 z"
         style="font-size:12px;fill-rule:evenodd;stroke-width:0.625;stroke-linejoin:round"
         id="path4299-3"
         inkscape:connector-curvature="0" />
    </marker>
    <marker
       style="overflow:visible"
       id="Arrow2Mend-7"
       refX="0"
       refY="0"
       orient="auto"
       inkscape:stockid="Arrow2Mend">
      <path
         transform="scale(-0.6,-0.6)"
         d="M 8.7185878,4.0337352 -2.2072895,0.01601326 8.7185884,-4.0017078 c -1.7454984,2.3720609 -1.7354408,5.6174519 -6e-7,8.035443 z"
         style="font-size:12px;fill-rule:evenodd;stroke-width:0.625;stroke-linejoin:round"
         id="path4299-2"
         inkscape:connector-curvature="0" />
    </marker>
  </defs>
  <metadata
     id="metadata7">
    <rdf:RDF>
      <cc:Work
         rdf:about="">
        <dc:format>image/svg+xml</dc:format>
        <dc:type
           rdf:resource="http://purl.org/dc/dcmitype/StillImage" />
        <dc:title />
      </cc:Work>
    </rdf:RDF>
  </metadata>
  <g
     id="layer1"
     inkscape:groupmode="layer"
     inkscape:label="Calque 1"
     transform="translate(1.5,-250.86218)">
    <g
       id="g4136">
      <rect
         style="fill:none;stroke:#000000;stroke-width:3;stroke-miterlimit:4;stroke-opacity:1;stroke-dasharray:none"
         id="rect3247"
         width="100"
         height="100"
         x="100"
         y="252.36218" />
      <rect
         style="fill:none;stroke:#000000;stroke-width:3;stroke-miterlimit:4;stroke-opacity:1;stroke-dasharray:none"
         id="rect3247-2"
         width="100"
         height="100"
         x="600"
         y="252.36218" />
      <rect
         style="fill:none;stroke:#000000;stroke-width:3;stroke-miterlimit:4;stroke-opacity:1;stroke-dasharray:none"
         id="rect3247-1"
         width="200"
         height="100"
         x="300"
         y="252.36218" />
      <path
         style="fill:none;stroke:#000000;stroke-width:3;stroke-linecap:butt;stroke-linejoin:miter;stroke-miterlimit:4;stroke-opacity:1;stroke-dasharray:none;marker-end:url(#Arrow2Mend)"
         d="m 0,302.36218 100,0"
         id="path4267"
         inkscape:connector-curvature="0" />
      <path
         style="fill:none;stroke:#000000;stroke-width:3;stroke-linecap:butt;stroke-linejoin:miter;stroke-miterlimit:4;stroke-opacity:1;stroke-dasharray:none;marker-end:url(#Arrow2Mend)"
         d="m 200,302.36218 100,0"
         id="path4267-6"
         inkscape:connector-curvature="0" />
      <path
         style="fill:none;stroke:#000000;stroke-width:3;stroke-linecap:butt;stroke-linejoin:miter;stroke-miterlimit:4;stroke-opacity:1;stroke-dasharray:none;marker-end:url(#Arrow2Mend)"
         d="m 500,302.36218 100,0"
         id="path4267-6-0"
         inkscape:connector-curvature="0" />
      <path
         style="fill:none;stroke:#000000;stroke-width:3;stroke-linecap:butt;stroke-linejoin:miter;stroke-miterlimit:4;stroke-opacity:1;stroke-dasharray:none;marker-end:url(#Arrow2Mend)"
         d="m 700,302.36218 100,0"
         id="path4267-6-0-9"
         inkscape:connector-curvature="0" />
      <g
         id="g7659"
         transform="matrix(3,0,0,3,-629.59324,-124.6927)"
         ns0:preamble=""
         ns0:text="$x$">
        <defs
           id="defs7661">
          <g
             id="g7663">
            <symbol
               id="textext-856d2dce-0"
               overflow="visible"
               style="overflow:visible">
              <path
                 id="path7666"
                 d="M 3.328125,-3.015625 C 3.390625,-3.265625 3.625,-4.1875 4.3125,-4.1875 c 0.046875,0 0.296875,0 0.5,0.125 C 4.53125,-4 4.34375,-3.765625 4.34375,-3.515625 c 0,0.15625 0.109375,0.34375 0.375,0.34375 0.21875,0 0.53125,-0.171875 0.53125,-0.578125 0,-0.515625 -0.578125,-0.65625 -0.921875,-0.65625 -0.578125,0 -0.921875,0.53125 -1.046875,0.75 -0.25,-0.65625 -0.78125,-0.75 -1.078125,-0.75 -1.03125,0 -1.609375,1.28125 -1.609375,1.53125 0,0.109375 0.109375,0.109375 0.125,0.109375 0.078125,0 0.109375,-0.03125 0.125,-0.109375 0.34375,-1.0625 1,-1.3125 1.34375,-1.3125 0.1875,0 0.53125,0.09375 0.53125,0.671875 0,0.3125 -0.171875,0.96875 -0.53125,2.375 -0.15625,0.609375 -0.515625,1.03125 -0.953125,1.03125 -0.0625,0 -0.28125,0 -0.5,-0.125 0.25,-0.0625 0.46875,-0.265625 0.46875,-0.546875 0,-0.265625 -0.21875,-0.34375 -0.359375,-0.34375 -0.3125,0 -0.546875,0.25 -0.546875,0.578125 0,0.453125 0.484375,0.65625 0.921875,0.65625 0.671875,0 1.03125,-0.703125 1.046875,-0.75 0.125,0.359375 0.484375,0.75 1.078125,0.75 1.03125,0 1.59375,-1.28125 1.59375,-1.53125 0,-0.109375 -0.078125,-0.109375 -0.109375,-0.109375 -0.09375,0 -0.109375,0.046875 -0.140625,0.109375 -0.328125,1.078125 -1,1.3125 -1.3125,1.3125 -0.390625,0 -0.546875,-0.3125 -0.546875,-0.65625 0,-0.21875 0.046875,-0.4375 0.15625,-0.875 z m 0,0"
                 style="stroke:none"
                 inkscape:connector-curvature="0" />
            </symbol>
          </g>
        </defs>
        <g
           id="textext-856d2dce-1">
          <g
             id="g7669"
             style="fill:#000000;fill-opacity:1">
            <use
               id="use7671"
               y="134.765"
               x="223.43201"
               xlink:href="#textext-856d2dce-0"
               width="744.09448"
               height="1052.3622" />
          </g>
        </g>
      </g>
      <g
         ns0:text="$f(x)$"
         ns0:preamble=""
         transform="matrix(3,0,0,3,-451.17576,-122.67144)"
         id="g8091">
        <defs
           id="defs8093">
          <g
             id="g8095">
            <symbol
               style="overflow:visible"
               overflow="visible"
               id="textext-95ba57e3-0">
              <path
                 inkscape:connector-curvature="0"
                 style="stroke:none"
                 d="m 3.65625,-3.984375 0.859375,0 c 0.203125,0 0.296875,0 0.296875,-0.203125 0,-0.109375 -0.09375,-0.109375 -0.265625,-0.109375 l -0.828125,0 0.203125,-1.140625 c 0.046875,-0.203125 0.1875,-0.90625 0.25,-1.03125 0.078125,-0.1875 0.25,-0.34375 0.46875,-0.34375 0.03125,0 0.296875,0 0.484375,0.1875 -0.4375,0.03125 -0.546875,0.390625 -0.546875,0.53125 0,0.234375 0.1875,0.359375 0.375,0.359375 C 5.21875,-5.734375 5.5,-5.96875 5.5,-6.34375 c 0,-0.453125 -0.453125,-0.6875 -0.859375,-0.6875 -0.34375,0 -0.96875,0.1875 -1.265625,1.171875 -0.0625,0.203125 -0.09375,0.3125 -0.328125,1.5625 l -0.6875,0 c -0.203125,0 -0.3125,0 -0.3125,0.1875 0,0.125 0.09375,0.125 0.28125,0.125 l 0.65625,0 -0.734375,3.9375 c -0.1875,0.96875 -0.359375,1.875 -0.875,1.875 -0.046875,0 -0.28125,0 -0.484375,-0.1875 C 1.359375,1.609375 1.453125,1.25 1.453125,1.109375 1.453125,0.875 1.265625,0.75 1.078125,0.75 0.8125,0.75 0.53125,0.984375 0.53125,1.359375 c 0,0.4375 0.4375,0.6875 0.84375,0.6875 0.546875,0 0.953125,-0.59375 1.125,-0.96875 0.328125,-0.625 0.546875,-1.828125 0.5625,-1.90625 z m 0,0"
                 id="path8098" />
            </symbol>
            <symbol
               style="overflow:visible"
               overflow="visible"
               id="textext-95ba57e3-1">
              <path
                 inkscape:connector-curvature="0"
                 style="stroke:none"
                 d="M 3.328125,-3.015625 C 3.390625,-3.265625 3.625,-4.1875 4.3125,-4.1875 c 0.046875,0 0.296875,0 0.5,0.125 C 4.53125,-4 4.34375,-3.765625 4.34375,-3.515625 c 0,0.15625 0.109375,0.34375 0.375,0.34375 0.21875,0 0.53125,-0.171875 0.53125,-0.578125 0,-0.515625 -0.578125,-0.65625 -0.921875,-0.65625 -0.578125,0 -0.921875,0.53125 -1.046875,0.75 -0.25,-0.65625 -0.78125,-0.75 -1.078125,-0.75 -1.03125,0 -1.609375,1.28125 -1.609375,1.53125 0,0.109375 0.109375,0.109375 0.125,0.109375 0.078125,0 0.109375,-0.03125 0.125,-0.109375 0.34375,-1.0625 1,-1.3125 1.34375,-1.3125 0.1875,0 0.53125,0.09375 0.53125,0.671875 0,0.3125 -0.171875,0.96875 -0.53125,2.375 -0.15625,0.609375 -0.515625,1.03125 -0.953125,1.03125 -0.0625,0 -0.28125,0 -0.5,-0.125 0.25,-0.0625 0.46875,-0.265625 0.46875,-0.546875 0,-0.265625 -0.21875,-0.34375 -0.359375,-0.34375 -0.3125,0 -0.546875,0.25 -0.546875,0.578125 0,0.453125 0.484375,0.65625 0.921875,0.65625 0.671875,0 1.03125,-0.703125 1.046875,-0.75 0.125,0.359375 0.484375,0.75 1.078125,0.75 1.03125,0 1.59375,-1.28125 1.59375,-1.53125 0,-0.109375 -0.078125,-0.109375 -0.109375,-0.109375 -0.09375,0 -0.109375,0.046875 -0.140625,0.109375 -0.328125,1.078125 -1,1.3125 -1.3125,1.3125 -0.390625,0 -0.546875,-0.3125 -0.546875,-0.65625 0,-0.21875 0.046875,-0.4375 0.15625,-0.875 z m 0,0"
                 id="path8101" />
            </symbol>
            <symbol
               style="overflow:visible"
               overflow="visible"
               id="textext-95ba57e3-2">
              <path
                 inkscape:connector-curvature="0"
                 style="stroke:none"
                 d="m 3.296875,2.390625 c 0,-0.03125 0,-0.046875 -0.171875,-0.21875 C 1.890625,0.921875 1.5625,-0.96875 1.5625,-2.5 c 0,-1.734375 0.375,-3.46875 1.609375,-4.703125 0.125,-0.125 0.125,-0.140625 0.125,-0.171875 0,-0.078125 -0.03125,-0.109375 -0.09375,-0.109375 -0.109375,0 -1,0.6875 -1.59375,1.953125 -0.5,1.09375 -0.625,2.203125 -0.625,3.03125 0,0.78125 0.109375,1.984375 0.65625,3.125 C 2.25,1.84375 3.09375,2.5 3.203125,2.5 c 0.0625,0 0.09375,-0.03125 0.09375,-0.109375 z m 0,0"
                 id="path8104" />
            </symbol>
            <symbol
               style="overflow:visible"
               overflow="visible"
               id="textext-95ba57e3-3">
              <path
                 inkscape:connector-curvature="0"
                 style="stroke:none"
                 d="m 2.875,-2.5 c 0,-0.765625 -0.109375,-1.96875 -0.65625,-3.109375 -0.59375,-1.21875 -1.453125,-1.875 -1.546875,-1.875 -0.0625,0 -0.109375,0.046875 -0.109375,0.109375 0,0.03125 0,0.046875 0.1875,0.234375 0.984375,0.984375 1.546875,2.5625 1.546875,4.640625 0,1.71875 -0.359375,3.46875 -1.59375,4.71875 C 0.5625,2.34375 0.5625,2.359375 0.5625,2.390625 0.5625,2.453125 0.609375,2.5 0.671875,2.5 0.765625,2.5 1.671875,1.8125 2.25,0.546875 2.765625,-0.546875 2.875,-1.65625 2.875,-2.5 z m 0,0"
                 id="path8107" />
            </symbol>
          </g>
        </defs>
        <g
           id="textext-95ba57e3-4">
          <g
             style="fill:#000000;fill-opacity:1"
             id="g8110">
            <use
               height="1052.3622"
               width="744.09448"
               xlink:href="#textext-95ba57e3-0"
               x="223.43201"
               y="134.765"
               id="use8112" />
          </g>
          <g
             style="fill:#000000;fill-opacity:1"
             id="g8114">
            <use
               height="1052.3622"
               width="744.09448"
               xlink:href="#textext-95ba57e3-2"
               x="229.382"
               y="134.765"
               id="use8116" />
          </g>
          <g
             style="fill:#000000;fill-opacity:1"
             id="g8118">
            <use
               height="1052.3622"
               width="744.09448"
               xlink:href="#textext-95ba57e3-1"
               x="233.256"
               y="134.765"
               id="use8120" />
          </g>
          <g
             style="fill:#000000;fill-opacity:1"
             id="g8122">
            <use
               height="1052.3622"
               width="744.09448"
               xlink:href="#textext-95ba57e3-3"
               x="238.95"
               y="134.765"
               id="use8124" />
          </g>
        </g>
      </g>
      <g
         id="g8551"
         transform="matrix(3,0,0,3,-531.94661,-96.589961)"
         ns0:preamble=""
         ns0:text="$f$">
        <defs
           id="defs8553">
          <g
             id="g8555">
            <symbol
               id="textext-2fa5c78e-0"
               overflow="visible"
               style="overflow:visible">
              <path
                 id="path8558"
                 d="m 3.65625,-3.984375 0.859375,0 c 0.203125,0 0.296875,0 0.296875,-0.203125 0,-0.109375 -0.09375,-0.109375 -0.265625,-0.109375 l -0.828125,0 0.203125,-1.140625 c 0.046875,-0.203125 0.1875,-0.90625 0.25,-1.03125 0.078125,-0.1875 0.25,-0.34375 0.46875,-0.34375 0.03125,0 0.296875,0 0.484375,0.1875 -0.4375,0.03125 -0.546875,0.390625 -0.546875,0.53125 0,0.234375 0.1875,0.359375 0.375,0.359375 C 5.21875,-5.734375 5.5,-5.96875 5.5,-6.34375 c 0,-0.453125 -0.453125,-0.6875 -0.859375,-0.6875 -0.34375,0 -0.96875,0.1875 -1.265625,1.171875 -0.0625,0.203125 -0.09375,0.3125 -0.328125,1.5625 l -0.6875,0 c -0.203125,0 -0.3125,0 -0.3125,0.1875 0,0.125 0.09375,0.125 0.28125,0.125 l 0.65625,0 -0.734375,3.9375 c -0.1875,0.96875 -0.359375,1.875 -0.875,1.875 -0.046875,0 -0.28125,0 -0.484375,-0.1875 C 1.359375,1.609375 1.453125,1.25 1.453125,1.109375 1.453125,0.875 1.265625,0.75 1.078125,0.75 0.8125,0.75 0.53125,0.984375 0.53125,1.359375 c 0,0.4375 0.4375,0.6875 0.84375,0.6875 0.546875,0 0.953125,-0.59375 1.125,-0.96875 0.328125,-0.625 0.546875,-1.828125 0.5625,-1.90625 z m 0,0"
                 style="stroke:none"
                 inkscape:connector-curvature="0" />
            </symbol>
          </g>
        </defs>
        <g
           id="textext-2fa5c78e-1">
          <g
             id="g8561"
             style="fill:#000000;fill-opacity:1">
            <use
               id="use8563"
               y="134.765"
               x="223.43201"
               xlink:href="#textext-2fa5c78e-0"
               width="744.09448"
               height="1052.3622" />
          </g>
        </g>
      </g>
      <g
         ns0:text="$f^{-1}$"
         ns0:preamble=""
         transform="matrix(3,0,0,3,-40.968891,-95.92606)"
         id="g8970">
        <defs
           id="defs8972">
          <g
             id="g8974">
            <symbol
               style="overflow:visible"
               overflow="visible"
               id="textext-4e288114-0">
              <path
                 inkscape:connector-curvature="0"
                 style="stroke:none"
                 d="m 3.65625,-3.984375 0.859375,0 c 0.203125,0 0.296875,0 0.296875,-0.203125 0,-0.109375 -0.09375,-0.109375 -0.265625,-0.109375 l -0.828125,0 0.203125,-1.140625 c 0.046875,-0.203125 0.1875,-0.90625 0.25,-1.03125 0.078125,-0.1875 0.25,-0.34375 0.46875,-0.34375 0.03125,0 0.296875,0 0.484375,0.1875 -0.4375,0.03125 -0.546875,0.390625 -0.546875,0.53125 0,0.234375 0.1875,0.359375 0.375,0.359375 C 5.21875,-5.734375 5.5,-5.96875 5.5,-6.34375 c 0,-0.453125 -0.453125,-0.6875 -0.859375,-0.6875 -0.34375,0 -0.96875,0.1875 -1.265625,1.171875 -0.0625,0.203125 -0.09375,0.3125 -0.328125,1.5625 l -0.6875,0 c -0.203125,0 -0.3125,0 -0.3125,0.1875 0,0.125 0.09375,0.125 0.28125,0.125 l 0.65625,0 -0.734375,3.9375 c -0.1875,0.96875 -0.359375,1.875 -0.875,1.875 -0.046875,0 -0.28125,0 -0.484375,-0.1875 C 1.359375,1.609375 1.453125,1.25 1.453125,1.109375 1.453125,0.875 1.265625,0.75 1.078125,0.75 0.8125,0.75 0.53125,0.984375 0.53125,1.359375 c 0,0.4375 0.4375,0.6875 0.84375,0.6875 0.546875,0 0.953125,-0.59375 1.125,-0.96875 0.328125,-0.625 0.546875,-1.828125 0.5625,-1.90625 z m 0,0"
                 id="path8977" />
            </symbol>
            <symbol
               style="overflow:visible"
               overflow="visible"
               id="textext-4e288114-1">
              <path
                 inkscape:connector-curvature="0"
                 style="stroke:none"
                 d="m 5.1875,-1.578125 c 0.109375,0 0.28125,0 0.28125,-0.15625 0,-0.1875 -0.171875,-0.1875 -0.28125,-0.1875 l -4.15625,0 c -0.109375,0 -0.28125,0 -0.28125,0.171875 0,0.171875 0.15625,0.171875 0.28125,0.171875 z m 0,0"
                 id="path8980" />
            </symbol>
            <symbol
               style="overflow:visible"
               overflow="visible"
               id="textext-4e288114-2">
              <path
                 inkscape:connector-curvature="0"
                 style="stroke:none"
                 d="m 2.328125,-4.4375 c 0,-0.1875 0,-0.1875 -0.203125,-0.1875 -0.453125,0.4375 -1.078125,0.4375 -1.359375,0.4375 l 0,0.25 c 0.15625,0 0.625,0 1,-0.1875 l 0,3.546875 c 0,0.234375 0,0.328125 -0.6875,0.328125 l -0.265625,0 0,0.25 c 0.125,0 0.984375,-0.03125 1.234375,-0.03125 0.21875,0 1.09375,0.03125 1.25,0.03125 l 0,-0.25 -0.265625,0 c -0.703125,0 -0.703125,-0.09375 -0.703125,-0.328125 z m 0,0"
                 id="path8983" />
            </symbol>
          </g>
        </defs>
        <g
           id="textext-4e288114-3">
          <g
             style="fill:#000000;fill-opacity:1"
             id="g8986">
            <use
               height="1052.3622"
               width="744.09448"
               xlink:href="#textext-4e288114-0"
               x="223.43201"
               y="134.765"
               id="use8988" />
          </g>
          <g
             style="fill:#000000;fill-opacity:1"
             id="g8990">
            <use
               height="1052.3622"
               width="744.09448"
               xlink:href="#textext-4e288114-1"
               x="229.382"
               y="131.14999"
               id="use8992" />
          </g>
          <g
             style="fill:#000000;fill-opacity:1"
             id="g8994">
            <use
               height="1052.3622"
               width="744.09448"
               xlink:href="#textext-4e288114-2"
               x="235.60899"
               y="131.14999"
               id="use8996" />
          </g>
        </g>
      </g>
      <g
         transform="translate(8,-10)"
         id="g17252">
        <g
           transform="matrix(2.5,0,0,2.5,-249.15737,-1.2315674)"
           ns0:text="\\sc quantization"
           ns0:preamble=""
           id="g16273">
          <defs
             id="defs16275">
            <g
               id="g16277">
              <symbol
                 style="overflow:visible"
                 overflow="visible"
                 id="textext-05d3837c-0">
                <path
                   inkscape:connector-curvature="0"
                   style="stroke:none"
                   d="m 4.234375,-0.078125 c 0.734375,-0.3125 1.59375,-1.1875 1.59375,-2.46875 0,-1.484375 -1.1875,-2.71875 -2.65625,-2.71875 -1.484375,0 -2.65625,1.234375 -2.65625,2.71875 0,1.515625 1.203125,2.6875 2.65625,2.6875 0.359375,0 0.671875,-0.078125 0.71875,-0.09375 0.171875,0.75 0.3125,1.390625 1,1.390625 C 5.625,1.4375 5.875,0.546875 5.875,0.078125 c 0,-0.078125 0,-0.1875 -0.109375,-0.1875 -0.09375,0 -0.109375,0.0625 -0.109375,0.171875 -0.0625,0.390625 -0.4375,0.515625 -0.6875,0.515625 -0.15625,0 -0.4375,0 -0.734375,-0.65625 z m -1.65625,-0.15625 c -0.5,-0.1875 -1.25,-0.765625 -1.25,-2.3125 0,-1.84375 1.078125,-2.46875 1.84375,-2.46875 0.765625,0 1.828125,0.625 1.828125,2.46875 0,0.84375 -0.234375,1.703125 -0.921875,2.15625 -0.15625,-0.28125 -0.390625,-0.75 -0.890625,-0.75 -0.40625,0 -0.6875,0.296875 -0.6875,0.625 0,0.171875 0.0625,0.28125 0.078125,0.28125 z m 1.25,-0.015625 c -0.015625,0.015625 -0.3125,0.140625 -0.65625,0.140625 -0.4375,0 -0.453125,-0.34375 -0.453125,-0.40625 0,-0.21875 0.1875,-0.40625 0.46875,-0.40625 0.3125,0 0.53125,0.21875 0.640625,0.671875 z m 0,0"
                   id="path16280" />
              </symbol>
              <symbol
                 style="overflow:visible"
                 overflow="visible"
                 id="textext-05d3837c-1">
                <path
                   inkscape:connector-curvature="0"
                   style="stroke:none"
                   d="m 1.859375,-4.40625 c 0,-0.40625 0.046875,-0.46875 0.71875,-0.46875 l 0,-0.25 C 2.296875,-5.109375 1.71875,-5.09375 1.5,-5.09375 c -0.21875,0 -0.765625,-0.015625 -1.078125,-0.03125 l 0,0.25 c 0.6875,0 0.71875,0.0625 0.71875,0.484375 l 0,2.171875 c 0,0.25 0,0.609375 0.03125,0.75 0.078125,0.796875 0.875,1.609375 1.984375,1.609375 1.15625,0 1.796875,-1.015625 1.8125,-1.75 l 0,-2.640625 c 0,-0.40625 0.265625,-0.625 0.71875,-0.625 l 0,-0.25 C 5.4375,-5.109375 4.90625,-5.09375 4.84375,-5.09375 4.5625,-5.09375 4.28125,-5.109375 4,-5.125 l 0,0.25 c 0.71875,0 0.71875,0.53125 0.71875,0.765625 l 0,2.328125 c 0,1.15625 -0.859375,1.671875 -1.53125,1.671875 -0.3125,0 -1.328125,-0.125 -1.328125,-1.609375 z m 0,0"
                   id="path16283" />
              </symbol>
              <symbol
                 style="overflow:visible"
                 overflow="visible"
                 id="textext-05d3837c-2">
                <path
                   inkscape:connector-curvature="0"
                   style="stroke:none"
                   d="m 3.28125,-5.078125 c -0.0625,-0.15625 -0.109375,-0.21875 -0.21875,-0.21875 -0.140625,0 -0.15625,0.0625 -0.21875,0.1875 L 1.25,-0.984375 C 1.140625,-0.71875 0.96875,-0.265625 0.34375,-0.25 l 0,0.25 c 0.21875,-0.015625 0.5,-0.03125 0.71875,-0.03125 0.171875,0 0.625,0.015625 0.828125,0.03125 l 0,-0.25 c -0.421875,-0.015625 -0.4375,-0.359375 -0.4375,-0.453125 0,-0.078125 0,-0.09375 0.328125,-0.984375 l 2.0625,0 0.21875,0.5625 c 0.078125,0.203125 0.21875,0.53125 0.21875,0.59375 C 4.28125,-0.25 3.921875,-0.25 3.75,-0.25 l 0,0.25 c 0.265625,-0.015625 0.859375,-0.03125 1.0625,-0.03125 0.328125,0 0.71875,0.015625 0.953125,0.03125 l 0,-0.25 C 5.21875,-0.25 5.125,-0.296875 5,-0.640625 z M 3.75,-1.9375 l -1.859375,0 0.9375,-2.40625 z m 0,0"
                   id="path16286" />
              </symbol>
              <symbol
                 style="overflow:visible"
                 overflow="visible"
                 id="textext-05d3837c-3">
                <path
                   inkscape:connector-curvature="0"
                   style="stroke:none"
                   d="M 1.921875,-5 C 1.828125,-5.125 1.8125,-5.125 1.625,-5.125 l -1.203125,0 0,0.25 c 0.25,0 0.53125,0 0.71875,0.0625 l 0,3.8125 c 0,0.21875 0,0.75 -0.71875,0.75 l 0,0.25 c 0.21875,-0.015625 0.671875,-0.03125 0.859375,-0.03125 0.15625,0 0.609375,0.015625 0.859375,0.03125 l 0,-0.25 c -0.71875,0 -0.71875,-0.53125 -0.71875,-0.75 l 0,-3.578125 0.109375,0.125 3.125,4.34375 C 4.734375,0 4.765625,0 4.828125,0 4.96875,0 4.96875,-0.0625 4.96875,-0.265625 l 0,-3.84375 c 0,-0.234375 0,-0.765625 0.71875,-0.765625 l 0,-0.25 c -0.21875,0.015625 -0.65625,0.03125 -0.859375,0.03125 -0.15625,0 -0.609375,-0.015625 -0.859375,-0.03125 l 0,0.25 c 0.71875,0 0.71875,0.53125 0.71875,0.765625 l 0,2.953125 z m 0,0"
                   id="path16289" />
              </symbol>
              <symbol
                 style="overflow:visible"
                 overflow="visible"
                 id="textext-05d3837c-4">
                <path
                   inkscape:connector-curvature="0"
                   style="stroke:none"
                   d="m 5.390625,-5.0625 -4.890625,0 -0.140625,1.6875 0.25,0 C 0.703125,-4.640625 0.890625,-4.8125 2,-4.8125 c 0.5625,0 0.59375,0 0.59375,0.421875 l 0,3.640625 c 0,0.390625 -0.046875,0.5 -0.8125,0.5 l -0.203125,0 0,0.25 c 0.390625,-0.03125 0.96875,-0.03125 1.375,-0.03125 0.390625,0 0.984375,0 1.375,0.03125 l 0,-0.25 -0.21875,0 C 3.34375,-0.25 3.3125,-0.359375 3.3125,-0.75 l 0,-3.640625 c 0,-0.421875 0.03125,-0.421875 0.578125,-0.421875 1.078125,0 1.296875,0.171875 1.390625,1.4375 l 0.25,0 z m 0,0"
                   id="path16292" />
              </symbol>
              <symbol
                 style="overflow:visible"
                 overflow="visible"
                 id="textext-05d3837c-5">
                <path
                   inkscape:connector-curvature="0"
                   style="stroke:none"
                   d="M 1.859375,-4.390625 C 1.859375,-4.828125 1.90625,-4.875 2.625,-4.875 l 0,-0.25 c -0.34375,0.015625 -0.859375,0.03125 -1.125,0.03125 -0.25,0 -0.765625,-0.015625 -1.109375,-0.03125 l 0,0.25 c 0.703125,0 0.75,0.046875 0.75,0.484375 l 0,3.65625 c 0,0.4375 -0.046875,0.484375 -0.75,0.484375 l 0,0.25 C 0.734375,-0.015625 1.25,-0.03125 1.5,-0.03125 c 0.265625,0 0.78125,0.015625 1.125,0.03125 l 0,-0.25 c -0.71875,0 -0.765625,-0.046875 -0.765625,-0.484375 z m 0,0"
                   id="path16295" />
              </symbol>
              <symbol
                 style="overflow:visible"
                 overflow="visible"
                 id="textext-05d3837c-6">
                <path
                   inkscape:connector-curvature="0"
                   style="stroke:none"
                   d="M 4.421875,-4.8125 C 4.5,-4.921875 4.5,-4.9375 4.5,-4.984375 4.5,-5.125 4.421875,-5.125 4.234375,-5.125 l -3.53125,0 -0.078125,1.6875 0.25,0 C 0.9375,-4.53125 1.4375,-4.875 2.4375,-4.875 l 1.21875,0 -3.078125,4.546875 c -0.0625,0.09375 -0.0625,0.125 -0.0625,0.171875 C 0.515625,0 0.5625,0 0.765625,0 l 3.65625,0 0.109375,-2 -0.25,0 c -0.046875,1.0625 -0.21875,1.71875 -1.625,1.71875 l -1.296875,0 z m 0,0"
                   id="path16298" />
              </symbol>
              <symbol
                 style="overflow:visible"
                 overflow="visible"
                 id="textext-05d3837c-7">
                <path
                   inkscape:connector-curvature="0"
                   style="stroke:none"
                   d="m 5.828125,-2.546875 c 0,-1.484375 -1.1875,-2.71875 -2.65625,-2.71875 -1.484375,0 -2.65625,1.234375 -2.65625,2.71875 0,1.515625 1.203125,2.6875 2.65625,2.6875 1.453125,0 2.65625,-1.171875 2.65625,-2.6875 z M 3.171875,-0.125 c -0.703125,0 -1.8125,-0.5625 -1.8125,-2.53125 0,-1.875 1.140625,-2.359375 1.8125,-2.359375 0.671875,0 1.796875,0.5 1.796875,2.359375 0,1.96875 -1.09375,2.53125 -1.796875,2.53125 z m 0,0"
                   id="path16301" />
              </symbol>
            </g>
          </defs>
          <g
             id="textext-05d3837c-8">
            <g
               style="fill:#000000;fill-opacity:1"
               id="g16304">
              <use
                 height="1052.3622"
                 width="744.09448"
                 xlink:href="#textext-05d3837c-0"
                 x="223.43201"
                 y="134.765"
                 id="use16306" />
              <use
                 height="1052.3622"
                 width="744.09448"
                 xlink:href="#textext-05d3837c-1"
                 x="229.76424"
                 y="134.765"
                 id="use16308" />
              <use
                 height="1052.3622"
                 width="744.09448"
                 xlink:href="#textext-05d3837c-2"
                 x="235.8743"
                 y="134.765"
                 id="use16310" />
              <use
                 height="1052.3622"
                 width="744.09448"
                 xlink:href="#textext-05d3837c-3"
                 x="241.98436"
                 y="134.765"
                 id="use16312" />
              <use
                 height="1052.3622"
                 width="744.09448"
                 xlink:href="#textext-05d3837c-4"
                 x="248.09442"
                 y="134.765"
                 id="use16314" />
              <use
                 height="1052.3622"
                 width="744.09448"
                 xlink:href="#textext-05d3837c-5"
                 x="253.98331"
                 y="134.765"
                 id="use16316" />
              <use
                 height="1052.3622"
                 width="744.09448"
                 xlink:href="#textext-05d3837c-6"
                 x="256.99402"
                 y="134.765"
                 id="use16318" />
              <use
                 height="1052.3622"
                 width="744.09448"
                 xlink:href="#textext-05d3837c-2"
                 x="261.99722"
                 y="134.765"
                 id="use16320" />
            </g>
            <g
               style="fill:#000000;fill-opacity:1"
               id="g16322">
              <use
                 height="1052.3622"
                 width="744.09448"
                 xlink:href="#textext-05d3837c-4"
                 x="267.43979"
                 y="134.765"
                 id="use16324" />
              <use
                 height="1052.3622"
                 width="744.09448"
                 xlink:href="#textext-05d3837c-5"
                 x="273.32867"
                 y="134.765"
                 id="use16326" />
            </g>
            <g
               style="fill:#000000;fill-opacity:1"
               id="g16328">
              <use
                 height="1052.3622"
                 width="744.09448"
                 xlink:href="#textext-05d3837c-7"
                 x="276.34933"
                 y="134.765"
                 id="use16330" />
            </g>
            <g
               style="fill:#000000;fill-opacity:1"
               id="g16332">
              <use
                 height="1052.3622"
                 width="744.09448"
                 xlink:href="#textext-05d3837c-3"
                 x="282.6716"
                 y="134.765"
                 id="use16334" />
            </g>
          </g>
        </g>
        <g
           id="g16945"
           ns0:preamble=""
           ns0:text="\\sc uniform"
           transform="matrix(2.5,0,0,2.5,-217.46094,-38.286257)">
          <defs
             id="defs16947">
            <g
               id="g16949">
              <symbol
                 id="textext-9e31af2c-0"
                 overflow="visible"
                 style="overflow:visible">
                <path
                   id="path16952"
                   d="m 1.859375,-4.40625 c 0,-0.40625 0.046875,-0.46875 0.71875,-0.46875 l 0,-0.25 C 2.296875,-5.109375 1.71875,-5.09375 1.5,-5.09375 c -0.21875,0 -0.765625,-0.015625 -1.078125,-0.03125 l 0,0.25 c 0.6875,0 0.71875,0.0625 0.71875,0.484375 l 0,2.171875 c 0,0.25 0,0.609375 0.03125,0.75 0.078125,0.796875 0.875,1.609375 1.984375,1.609375 1.15625,0 1.796875,-1.015625 1.8125,-1.75 l 0,-2.640625 c 0,-0.40625 0.265625,-0.625 0.71875,-0.625 l 0,-0.25 C 5.4375,-5.109375 4.90625,-5.09375 4.84375,-5.09375 4.5625,-5.09375 4.28125,-5.109375 4,-5.125 l 0,0.25 c 0.71875,0 0.71875,0.53125 0.71875,0.765625 l 0,2.328125 c 0,1.15625 -0.859375,1.671875 -1.53125,1.671875 -0.3125,0 -1.328125,-0.125 -1.328125,-1.609375 z m 0,0"
                   style="stroke:none"
                   inkscape:connector-curvature="0" />
              </symbol>
              <symbol
                 id="textext-9e31af2c-1"
                 overflow="visible"
                 style="overflow:visible">
                <path
                   id="path16955"
                   d="M 1.921875,-5 C 1.828125,-5.125 1.8125,-5.125 1.625,-5.125 l -1.203125,0 0,0.25 c 0.25,0 0.53125,0 0.71875,0.0625 l 0,3.8125 c 0,0.21875 0,0.75 -0.71875,0.75 l 0,0.25 c 0.21875,-0.015625 0.671875,-0.03125 0.859375,-0.03125 0.15625,0 0.609375,0.015625 0.859375,0.03125 l 0,-0.25 c -0.71875,0 -0.71875,-0.53125 -0.71875,-0.75 l 0,-3.578125 0.109375,0.125 3.125,4.34375 C 4.734375,0 4.765625,0 4.828125,0 4.96875,0 4.96875,-0.0625 4.96875,-0.265625 l 0,-3.84375 c 0,-0.234375 0,-0.765625 0.71875,-0.765625 l 0,-0.25 c -0.21875,0.015625 -0.65625,0.03125 -0.859375,0.03125 -0.15625,0 -0.609375,-0.015625 -0.859375,-0.03125 l 0,0.25 c 0.71875,0 0.71875,0.53125 0.71875,0.765625 l 0,2.953125 z m 0,0"
                   style="stroke:none"
                   inkscape:connector-curvature="0" />
              </symbol>
              <symbol
                 id="textext-9e31af2c-2"
                 overflow="visible"
                 style="overflow:visible">
                <path
                   id="path16958"
                   d="M 1.859375,-4.390625 C 1.859375,-4.828125 1.90625,-4.875 2.625,-4.875 l 0,-0.25 c -0.34375,0.015625 -0.859375,0.03125 -1.125,0.03125 -0.25,0 -0.765625,-0.015625 -1.109375,-0.03125 l 0,0.25 c 0.703125,0 0.75,0.046875 0.75,0.484375 l 0,3.65625 c 0,0.4375 -0.046875,0.484375 -0.75,0.484375 l 0,0.25 C 0.734375,-0.015625 1.25,-0.03125 1.5,-0.03125 c 0.265625,0 0.78125,0.015625 1.125,0.03125 l 0,-0.25 c -0.71875,0 -0.765625,-0.046875 -0.765625,-0.484375 z m 0,0"
                   style="stroke:none"
                   inkscape:connector-curvature="0" />
              </symbol>
              <symbol
                 id="textext-9e31af2c-3"
                 overflow="visible"
                 style="overflow:visible">
                <path
                   id="path16961"
                   d="m 4.75,-5.09375 -4.328125,0 0,0.25 c 0.671875,0 0.71875,0.0625 0.71875,0.46875 l 0,3.65625 c 0,0.40625 -0.046875,0.46875 -0.71875,0.46875 l 0,0.25 C 0.75,-0.015625 1.28125,-0.03125 1.53125,-0.03125 c 0.328125,0 0.9375,0.015625 1.234375,0.03125 l 0,-0.25 c -0.75,0 -0.90625,0 -0.90625,-0.5 l 0,-1.671875 0.671875,0 c 0.734375,0 0.84375,0.203125 0.84375,0.859375 l 0.25,0 0,-1.96875 -0.25,0 c 0,0.65625 -0.109375,0.859375 -0.84375,0.859375 l -0.671875,0 0,-1.75 c 0,-0.390625 0.046875,-0.421875 0.40625,-0.421875 l 0.9375,0 c 1.109375,0 1.390625,0.3125 1.484375,1.4375 l 0.25,0 z m 0,0"
                   style="stroke:none"
                   inkscape:connector-curvature="0" />
              </symbol>
              <symbol
                 id="textext-9e31af2c-4"
                 overflow="visible"
                 style="overflow:visible">
                <path
                   id="path16964"
                   d="m 5.828125,-2.546875 c 0,-1.484375 -1.1875,-2.71875 -2.65625,-2.71875 -1.484375,0 -2.65625,1.234375 -2.65625,2.71875 0,1.515625 1.203125,2.6875 2.65625,2.6875 1.453125,0 2.65625,-1.171875 2.65625,-2.6875 z M 3.171875,-0.125 c -0.703125,0 -1.8125,-0.5625 -1.8125,-2.53125 0,-1.875 1.140625,-2.359375 1.8125,-2.359375 0.671875,0 1.796875,0.5 1.796875,2.359375 0,1.96875 -1.09375,2.53125 -1.796875,2.53125 z m 0,0"
                   style="stroke:none"
                   inkscape:connector-curvature="0" />
              </symbol>
              <symbol
                 id="textext-9e31af2c-5"
                 overflow="visible"
                 style="overflow:visible">
                <path
                   id="path16967"
                   d="M 1.859375,-4.453125 C 1.859375,-4.6875 1.875,-4.796875 1.96875,-4.84375 2.046875,-4.875 2.3125,-4.875 2.5,-4.875 c 0.734375,0 1.578125,0.03125 1.578125,1.09375 0,0.390625 -0.046875,1.109375 -1.34375,1.109375 l -0.875,0 z M 3.625,-2.546875 c 0.6875,-0.171875 1.3125,-0.625 1.3125,-1.234375 0,-0.6875 -0.890625,-1.34375 -2.09375,-1.34375 l -2.390625,0 0,0.25 c 0.65625,0 0.71875,0.0625 0.71875,0.46875 l 0,3.6875 c 0,0.40625 -0.0625,0.46875 -0.71875,0.46875 l 0,0.25 C 0.75,-0.015625 1.21875,-0.03125 1.5,-0.03125 c 0.296875,0 0.8125,0.015625 1.078125,0.03125 l 0,-0.25 c -0.671875,0 -0.71875,-0.0625 -0.71875,-0.46875 l 0,-1.734375 0.890625,0 c 0.25,0 0.515625,0.015625 0.8125,0.3125 0.21875,0.234375 0.21875,0.46875 0.21875,0.90625 0,0.5625 0,0.734375 0.3125,1.046875 0.1875,0.171875 0.578125,0.328125 1.03125,0.328125 0.640625,0 0.78125,-0.625 0.78125,-0.8125 0,-0.0625 0,-0.15625 -0.125,-0.15625 -0.109375,0 -0.125,0.09375 -0.125,0.125 -0.0625,0.609375 -0.421875,0.625 -0.5,0.625 -0.1875,0 -0.28125,-0.125 -0.34375,-0.234375 C 4.734375,-0.484375 4.671875,-0.75 4.546875,-1.390625 4.46875,-1.75 4.359375,-2.25 3.625,-2.546875 z m 0,0"
                   style="stroke:none"
                   inkscape:connector-curvature="0" />
              </symbol>
              <symbol
                 id="textext-9e31af2c-6"
                 overflow="visible"
                 style="overflow:visible">
                <path
                   id="path16970"
                   d="m 5.609375,-4.828125 0.015625,0 0,4.109375 C 5.625,-0.3125 5.578125,-0.25 4.90625,-0.25 l 0,0.25 c 0.203125,-0.015625 0.6875,-0.03125 1.03125,-0.03125 0.359375,0 0.71875,0.015625 1.046875,0.03125 l 0,-0.25 c -0.671875,0 -0.71875,-0.0625 -0.71875,-0.46875 l 0,-3.6875 c 0,-0.40625 0.046875,-0.46875 0.71875,-0.46875 l 0,-0.25 -1.21875,0 c -0.21875,0 -0.25,0 -0.328125,0.1875 L 3.734375,-0.75 2.015625,-4.9375 C 1.9375,-5.125 1.890625,-5.125 1.671875,-5.125 l -1.203125,0 0,0.25 c 0.671875,0 0.71875,0.0625 0.71875,0.46875 l 0,3.40625 c 0,0.21875 0,0.75 -0.71875,0.75 l 0,0.25 C 0.671875,-0.015625 1.125,-0.03125 1.328125,-0.03125 1.46875,-0.03125 1.9375,-0.015625 2.1875,0 l 0,-0.25 C 1.46875,-0.25 1.46875,-0.78125 1.46875,-1 l 0,-3.765625 1.875,4.59375 C 3.375,-0.09375 3.421875,0 3.53125,0 3.625,0 3.671875,-0.09375 3.71875,-0.171875 z m 0,0"
                   style="stroke:none"
                   inkscape:connector-curvature="0" />
              </symbol>
            </g>
          </defs>
          <g
             id="textext-9e31af2c-7">
            <g
               id="g16973"
               style="fill:#000000;fill-opacity:1">
              <use
                 id="use16975"
                 y="134.765"
                 x="223.43201"
                 xlink:href="#textext-9e31af2c-0"
                 width="744.09448"
                 height="1052.3622" />
              <use
                 id="use16977"
                 y="134.765"
                 x="229.54207"
                 xlink:href="#textext-9e31af2c-1"
                 width="744.09448"
                 height="1052.3622" />
              <use
                 id="use16979"
                 y="134.765"
                 x="235.65213"
                 xlink:href="#textext-9e31af2c-2"
                 width="744.09448"
                 height="1052.3622" />
              <use
                 id="use16981"
                 y="134.765"
                 x="238.66283"
                 xlink:href="#textext-9e31af2c-3"
                 width="744.09448"
                 height="1052.3622" />
            </g>
            <g
               id="g16983"
               style="fill:#000000;fill-opacity:1">
              <use
                 id="use16985"
                 y="134.765"
                 x="243.77962"
                 xlink:href="#textext-9e31af2c-4"
                 width="744.09448"
                 height="1052.3622" />
              <use
                 id="use16987"
                 y="134.765"
                 x="250.11185"
                 xlink:href="#textext-9e31af2c-5"
                 width="744.09448"
                 height="1052.3622" />
              <use
                 id="use16989"
                 y="134.765"
                 x="256.11133"
                 xlink:href="#textext-9e31af2c-6"
                 width="744.09448"
                 height="1052.3622" />
            </g>
          </g>
        </g>
      </g>
      <g
         id="g3529"
         transform="matrix(3,0,0,3,59.043298,-122.67997)"
         ns0:preamble=""
         ns0:text="$[x]_f$">
        <defs
           id="defs3531">
          <g
             id="g3533">
            <symbol
               id="textext-c70cfc3e-0"
               overflow="visible">
              <path
                 id="path3536"
                 d="M 2.546875 2.5 L 2.546875 2.09375 L 1.578125 2.09375 L 1.578125 -7.078125 L 2.546875 -7.078125 L 2.546875 -7.484375 L 1.171875 -7.484375 L 1.171875 2.5 Z M 2.546875 2.5 "
                 style="stroke:none;" />
            </symbol>
            <symbol
               id="textext-c70cfc3e-1"
               overflow="visible">
              <path
                 id="path3539"
                 d="M 1.578125 -7.484375 L 0.21875 -7.484375 L 0.21875 -7.078125 L 1.1875 -7.078125 L 1.1875 2.09375 L 0.21875 2.09375 L 0.21875 2.5 L 1.578125 2.5 Z M 1.578125 -7.484375 "
                 style="stroke:none;" />
            </symbol>
            <symbol
               id="textext-c70cfc3e-2"
               overflow="visible">
              <path
                 id="path3542"
                 d="M 3.328125 -3.015625 C 3.390625 -3.265625 3.625 -4.1875 4.3125 -4.1875 C 4.359375 -4.1875 4.609375 -4.1875 4.8125 -4.0625 C 4.53125 -4 4.34375 -3.765625 4.34375 -3.515625 C 4.34375 -3.359375 4.453125 -3.171875 4.71875 -3.171875 C 4.9375 -3.171875 5.25 -3.34375 5.25 -3.75 C 5.25 -4.265625 4.671875 -4.40625 4.328125 -4.40625 C 3.75 -4.40625 3.40625 -3.875 3.28125 -3.65625 C 3.03125 -4.3125 2.5 -4.40625 2.203125 -4.40625 C 1.171875 -4.40625 0.59375 -3.125 0.59375 -2.875 C 0.59375 -2.765625 0.703125 -2.765625 0.71875 -2.765625 C 0.796875 -2.765625 0.828125 -2.796875 0.84375 -2.875 C 1.1875 -3.9375 1.84375 -4.1875 2.1875 -4.1875 C 2.375 -4.1875 2.71875 -4.09375 2.71875 -3.515625 C 2.71875 -3.203125 2.546875 -2.546875 2.1875 -1.140625 C 2.03125 -0.53125 1.671875 -0.109375 1.234375 -0.109375 C 1.171875 -0.109375 0.953125 -0.109375 0.734375 -0.234375 C 0.984375 -0.296875 1.203125 -0.5 1.203125 -0.78125 C 1.203125 -1.046875 0.984375 -1.125 0.84375 -1.125 C 0.53125 -1.125 0.296875 -0.875 0.296875 -0.546875 C 0.296875 -0.09375 0.78125 0.109375 1.21875 0.109375 C 1.890625 0.109375 2.25 -0.59375 2.265625 -0.640625 C 2.390625 -0.28125 2.75 0.109375 3.34375 0.109375 C 4.375 0.109375 4.9375 -1.171875 4.9375 -1.421875 C 4.9375 -1.53125 4.859375 -1.53125 4.828125 -1.53125 C 4.734375 -1.53125 4.71875 -1.484375 4.6875 -1.421875 C 4.359375 -0.34375 3.6875 -0.109375 3.375 -0.109375 C 2.984375 -0.109375 2.828125 -0.421875 2.828125 -0.765625 C 2.828125 -0.984375 2.875 -1.203125 2.984375 -1.640625 Z M 3.328125 -3.015625 "
                 style="stroke:none;" />
            </symbol>
            <symbol
               id="textext-c70cfc3e-3"
               overflow="visible">
              <path
                 id="path3545"
                 d="M 2.84375 -2.75 L 3.515625 -2.75 C 3.65625 -2.75 3.75 -2.75 3.75 -2.90625 C 3.75 -3 3.65625 -3 3.53125 -3 L 2.890625 -3 C 3.046875 -3.890625 3.09375 -4.203125 3.15625 -4.40625 C 3.1875 -4.5625 3.34375 -4.703125 3.515625 -4.703125 C 3.515625 -4.703125 3.703125 -4.703125 3.84375 -4.625 C 3.546875 -4.53125 3.53125 -4.28125 3.53125 -4.25 C 3.53125 -4.09375 3.65625 -3.984375 3.8125 -3.984375 C 4 -3.984375 4.203125 -4.140625 4.203125 -4.40625 C 4.203125 -4.734375 3.875 -4.90625 3.515625 -4.90625 C 3.203125 -4.90625 2.859375 -4.734375 2.671875 -4.390625 C 2.53125 -4.125 2.484375 -3.8125 2.328125 -3 L 1.78125 -3 C 1.640625 -3 1.546875 -3 1.546875 -2.84375 C 1.546875 -2.75 1.640625 -2.75 1.765625 -2.75 L 2.28125 -2.75 C 2.28125 -2.703125 1.84375 -0.203125 1.671875 0.546875 C 1.640625 0.703125 1.515625 1.21875 1.1875 1.21875 C 1.171875 1.21875 1.015625 1.21875 0.875 1.140625 C 1.15625 1.046875 1.1875 0.796875 1.1875 0.765625 C 1.1875 0.609375 1.0625 0.5 0.90625 0.5 C 0.71875 0.5 0.515625 0.65625 0.515625 0.921875 C 0.515625 1.234375 0.84375 1.421875 1.1875 1.421875 C 1.625 1.421875 1.9375 0.96875 2.015625 0.8125 C 2.265625 0.34375 2.4375 -0.515625 2.453125 -0.59375 Z M 2.84375 -2.75 "
                 style="stroke:none;" />
            </symbol>
          </g>
        </defs>
        <g
           id="textext-c70cfc3e-4">
          <g
             id="g3548"
             style="fill:rgb(0%,0%,0%);fill-opacity:1;">
            <use
               id="use3550"
               y="134.765"
               x="223.432"
               xlink:href="#textext-c70cfc3e-0" />
          </g>
          <g
             id="g3552"
             style="fill:rgb(0%,0%,0%);fill-opacity:1;">
            <use
               id="use3554"
               y="134.765"
               x="226.2"
               xlink:href="#textext-c70cfc3e-2" />
          </g>
          <g
             id="g3556"
             style="fill:rgb(0%,0%,0%);fill-opacity:1;">
            <use
               id="use3558"
               y="134.765"
               x="231.893"
               xlink:href="#textext-c70cfc3e-1" />
          </g>
          <g
             id="g3560"
             style="fill:rgb(0%,0%,0%);fill-opacity:1;">
            <use
               id="use3562"
               y="136.259"
               x="234.661"
               xlink:href="#textext-c70cfc3e-3" />
          </g>
        </g>
      </g>
      <g
         ns0:text="$[f(x)]$"
         ns0:preamble=""
         transform="matrix(3,0,0,3,-158.59654,-123.59172)"
         id="g3907">
        <defs
           id="defs3909">
          <g
             id="g3911">
            <symbol
               style="overflow:visible"
               overflow="visible"
               id="textext-000f7b73-0">
              <path
                 inkscape:connector-curvature="0"
                 style="stroke:none"
                 d="m 2.546875,2.5 0,-0.40625 -0.96875,0 0,-9.171875 0.96875,0 0,-0.40625 -1.375,0 0,9.984375 z m 0,0"
                 id="path3914" />
            </symbol>
            <symbol
               style="overflow:visible"
               overflow="visible"
               id="textext-000f7b73-1">
              <path
                 inkscape:connector-curvature="0"
                 style="stroke:none"
                 d="m 3.296875,2.390625 c 0,-0.03125 0,-0.046875 -0.171875,-0.21875 C 1.890625,0.921875 1.5625,-0.96875 1.5625,-2.5 c 0,-1.734375 0.375,-3.46875 1.609375,-4.703125 0.125,-0.125 0.125,-0.140625 0.125,-0.171875 0,-0.078125 -0.03125,-0.109375 -0.09375,-0.109375 -0.109375,0 -1,0.6875 -1.59375,1.953125 -0.5,1.09375 -0.625,2.203125 -0.625,3.03125 0,0.78125 0.109375,1.984375 0.65625,3.125 C 2.25,1.84375 3.09375,2.5 3.203125,2.5 c 0.0625,0 0.09375,-0.03125 0.09375,-0.109375 z m 0,0"
                 id="path3917" />
            </symbol>
            <symbol
               style="overflow:visible"
               overflow="visible"
               id="textext-000f7b73-2">
              <path
                 inkscape:connector-curvature="0"
                 style="stroke:none"
                 d="m 2.875,-2.5 c 0,-0.765625 -0.109375,-1.96875 -0.65625,-3.109375 -0.59375,-1.21875 -1.453125,-1.875 -1.546875,-1.875 -0.0625,0 -0.109375,0.046875 -0.109375,0.109375 0,0.03125 0,0.046875 0.1875,0.234375 0.984375,0.984375 1.546875,2.5625 1.546875,4.640625 0,1.71875 -0.359375,3.46875 -1.59375,4.71875 C 0.5625,2.34375 0.5625,2.359375 0.5625,2.390625 0.5625,2.453125 0.609375,2.5 0.671875,2.5 0.765625,2.5 1.671875,1.8125 2.25,0.546875 2.765625,-0.546875 2.875,-1.65625 2.875,-2.5 z m 0,0"
                 id="path3920" />
            </symbol>
            <symbol
               style="overflow:visible"
               overflow="visible"
               id="textext-000f7b73-3">
              <path
                 inkscape:connector-curvature="0"
                 style="stroke:none"
                 d="m 1.578125,-7.484375 -1.359375,0 0,0.40625 0.96875,0 0,9.171875 -0.96875,0 0,0.40625 1.359375,0 z m 0,0"
                 id="path3923" />
            </symbol>
            <symbol
               style="overflow:visible"
               overflow="visible"
               id="textext-000f7b73-4">
              <path
                 inkscape:connector-curvature="0"
                 style="stroke:none"
                 d="m 3.65625,-3.984375 0.859375,0 c 0.203125,0 0.296875,0 0.296875,-0.203125 0,-0.109375 -0.09375,-0.109375 -0.265625,-0.109375 l -0.828125,0 0.203125,-1.140625 c 0.046875,-0.203125 0.1875,-0.90625 0.25,-1.03125 0.078125,-0.1875 0.25,-0.34375 0.46875,-0.34375 0.03125,0 0.296875,0 0.484375,0.1875 -0.4375,0.03125 -0.546875,0.390625 -0.546875,0.53125 0,0.234375 0.1875,0.359375 0.375,0.359375 C 5.21875,-5.734375 5.5,-5.96875 5.5,-6.34375 c 0,-0.453125 -0.453125,-0.6875 -0.859375,-0.6875 -0.34375,0 -0.96875,0.1875 -1.265625,1.171875 -0.0625,0.203125 -0.09375,0.3125 -0.328125,1.5625 l -0.6875,0 c -0.203125,0 -0.3125,0 -0.3125,0.1875 0,0.125 0.09375,0.125 0.28125,0.125 l 0.65625,0 -0.734375,3.9375 c -0.1875,0.96875 -0.359375,1.875 -0.875,1.875 -0.046875,0 -0.28125,0 -0.484375,-0.1875 C 1.359375,1.609375 1.453125,1.25 1.453125,1.109375 1.453125,0.875 1.265625,0.75 1.078125,0.75 0.8125,0.75 0.53125,0.984375 0.53125,1.359375 c 0,0.4375 0.4375,0.6875 0.84375,0.6875 0.546875,0 0.953125,-0.59375 1.125,-0.96875 0.328125,-0.625 0.546875,-1.828125 0.5625,-1.90625 z m 0,0"
                 id="path3926" />
            </symbol>
            <symbol
               style="overflow:visible"
               overflow="visible"
               id="textext-000f7b73-5">
              <path
                 inkscape:connector-curvature="0"
                 style="stroke:none"
                 d="M 3.328125,-3.015625 C 3.390625,-3.265625 3.625,-4.1875 4.3125,-4.1875 c 0.046875,0 0.296875,0 0.5,0.125 C 4.53125,-4 4.34375,-3.765625 4.34375,-3.515625 c 0,0.15625 0.109375,0.34375 0.375,0.34375 0.21875,0 0.53125,-0.171875 0.53125,-0.578125 0,-0.515625 -0.578125,-0.65625 -0.921875,-0.65625 -0.578125,0 -0.921875,0.53125 -1.046875,0.75 -0.25,-0.65625 -0.78125,-0.75 -1.078125,-0.75 -1.03125,0 -1.609375,1.28125 -1.609375,1.53125 0,0.109375 0.109375,0.109375 0.125,0.109375 0.078125,0 0.109375,-0.03125 0.125,-0.109375 0.34375,-1.0625 1,-1.3125 1.34375,-1.3125 0.1875,0 0.53125,0.09375 0.53125,0.671875 0,0.3125 -0.171875,0.96875 -0.53125,2.375 -0.15625,0.609375 -0.515625,1.03125 -0.953125,1.03125 -0.0625,0 -0.28125,0 -0.5,-0.125 0.25,-0.0625 0.46875,-0.265625 0.46875,-0.546875 0,-0.265625 -0.21875,-0.34375 -0.359375,-0.34375 -0.3125,0 -0.546875,0.25 -0.546875,0.578125 0,0.453125 0.484375,0.65625 0.921875,0.65625 0.671875,0 1.03125,-0.703125 1.046875,-0.75 0.125,0.359375 0.484375,0.75 1.078125,0.75 1.03125,0 1.59375,-1.28125 1.59375,-1.53125 0,-0.109375 -0.078125,-0.109375 -0.109375,-0.109375 -0.09375,0 -0.109375,0.046875 -0.140625,0.109375 -0.328125,1.078125 -1,1.3125 -1.3125,1.3125 -0.390625,0 -0.546875,-0.3125 -0.546875,-0.65625 0,-0.21875 0.046875,-0.4375 0.15625,-0.875 z m 0,0"
                 id="path3929" />
            </symbol>
          </g>
        </defs>
        <g
           id="textext-000f7b73-6">
          <g
             style="fill:#000000;fill-opacity:1"
             id="g3932">
            <use
               height="103"
               width="805.47314"
               xlink:href="#textext-000f7b73-0"
               x="223.43201"
               y="134.765"
               id="use3934" />
          </g>
          <g
             style="fill:#000000;fill-opacity:1"
             id="g3936">
            <use
               height="103"
               width="805.47314"
               xlink:href="#textext-000f7b73-4"
               x="226.2"
               y="134.765"
               id="use3938" />
          </g>
          <g
             style="fill:#000000;fill-opacity:1"
             id="g3940">
            <use
               height="103"
               width="805.47314"
               xlink:href="#textext-000f7b73-1"
               x="232.149"
               y="134.765"
               id="use3942" />
          </g>
          <g
             style="fill:#000000;fill-opacity:1"
             id="g3944">
            <use
               height="103"
               width="805.47314"
               xlink:href="#textext-000f7b73-5"
               x="236.024"
               y="134.765"
               id="use3946" />
          </g>
          <g
             style="fill:#000000;fill-opacity:1"
             id="g3948">
            <use
               height="103"
               width="805.47314"
               xlink:href="#textext-000f7b73-2"
               x="241.718"
               y="134.765"
               id="use3950" />
            <use
               height="103"
               width="805.47314"
               xlink:href="#textext-000f7b73-3"
               x="245.59245"
               y="134.765"
               id="use3952" />
          </g>
        </g>
      </g>
    </g>
  </g>
</svg>
