<?xml version="1.0" encoding="UTF-8" standalone="no"?>
<!-- Created with Inkscape (http://www.inkscape.org/) -->

<svg
   xmlns:ns0="http://www.iki.fi/pav/software/textext/"
   xmlns:dc="http://purl.org/dc/elements/1.1/"
   xmlns:cc="http://creativecommons.org/ns#"
   xmlns:rdf="http://www.w3.org/1999/02/22-rdf-syntax-ns#"
   xmlns:svg="http://www.w3.org/2000/svg"
   xmlns="http://www.w3.org/2000/svg"
   xmlns:xlink="http://www.w3.org/1999/xlink"
   xmlns:sodipodi="http://sodipodi.sourceforge.net/DTD/sodipodi-0.dtd"
   xmlns:inkscape="http://www.inkscape.org/namespaces/inkscape"
   width="779.96875"
   height="422.7944"
   id="svg2"
   version="1.1"
   inkscape:version="0.48.2 r9819"
   sodipodi:docname="horn-I.svg"
   inkscape:export-filename="/home/boisgera/Bureau/boisgera/DISKS/VOYAGER/ENS/TRAITEMENT_DU_SIGNAL/2011/SLIDES/PYTHON/bitstream.png"
   inkscape:export-xdpi="300"
   inkscape:export-ydpi="300">
  <sodipodi:namedview
     id="base"
     pagecolor="#ffffff"
     bordercolor="#666666"
     borderopacity="1.0"
     inkscape:pageopacity="0.0"
     inkscape:pageshadow="2"
     inkscape:zoom="0.83083333"
     inkscape:cx="332.51514"
     inkscape:cy="2.3295219"
     inkscape:document-units="px"
     inkscape:current-layer="layer1"
     showgrid="false"
     inkscape:window-width="1920"
     inkscape:window-height="1176"
     inkscape:window-x="0"
     inkscape:window-y="24"
     inkscape:window-maximized="1"
     borderlayer="true"
     fit-margin-top="0"
     fit-margin-left="0"
     fit-margin-right="0"
     fit-margin-bottom="0" />
  <defs
     id="defs4">
    <marker
       inkscape:stockid="TriangleOutM"
       orient="auto"
       refY="0"
       refX="0"
       id="TriangleOutM"
       style="overflow:visible">
      <path
         id="path5639"
         d="m 5.77,0 -8.65,5 0,-10 8.65,5 z"
         style="fill-rule:evenodd;stroke:#000000;stroke-width:1pt;marker-start:none"
         transform="scale(0.4,0.4)"
         inkscape:connector-curvature="0" />
    </marker>
    <marker
       style="overflow:visible"
       id="Arrow2Mend"
       refX="0"
       refY="0"
       orient="auto"
       inkscape:stockid="Arrow2Mend">
      <path
         transform="scale(-0.6,-0.6)"
         d="M 8.7185878,4.0337352 -2.2072895,0.01601326 8.7185884,-4.0017078 c -1.7454984,2.3720609 -1.7354408,5.6174519 -6e-7,8.035443 z"
         style="font-size:12px;fill-rule:evenodd;stroke-width:0.625;stroke-linejoin:round"
         id="path5793"
         inkscape:connector-curvature="0" />
    </marker>
    <inkscape:perspective
       sodipodi:type="inkscape:persp3d"
       inkscape:vp_x="0 : 526.18109 : 1"
       inkscape:vp_y="0 : 1000 : 0"
       inkscape:vp_z="744.09448 : 526.18109 : 1"
       inkscape:persp3d-origin="372.04724 : 350.78739 : 1"
       id="perspective10" />
    <inkscape:perspective
       id="perspective2849"
       inkscape:persp3d-origin="0.5 : 0.33333333 : 1"
       inkscape:vp_z="1 : 0.5 : 1"
       inkscape:vp_y="0 : 1000 : 0"
       inkscape:vp_x="0 : 0.5 : 1"
       sodipodi:type="inkscape:persp3d" />
    <inkscape:perspective
       sodipodi:type="inkscape:persp3d"
       inkscape:vp_x="0 : 0.5 : 1"
       inkscape:vp_y="0 : 1000 : 0"
       inkscape:vp_z="1 : 0.5 : 1"
       inkscape:persp3d-origin="0.5 : 0.33333333 : 1"
       id="perspective3854" />
    <inkscape:perspective
       sodipodi:type="inkscape:persp3d"
       inkscape:vp_x="0 : 0.5 : 1"
       inkscape:vp_y="0 : 1000 : 0"
       inkscape:vp_z="1 : 0.5 : 1"
       inkscape:persp3d-origin="0.5 : 0.33333333 : 1"
       id="perspective3899" />
    <inkscape:perspective
       sodipodi:type="inkscape:persp3d"
       inkscape:vp_x="0 : 0.5 : 1"
       inkscape:vp_y="0 : 1000 : 0"
       inkscape:vp_z="1 : 0.5 : 1"
       inkscape:persp3d-origin="0.5 : 0.33333333 : 1"
       id="perspective3945" />
    <inkscape:perspective
       sodipodi:type="inkscape:persp3d"
       inkscape:vp_x="0 : 0.5 : 1"
       inkscape:vp_y="0 : 1000 : 0"
       inkscape:vp_z="1 : 0.5 : 1"
       inkscape:persp3d-origin="0.5 : 0.33333333 : 1"
       id="perspective3967" />
    <inkscape:perspective
       sodipodi:type="inkscape:persp3d"
       inkscape:vp_x="0 : 0.5 : 1"
       inkscape:vp_y="0 : 1000 : 0"
       inkscape:vp_z="1 : 0.5 : 1"
       inkscape:persp3d-origin="0.5 : 0.33333333 : 1"
       id="perspective4005" />
    <inkscape:perspective
       sodipodi:type="inkscape:persp3d"
       inkscape:vp_x="0 : 0.5 : 1"
       inkscape:vp_y="0 : 1000 : 0"
       inkscape:vp_z="1 : 0.5 : 1"
       inkscape:persp3d-origin="0.5 : 0.33333333 : 1"
       id="perspective4040" />
    <clipPath
       id="p013ba697daa24e9760c6107becc19328">
      <rect
         id="rect5768"
         height="73.70079"
         width="263.62204"
         y="11.338583"
         x="42.519684" />
    </clipPath>
    <clipPath
       id="clipPath6008">
      <rect
         id="rect6010"
         height="73.70079"
         width="263.62204"
         y="11.338583"
         x="42.519684" />
    </clipPath>
    <clipPath
       id="clipPath6012">
      <rect
         id="rect6014"
         height="73.70079"
         width="263.62204"
         y="11.338583"
         x="42.519684" />
    </clipPath>
    <clipPath
       id="clipPath6016">
      <rect
         id="rect6018"
         height="73.70079"
         width="263.62204"
         y="11.338583"
         x="42.519684" />
    </clipPath>
    <clipPath
       id="clipPath6020">
      <rect
         id="rect6022"
         height="73.70079"
         width="263.62204"
         y="11.338583"
         x="42.519684" />
    </clipPath>
    <clipPath
       id="clipPath6024">
      <rect
         id="rect6026"
         height="73.70079"
         width="263.62204"
         y="11.338583"
         x="42.519684" />
    </clipPath>
    <clipPath
       id="clipPath6028">
      <rect
         id="rect6030"
         height="73.70079"
         width="263.62204"
         y="11.338583"
         x="42.519684" />
    </clipPath>
    <clipPath
       id="clipPath6032">
      <rect
         id="rect6034"
         height="73.70079"
         width="263.62204"
         y="11.338583"
         x="42.519684" />
    </clipPath>
    <clipPath
       id="clipPath6036">
      <rect
         id="rect6038"
         height="73.70079"
         width="263.62204"
         y="11.338583"
         x="42.519684" />
    </clipPath>
    <clipPath
       id="clipPath6040">
      <rect
         id="rect6042"
         height="73.70079"
         width="263.62204"
         y="11.338583"
         x="42.519684" />
    </clipPath>
    <marker
       style="overflow:visible"
       id="Arrow2Mend-1"
       refX="0"
       refY="0"
       orient="auto"
       inkscape:stockid="Arrow2Mend">
      <path
         transform="scale(-0.6,-0.6)"
         d="M 8.7185878,4.0337352 -2.2072895,0.01601326 8.7185884,-4.0017078 c -1.7454984,2.3720609 -1.7354408,5.6174519 -6e-7,8.035443 z"
         style="font-size:12px;fill-rule:evenodd;stroke-width:0.625;stroke-linejoin:round"
         id="path5793-5"
         inkscape:connector-curvature="0" />
    </marker>
    <marker
       inkscape:stockid="TriangleOutM"
       orient="auto"
       refY="0"
       refX="0"
       id="TriangleOutM-4"
       style="overflow:visible">
      <path
         inkscape:connector-curvature="0"
         id="path5639-9"
         d="m 5.77,0 -8.65,5 0,-10 8.65,5 z"
         style="fill-rule:evenodd;stroke:#000000;stroke-width:1pt;marker-start:none"
         transform="scale(0.4,0.4)" />
    </marker>
    <marker
       inkscape:stockid="TriangleOutM"
       orient="auto"
       refY="0"
       refX="0"
       id="TriangleOutM-46"
       style="overflow:visible">
      <path
         inkscape:connector-curvature="0"
         id="path5639-0"
         d="m 5.77,0 -8.65,5 0,-10 8.65,5 z"
         style="fill-rule:evenodd;stroke:#000000;stroke-width:1pt;marker-start:none"
         transform="scale(0.4,0.4)" />
    </marker>
  </defs>
  <metadata
     id="metadata7">
    <rdf:RDF>
      <cc:Work
         rdf:about="">
        <dc:format>image/svg+xml</dc:format>
        <dc:type
           rdf:resource="http://purl.org/dc/dcmitype/StillImage" />
        <dc:title />
      </cc:Work>
    </rdf:RDF>
  </metadata>
  <g
     inkscape:label="Calque 1"
     inkscape:groupmode="layer"
     id="layer1"
     transform="translate(-466.28125,-176.33059)">
    <text
       transform="translate(0,-147.63782)"
       sodipodi:linespacing="125%"
       id="text5171"
       y="1305.9434"
       x="-145.18169"
       style="font-size:72px;font-style:normal;font-variant:normal;font-weight:normal;font-stretch:normal;line-height:125%;letter-spacing:0px;word-spacing:0px;fill:#000000;fill-opacity:1;stroke:none;font-family:Cabin;-inkscape-font-specification:Cabin"
       xml:space="preserve"><tspan
         y="1305.9434"
         x="-145.18169"
         id="tspan5173"
         sodipodi:role="line" /></text>
    <g
       id="g5201">
      <flowRoot
         xml:space="preserve"
         id="flowRoot5193"
         style="font-size:72px;font-style:normal;font-variant:normal;font-weight:normal;font-stretch:normal;line-height:125%;letter-spacing:0px;word-spacing:0px;fill:#000000;fill-opacity:1;stroke:none;font-family:Cabin;-inkscape-font-specification:Cabin"><flowRegion
           id="flowRegion5195"><rect
             id="rect5197"
             width="1261.5112"
             height="443.39273"
             x="-1392.9595"
             y="291.63345" /></flowRegion><flowPara
           id="flowPara5199" /></flowRoot>    </g>
    <flowRoot
       xml:space="preserve"
       id="flowRoot3326"
       style="font-size:72px;font-style:normal;font-variant:normal;font-weight:normal;font-stretch:normal;line-height:125%;letter-spacing:0px;word-spacing:0px;fill:#000000;fill-opacity:1;stroke:none;font-family:Linux Biolinum O;-inkscape-font-specification:Linux Biolinum O"><flowRegion
         id="flowRegion3328"><rect
           id="rect3330"
           width="56.895527"
           height="449.27847"
           x="1826.5426"
           y="764.4549" /></flowRegion><flowPara
         id="flowPara3332" /></flowRoot>    <flowRoot
       xml:space="preserve"
       id="flowRoot3354"
       style="font-size:72px;font-style:normal;font-variant:normal;font-weight:normal;font-stretch:normal;line-height:125%;letter-spacing:0px;word-spacing:0px;fill:#000000;fill-opacity:1;stroke:none;font-family:Linux Biolinum O;-inkscape-font-specification:Linux Biolinum O"><flowRegion
         id="flowRegion3356"><rect
           id="rect3358"
           width="339.41125"
           height="141.25786"
           x="1981.5339"
           y="570.22534" /></flowRegion><flowPara
         id="flowPara3360" /></flowRoot>    <text
       transform="translate(0,-147.63782)"
       sodipodi:linespacing="125%"
       id="text4264"
       y="579.04138"
       x="2203.3411"
       style="font-size:72px;font-style:normal;font-variant:normal;font-weight:normal;font-stretch:normal;line-height:125%;letter-spacing:0px;word-spacing:0px;fill:#000000;fill-opacity:1;stroke:none;font-family:Linux Biolinum O;-inkscape-font-specification:Linux Biolinum O"
       xml:space="preserve"><tspan
         y="579.04138"
         x="2203.3411"
         id="tspan4266"
         sodipodi:role="line" /></text>
    <text
       transform="translate(0,-147.63782)"
       sodipodi:linespacing="125%"
       id="text6168"
       y="1195.7449"
       x="2272.2458"
       style="font-size:72px;font-style:normal;font-variant:normal;font-weight:normal;font-stretch:normal;line-height:125%;letter-spacing:0px;word-spacing:0px;fill:#000000;fill-opacity:1;stroke:none;font-family:Linux Biolinum O;-inkscape-font-specification:Linux Biolinum O"
       xml:space="preserve"><tspan
         y="1195.7449"
         x="2272.2458"
         id="tspan6170"
         sodipodi:role="line" /></text>
    <text
       transform="translate(0,-147.63782)"
       sodipodi:linespacing="125%"
       id="text8015"
       y="564.789"
       x="3636.8201"
       style="font-size:72px;font-style:normal;font-variant:normal;font-weight:normal;font-stretch:normal;line-height:125%;letter-spacing:0px;word-spacing:0px;fill:#000000;fill-opacity:1;stroke:none;font-family:Yanone Kaffeesatz;-inkscape-font-specification:Yanone Kaffeesatz"
       xml:space="preserve"><tspan
         y="564.789"
         x="3636.8201"
         id="tspan8017"
         sodipodi:role="line" /></text>
    <flowRoot
       transform="translate(0,-147.63782)"
       style="font-size:96px;font-style:normal;font-variant:normal;font-weight:normal;font-stretch:normal;line-height:125%;letter-spacing:0px;word-spacing:0px;fill:#000000;fill-opacity:1;stroke:none;font-family:Yanone Kaffeesatz;-inkscape-font-specification:Yanone Kaffeesatz"
       id="flowRoot3256"
       xml:space="preserve"><flowRegion
         id="flowRegion3258"><rect
           y="-491.36783"
           x="2810.0977"
           height="178.23831"
           width="1334.8912"
           id="rect3260" /></flowRegion><flowPara
         id="flowPara3262" /></flowRoot>    <text
       transform="translate(0,-147.63782)"
       sodipodi:linespacing="125%"
       id="text5663"
       y="894.3045"
       x="497.21555"
       style="font-size:96px;font-style:normal;font-variant:normal;font-weight:normal;font-stretch:normal;line-height:125%;letter-spacing:0px;word-spacing:0px;fill:#000000;fill-opacity:1;stroke:none;font-family:Yanone Kaffeesatz;-inkscape-font-specification:Yanone Kaffeesatz"
       xml:space="preserve"><tspan
         y="894.3045"
         x="497.21555"
         id="tspan5665"
         sodipodi:role="line" /></text>
    <text
       transform="translate(0,-147.63782)"
       sodipodi:linespacing="125%"
       id="text5726"
       y="822.4845"
       x="819.48492"
       style="font-size:96px;font-style:normal;font-variant:normal;font-weight:normal;font-stretch:normal;line-height:125%;letter-spacing:0px;word-spacing:0px;fill:#000000;fill-opacity:1;stroke:none;font-family:Linux Biolinum O;-inkscape-font-specification:Linux Biolinum O"
       xml:space="preserve"><tspan
         y="822.4845"
         x="819.48492"
         id="tspan5728"
         sodipodi:role="line" /></text>
    <text
       transform="translate(0,-147.63782)"
       sodipodi:linespacing="125%"
       id="text6186"
       y="311.92361"
       x="-408.87973"
       style="font-size:96px;font-style:normal;font-variant:normal;font-weight:normal;font-stretch:normal;line-height:125%;letter-spacing:0px;word-spacing:0px;fill:#000000;fill-opacity:1;stroke:none;font-family:Linux Biolinum O;-inkscape-font-specification:Linux Biolinum O"
       xml:space="preserve"><tspan
         y="311.92361"
         x="-408.87973"
         id="tspan6188"
         sodipodi:role="line" /></text>
    <text
       transform="translate(0,-147.63782)"
       sodipodi:linespacing="125%"
       id="text3970"
       y="168.68549"
       x="-218.76369"
       style="font-size:48px;font-style:normal;font-variant:normal;font-weight:normal;font-stretch:normal;line-height:125%;letter-spacing:0px;word-spacing:0px;fill:#000000;fill-opacity:1;stroke:none;font-family:FastBrush Beta09;-inkscape-font-specification:FastBrush Beta09"
       xml:space="preserve"><tspan
         y="168.68549"
         x="-218.76369"
         id="tspan3972"
         sodipodi:role="line" /></text>
    <text
       transform="translate(0,-147.63782)"
       sodipodi:linespacing="125%"
       id="text5456"
       y="580.16956"
       x="-992.24957"
       style="font-size:48px;font-style:normal;font-variant:normal;font-weight:normal;font-stretch:normal;line-height:125%;letter-spacing:0px;word-spacing:0px;fill:#000000;fill-opacity:1;stroke:none;font-family:FastBrush Beta09;-inkscape-font-specification:FastBrush Beta09"
       xml:space="preserve"><tspan
         y="580.16956"
         x="-992.24957"
         id="tspan5458"
         sodipodi:role="line" /></text>
    <text
       transform="translate(0,-147.63782)"
       sodipodi:linespacing="125%"
       id="text7508"
       y="-285.25027"
       x="365.96994"
       style="font-size:72px;font-style:normal;font-variant:normal;font-weight:normal;font-stretch:normal;line-height:125%;letter-spacing:0px;word-spacing:0px;fill:#000000;fill-opacity:1;stroke:none;font-family:FastBrush Beta09;-inkscape-font-specification:FastBrush Beta09"
       xml:space="preserve"><tspan
         y="-285.25027"
         x="365.96994"
         id="tspan7510"
         sodipodi:role="line" /></text>
    <text
       transform="translate(0,-147.63782)"
       sodipodi:linespacing="125%"
       id="text7769"
       y="80.719666"
       x="785.36615"
       style="font-size:72px;font-style:normal;font-variant:normal;font-weight:normal;font-stretch:normal;line-height:125%;letter-spacing:0px;word-spacing:0px;fill:#000000;fill-opacity:1;stroke:none;font-family:FastBrush Beta09;-inkscape-font-specification:FastBrush Beta09"
       xml:space="preserve"><tspan
         id="tspan7771"
         sodipodi:role="line"
         x="785.36615"
         y="80.719666" /></text>
    <text
       transform="translate(0,-147.63782)"
       sodipodi:linespacing="125%"
       id="text4647"
       y="623.5697"
       x="-411.46503"
       style="font-size:72px;font-style:normal;font-variant:normal;font-weight:normal;font-stretch:normal;line-height:125%;letter-spacing:0px;word-spacing:0px;fill:#000000;fill-opacity:1;stroke:none;font-family:Yanone Kaffeesatz;-inkscape-font-specification:Yanone Kaffeesatz"
       xml:space="preserve"><tspan
         id="tspan4649"
         sodipodi:role="line"
         x="-411.46503"
         y="623.5697" /></text>
    <text
       transform="translate(0,-147.63782)"
       sodipodi:linespacing="125%"
       id="text5442"
       y="792.32727"
       x="513.85724"
       style="font-size:72px;font-style:normal;font-variant:normal;font-weight:normal;font-stretch:normal;line-height:125%;letter-spacing:0px;word-spacing:0px;fill:#000000;fill-opacity:1;stroke:none;font-family:Yanone Kaffeesatz;-inkscape-font-specification:Yanone Kaffeesatz"
       xml:space="preserve"><tspan
         id="tspan5444"
         sodipodi:role="line"
         x="513.85724"
         y="792.32727" /></text>
    <flowRoot
       transform="translate(0,-147.63782)"
       style="font-size:72px;font-style:normal;font-variant:normal;font-weight:normal;font-stretch:normal;line-height:125%;letter-spacing:0px;word-spacing:0px;fill:#000000;fill-opacity:1;stroke:none;font-family:Yanone Kaffeesatz;-inkscape-font-specification:Yanone Kaffeesatz"
       id="flowRoot6250"
       xml:space="preserve"><flowRegion
         id="flowRegion6252"><rect
           y="348.62762"
           x="627.6264"
           height="96.703766"
           width="155.48448"
           id="rect6254" /></flowRegion><flowPara
         id="flowPara6256" /></flowRoot>    <text
       transform="translate(0,-147.63782)"
       sodipodi:linespacing="125%"
       id="text3173"
       y="593.23126"
       x="676.92633"
       style="font-size:40px;font-style:normal;font-variant:normal;font-weight:normal;font-stretch:normal;line-height:125%;letter-spacing:0px;word-spacing:0px;fill:#000000;fill-opacity:1;stroke:none;font-family:Linux Libertine O C;-inkscape-font-specification:Linux Libertine O C"
       xml:space="preserve"><tspan
         id="tspan3175"
         sodipodi:role="line"
         x="676.92633"
         y="593.23126" /></text>
    <flowRoot
       style="font-size:40px;font-style:normal;font-variant:normal;font-weight:normal;font-stretch:normal;line-height:125%;letter-spacing:0px;word-spacing:0px;fill:#000000;fill-opacity:1;stroke:none;font-family:Linux Libertine O C;-inkscape-font-specification:Linux Libertine O C"
       id="flowRoot3251"
       xml:space="preserve"><flowRegion
         id="flowRegion3253"><rect
           y="477.56598"
           x="551.78033"
           height="237.01903"
           width="66.365326"
           id="rect3255" /></flowRegion><flowPara
         id="flowPara3257" /></flowRoot>    <g
       id="g6324">
      <path
         style="fill:none;stroke:#000000;stroke-width:5;stroke-linecap:butt;stroke-linejoin:miter;stroke-miterlimit:4;stroke-opacity:1;stroke-dasharray:none"
         d="m 466.7974,339.82457 c 0,0 34.46799,7.32234 214.24273,-13.23972 192.20235,-21.98349 564.49357,-134.80441 564.49357,-134.80441"
         id="path3891"
         inkscape:connector-curvature="0"
         sodipodi:nodetypes="csc" />
      <path
         style="fill:none;stroke:#000000;stroke-width:5;stroke-linecap:butt;stroke-linejoin:miter;stroke-miterlimit:4;stroke-opacity:1;stroke-dasharray:none"
         d="m 468.00101,447.47916 c 0,0 33.26438,-6.11873 213.03912,14.44333 192.2023,21.98349 564.49357,134.80441 564.49357,134.80441"
         id="path3891-8"
         inkscape:connector-curvature="0"
         sodipodi:nodetypes="csc" />
      <path
         sodipodi:nodetypes="cc"
         style="fill:none;stroke:#000000;stroke-width:3;stroke-linecap:butt;stroke-linejoin:miter;stroke-miterlimit:4;stroke-opacity:1;stroke-dasharray:none;marker-end:url(#Arrow2Mend-1)"
         d="m 467.00101,394.2825 765.49649,0"
         id="path3911"
         inkscape:connector-curvature="0" />
      <path
         sodipodi:type="arc"
         style="fill:#a4a4a4;fill-opacity:0.19634705;stroke:#000000;stroke-width:3;stroke-linecap:butt;stroke-miterlimit:4;stroke-opacity:1;stroke-dasharray:none;stroke-dashoffset:0"
         id="path4097"
         sodipodi:cx="1018.2548"
         sodipodi:cy="546.43933"
         sodipodi:rx="32.497494"
         sodipodi:ry="137.21164"
         d="m 1050.7523,546.43933 c 0,75.7799 -14.5496,137.21164 -32.4975,137.21164 -17.9478,0 -32.49747,-61.43174 -32.49747,-137.21164 0,-75.77989 14.54967,-137.21164 32.49747,-137.21164 17.9479,0 32.4975,61.43175 32.4975,137.21164 z"
         transform="translate(0,-152.18566)" />
      <g
         id="g4401"
         transform="matrix(5.25,0,0,5.25,-326.67381,-491.89269)"
         ns0:preamble="/home/boisgera/DISKS/VOYAGER/ENS/TRAITEMENT_DU_SIGNAL/2011/SLIDES/header.tex"
         ns0:text="$A(x)$">
        <defs
           id="defs4403">
          <g
             id="g4405">
            <symbol
               id="textext-0a6d9262-0"
               overflow="visible"
               style="overflow:visible">
              <path
                 id="path4408"
                 d="M 1.78125,-1.140625 C 1.390625,-0.484375 1,-0.34375 0.5625,-0.3125 0.4375,-0.296875 0.34375,-0.296875 0.34375,-0.109375 0.34375,-0.046875 0.40625,0 0.484375,0 0.75,0 1.0625,-0.03125 1.328125,-0.03125 c 0.34375,0 0.6875,0.03125 1,0.03125 0.0625,0 0.1875,0 0.1875,-0.1875 0,-0.109375 -0.078125,-0.125 -0.15625,-0.125 -0.21875,-0.015625 -0.46875,-0.09375 -0.46875,-0.34375 0,-0.125 0.0625,-0.234375 0.140625,-0.375 l 0.765625,-1.265625 2.5,0 c 0.015625,0.203125 0.15625,1.5625 0.15625,1.65625 0,0.296875 -0.515625,0.328125 -0.71875,0.328125 C 4.59375,-0.3125 4.5,-0.3125 4.5,-0.109375 4.5,0 4.609375,0 4.640625,0 5.046875,0 5.46875,-0.03125 5.875,-0.03125 6.125,-0.03125 6.765625,0 7.015625,0 7.0625,0 7.1875,0 7.1875,-0.203125 7.1875,-0.3125 7.09375,-0.3125 6.953125,-0.3125 6.34375,-0.3125 6.34375,-0.375 6.3125,-0.671875 l -0.609375,-6.21875 c -0.015625,-0.203125 -0.015625,-0.25 -0.1875,-0.25 -0.15625,0 -0.203125,0.078125 -0.265625,0.171875 z M 2.984375,-2.609375 4.9375,-5.90625 5.265625,-2.609375 z m 0,0"
                 style="stroke:none"
                 inkscape:connector-curvature="0" />
            </symbol>
            <symbol
               id="textext-0a6d9262-1"
               overflow="visible"
               style="overflow:visible">
              <path
                 id="path4411"
                 d="M 3.328125,-3.015625 C 3.390625,-3.265625 3.625,-4.1875 4.3125,-4.1875 c 0.046875,0 0.296875,0 0.5,0.125 C 4.53125,-4 4.34375,-3.765625 4.34375,-3.515625 c 0,0.15625 0.109375,0.34375 0.375,0.34375 0.21875,0 0.53125,-0.171875 0.53125,-0.578125 0,-0.515625 -0.578125,-0.65625 -0.921875,-0.65625 -0.578125,0 -0.921875,0.53125 -1.046875,0.75 -0.25,-0.65625 -0.78125,-0.75 -1.078125,-0.75 -1.03125,0 -1.609375,1.28125 -1.609375,1.53125 0,0.109375 0.109375,0.109375 0.125,0.109375 0.078125,0 0.109375,-0.03125 0.125,-0.109375 0.34375,-1.0625 1,-1.3125 1.34375,-1.3125 0.1875,0 0.53125,0.09375 0.53125,0.671875 0,0.3125 -0.171875,0.96875 -0.53125,2.375 -0.15625,0.609375 -0.515625,1.03125 -0.953125,1.03125 -0.0625,0 -0.28125,0 -0.5,-0.125 0.25,-0.0625 0.46875,-0.265625 0.46875,-0.546875 0,-0.265625 -0.21875,-0.34375 -0.359375,-0.34375 -0.3125,0 -0.546875,0.25 -0.546875,0.578125 0,0.453125 0.484375,0.65625 0.921875,0.65625 0.671875,0 1.03125,-0.703125 1.046875,-0.75 0.125,0.359375 0.484375,0.75 1.078125,0.75 1.03125,0 1.59375,-1.28125 1.59375,-1.53125 0,-0.109375 -0.078125,-0.109375 -0.109375,-0.109375 -0.09375,0 -0.109375,0.046875 -0.140625,0.109375 -0.328125,1.078125 -1,1.3125 -1.3125,1.3125 -0.390625,0 -0.546875,-0.3125 -0.546875,-0.65625 0,-0.21875 0.046875,-0.4375 0.15625,-0.875 z m 0,0"
                 style="stroke:none"
                 inkscape:connector-curvature="0" />
            </symbol>
            <symbol
               id="textext-0a6d9262-2"
               overflow="visible"
               style="overflow:visible">
              <path
                 id="path4414"
                 d="m 3.296875,2.390625 c 0,-0.03125 0,-0.046875 -0.171875,-0.21875 C 1.890625,0.921875 1.5625,-0.96875 1.5625,-2.5 c 0,-1.734375 0.375,-3.46875 1.609375,-4.703125 0.125,-0.125 0.125,-0.140625 0.125,-0.171875 0,-0.078125 -0.03125,-0.109375 -0.09375,-0.109375 -0.109375,0 -1,0.6875 -1.59375,1.953125 -0.5,1.09375 -0.625,2.203125 -0.625,3.03125 0,0.78125 0.109375,1.984375 0.65625,3.125 C 2.25,1.84375 3.09375,2.5 3.203125,2.5 c 0.0625,0 0.09375,-0.03125 0.09375,-0.109375 z m 0,0"
                 style="stroke:none"
                 inkscape:connector-curvature="0" />
            </symbol>
            <symbol
               id="textext-0a6d9262-3"
               overflow="visible"
               style="overflow:visible">
              <path
                 id="path4417"
                 d="m 2.875,-2.5 c 0,-0.765625 -0.109375,-1.96875 -0.65625,-3.109375 -0.59375,-1.21875 -1.453125,-1.875 -1.546875,-1.875 -0.0625,0 -0.109375,0.046875 -0.109375,0.109375 0,0.03125 0,0.046875 0.1875,0.234375 0.984375,0.984375 1.546875,2.5625 1.546875,4.640625 0,1.71875 -0.359375,3.46875 -1.59375,4.71875 C 0.5625,2.34375 0.5625,2.359375 0.5625,2.390625 0.5625,2.453125 0.609375,2.5 0.671875,2.5 0.765625,2.5 1.671875,1.8125 2.25,0.546875 2.765625,-0.546875 2.875,-1.65625 2.875,-2.5 z m 0,0"
                 style="stroke:none"
                 inkscape:connector-curvature="0" />
            </symbol>
          </g>
        </defs>
        <g
           id="textext-0a6d9262-4">
          <g
             id="g4420"
             style="fill:#000000;fill-opacity:1">
            <use
               id="use4422"
               y="134.765"
               x="223.43201"
               xlink:href="#textext-0a6d9262-0"
               width="1600"
               height="1200" />
          </g>
          <g
             id="g4424"
             style="fill:#000000;fill-opacity:1">
            <use
               id="use4426"
               y="134.765"
               x="230.90401"
               xlink:href="#textext-0a6d9262-2"
               width="1600"
               height="1200" />
          </g>
          <g
             id="g4428"
             style="fill:#000000;fill-opacity:1">
            <use
               id="use4430"
               y="134.765"
               x="234.778"
               xlink:href="#textext-0a6d9262-1"
               width="1600"
               height="1200" />
          </g>
          <g
             id="g4432"
             style="fill:#000000;fill-opacity:1">
            <use
               id="use4434"
               y="134.765"
               x="240.472"
               xlink:href="#textext-0a6d9262-3"
               width="1600"
               height="1200" />
          </g>
        </g>
      </g>
      <g
         transform="matrix(5.25,0,0,5.25,4.6860076,-273.43757)"
         ns0:text="$x$"
         ns0:preamble="/home/boisgera/DISKS/VOYAGER/ENS/TRAITEMENT_DU_SIGNAL/2011/SLIDES/header.tex"
         id="g4662">
        <defs
           id="defs4664">
          <g
             id="g4666">
            <symbol
               style="overflow:visible"
               overflow="visible"
               id="textext-7b613c1b-0">
              <path
                 inkscape:connector-curvature="0"
                 style="stroke:none"
                 d="M 3.328125,-3.015625 C 3.390625,-3.265625 3.625,-4.1875 4.3125,-4.1875 c 0.046875,0 0.296875,0 0.5,0.125 C 4.53125,-4 4.34375,-3.765625 4.34375,-3.515625 c 0,0.15625 0.109375,0.34375 0.375,0.34375 0.21875,0 0.53125,-0.171875 0.53125,-0.578125 0,-0.515625 -0.578125,-0.65625 -0.921875,-0.65625 -0.578125,0 -0.921875,0.53125 -1.046875,0.75 -0.25,-0.65625 -0.78125,-0.75 -1.078125,-0.75 -1.03125,0 -1.609375,1.28125 -1.609375,1.53125 0,0.109375 0.109375,0.109375 0.125,0.109375 0.078125,0 0.109375,-0.03125 0.125,-0.109375 0.34375,-1.0625 1,-1.3125 1.34375,-1.3125 0.1875,0 0.53125,0.09375 0.53125,0.671875 0,0.3125 -0.171875,0.96875 -0.53125,2.375 -0.15625,0.609375 -0.515625,1.03125 -0.953125,1.03125 -0.0625,0 -0.28125,0 -0.5,-0.125 0.25,-0.0625 0.46875,-0.265625 0.46875,-0.546875 0,-0.265625 -0.21875,-0.34375 -0.359375,-0.34375 -0.3125,0 -0.546875,0.25 -0.546875,0.578125 0,0.453125 0.484375,0.65625 0.921875,0.65625 0.671875,0 1.03125,-0.703125 1.046875,-0.75 0.125,0.359375 0.484375,0.75 1.078125,0.75 1.03125,0 1.59375,-1.28125 1.59375,-1.53125 0,-0.109375 -0.078125,-0.109375 -0.109375,-0.109375 -0.09375,0 -0.109375,0.046875 -0.140625,0.109375 -0.328125,1.078125 -1,1.3125 -1.3125,1.3125 -0.390625,0 -0.546875,-0.3125 -0.546875,-0.65625 0,-0.21875 0.046875,-0.4375 0.15625,-0.875 z m 0,0"
                 id="path4669" />
            </symbol>
          </g>
        </defs>
        <g
           id="textext-7b613c1b-1">
          <g
             style="fill:#000000;fill-opacity:1"
             id="g4672">
            <use
               height="1200"
               width="1600"
               xlink:href="#textext-7b613c1b-0"
               x="223.43201"
               y="134.765"
               id="use4674" />
          </g>
        </g>
      </g>
      <path
         transform="translate(0,-147.63782)"
         inkscape:connector-curvature="0"
         id="path4796"
         d="M 1013.4403,468.20461 914.74424,388.7663"
         style="fill:none;stroke:#000000;stroke-width:3;stroke-linecap:butt;stroke-linejoin:miter;stroke-miterlimit:4;stroke-opacity:1;stroke-dasharray:none" />
      <g
         id="g4921"
         ns0:preamble="/home/boisgera/DISKS/VOYAGER/ENS/TRAITEMENT_DU_SIGNAL/2011/SLIDES/header.tex"
         ns0:text="$p(t,x)$"
         transform="matrix(5.25,0,0,5.25,-97.302555,-352.27383)">
        <defs
           id="defs4923">
          <g
             id="g4925">
            <symbol
               id="textext-74db6f67-0"
               overflow="visible"
               style="overflow:visible">
              <path
                 id="path4928"
                 d="M 0.453125,1.21875 C 0.375,1.5625 0.34375,1.625 -0.09375,1.625 c -0.109375,0 -0.21875,0 -0.21875,0.1875 0,0.078125 0.046875,0.125 0.125,0.125 0.265625,0 0.5625,-0.03125 0.828125,-0.03125 0.34375,0 0.671875,0.03125 1,0.03125 0.046875,0 0.171875,0 0.171875,-0.203125 C 1.8125,1.625 1.71875,1.625 1.578125,1.625 c -0.5,0 -0.5,-0.0625 -0.5,-0.15625 0,-0.125 0.421875,-1.75 0.484375,-2 0.125,0.296875 0.40625,0.640625 0.921875,0.640625 1.15625,0 2.40625,-1.453125 2.40625,-2.921875 0,-0.9375 -0.578125,-1.59375 -1.328125,-1.59375 -0.5,0 -0.984375,0.359375 -1.3125,0.75 -0.09375,-0.546875 -0.53125,-0.75 -0.890625,-0.75 -0.46875,0 -0.65625,0.390625 -0.734375,0.5625 C 0.4375,-3.5 0.3125,-2.90625 0.3125,-2.875 c 0,0.109375 0.09375,0.109375 0.109375,0.109375 0.109375,0 0.109375,-0.015625 0.171875,-0.234375 0.171875,-0.703125 0.375,-1.1875 0.734375,-1.1875 0.171875,0 0.3125,0.078125 0.3125,0.453125 0,0.234375 -0.03125,0.34375 -0.078125,0.515625 z m 1.75,-4.328125 C 2.265625,-3.375 2.546875,-3.65625 2.71875,-3.8125 c 0.359375,-0.296875 0.640625,-0.375 0.8125,-0.375 0.390625,0 0.640625,0.34375 0.640625,0.9375 0,0.59375 -0.328125,1.734375 -0.515625,2.109375 -0.34375,0.703125 -0.8125,1.03125 -1.1875,1.03125 C 1.8125,-0.109375 1.6875,-0.9375 1.6875,-1 c 0,-0.015625 0,-0.03125 0.03125,-0.15625 z m 0,0"
                 style="stroke:none"
                 inkscape:connector-curvature="0" />
            </symbol>
            <symbol
               id="textext-74db6f67-1"
               overflow="visible"
               style="overflow:visible">
              <path
                 id="path4931"
                 d="m 2.046875,-3.984375 0.9375,0 c 0.203125,0 0.3125,0 0.3125,-0.203125 0,-0.109375 -0.109375,-0.109375 -0.28125,-0.109375 l -0.875,0 C 2.5,-5.71875 2.546875,-5.90625 2.546875,-5.96875 c 0,-0.171875 -0.125,-0.265625 -0.296875,-0.265625 -0.03125,0 -0.3125,0 -0.390625,0.359375 l -0.390625,1.578125 -0.9375,0 c -0.203125,0 -0.296875,0 -0.296875,0.1875 0,0.125 0.078125,0.125 0.28125,0.125 l 0.875,0 C 0.671875,-1.15625 0.625,-0.984375 0.625,-0.8125 0.625,-0.265625 1,0.109375 1.546875,0.109375 2.5625,0.109375 3.125,-1.34375 3.125,-1.421875 3.125,-1.53125 3.046875,-1.53125 3.015625,-1.53125 2.921875,-1.53125 2.90625,-1.5 2.859375,-1.390625 2.4375,-0.34375 1.90625,-0.109375 1.5625,-0.109375 c -0.203125,0 -0.3125,-0.125 -0.3125,-0.453125 0,-0.25 0.03125,-0.3125 0.0625,-0.484375 z m 0,0"
                 style="stroke:none"
                 inkscape:connector-curvature="0" />
            </symbol>
            <symbol
               id="textext-74db6f67-2"
               overflow="visible"
               style="overflow:visible">
              <path
                 id="path4934"
                 d="m 2.03125,-0.015625 c 0,-0.65625 -0.25,-1.046875 -0.640625,-1.046875 -0.328125,0 -0.53125,0.25 -0.53125,0.53125 C 0.859375,-0.265625 1.0625,0 1.390625,0 1.5,0 1.640625,-0.046875 1.734375,-0.125 1.765625,-0.15625 1.78125,-0.15625 1.78125,-0.15625 c 0.015625,0 0.015625,0 0.015625,0.140625 0,0.75 -0.34375,1.34375 -0.671875,1.671875 -0.109375,0.109375 -0.109375,0.125 -0.109375,0.15625 0,0.078125 0.046875,0.109375 0.09375,0.109375 0.109375,0 0.921875,-0.765625 0.921875,-1.9375 z m 0,0"
                 style="stroke:none"
                 inkscape:connector-curvature="0" />
            </symbol>
            <symbol
               id="textext-74db6f67-3"
               overflow="visible"
               style="overflow:visible">
              <path
                 id="path4937"
                 d="M 3.328125,-3.015625 C 3.390625,-3.265625 3.625,-4.1875 4.3125,-4.1875 c 0.046875,0 0.296875,0 0.5,0.125 C 4.53125,-4 4.34375,-3.765625 4.34375,-3.515625 c 0,0.15625 0.109375,0.34375 0.375,0.34375 0.21875,0 0.53125,-0.171875 0.53125,-0.578125 0,-0.515625 -0.578125,-0.65625 -0.921875,-0.65625 -0.578125,0 -0.921875,0.53125 -1.046875,0.75 -0.25,-0.65625 -0.78125,-0.75 -1.078125,-0.75 -1.03125,0 -1.609375,1.28125 -1.609375,1.53125 0,0.109375 0.109375,0.109375 0.125,0.109375 0.078125,0 0.109375,-0.03125 0.125,-0.109375 0.34375,-1.0625 1,-1.3125 1.34375,-1.3125 0.1875,0 0.53125,0.09375 0.53125,0.671875 0,0.3125 -0.171875,0.96875 -0.53125,2.375 -0.15625,0.609375 -0.515625,1.03125 -0.953125,1.03125 -0.0625,0 -0.28125,0 -0.5,-0.125 0.25,-0.0625 0.46875,-0.265625 0.46875,-0.546875 0,-0.265625 -0.21875,-0.34375 -0.359375,-0.34375 -0.3125,0 -0.546875,0.25 -0.546875,0.578125 0,0.453125 0.484375,0.65625 0.921875,0.65625 0.671875,0 1.03125,-0.703125 1.046875,-0.75 0.125,0.359375 0.484375,0.75 1.078125,0.75 1.03125,0 1.59375,-1.28125 1.59375,-1.53125 0,-0.109375 -0.078125,-0.109375 -0.109375,-0.109375 -0.09375,0 -0.109375,0.046875 -0.140625,0.109375 -0.328125,1.078125 -1,1.3125 -1.3125,1.3125 -0.390625,0 -0.546875,-0.3125 -0.546875,-0.65625 0,-0.21875 0.046875,-0.4375 0.15625,-0.875 z m 0,0"
                 style="stroke:none"
                 inkscape:connector-curvature="0" />
            </symbol>
            <symbol
               id="textext-74db6f67-4"
               overflow="visible"
               style="overflow:visible">
              <path
                 id="path4940"
                 d="m 3.296875,2.390625 c 0,-0.03125 0,-0.046875 -0.171875,-0.21875 C 1.890625,0.921875 1.5625,-0.96875 1.5625,-2.5 c 0,-1.734375 0.375,-3.46875 1.609375,-4.703125 0.125,-0.125 0.125,-0.140625 0.125,-0.171875 0,-0.078125 -0.03125,-0.109375 -0.09375,-0.109375 -0.109375,0 -1,0.6875 -1.59375,1.953125 -0.5,1.09375 -0.625,2.203125 -0.625,3.03125 0,0.78125 0.109375,1.984375 0.65625,3.125 C 2.25,1.84375 3.09375,2.5 3.203125,2.5 c 0.0625,0 0.09375,-0.03125 0.09375,-0.109375 z m 0,0"
                 style="stroke:none"
                 inkscape:connector-curvature="0" />
            </symbol>
            <symbol
               id="textext-74db6f67-5"
               overflow="visible"
               style="overflow:visible">
              <path
                 id="path4943"
                 d="m 2.875,-2.5 c 0,-0.765625 -0.109375,-1.96875 -0.65625,-3.109375 -0.59375,-1.21875 -1.453125,-1.875 -1.546875,-1.875 -0.0625,0 -0.109375,0.046875 -0.109375,0.109375 0,0.03125 0,0.046875 0.1875,0.234375 0.984375,0.984375 1.546875,2.5625 1.546875,4.640625 0,1.71875 -0.359375,3.46875 -1.59375,4.71875 C 0.5625,2.34375 0.5625,2.359375 0.5625,2.390625 0.5625,2.453125 0.609375,2.5 0.671875,2.5 0.765625,2.5 1.671875,1.8125 2.25,0.546875 2.765625,-0.546875 2.875,-1.65625 2.875,-2.5 z m 0,0"
                 style="stroke:none"
                 inkscape:connector-curvature="0" />
            </symbol>
          </g>
        </defs>
        <g
           id="textext-74db6f67-6">
          <g
             id="g4946"
             style="fill:#000000;fill-opacity:1">
            <use
               id="use4948"
               y="134.765"
               x="223.43201"
               xlink:href="#textext-74db6f67-0"
               width="1600"
               height="1200" />
          </g>
          <g
             id="g4950"
             style="fill:#000000;fill-opacity:1">
            <use
               id="use4952"
               y="134.765"
               x="228.44501"
               xlink:href="#textext-74db6f67-4"
               width="1600"
               height="1200" />
          </g>
          <g
             id="g4954"
             style="fill:#000000;fill-opacity:1">
            <use
               id="use4956"
               y="134.765"
               x="232.319"
               xlink:href="#textext-74db6f67-1"
               width="1600"
               height="1200" />
            <use
               id="use4958"
               y="134.765"
               x="235.91649"
               xlink:href="#textext-74db6f67-2"
               width="1600"
               height="1200" />
          </g>
          <g
             id="g4960"
             style="fill:#000000;fill-opacity:1">
            <use
               id="use4962"
               y="134.765"
               x="240.34785"
               xlink:href="#textext-74db6f67-3"
               width="1600"
               height="1200" />
          </g>
          <g
             id="g4964"
             style="fill:#000000;fill-opacity:1">
            <use
               id="use4966"
               y="134.765"
               x="246.03799"
               xlink:href="#textext-74db6f67-5"
               width="1600"
               height="1200" />
          </g>
        </g>
      </g>
      <g
         transform="translate(-6.0180542,-85.456369)"
         id="g6294">
        <g
           id="g5266"
           ns0:preamble="/home/boisgera/DISKS/VOYAGER/ENS/TRAITEMENT_DU_SIGNAL/2011/SLIDES/header.tex"
           ns0:text="$\\phi(t,x)$"
           transform="matrix(5.25,0,0,5.25,-366.60923,-269.2247)">
          <defs
             id="defs5268">
            <g
               id="g5270">
              <symbol
                 id="textext-b029c907-0"
                 overflow="visible"
                 style="overflow:visible">
                <path
                   id="path5273"
                   d="m 4.359375,-6.671875 c 0,-0.03125 0.03125,-0.140625 0.03125,-0.140625 0,-0.015625 0,-0.109375 -0.125,-0.109375 -0.09375,0 -0.109375,0.03125 -0.15625,0.203125 L 3.53125,-4.421875 c -1.578125,0.0625 -3.046875,1.375 -3.046875,2.734375 0,0.953125 0.703125,1.734375 1.921875,1.8125 C 2.328125,0.421875 2.25,0.75 2.171875,1.0625 c -0.125,0.46875 -0.21875,0.84375 -0.21875,0.875 0,0.09375 0.078125,0.109375 0.125,0.109375 C 2.125,2.046875 2.140625,2.03125 2.171875,2 2.1875,1.984375 2.25,1.75 2.28125,1.609375 L 2.65625,0.125 c 1.609375,-0.0625 3.0625,-1.40625 3.0625,-2.734375 0,-0.796875 -0.53125,-1.703125 -1.921875,-1.8125 z m -1.90625,6.578125 c -0.59375,-0.03125 -1.3125,-0.390625 -1.3125,-1.375 0,-1.203125 0.859375,-2.59375 2.34375,-2.734375 z m 1.28125,-4.109375 c 0.765625,0.046875 1.328125,0.5 1.328125,1.375 0,1.1875 -0.859375,2.609375 -2.34375,2.734375 z m 0,0"
                   style="stroke:none"
                   inkscape:connector-curvature="0" />
              </symbol>
              <symbol
                 id="textext-b029c907-1"
                 overflow="visible"
                 style="overflow:visible">
                <path
                   id="path5276"
                   d="m 2.046875,-3.984375 0.9375,0 c 0.203125,0 0.3125,0 0.3125,-0.203125 0,-0.109375 -0.109375,-0.109375 -0.28125,-0.109375 l -0.875,0 C 2.5,-5.71875 2.546875,-5.90625 2.546875,-5.96875 c 0,-0.171875 -0.125,-0.265625 -0.296875,-0.265625 -0.03125,0 -0.3125,0 -0.390625,0.359375 l -0.390625,1.578125 -0.9375,0 c -0.203125,0 -0.296875,0 -0.296875,0.1875 0,0.125 0.078125,0.125 0.28125,0.125 l 0.875,0 C 0.671875,-1.15625 0.625,-0.984375 0.625,-0.8125 0.625,-0.265625 1,0.109375 1.546875,0.109375 2.5625,0.109375 3.125,-1.34375 3.125,-1.421875 3.125,-1.53125 3.046875,-1.53125 3.015625,-1.53125 2.921875,-1.53125 2.90625,-1.5 2.859375,-1.390625 2.4375,-0.34375 1.90625,-0.109375 1.5625,-0.109375 c -0.203125,0 -0.3125,-0.125 -0.3125,-0.453125 0,-0.25 0.03125,-0.3125 0.0625,-0.484375 z m 0,0"
                   style="stroke:none"
                   inkscape:connector-curvature="0" />
              </symbol>
              <symbol
                 id="textext-b029c907-2"
                 overflow="visible"
                 style="overflow:visible">
                <path
                   id="path5279"
                   d="m 2.03125,-0.015625 c 0,-0.65625 -0.25,-1.046875 -0.640625,-1.046875 -0.328125,0 -0.53125,0.25 -0.53125,0.53125 C 0.859375,-0.265625 1.0625,0 1.390625,0 1.5,0 1.640625,-0.046875 1.734375,-0.125 1.765625,-0.15625 1.78125,-0.15625 1.78125,-0.15625 c 0.015625,0 0.015625,0 0.015625,0.140625 0,0.75 -0.34375,1.34375 -0.671875,1.671875 -0.109375,0.109375 -0.109375,0.125 -0.109375,0.15625 0,0.078125 0.046875,0.109375 0.09375,0.109375 0.109375,0 0.921875,-0.765625 0.921875,-1.9375 z m 0,0"
                   style="stroke:none"
                   inkscape:connector-curvature="0" />
              </symbol>
              <symbol
                 id="textext-b029c907-3"
                 overflow="visible"
                 style="overflow:visible">
                <path
                   id="path5282"
                   d="M 3.328125,-3.015625 C 3.390625,-3.265625 3.625,-4.1875 4.3125,-4.1875 c 0.046875,0 0.296875,0 0.5,0.125 C 4.53125,-4 4.34375,-3.765625 4.34375,-3.515625 c 0,0.15625 0.109375,0.34375 0.375,0.34375 0.21875,0 0.53125,-0.171875 0.53125,-0.578125 0,-0.515625 -0.578125,-0.65625 -0.921875,-0.65625 -0.578125,0 -0.921875,0.53125 -1.046875,0.75 -0.25,-0.65625 -0.78125,-0.75 -1.078125,-0.75 -1.03125,0 -1.609375,1.28125 -1.609375,1.53125 0,0.109375 0.109375,0.109375 0.125,0.109375 0.078125,0 0.109375,-0.03125 0.125,-0.109375 0.34375,-1.0625 1,-1.3125 1.34375,-1.3125 0.1875,0 0.53125,0.09375 0.53125,0.671875 0,0.3125 -0.171875,0.96875 -0.53125,2.375 -0.15625,0.609375 -0.515625,1.03125 -0.953125,1.03125 -0.0625,0 -0.28125,0 -0.5,-0.125 0.25,-0.0625 0.46875,-0.265625 0.46875,-0.546875 0,-0.265625 -0.21875,-0.34375 -0.359375,-0.34375 -0.3125,0 -0.546875,0.25 -0.546875,0.578125 0,0.453125 0.484375,0.65625 0.921875,0.65625 0.671875,0 1.03125,-0.703125 1.046875,-0.75 0.125,0.359375 0.484375,0.75 1.078125,0.75 1.03125,0 1.59375,-1.28125 1.59375,-1.53125 0,-0.109375 -0.078125,-0.109375 -0.109375,-0.109375 -0.09375,0 -0.109375,0.046875 -0.140625,0.109375 -0.328125,1.078125 -1,1.3125 -1.3125,1.3125 -0.390625,0 -0.546875,-0.3125 -0.546875,-0.65625 0,-0.21875 0.046875,-0.4375 0.15625,-0.875 z m 0,0"
                   style="stroke:none"
                   inkscape:connector-curvature="0" />
              </symbol>
              <symbol
                 id="textext-b029c907-4"
                 overflow="visible"
                 style="overflow:visible">
                <path
                   id="path5285"
                   d="m 3.296875,2.390625 c 0,-0.03125 0,-0.046875 -0.171875,-0.21875 C 1.890625,0.921875 1.5625,-0.96875 1.5625,-2.5 c 0,-1.734375 0.375,-3.46875 1.609375,-4.703125 0.125,-0.125 0.125,-0.140625 0.125,-0.171875 0,-0.078125 -0.03125,-0.109375 -0.09375,-0.109375 -0.109375,0 -1,0.6875 -1.59375,1.953125 -0.5,1.09375 -0.625,2.203125 -0.625,3.03125 0,0.78125 0.109375,1.984375 0.65625,3.125 C 2.25,1.84375 3.09375,2.5 3.203125,2.5 c 0.0625,0 0.09375,-0.03125 0.09375,-0.109375 z m 0,0"
                   style="stroke:none"
                   inkscape:connector-curvature="0" />
              </symbol>
              <symbol
                 id="textext-b029c907-5"
                 overflow="visible"
                 style="overflow:visible">
                <path
                   id="path5288"
                   d="m 2.875,-2.5 c 0,-0.765625 -0.109375,-1.96875 -0.65625,-3.109375 -0.59375,-1.21875 -1.453125,-1.875 -1.546875,-1.875 -0.0625,0 -0.109375,0.046875 -0.109375,0.109375 0,0.03125 0,0.046875 0.1875,0.234375 0.984375,0.984375 1.546875,2.5625 1.546875,4.640625 0,1.71875 -0.359375,3.46875 -1.59375,4.71875 C 0.5625,2.34375 0.5625,2.359375 0.5625,2.390625 0.5625,2.453125 0.609375,2.5 0.671875,2.5 0.765625,2.5 1.671875,1.8125 2.25,0.546875 2.765625,-0.546875 2.875,-1.65625 2.875,-2.5 z m 0,0"
                   style="stroke:none"
                   inkscape:connector-curvature="0" />
              </symbol>
            </g>
          </defs>
          <g
             id="textext-b029c907-6">
            <g
               id="g5291"
               style="fill:#000000;fill-opacity:1">
              <use
                 id="use5293"
                 y="134.765"
                 x="223.43201"
                 xlink:href="#textext-b029c907-0"
                 width="1600"
                 height="1200" />
            </g>
            <g
               id="g5295"
               style="fill:#000000;fill-opacity:1">
              <use
                 id="use5297"
                 y="134.765"
                 x="229.368"
                 xlink:href="#textext-b029c907-4"
                 width="1600"
                 height="1200" />
            </g>
            <g
               id="g5299"
               style="fill:#000000;fill-opacity:1">
              <use
                 id="use5301"
                 y="134.765"
                 x="233.243"
                 xlink:href="#textext-b029c907-1"
                 width="1600"
                 height="1200" />
              <use
                 id="use5303"
                 y="134.765"
                 x="236.8405"
                 xlink:href="#textext-b029c907-2"
                 width="1600"
                 height="1200" />
            </g>
            <g
               id="g5305"
               style="fill:#000000;fill-opacity:1">
              <use
                 id="use5307"
                 y="134.765"
                 x="241.27187"
                 xlink:href="#textext-b029c907-3"
                 width="1600"
                 height="1200" />
            </g>
            <g
               id="g5309"
               style="fill:#000000;fill-opacity:1">
              <use
                 id="use5311"
                 y="134.765"
                 x="246.96201"
                 xlink:href="#textext-b029c907-5"
                 width="1600"
                 height="1200" />
            </g>
          </g>
        </g>
        <path
           style="fill:#ff0000;fill-opacity:0.19634705;stroke:#000000;stroke-width:5;stroke-linecap:butt;stroke-linejoin:miter;stroke-miterlimit:4;stroke-opacity:1;stroke-dasharray:none;marker-end:url(#TriangleOutM)"
           d="m 791.45907,459.40731 164.89469,0"
           id="path5488-1-2"
           inkscape:connector-curvature="0" />
      </g>
    </g>
  </g>
</svg>
